<svg width="1054" height="268" viewBox="0 0 1054 268" fill="none" xmlns="http://www.w3.org/2000/svg">
<path d="M1025.24 143.507C1028.29 144.407 1030.95 145.453 1035.07 143.823C1036.6 143.239 1040.85 142.339 1043.13 143.555C1045.6 144.845 1044.08 146.45 1042.12 147.691C1040.72 148.567 1038.06 149.005 1040.28 150.343C1041.48 151.049 1039.13 151.56 1037.36 151.754C1034.38 152.07 1031.01 152.825 1028.92 151.219C1027.02 149.735 1024.16 149.759 1020.86 150.319C1019.6 150.513 1019.09 150.83 1019.15 151.389C1019.28 153.384 1017.25 153.968 1011.86 153.384C1008.81 153.068 1005.58 152.046 1005.96 154.528C1006.15 155.574 1002.91 155.574 1000.76 155.623C998.662 155.647 995.87 155.185 995.87 156.571C995.87 158.08 998.852 157.91 1001.52 157.861C1005.58 157.764 1009.57 157.155 1013.7 158.153C1017.63 159.102 1018.26 160.294 1014.2 161.291C1011.54 161.948 1008.43 162.41 1005.39 162.775C998.027 163.676 990.605 164.503 983.12 165.281C980.582 165.549 977.918 166.06 976.396 164.405C975.381 163.335 972.716 163.822 972.145 164.649C971.13 166.011 968.466 166.036 965.738 166.303C959.712 166.863 954.13 168.371 947.849 168.128C941.95 167.909 938.017 169.442 932.942 169.855C930.278 170.074 930.404 170.415 931.927 171.266C934.782 172.823 937.89 174.453 934.655 176.521C933.767 177.081 934.337 177.568 935.86 177.86C937.763 178.2 939.539 178.079 940.681 177.422C944.931 174.94 950.894 174.721 957.428 175.67C960.664 176.132 963.835 176.424 967.451 176.594C959.331 177.787 950.958 178.735 943.155 180.22C937.446 181.29 931.546 181.363 925.71 181.679C920.699 181.971 919.43 181.168 921.396 179.392C921.65 179.125 922.158 178.76 921.904 178.565C919.113 176.448 923.427 177.495 925.012 177.616C926.789 177.738 928.945 178.225 929.96 177.495C931.293 176.522 927.994 176.594 926.979 176.132C924.695 175.159 922.665 174.21 925.901 172.945C927.74 172.239 926.662 171.923 924.632 171.704C920.382 171.242 916.195 170.512 911.691 170.974C900.653 172.094 889.044 171.826 877.943 172.848C872.614 173.334 871.726 174.575 871.663 176.181C871.599 178.176 873.756 179.757 878.767 180.585C880.353 180.852 881.305 180.511 881.749 179.855C883.398 177.592 885.999 177.251 890.503 179.1C896.212 181.436 904.205 180.244 911.12 180.73C913.086 180.876 916.068 180.22 916.512 181.46C916.893 182.482 914.228 182.774 912.198 183.066C907.123 183.796 901.985 183.626 896.72 183.309C893.358 183.115 890.186 182.944 888.029 184.55C886.76 185.475 883.906 185.84 882.51 184.21C881.876 183.431 881.178 182.458 878.26 182.507C876.674 182.531 873.883 182.434 875.913 183.65C879.085 185.596 875.723 186.448 871.726 186.715C866.334 187.08 861.132 187.202 857.643 189.173C856.248 189.976 853.266 189.781 850.856 189.732C837.724 189.416 825.481 191.8 812.223 191.581C816.79 192.092 821.358 192.311 825.798 192.701C847.557 194.574 869.442 196.034 891.962 195.644C900.716 195.498 909.597 195.79 918.415 195.62C923.109 195.523 926.344 197.201 930.785 197.737C932.498 197.956 931.8 199.002 929.897 199.391C929.072 199.561 927.93 199.488 926.979 199.537C921.206 199.829 915.37 199.756 910.105 201.143C908.075 201.678 904.84 201.994 902.302 200.973C901.16 200.51 899.701 200.681 898.369 200.9C894.69 201.508 891.011 202.116 886.126 202.919C889.678 203.211 892.216 203.697 894.436 203.551C902.619 203.065 904.649 205.255 906.996 207.42C907.504 207.882 908.075 208.247 906.679 208.612C901.604 209.999 905.855 210.485 908.392 210.875C913.848 211.677 919.938 212.018 925.52 211.75C931.546 211.434 937.509 211.531 943.472 211.459C946.454 211.41 950.831 212.018 951.211 209.853C951.275 209.391 952.67 209.488 953.685 209.488C963.391 209.488 973.097 209.488 982.803 210.802C981.217 211.75 978.87 211.945 976.649 211.507C970.877 210.339 965.738 211.677 960.41 212.018C959.268 212.091 957.872 212.31 958.126 212.894C958.38 213.478 959.902 213.405 961.044 213.502C968.974 214.135 977.093 213.794 985.15 214.037C985.213 214.694 983.945 214.524 983.183 214.548C980.456 214.621 978.426 214.889 978.679 216.178C978.933 217.517 981.47 217.468 983.945 217.517C985.467 217.541 987.497 217.225 988.385 217.881C989.337 218.563 987.37 219.001 986.419 219.439C981.407 221.871 981.344 221.847 988.385 223.574C982.295 225.667 974.746 226.032 966.753 226.689C970.242 228.124 974.366 228.489 978.616 228.708C980.392 228.805 982.422 228.684 982.359 229.73C982.295 230.873 979.821 230.581 978.299 230.557C974.556 230.484 971.067 230.46 968.783 231.92C968.022 232.406 966.5 232.382 964.977 232.309C959.078 232.017 953.495 232.43 948.293 233.525C947.088 233.793 946.01 233.647 944.804 233.598C941.633 233.452 938.651 233.404 940.681 235.204C941.95 236.323 937.826 236.372 937.89 237.369C938.715 237.418 939.73 237.588 940.174 237.467C946.771 235.666 954.764 236.08 961.996 235.326C966.246 234.863 970.369 234.377 973.795 233.136C978.172 231.506 984.135 232.333 989.273 232.236C990.922 232.212 994.919 234.255 993.587 235.277C991.937 236.518 992.889 236.518 995.236 236.664C998.662 236.858 999.994 237.734 1000.12 238.926C1000.5 242.211 1000.25 245.544 1003.67 248.682C1004.37 249.315 998.471 251.918 996.505 251.894C991.176 251.845 985.594 252.891 980.773 250.823C978.806 249.972 974.429 250.094 971.448 250.41C964.914 251.115 957.936 251.188 951.909 252.6C949.245 253.208 946.2 253.086 943.853 252.551C940.808 251.845 938.08 250.799 942.14 249.437C945.566 248.293 943.663 248.026 940.618 247.782C937.89 247.588 935.099 247.466 933.069 246.663C933.83 245.666 938.08 246.177 937.509 244.96C937.065 243.914 934.338 243.646 932.244 243.233C930.658 242.916 928.882 242.722 927.106 242.551C925.266 242.357 923.363 242.43 922.348 243.16C921.46 243.817 922.538 244.327 923.617 244.814C924.568 245.228 926.852 245.617 925.076 246.274C923.49 246.858 921.65 246.323 920.255 245.909C919.176 245.568 918.352 245.106 917.4 244.717C915.878 244.084 914.165 243.257 911.945 244.109C910.232 244.79 909.661 245.787 911.818 246.59C914.672 247.636 916.004 249.583 921.714 248.95C922.158 248.901 923.3 249.193 923.553 249.412C923.997 249.899 922.982 250.069 921.967 250.167C920.635 250.313 919.113 250.313 917.971 250.556C916.449 250.872 914.101 251.067 913.974 251.821C913.784 252.697 916.448 252.648 917.908 253.013C918.986 253.305 921.143 253.183 920.953 253.913C920.762 254.765 918.669 254.595 917.21 254.716C911.627 255.203 911.627 255.203 913.213 256.881C913.34 257.003 913.467 257.125 913.594 257.246C908.582 257.417 908.202 259.704 904.459 260.288C901.287 260.774 898.686 260.239 898.496 258.609C898.179 256.006 897.1 255.762 890.947 256.492C882.954 257.441 875.342 256.565 868.237 255.397C863.923 254.692 861.767 255.081 860.181 256.517C859.293 257.271 859.166 258.147 857.199 258.73C856.248 258.998 856.565 259.509 857.453 259.728C862.084 260.823 865.7 262.818 872.234 262.356C874.644 262.185 876.801 262.38 878.26 263.085C879.909 263.888 880.417 265.178 877.055 265.178C870.521 265.153 864.114 265.713 857.707 265.762C854.154 265.786 851.617 265.47 854.281 263.499C855.55 262.55 851.553 261.115 848.445 261.066C843.624 261.017 839.057 260.896 834.426 260.312C832.142 260.02 828.272 259.923 827.955 261.212C827.575 262.672 831.444 262.453 833.791 262.38C837.28 262.283 840.642 262.477 844.005 262.648C846.225 262.745 847.684 263.28 848.001 264.156C848.318 265.105 846.479 265.518 844.639 265.859C842.355 266.273 839.754 266.443 837.597 266.127C832.079 265.275 827.13 265.835 821.865 266.516C818.123 267.003 813.999 267.124 810.003 267.367C808.607 267.44 806.387 267.611 806.07 267.173C803.913 264.545 798.901 266.273 797.125 266.686C793.319 267.586 790.528 267.124 786.975 266.832C778.665 266.175 770.102 266.735 761.855 267.027C754.369 267.294 747.138 266.005 739.716 266.832C738.257 267.002 736.988 266.54 736.861 265.908C736.607 264.74 737.876 263.84 740.413 263.158C742.126 262.696 744.473 263.231 745.996 262.55C745.552 261.626 743.014 261.893 741.809 261.431C740.35 260.872 737.939 260.409 739.018 259.387C739.589 258.876 741.872 258.341 738.701 258.122C736.797 257.976 734.133 258.074 734.26 259.144C734.323 260.482 732.484 260.215 730.39 260.093C725.823 259.825 721.319 259.314 716.625 259.631C716.244 259.655 715.673 259.679 715.419 259.582C707.3 256.881 703.24 261.334 696.452 261.212C695.247 261.188 695.881 262.234 697.213 262.477C700.258 263.037 704.065 264.132 706.475 263.791C710.916 263.183 714.785 263.986 718.845 263.791C722.334 263.621 723.095 264.497 721.256 265.275C719.289 266.102 719.479 266.881 720.177 268C716.308 267.221 710.916 266.492 709.33 266.735C704.065 267.538 701.21 266.54 697.594 265.689C696.833 265.494 696.072 266.029 696.389 266.492C696.769 267.051 699.18 267.903 695.501 267.951C692.9 268 690.87 267.416 690.235 266.37C689.791 265.64 689.538 264.545 690.045 264.156C693.09 261.869 687.952 261.626 685.034 261.334C681.164 260.944 677.358 259.996 672.22 260.604C675.138 261.626 677.865 262.258 681.101 262.648C682.56 262.818 684.653 262.915 684.463 263.718C684.272 264.618 682.052 264.643 680.339 264.74C678.753 264.837 677.104 264.837 675.518 264.91C673.996 264.983 673.108 265.275 672.6 265.883C670.951 267.976 668.667 268.316 664.036 266.881C657.376 264.813 650.08 263.913 641.643 264.302C639.043 264.424 636.568 264.594 634.665 265.445C631.367 266.93 626.799 266.613 624.706 264.861C622.866 263.304 612.78 262.769 609.608 264.059C608.022 264.691 609.228 265.007 610.687 265.202C612.59 265.421 614.556 265.591 616.459 266.127C607.007 266.127 597.492 266.2 588.04 266.078C585.693 266.054 582.648 265.859 583.219 264.302C583.536 263.523 581.316 263.402 579.793 263.304C576.241 263.085 572.562 262.599 569.073 262.745C555.561 263.329 542.683 261.65 529.425 261.382C521.495 261.236 513.566 260.75 505.636 260.482C501.069 260.336 498.595 261.796 494.028 261.723C490.665 261.65 486.923 261.553 484.702 261.017C479.247 259.728 473.157 260.02 467.575 259.339C466.687 259.241 465.418 259.168 464.72 259.339C459.328 260.628 460.153 258.974 459.962 257.879C459.836 257.246 461.231 256.273 458.567 256.176C455.078 256.03 451.399 255.665 447.973 256.346C447.656 256.419 447.465 256.784 447.656 256.979C448.036 257.538 449.305 257.66 450.574 257.538C453.492 257.271 456.283 257.319 456.22 258.73C456.156 260.117 452.667 260.239 450.32 260.02C442.454 259.29 434.398 260.726 426.405 259.509C423.043 258.998 418.285 257.368 417.841 257.709C415.684 259.436 412.195 258.779 409.087 258.949C407.437 259.047 405.851 259.12 404.392 258.828C399.318 257.83 397.288 257.733 396.97 260.58C396.717 262.842 390.817 261.382 387.138 261.431C387.392 261.139 387.392 260.944 387.645 260.871C389.358 260.434 392.847 260.677 392.593 259.558C392.34 258.487 389.104 258.195 386.884 258.22C382.951 258.268 378.891 257.125 374.958 258.633C372.294 259.679 370.518 260.288 376.354 261.017C371.279 261.82 368.234 261.553 366.775 259.898C365.316 258.317 362.334 257.83 358.338 257.83C348.632 257.855 339.244 257.271 329.728 256.468C322.433 255.86 314.313 255.933 306.764 256.784C302.704 257.246 300.294 256.541 298.264 255.324C297.122 254.643 295.155 253.84 293.696 254.862C290.461 257.052 286.274 255.981 282.849 255.397C279.423 254.838 276.569 254.546 273.27 255.373C272.128 255.641 270.479 255.86 269.274 255.762C257.792 254.838 246.119 255.154 234.511 255.13C233.369 255.13 232.1 255.057 231.402 254.376C234.13 253.378 238.507 253.548 241.933 252.502C234.828 251.748 227.786 251.407 222.014 249.753C220.428 249.291 218.842 249.388 219.032 250.41C219.476 252.721 215.289 252.697 211.927 252.064C204.949 250.75 197.337 251.164 190.169 250.556C188.139 250.386 185.982 250.191 184.967 251.115C183.191 252.648 180.526 252.356 177.545 251.797C174.246 251.213 171.011 250.58 167.586 250.118C165.048 249.777 164.985 249.145 165.112 248.318C165.365 247.15 167.395 247.515 169.108 247.588C172.026 247.685 174.944 247.904 177.608 247.271C177.228 246.396 175.515 246.225 174.31 246.274C167.395 246.566 160.227 244.838 153.503 246.687C151.853 247.15 151.726 246.323 151.092 246.031C146.588 244.011 141.894 242.405 134.091 243.452C131.744 243.768 128.382 243.865 126.542 243.16C122.102 241.505 117.09 241.554 111.635 241.846C108.907 241.992 107.258 241.505 105.038 240.751C100.153 239.097 93.6825 239.291 87.5926 239.778C80.1071 240.386 76.1107 239.462 74.271 236.639C73.5732 235.545 74.271 234.961 77.2525 234.936C80.678 234.888 83.8499 234.182 87.3389 234.425C88.5441 234.498 89.8763 234.425 90.1935 233.866C90.4472 233.331 89.4322 232.99 88.3538 232.771C84.6745 232.041 81.3759 230.898 76.6816 231.287C75.4129 231.384 73.827 231.457 72.8754 230.898C72.8754 230.168 74.3344 230.314 75.4763 230.241C77.5062 230.095 80.4243 229.754 78.5212 228.903C77.2525 228.343 78.775 225.91 73.256 227.248C72.1776 227.516 70.5917 227.711 69.8939 227.37C66.0878 225.618 60.1248 224.961 56.3186 223.258C55.2402 222.772 54.479 222.212 55.4939 221.58C56.6358 220.874 58.5389 220.825 60.3151 220.923C70.5283 221.482 80.1072 219.828 90.1301 219.852C90.8279 219.852 91.5257 219.633 92.6041 219.463C91.2085 218.441 88.671 218.709 86.8314 218.417C83.5961 217.906 79.7265 217.76 79.5996 215.838C79.5362 214.84 76.9987 214.524 74.7785 214.378C70.8455 214.11 67.8006 213.21 64.7556 212.334C64.2481 212.188 63.7406 211.775 63.8675 211.556C64.1847 211.069 65.3265 211.094 66.2781 211.313C68.6252 211.823 70.0208 211.604 71.9239 210.826C75.1591 209.463 79.5997 211.118 83.7864 210.339C80.4243 208.977 76.0472 208.928 71.8604 208.709C69.4499 208.588 66.9759 208.661 64.6922 208.466C61.8375 208.223 60.1247 207.322 60.2516 206.276C60.3151 205.327 62.9159 205.303 64.819 205.109C69.2596 204.646 73.7001 204.111 78.3943 204.744C79.219 204.865 80.8049 204.865 81.1855 204.646C85.5626 202.578 91.2719 203.041 96.7908 203.478C99.0745 203.649 99.2648 203.162 99.4551 202.651C99.8992 201.119 98.9476 199.513 95.8393 198.686C88.7344 196.788 81.1221 195.158 71.797 195.596C67.4199 195.79 62.9794 195.912 58.6023 196.058C55.6843 196.155 52.7027 196.228 50.1019 195.328C58.0948 194.769 65.0728 192.263 74.0173 193.771C76.1107 194.136 78.5846 194.087 79.2824 192.944C79.7265 192.214 80.9952 191.946 82.5811 191.752C84.6745 191.484 85.182 190.973 84.9283 190.146C84.4842 188.467 84.5477 188.467 87.4023 187.494C85.4358 187.056 83.4692 186.691 81.6296 186.253C79.7899 185.815 78.775 185.158 79.0921 184.307C79.219 183.893 80.0437 183.528 81.1221 183.577C83.2155 183.626 85.6261 183.407 87.0217 184.331C89.3054 185.864 94.3803 185.961 96.1565 187.47C98.2499 186.934 97.9327 186.667 97.4252 186.399C96.5371 185.888 95.0781 185.28 97.2983 184.867C99.2014 184.526 101.104 184.964 101.358 185.742C101.993 187.616 105.799 187.956 109.351 188.467C110.556 188.638 111.825 188.565 112.713 188.2C113.792 187.762 113.157 187.324 112.333 186.959C110.81 186.302 110.556 185.742 111.698 184.891C113.792 183.309 111.127 182.944 107.765 183.188C103.705 183.504 99.582 184.088 98.567 181.704C93.4287 181.777 88.9882 180.925 84.6745 179.976C84.6111 179.952 84.2305 180.025 84.167 180.074C81.6296 183.626 78.2041 180.463 76.2375 180.049C71.2261 179.003 67.0393 177.908 64.6922 175.305C62.4719 172.848 54.6693 171.023 47.5644 169.855C44.3926 169.344 42.2358 168.541 40.2693 167.544C39.508 167.155 38.6834 166.741 39.6983 166.327C40.9036 165.817 42.8701 166.036 43.4411 166.425C46.0419 168.274 49.7847 167.593 53.9715 167.568C60.1248 167.544 66.2781 168.055 72.5582 167.812C74.271 167.739 75.7301 167.982 76.745 168.541C81.7565 171.364 89.3688 170.658 96.4102 170.658C97.8692 170.658 99.1379 170.293 99.2648 169.661C99.3917 168.906 97.9961 168.566 96.2199 168.468C88.6076 168.031 82.4542 166.084 74.9688 165.476C73.1926 165.33 71.6067 164.892 70.782 164.235C69.8305 163.457 70.4648 162.654 71.6701 162.07C73.1292 161.364 75.4129 161.729 76.4913 162.191C83.2155 164.989 90.701 163.846 98.1864 162.946C99.3283 162.8 100.724 162.483 101.612 162.629C109.605 163.797 118.105 162.605 126.035 163.408C133.901 164.211 141.196 165.622 146.778 168.031C148.237 168.663 149.379 169.344 151.6 168.687C153.439 168.128 155.469 167.471 154.391 166.376C154.137 166.109 152.932 165.817 153.059 165.646C155.406 162.435 147.476 163.14 144.051 162.191C142.148 161.656 139.864 161.729 138.278 162.629C136.692 163.53 135.423 163.14 134.155 162.459C129.904 160.221 126.162 159.564 119.564 161.048C110.683 163.043 102.944 161.851 94.8878 160.683C93.7459 160.513 92.4772 160.342 92.6041 159.759C92.6675 159.248 93.8093 159.223 94.8878 159.199C96.1565 159.15 97.4886 159.077 97.1714 158.42C96.9177 157.885 95.3952 157.569 94.4437 157.691C90.8912 158.104 84.9283 156.474 84.2305 159.418C84.1036 159.929 82.5177 160.075 81.3124 159.905C78.9018 159.564 76.1106 159.321 74.9688 158.299C74.271 157.666 75.6032 157.326 76.8719 157.058C78.204 156.766 80.4243 156.742 80.2974 155.963C80.1706 155.039 77.6965 155.136 76.1106 154.917C73.0657 154.479 71.2895 153.652 70.0842 152.508C66.3415 149.029 52.9565 148.275 46.6763 151.097C45.2807 151.73 46.2957 152.119 46.9935 152.508C48.5794 153.433 49.2772 154.795 52.8296 154.917C54.6693 154.99 54.5424 154.236 54.9864 153.749C56.8895 151.73 59.6807 153.506 61.2666 153.774C63.4869 154.138 62.4084 155.306 62.0913 156.109C61.6472 157.131 59.427 156.888 57.7142 156.742C51.6878 156.279 47.501 155.16 43.4411 153.117C37.9221 150.416 33.9891 146.402 22.1265 146.475C20.3503 146.475 18.8913 146.207 18.8279 145.428C18.7644 144.699 19.9697 144.212 21.6825 144.139C25.8693 143.969 27.3917 142.85 28.4701 141.56C29.0411 140.903 30.1195 140.441 31.8323 140.392C34.3697 140.344 32.9107 141.195 33.2913 141.609C34.0525 142.485 35.575 143.263 37.8587 143.239C42.0455 143.215 40.2693 141.584 41.7283 140.66C43.0604 141.852 43.3142 143.896 48.7063 142.071C49.3406 141.852 51.7512 142.266 53.2102 142.533C62.916 144.261 72.6851 144.674 82.708 142.898C84.6745 142.558 86.9582 142.412 89.0516 142.168C90.2569 142.022 92.3503 142.193 91.9697 141.366C91.6525 140.782 89.9398 140.611 88.5442 140.66C86.5776 140.733 84.6111 140.928 82.6446 141.098C81.0587 141.22 79.5362 141.487 77.9503 141.463C75.6666 141.438 73.0657 141.098 72.812 140.173C72.5582 139.225 75.4763 139.517 76.9987 139.249C78.0772 139.054 79.2825 139.03 80.4877 138.908C77.8869 137.059 73.3829 137.546 69.8939 137.984C65.0094 138.616 57.9679 137.521 55.6842 140.49C55.1767 141.171 53.1468 140.855 52.2587 140.392C47.8182 137.911 40.5865 137.254 34.116 136.11C32.5935 135.843 29.9926 135.745 30.7538 134.821C31.3882 134.067 33.5451 134.407 35.0041 134.602C41.0939 135.429 46.9935 135.599 53.0834 134.553C54.3521 134.334 55.7477 134.407 56.2552 133.75C57.2067 132.534 59.7441 132.145 62.7891 132.12C65.9609 132.096 67.864 131.171 69.8305 130.466C72.4948 129.493 70.782 127.887 66.7221 127.571C59.4904 126.987 52.005 127.011 44.9635 126.014C43.7583 125.843 41.6649 126.087 41.7917 125.332C41.9186 124.505 43.8217 124.457 45.471 124.627C56.0648 125.673 67.1027 124.481 77.76 125.478C82.0736 125.892 85.4358 124.116 89.8763 124.797C89.9397 124.797 90.6375 124.457 90.6375 124.286C90.5741 123.848 89.6226 123.678 88.7345 123.483C86.6411 123.07 82.3274 123.289 83.3423 121.926C84.3573 120.588 88.2904 121.318 90.8913 121.367C97.552 121.537 104.34 122.389 110.81 120.515C106.497 118.861 99.4552 120.077 95.0781 118.131C98.3133 117.717 101.675 118.399 103.959 117.401C104.847 117.012 106.306 116.72 105.735 116.063C105.291 115.552 104.086 115.333 102.881 115.309C92.604 115.187 82.3274 113.484 72.0507 115.309C70.8454 115.528 69.2596 115.674 67.9908 115.576C56.9529 114.701 45.9785 113.752 35.0041 112.803C33.4182 112.657 31.5785 112.365 31.642 111.659C31.7054 110.686 34.3697 110.71 35.8287 110.71C39.0005 110.71 42.6164 110.686 45.2173 111.246C52.005 112.705 58.6657 111.805 65.1362 111.246C69.1961 110.881 71.6067 110.686 73.7635 112.438C76.745 114.822 82.0102 113.046 86.0701 112.876C88.0366 112.803 89.4957 112.268 91.8428 112.827C93.8093 113.314 96.8543 113.216 98.3767 112.316C101.104 110.71 104.276 111.1 107.829 111.708C109.224 111.951 111.254 112.487 111.889 111.635C114.299 108.497 120.706 109.105 126.225 109.421C136.438 110.005 145.637 107.475 155.913 108.497C154.581 107.621 152.551 107.645 151.029 107.669C137.2 107.84 123.624 106.574 109.732 106.647C101.422 106.696 92.9212 106.283 84.5477 106.064C72.1776 105.723 60.2516 104.117 47.6913 104.409C46.8032 104.434 45.7248 104.239 45.2807 103.558C50.7997 102.998 56.3186 103.655 61.7107 103.777C72.2411 103.971 82.5177 102.949 92.9212 103.047C100.787 103.12 107.131 101.125 114.743 101.173C116.266 101.198 117.027 100.687 116.456 100.2C114.045 98.1322 117.408 98.6188 120.326 98.8621C122.165 99.0081 124.132 99.008 125.527 98.5458C130.222 97.013 136.375 97.6213 140.371 98.1079C149.252 99.2027 155.215 96.8914 163.335 96.6237C162.384 96.1615 162.003 95.8452 161.749 95.8452C153.185 96.1858 144.622 95.4803 136.185 95.7236C129.143 95.9182 122.229 96.4534 115.251 95.6992C114.172 95.5776 112.713 95.6263 111.762 95.8209C106.306 96.9157 100.851 96.6237 95.3952 95.9182C92.6675 95.5776 89.8763 95.2613 87.0851 95.5776C76.8719 96.7454 66.9124 96.2588 56.7627 95.4073C53.2102 95.1153 49.2137 95.4803 45.471 95.7479C41.538 96.0399 37.9221 95.7479 34.2428 95.3343C30.5635 94.9207 26.6939 93.6799 23.1415 95.5532C22.7609 95.7479 20.731 95.6019 19.716 95.4316C15.5292 94.7504 11.4058 94.0205 7.21907 93.2906C8.23405 92.4148 10.264 92.5121 11.9768 92.4391C21.3653 92.0012 30.6904 91.4416 40.1424 91.3443C44.7732 91.2957 49.4675 91.2956 52.7027 89.6412C53.7811 89.0816 55.5574 89.1303 57.2067 89.2276C61.0129 89.4222 64.8825 89.4709 68.4983 89.8845C81.1855 91.2713 93.619 89.8359 106.179 89.6656C119.564 89.4953 133.013 89.7385 146.461 89.8358C150.902 89.8845 155.279 89.8602 159.593 89.3007C163.399 88.8141 167.268 88.3761 171.265 89.2276C172.343 89.4466 174.056 89.3736 175.388 89.2763C189.598 88.3031 204.061 87.8895 218.334 86.9163C231.719 85.9918 245.422 85.6999 258.933 85.189C262.549 85.043 266.165 84.897 269.591 84.4104C270.542 84.2644 271.367 83.9968 271.304 83.5589C271.24 83.1939 270.415 82.9263 269.654 83.0966C263.818 84.3617 260.963 81.6612 260.9 81.1503C260.393 78.5227 256.079 78.7903 251.892 78.9849C250.75 78.1091 255.381 78.0118 253.097 77.2089C251.638 76.698 249.418 76.844 247.896 77.136C244.153 77.8658 240.664 78.693 236.541 79.1796C233.178 79.5932 235.208 80.7853 236.731 81.4179C238.38 82.0748 238.57 82.5371 237.556 83.3643C236.16 84.4834 234.257 83.7292 232.988 83.5832C228.23 83.0237 223.663 82.683 219.096 83.7778C217.256 84.2158 215.163 83.8751 213.196 83.7535C208.502 83.4859 204.252 83.0723 199.684 84.532C196.322 85.6269 191.628 84.9943 188.012 83.8752C186.743 83.4859 185.157 83.1209 183.571 83.4615C181.541 83.9238 183.762 84.3618 183.952 84.7997C184.333 85.7242 182.874 85.8945 181.034 85.6999C178.496 85.4323 176.023 85.1889 174.183 84.3617C171.836 83.3399 168.664 82.8533 165.175 82.6587C164.16 82.61 162.637 82.683 162.257 82.464C158.007 79.9094 153.693 82.0018 149.506 82.4397C145.066 82.902 140.371 81.8315 135.741 83.0236C134.282 83.4129 130.602 81.9775 130.158 80.7367C129.651 79.5202 128.509 79.3256 125.781 79.9095C122.99 80.5177 120.389 80.4447 117.344 79.7878C111.508 78.5471 104.72 78.2794 98.3767 77.5495C94.4437 77.0873 88.2269 79.9095 89.2419 81.5152C89.5591 82.0505 91.2719 82.7073 88.7979 83.0723C86.9582 83.3399 85.182 82.8046 84.9917 82.2451C84.167 79.5688 77.1891 79.0579 73.6366 77.3306C72.3679 76.698 70.4014 76.2357 68.308 76.6493C65.8975 77.1359 67.6737 77.8415 68.2446 78.4497C68.4349 78.6687 68.7521 78.8877 68.7521 79.1066C68.8155 79.8365 55.8111 83.0966 53.9715 82.8533C52.0049 82.5857 51.1168 82.2207 51.3706 81.3205C52.3856 77.5495 52.3221 77.5495 42.2992 77.3792C41.1574 77.3549 39.8252 77.4035 39.1274 76.9169C44.3292 75.4815 44.5829 75.3112 38.8737 73.9731C30.6904 72.0511 26.8208 69.4965 28.0895 65.7741C28.3433 64.9956 28.4702 64.1684 30.6904 64.363C36.4631 64.8739 39.9521 61.0055 46.2323 63.2438C48.7063 64.1197 50.8631 65.0928 52.005 66.431C53.1468 67.7934 60.8225 68.8639 64.5653 68.4503C65.7706 68.3287 66.9124 68.1584 67.0393 67.5988C67.1661 66.9906 66.0243 66.8202 64.819 66.7229C64.6287 66.6986 64.4384 66.6986 64.2481 66.6743C61.3935 66.358 57.6507 66.6257 56.6358 65.0442C60.4419 64.9226 64.1847 64.217 68.0543 64.8009C70.0208 65.0929 72.2411 66.139 73.7635 65.2145C74.8419 64.5333 74.271 63.2682 72.6851 62.441C69.6402 60.8352 65.7071 60.3486 60.5054 60.9569C56.0648 61.4678 52.1953 62.4653 46.6763 60.5919C42.997 59.3268 35.6384 58.8645 29.612 58.5239C28.7873 58.4753 28.0261 58.4509 27.6455 57.8427C31.9591 57.5751 36.2728 57.1858 40.7768 56.2857C37.5415 55.4828 36.2728 54.096 31.071 54.2176C27.0111 54.315 26.3768 52.3929 29.8023 50.8358C30.6904 50.4222 33.2279 50.1546 31.5785 49.4004C30.4367 48.8651 29.0411 49.3761 27.8358 49.6437C24.5371 50.3736 21.9997 49.668 20.9847 48.6705C19.8428 47.5514 23.0781 47.3567 25.0446 47.1378C29.6755 46.6025 34.3063 46.0916 39.1274 45.9457C41.6014 45.8727 43.6948 45.6537 41.8552 44.3885C41.4745 44.0966 41.7917 43.6587 41.8552 43.2694C42.4261 40.5202 38.4296 39.0118 31.2613 39.547C22.9512 40.1553 14.5142 39.912 6.14064 40.1796C4.36443 40.2283 2.46136 40.2282 0.875459 39.8146C-0.456699 39.4497 -0.20296 38.7928 1.19263 38.8414C6.64814 39.0361 11.1521 37.4547 16.7979 37.8197C18.3838 37.917 23.7759 38.7441 22.0631 36.2625C21.4922 35.4353 25.0446 35.6056 26.9477 35.5083C33.2913 35.2407 39.064 36.4572 45.4076 36.4085C50.8631 36.3598 55.4305 35.5084 61.2666 34.7785C58.0314 33.9513 55.5574 33.8539 52.7662 34.1945C45.0904 35.119 42.1089 34.6812 38.4296 32.1266C37.4781 31.4454 35.9556 31.1534 34.116 31.0317C26.6305 30.5451 24.664 28.2582 22.634 25.9469C21.9997 25.1927 22.8878 25.0223 24.8543 25.071C28.6605 25.1683 32.4666 25.1926 36.2094 25.144C38.5565 25.1197 40.7768 24.7061 40.6499 23.6356C40.523 22.5894 38.049 22.4921 36.0825 22.6138C29.612 23.0274 24.7909 21.2027 18.8279 20.8377C15.4657 20.6431 14.5776 18.7454 12.6111 17.6019C11.6596 17.0667 13.8799 16.7504 15.0852 16.5557C18.8279 15.9718 22.5072 15.3879 26.3133 14.877C29.7389 14.4147 33.2913 14.1228 36.6534 13.6119C41.6014 12.8577 45.5979 10.7167 52.005 12.3711C56.4455 13.5145 62.4719 13.5632 65.8974 15.4609C67.1661 16.1908 69.5133 16.3854 71.5433 16.7017C74.5882 17.1883 77.4428 16.726 80.4243 16.7017C83.0886 16.6774 85.4358 17.6749 89.1151 17.1639C86.3873 16.0205 82.5811 15.9718 80.2974 14.9987C78.7115 14.2931 77.4428 13.8308 80.4243 13.2956C81.8199 13.0523 82.7714 12.663 82.4542 12.0305C82.0736 11.2763 80.4877 11.1303 78.8384 11.0086C77.8234 10.9356 76.8085 10.9357 75.8569 10.8384C74.1442 10.6924 71.6701 10.7654 71.7336 9.84085C71.797 8.965 74.1441 8.94063 75.9203 8.89197C78.204 8.81898 80.8683 8.79465 80.8683 7.6755C80.8683 5.38854 85.0551 5.46154 88.7979 5.63184C93.7459 5.85081 98.6305 6.4834 103.578 6.7267C106.306 6.87267 110.62 8.06476 111.191 5.60749C111.318 5.14523 113.221 5.1696 114.363 5.26692C121.214 5.80216 127.494 4.82898 133.838 4.12343C140.752 3.36922 147.54 3.10162 154.645 3.68552C162.067 4.29376 169.489 4.68301 177.291 3.97746C183.191 3.44222 189.661 4.43969 195.751 3.56383C197.083 3.36919 197.908 3.83145 198.542 4.24505C199.748 4.9506 202.095 5.53452 203.617 5.24256C208.375 4.26939 211.547 5.51018 215.289 6.14274C216.748 6.38603 218.271 6.67804 219.793 6.7267C222.267 6.79968 224.17 6.24009 224.741 5.3399C225.503 4.19642 222.965 4.17207 220.999 4.02609C219.476 3.90445 217.129 3.90448 217.319 3.15027C217.637 2.07978 220.174 2.63932 221.76 2.66365C229.563 2.83396 237.492 2.85832 244.089 4.90199C245.231 5.2426 246.817 5.43722 247.769 4.80465C248.72 4.17209 247.198 3.85583 246.056 3.53955C244.851 3.22327 242.186 3.2962 242.694 2.49333C243.328 1.4715 245.675 2.17706 247.325 2.1284C258.934 1.78779 270.542 2.51771 282.151 1.9338C285.704 1.7635 288.812 1.98245 291.096 3.29624C292.681 4.19643 294.838 4.65867 295.98 3.05293C296.424 2.42037 297.566 1.88515 299.279 1.86082C306.574 1.7635 313.615 1.37421 321.164 1.83646C328.777 2.29872 336.389 3.46654 344.382 2.97995C345.397 2.93129 346.475 2.85827 347.237 2.6393C355.674 0.400997 365.189 0.668674 374.831 0.717333C389.802 0.765992 404.836 0.66865 419.807 0.0847448C421.393 0.0117567 423.043 -0.0368754 424.629 0.0361128C444.928 1.05795 465.545 0.766001 485.908 1.71485C494.345 2.10412 502.972 1.17956 511.663 1.59316C521.749 2.07974 531.962 2.00675 542.049 2.42035C547.06 2.63931 551.945 1.61749 556.322 2.05542C565.013 2.93128 573.767 2.32304 582.458 2.80962C593.305 3.39353 604.406 3.29623 615.381 3.5152C625.467 3.73416 636.188 3.27187 645.576 5.46152C645.894 5.53451 646.401 5.65617 646.655 5.63184C654.457 4.63434 662.26 5.41288 670.126 5.48587C671.268 5.48587 672.664 5.12092 673.615 5.24256C681.291 6.24007 689.157 5.77782 696.96 5.70483C717.196 5.48586 737.305 7.23756 757.351 6.89694C784.248 6.43469 811.081 8.25942 837.915 6.70234C843.307 6.38606 849.079 6.9943 854.662 7.16461C856.692 7.23759 857.199 7.87018 857.453 8.47841C858.468 10.6194 861.64 11.0086 866.651 10.3274C869.506 9.93813 872.614 9.93813 875.532 10.3274C876.928 10.522 878.133 10.7897 878.323 11.4222C878.45 12.0791 877.308 12.3954 875.976 12.6144C873.248 13.101 870.521 13.5876 867.73 14.0012C865.383 14.3661 863.479 15.2663 861.386 13.4173C860.181 12.2981 854.915 13.1739 851.997 13.8308C850.919 14.0741 850.856 14.4878 849.65 13.9282C845.146 11.8845 839.627 12.2251 834.299 13.174C831.064 13.7579 828.145 14.0255 824.53 13.6605C818.249 13.0279 811.906 13.4416 805.562 13.8308C802.644 14.0011 802.327 14.658 803.405 15.4852C804.484 16.3124 806.006 17.3343 808.417 17.3586C814.951 17.4559 821.675 18.867 827.955 16.8964C829.604 16.3854 843.814 17.6019 845.083 18.3318C846.479 19.1347 848.508 19.6213 850.411 20.1808C851.744 20.5701 853.266 20.8377 854.852 20.4728C856.565 20.1078 856.565 19.5239 856.057 18.867C855.677 18.3075 854.852 17.5046 856.819 17.2613C858.975 16.9937 858.975 17.8939 859.673 18.4291C860.815 19.232 871.726 20.6188 873.883 20.2538C877.626 19.5969 872.551 19.0617 873.946 18.2588C879.846 20.1322 886.634 17.9425 892.977 18.867C893.865 18.9887 895.388 18.721 895.895 18.9157C900.653 20.6187 905.918 21.9812 912.262 22.7354C913.784 22.9057 912.96 23.514 911.627 23.7329C910.93 23.8302 909.915 23.9032 909.28 23.7815C904.776 23.076 900.97 23.4896 897.1 24.8764C903.888 25.5576 910.549 25.0467 916.956 25.217C923.553 25.3873 930.151 25.29 936.494 24.3168C937.89 24.0978 939.666 24.1465 941.252 24.1952C943.028 24.2438 945.375 24.3411 945.375 25.217C945.375 26.2145 942.901 25.9712 941.189 26.0199C936.812 26.1902 932.498 26.6281 928.057 26.0199C927.359 25.9226 926.281 25.9469 925.71 26.0929C917.844 28.1609 909.217 28.1365 900.336 27.6013C899.955 27.577 899.448 27.5283 899.13 27.5769C888.917 29.4503 878.641 28.1365 868.301 27.8202C865.7 27.7472 863.606 27.6013 862.211 26.7011C861.449 26.1902 860.054 26.0198 858.595 25.9712C857.009 25.8982 854.979 25.6306 854.218 26.2875C853.33 27.0417 855.042 27.6499 856.692 27.8932C859.483 28.3068 862.464 28.5744 865.382 28.7934C867.92 28.988 870.584 28.9394 873.185 29.134C875.976 29.353 880.797 29.28 880.163 30.5938C879.529 31.9563 873.312 32.3212 871.599 31.6886C865.002 29.207 858.468 31.5183 851.997 31.2993C849.143 31.202 846.098 31.713 843.053 31.421C840.262 31.1534 838.042 31.6399 837.471 32.6618C836.709 33.9999 839.881 33.781 841.848 33.9999C847.874 34.6325 853.837 35.8003 860.054 34.2189C861.132 33.9513 862.591 34.0729 863.416 34.4378C867.476 36.3112 872.995 36.1896 877.816 35.5327C885.111 34.5595 891.962 35.0704 898.94 35.6543C902.81 35.9706 906.235 35.8246 909.915 35.1191C916.195 33.9269 923.236 35.0461 929.897 34.6082C930.975 34.5352 932.054 35.0704 931.546 35.6299C930.912 36.3355 929.136 36.5788 927.613 36.2869C921.079 35.0218 917.146 37.26 911.881 37.7709C915.751 38.0872 919.367 39.0847 923.427 38.1602C925.139 37.771 926.154 38.5252 927.486 38.8172C930.087 39.4254 932.371 40.9338 936.177 39.547C936.811 39.3281 937.826 39.3767 938.271 39.6686C939.032 40.1309 938.524 40.7148 937.763 40.9581C934.655 41.9313 935.162 43.2694 935.035 44.5345C934.972 45.0211 936.05 45.751 933.767 45.7997C932.244 45.824 932.181 45.2157 931.99 44.7535C931.737 44.2426 931.483 43.7317 931.102 43.0261C926.027 44.3885 928.311 46.4079 929.643 47.2594C933.513 49.7896 926.979 50.0816 924.822 50.3249C921.46 50.7385 917.337 50.3006 913.531 50.5682C912.135 50.6655 911.12 50.4223 911.247 49.814C911.437 49.1328 910.93 48.6948 908.963 48.9381C907.25 49.1571 907.441 49.6437 907.758 50.2763C908.646 51.7847 910.295 52.7822 914.926 52.7579C918.478 52.7579 922.348 54.242 925.33 52.2713C925.71 52.028 928.057 52.0766 927.613 52.4416C925.266 54.3636 929.834 54.3636 932.054 55.0205C933.005 55.3124 934.02 55.653 933.703 56.164C933.323 56.7722 931.927 56.6262 930.722 56.6506C929.136 56.6992 927.486 56.7479 925.964 56.8452C924.949 56.9182 923.553 57.3804 924.188 57.5508C928.565 58.6942 924.505 59.6431 923.934 60.6649C923.553 61.3948 921.841 62.1733 923.427 62.8545C925.33 63.6817 927.486 63.0005 929.453 62.7816C929.834 62.003 925.266 61.5651 928.184 60.8839C931.166 60.2026 935.226 59.5215 938.334 60.5433C942.33 61.8571 945.502 63.5115 951.656 63.0492C952.1 63.0249 952.988 63.3655 953.305 63.6331C953.685 63.9494 953.178 64.2657 952.226 64.3143C941.76 64.9469 931.863 67.7691 920.699 65.4822C918.288 64.9956 916.512 65.3119 914.101 65.7985C907.694 67.1122 901.034 68.3044 893.802 68.7666C891.138 68.9369 888.79 69.3018 886.443 69.7154C880.861 70.6643 875.279 71.5645 869.189 70.275C867.539 69.9344 865.129 69.8858 864.494 70.6643C863.733 71.5888 866.588 71.8321 867.983 71.8564C877.879 71.9538 887.395 73.5108 897.608 72.6593C902.239 72.27 907.187 72.5377 912.008 72.5377C913.023 72.5377 914.165 72.635 914.419 73.0729C914.799 73.6812 913.594 73.8514 912.325 73.9731C910.866 74.0947 909.344 74.2894 909.915 74.995C910.549 75.7492 912.325 75.8221 913.911 75.5059C918.986 74.5083 921.777 75.3599 923.87 77.0872C924.441 77.5252 926.345 77.8902 924.695 78.4254C923.49 78.8147 922.094 78.4497 920.826 78.1821C910.359 76.0898 899.257 75.0436 887.395 75.3112C886.063 75.3356 884.286 75.2139 883.906 75.9195C883.462 76.698 885.174 76.99 886.634 77.2089C889.234 77.5982 891.899 77.9388 894.563 78.2794C896.339 78.4983 898.242 78.5957 897.989 79.5689C897.798 80.4691 896.212 80.761 894.182 80.688C891.138 80.5907 888.219 81.053 885.301 81.0773C880.48 81.126 875.723 80.7124 872.995 78.8633C871.409 77.8172 869.886 76.7223 866.397 76.7223C864.05 77.5739 869.886 78.1334 866.207 78.9363C863.733 79.4716 861.83 79.2769 859.673 78.6444C857.643 78.0605 855.36 77.5252 851.807 77.5252C854.789 79.2282 853.393 80.0554 848.508 80.1041C847.367 80.1041 845.781 80.0311 845.654 80.6637C845.527 81.1746 846.669 81.4909 847.747 81.7098C852.378 82.61 857.453 82.6587 862.464 82.537C867.032 82.4397 871.409 82.5614 875.405 83.9725C866.524 84.2158 857.707 84.5321 848.826 84.7267C835.25 84.9943 821.548 84.4834 808.988 82.6587C801.058 81.4909 793.383 80.7367 785.072 80.5177C780.949 80.4204 777.079 80.8097 773.146 81.053C771.941 81.1259 770.546 81.1503 770.482 81.7585C770.419 82.3181 771.687 82.537 772.766 82.7073C774.415 82.9506 776.191 83.267 777.968 83.2913C782.471 83.3643 786.531 83.9481 790.782 84.4591C810.257 86.7947 830.302 87.1596 850.538 86.7704C855.106 86.6731 859.039 85.8458 863.162 85.2862C868.364 84.5807 873.502 84.4104 879.148 85.6999C872.17 87.1353 864.431 85.9189 857.707 87.5489C863.479 88.3518 869.062 88.0842 874.454 88.2788C885.175 88.6924 896.276 87.9868 906.045 90.4928C907.441 90.8577 907.821 90.736 908.202 89.7628C908.519 89.0086 909.978 89.3006 910.93 89.2519C917.273 88.9357 923.236 89.7385 929.072 90.4684C937.7 91.5389 946.517 92.0255 955.525 92.0012C959.141 92.0012 965.358 93.7772 965.802 95.0424C965.992 95.6992 964.723 95.7722 963.645 95.9425C962.313 96.1615 960.917 96.4291 961.234 97.086C961.552 97.8159 963.137 98.0835 964.787 98.1322C967.388 98.2295 969.989 98.1809 972.589 98.2539C974.239 98.3025 976.015 98.3998 976.015 99.227C976.015 99.8839 974.429 100.03 973.097 100.225C971.13 100.516 968.656 100.322 966.944 101.1C969.671 101.855 972.336 101.636 975.063 101.295C976.776 101.076 978.87 100.735 979.758 101.636C980.709 102.584 979.25 103.266 977.093 103.704C976.205 103.874 975.19 103.923 974.239 103.996C972.145 104.142 968.847 103.801 968.656 104.823C968.403 106.039 971.892 105.893 974.112 106.112C975.254 106.234 976.523 106.234 977.664 106.356C978.997 106.501 980.709 106.599 980.582 107.304C980.456 108.059 978.679 108.302 977.03 108.278C973.224 108.229 969.418 108.034 965.611 107.961C963.011 107.888 960.41 107.864 957.745 107.888C956.096 107.913 954.256 108.059 954.574 108.91C954.891 109.713 956.921 110.248 958.57 109.908C963.772 108.861 967.515 109.956 972.018 110.735C976.84 111.586 982.232 111.392 987.37 110.686C992.191 110.029 997.012 109.616 1002.09 110.37C1004.81 110.783 1007.23 110.613 1008.81 109.518C1010.08 108.667 1012.05 108.399 1014.46 108.594C1016.04 108.715 1017.76 108.886 1018.07 109.616C1018.33 110.248 1017.12 110.613 1015.92 110.905C1012.93 111.586 1009.64 111.903 1006.27 112.17C1004.5 112.316 1002.4 112.608 1002.34 113.387C1002.28 114.384 1004.75 114.238 1006.46 114.311C1010.02 114.482 1015.66 114.554 1014.96 115.99C1014.2 117.474 1008.62 116.647 1005.51 116.306C1001.2 115.82 997.266 115.722 993.27 116.55C995.553 118.836 1000.25 118.374 1004.88 118.034C1010.46 117.596 1018.39 119.372 1019.98 121.415C1020.48 122.121 1019.85 122.656 1018.39 123.021C1017.06 123.362 1015.54 123.605 1014.14 123.873C1005.83 125.43 1005.64 126.038 1012.93 127.96C1015.22 128.568 1015.6 129.395 1015.85 130.369C1016.49 132.558 1019.53 133.288 1024.42 132.193C1028.16 131.342 1029.49 131.78 1031.33 133.069C1038.5 138.154 1039.01 138.203 1053.98 136.743C1054.17 139.322 1053.22 139.711 1047.38 139.443C1046.81 139.419 1046.18 139.395 1045.6 139.468C1038.31 140.344 1032.47 142.193 1026.19 143.725C1020.48 142.947 1015.16 144.042 1009.64 144.188C1008.56 144.212 1007.29 144.553 1007.29 145.112C1007.29 145.55 1008.11 145.793 1009.13 145.891C1011.79 146.158 1013.25 146.742 1013 147.886C1012.81 148.956 1014.71 149.419 1017.19 149.443C1019.66 149.491 1020.93 148.835 1020.86 147.983C1020.04 146.037 1022.64 144.796 1025.24 143.507ZM892.343 155.039C892.47 155.89 893.548 156.742 895.832 156.571C903.444 155.963 911.818 156.79 918.796 154.868C920.635 154.357 924.124 154.26 923.3 153.068C922.411 151.827 918.986 152.07 916.575 152.168C908.012 152.508 899.828 153.482 892.279 155.087C893.167 153.628 892.026 152.557 888.346 151.876C886.697 151.559 883.842 151.024 885.428 150.221C889.171 148.251 883.715 148.567 882.637 148.737C878.514 149.321 874.264 149.005 870.204 149.321C868.745 149.443 866.588 149.273 866.524 150.148C866.524 150.903 867.73 151.438 869.76 151.584C874.961 151.973 879.782 152.727 883.969 153.944C886.507 154.649 889.234 154.966 892.343 155.039ZM406.105 78.1334C403.504 78.3037 400.079 77.7442 399.825 79.0823C399.571 80.2744 402.997 80.0554 404.9 80.2014C419.427 81.3692 434.017 81.6856 448.734 80.7854C456.537 80.2988 464.276 81.2719 472.396 80.3474C476.519 79.8851 482.546 80.3231 487.684 80.2501C497.263 80.1285 506.778 80.3231 516.294 80.688C520.227 80.834 524.413 81.3449 528.093 79.9581C526.253 79.3742 523.462 79.5202 523.335 78.3281C523.272 77.5739 521.242 77.3306 519.656 77.7198C515.025 78.8147 510.331 78.2551 505.636 77.9632C501.45 77.7199 497.136 77.1602 493.139 77.4035C482.673 78.0604 472.586 78.0361 462.69 76.3817C460.343 75.9924 457.615 75.9924 457.996 77.5252C458.25 78.547 456.6 78.7416 454.57 78.6686C450.447 78.5227 446.324 78.3037 442.2 78.1091C441.756 77.1603 447.719 75.9681 442.454 75.6032C439.409 75.3842 435.286 75.1409 431.606 75.6032C432.748 76.8927 437.316 76.2114 438.014 77.5495C435.92 78.2064 433.636 77.1359 431.226 77.8902C426.278 79.4229 416.953 79.1796 411.941 77.5739C410.546 77.1116 409.277 76.6493 407.374 76.5034C405.788 76.3817 403.695 76.1871 402.997 76.7953C402.236 77.6712 405.598 77.3549 406.105 78.1334ZM576.114 179.1C581.316 179.514 586.517 179.709 590.133 181.46C590.768 181.752 592.354 181.752 593.495 181.85C599.522 182.385 605.485 182.069 611.321 181.412C616.776 180.803 622.93 180.049 627.941 180.22C639.106 180.609 649.827 180.463 660.738 179.611C664.544 179.319 668.857 180.122 672.41 179.125C675.582 178.249 679.007 177.714 682.94 177.616C684.653 177.568 687.254 177.47 686.493 176.521C685.795 175.621 683.384 175.281 681.101 175.767C679.642 176.059 678.563 176.448 676.724 176.23C671.458 175.573 666.066 175.621 660.611 175.694C658.898 175.719 656.043 174.94 655.663 176.157C655.409 177.178 658.2 176.813 659.85 176.886C661.309 176.959 662.831 177.081 662.704 177.787C662.577 178.492 660.991 178.589 659.532 178.565C657.946 178.565 656.361 178.444 654.711 178.395C645.767 178.176 637.013 177.446 627.814 178.2C619.758 178.857 611.258 181.193 602.947 178.322C602.63 178.225 601.679 178.249 601.235 178.371C597.999 179.271 594.193 178.711 590.768 178.954C585.883 179.319 580.998 178.2 576.114 179.1ZM810.447 262.867C812.477 262.842 814.887 262.891 815.331 261.918C815.712 261.115 817.171 260.263 815.775 259.46C814.38 258.682 812.223 259.022 810.256 259.168C808.924 259.266 807.465 259.363 806.133 259.29C797.379 258.925 797.379 258.925 788.561 260.555C787.673 260.725 785.897 260.653 785.136 260.409C782.027 259.436 778.919 259.558 775.113 259.752C771.624 259.923 768.072 260.166 764.646 260.19C760.142 260.215 754.369 260.92 751.705 258.39C750.944 257.66 748.406 257.976 746.82 258.268C744.537 258.706 746.059 259.241 746.757 259.777C747.772 260.531 748.533 261.334 749.421 262.088C750.5 263.012 752.276 263.523 755.067 263.475C769.277 263.329 783.55 263.183 797.76 263.061C799.726 263.037 800.741 262.648 801.312 262.039C802.644 260.531 804.23 260.044 806.197 261.869C806.958 262.672 808.417 262.915 810.447 262.867ZM87.656 39.2064C90.8912 40.0579 93.3018 39.8633 95.5855 39.62C99.4551 39.2307 103.134 39.4497 106.877 39.7416C107.702 39.8146 109.351 39.5957 109.161 40.1553C108.146 42.7585 113.221 41.9069 116.139 41.8826C120.072 41.834 124.068 41.8096 127.938 41.7366C133.076 41.6393 139.42 42.6612 143.099 41.542C147.286 40.2526 150.077 40.6418 153.883 41.1284C155.723 41.3717 157.816 41.3717 159.846 41.3961C162.003 41.4204 164.35 41.25 163.843 40.2039C163.399 39.3037 162.828 37.9656 159.148 38.3549C155.215 38.7442 151.6 38.2819 147.984 38.0143C144.939 37.771 142.021 37.7223 139.039 37.9656C128.953 38.8172 118.232 38.6955 108.844 37.9413C100.597 37.3087 95.1415 38.3548 87.656 39.2064ZM214.401 155.987C211.8 155.987 209.961 155.89 208.185 156.012C205.584 156.182 203.554 156.717 204.378 157.934C205.14 159.077 207.804 160.367 210.151 159.71C216.748 157.861 222.838 158.08 229.436 159.394C230.197 159.54 231.402 159.321 232.417 159.296C234.257 159.248 236.414 159.296 237.556 159.807C243.709 162.556 252.526 160.853 259.695 161.851C260.837 162.021 262.867 161.827 261.978 160.999C261.09 160.148 245.739 157.034 243.455 157.472C238.253 158.518 237.365 157.301 236.35 155.866C236.033 155.404 235.081 155.039 233.813 154.99C231.846 154.893 232.481 155.574 232.1 155.939C230.641 157.374 227.596 157.52 224.678 156.888C221.126 156.133 217.383 156.036 214.401 155.987ZM252.97 172.653C258.616 171.047 264.77 171.461 271.05 172.337C272.192 172.483 273.46 172.191 273.968 171.704C274.475 171.218 273.778 170.853 272.889 170.488C269.844 169.223 267.688 167.398 261.661 168.687C260.329 168.955 257.919 168.785 256.396 168.517C251.892 167.763 247.769 167.447 243.582 168.882C242.123 169.393 240.156 168.882 238.507 168.59C236.667 168.274 234.764 167.739 232.798 168.006C229.88 168.42 224.615 167.641 224.488 169.466C224.424 171.096 229.372 171.242 232.417 171.193C236.414 171.12 236.731 172.434 238.824 172.945C241.171 173.505 242.25 171.072 246.246 171.85C248.149 172.215 250.37 172.361 252.97 172.653ZM957.745 158.712C948.04 158.591 947.405 158.226 950.323 155.039C950.831 154.455 950.831 153.944 949.308 153.676C947.469 153.336 946.2 153.628 945.693 154.382C945.439 154.747 945.375 155.136 945.058 155.501C943.98 156.863 943.028 158.274 938.651 156.377C937.192 155.768 934.845 155.525 932.561 155.477C930.785 155.452 929.263 155.696 929.199 156.474C929.009 159.248 938.588 158.299 940.047 160.561C940.237 160.902 942.521 161.583 944.551 161.024C944.678 160.999 944.678 160.805 944.741 160.805C951.719 160.659 958.887 159.686 965.611 161.194C969.354 162.021 972.907 161.851 976.459 161.121C977.347 160.951 978.362 160.732 978.108 160.269C977.855 159.807 976.649 159.734 975.698 159.734C969.164 159.856 963.835 157.009 957.745 158.712ZM677.675 76.8439C674.82 77.7198 670.887 77.4035 671.078 78.8146C671.205 79.8121 673.615 79.9338 675.645 79.9338C686.429 79.9825 697.213 80.0068 708.061 80.0311C709.33 80.0311 710.535 79.9095 710.916 79.3742C711.296 78.839 710.345 78.5713 709.33 78.2794C705.524 77.2089 701.21 77.0386 696.706 77.3549C692.773 77.6225 688.332 77.7199 685.731 76.7467C679.007 74.2408 670.824 75.0192 663.085 74.8003C661.753 74.776 659.85 74.5327 659.659 75.2869C659.469 75.9925 661.435 76.0411 662.768 76.1141C667.335 76.3817 672.029 76.5763 677.675 76.8439ZM977.601 242.357C973.985 241.968 968.593 242.697 968.149 241.238C967.578 239.243 963.899 239.583 961.234 239.097C959.839 238.853 958.443 238.853 957.492 239.389C956.54 239.9 956.984 240.435 957.555 240.921C958.316 241.603 960.346 242.065 959.712 242.965C958.824 244.327 956.477 246.006 957.745 247.004C959.522 248.415 965.231 247.417 968.783 248.172C969.418 248.318 970.369 248.366 971.13 248.342C971.828 248.318 973.16 248.026 973.097 247.977C971.575 245.666 976.586 246.615 978.933 246.225C980.646 245.933 982.803 245.787 983.31 244.814C981.407 244.376 979.441 244.425 977.411 244.449C975.317 244.498 973.097 244.644 971.511 243.914C972.78 242.916 975.825 243.354 977.601 242.357ZM867.349 228.854C873.566 228.44 879.275 228.465 884.984 228.83C896.783 229.56 908.519 229.949 920.001 228.27C922.348 227.93 926.345 227.857 926.218 226.835C926.027 225.497 922.094 226.056 919.747 226.032C903.444 225.813 887.585 227.516 871.345 227.516C869.823 227.516 868.174 227.711 867.349 228.854ZM564.568 178.881C557.781 176.935 508.554 177.811 500.181 179.757C506.588 180.633 512.932 180.049 518.641 180.049C531.138 180.049 543.635 180.901 556.195 180.268C559.621 180.098 562.285 179.83 564.568 178.881ZM518.641 4.39102C515.532 4.09907 513.312 4.09911 512.678 5.04796C511.79 6.31309 515.088 5.97243 516.547 6.28871C526.634 8.40537 537.925 6.4104 548.329 7.62687C549.217 7.72419 550.676 7.65119 550.613 7.16461C550.613 6.87265 549.661 6.38603 548.963 6.28871C543.825 5.65615 539.765 4.09912 534.246 3.75851C528.537 3.36924 523.018 3.19888 518.641 4.39102ZM290.525 83.2183C293.316 83.1696 296.107 83.1209 298.898 83.0723C301.118 83.0236 301.436 82.2694 300.167 82.0261C295.282 81.1503 293.696 79.4229 291.476 77.7928C290.905 77.3549 288.558 76.8683 287.416 76.9656C282.341 77.5009 277.393 78.1821 272.572 78.9363C271.557 79.1066 270.669 79.8365 271.24 80.3717C271.874 80.9313 273.333 80.615 274.475 80.5907C277.774 80.5177 280.248 81.1503 282.405 82.0018C284.689 82.8777 287.289 83.3886 290.525 83.2183ZM120.579 34.4135C123.371 34.6081 125.908 34.6324 128.065 34.9487C138.341 36.5058 149.062 35.8976 159.593 35.8976C162.193 35.8976 164.921 35.265 167.459 34.8271C169.045 34.5595 169.552 33.7323 167.586 33.708C163.906 33.6593 160.481 32.4428 157.182 32.9051C151.536 33.7079 145.193 32.8564 139.8 34.1215C138.468 34.4378 136.629 34.2918 135.233 33.8782C130.222 32.3698 125.464 32.3941 120.579 34.4135ZM419.11 176.473C422.091 178.127 425.644 176.57 427.673 177.641C429.894 178.784 431.987 178.273 433.636 177.543C437.633 175.816 443.342 175.962 447.973 176.23C453.238 176.546 457.742 176.57 462.31 175.524C463.895 175.159 466.814 175.281 465.989 174.137C465.355 173.261 463.388 172.75 460.977 172.726C457.679 172.677 454.253 172.75 452.667 174.04C451.335 175.135 450.003 174.867 447.973 174.454C444.674 173.748 439.155 173.188 437.76 173.967C433.192 176.594 425.834 175.84 419.11 176.473ZM927.042 164.089C930.024 163.968 932.371 164.795 932.561 163.554C932.688 162.727 923.553 160.634 921.396 160.951C917.971 161.462 914.482 161.729 910.803 161.583C909.534 161.535 907.123 161.51 907.885 160.829C909.027 159.783 908.836 159.223 905.918 158.956C903.381 158.737 901.16 159.029 899.13 159.588C896.53 160.318 899.321 160.902 899.448 161.559C899.765 163.384 901.985 163.554 906.045 163.116C908.456 162.848 911.564 162.775 913.657 163.189C918.542 164.114 923.173 164.868 927.042 164.089ZM215.67 94.5801C212.942 94.5071 210.278 94.6774 208.946 95.6749C207.994 96.4048 209.834 96.7698 211.293 97.0374C218.334 98.3755 225.63 99.008 233.496 98.2051C235.779 97.9619 237.111 97.6456 237.048 96.6967C236.985 95.6992 235.208 95.3829 233.052 95.3343C227.215 95.1397 221.57 94.5071 215.67 94.5801ZM158.387 157.788C156.674 156.912 155.723 156.401 158.197 155.647C161.178 154.722 160.037 151.122 157.816 151.389C151.282 152.143 144.051 148.786 138.088 151.949C137.39 152.338 135.614 151.535 134.282 152.168C138.341 153.092 142.401 153.579 146.969 153.457C149.126 153.409 151.346 153.311 150.648 154.552C149.316 156.766 152.995 157.301 158.387 157.788ZM725.316 30.2775C730.2 31.0074 733.499 30.8371 736.861 30.8858C745.234 31.0074 753.735 29.8152 761.855 30.9344C766.295 31.5426 770.102 31.0317 774.161 30.8128C775.43 30.7398 776.509 30.4722 776.445 29.9126C776.382 29.3287 775.049 29.3287 773.971 29.134C768.452 28.1852 762.997 28.9394 757.541 29.1097C747.328 29.4016 737.115 29.0367 725.316 30.2775ZM178.116 168.201C177.672 169.758 182.239 171.242 188.202 171.242C199.557 171.218 189.852 167.641 193.658 166.206C194.8 165.792 192.643 165.354 191.247 165.257C185.411 164.892 178.56 166.449 178.116 168.201ZM147.984 172.337C151.156 172.312 153.63 172.58 155.913 173.067C158.768 173.675 161.876 173.797 165.238 173.724C175.008 173.529 184.967 173.091 193.911 175.305C195.561 175.719 197.591 175.962 199.684 175.719C201.143 175.548 202.031 175.11 202.348 174.575C202.666 174.016 201.587 173.626 200.382 173.626C194.673 173.675 189.978 172.045 184.079 172.313C173.358 172.823 162.637 173.042 152.234 171.485C150.838 171.291 149.506 171.583 147.984 172.337ZM778.665 181.071C781.774 182.263 783.74 184.599 787.419 181.533C788.117 180.949 790.084 180.949 791.733 180.876C796.174 180.682 800.551 180.658 804.547 181.655C808.29 182.604 809.876 181.266 812.16 180.609C813.365 180.268 814.443 179.83 813.745 179.246C812.413 178.103 809.622 178.541 807.338 178.565C797.696 178.638 788.625 179.782 778.665 181.071ZM357.577 172.507C353.39 172.531 349.013 172.313 345.587 173.529C344.382 173.967 341.718 174.089 342.352 174.989C343.05 175.938 345.524 176.157 347.744 176.084C354.341 175.865 360.812 175.451 366.711 174.162C367.6 173.967 368.678 173.87 368.614 173.383C368.551 172.896 367.409 172.823 366.458 172.702C363.54 172.313 360.495 172.483 357.577 172.507ZM984.198 138.276C981.661 138.519 978.616 138.665 975.952 139.152C972.843 139.687 972.272 140.636 975.761 141.317C979.441 142.047 983.374 142.655 987.243 143.239C989.463 143.579 991.747 143.385 993.27 142.679C995.363 141.706 992.255 141.657 991.303 141.22C990.859 141.025 990.478 140.636 990.605 140.417C992.318 138.057 987.434 138.665 984.198 138.276ZM66.6587 56.8695C68.8789 57.7211 70.7186 58.2806 71.3529 59.2295C71.797 59.8377 74.3979 60.4946 74.7151 60.227C77.3794 58.013 82.7715 59.1808 86.7045 58.6699C90.3838 58.1833 88.7344 57.2345 88.671 56.4073C88.5441 55.2881 86.8314 54.9475 84.167 55.1908C78.5847 55.726 73.0023 56.2613 66.6587 56.8695ZM704.953 185.645C710.281 186.813 715.356 188.467 721.256 186.375C722.397 185.986 724.237 185.986 725.062 186.497C729.185 189.051 732.738 187.275 736.544 186.399C731.152 185.742 726.711 183.991 720.748 184.331C715.483 184.648 710.916 186.229 704.953 185.645ZM179.448 100.273C176.593 99.7379 174.056 99.519 175.008 98.4972C175.896 97.5726 178.306 97.6456 180.209 97.7429C187.187 98.1565 194.229 97.2807 201.207 98.1079C202.729 98.2782 204.886 98.3025 205.33 97.5726C205.901 96.6968 203.744 96.3318 201.968 96.3075C195.371 96.2588 188.773 96.3075 182.176 96.3075C179.321 96.3075 176.657 96.6481 173.929 96.94C168.918 97.4753 169.679 98.4971 171.963 99.7623C173.548 100.638 175.642 100.492 179.448 100.273ZM643.102 203.333C654.838 203.6 666.51 203.916 678.246 204.135C679.832 204.16 682.56 204.646 682.94 203.746C683.384 202.724 680.403 202.822 678.627 202.627C672.346 201.97 665.812 202.578 659.532 202.067C653.76 201.629 648.431 201.702 643.102 203.333ZM199.811 164.114C201.587 164.016 203.427 163.992 205.14 163.773C207.233 163.505 208.058 162.848 206.662 162.143C203.808 160.732 196.956 162.824 195.053 160.342C195.053 160.318 193.785 160.342 193.467 160.488C191.12 161.437 188.012 161.705 184.84 161.997C183.381 162.143 182.112 162.483 182.493 163.14C182.81 163.676 184.269 163.749 185.411 163.724C190.296 163.603 195.053 163.7 199.811 164.114ZM801.185 28.0635C792.558 27.0904 787.039 29.0368 781.203 30.3019C779.236 30.7155 781.52 31.3967 782.979 31.5426C788.752 32.1265 794.651 32.5158 799.916 33.7323C800.931 33.9756 802.454 33.9026 803.215 33.5133C804.42 32.9294 802.898 32.5158 802.01 32.1509C799.98 31.348 797.315 31.421 794.715 31.3967C793.573 31.3723 792.05 31.5183 791.479 31.0317C790.845 30.4478 792.304 30.0586 793.129 29.6693C794.905 28.7691 798.457 29.134 801.185 28.0635ZM541.034 253.208C553.658 253.67 566.281 255.13 579.032 253.621C566.408 253.086 553.848 251.334 541.034 253.208ZM872.17 240.581C874.39 240.581 876.04 240.605 877.562 240.581C879.592 240.532 882.637 240.289 882.066 239.559C881.495 238.878 880.29 237.369 877.182 237.686C871.092 238.294 864.621 238.513 859.229 239.875C858.151 240.143 856.501 240.508 857.58 241.14C858.595 241.724 861.323 241.797 861.83 241.432C864.685 239.437 869.252 240.97 872.17 240.581ZM842.799 82.6101C839.818 80.761 835.25 80.9556 831 80.7123C823.705 80.323 816.727 79.2283 809.305 79.1066C807.782 79.0823 805.499 78.9119 805.245 79.6662C804.928 80.688 807.656 80.5663 809.178 80.5663C816.093 80.5907 822.5 81.4422 829.16 82.0261C833.411 82.3911 837.851 83.048 842.799 82.6101ZM951.465 134.991C954.637 135.624 957.428 135.745 958.76 137.23C960.41 139.03 968.974 138.811 969.481 136.962C969.798 135.672 965.675 134.237 963.518 132.875C960.473 134.115 955.398 133.823 951.465 134.991ZM427.61 251.261C423.55 250.896 421.076 250.58 418.539 250.483C413.591 250.313 408.579 250.215 403.631 250.191C402.109 250.191 400.396 250.434 399.762 251.115C399.318 251.602 399.888 252.04 400.903 252.332C402.426 252.794 403.822 252.648 405.09 252.113C406.169 251.626 407.628 251.602 408.896 251.918C414.986 253.427 420.442 252.429 427.61 251.261ZM928.628 99.3486C927.804 99.3243 927.042 99.3 926.218 99.2756C923.934 99.227 921.65 99.1783 920.699 100.2C920.255 100.638 920.255 101.149 921.333 101.465C923.363 102.074 925.139 101.441 926.852 101.149C929.707 100.638 932.371 99.8109 935.86 100.152C940.364 100.614 944.614 99.9569 948.928 99.6893C950.577 99.592 953.051 99.373 952.353 98.4728C951.782 97.6699 949.626 98.1565 948.167 98.2051C941.633 98.4484 935.352 99.4703 928.628 99.3486ZM107.004 196.472C109.161 197.639 110.747 198.491 112.396 199.367C106.433 200.827 113.982 201.362 113.982 202.505C113.982 203.308 117.09 203.868 119.184 203.454C121.721 202.943 119.057 202.53 118.359 202.092C118.169 201.994 118.296 201.824 118.359 201.678C119.945 198.345 117.344 197.031 107.004 196.472ZM963.074 130.588C953.876 130.32 944.297 128.593 935.733 131.415C943.789 132.802 951.211 132.631 963.074 130.588ZM720.685 255.373C725.379 255.568 728.17 254.74 731.596 255.081C733.943 255.324 733.499 254.546 732.674 254.059C731.469 253.354 729.439 253.135 727.472 253.086C721.319 252.964 715.102 253.427 708.949 252.94C707.871 252.843 706.348 252.964 706.221 253.548C706.094 253.986 707.363 254.205 708.251 254.278C712.819 254.741 717.513 255.13 720.685 255.373ZM867.159 245.568C870.901 245.69 873.566 245.471 875.659 244.984C878.514 244.328 881.305 244.546 884.286 244.522C889.108 244.449 893.041 244.644 896.022 246.322C897.1 246.931 899.257 247.052 900.653 246.298C901.922 245.593 901.351 244.96 899.321 244.619C896.974 244.206 894.563 243.671 892.089 243.525C883.525 242.989 875.088 242.916 867.159 245.568ZM502.782 10.3031C505.383 10.3031 506.969 9.42723 509.252 9.20827C514.454 8.69735 512.297 7.72415 510.331 6.82396C505.129 4.46401 502.021 8.11341 497.39 7.57816C496.502 7.48085 495.36 7.69986 495.169 8.16212C495.106 8.35676 495.36 8.67304 495.74 8.77036C497.961 9.28127 499.737 10.1815 502.782 10.3031ZM567.677 77.9632C575.036 79.1796 597.428 79.2526 605.802 78.0118C593.368 77.8901 580.998 76.5034 567.677 77.9632ZM219.476 102.974C213.069 103.363 206.979 101.344 200.445 102.657C199.494 102.852 197.464 102.876 196.956 102.657C192.516 100.492 191.247 102.633 188.456 103.363C196.195 104.555 214.148 104.409 219.476 102.974Z" fill="#E6BEBE"/>
</svg>
