<svg width="749" height="344" viewBox="0 0 749 344" fill="none" xmlns="http://www.w3.org/2000/svg">
<path d="M531.847 142.233C537.372 143.09 542.938 143.64 548.379 144.837C550.949 145.395 553.333 145.305 556.149 144.902C553.21 143.318 549.426 144.275 546.926 142.613C548.829 142.634 550.577 142.653 552.291 142.629C554.199 142.612 557.786 143.424 555.065 141.089C554.612 140.697 555.312 140.4 555.883 140.204C557.389 139.703 564.99 140.74 566.388 141.63C571.149 144.706 571.149 144.706 578.221 144.755C576.737 145.961 574.714 146.256 572.116 146.201C569.983 146.149 567.018 145.928 567.646 147.631C568.215 149.19 570.643 148.774 572.752 148.998C577.126 149.447 581.449 150.279 586.001 150.265C583.916 151.312 582.078 152.256 581.043 153.6C580.339 154.501 578.26 154.632 576.341 154.726C572.189 154.95 567.845 154.856 563.875 155.456C562.882 155.616 560.267 156.261 561.181 154.374C561.551 153.643 559.85 153.571 558.874 153.597C556.336 153.667 553.791 153.794 550.935 153.919C556.069 156.537 561.979 156.548 567.44 157.299C571.45 157.856 575.531 157.875 579.579 158.144C580.735 158.221 582.378 158.149 582.457 159.017C582.545 159.81 580.815 159.656 579.7 159.565C573.087 158.992 566.504 158.481 559.914 157.735C555.011 157.176 550.354 157.099 545.854 157.589C544.985 157.687 543.622 157.699 543.762 158.401C543.912 159.026 545.086 158.968 545.916 159.158C546.446 159.268 547.368 159.645 547.325 159.678C545.396 162.17 549.723 161.228 551.063 161.388C556.878 162.108 562.788 162.997 568.543 162.714C569.6 162.661 571.2 162.914 571.164 163.475C571.072 166.194 574.947 165.718 577.732 166.13C578.496 166.232 579.27 166.258 580.039 166.907C576.872 167.614 573.441 166.804 570.264 166.417C563.873 165.639 558.932 167.104 553.286 167.441C553.791 170.064 547.876 168.921 546.354 170.414C547.573 171.475 549.642 171.713 551.47 171.997C553.872 172.357 554.812 173.185 555.287 174.283C555.818 175.544 554.152 175.789 552.45 176.01C551.499 176.136 550.373 176.122 549.599 176.389C548.011 176.918 547.72 177.639 550.162 178.279C552.042 178.764 554.001 179.241 555.929 179.07C563.726 178.359 571.801 178.757 579.812 180.513C585.744 181.814 591.672 181.691 597.609 182.954C600.597 183.589 601.902 185.168 605.912 185.432C601.331 186.242 595.583 184.146 593.878 187C595.821 187.592 597.31 186.933 599.045 187.048C604.478 187.425 609.622 186.767 615.442 188.034C619.184 188.848 623.581 188.832 627.403 188.466C634.651 187.778 640.817 189.657 646.733 192.244C648.093 192.836 647.728 193.236 646.429 193.354C645.208 193.464 643.886 193.462 642.518 193.513C644.216 195.067 646.935 194.222 649.619 195.381C644.92 195.903 645.023 197.75 646.07 200.095C650.071 199.265 654.874 201.157 659.213 200.411C659.771 200.311 660.459 200.403 660.764 200.736C661.202 201.243 660.799 201.638 660.287 201.979C659.606 202.415 657.535 202.489 658.805 203.459C659.724 204.147 661.393 204.176 662.608 204.104C666.335 203.862 670.625 204.651 674.218 203.669C672.252 202.665 670.204 202.859 668.385 202.498C667.514 202.323 666.429 202.295 666.197 201.698C666.025 201.245 666.781 201.113 667.388 200.94C669.406 200.391 673.803 200.668 670.099 198.123C669.424 197.643 670.979 197.071 672.247 197.182C674.97 197.469 675.389 196.666 674.754 195.021C677.134 196.412 676.822 197.873 679.613 198.52C680.933 198.833 680.232 199.422 679.004 199.589C677.419 199.806 675.625 199.839 673.92 200.957C686.187 200.258 694.201 206.638 705.274 207.301C698.375 208.289 691.954 209.185 684.258 208.564C672.716 207.623 661.458 208.047 650.055 207.808C648.272 207.764 646.646 207.995 645.222 208.468C644.368 208.743 642.811 209.042 642.305 208.175C641.799 207.307 641.144 207.258 640.107 207.451C638.869 207.695 638.97 208.391 639.16 209.002C639.412 209.738 640.586 209.681 641.659 209.805C648.86 210.633 655.92 210.485 663.324 211.828C668.487 212.773 674.161 212.226 679.631 212.334C680.522 212.356 681.325 212.171 682.178 212.187C683.185 212.225 684.471 212.202 684.924 212.887C685.445 213.639 684.072 213.728 683.165 213.822C681.629 213.967 680.003 214.198 678.437 213.988C673.008 213.281 667.984 214.208 662.533 213.38C661.618 213.238 660.184 213.202 660.351 213.986C660.468 214.567 661.663 214.649 662.539 214.786C670.349 216.007 678.055 216.259 685.761 216.51C699.123 216.934 712.479 217.396 726.003 218.934C728.991 219.275 730.753 220.35 731.498 221.757C732.431 223.501 730.833 224.399 727.443 223.867C723.708 223.289 724.714 224.204 726.165 225.569C719.761 224.009 715.182 225.385 710.204 225.967C709.177 226.083 708.894 226.455 710.075 226.926C710.628 227.156 711.749 227.208 711.211 227.741C710.719 228.221 708.141 228.013 709.559 229.041C710.48 229.711 712.083 229.36 713.428 229.481C713.889 229.524 714.671 229.784 714.836 230.002C715.203 230.46 714.515 230.661 713.872 230.809C709.133 231.93 705.035 233.488 700.899 235.041C697.665 236.247 693.957 236.628 689.571 236.275C686.453 236.033 683.835 237.575 684.598 239.14C685.121 240.166 686.37 239.846 687.438 239.716C688.628 239.543 689.772 239.131 691.17 239.728C692.349 240.217 692.573 240.871 692.414 241.474C692.186 242.302 690.819 242.061 689.593 241.916C686.264 241.509 682.594 240.159 680.679 242.556C680.069 243.333 677.398 242.078 675.622 241.977C674.463 241.919 672.991 241.585 672.69 242.384C672.442 243.072 673.723 243.38 674.709 243.571C676.489 243.926 676.677 244.849 677.644 245.466C678.757 246.161 679.349 247.84 682.002 246.615C682.749 246.267 684.035 246.537 684.773 247.123C685.687 247.85 685.073 248.373 684.138 248.677C682.058 249.393 679.978 250.11 677.688 250.661C675.881 251.083 673.738 251.4 674.379 252.715C675.114 254.199 677.552 253.706 679.353 253.908C679.735 253.959 680.099 254.145 681.215 254.528C676.427 255.135 671.59 254.956 667.795 255.989C665.859 256.51 663.107 256.434 663.253 258.248C663.331 259.41 660.817 259.307 658.863 259.377C653.941 259.538 648.701 259.167 644.287 260.176C642.402 260.606 639.81 260.786 640.965 262.619C641.573 263.597 639.54 263.384 638.457 263.629C635.298 264.279 629.913 263.246 629.643 266.136C623.773 266.403 619.529 269.054 613.041 268.126C606.247 267.158 599.611 267.635 592.871 266.264C591.091 265.909 588.968 266.366 588.667 267.164C588.263 268.144 590.882 268.046 592.308 268.725C591.444 268.785 590.815 268.837 590.15 268.865C588.471 268.914 586.624 269.056 586.651 270.016C586.704 271.076 588.976 270.952 590.252 271.298C592.353 271.872 594.513 272.298 597.116 272.9C595.424 273.629 593.514 273.373 591.942 273.495C590.095 273.637 587.725 273.613 587.574 274.743C587.415 275.932 589.608 276.694 591.627 277.296C592.152 277.444 592.72 277.559 593.405 277.963C586.241 277.433 580.607 279.721 573.171 278.609C570.349 278.192 567.893 278.234 566.177 279.428C564.635 280.49 561.797 280.188 559.313 280.148C557.179 280.115 555.153 280.137 555.297 281.678C557.592 281.966 558.319 280.6 560.897 281.101C559.572 283.733 563.767 284.646 567.758 285.629C567.192 286.665 565.473 286.435 564.181 286.496C558.387 286.773 552.421 286.599 546.412 286.165C538.359 285.594 531.444 286.697 524.496 287.756C523.184 287.971 522.342 288.443 522.93 289.283C523.551 290.166 524.949 290.177 526.381 290.233C531.341 290.37 536.154 289.571 541.378 291.226C542.534 291.596 543.742 291.289 544.066 290.611C544.62 289.378 542.098 289.333 540.682 288.578C545.406 288.157 549.986 288.224 554.803 288.849C555.304 289.755 553.697 289.559 553.149 289.876C552.517 290.24 551.541 290.558 551.93 291.137C552.416 291.865 553.731 291.632 554.688 291.741C556.069 291.886 557.654 291.962 557.92 292.876C558.161 293.688 556.724 293.964 555.534 294.136C552.762 294.506 549.948 294.032 547.215 293.237C543.249 292.062 539.845 292.504 535.986 292.572C531.736 292.647 528.707 293.197 525.745 294.4C524.346 294.974 521.832 294.578 519.71 294.45C517.817 294.353 515.341 294.548 515.946 295.839C516.515 297.105 518.623 296.47 520.133 296.516C526.563 296.714 533.093 296.164 539.207 299.012C539.757 299.261 540.41 299.329 540.794 299.069C543.708 297.059 547.49 299.029 550.928 299.489C551.922 299.622 553.121 299.958 553.026 300.667C552.903 301.295 551.874 301.43 550.825 301.426C547.716 301.4 544.705 301.523 541.49 301.132C538.39 300.756 535.267 300.552 531.058 300.906C536.086 302.281 540.135 301.672 544.118 302.713C543.335 303.33 541.746 303 540.739 303.255C539.893 303.474 539.18 303.866 540.178 304.253C544.385 305.948 540.337 305.679 539.221 305.881C537.389 306.201 535.427 306.329 533.972 307.031C532.147 307.879 529.827 307.198 527.682 306.657C525.95 306.23 524.218 305.803 522.578 305.271C516.239 303.233 509.503 303.579 503.298 303.158C492.777 302.432 482.007 301.536 471.653 301.886C470.792 301.926 469.796 301.813 469.039 301.945C456.546 304.038 443.031 301.857 429.741 300.604C429.204 300.552 428.687 300.346 428.081 299.933C438.65 298.559 450.423 300.096 462.553 299.555C454.844 298.738 448.323 298.059 441.898 297.823C436.401 297.633 430.919 297.621 425.449 297.513C422.657 297.451 420.377 297.634 418.992 298.97C417.788 300.116 414.739 299.942 412.502 300.091C404.449 300.69 396.293 301.178 387.136 299.854C390.362 298.706 394.736 299.448 397.914 298.664C399.843 298.2 402.174 298.22 399.658 296.381C397.887 295.09 399.502 294.351 401.971 294.798C409.23 296.063 415.806 295.168 422.674 295.288C423.839 295.307 425.077 295.356 426.22 295.529C431.335 296.253 435.658 296.793 440.487 295.293C444.544 294.042 451.096 294.49 456.698 294.479C464.32 294.486 472.065 294.45 479.804 295.037C487.928 295.657 495.559 294.728 503.771 295.847C506.942 296.272 509.208 295.327 511.886 294.788C499.679 294.168 487.497 293.356 475.214 292.14C479.975 292.017 483.829 290.25 489.452 291.823C492.114 292.569 496.159 290.829 496.761 289.232C497.065 288.414 498.815 288.707 499.934 288.486C501.491 288.187 504.753 289.092 504.469 287.728C504.226 286.642 501.242 287.432 499.599 286.627C500.24 285.913 501.791 286.237 502.927 286.175C504.025 286.107 505.159 286.064 507.587 285.941C503.985 285.244 502.75 284.298 501.335 283.25C497.206 280.103 487.437 279.282 484.074 282.324C482.347 283.887 479.642 284.052 476.401 283.852C470.387 283.456 464.492 283.33 458.576 283.357C456.826 283.357 453.96 283.851 453.334 282.714C452.645 281.471 456.345 282.591 457.437 281.703C454.558 281.122 454.8 278.736 450.808 278.63C447.861 278.567 444.847 278.417 441.922 278.474C434.007 278.624 425.886 277.985 417.925 277.894C415.632 277.88 413.166 277.413 411.751 278.687C411.353 279.043 409.083 279.734 408.506 277.94C408.26 277.166 406.245 277.403 405.483 277.575C403.113 278.135 401.027 277.739 398.768 276.89C395.585 275.683 394.452 277.17 392.67 277.985C391.476 274.704 391.537 274.829 385.209 274.743C377.521 274.65 369.812 274.417 362.299 274.757C361.359 274.807 360.116 274.504 359.654 275.339C362.381 276.173 365.079 276.066 367.785 276.194C371.652 276.361 375.555 276.552 379.417 276.757C380.382 276.808 381.781 276.82 381.869 277.612C381.947 278.188 380.778 278.207 379.894 278.128C374.471 277.675 369.39 278.438 363.896 277.644C361.644 277.323 360 277.98 358.005 278.064C348.587 278.403 339.295 278.953 329.437 278.219C322.852 277.727 315.821 276.786 309.91 277.36C302.147 278.115 294.262 276.006 286.664 276.393C282.787 276.595 280.277 274.718 278.029 273.208C276.743 272.353 277.877 271.724 279.597 271.662C281.355 271.605 283.143 271.61 284.568 271.137C285.22 270.913 286.357 270.558 286.235 270.307C284.261 266.746 290.54 267.782 293.325 267.316C296.309 266.818 300.189 266.889 303.872 267.558C305.352 267.834 306.755 267.807 306.909 266.95C307.06 266.112 305.527 265.946 304.386 265.754C297.694 264.604 291.09 263.096 284.508 264.321C281.876 264.808 278.425 264.443 275.218 263.994C273.004 263.678 271.323 263.16 270.165 261.932C268.875 260.53 267.398 259.357 264.829 261.12C262.817 262.49 254.171 261.995 251.215 260.546C250.339 260.116 249.458 259.725 248.419 259.645C241.681 259.132 234.9 258.654 228.515 259.281C227.531 259.364 226.425 259.489 226.718 260.211C227.007 260.952 228.309 261.107 229.244 261.096C236.128 261.101 242.27 264.03 249.076 264.317C250.236 264.375 252.551 264.802 251.75 265.553C251.036 266.238 249.392 267.481 247.072 266.507C243.98 265.195 241.308 265.403 238.543 265.716C235.779 266.028 233.01 265.794 230.188 265.085C226.311 264.117 222.445 263.073 218.259 263.253C217.281 263.298 215.977 263.162 215.603 262.468C215.199 261.712 216.633 261.748 217.471 261.587C218.269 261.44 219.094 261.375 219.927 261.253C220.641 261.153 221.179 260.913 221.156 260.5C221.121 259.891 220.135 259.7 219.218 259.578C218.342 259.441 217.359 259.231 216.536 259.277C207.759 259.76 198.533 258.954 189.598 259.162C179.919 259.407 170.18 259.527 160.316 259.416C152.51 259.326 144.45 258.813 137.028 259.926C133.058 260.526 128.132 259.261 123.552 258.902C129.5 257.181 136.053 256.459 143.458 257.217C149.829 257.855 155.239 256.083 161.806 257.294C162.868 257.494 164.542 257.192 164.173 256.46C163.774 255.665 162.84 254.798 160.861 254.475C154.579 253.458 148.408 251.91 142.127 252.922C140.298 253.224 137.733 252.626 135.446 252.281C130.644 251.541 126.186 251.431 123.231 253.455C122.632 253.862 121.633 254.645 120.292 253.334C118.92 251.961 112.722 251.189 112.969 251.964C113.824 254.868 106.339 252.968 106.581 255.224C106.599 255.383 105.368 255.569 104.713 255.521C96.8268 254.874 89.0892 255.438 81.0403 253.97C79.3694 253.668 77.7748 253.376 76.869 252.299C79.6263 251.459 83.9881 253.74 86.2138 251.931C85.6034 250.972 84.0288 251.112 82.8341 251.03C79.6727 250.821 76.5088 250.632 73.439 250.611C68.4254 250.583 63.8452 250.224 59.5293 247.89C55.8296 245.892 50.7872 246.661 46.4243 245.55C42.6268 244.573 38.8167 243.4 34.6337 243.269C33.5893 243.226 32.4253 242.915 32.3649 242.204C32.3096 241.455 33.5858 241.509 34.5539 241.541C37.6542 241.625 40.8107 241.579 43.949 241.961C50.0752 242.683 56.1832 243.833 62.1198 243.067C63.8218 242.846 65.635 243.538 67.4154 243.893C68.5922 244.109 70.0875 244.271 70.3073 243.5C70.5528 242.538 68.9837 242.348 67.6056 242.183C64.1209 241.774 60.8569 242.332 57.3546 241.766C56.6311 241.649 55.9511 241.5 55.1898 241.086C60.115 240.321 65.5649 239.705 70.6917 241.211C74.8838 242.435 78.2339 242.396 81.8415 242.177C83.8823 242.041 85.9914 242.264 87.9073 242.189C95.8025 241.901 104.471 242.808 111.599 240.407C109.587 240.04 108.196 240.263 107.146 240.552C102.617 241.838 97.1823 240.31 92.3392 240.461C91.4807 240.483 90.4262 240.225 90.2714 239.638C90.1114 239.09 91.0518 238.748 91.8212 238.812C98.5259 239.28 103.909 236.841 111.191 238.518C113.794 239.12 115.988 238.712 117.999 237.343C114.552 237.525 110.404 238.296 109.656 236.616C109.026 235.224 113.948 235.356 116.727 235.221C119.624 235.083 123.05 235.931 125.978 234.685C123.136 233.836 120.894 234.024 118.677 234.019C116.306 234.014 113.944 233.932 111.577 233.888C110.803 233.862 109.922 233.764 109.711 233.306C109.413 232.623 110.493 232.689 111.385 232.711C111.54 232.713 111.693 232.733 111.849 232.734C113.367 232.723 115.873 233.176 115.487 231.993C115.185 231.055 112.917 231.434 111.509 231.206C110.559 231.04 109.055 231.229 108.924 230.47C108.787 229.749 110.218 229.804 111.24 230.019C114.121 230.581 116.485 230.058 119.066 229.955C120.824 229.898 122.783 229.79 124.55 230.534C124.481 231.051 123.857 231.065 123.274 231.065C121.72 231.052 119.16 230.709 119.673 231.812C120.164 232.794 122.534 232.234 124.105 232.405C125.371 232.536 126.755 232.37 127.171 231.879C129.672 229.171 135.487 230.184 140.012 229.795C141.271 229.69 142.799 229.895 143.918 229.674C149.274 228.596 156.114 229.22 160.523 227.079C158.345 226.787 156.147 226.356 153.984 226.242C151.284 226.076 149.49 226.109 147.36 224.302C146.171 223.304 140.322 222.833 137.619 223.563C131.564 225.211 124.388 224.776 117.613 225.118C115.97 225.19 114.079 225.659 112.017 224.797C117.366 222.607 124.083 221.536 130.417 220.707C134.651 220.162 138.649 220.229 141.588 218.32C143.12 217.335 147.621 218.289 150.113 217.394C151.094 217.038 152.75 216.869 151.477 215.918C150.523 215.205 148.531 214.978 147.814 215.389C143.285 217.845 137.152 215.717 131.706 215.436C130.394 215.358 128.965 214.991 127.928 215.769C130.779 217.419 134.283 216.23 137.602 217.299C130.024 218.703 121.746 217.204 114.131 217.433C123.05 215.019 132.701 213.521 143.802 213.115C141.711 211.88 139.793 211.681 138.252 211.865C133.665 212.421 128.826 211.676 124.1 211.238C119.913 210.853 116.679 212.058 112.399 211.485C108.158 210.917 105.968 209.551 105.82 207.464C105.773 206.365 104.579 205.405 107.644 205.172C109.178 205.046 108.088 204.178 106.888 204.134C98.9477 203.89 92.8089 200.357 85.0043 199.097C87.3524 197.246 85.6849 196.047 81.5612 195.183C80.5781 194.973 79.0577 194.418 79.3437 193.735C79.6297 193.051 81.0865 193.5 82.0443 193.609C84.0745 193.842 85.3539 193.291 86.7682 192.895C87.8614 192.574 89.1226 192.45 90.5084 192.557C91.5095 192.633 92.9617 192.535 93.3866 193.138C93.9768 193.958 92.2317 193.92 91.4137 194.22C90.5141 194.548 87.4831 193.947 88.9059 195.23C89.9139 196.126 92.8257 196.164 93.7969 195.592C98.2451 192.871 106.139 193.753 111.705 192.274C112.833 191.977 114.268 191.72 115.021 192.777C115.779 193.795 115.07 194.442 113.042 194.482C112.339 194.505 111.616 194.389 110.345 194.297C113.329 195.535 115.449 197.711 118.773 195.835C119.066 195.679 119.632 195.521 119.535 195.371C118.173 192.477 122.755 192.818 125.8 192.445C128.965 192.049 131.669 190.734 135.785 191.948C136.946 192.279 138.429 192.244 139.005 191.716C141.218 189.711 145.216 188.9 149.123 187.901C143.796 187.305 138.65 187.104 133.377 187.275C133.793 186.492 135.005 186.44 135.859 186.457C143.015 186.752 148.453 185.061 154.4 183.926C155.519 183.705 157.182 183.772 156.997 182.83C156.799 181.984 155.796 181.343 154.176 180.95C149.092 179.704 144.159 178.497 139.118 179.831C136.336 180.571 133.03 179.114 129.93 178.737C129.625 178.697 129.164 178.362 129.149 178.184C129.098 177.69 129.926 177.605 130.658 177.664C136.675 178.041 141.132 176.121 146.958 176.18C148.747 176.185 151.076 175.931 152.101 176.693C154.4 178.405 156.571 177.876 158.887 177.718C163.598 177.393 167.777 176.1 173.287 177.364C175.062 177.758 177.253 177.368 177.965 176.703C180.198 174.544 184.489 174.163 188.757 173.661C189.824 173.531 191.742 173.437 190.482 172.39C189.642 171.692 188.027 171.554 186.733 171.634C184.224 171.786 188.895 172.626 186.859 172.724C185.647 172.776 184.032 172.638 182.878 172.25C178.482 170.803 175.206 171.164 172.807 172.813C167.805 176.181 159.538 174.313 152.455 174.341C151.054 174.348 149.791 173.613 149.502 172.872C149.148 172.025 150.677 171.937 151.765 171.946C159.598 172.117 166.267 170.533 173.617 169.956C176.606 169.713 179.476 168.322 183.185 167.921C181.989 166.98 179.023 167.344 179.412 166.187C179.68 165.345 181.697 165.966 182.91 165.914C187.845 165.658 193.235 166.067 197.684 164.79C196.274 163.704 194.742 164.689 193.494 164.132C196.658 161.707 199.819 159.302 206.441 158.94C207.929 158.866 209.101 158.243 209.737 156.982C204.269 157.439 198.236 155.734 194.035 158.059C192.648 158.829 189.943 158.408 187.86 157.408C185.63 156.348 183.626 155.046 182.748 153.758C180.985 151.239 178.081 151.728 175.431 152.056C173.808 152.268 172.809 152.466 170.993 151.794C168.879 151.023 166.724 151.144 164.843 151.828C159.44 153.836 152.494 153.14 145.843 152.562C142.727 152.3 141.916 150.807 142.626 148.99C136.017 152.163 127.246 152.315 119.08 153.172C118.29 153.261 117.33 153.172 116.448 153.073C115.605 152.98 114.433 153.018 114.207 152.383C114.006 151.849 114.893 151.617 115.759 151.538C119.107 151.225 122.45 150.951 125.716 150.374C122.092 149.557 118.759 150.047 115.305 149.994C115.149 149.993 115.027 150.035 114.872 150.034C105.859 149.666 98.3189 151.075 90.2597 152.298C82.3203 153.498 73.1234 153.632 64.3542 154.057C62.3186 154.155 61.05 154.044 61.3417 152.737C61.8202 150.616 60.2291 149.427 55.7019 149.543C54.8433 149.565 53.8881 149.437 53.0145 149.281C51.8351 149.084 50.3527 148.827 50.2132 148.125C50.1371 147.822 51.5283 147.599 52.1453 147.057C45.3607 147.476 37.7201 145.282 31.3698 147.104C29.67 147.598 23.3918 145.977 22.6465 144.863C21.9926 143.937 23.1669 144.172 24.359 144.273C30.2053 144.763 36.2194 145.452 40.8196 143.629C43.5287 142.568 47.856 143.654 50.6672 142.412C48.4035 141.309 46.3091 141.555 44.0699 141.431C47.0134 140.362 51.059 140.357 54.6152 140.521C56.9334 140.637 53.552 141.491 54.5397 142.247C57.311 142.755 59.719 142.2 62.3226 142.217C63.7594 142.233 65.4027 142.161 64.935 141.006C64.5284 139.976 63.4925 138.998 61.3397 139.1C56.7589 139.326 52.7681 138.05 47.3559 136.642C51.3048 136.488 53.5531 135.092 57.202 136.888C58.0398 137.312 59.6243 137.388 60.1698 137.09C64.5156 134.843 71.4665 136.379 76.7153 135.521C78.9805 135.161 81.9225 135.555 82.9941 133.943C83.5706 133.123 86.2373 133.831 87.9849 133.85C89.1491 133.87 90.6929 133.959 90.3065 133.069C90.0142 132.347 88.6384 132.455 87.5965 132.394C82.7335 132.113 78.3566 132.268 73.7829 133.022C69.6042 133.73 63.9162 132.929 59.0195 133.191C58.6654 133.221 58.0617 133.082 57.7715 132.926C54.3492 131.18 54.3492 131.18 49.7835 131.583C49.2714 131.632 48.7288 131.618 47.8677 131.658C51.7065 129.422 62.7614 128.483 67.86 130.2C70.8372 131.203 71.404 129.874 73.0932 129.749C74.232 129.668 74.7116 128.991 74.106 128.285C73.2357 127.232 71.3225 127.288 69.7254 127.016C69.002 126.9 68.225 126.893 67.4913 126.853C66.2966 126.771 64.8572 126.774 64.3382 126.002C63.6895 125.037 65.2946 124.96 66.4514 124.744C67.4477 124.565 68.7647 124.605 69.4485 123.565C63.8338 123.379 58.6411 121.494 53.3335 122.5C50.5409 123.023 47.5298 122.854 44.3465 121.647C42.1997 120.833 39.5892 119.996 36.7991 120.5C35.6041 120.711 34.2035 120.133 32.9249 119.806C28.3353 118.645 25.3319 115.804 19.5618 115.617C31.126 114.941 42.6693 114.712 52.905 112.629C48.1574 111.486 44.2179 112.442 38.5599 112.289C43.1572 110.778 48.0764 110.929 51.8682 109.915C51.2475 109.033 46.9085 109.485 48.9661 107.771C49.5346 107.301 47.4411 106.67 45.9305 106.623C43.6453 106.551 41.322 106.474 38.9174 106.133C41.9804 105.334 44.9062 104.106 48.7243 104.93C53.7521 106.012 56.8564 104.614 60.6936 104.133C61.2465 104.07 61.6314 103.81 61.2929 103.433C60.8476 102.983 60.0349 102.952 59.2961 102.951C55.3295 102.946 51.4414 103.518 47.4066 102.861C38.8787 101.485 30.5694 100.509 22.4061 101.347C21.7742 101.418 20.8903 101.339 19.9992 100.732C22.0919 99.6271 25.6023 99.8435 28.1046 99.1642C29.0348 98.8985 30.6906 99.0227 31.2489 98.6293C34.4636 96.4066 39.6753 96.9874 44.6151 96.9856C51.0732 96.9725 56.5593 95.7953 61.208 93.9012C61.9496 93.5909 62.6531 93.2754 63.3947 92.965C69.4194 90.67 71.3401 90.8491 75.5043 94.6061C77.2733 96.2086 77.9611 96.3006 79.6386 95.1012C80.7526 94.3334 82.4931 93.8252 83.7574 93.0971C84.6827 92.5772 86.7465 92.2683 85.4178 91.154C84.2647 90.1803 82.2852 90.1493 80.4715 90.043C73.9144 89.6332 68.3926 90.7861 62.6496 91.5582C61.3018 91.7484 59.9819 92.0203 58.573 92.0853C57.2023 92.1553 55.6301 92.5691 54.38 91.7384C52.8779 90.7569 54.5038 90.2333 55.3706 89.5691C52.0062 88.5528 49.1805 89.0328 46.3066 89.2917C43.9065 89.4971 41.5701 89.8085 38.9616 89.5372C37.7338 89.4118 35.9503 89.6607 35.745 88.5798C35.6081 87.8591 36.6608 87.2588 38.09 87.3331C40.4489 87.4344 42.6759 87.0693 45.1466 87.4977C49.2857 88.247 53.2144 87.9538 57.0791 87.847C59.9656 87.7848 62.9211 87.4978 63.328 85.6209C63.5071 84.8646 64.5977 84.562 65.9353 84.4484C69.9914 84.0747 73.9358 83.3738 78.3021 83.5879C82.9793 83.8045 87.4708 83.6646 91.9013 83.3995C102.485 82.7878 113.345 82.7204 124.081 82.4218C127.594 82.3265 129.926 81.1756 133.19 80.9104C133.977 80.8402 134.222 80.4633 133.815 80.0186C133.306 79.4628 132.282 79.2671 131.482 79.4331C126.798 80.4252 121.337 79.3818 116.342 79.5126C115.756 79.5317 115.065 79.4588 114.619 79.5941C107.843 81.6911 99.2003 80.5923 91.43 80.8198C84.4392 81.0347 77.0966 78.9395 69.9253 78.7595C68.5292 78.7287 67.3145 78.2149 66.681 77.4277C67.7083 76.7265 69.063 77.3565 70.2831 77.5394C71.8853 77.7735 73.3626 78.0688 72.4265 76.6364C71.6507 75.4596 73.956 75.6708 75.1433 75.5176C76.6874 75.3147 78.7709 75.7302 79.9819 74.8194C78.5841 73.93 76.8314 73.9489 75.3258 73.8643C69.1483 73.5248 63.0143 72.8595 56.8627 72.0358C55.0287 71.7902 53.2914 71.6941 51.7522 72.1513C50.3353 72.5663 48.6133 72.3553 47.0012 71.9053C44.8261 71.3019 44.0346 70.5326 45.9995 69.8008C46.8175 69.5007 48.6236 69.6645 48.0054 68.7623C47.4534 67.9471 45.7545 67.5635 44.5826 67.6017C40.2821 67.7672 36.1439 66.1401 31.8537 66.2289C30.6435 66.2619 29.1431 66.139 28.1936 65.3876C28.2834 64.7169 29.4246 64.9087 30.2016 64.9152C36.0991 65.0221 42.1592 65.658 48.0188 65.4672C49.6977 65.4189 52.9538 65.2112 51.138 67.1529C50.4571 67.8811 51.5395 68.2211 52.668 68.2162C58.3492 68.1966 64.2718 68.697 67.6858 65.8573C69.0448 64.7127 71.7131 63.6654 75.9891 65.1354C78.7013 66.0838 82.2168 66.2619 85.2918 66.2445C95.9968 66.1758 106.793 66.295 117.104 65.3932C118.995 65.2171 120.824 65.5011 122.815 66.0214C127.812 67.3343 132.591 67.6621 136.613 66.0937C137.885 65.6007 139.594 65.3224 141.11 65.6229C149.22 67.2161 156.031 65.436 163.59 65.6288C166.071 65.6879 168.552 66.0397 171.13 65.9557C174.763 65.8374 176.24 64.1039 179.641 63.9741C182.459 63.8442 185.724 61.8234 187.736 65.3896C188.207 66.233 190.11 65.6685 190.179 65.1511C190.585 62.4156 194.742 62.7382 198.609 62.9049C201.006 63.0113 203.011 63.1432 203.372 61.6113C203.714 60.2136 207.079 60.9373 208.69 60.2361C206.91 59.2954 205.289 60.0733 203.274 59.7255C205.762 57.9908 211.367 60.2824 213.66 58.2679C199.735 57.3983 186.05 57.3605 171.325 54.6279C177.912 52.7788 184.997 53.0252 191.519 52.533C196.311 52.1798 200.566 51.4815 203.969 49.8887C205.131 49.3421 206.528 49.0804 208.199 49.0896C218.534 49.1665 228.862 49.3009 238.816 48.4489C240.034 48.3584 241.372 48.2448 242.658 48.8072C242.838 49.4946 241.073 49.0242 240.996 49.5991C242.687 50.0402 244.43 50.0979 245.653 49.6765C250.018 48.1541 255.788 48.9267 260.789 48.4649C264.175 48.1575 265.188 49.015 264.412 50.7448C263.805 52.0876 266.25 52.1225 267.633 52.2492C274.741 52.9082 281.802 53.0345 288.383 52.394C296.58 51.5993 304.974 51.6504 313.686 52.2317C314.264 52.2701 315.299 52.3891 315.36 52.5143C317.244 55.5759 321.207 54.1557 323.271 53.8469C331.053 52.6649 339.444 53.3203 347.736 53.5528C349.634 53.6118 351.554 53.791 353.799 53.2918C351.029 52.1989 348.794 52.6215 346.588 52.5407C345.233 52.4958 343.941 52.5569 342.591 52.4737C341.393 52.4109 339.967 52.3174 339.772 51.4524C339.591 50.765 340.814 50.6361 341.793 50.5915C345.548 50.4311 349.319 50.1557 353.153 50.2789C364.807 50.6691 375.626 49.172 387.418 49.9902C389.191 50.1105 392.205 49.6753 392.464 50.9389C392.783 52.6204 389.383 51.8725 387.312 51.6537C381.478 51.0676 376.551 51.8514 371.821 52.8958C371.22 53.0299 370.445 53.2968 370.486 53.5753C370.485 54.1605 371.677 54.2616 372.548 54.4368C377.938 55.4316 382.896 54.7105 387.854 54.5745C392.891 54.4296 397.863 54.7638 402.905 55.1657C404.176 55.2579 405.63 55.4332 406.585 56.1463C404.384 56.3197 406.573 57.9784 404.443 58.2004C403.536 58.2936 402.367 58.3126 402.269 59.0408C403.888 60.0185 405.66 58.9877 407.955 59.8607C405.228 61.0562 401.59 60.335 398.574 60.4968C397.32 60.5631 395.881 60.2729 394.554 60.3097C393.423 60.3338 392.004 60.4754 392.665 61.3443C393.225 62.1021 394.532 62.2185 395.721 62.0462C396.674 61.9007 397.429 61.4945 398.402 61.4883C400.114 61.4834 402.186 61.1171 402.569 62.9046C402.878 64.3701 405.425 65.1013 407.7 64.6647C411.135 63.9932 414.923 64.4613 418.518 64.3379C420.744 64.2654 422.718 64.6273 423.741 65.9933C424.336 66.7753 425.493 67.1447 426.94 67.3775C428.081 67.5693 429.573 67.7497 429.659 68.561C429.727 69.2139 428.397 69.27 427.457 69.3196C423.852 69.5197 421.263 70.8507 417.49 70.8526C416.361 70.8576 414.947 70.9609 415.076 71.739C415.233 72.5989 416.473 73.2136 418.065 73.5244C421.102 74.087 424.23 74.2522 426.956 73.9345C435.298 72.9251 443.54 74.3995 451.571 76.5868C458.549 78.4967 466.128 79.1213 472.848 81.5039C474.259 82.0049 476.069 81.2718 477.986 82.3479C470.204 84.7002 460.2 80.9807 451.759 82.445C455.158 83.7781 458.249 83.3531 461.153 83.7419C462.987 83.9875 465.211 83.6416 465.294 85.3498C465.334 85.921 466.523 86.0412 467.458 86.0299C476.286 86.0414 484.943 88.4882 493.716 88.9022C484.093 90.1886 474.129 90.2395 463.583 88.8274C463.786 87.606 466.172 88.3742 466.69 87.4097C462.816 86.7153 459.213 87.1888 455.522 86.8701C454.406 86.7792 452.913 87.184 453.032 88.0388C453.169 88.7594 454.478 89.1493 455.609 89.4178C457.193 89.786 458.889 90.1887 460.471 90.2835C467.958 90.7203 475.422 91.037 482.879 91.4112C483.768 91.4522 484.792 91.3552 485.541 91.5726C487.041 91.988 488.961 92.4598 488.904 93.4666C488.85 94.4542 487.041 94.3096 485.498 94.2199C482.369 94.0546 479.208 93.8459 476.108 93.7624C474.597 93.7162 472.113 93.3836 472.207 94.43C472.28 95.3372 474.692 95.3286 476.035 95.4693C484.431 96.379 492.85 97.1162 501.202 98.0591C510.36 99.0903 519.662 100.199 528.567 102.543C529.695 102.83 531.465 103.262 530.18 103.851C528.44 104.652 528.307 105.356 530.318 106.308C532.365 107.285 533.94 106.852 535.35 106.202C535.475 106.14 535.892 106.216 536.547 106.264C536.62 107.172 535.68 107.514 534.222 107.65C532.923 107.769 530.202 107.463 530.828 108.308C531.62 109.37 531.954 110.936 534.568 111.462C537.257 111.997 538.332 112.688 538.687 114.101C538.999 115.255 540.654 115.964 543.054 115.759C545.376 115.562 547.796 115.789 550.144 116.259C551.66 116.56 552.566 117.344 552.05 117.997C551.489 118.702 550.183 118.001 549.406 117.702C546.04 116.412 543.079 117.03 538.954 117.043C546.082 119.578 553.468 119.904 559.834 122.024C556.955 122.321 552.988 120.581 551.671 122.862C551.615 122.991 550.104 122.945 549.626 122.745C545.317 120.939 545.358 120.924 540.476 121.656C541.28 122.622 543.16 122.23 544.332 122.777C544.206 123.423 541.277 123.226 542.87 124.396C543.967 125.206 545.343 125.683 547.151 125.827C549.999 126.052 552.127 125.265 554.772 125.267C555.821 125.271 557.732 124.942 557.495 125.847C557.318 126.584 558.911 128.338 555.722 128.048C549.807 127.49 544.387 128.461 538.401 127.562C537.41 127.41 535.749 127.324 535.441 127.595C533.169 129.456 528.999 129.23 524.143 129.184C530.126 130.98 534.812 130.261 539.57 130.45C540.961 130.519 542.801 130.141 543.516 131.193C544.098 132.071 542.188 132.108 541.138 132.396C534.064 134.395 525.838 134.249 517.248 133.626C512.551 133.27 508.204 134.073 503.201 133.091C501.118 132.675 499.007 133.622 497.356 134.337C501.579 137.068 506.547 136.855 511.23 136.741C516.46 136.602 521.513 138.079 526.649 138.357C530.857 138.589 535.236 139.585 539.272 138.779C542.029 138.231 545.192 138.714 548.219 139.06C548.346 139.272 548.473 139.484 548.6 139.697C544.401 140.266 540.238 140.859 536.006 141.385C534.424 141.583 532.358 141.326 531.715 142.352C525.306 141.708 518.897 141.064 513.364 142.587C512.839 142.731 511.917 142.646 511.189 142.568C506.856 142.105 503.418 143.381 499.143 143.062C498.257 143.002 497.367 143.254 497.601 143.831C497.832 144.428 498.826 144.561 499.761 144.55C508.782 144.567 517.889 145.397 527.064 146.586C528.096 146.725 529.125 146.589 530.136 146.588C532.192 146.629 535.156 145.407 535.385 148.052C535.413 148.426 536.646 148.513 537.349 148.49C538.483 148.447 539.607 148.188 540.725 148.26C543.698 148.424 547.977 146.968 548.518 150.474C548.594 151.069 550.021 151.163 550.739 151.025C556.513 150.023 562.71 151.087 568.842 151.771C570.146 151.907 571.995 152.037 571.92 151.149C571.849 150.223 569.898 150.274 568.64 150.086C566.467 149.756 564.043 150.426 562.172 149.298C558.424 147.079 554.28 146.661 549.755 147.05C546.371 147.338 542.937 147.132 539.31 146.334C540.399 145.173 542.869 146.479 544.592 145.52C540.501 144.991 537.028 143.629 533.6 144.828C533.148 143.851 532.478 143.039 531.847 142.233ZM398.395 176.274C402.973 175.776 406.799 175.956 410.043 175.259C410.645 175.125 411.241 175.029 411.954 175.515C414.23 177.107 418.331 177.559 419.532 176.14C421.47 173.863 426.056 174.184 429.245 174.768C433.455 175.565 435.909 175.543 438.323 174.071C439.169 173.56 441.798 173.093 442.658 174.223C444.012 176.023 446.262 175.778 448.491 175.979C457.748 176.848 466.012 174.677 475.584 176.388C476.799 176.609 477.938 176.235 478.509 175.746C479.776 174.706 481.588 174.246 484.25 174.408C485.292 174.469 486.66 174.418 486.477 173.75C486.241 172.899 484.88 173.185 483.91 173.172C482.435 173.15 480.985 173.229 479.131 172.259C484.675 172.104 489.066 170.683 494.573 171.381C495.219 172.658 491.045 173.913 495.798 174.725C499.219 175.32 502.941 175.408 505.401 173.885C507.901 172.347 512.154 171.96 515.601 171.193C518.886 170.482 523.552 171.067 527.717 171.332C530.418 171.499 533.327 171.557 534.268 170.044C535.108 168.713 536.309 167.586 538.781 166.844C528.599 165.618 519.935 168.457 509.667 166.418C511.319 165.703 513.596 166.125 515.558 165.998C516.89 165.922 518.299 165.858 517.961 164.895C517.651 164.015 516.223 163.648 514.867 163.603C510.57 163.457 506.267 163.056 502.119 163.535C491.89 164.701 481.067 165.066 470.235 164.923C454.863 164.698 439.517 164.282 424.768 165.506C423.705 165.598 422.951 165.712 422.713 166.324C422.218 167.701 420.006 167.951 417.548 168.012C406.842 168.373 396.175 168.74 385.47 169.101C382.93 169.19 380.431 169.265 378.007 169.935C382.335 171.022 385.85 171.493 389.99 171.072C399.45 170.134 409.805 171.228 419.832 171.283C417.001 172.679 412.655 172.312 409.121 172.853C405.337 173.517 401.469 174.228 398.395 176.274ZM209.182 62.0773C218.997 65.4595 233.788 65.6648 245.722 62.5222C240.818 61.9631 236.543 62.2295 232.958 60.5399C232.665 60.4032 231.554 60.8591 230.726 60.9433C227.291 61.3223 224.139 62.2072 219.993 60.6376C218.735 60.1571 216.509 59.937 214.761 60.2101C211.586 60.6824 214.757 61.1071 215.419 61.6834C213.498 61.7968 211.694 61.9064 209.182 62.0773ZM283.409 155.766C273.788 154.127 246.379 153.753 243.255 155.305C256.825 155.913 270.038 156.863 283.409 155.766ZM465.917 96.6701C463.974 95.7857 462.132 95.5976 460.42 95.6024C453.848 95.6002 447.303 95.6797 440.761 95.7401C439.905 95.7425 439.005 95.7781 438.18 95.8432C437.471 95.9044 436.676 96.032 436.885 96.5086C437.129 97.0095 437.993 96.9496 438.719 97.0468C446.261 97.9398 453.201 97.2304 460.437 97.2238C462.263 97.2343 464.395 97.5783 465.917 96.6701ZM706.831 222.98C704.612 222.995 701.537 223.012 698.503 223.015C696.404 223.008 695.157 223.601 694.122 224.36C692.748 225.327 693.899 226.32 695.557 227.01C697.507 227.837 698.954 227.485 699.45 226.4C699.889 225.445 701.494 225.367 703.058 225.303C704.781 225.222 706.526 225.26 708.248 225.179C709.618 225.109 710.004 224.555 709.783 223.882C709.63 223.276 708.594 223.177 706.831 222.98ZM489.009 100.816C495.774 102.873 502.451 102.674 509.036 103.166C509.497 103.208 510.15 102.983 510.295 102.769C510.53 102.468 509.903 102.209 509.346 102.017C503.99 100.188 493.553 99.1223 489.009 100.816ZM527.434 174.611C523.511 174.281 520.325 173.678 517.354 174.08C516.523 174.184 515.58 174.253 515.621 174.824C515.686 175.496 516.809 175.822 517.798 175.993C518.633 176.144 519.716 176.192 520.322 176.019C523.403 175.086 525.644 175.776 527.872 177.44C529.252 178.463 531.315 179.032 533.475 178.58C534.235 178.428 535.231 177.957 534.187 177.622C531.544 176.741 531.21 174.005 527.434 174.611ZM122.331 94.6143C124.539 95.8464 126.72 95.8262 128.842 95.6617C133.201 95.3481 137.566 94.9961 141.933 94.6249C142.995 94.5331 144.625 94.5563 144.305 93.7526C143.858 92.7368 142.013 92.8605 140.948 92.9715C134.851 93.4816 128.106 93.0271 122.331 94.6143ZM344.346 169.778C341.721 168.763 339.845 169.41 337.863 169.691C336.831 169.845 334.729 169.564 335.396 170.687C335.999 171.704 337.759 171.92 339.147 171.716C344.852 170.939 351.022 171.043 357.106 170.921C358.003 170.905 359.646 171.125 359.211 170.306C358.84 169.593 357.418 169.753 356.475 169.822C352.508 170.111 348.374 169.908 344.346 169.778ZM134.029 239.333C132.239 238.762 130.894 238.64 129.894 239.13C129.604 239.267 129.545 239.708 129.748 239.93C130.469 240.651 131.847 240.816 132.912 240.705C138.199 240.145 143.849 240.355 149.382 240.277C150.396 240.257 151.543 240.118 151.286 239.42C151.027 238.741 149.799 238.616 148.724 238.511C145.999 238.244 143.459 238.333 140.929 238.638C138.597 238.911 136.538 239.766 134.029 239.333Z" fill="#E6BEBE"/>
<path d="M395.542 48.758C390.963 49.1828 386.507 49.5473 382.417 50.6142C378.962 51.5164 374.158 50.7578 369.901 50.4953C362.906 50.0775 356.08 49.8172 350.293 51.5411C349.534 51.7663 348.415 51.8278 347.386 51.7862C335.927 51.2129 325.691 52.9562 314.658 53.2089C313.275 53.2351 311.686 53.6567 310.582 52.74C309.546 51.89 311.301 51.6637 311.939 51.1917C313.386 50.1168 311.599 49.7237 309.875 49.4352C307.247 49.0256 304.661 49.1599 302.006 48.9581C305.807 48.333 309.349 47.6348 314.108 48.445C318.154 49.1405 322.296 49.1185 324.878 47.2921C326.315 46.2928 329.118 46.8219 331.32 46.6939C340.937 46.1363 351.035 47.1424 360.767 46.8694C372.152 46.5677 383.793 47.204 395.542 48.758Z" fill="#E6BEBE"/>
<path d="M584.37 134.845C573.24 134.392 562.794 132.263 552.492 132.498C555.837 131.274 559.417 130.581 564.074 130.724C570.869 130.922 577.541 131.182 584.229 132.75C586.086 133.191 588.064 133.59 588.273 134.887C588.49 136.127 588.128 137.116 585.6 137.393C585.055 137.455 584.202 137.533 584.139 137.716C583.285 140.658 577.435 139.414 574.07 140.213C573.515 140.35 572.21 140.367 572.072 140.253C569.12 137.685 566.432 139.44 563.736 139.54C561.118 139.632 558.547 139.941 556.837 138.116C556.468 137.721 555.801 137.267 555.138 137.351C551.119 137.889 546.326 136.478 542.587 137.496C541.432 137.822 540.651 137.641 539.954 137.124C538.875 136.307 539.885 135.923 541.077 135.891C542.769 135.848 544.607 135.864 546.336 136.114C551.451 136.838 556.271 136.618 561.154 136.503C562.153 136.483 563.242 136.36 564.173 136.562C572.079 138.197 578.04 136.9 584.37 134.845Z" fill="#E6BEBE"/>
<path d="M416.423 286.319C420.099 285.485 424.76 285.59 429.627 286.165C430.721 286.292 431.346 286.779 431.923 287.337C434.027 289.368 437.162 289.423 439.716 288.669C441.23 288.237 442.316 288.421 443.689 288.759C444.691 289.008 445.719 289.338 445.669 290.004C445.6 290.514 444.804 290.734 443.923 290.732C440.517 290.698 437.208 291.37 433.582 290.116C432.922 289.893 432.176 289.735 431.423 289.635C426.273 288.887 420.491 289.708 416.423 286.319Z" fill="#E6BEBE"/>
<path d="M171.292 47.7358C177.423 47.1727 183.711 47.1497 190.104 47.7751C192.903 48.0537 195.638 48.5162 198.407 48.4448C201.138 48.3684 203.347 49.3369 205.286 50.3078C207.69 51.5331 207.177 52.5024 204.332 52.852C203.629 52.9501 202.999 53.0772 202.314 52.7548C201.521 52.3795 201.833 52.056 202.292 51.7715C203.84 50.8061 202.708 50.3855 200.6 50.1032C196.609 49.5688 192.734 49.0306 188.792 49.2718C183.036 49.6159 177.162 49.1177 171.292 47.7358Z" fill="#E6BEBE"/>
<path d="M345.903 284.925C352.954 282.352 361.027 285.028 369.028 286.811C361.241 287.152 353.417 286.912 345.903 284.925Z" fill="#E6BEBE"/>
<path d="M425.079 280.364C433.602 279.391 442.388 279.607 451.391 280.485C452.45 280.589 453.565 280.853 453.587 281.548C453.601 282.012 452.825 282.081 452.002 281.932C445.07 280.754 438.37 281.279 431.537 280.787C429.374 280.632 427.245 280.501 425.079 280.364Z" fill="#E6BEBE"/>
<path d="M453.698 284.443C452.987 285.175 451.453 285.469 450.479 285.3C444.033 284.206 438.298 285.822 431.876 284.558C431.055 284.391 429.931 284.49 429.748 283.851C429.653 283.415 430.524 283.205 431.167 283.272C438.27 284.031 445.008 283.222 452.114 283.962C452.641 284.033 453.146 284.273 453.698 284.443Z" fill="#E6BEBE"/>
<path d="M439.447 172.47C442.053 172.184 441.013 170.507 442.907 169.819C445.204 168.973 447.77 168.99 450.42 168.941C452.497 168.892 452.669 169.896 453.185 170.619C453.824 171.569 452.444 171.576 451.299 171.539C448.671 171.417 446.567 171.674 444.945 172.629C443.541 173.383 441.402 172.751 439.447 172.47Z" fill="#E6BEBE"/>
</svg>
