<svg width="1049" height="262" viewBox="0 0 1049 262" fill="none" xmlns="http://www.w3.org/2000/svg">
<path d="M117.752 128.453C115.838 127.298 115.485 126.022 116.895 124.563C117.802 123.651 118.809 122.679 118.557 121.554C118.003 119.062 119.766 117.998 123.846 118.059C125.306 118.089 126.666 117.816 127.119 116.843C127.472 115.992 126.162 115.627 125.306 115.141C124.45 114.655 123.694 113.956 122.687 113.712C118.054 112.709 112.614 112.345 113.672 107.998C113.773 107.603 111.355 106.813 109.945 106.479C104.858 105.354 104.254 102.406 102.542 99.9744C101.534 98.5155 105.765 98.8195 105.463 96.7831C99.973 98.7587 94.6344 100.218 88.2886 99.5793C82.95 99.0626 77.9137 95.4457 79.7268 92.6495C73.4313 93.6525 68.546 93.3486 64.4666 89.519C62.7542 87.9081 56.6601 88.9719 52.8828 87.8169C52.228 87.6041 51.3215 87.7257 50.5661 87.6041C49.4077 87.4218 48.048 87.1482 48.1487 86.2972C48.2494 85.1422 50.1632 84.9598 51.2712 85.2638C60.8404 87.8169 70.3087 83.3186 79.6764 85.1119C86.8281 86.4796 93.9799 86.3884 101.182 86.0236C106.47 85.7501 111.607 85.3246 114.327 81.7077C116.039 79.4282 118.91 80.3096 120.723 81.9205C122.032 83.1059 123.543 84.4432 125.709 83.3186C127.975 82.1332 132.407 81.5862 131.199 78.8507C130.796 77.9693 129.436 77.0878 131.702 76.48C133.767 75.9329 136.034 75.8721 138.048 76.48C140.214 77.1182 138.653 77.9997 138.149 78.8507C137.444 80.0665 138.048 80.6439 140.516 80.188C143.941 79.5497 147.315 80.4312 149.682 81.647C152.351 83.0451 154.719 83.3186 157.69 82.5892C159.453 82.1636 160.863 82.2244 162.727 82.65C166.806 83.6226 166.705 83.3794 168.317 80.8263C169.123 79.489 171.591 79.0331 173.857 79.489C180.152 80.7047 178.591 77.2702 179.397 75.8113C180.455 73.9269 176.728 73.9269 174.864 73.2887C173.051 72.6808 170.583 73.8661 168.065 72.316C173.958 70.8571 181.109 72.1337 185.39 68.8511L185.189 68.9727C185.743 68.9727 186.297 68.9423 186.901 68.9423C184.635 70.462 188.664 72.4072 185.592 74.1701C183.527 75.3554 185.844 77.3006 186.952 78.7291C187.455 79.4282 189.621 79.2762 190.83 78.9419C193.046 78.3036 190.83 78.0604 190.427 77.5741C188.966 75.8417 191.484 75.5986 192.995 75.7505C197.83 76.328 202.967 75.325 207.5 77.7261C210.27 79.185 214.803 79.337 217.271 76.8447C218.882 75.2035 222.458 75.7809 224.07 74.3524C223.314 73.1063 221.451 73.0455 220.041 73.2279C213.443 74.0181 206.845 73.0151 200.248 73.4102C195.463 73.6837 192.542 71.4042 194.607 68.8207C197.377 65.3862 192.441 65.9333 189.268 65.2647C192.844 62.5596 197.327 61.7998 202.061 62.4988C210.673 63.7754 218.53 61.7086 226.689 61.1007C227.646 61.0399 228.703 60.5536 229.509 60.7056C239.229 62.4988 248.244 58.5172 257.914 59.3986C260.483 59.6418 263.555 58.2741 264.411 56.6936C265.469 54.7788 260.835 54.9307 260.231 52.8336C253.482 59.7937 243.661 58.5476 233.891 57.8789C227.394 57.423 221.098 54.0797 214.198 57.2103C213.947 57.3319 213.191 57.3926 213.09 57.3015C210.774 55.3563 205.737 54.0797 204.982 52.4688C202.917 48.0921 207.047 44.2017 212.285 41.2231C214.954 39.7034 218.53 39.4907 221.854 41.4055C227.495 44.7184 243.158 45.5391 249.604 43.0772C251.015 42.5605 251.971 41.8918 252.425 40.9192C255.346 34.7492 256.152 34.2933 267.232 33.7462C274.232 33.4119 281.182 32.2873 288.334 33.0776C289.643 33.2295 291.205 32.7736 292.111 33.655C293.018 34.5973 291.86 35.1747 290.802 35.7826C288.082 37.3327 288.586 38.6701 291.658 39.7642C296.392 41.4359 300.573 42.682 306.818 40.9496C312.307 39.4299 318.351 37.4847 325.805 39.4603C328.978 40.3113 334.719 38.4877 339.403 38.2141C339.806 38.1837 340.108 37.7279 340.461 37.4847C335.928 35.5395 342.929 33.5335 340.259 31.254C338.748 30.0078 341.317 28.8832 343.785 28.8224C346.857 28.7617 349.627 28.2753 352.246 27.3939C353.404 26.9988 355.066 26.6949 354.714 25.6311C354.361 24.5369 352.649 24.6585 351.339 24.6889C348.569 24.7801 345.799 24.8104 343.281 25.6311C342.274 25.9654 341.166 27.2724 340.108 25.8439C339.101 24.5369 340.864 24.1722 342.526 24.0202C347.361 23.5947 352.296 23.2908 357.131 22.8045C367.959 21.7407 378.737 20.5857 389.515 19.4611C390.674 19.3396 392.184 19.1572 392.487 20.0386C392.94 21.3152 390.875 21.1024 389.717 21.3455C382.968 22.774 375.615 22.1662 368.816 23.3515C367.355 23.6251 365.894 23.929 363.779 24.3849C367.657 26.4517 371.485 25.7831 375.161 25.3272C385.788 24.0506 396.667 24.3545 407.344 23.4123C409.207 23.2604 412.884 23.2908 412.28 24.9017C411.877 25.9958 412.783 28.8528 407.747 28.4577C404.473 28.2146 404.171 29.8558 403.97 31.3451C403.718 33.6855 406.538 34.9012 409.258 35.6003C411.675 36.2081 412.733 34.6885 413.388 33.2903C414.546 30.95 417.366 30.3725 420.741 31.4971C423.36 32.3481 425.425 31.9834 427.137 30.8588C430.31 28.792 434.641 28.2753 438.67 27.4243C440.433 27.0596 442.548 26.1478 443.656 28.3665C444.412 29.8862 447.685 28.1842 449.901 29.2479C447.434 31.0108 444.563 32.4393 440.282 33.8678C445.52 33.959 449.851 34.81 454.132 33.5639C458.514 32.2873 459.168 30.2206 455.844 28.0626C454.485 27.1812 455.341 26.1478 458.211 25.8742C462.241 25.5095 466.32 25.4183 471.256 25.1752C468.738 27.1204 465.162 27.5459 464.003 29.5215C465.766 30.2205 467.428 29.7038 468.989 29.3695C470.903 28.9744 472.666 28.1538 472.716 30.4637C472.716 31.6187 474.882 31.7099 475.537 30.7373C477.35 27.941 481.48 27.941 485.257 27.3635C487.171 27.09 488.984 26.5733 490.797 26.1174C493.214 25.5095 493.92 24.2026 493.517 22.8652C493.063 21.4671 490.998 22.227 489.588 22.227C486.466 22.227 484.451 20.7377 480.573 20.4033C485.761 17.3336 491.955 17.1816 497.294 15.9659C498.704 15.6315 499.963 16.3306 499.711 17.4247C499.56 18.0022 499.258 18.4581 499.711 19.1268C500.97 20.8592 497.949 23.1084 500.668 24.5369C503.438 25.9654 506.662 24.0202 509.734 24.233C512.453 24.4153 515.072 25.1144 517.742 25.084C524.088 25.0232 527.663 22.8045 528.822 19.0052C527.814 18.7925 526.404 18.6709 525.296 18.2758C524.339 17.9718 524.239 17.2728 524.994 16.7257C525.901 16.057 527.21 16.1482 528.217 16.5433C535.319 19.3396 542.017 18.4582 548.715 15.8747C549.723 15.4796 551.435 15.4491 552.694 15.5707C561.155 16.4521 569.365 13.7775 577.876 14.9629C578.581 15.054 580.143 14.5981 580.394 14.203C583.517 8.85369 591.273 11.5283 596.964 10.6773C597.468 10.5861 598.173 10.7077 598.677 10.8597C600.59 11.3764 603.612 9.58315 604.367 11.3156C605.022 12.8961 601.195 12.1666 599.986 13.048C599.23 13.5951 598.223 14.1422 597.971 14.7501C597.115 17.1816 595.302 18.7317 590.769 19.1572C586.287 19.5827 588.251 22.5309 585.33 24.5977C590.165 23.8075 593.791 23.5947 596.712 22.1054C598.022 21.4367 599.432 21.224 601.094 21.3152C604.972 21.4975 608.447 20.7985 611.821 19.7043C615.045 18.6709 618.419 18.0326 621.794 19.7347C623.304 20.4945 625.117 20.4945 626.779 19.8258C628.24 19.2484 627.837 18.4581 627.384 17.6071C626.679 16.1786 625.067 15.8139 622.851 15.9051C619.729 16.0266 616.656 16.1178 612.527 16.2394C614.843 14.4462 617.261 14.1118 619.729 14.203C622.952 14.3246 626.074 14.2638 629.096 13.6559C631.866 13.1088 633.629 14.051 635.442 14.9932C638.565 16.6041 642.241 16.5129 645.515 15.6619C648.99 14.7805 648.285 12.8049 647.278 11.0116C646.522 9.61353 648.083 8.79289 649.544 7.97226C651.357 6.93887 653.069 7.18201 654.731 8.15462C655.134 8.39777 655.789 8.7017 656.242 8.67131C665.207 8.03303 674.676 9.18799 684.597 5.38876C674.575 4.38577 666.114 4.20344 657.854 4.47699C657.451 3.4436 658.156 3.07887 658.912 3.04847C668.179 2.47099 677.043 0.03945 686.612 1.16402C692.555 1.86308 698.599 0.31303 704.139 0.677756C715.773 1.4376 727.356 -1.63219 739.141 1.28562C745.789 2.92689 753.495 0.677721 760.899 1.16402C766.741 1.55914 772.734 1.16404 778.677 1.13365C780.138 1.13365 781.8 0.677747 783.462 2.04547C776.008 2.34941 769.058 2.74452 762.057 2.89649C754.603 3.04846 746.998 3.74753 739.796 3.47398C726.903 2.95729 714.362 5.08485 701.57 4.50736C699.908 4.44658 697.39 4.17303 697.44 5.69272C697.49 7.09084 699.757 6.51337 701.217 6.42219C707.815 6.11825 713.607 7.94188 720.708 8.45857C719.399 9.3096 719.046 9.61352 718.593 9.76549C716.276 10.6469 710.736 10.0694 711.441 11.0724C712.952 13.2608 713.002 16.3002 717.686 17.4855C718.391 17.6679 719.399 17.9414 719.6 18.3061C721.816 22.9564 728.011 20.7681 732.745 21.1328C737.983 21.5279 739.242 19.3092 739.343 16.9689C739.444 14.2334 735.515 14.4158 732.443 14.2942C731.688 14.2638 730.882 14.4765 730.126 14.5069C728.615 14.5373 726.349 15.0236 726.148 13.7775C725.896 12.2882 728.364 13.0176 729.723 12.8049C736.674 11.6803 741.66 13.2608 747.3 15.7835C750.826 17.3336 758.129 16.5433 761.251 18.7925C766.842 22.8652 771.878 20.0386 777.72 19.8563C786.685 19.5827 795.801 19.8563 804.766 19.37C814.486 18.8533 824.508 20.4337 833.926 17.8503C835.387 17.4551 836.444 18.1542 837.704 18.4581C843.546 19.7955 848.733 21.4367 855.734 19.1572C861.022 17.4551 867.972 16.6953 874.671 18.3061C879.959 19.5827 884.038 16.5433 889.075 16.1786C892.852 15.905 895.874 14.7197 896.529 18.3061C896.881 20.2817 899.853 19.7651 901.565 19.066C904.486 17.8806 907.458 17.9718 911.235 18.3061C908.767 20.3425 906.501 22.1966 904.234 24.0506C903.58 24.5977 902.069 24.932 902.673 25.7831C903.227 26.6037 904.637 26.4517 905.796 26.3909C913.048 25.8742 920.351 27.0596 927.603 26.3301C928.963 26.2085 930.373 26.2086 931.683 25.9654C933.042 25.7223 934.251 25.1448 934.05 24.1418C933.798 23.0476 932.186 22.926 930.826 23.0172C926.495 23.2907 922.214 23.7467 917.933 24.0202C916.322 24.1114 913.904 24.4761 913.451 23.0476C912.998 21.7407 915.163 21.0416 916.775 20.9504C925.186 20.4034 933.647 19.917 942.108 19.7043C943.77 19.6739 946.842 20.4641 945.936 22.227C945.13 23.7771 942.712 23.1388 940.799 22.926C939.539 22.8044 937.928 22.0142 937.374 23.3212C936.971 24.233 938.331 24.8105 939.539 25.2664C944.324 27.09 953.591 25.8134 956.512 22.926C957.67 21.7711 958.879 20.373 961.448 21.1024C964.218 21.8927 962.807 23.3515 962.002 24.5369C960.793 26.2086 961.145 27.5155 964.469 27.6067C973.938 27.9106 983.306 29.7343 992.925 28.2146C994.99 27.8802 997.407 28.1234 999.12 29.0048C1002.9 30.9196 1007.08 30.4333 1010.9 29.5215C1014.88 28.5793 1018.66 26.0566 1021.88 30.0382C1026.82 29.1568 1032.11 31.0108 1036.94 29.4303C1038.3 28.9744 1039.76 28.3057 1041.38 28.5793C1044.55 29.1568 1048.22 29.6431 1048.88 32.0442C1049.43 34.2933 1046.61 35.4787 1043.74 36.3601C1042.38 36.7856 1040.72 36.8464 1039.21 37.1504C1037.9 37.3935 1036.54 37.7582 1036.34 38.7308C1036.19 39.6122 1037.4 39.977 1038.45 40.2809C1041.63 41.1927 1043.74 42.3781 1042.38 44.7792C1041.78 45.8734 1042.89 46.6332 1044.35 47.1195C1046.71 47.849 1047.07 49.1559 1048.02 50.4933C1050.34 53.715 1048.43 55.1435 1043.44 55.9641C1041.58 56.2681 1039.31 56.6936 1039.01 58.0613C1038.66 59.7634 1041.43 59.6114 1043.14 60.0065C1050.04 61.587 1044.45 64.748 1045.15 67.0579C1045.61 68.608 1041.48 67.8177 1039.26 67.7266C1033.77 67.5442 1028.28 66.6324 1022.79 67.6658C1018.31 68.5472 1016.65 70.1581 1019.22 72.8023C1019.67 73.2886 1021.18 73.623 1020.42 74.2612C1014.63 79.4282 1022.79 77.2398 1025.46 77.6349C1027.27 77.9085 1029.34 77.5742 1031.4 77.8477C1028.78 79.0939 1025.66 79.2154 1022.54 78.9419C1017.75 78.5164 1014.08 79.1242 1011.41 81.7685C1010.5 82.6803 1008.74 83.2578 1009.85 84.5039C1010.85 85.6285 1012.72 85.6285 1014.53 85.6285C1020.12 85.6589 1025.81 84.6863 1032.51 86.1756C1028.88 87.5433 1025.66 86.8747 1022.84 87.2394C1011.21 88.7287 999.372 89.367 987.587 89.063C979.982 88.8807 972.377 88.0905 964.721 87.7257C962.606 87.6041 958.93 87.513 958.577 85.203C958.527 84.7167 957.973 84.5647 957.368 84.7471C949.814 86.8443 941.856 84.6863 934.15 85.5677C928.661 86.206 923.121 86.0844 918.185 84.0177C916.976 83.501 915.516 83.5313 914.156 83.8049C910.228 84.5647 906.4 84.4736 902.522 83.7137C901.968 83.6225 901.212 83.4706 900.759 83.6225C895.068 85.4766 889.175 84.2304 883.333 84.3824C876.786 84.5344 870.339 84.8687 863.893 84.2C848.582 82.5588 833.12 84.1393 817.81 83.1666C814.637 82.9539 811.615 83.349 808.845 85.0207C811.514 85.9629 814.184 84.7775 816.5 85.7197C820.026 87.1482 815.997 88.3944 816.5 90.0356C821.134 88.8199 826.17 90.0053 830.502 87.9081C833.07 86.6619 837.099 87.2698 839.668 87.9993C848.33 90.5219 856.943 89.215 865.605 88.4551C867.217 88.3032 869.08 87.8473 869.886 88.8807C872.253 92.072 875.678 91.3426 879.455 90.1268C879.808 90.0052 880.211 89.9444 880.614 89.9748C894.363 90.6435 908.314 90.1876 922.063 92.2848C916.322 92.9839 913.803 97.239 907.055 96.8439C905.644 96.7527 901.968 97.3909 903.428 99.245C904.637 100.765 908.012 100.765 909.674 99.8528C912.998 97.9684 916.473 97.8772 920.552 98.09C922.214 98.1812 925.135 98.6067 923.876 96.0232C923.07 94.3516 926.848 94.6859 928.208 94.9291C931.532 95.4761 933.697 94.8682 935.913 93.4397C938.23 91.92 941.302 91.7681 944.676 92.2544C955.505 93.8349 966.182 92.2848 976.809 91.4338C978.571 91.2818 980.586 90.7651 981.996 91.2818C988.695 93.6829 996.4 93.5005 1003.6 94.5947C1006.78 95.081 1009.55 94.4732 1012.26 93.9868C1022.29 92.224 1031.5 93.1054 1040.07 96.6615C1042.68 97.7557 1041.02 98.7587 1039.51 99.5185C1035.89 101.373 1026.42 101.069 1021.73 99.8833C1016.04 98.4244 1010.55 100.43 1003.75 100.977C1008.34 102.983 1011.66 104.321 1016.09 102.679C1018.16 101.92 1020.83 102.467 1021.18 103.47C1021.88 105.324 1022.74 106.722 1026.01 107.269C1026.77 107.391 1026.92 108.029 1026.42 108.515C1025.81 109.062 1024.86 109.153 1023.8 109.153C1017.75 109.153 1011.46 110.855 1005.87 107.998C1005.36 107.755 1004.21 107.725 1003.55 107.907C995.745 110.156 987.335 108.697 979.276 109.427C975.801 109.731 973.182 109.427 971.269 107.421C968.398 104.412 964.218 102.801 958.124 103.196C954.397 103.439 950.619 103.135 946.892 103.166C943.568 103.196 940.496 103.044 939.489 106.023C938.683 108.302 934.352 107.603 931.934 106.935C927.603 105.78 923.272 105.476 918.689 105.537C917.178 105.567 915.113 105.445 914.206 104.868C909.17 101.676 902.522 101.828 896.126 101.433C892.6 101.221 887.715 101.403 892.248 97.9076C892.802 97.4821 892.852 96.9046 892.097 96.6615C891.543 96.4791 890.636 96.5399 889.88 96.6311C889.326 96.6919 888.622 96.9047 888.42 97.1782C884.542 101.525 878.045 101.464 871.095 101.251C866.864 101.129 862.885 101.828 858.756 103.044C853.065 104.716 846.467 105.871 840.675 102.588C840.272 102.376 839.366 102.163 839.063 102.284C831.811 105.445 823.35 100.552 815.443 103.774C812.219 105.081 806.025 103.774 801.139 103.591C799.981 103.561 798.672 102.892 797.765 103.075C790.11 104.533 782.807 104.047 775 103.014C770.72 102.436 765.683 102.953 761.05 102.315C757.172 101.798 753.294 101.494 749.315 102.193C746.797 102.649 744.178 102.436 741.76 101.859C738.688 101.129 735.717 100.917 732.644 101.889C730.177 102.649 727.658 102.527 725.241 101.707C723.478 101.129 721.615 100.734 719.6 100.947C718.24 101.099 716.679 101.251 716.377 102.224C716.075 103.196 717.384 103.986 718.643 104.047C725.946 104.382 733.349 105.962 740.199 105.78C745.185 105.628 748.862 105.05 753.848 106.691C759.438 108.545 766.439 108.424 772.835 106.874C774.094 106.57 775.706 106.084 776.763 106.327C785.527 108.363 794.29 108.029 803.456 107.33C807.737 106.995 812.925 107.634 817.407 108.333C824.357 109.427 831.156 108.515 837.955 108.576C848.784 108.697 859.259 110.339 870.541 109.761C882.678 109.153 895.622 110.339 908.163 111.068C910.882 111.22 914.005 111.919 916.322 111.403C921.912 110.156 924.883 113.348 929.416 113.652C930.423 113.712 930.826 114.503 930.373 115.141C929.718 116.114 928.308 116.813 926.747 116.752C922.365 116.539 918.185 116.6 913.904 117.269C910.782 117.755 912.091 115.962 911.436 115.05C904.99 116.813 899.097 118.363 891.24 118.454C882.326 118.545 872.858 119.396 863.49 120.095C864.296 121.949 865.958 121.554 867.217 121.584C873.613 121.676 879.959 121.949 886.003 123.438C887.816 123.894 890.384 124.32 890.132 125.627C889.78 127.268 886.909 126.387 885.146 126.63C882.376 127.025 877.642 125.08 877.088 127.694C876.585 129.882 881.822 129.912 884.542 130.125C892.449 130.733 899.903 133.104 908.364 132.01C911.587 131.614 913.199 129.001 917.027 130.064C917.782 130.277 919.847 129.487 919.142 130.885C917.48 134.289 921.005 133.408 923.977 133.134C930.927 132.496 938.028 133.073 944.878 131.827C945.936 131.645 948.152 131.979 947.95 132.465C945.432 137.876 953.238 134.867 955.807 135.87C955.857 136.842 954.8 137.298 953.943 137.207C946.238 136.265 938.18 138.24 930.575 136.113C925.387 134.654 920.25 136.66 914.911 136.538C917.631 138.392 919.948 140.246 924.279 140.611C923.574 141.766 919.897 140.885 920.451 142.678C920.854 143.985 922.365 144.593 924.43 145.018C931.28 146.477 937.928 148.544 945.482 146.568C947.396 146.082 949.26 146.842 951.173 147.146C955.555 147.814 959.987 148.605 964.268 146.811C966.232 145.991 968.599 146.173 970.564 146.751C979.982 149.456 990.155 149.06 1000.13 149.577C1006.42 149.911 1012.67 150.307 1018.96 150.702C1019.92 150.763 1021.53 150.823 1021.73 151.158C1024.1 154.683 1029.54 154.896 1034.48 155.838C1036.19 156.142 1037.55 157.024 1037.75 158.179C1037.95 159.516 1036.09 159.941 1034.53 160.428C1032.41 161.066 1030.19 161.796 1027.78 161.644C1020.07 161.188 1012.47 161.735 1004.76 162.16C999.573 162.434 995.091 162.373 990.961 165.078C988.443 166.719 983.205 166.932 979.075 167.601C977.212 167.905 975.751 168.33 975.147 169.485C974.794 170.154 975.298 170.64 976.154 171.005C977.111 171.4 978.068 171.461 978.571 170.731C979.428 169.424 980.586 168.695 983.054 169.516C985.068 170.215 986.882 171.066 986.328 172.585C984.766 176.992 983.255 181.43 981.19 185.746C980.032 188.177 976.809 186.84 973.737 186.232C974.039 188.633 974.391 190.639 978.723 191.247C980.888 191.551 982.802 192.281 981.795 193.679C980.737 195.198 978.672 194.104 977.312 193.648C972.628 192.098 968.247 190.7 965.729 195.168C965.275 195.989 963.815 196.384 962.354 196.384C960.591 196.384 960.037 195.654 959.937 194.742C959.937 194.621 959.937 194.499 959.886 194.378C958.426 190.487 956.562 187.144 947.9 189.575C946.641 189.94 940.899 190.457 944.576 187.174C945.633 186.232 944.979 185.351 943.317 184.804C942.259 184.439 939.791 184.864 940.396 183.618C941.201 181.977 943.266 183.193 944.828 183.254C945.13 183.254 945.432 183.071 945.885 182.919C944.878 179.637 937.122 181.4 936.014 178.026C937.978 177.935 939.842 177.874 942.964 177.722C939.69 174.834 934.906 173.74 931.532 171.825C930.172 171.066 926.697 171.096 925.79 173.041C924.984 174.774 927.049 175.351 929.316 175.685C930.021 175.807 930.726 176.02 932.186 176.385C928.51 177.6 929.114 178.998 929.97 180.822C931.431 183.953 932.539 187.296 925.589 188.907C923.171 189.454 924.531 190.244 925.085 191.156C926.495 193.496 927.452 195.776 920.854 195.046C919.495 194.894 917.933 195.198 917.53 196.171C917.128 197.204 918.487 197.63 919.696 198.055C921.106 198.511 922.617 198.876 922.819 200.031C922.97 201.064 923.07 202.189 920.451 201.368C914.962 199.636 909.12 201.946 903.579 200.821C902.673 200.639 901.061 201.125 901.515 201.672C904.839 205.441 898.442 204.043 897.435 203.982C894.464 203.8 889.881 206.93 888.521 202.736C888.219 201.824 886.808 201.733 885.7 201.855C882.83 202.159 880.261 201.611 877.592 201.186C875.678 200.882 873.411 200.548 872.253 201.885C870.793 203.526 867.418 203.101 866.159 203.769C861.929 206.079 856.943 205.411 852.309 205.836C846.719 206.323 842.488 208.936 836.847 209.149C835.84 209.18 834.782 209.544 834.984 210.243C835.085 210.578 835.991 210.912 836.646 211.125C844.452 213.86 859.662 212.644 866.411 208.693C869.836 206.657 874.62 207.66 878.498 206.657C878.75 206.596 879.707 207.174 879.959 207.538C880.311 208.055 879.657 208.511 878.851 208.632C877.944 208.754 876.887 208.815 875.93 208.724C874.016 208.572 872.253 208.663 871.498 209.909C870.44 211.611 873.411 211.489 875.225 212.28C871.699 212.705 868.728 213.07 865.807 213.435C865.857 213.799 865.907 214.164 866.008 214.529C870.793 214.346 875.527 215.532 880.362 214.042C881.319 213.739 882.88 212.918 883.384 213.83C885.852 217.963 892.046 216.504 896.73 217.234C899.399 217.659 902.22 217.629 904.939 217.781C906.551 217.872 908.415 217.994 908.717 219.149C909.925 223.556 915.667 224.042 921.207 224.194C925.589 224.316 929.567 225.167 933.697 225.349C933.999 226.139 933.395 226.686 932.69 226.595C926.344 225.714 919.595 226.534 914.106 227.477C906.45 228.784 900.86 225.471 893.809 226.2C889.78 226.626 890.082 224.224 892.399 222.431C889.377 222.218 887.866 222.948 886.355 223.738C883.787 225.045 883.786 224.954 879.808 224.073C879.052 223.89 877.844 224.164 877.038 224.437C871.548 226.382 866.411 224.984 861.274 223.89C860.367 223.708 859.461 223.221 858.605 223.282C845.963 223.951 833.372 222.431 820.429 224.255C809.349 225.835 797.362 225.349 785.829 226.382C784.368 226.504 782.656 226.079 781.447 227.021C781.9 228.054 783.411 227.872 784.318 227.689C792.175 226.109 800.384 228.844 808.291 226.93C810.054 226.504 813.327 226.838 813.63 228.388C813.982 230.151 810.759 229.391 809.198 229.847C797.261 233.251 783.713 231.762 771.425 234.437C763.266 236.2 753.747 234.133 745.386 236.656C744.228 237.02 742.919 236.625 742.516 235.804C741.509 233.798 740.149 232.218 735.414 233.555C740.3 231.823 745.638 233.039 749.919 231.276C751.581 230.607 755.056 230.82 754.502 229.118C754.049 227.659 751.078 227.841 748.912 227.963C737.782 228.601 726.5 228.328 715.521 229.938C713.103 230.303 711.038 230.638 709.628 232.188C712.952 233.89 716.931 231.276 720.809 232.978C716.83 235.683 710.535 235.804 706.354 238.175C701.822 240.728 695.224 236.899 690.087 239.573C691.598 236.139 693.512 233.373 700.361 233.677C702.527 233.768 705.347 233.069 704.995 231.549C704.592 229.726 701.671 231.245 700.16 230.82C696.433 229.817 693.21 230.85 689.936 231.489C682.13 233.039 674.021 233.251 665.963 233.434C664.754 233.464 663.595 233.434 662.437 233.555C660.322 233.799 657.35 234.102 657.602 235.561C657.804 236.99 660.725 236.564 662.588 236.504C667.524 236.321 672.46 236.382 677.294 235.622C678.755 235.409 680.669 235.257 681.475 236.352C682.281 237.476 680.619 238.054 679.511 238.692C677.244 239.968 674.726 240.941 671.553 239.908C667.524 238.601 663.948 239.452 661.329 241.154C653.926 245.926 644.961 243.889 636.449 243.373C634.636 243.251 632.672 242.37 630.809 242.886C623.707 244.892 616.002 244.528 608.548 245.227C606.181 245.439 603.713 245.774 601.547 245.105C597.921 243.98 594.295 244.679 590.618 244.619C585.38 244.527 581.805 247.992 575.207 245.956C570.876 244.619 564.278 246.837 558.436 246.898C552.493 246.929 546.6 247.172 540.708 246.716C535.873 246.351 531.29 247.385 526.555 247.324C513.259 247.141 500.014 248.479 486.717 247.354C483.645 247.081 481.127 248.388 478.206 248.692C471.004 249.451 463.953 250.272 456.65 248.54C453.427 247.78 449.7 247.81 445.621 247.415C449.247 246.412 452.621 246.412 455.744 246.777C466.572 248.053 477.451 246.442 487.674 245.622C504.849 244.254 522.073 245.348 539.045 243.585C543.478 243.129 547.758 241.944 552.442 242.309C554.004 242.43 555.766 242.309 557.025 242.765C559.997 243.828 562.616 245.257 564.983 242.278C565.537 241.549 567.4 241.731 568.811 241.944C570.523 242.187 572.487 242.734 573.998 242.43C584.373 240.303 595.403 241.002 606.03 239.756C613.131 238.935 620.736 237.689 628.542 238.874C633.327 239.604 638.565 238.266 643.601 239.634C645.313 240.09 647.832 239.117 649.242 238.054C650.148 237.355 652.062 236.686 651.105 235.653C650.299 234.802 648.587 235.44 647.278 235.409C629.499 235.197 611.872 236.716 594.194 237.507C588.654 237.75 583.466 238.996 577.977 239.482C569.969 240.212 562.314 238.57 554.507 239.087C552.342 239.239 550.025 239.057 548.061 239.452C537.333 241.61 526.203 240.303 515.425 241.063C504.446 241.853 493.567 241.853 482.638 241.974C476.191 242.066 469.443 242.947 463.097 240.637C457.96 238.753 453.276 240.819 448.793 242.278C446.175 243.129 443.858 244.953 441.39 241.762C440.332 240.394 437.059 241.549 435.246 242.4C432.375 243.707 429.655 244.041 426.684 242.552C424.468 241.458 421.798 241.762 419.28 242.096C411.726 243.129 404.02 243.221 396.314 243.342C394.652 243.373 390.825 244.284 393.041 241.367C393.947 240.181 391.177 240.12 389.717 240.151C381.608 240.394 372.492 239.573 365.895 242.187C353.858 246.989 341.468 244.923 329.028 244.74C328.222 244.74 327.416 244.619 326.661 244.74C313.566 247.02 300.17 244.983 286.974 245.804C281.736 246.138 276.499 247.02 271.361 245.227C270.354 244.862 268.088 245.227 266.879 245.713C258.922 248.813 249.806 248.144 241.143 248.752C240.186 248.813 239.129 248.631 238.172 248.752C235.653 249.026 231.927 249.299 231.927 250.819C231.927 252.764 235.905 251.974 238.172 252.4C239.078 252.552 240.136 252.4 241.143 252.4C242.1 252.43 243.359 252.4 243.258 253.22C243.208 253.585 242.503 254.041 241.898 254.284C237.97 255.834 226.89 254.254 224.624 251.64C223.516 250.333 221.954 249.998 219.889 249.998C215.558 249.998 210.975 249.543 206.896 250.211C197.83 251.731 188.513 251.64 178.541 252.065C180.757 254.375 183.325 254.162 185.793 253.919C190.124 253.524 194.456 253.463 198.737 254.162C201.205 254.558 201.859 255.317 199.744 256.351C194.708 258.813 190.124 261.579 182.469 260.545C176.728 259.755 170.936 261.882 164.892 261.244C162.374 260.971 159.705 261.031 157.589 260.089C154.467 258.691 151.193 257.901 147.164 258.235C145.703 258.357 143.538 258.235 143.739 256.898C143.89 255.712 145.905 255.652 147.466 255.652C149.833 255.652 152.2 255.834 154.568 255.834C156.784 255.834 158.446 255.257 158.748 253.828C159.05 252.308 157.841 251.275 155.524 250.819C154.265 250.576 152.704 250.363 151.445 250.546C142.279 252.035 132.558 251.305 123.392 253.129C115.485 254.71 106.823 253.068 98.865 254.831C98.4621 254.922 97.3038 254.649 97.3542 254.588C97.9082 250.576 92.3681 252.369 89.5981 251.701C79.5757 249.239 68.8985 249.208 58.2717 249.117C56.8616 249.117 55.1996 249.026 54.6959 248.144C52.2785 244.315 46.6881 244.436 41.4502 244.254C38.2773 244.132 35.1547 244.588 34.5 241.701C34.0971 239.938 31.73 240.303 30.1688 241.397C26.9455 243.707 24.3265 243.129 21.4557 241.093C18.5346 239.026 14.7573 238.206 10.275 238.905C6.74948 239.482 3.62692 238.874 0.756175 237.689C-0.150375 237.324 -0.251118 236.564 0.50434 236.078C3.22399 234.437 6.74949 234.589 9.97278 235.045C15.0092 235.744 19.9952 235.409 24.679 234.741C31.9818 233.677 39.4356 235.561 46.2851 234.194C52.7821 232.887 59.2288 232.127 65.9272 231.793C74.9423 231.337 84.1085 230.425 92.9725 230.364C110.6 230.303 127.321 226.686 144.797 226.686C147.164 226.686 149.33 226.747 148.121 224.285C147.517 223.1 151.244 222.218 153.56 222.31C157.035 222.462 160.51 222.583 163.683 223.92C168.72 226.048 179.951 225.926 184.736 223.92C184.333 223.161 183.376 223.252 182.368 223.313C180.555 223.404 178.138 224.711 177.181 223.161C176.375 221.854 179.397 221.428 180.757 220.699C184.433 218.662 184.534 218.723 190.074 218.936C190.175 220.304 186.75 221.428 189.168 222.978C191.535 224.468 194.204 223.799 196.924 223.769C206.392 223.677 215.86 223.677 225.278 223.647C226.638 223.647 228.049 223.677 229.408 223.556C230.718 223.465 232.43 223.434 232.329 222.249C232.229 221.337 230.869 221.215 229.711 221.124C228.099 221.033 226.235 220.912 226.336 219.635C226.386 218.328 228.3 218.055 230.113 217.781C245.525 215.562 260.936 213.556 276.801 212.948C279.571 212.827 282.542 212.553 285.06 213.04C292.917 214.559 296.543 211.246 300.774 208.48C301.227 208.177 301.731 207.569 301.529 207.265C301.076 206.474 299.716 206.383 298.508 206.474C295.385 206.718 292.212 206.961 289.19 207.417C280.931 208.693 272.469 207.629 264.159 208.146C260.684 208.359 257.814 209.362 254.54 209.727C253.382 209.848 251.971 210 251.317 209.271C250.511 208.389 252.022 208.146 252.828 207.69C255.698 206.079 258.116 204.165 262.195 203.557C263.303 203.405 264.411 202.888 264.059 201.976C262.699 198.754 263.001 198.42 268.642 197.083C270.656 196.596 272.621 196.08 275.945 195.259C270.807 194.682 267.131 194.256 263.908 196.11C262.699 196.809 260.735 197.417 259.627 196.87C255.446 194.742 250.662 196.232 246.23 195.745C244.769 195.593 243.409 196.019 243.007 194.499C242.604 193.101 239.884 193.284 237.97 193.284C233.034 193.253 228.099 193.283 223.163 193.435C218.631 193.557 215.306 192.828 214.803 189.758C214.501 187.934 212.889 187.661 210.874 188.664C208.256 189.971 205.435 190.487 202.161 190.639C199.895 190.73 198.737 191.642 198.032 192.888C196.722 195.138 194.355 195.502 190.527 194.834C182.469 193.375 174.209 192.22 166.05 191.004C163.18 190.578 160.057 190.031 157.287 190.822C152.906 192.068 151.143 191.095 150.387 188.238C156.481 189.028 161.568 186.232 167.612 186.87C169.475 187.053 170.734 186.384 169.526 185.077C168.921 184.439 168.266 183.709 169.828 183.314C171.188 182.98 172.145 183.649 172.547 184.317C173.807 186.384 176.123 187.266 179.749 187.205C182.066 187.174 183.426 188.056 182.973 189.575C182.721 190.426 182.117 191.247 183.93 191.703C185.793 192.159 187.757 191.977 188.765 191.034C191.333 188.664 195.06 186.688 193.902 183.162C192.492 178.968 195.312 176.932 202.262 176.263C204.478 176.05 205.989 175.625 206.543 174.257C207.651 171.552 209.766 171.613 212.587 173.467C213.997 174.379 214.803 176.081 217.472 175.685C220.444 175.23 219.688 173.406 220.292 172.099C220.846 170.822 221.652 169.455 223.768 168.908C226.84 168.117 229.408 168.3 229.207 170.883C229.106 172.008 228.754 173.072 231.171 173.436C233.538 173.801 235.301 173.102 235.805 171.856C237.416 168.026 242.201 167.813 246.935 168.543C256.907 170.063 266.728 170.002 276.75 168.817C279.42 168.482 282.341 168.421 285.01 168.756C289.14 169.242 291.255 168.178 291.708 165.99C292.262 163.315 288.536 163.893 285.917 163.741C285.715 162.343 289.694 163.042 288.838 161.644C288.183 160.58 286.068 160.823 284.607 160.793C280.628 160.732 277.758 160.093 275.441 157.784C272.872 155.2 264.562 154.106 259.727 155.139C256.706 155.778 255.598 157.206 255.497 159.03C255.446 159.82 256.152 160.853 254.439 161.218C252.475 161.644 252.425 160.397 251.669 159.79C250.158 158.513 248.446 157.328 245.676 157.084C242.956 156.841 240.488 157.358 240.942 159.242C241.848 163.133 237.92 160.914 236.761 160.306C232.329 157.935 228.804 156.963 225.178 160.944C223.566 162.707 221.854 161.856 220.947 160.124C218.631 155.626 218.53 155.656 211.126 157.419C211.177 156.902 211.227 156.446 211.277 155.99C211.378 155.048 211.831 153.832 209.766 153.62C207.45 153.376 205.737 154.44 205.788 155.686C205.888 157.966 204.327 158.361 201.104 157.905C199.996 157.753 198.586 157.784 197.629 158.087C191.283 160.306 184.635 159.79 177.987 158.999C174.26 158.543 171.188 158.847 167.964 160.185C163.381 162.069 161.266 161.431 159.604 158.148C158.294 155.595 153.762 153.893 149.833 155.291C141.372 158.3 132.659 157.814 123.644 157.084C119.968 156.781 115.989 156.781 112.463 157.328C101.937 158.939 91.663 156.659 81.2881 156.841C80.8348 156.841 80.3816 156.537 79.7772 156.294C81.7918 154.987 84.3603 155.656 86.526 155.261C88.5405 154.896 91.6127 155.352 91.512 153.072C91.4616 152.221 92.8718 151.978 94.0806 151.857C97.8578 151.462 100.678 150.793 98.5629 147.875C97.6563 146.659 99.6206 146.143 101.182 146.021C109.593 145.474 118.003 143.559 126.465 145.9C128.026 146.325 129.033 145.717 130.292 145.383C136.286 143.833 142.228 142.161 149.028 143.802C150.891 144.258 152.906 143.833 154.769 143.316C158.546 142.313 161.065 139.73 166.655 141.067C169.022 141.614 170.482 138.666 172.044 137.207C176.123 133.377 176.476 133.377 180.706 136.842C182.62 138.423 185.944 138.24 188.865 137.967C189.621 137.906 190.124 137.085 189.57 136.812C186.7 135.414 185.34 132.526 181.563 132.344C175.418 132.07 169.274 131.675 162.878 132.435C153.057 133.62 142.833 134.167 133.969 130.004C131.551 128.879 129.134 129.669 126.817 130.399C122.637 131.736 119.565 131.341 118.507 128.241C126.716 127.754 134.221 125.141 142.782 125.384C146.308 125.475 148.423 123.378 150.438 121.828C151.445 121.068 150.589 120.308 149.481 119.639C141.07 114.685 129.637 115.84 124.551 122.253C122.032 124.533 120.773 126.812 117.752 128.453ZM440.735 194.317C444.311 193.04 448.189 192.645 451.866 193.223C461.938 194.773 471.961 191.581 482.034 193.162C483.444 193.375 485.408 192.615 486.919 192.098C489.085 191.399 490.142 190.275 488.631 188.846C487.221 187.57 485.811 186.019 482.588 187.235C479.112 188.542 475.436 188.451 471.709 187.873C469.392 187.509 467.881 187.904 465.816 188.724C461.636 190.427 456.902 191.308 452.621 188.573C451.06 187.57 449.045 187.661 447.131 187.661C443.203 187.691 439.224 187.752 435.296 187.873C421.95 188.269 408.653 189.272 395.156 187.995C384.378 186.992 373.701 188.846 363.276 190.578C361.815 190.822 359.095 191.004 359.649 192.402C360.153 193.587 362.57 193.405 364.283 193.344C374.859 193.132 385.486 192.919 396.062 192.676C398.681 192.615 401.3 192.615 403.516 193.527C406.84 194.894 410.013 194.53 412.834 193.223C416.258 191.642 419.784 191.764 423.511 192.433C426.029 192.858 429 193.648 428.497 195.411C427.943 197.296 424.518 197.204 422.05 196.931C416.158 196.293 410.265 196.384 404.372 196.323C401.25 196.293 398.53 196.84 396.516 198.359C395.962 198.785 396.113 199.332 396.969 199.575C399.789 200.396 402.358 199.636 404.927 199.058C412.38 197.356 412.934 197.508 414.244 202.219C414.647 203.678 415.855 204.377 418.223 204.164C420.036 203.982 422.604 204.104 422.101 202.25C421.144 198.815 425.827 198.329 428.598 198.998C433.684 200.183 439.476 198.846 444.311 201.307C446.426 202.402 451.11 201.733 454.636 201.703C456.247 201.672 457.859 201.156 457.758 199.97C457.708 198.815 457.557 197.569 455.492 196.87C452.47 195.837 449.297 195.381 445.872 195.35C444.361 195.29 442.448 195.928 440.735 194.317ZM852.662 186.232C851.403 187.904 849.64 188.512 846.92 188.421C843.596 188.329 840.222 188.39 836.898 188.451C835.236 188.481 832.818 187.843 832.466 189.302C832.164 190.518 834.279 191.004 836.042 191.247C841.833 192.098 848.733 191.126 852.712 194.955C852.914 195.168 853.82 195.107 854.424 195.138C863.238 195.624 872.153 195.867 880.865 196.627C884.895 196.992 889.024 195.472 892.298 196.384C896.68 197.599 901.011 197.539 905.443 197.843C911.134 198.238 915.365 195.837 915.062 192.402C915.012 191.703 914.458 191.004 915.214 190.335C918.487 187.478 915.314 186.506 911.487 185.898C908.263 185.412 904.99 185.108 901.615 185.746C897.032 186.597 892.6 186.08 888.621 184.621C886.506 183.831 884.341 183.618 881.974 183.375C874.52 182.585 866.612 184.105 859.511 181.703C858.756 181.46 857.396 181.4 856.64 181.643C848.482 184.074 840.272 180.001 831.962 181.825C829.293 182.403 826.17 181.187 829.394 178.755C821.537 179.12 814.637 180.518 807.938 182.828C822.796 183.314 837.25 185.351 852.662 186.232ZM955.152 73.5622C957.771 73.5014 959.181 73.5622 960.491 73.3798C964.268 72.8327 963.966 70.4012 965.88 68.9727C966.585 68.456 965.628 67.7266 964.621 67.6658C958.678 67.2707 952.634 65.6902 947.346 65.5382C942.209 65.3862 936.417 65.3862 930.977 65.5382C916.07 66.0245 901.212 63.8057 886.254 65.2343C884.038 65.447 881.923 65.1431 880.261 64.1097C879.002 63.3195 877.441 63.1979 875.98 63.8362C872.707 65.2039 869.634 64.5352 866.461 63.6234C865.051 63.2283 863.238 62.2861 862.08 62.8635C855.986 65.9029 849.136 64.2617 842.74 64.0185C830.854 63.5626 818.616 65.2646 807.032 62.1949C806.075 61.9517 804.665 62.1037 803.607 62.286C802.247 62.5292 801.039 63.0763 801.19 64.0793C801.341 65.2039 802.952 65.3863 804.262 65.2647C811.917 64.6264 819.321 67.605 827.077 65.8117C828.487 65.4774 829.847 65.8421 830.804 66.5108C834.631 69.307 838.912 68.5472 844.15 67.9393C849.589 67.301 856.288 63.3802 861.425 68.608C861.677 68.8511 862.936 68.8208 863.691 68.7296C871.397 67.8178 878.398 68.8207 884.995 71.313C887.765 72.3768 890.787 72.8631 893.96 71.8905C895.622 71.4042 896.428 71.465 898.14 72.4376C900.759 73.8965 905.443 73.623 907.911 72.3768C910.782 70.9179 910.429 70.1885 912.141 70.5836C919.595 72.316 927.2 72.0425 934.906 71.6474C942.259 71.313 949.209 72.7415 955.152 73.5622ZM653.825 174.287C657.149 174.409 659.566 175.108 660.322 177.205C660.473 177.6 661.329 177.904 661.934 178.208C666.265 180.397 683.691 181.582 688.626 180.032C689.382 179.789 690.087 179.485 689.734 178.968C689.483 178.573 688.878 178.117 688.274 177.935C686.561 177.418 684.849 177.722 683.086 178.026C680.82 178.391 678.503 178.877 676.187 178.907C672.057 178.998 671.452 176.597 671.301 175.138C671.15 173.406 674.323 174.196 675.985 174.348C683.54 175.017 691.195 172.129 698.75 174.561C699.304 174.743 700.563 174.561 700.966 174.287C703.182 172.859 705.498 173.801 707.916 173.862C710.736 173.923 714.312 175.26 716.276 173.497C719.6 170.519 721.967 170.701 724.788 173.619C725.493 174.348 726.903 174.743 728.364 174.105C729.119 173.771 729.069 173.284 728.464 172.889C727.608 172.342 725.493 171.886 727.507 171.035C729.119 170.367 730.68 169.06 733.249 169.88C737.278 171.157 741.357 170.458 745.386 169.911C747.552 169.637 748.157 168.604 745.941 168.057C740.501 166.719 735.717 164.409 729.623 164.105C725.996 163.923 723.075 164.561 722.723 166.932C722.169 170.762 717.938 168.968 715.37 168.604C713.003 168.269 707.765 168.087 712.046 165.108C712.902 164.501 712.398 164.136 711.492 163.68C706.203 161.036 691.396 161.096 685.806 163.893C682.432 165.564 679.259 165.838 676.992 163.346C675.431 161.583 674.122 161.461 672.46 163.011C671.301 164.075 668.582 163.65 667.977 164.926C671.251 167.631 674.676 169.516 680.064 166.811C681.072 166.324 682.935 166.355 683.59 167.358C684.295 168.452 682.633 168.725 681.424 169.12C679.662 169.667 676.489 169.12 676.287 170.944C675.683 175.534 670.546 171.947 667.776 172.677C664.049 173.649 666.466 170.914 664.603 170.215C662.185 172.646 657.854 172.95 653.825 174.287ZM475.587 208.207C476.191 208.237 476.745 208.268 477.35 208.298C480.926 208.48 483.444 207.447 483.444 205.38C483.444 202.918 479.717 203.982 477.501 203.739C476.746 203.648 475.94 203.739 475.134 203.8C459.672 205.076 444.311 206.353 428.598 206.049C421.144 205.927 413.841 207.721 406.236 206.961C405.329 206.87 403.919 206.87 404.221 207.781C405.279 211.034 400.897 210.669 398.278 210.76C391.882 210.973 385.385 210.699 378.939 210.73C375.01 210.76 371.082 210.973 367.204 211.216C366.549 211.246 365.592 211.641 365.441 211.976C365.139 212.766 366.297 212.918 367.305 212.979C368.262 213.04 369.269 213.009 370.276 212.979C382.263 212.584 394.652 212.158 405.682 214.894C411.323 216.261 416.057 215.532 421.144 215.805C424.568 215.988 427.892 215.684 430.411 214.042C431.569 213.313 433.03 212.948 434.641 212.979C444.915 213.131 454.787 210.426 465.212 211.368C467.126 211.55 469.493 211.459 470.047 209.97C470.853 207.933 473.119 208.055 475.587 208.207ZM515.223 167.084C514.015 168.33 509.835 167.418 510.691 169.364C511.295 170.731 514.166 169.941 515.979 170.063C518.799 170.215 521.368 170.701 523.584 171.825C524.642 172.373 526.404 173.193 527.16 172.646C530.534 170.275 534.563 170.914 538.693 171.309C539.046 171.339 539.449 171.187 539.801 171.096C548.816 168.33 558.184 168.573 567.652 170.093C568.962 170.306 570.372 170.549 571.681 170.549C573.243 170.549 574.351 170.063 573.646 168.938C571.782 166.051 555.817 161.036 550.478 161.856C545.593 162.586 540.708 162.16 535.822 162.343C528.62 162.586 520.612 158.878 514.166 163.741C513.41 164.318 510.64 163.801 510.54 165.078C510.489 166.689 513.713 166.081 515.223 167.084ZM499.157 187.904C503.589 188.208 500.416 192.007 505.151 192.068C508.727 192.129 512.504 191.429 515.727 192.797C515.375 194.043 512.756 193.071 512.756 194.53C514.367 194.773 515.979 195.016 517.641 195.259C509.633 195.472 502.129 197.113 494.423 198.086C492.459 198.329 490.495 198.481 488.631 197.903C482.386 195.928 475.839 197.66 469.443 197.417C467.579 197.356 466.522 198.542 465.464 199.393C463.852 200.669 464.507 201.611 467.076 201.338C473.371 200.669 479.666 201.429 486.012 201.186C494.373 200.882 502.431 199.089 511.094 200.213C515.777 200.821 520.965 200.335 525.8 199.818C527.764 199.605 534.714 199.362 528.066 196.414C526.303 195.624 525.85 194.378 526.858 193.192C527.814 192.037 529.124 190.518 531.541 190.852C535.52 191.399 538.391 190.062 541.564 189.241C542.924 188.876 544.988 188.633 544.283 187.326C543.629 186.171 541.664 186.445 540.154 186.475C536.225 186.567 532.347 187.114 528.368 186.87C524.39 186.597 520.361 186.414 518.396 189.363C517.842 190.183 516.382 190.518 514.871 190.214C513.41 189.91 513.31 189.332 514.166 188.542C515.173 187.63 514.115 187.083 512.806 187.205C508.424 187.478 503.841 186.749 499.157 187.904ZM601.195 160.489C598.223 160.489 595.201 160.185 592.381 160.549C588.503 161.036 584.826 162.555 585.934 165.2C586.942 167.631 590.769 166.294 593.489 166.02C596.461 165.716 599.885 165.108 600.943 167.479C602.353 170.671 605.979 170.306 609.756 169.941C613.433 169.607 617.11 168.695 620.736 170.002C623.808 171.126 626.427 170.701 628.643 169.212C630.657 167.844 633.427 166.78 635.845 167.844C639.421 169.394 641.083 167.813 641.586 166.598C642.795 163.923 644.86 162.798 649.443 163.346C650.501 163.467 652.113 163.406 652.012 162.403C651.911 161.522 650.4 161.431 649.292 161.34C643.198 160.914 637.104 160.519 631.614 162.799C628.693 163.984 625.017 164.288 622.65 163.194C616.052 160.215 608.397 161.096 601.195 160.489ZM575.257 45.5391C581.351 46.2685 585.783 45.5694 589.46 43.4419C591.575 42.2261 591.777 40.9496 588.604 40.6456C583.416 40.1897 578.178 39.3387 572.789 40.0074C561.558 41.3751 550.478 44.8096 538.693 41.3447C538.089 41.1623 537.132 41.4663 536.376 41.4055C530.685 41.0104 526.455 43.4419 521.317 44.2017C519.202 44.5057 519.706 45.539 521.066 45.9949C523.735 46.8764 525.901 48.4265 529.376 48.3353C535.369 48.1833 541.111 48.3049 547.356 47.5146C556.572 46.3293 566.645 46.1773 575.257 45.5391ZM931.28 43.2595C935.107 44.9616 935.46 48.4569 942.108 49.0648C947.698 49.5814 952.584 49.4599 958.073 48.5481C952.231 48.8216 952.483 45.6303 949.31 43.8978C953.792 43.2899 956.462 45.0527 959.735 45.2047C962.052 45.2959 965.729 45.5087 965.175 43.7458C964.369 41.1927 967.743 36.5425 958.224 36.9984C956.915 37.0592 955.555 36.0258 954.145 35.6611C949.008 34.3845 943.72 33.8982 938.935 35.9346C936.669 36.8768 933.999 37.2111 931.28 37.8798C932.69 38.974 935.208 38.4573 935.208 40.828C935.158 43.4419 931.582 42.0438 931.28 43.2595ZM784.519 40.6456C789.807 41.7094 794.995 41.7398 799.326 43.8066C800.938 44.5968 803.758 44.7792 805.571 44.1105C809.953 42.5605 814.889 42.2565 819.573 41.4055C821.537 41.0712 823.3 40.5848 824.206 39.3995C825.868 37.3023 829.091 36.8464 832.415 36.3905C834.732 36.0866 838.56 36.4513 838.459 34.4453C838.358 32.5305 834.833 34.0198 833.07 33.5031C832.717 33.4119 832.315 33.3815 831.912 33.3207C819.673 30.95 807.435 33.0168 795.247 33.5335C794.089 33.5943 792.779 33.8982 792.93 34.81C793.031 35.6611 794.29 35.8738 795.448 36.0258C798.722 36.4209 802.046 36.7856 805.37 36.1777C807.586 35.7522 809.852 35.4179 812.471 37.0896C802.751 38.3053 793.635 39.4603 784.519 40.6456ZM882.376 52.1953C883.333 52.4385 883.938 52.712 884.643 52.7728C894.01 53.8974 903.277 52.8639 912.595 52.4992C913.401 52.4688 914.206 52.2865 914.307 51.7394C914.508 50.9491 913.501 50.5844 912.494 50.6452C904.99 51.2227 904.536 48.2137 905.04 45.0832C905.493 42.2869 903.479 42.1045 899.55 42.1653C894.867 42.2261 890.183 43.1379 885.348 41.2231C882.074 39.9466 877.995 41.5271 875.527 43.3507C872.757 45.3871 877.34 45.3567 878.246 46.3901C878.398 46.6028 878.7 46.8764 878.599 47.0284C877.189 49.5207 880.261 48.9432 882.024 48.6696C886.657 47.9706 890.737 48.7304 895.521 49.7942C891.492 52.1649 886.053 49.8246 882.376 52.1953ZM215.709 148.513C213.393 147.085 210.925 147.298 208.457 147.115C200.902 146.538 191.434 148.696 188.16 141.766C187.405 140.155 185.743 141.462 184.433 142.313C180.908 144.623 177.534 147.328 171.641 147.389C169.173 147.419 166.907 147.632 167.058 149.304C167.259 151.401 169.878 150.185 171.591 150.124C175.821 149.972 177.332 151.097 175.67 153.224C173.051 156.477 173.404 156.993 179.397 157.48C182.872 157.753 187.002 158.361 189.067 156.142C191.283 153.802 186.297 153.559 184.836 152.252C184.333 151.796 183.174 151.553 183.678 150.854C184.131 150.215 185.189 150.276 186.196 150.215C192.844 149.911 199.543 149.608 206.14 149.182C209.162 148.969 212.335 149.638 215.709 148.513ZM637.708 44.2625C634.536 43.2899 632.269 43.0163 629.952 43.0467C621.491 43.1987 619.326 42.2261 618.268 37.1199C617.966 35.661 616.707 35.9042 615.498 36.2385C610.059 37.8494 604.569 39.4299 599.382 41.3143C596.964 42.1957 595.906 43.2595 600.087 44.4449C606.735 46.2989 613.836 46.2989 620.685 46.9676C625.974 47.5147 631.917 46.846 637.708 44.2625ZM966.182 61.0703C963.865 62.0125 962.052 62.6812 960.39 63.4714C959.534 63.8969 958.476 64.9303 960.138 65.1431C963.311 65.5382 966.736 65.9029 969.808 64.6568C972.377 63.6234 972.175 62.438 970.463 61.0399C969.355 60.1281 969.657 59.0035 970.11 57.9397C970.463 57.0887 970.614 56.1161 969.103 55.7514C962.556 54.1709 956.008 52.1041 948.655 53.5022C942.863 54.5964 945.785 57.4838 946.339 59.5506C946.893 61.8302 950.267 61.435 952.382 60.6448C957.116 58.882 961.347 59.5506 966.182 61.0703ZM402.962 159.972C396.919 158.239 393.695 162.373 388.558 163.68C387.501 163.954 387.501 164.683 388.206 165.2C390.522 166.841 392.839 168.665 397.07 167.631C404.826 165.716 412.934 165.017 421.144 164.622C422.302 164.561 423.813 164.744 424.165 163.893C424.568 162.829 422.806 162.647 421.647 162.221C416.258 160.215 410.215 159.85 402.962 159.972ZM622.347 62.9243C600.54 61.7694 578.581 62.5292 556.623 63.9577C557.277 64.5656 558.033 64.8391 558.688 64.7784C566.897 64.0185 575.005 65.447 583.366 65.1735C588.956 64.9911 594.345 63.5626 599.835 64.1705C607.641 65.0519 615.347 66.1461 622.347 62.9243ZM307.623 54.3837C307.724 54.7484 307.875 55.1435 307.976 55.5082C310.494 55.5082 313.012 55.4778 315.531 55.5082C318.552 55.569 320.214 57.1495 322.733 57.8181C329.683 59.733 335.475 58.3349 337.741 53.9885C338.547 52.4081 337.288 50.7668 335.374 49.9158C333.511 49.0951 332.503 50.6148 331.446 51.4355C328.827 53.4111 325.553 53.8974 321.474 53.2287C316.538 52.4081 312.005 53.4111 307.623 54.3837ZM499.56 203.891C493.869 203.526 490.898 204.894 488.279 206.535C487.02 207.325 484.099 208.055 485.358 209.24C486.768 210.578 490.142 210.213 491.804 209.453C495.984 207.477 500.668 207.842 505.302 207.781C508.424 207.721 511.597 207.69 514.72 207.569C515.878 207.508 517.188 207.295 517.238 206.383C517.288 205.471 516.029 205.228 514.871 205.107C509.331 204.499 503.539 204.681 499.56 203.891ZM465.968 164.531C469.342 164.744 470.954 167.935 475.134 166.233C478.206 164.987 480.825 164.835 483.444 166.628C484.451 167.327 485.912 167.297 487.221 166.78C488.531 166.263 489.236 165.595 488.178 164.683C485.811 162.586 488.379 162.312 490.898 161.978C492.106 161.826 493.869 162.039 493.819 160.762C482.991 157.51 475.335 163.102 465.968 164.531ZM857.295 38.2141C850.194 37.1807 844.755 40.0681 838.459 40.0681C837.25 40.0681 837.049 40.8888 837.552 41.4663C838.812 42.7732 839.869 44.2929 843.193 44.0802C846.265 43.8978 848.935 44.3537 851.201 45.7518C852.913 46.8156 853.266 46.6332 854.928 45.1135C857.597 42.682 854.626 40.2505 857.295 38.2141ZM574.754 190.366C573.948 189.302 570.271 189.18 572.739 187.144C573.897 186.202 569.818 185.32 567.803 184.804C565.436 184.226 564.832 185.108 565.033 186.506C565.184 187.6 563.623 188.147 562.062 188.421C560.853 188.633 559.443 188.481 559.292 187.63C558.889 185.29 556.371 185.867 554.104 186.171C552.745 186.354 551.133 186.81 551.737 187.813C552.543 189.241 553.55 190.913 556.522 191.034C562.465 191.308 568.559 191.825 574.754 190.366ZM780.541 45.1439C780.087 44.8096 779.684 44.4145 779.13 44.1409C775.202 42.1957 762.359 41.983 758.129 43.837C756.718 44.4753 755.157 45.2351 756.013 46.4813C756.718 47.545 758.582 47.6362 760.093 47.3931C764.827 46.5724 769.158 46.846 773.842 47.9098C777.065 48.7 779.08 47.0283 780.541 45.1439ZM673.618 43.8978C678.402 45.7822 683.64 45.5694 688.878 45.2959C691.044 45.1743 692.504 44.3233 692.907 43.0467C693.361 41.7094 694.569 39.9162 691.145 39.5515C686.763 39.0652 681.122 38.0926 678.403 40.2201C676.942 41.3143 674.424 42.2261 673.618 43.8978ZM398.43 52.2561C400.998 52.8336 402.962 52.5297 404.675 51.4963C405.38 51.0708 405.984 50.554 405.48 49.9158C405.027 49.3079 403.819 49.004 403.013 49.2471C397.322 51.0099 391.53 49.6726 385.788 49.6422C382.716 49.6118 379.593 50.1285 376.521 50.4628C375.212 50.6148 374.456 51.1923 374.557 51.9825C374.607 52.6512 375.615 53.1983 376.521 53.0767C382.011 52.2257 387.501 55.0219 393.041 53.0463C394.602 52.4689 396.768 52.4689 398.43 52.2561ZM748.559 62.9851C740.854 63.3803 733.299 62.4077 725.745 62.5596C719.651 62.6812 713.557 63.0155 707.513 63.3802C706.153 63.4714 703.685 63.3195 704.038 64.6872C704.39 66.0549 706.707 65.751 708.47 65.6902C711.592 65.5686 714.513 63.8969 717.586 64.7176C722.169 65.9333 726.45 65.3254 730.781 64.5352C733.249 64.0793 735.868 63.745 738.285 64.444C742.365 65.6598 745.437 64.5656 748.559 62.9851ZM518.145 208.906C521.066 210.365 524.037 209.879 526.908 209.757C528.469 209.696 530.081 209.362 531.592 209.514C540.557 210.517 549.521 209.423 558.486 209.453C559.947 209.453 562.364 209.575 562.163 208.329C561.911 206.87 559.393 207.386 557.781 207.447C554.86 207.599 551.536 208.572 549.068 208.025C540.657 206.14 532.347 208.389 524.037 207.781C522.274 207.69 520.109 207.629 518.145 208.906ZM990.558 41.6486C986.529 40.8888 984.665 41.4663 984.766 43.1075C984.867 44.3841 986.529 46.0861 988.846 45.4479C992.472 44.5057 996.451 44.2929 999.976 43.3203C1002.7 42.5909 1002.19 41.1927 1001.49 39.977C1000.33 38.0622 997.911 37.1503 994.537 37.5455C992.371 37.7886 991.062 38.3661 992.069 40.0378C993.227 41.8006 991.112 41.7094 990.558 41.6486ZM896.277 80.4312C904.738 80.4312 912.494 80.4312 920.502 80.4312C916.322 76.8447 917.027 76.1153 926.344 74.6564C920.955 73.9573 914.76 73.2886 913.048 75.5378C910.328 79.1546 906.198 78.2124 902.069 78.4556C900.155 78.5772 898.09 78.486 896.277 80.4312ZM371.586 69.307C371.636 69.6717 371.686 70.0669 371.737 70.4316C372.24 70.5836 372.845 70.9179 373.248 70.8571C381.658 69.7934 390.472 72.4376 398.782 69.763C400.696 69.1551 403.365 69.3374 405.732 69.2463C411.978 69.0031 418.273 68.8511 424.367 67.6961C406.639 67.3314 389.213 69.3678 371.586 69.307ZM679.057 11.9235C678.554 10.9813 677.043 10.9205 675.834 10.5861C670.848 9.2488 666.265 11.5587 661.329 11.194C659.919 11.0724 657.955 11.194 657.401 12.349C656.847 13.4736 658.61 14.0206 659.566 14.7197C661.128 15.9051 663.243 16.1786 665.409 15.5099C669.085 14.355 672.863 13.352 677.043 12.9872C677.949 12.8656 678.957 12.6833 679.057 11.9235ZM342.576 197.751C339.353 197.569 336.633 197.174 333.913 197.812C332.302 198.207 330.187 198.298 330.489 199.788C330.741 200.973 332.302 201.611 334.115 201.885C337.086 202.341 340.158 202.25 342.828 201.49C345.145 200.821 349.979 201.459 349.123 198.754C348.368 196.201 344.49 198.147 342.576 197.751ZM597.417 205.016C606.08 208.724 615.095 207.629 624.06 206.231C626.125 205.897 625.571 204.955 624.06 204.468C622.851 204.104 621.441 203.921 620.081 203.8C612.375 203.101 605.425 206.809 597.417 205.016ZM549.32 39.5818C559.191 39.9466 568.307 37.6367 577.775 36.7249C580.696 36.4513 579.437 35.2963 577.675 34.5972C574.401 33.2903 571.581 34.6581 568.76 35.2052C562.163 36.4209 555.363 37.3023 549.32 39.5818ZM381.306 219.118C371.233 217.355 361.362 218.906 351.44 219.848C361.513 221.793 371.435 220.76 381.306 219.118Z" fill="#E6BEBE"/>
<path d="M149.227 200.489C147.716 201.887 145.702 201.431 144.14 201.765C142.176 202.16 140.061 202.616 140.816 204.166C141.471 205.503 144.342 206.202 145.55 205.473C150.688 202.343 158.796 203.953 163.933 200.762C167.106 198.817 169.775 199.668 170.682 202.1C171.286 203.771 173.905 203.801 176.373 203.893C183.978 204.227 191.835 203.194 199.238 205.108C201.454 205.686 203.872 205.686 206.189 205.108C210.872 203.893 215.355 205.017 221.096 205.26C216.715 207.661 213.491 209.454 208.304 207.904C207.297 207.6 205.886 207.448 204.879 207.631C187.403 211.035 169.171 208.269 151.544 210.244C143.385 207.357 135.578 210.275 127.571 210.67C123.894 210.852 119.563 211.582 117.951 208.178C117.397 207.053 114.274 206.901 113.519 207.874C110.699 211.49 104.605 210.427 100.122 211.46C96.5967 212.25 92.3158 211.916 88.3874 212.007C87.078 212.038 85.1641 212.068 85.1641 210.943C85.1641 209.576 87.078 209.728 88.6896 209.789C94.8844 209.971 100.525 208.147 106.619 207.935C107.576 207.904 108.684 207.722 108.936 207.023C109.238 206.172 108.331 205.564 107.173 205.412C103.899 205.047 102.389 203.315 103.899 202.221C105.461 201.097 109.389 201.34 111.605 202.312C120.52 206.263 128.88 205.26 137.341 201.856C140.766 200.458 144.745 200.185 149.227 200.489Z" fill="#E6BEBE"/>
<path d="M943.219 115.598C951.429 113.896 956.868 114.99 961.602 119.276C963.768 121.221 968.754 121.129 971.121 119.063C974.596 116.084 983.964 114.565 989.604 116.054C991.518 116.571 992.777 117.543 992.022 118.516C991.266 119.488 989.151 119.032 987.791 118.546C986.28 118.03 985.072 117.148 983.51 116.692C981.546 116.115 980.237 116.631 979.431 117.908C978.675 119.124 978.575 120.066 980.942 120.37C986.029 120.977 989.353 123.409 993.835 124.624C995.044 124.959 996.756 125.141 996.303 126.266C995.9 127.268 994.188 127.177 992.878 127.36C988.043 128.089 983.108 127.816 978.273 128.089C967.444 128.727 956.717 129.365 945.838 129.153C939.341 129.031 932.995 128.271 926.549 127.907C919.246 127.451 912.044 127.512 904.792 127.724C902.727 127.785 899.503 128.423 899.101 126.934C898.547 125.141 902.122 125.08 904.238 124.837C907.864 124.381 911.591 124.047 914.965 125.688C918.239 127.268 921.361 125.384 924.534 125.202C927.405 125.05 932.139 126.843 931.484 122.74C931.384 122.072 933.801 122.102 935.161 122.132C939.492 122.163 943.824 122.345 948.155 122.315C950.572 122.284 953.594 122.649 954.098 120.37C954.601 118.151 951.831 118.333 949.565 117.999C947.097 117.604 944.932 116.844 943.219 115.598Z" fill="#E6BEBE"/>
<path d="M943.969 140.853C947.696 140.64 950.768 139.485 954.243 139.272C958.876 138.969 962.352 138.026 961.445 134.592C961.244 133.802 961.646 133.164 963.157 133.042C964.517 132.951 965.222 133.437 965.726 134.167C968.597 138.118 971.82 138.969 978.518 137.145C982.497 136.081 985.871 135.382 988.642 138.178C989.397 138.938 990.908 139.06 992.268 139.181C993.98 139.364 996.095 139.333 996.448 140.67C996.8 142.068 994.484 142.342 993.124 142.889C985.569 145.807 977.058 145.715 968.697 145.26C960.136 144.834 953.185 140.762 943.969 140.853Z" fill="#E6BEBE"/>
<path d="M57.8179 160.425C48.0473 160.79 38.2767 159.452 28.5565 160.85C27.0456 161.063 25.0814 161.215 24.88 159.878C24.7289 158.784 26.5419 158.632 27.9017 158.662C33.5425 158.753 38.7803 157.598 44.0685 156.687C45.5794 156.413 47.5941 156.231 48.2992 155.593C52.4794 151.946 57.3142 153.344 62.3506 154.559C64.3148 155.046 66.4805 155.289 68.6461 155.501C70.7614 155.714 71.8694 156.322 71.9197 157.598C71.9701 158.814 70.6104 159.209 68.898 159.392C65.2215 159.695 61.4945 160.06 57.8179 160.425Z" fill="#E6BEBE"/>
<path d="M185.037 68.9416L185.238 68.8201C182.921 68.9416 180.504 68.7897 178.288 69.4887C175.82 70.2788 172.798 69.823 171.69 68.9112C167.309 65.1731 162.877 67.3005 158.596 68.6377C156.783 69.2152 155.272 70.1269 153.408 69.0632C152.048 68.273 150.084 67.4524 150.84 66.0848C151.595 64.6868 154.063 65.0819 155.876 64.7476C161.466 63.7143 167.46 64.1398 173.05 63.0153C176.727 62.2555 180.252 63.8359 183.677 64.3829C186.094 64.778 185.087 67.3309 185.037 68.9416Z" fill="#E6BEBE"/>
<path d="M278.766 250.788C288.587 248.782 299.214 250.788 309.085 248.6C313.013 247.718 316.841 248.6 320.568 249.39C321.374 249.572 321.525 250.21 320.92 250.606C318.1 252.277 314.172 252.459 310.898 252.156C299.465 251.122 288.536 253.614 277.355 253.584C274.988 253.584 270.456 254.253 270.556 252.125C270.657 250.271 274.988 250.879 277.607 250.788C277.96 250.758 278.363 250.788 278.766 250.788Z" fill="#E6BEBE"/>
<path d="M21.8086 151.948C22.5641 149.973 23.7224 147.997 27.9026 147.481C30.4208 147.177 32.9893 147.086 35.4572 146.69C40.9972 145.748 41.7024 148.362 42.76 150.368C43.9687 152.647 40.2921 152.647 38.1769 153.225C35.709 153.893 32.7375 153.772 30.5719 154.957C28.9099 155.869 27.0464 156.628 24.7297 155.838C22.413 155.048 22.1611 153.559 21.8086 151.948Z" fill="#E6BEBE"/>
<path d="M974.188 14.9313C973.03 13.746 972.526 12.5912 971.217 12.0137C969.504 11.2539 968.85 11.102 970.361 9.73437C972.979 7.36385 970.763 5.96586 966.533 5.66195C961.597 5.32764 956.662 5.08449 951.172 4.78057C953.136 3.47375 955 3.86884 956.662 3.83845C963.712 3.74728 970.814 4.4463 977.563 2.53165C978.872 2.16695 980.786 2.16694 982.146 2.47085C987.283 3.53455 992.37 4.17274 997.758 3.44335C998.816 3.29139 1000.53 3.10906 1000.63 4.08159C1000.83 5.32763 998.816 5.29726 997.658 5.1453C991.916 4.29434 986.376 4.93252 980.685 5.47956C976.857 5.84426 974.994 6.54328 975.901 9.15693C976.606 10.95 976.606 12.9254 974.188 14.9313Z" fill="#E6BEBE"/>
<path d="M147.713 66.5106C144.339 69.1243 144.792 71.2213 151.591 72.6193C143.986 73.683 138.446 76.0839 131.798 74.4427C128.927 73.7437 126.913 72.8016 130.942 71.3732C132.402 70.8566 133.863 70.188 133.46 69.1851C131.798 64.9303 136.935 65.9636 140.41 65.9332C142.727 65.8724 144.993 66.2675 147.713 66.5106Z" fill="#E6BEBE"/>
<path d="M991.718 187.113C989.149 185.107 986.732 183.131 988.545 180.335C989.351 179.028 987.739 177.843 987.185 176.597C986.631 175.351 986.984 174.166 988.797 173.436C990.61 172.677 992.121 173.467 993.581 174.105C996.905 175.594 1000.58 184.59 998.467 186.687C996.603 188.602 993.934 187.204 991.567 187.082L991.718 187.113Z" fill="#E6BEBE"/>
<path d="M991.564 187.023C994.435 189.819 997.205 192.372 994.435 196.141C992.823 198.329 990.708 199.423 987.485 200.122C987.686 201.338 990.557 201.55 989.701 203.131C985.269 202.979 982.146 200.973 978.167 200.153C977.11 199.94 977.009 199.241 977.462 198.633C978.016 197.873 979.225 197.448 980.333 197.812C983.909 198.967 984.413 197.478 984.765 195.989C985.369 193.436 990.456 191.734 988.291 188.573C987.686 187.692 990.154 187.267 991.715 187.084C991.715 187.115 991.564 187.023 991.564 187.023Z" fill="#E6BEBE"/>
<path d="M128.732 224.682C124.401 223.891 120.12 225.229 115.788 224.773C114.529 224.621 112.615 224.925 112.263 223.892C111.91 222.797 113.572 222.19 114.932 221.795C116.292 221.399 118.004 220.944 119.415 221.095C127.322 221.794 135.078 220.64 142.884 220.488C144.445 220.457 146.51 220.275 147.064 221.339C147.719 222.585 145.302 222.645 144.093 223.132C139.409 225.016 134.02 224.742 128.732 224.682Z" fill="#E6BEBE"/>
<path d="M994.284 16.1152C989.651 16.0241 987.485 13.8663 985.068 12.0124C983.91 11.1311 985.471 10.4929 986.377 9.91543C987.485 9.21643 989.198 8.09195 990.255 8.73017C993.428 10.6144 998.968 7.24099 1001.23 10.7664C1001.74 11.5262 1002.19 12.1036 1001.13 12.5899C998.767 13.7448 998.263 16.2064 994.284 16.1152Z" fill="#E6BEBE"/>
<path d="M176.675 53.1969C174.409 53.1057 173.15 53.2273 172.596 52.346C172.193 51.6774 172.898 51.2822 173.452 50.796C177.078 47.6657 182.87 47.1794 188.309 46.3892C189.87 46.1461 191.381 46.7539 191.935 47.8176C192.389 48.7598 191.532 49.398 190.324 49.9147C185.992 51.8293 180.301 51.6774 176.675 53.1969Z" fill="#E6BEBE"/>
<path d="M139.659 53.5312C142.731 53.6832 143.94 54.6861 142.58 55.9321C139.76 58.5154 136.385 60.7948 130.694 61.1595C127.773 61.3418 126.715 60.2173 126.01 59.0321C125.154 57.5733 127.521 57.7252 128.881 57.4213C132.91 56.4488 136.486 55.0204 139.659 53.5312Z" fill="#E6BEBE"/>
<path d="M386.188 247.902C394.8 248.114 403.311 247.932 411.722 246.595C413.384 246.321 415.55 246.504 415.701 247.993C415.852 249.573 413.837 249.998 411.772 250.059C403.11 250.394 394.498 250.394 386.188 247.902Z" fill="#E6BEBE"/>
<path d="M97.7557 128.664C93.8777 128.572 90.6041 128.238 87.9349 126.87C87.129 126.445 87.3807 125.472 88.2873 125.351C92.2157 124.804 95.6908 123.071 99.9718 123.558C101.08 123.679 102.087 124.196 103.195 124.409C107.829 125.351 105.562 126.688 103.396 127.569C101.734 128.268 99.3674 128.39 97.7557 128.664Z" fill="#E6BEBE"/>
<path d="M878.498 187.6C883.987 187.6 889.527 187.569 895.017 187.63C897.283 187.66 899.751 187.964 899.55 189.697C899.399 191.095 897.888 192.067 895.168 192.006C894.01 191.976 892.448 191.915 891.794 192.31C888.016 194.529 885.851 193.951 884.239 191.125C882.879 188.694 879.606 190.061 877.138 190.061C875.325 190.061 872.857 191.794 872.152 189.423C871.547 187.387 874.267 187.205 876.735 187.053C877.339 187.022 877.893 187.053 878.498 187.053C878.498 187.235 878.498 187.417 878.498 187.6Z" fill="#E6BEBE"/>
</svg>
