<svg width="30" height="30" viewBox="0 0 30 30" fill="none" xmlns="http://www.w3.org/2000/svg">
<path d="M28.3854 6.89648C28.5781 6.16406 28.3854 5.625 27.4583 5.625H24.3906C23.6094 5.625 23.25 6.08789 23.0573 6.60352C23.0573 6.60352 21.4948 10.8867 19.2865 13.6641C18.5729 14.4668 18.2448 14.7246 17.8542 14.7246C17.6615 14.7246 17.3646 14.4668 17.3646 13.7344V6.89648C17.3646 6.01758 17.1458 5.625 16.5 5.625H11.6771C11.1875 5.625 10.8958 6.03516 10.8958 6.41602C10.8958 7.24805 12 7.44141 12.1146 9.78516V14.8711C12.1146 15.9844 11.9375 16.1895 11.5469 16.1895C10.5052 16.1895 7.97396 11.8887 6.47396 6.9668C6.17188 6.01172 5.875 5.625 5.08854 5.625H2.02083C1.14583 5.625 0.96875 6.08789 0.96875 6.60352C0.96875 7.51758 2.01042 12.0586 5.81771 18.0586C8.35417 22.1543 11.9271 24.375 15.1771 24.375C17.1302 24.375 17.3698 23.8828 17.3698 23.0332C17.3698 19.1191 17.1927 18.75 18.1719 18.75C18.625 18.75 19.4062 19.0078 21.2292 20.9824C23.3125 23.3262 23.6563 24.375 24.8229 24.375H27.8906C28.7656 24.375 29.2083 23.8828 28.9531 22.9102C28.3698 20.8652 24.4271 16.6582 24.25 16.377C23.7969 15.7207 23.9271 15.4277 24.25 14.8418C24.2552 14.8359 28 8.90625 28.3854 6.89648Z" fill="#503131"/>
</svg>
