<svg width="21" height="23" viewBox="0 0 21 23" fill="none" xmlns="http://www.w3.org/2000/svg">
<path d="M8.23093 1.01524C8.06022 1.05117 7.70983 1.18145 7.45378 1.30723C7.06296 1.4959 6.93718 1.58574 6.62272 1.9002C6.42058 2.10235 6.178 2.39883 6.08366 2.56055C5.89948 2.87949 5.7153 3.41406 5.66589 3.76446L5.63893 3.98457L4.75397 4.21817C3.73874 4.4877 3.32995 4.66739 2.96159 5.0043C2.68757 5.26035 2.41354 5.68262 2.30124 6.01953C2.2653 6.13184 1.73972 9.0293 1.13327 12.4658C-0.0751276 19.285 -0.0481745 19.0873 0.176435 19.541L0.293232 19.7791L0.162958 20.5248C0.0865911 20.9336 0.0326849 21.3154 0.0416693 21.3738C0.0686224 21.585 0.221357 21.6344 1.46569 21.8545C2.12155 21.9668 2.70104 22.0521 2.75944 22.0342C2.81335 22.0207 2.88073 21.9713 2.90769 21.9219C2.93464 21.868 3.0155 21.4861 3.09186 21.0684L3.22663 20.3092L3.44675 20.0801C3.58151 19.9408 3.69831 19.7656 3.75222 19.6219C3.80163 19.4916 3.96784 18.6471 4.12507 17.7486L4.41257 16.118L4.43503 17.8834C4.453 19.4467 4.46647 19.6713 4.53386 19.7926C4.63718 19.9857 4.8528 20.1924 5.01901 20.2688L5.15378 20.3271V21.0953C5.15378 21.8365 5.15827 21.8635 5.2571 21.9578L5.36042 22.0566H10.5085H15.661L15.7508 21.9398C15.8362 21.8275 15.8452 21.7602 15.8452 21.0684C15.8452 20.3182 15.8452 20.3137 15.9485 20.2867C16.0788 20.2553 16.3573 19.9902 16.4606 19.7971C16.5325 19.6713 16.546 19.4602 16.5639 17.8834L16.5864 16.118L16.8739 17.7486C17.0311 18.6471 17.1973 19.4916 17.2467 19.6219C17.3007 19.7656 17.4174 19.9408 17.5522 20.0801L17.7723 20.3092L17.9071 21.0684C18.0553 21.8949 18.0868 21.9982 18.2395 22.0342C18.2934 22.0521 18.8774 21.9668 19.5288 21.8545C20.7776 21.6389 20.9303 21.585 20.9573 21.3738C20.9663 21.3154 20.9124 20.9336 20.836 20.5248L20.7057 19.7791L20.818 19.5455C21.0471 19.0828 21.0786 19.3119 19.8657 12.4658C19.2592 9.0293 18.7337 6.13184 18.6977 6.01953C18.5854 5.68262 18.3114 5.26035 18.0374 5.0043C17.6645 4.66289 17.2602 4.48321 16.245 4.21817L15.36 3.98457L15.3331 3.76446C15.2837 3.41406 15.0995 2.87949 14.9153 2.56055C14.821 2.39883 14.5919 2.11582 14.4077 1.92715C13.9225 1.442 13.3925 1.1545 12.7231 1.01074C12.2694 0.916409 8.69362 0.9209 8.23093 1.01524ZM12.5749 1.62168C12.7051 1.64864 12.8309 1.68907 12.8489 1.70703C12.8848 1.73848 12.7231 2.42129 12.6153 2.7043L12.5659 2.83008H10.4995H8.43307L8.38366 2.7043C8.27585 2.42129 8.11413 1.73848 8.15007 1.70703C8.2489 1.60821 8.73854 1.58125 10.4635 1.57676C11.6764 1.57227 12.4221 1.59024 12.5749 1.62168ZM7.79069 2.875C8.0153 3.56231 8.5319 4.64043 8.90475 5.21094C9.04401 5.42207 9.16979 5.61074 9.18327 5.63321C9.19675 5.65117 9.05749 5.58828 8.8778 5.48496C8.69362 5.38164 8.03776 5.02227 7.41335 4.68086C6.14206 3.98907 6.21843 4.06992 6.34421 3.57129C6.49245 3.00528 6.88327 2.42578 7.33249 2.10235L7.51218 1.96758L7.55261 2.12032C7.57507 2.20117 7.68288 2.54258 7.79069 2.875ZM14.0214 2.43477C14.1786 2.60098 14.3673 2.86602 14.4436 3.02324C14.6008 3.3377 14.7356 3.81387 14.7132 3.9666C14.7042 4.04297 14.4616 4.19571 13.5317 4.70782C12.8893 5.0627 12.2335 5.42207 12.0762 5.51192C11.919 5.59727 11.8112 5.64219 11.8292 5.61074C11.8516 5.57481 11.9684 5.39512 12.0897 5.21094C12.6018 4.4293 13.0645 3.41406 13.3385 2.47071L13.4823 1.98106L13.6126 2.05742C13.6844 2.09785 13.8686 2.26856 14.0214 2.43477ZM12.2964 3.48594C12.2964 3.52188 11.9594 4.19121 11.8112 4.44727C11.4743 5.03125 10.5893 6.24414 10.4995 6.24414C10.4096 6.24414 9.52468 5.03125 9.18776 4.44727C9.03952 4.19121 8.70261 3.52188 8.70261 3.48594C8.70261 3.47246 9.5112 3.45899 10.4995 3.45899C11.4878 3.45899 12.2964 3.47246 12.2964 3.48594ZM8.10964 5.77695C9.30456 6.43731 10.3378 6.99434 10.4051 7.02129C10.5534 7.0752 10.3827 7.16055 12.9163 5.76348C14.0124 5.16153 14.9557 4.64492 15.0141 4.61797C15.104 4.57754 15.2567 4.60449 15.8452 4.76172C16.4921 4.93692 16.5639 4.96836 16.5639 5.05371C16.5639 5.10762 16.4247 6.77422 16.2495 8.75977L15.935 12.3715V15.8844C15.935 18.1035 15.9171 19.4422 15.8901 19.5186C15.7913 19.7746 15.9844 19.7656 10.4995 19.7656C5.01452 19.7656 5.20768 19.7746 5.10886 19.5186C5.0819 19.4422 5.06393 18.1035 5.06393 15.8844V12.3715L4.74948 8.75977C4.57878 6.77422 4.43503 5.10762 4.43503 5.05371C4.43503 4.96387 4.50241 4.93692 5.09987 4.7752C5.46374 4.67637 5.80065 4.59102 5.84558 4.58652C5.89499 4.58652 6.91022 5.1211 8.10964 5.77695ZM4.12058 8.78672L4.43503 12.376L3.82409 15.835C3.48718 17.7352 3.1862 19.3568 3.15026 19.4332C3.11433 19.5096 3.03796 19.6174 2.98405 19.6668L2.88522 19.7611L1.83405 19.5725L0.78288 19.3883L0.724482 19.24C0.688544 19.1592 0.661591 19.0199 0.661591 18.9346C0.661591 18.8447 1.15573 15.9607 1.76218 12.5287C2.93913 5.83985 2.90319 6.00606 3.24011 5.62422C3.37487 5.47149 3.77018 5.15703 3.79714 5.18399C3.80163 5.19297 3.94987 6.81465 4.12058 8.78672ZM17.7409 5.60625C18.0958 5.99707 18.0508 5.78145 19.2368 12.5287C19.8432 15.9607 20.3374 18.8447 20.3374 18.9301C20.3374 19.1322 20.2296 19.4063 20.1487 19.4063C20.1173 19.4063 19.6456 19.4871 19.102 19.5859L18.1137 19.7656L17.97 19.6039C17.8936 19.5186 17.8173 19.3928 17.7993 19.3254C17.7813 19.258 17.4983 17.6723 17.1659 15.799L16.5684 12.3895L16.8559 9.03828C17.0132 7.19199 17.1569 5.56582 17.1749 5.42657L17.2018 5.16602L17.3905 5.29629C17.4938 5.36817 17.651 5.50742 17.7409 5.60625ZM2.48542 20.3271L2.57976 20.3496L2.4944 20.8527C2.44499 21.1313 2.40007 21.3648 2.39558 21.3693C2.3821 21.3873 0.755927 21.0863 0.733466 21.0639C0.706513 21.0414 0.74245 20.7943 0.845771 20.2777L0.890693 20.0486L1.64089 20.1744C2.05417 20.2463 2.43601 20.3137 2.48542 20.3271ZM20.2071 20.5563C20.252 20.8213 20.279 21.0504 20.2655 21.0639C20.243 21.0908 18.6169 21.3873 18.6034 21.3693C18.5944 21.3559 18.4147 20.3496 18.4237 20.3496C18.4596 20.3316 20.0948 20.0531 20.1038 20.0621C20.1128 20.0666 20.1577 20.2867 20.2071 20.5563ZM15.2163 20.9111V21.4277H10.4995H5.78268V20.9111V20.3945H10.4995H15.2163V20.9111Z" fill="#805750"/>
<path d="M7.93047 13.1172C7.83164 13.1936 7.81367 13.252 7.78672 13.5529C7.71035 14.4469 7.18477 15.2465 6.4166 15.6508C6.2459 15.7406 6.09316 15.8439 6.07969 15.8844C6.06621 15.9248 6.05273 16.5492 6.05273 17.2725V18.5932L6.16953 18.683C6.29082 18.7773 6.30879 18.7773 10.5 18.7773C14.6912 18.7773 14.7092 18.7773 14.8305 18.683L14.9473 18.5932V17.2725C14.9473 16.5492 14.9338 15.9203 14.9203 15.8799C14.9023 15.8395 14.7766 15.7496 14.6373 15.6822C13.8377 15.2779 13.2896 14.4559 13.2088 13.5439C13.1639 12.9824 13.3975 13.0273 10.5 13.0273C8.12363 13.0273 8.03828 13.0318 7.93047 13.1172ZM12.6383 13.9707C12.7955 14.8152 13.348 15.6328 14.0578 16.0686L14.3184 16.2303V17.1871V18.1484H10.5H6.68164V17.1871V16.2303L6.95117 16.0641C7.63848 15.6373 8.20449 14.8152 8.35273 14.0246C8.37969 13.8854 8.40664 13.7416 8.41562 13.7102C8.4291 13.6652 8.86934 13.6562 10.509 13.6652L12.5844 13.6787L12.6383 13.9707Z" fill="#805750"/>
</svg>
