<svg width="23" height="23" viewBox="0 0 23 23" fill="none" xmlns="http://www.w3.org/2000/svg">
<path d="M10.6364 0.013319C10.5509 0.0223103 10.2855 0.0537815 10.0516 0.0807571C6.49339 0.485395 3.20508 2.71539 1.39674 5.94799C0.739981 7.12594 0.263154 8.59162 0.0607279 10.0573C-0.0202426 10.6193 -0.0202426 12.3727 0.0607279 12.9347C0.533056 16.3607 2.35939 19.2695 5.21585 21.1444C7.95536 22.9428 11.4101 23.4688 14.6174 22.5696C18.7964 21.4006 22.0217 17.8803 22.8 13.6361C23.5017 9.83701 22.3366 6.07388 19.6286 3.36281C17.8383 1.57342 15.67 0.489891 13.1105 0.0987415C12.6606 0.0313015 10.9873 -0.0271454 10.6364 0.013319ZM12.7641 1.02491C14.406 1.22723 16.1739 1.89713 17.4739 2.80981C18.2656 3.36731 19.2058 4.24402 19.7411 4.92291C21.2525 6.8382 22.0307 9.07719 22.0307 11.496C22.0307 13.9149 21.2525 16.1538 19.7411 18.0691C19.4082 18.4917 18.486 19.4134 18.0812 19.7281C16.4798 20.9825 14.7074 21.7243 12.7146 21.9761C12.0759 22.057 10.7668 22.0436 10.1191 21.9536C8.13979 21.6704 6.48439 20.9645 4.90097 19.7281C4.49162 19.4044 3.56495 18.4828 3.24107 18.0691C2.01752 16.5135 1.25729 14.6927 1.00538 12.7189C0.93341 12.1569 0.93341 10.8351 1.00538 10.2596C1.2393 8.3938 1.94104 6.65836 3.07463 5.13422C3.49748 4.57223 4.5411 3.52917 5.10339 3.10654C6.04805 2.40068 7.03769 1.87465 8.0948 1.51947C9.05296 1.19576 9.7457 1.06088 10.9063 0.957472C11.2077 0.930496 12.3413 0.970959 12.7641 1.02491Z" fill="#805750"/>
<path d="M10.2542 1.98653C7.06932 2.40466 4.28934 4.40536 2.87685 7.29177C1.61281 9.88145 1.57682 12.9207 2.78238 15.5149C4.04642 18.2305 6.597 20.2671 9.48495 20.8696C11.1493 21.2113 12.9082 21.1214 14.4736 20.6043C16.6463 19.8895 18.4997 18.4148 19.7052 16.4411C21.1492 14.0717 21.4731 11.0819 20.5734 8.42476C19.3813 4.90891 16.237 2.37768 12.5483 1.96405C11.9995 1.90561 10.8075 1.9146 10.2542 1.98653ZM12.8632 2.97565C13.8574 3.15099 14.6446 3.41175 15.4903 3.85686C17.1277 4.71559 18.3782 5.99244 19.2014 7.65145C19.5748 8.39778 19.7457 8.88335 19.9211 9.65665C20.5554 12.5071 19.6782 15.4969 17.591 17.592C15.4498 19.7321 12.3324 20.5998 9.41297 19.8625C7.85204 19.4669 6.52502 18.7205 5.39143 17.592C2.01766 14.2246 2.01766 8.76645 5.39143 5.39897C6.77693 4.02321 8.49081 3.18696 10.4566 2.92619C11.0459 2.84976 12.3009 2.87673 12.8632 2.97565Z" fill="#805750"/>
<path d="M11.2264 3.43021C11.051 3.5561 10.9971 3.75842 10.9971 4.30243C10.9971 5.0083 11.123 5.24658 11.4916 5.24658C11.8603 5.24658 11.9862 5.0083 11.9862 4.30243C11.9862 3.59656 11.8603 3.35828 11.4916 3.35828C11.4017 3.35828 11.2848 3.38975 11.2264 3.43021Z" fill="#805750"/>
<path d="M5.72939 5.73651C5.58094 5.88496 5.55395 6.10988 5.66191 6.3168C5.73389 6.44725 6.31417 7.03204 6.49861 7.1535C6.68304 7.27495 6.88997 7.24796 7.0654 7.07253C7.24084 6.89709 7.26783 6.69017 7.14637 6.50573C7.02492 6.3213 6.44013 5.74101 6.30968 5.66904C6.10275 5.56108 5.87783 5.58807 5.72939 5.73651Z" fill="#805750"/>
<path d="M16.6864 5.65894C16.5559 5.72642 16.0476 6.22573 15.8947 6.43266C15.7102 6.68007 15.7192 6.8735 15.9172 7.07143C16.1961 7.35032 16.4165 7.28285 16.9383 6.74305C17.3342 6.34269 17.3836 6.26172 17.3836 6.0323C17.3836 5.70392 16.9878 5.4925 16.6864 5.65894Z" fill="#805750"/>
<path d="M11.2265 7.74648C11.0061 7.90384 10.9971 7.98027 10.9971 10.0574C10.9971 11.6355 11.0106 12.0221 11.06 12.148C11.114 12.2784 11.3659 12.4627 12.684 13.3395C13.7591 14.0543 14.2764 14.3735 14.3618 14.3735C14.5508 14.3735 14.7577 14.2207 14.8207 14.0408C14.8657 13.9015 14.8612 13.852 14.7892 13.7081C14.7217 13.5688 14.4968 13.4024 13.3587 12.6426L12.0092 11.7434L11.9867 9.87757C11.9642 7.91283 11.9597 7.89035 11.7528 7.74648C11.6223 7.65206 11.3614 7.65656 11.2265 7.74648Z" fill="#805750"/>
<path d="M3.63734 11.0646C3.4529 11.1455 3.34944 11.2983 3.34944 11.4962C3.34944 11.8648 3.58785 11.9907 4.2941 11.9907C5.00034 11.9907 5.23875 11.8648 5.23875 11.4962C5.23875 11.2938 5.13529 11.1455 4.94186 11.0646C4.73944 10.9791 3.83077 10.9836 3.63734 11.0646Z" fill="#805750"/>
<path d="M18.0327 11.0646C17.8483 11.1455 17.7448 11.2983 17.7448 11.4962C17.7448 11.8648 17.9832 11.9907 18.6895 11.9907C19.3957 11.9907 19.6341 11.8648 19.6341 11.4962C19.6341 11.2938 19.5307 11.1455 19.3372 11.0646C19.1348 10.9791 18.2261 10.9836 18.0327 11.0646Z" fill="#805750"/>
<path d="M6.49823 15.8379C6.3138 15.9594 5.73351 16.5442 5.66154 16.6746C5.42762 17.12 5.86396 17.5563 6.3093 17.3224C6.43975 17.2504 7.02454 16.6701 7.146 16.4857C7.26745 16.3013 7.24046 16.0944 7.06503 15.9189C6.88959 15.7435 6.68266 15.7165 6.49823 15.8379Z" fill="#805750"/>
<path d="M15.9178 15.9196C15.7424 16.0951 15.7154 16.302 15.8368 16.4864C15.9583 16.6709 16.5431 17.2511 16.6735 17.3231C16.9974 17.4941 17.3843 17.2961 17.3843 16.9587C17.3843 16.7293 17.3348 16.6484 16.9389 16.248C16.4171 15.7082 16.1967 15.6407 15.9178 15.9196Z" fill="#805750"/>
<path d="M11.2264 17.8179C11.051 17.9438 10.9971 18.1461 10.9971 18.6901C10.9971 19.396 11.123 19.6343 11.4916 19.6343C11.8603 19.6343 11.9862 19.396 11.9862 18.6901C11.9862 17.9843 11.8603 17.746 11.4916 17.746C11.4017 17.746 11.2848 17.7774 11.2264 17.8179Z" fill="#805750"/>
</svg>
