<svg width="23" height="23" viewBox="0 0 23 23" fill="none" xmlns="http://www.w3.org/2000/svg">
<g clip-path="url(#clip0_2604_3839)">
<path d="M17.0931 12.2735C17.0362 12.157 16.9223 12.0794 16.8085 12.0794C16.486 12.0599 15.9738 11.7298 15.5185 11.4384C14.8924 11.0305 14.2854 10.6421 13.7732 10.7586C13.5644 10.8169 13.3748 10.9722 13.2799 11.1859C13.185 11.3413 13.242 11.5549 13.3937 11.6521C13.5455 11.7491 13.7542 11.6909 13.849 11.5355C13.849 11.5355 13.849 11.5355 13.849 11.5161C13.887 11.4384 13.9249 11.4384 13.9439 11.419C14.1715 11.3607 14.7406 11.7298 15.158 12.0017C15.4806 12.2153 15.803 12.429 16.1635 12.5843C15.5564 13.0116 14.8545 13.2641 14.1146 13.2641C13.223 13.303 12.6159 13.1088 12.4641 12.9339C12.1986 12.662 12.4072 10.9334 12.6159 10.0205C12.6918 9.7292 12.8815 8.93285 12.9384 8.79688C12.9953 8.62208 12.9194 8.42789 12.7487 8.35019C12.578 8.29192 12.3693 8.36963 12.3124 8.54443C12.1416 9.14653 12.0088 9.69037 11.9898 9.82629C11.876 10.3119 11.7053 10.778 11.4966 11.2247C11.0793 10.6226 10.3014 9.5544 9.73232 9.04939C9.59951 8.93285 9.39085 8.95229 9.25804 9.08827C9.14421 9.22419 9.1632 9.43787 9.29596 9.57384C9.92204 10.1176 10.8895 11.5161 11.1551 11.9239C10.8136 12.5649 10.3963 13.0893 9.94098 13.2447C9.65642 13.303 9.37186 13.2641 9.12522 13.1088C8.97348 13.0116 8.76477 13.0505 8.66993 13.2059C8.5751 13.3612 8.61302 13.5749 8.76477 13.672C9.04932 13.8468 9.58052 14.0605 10.1497 13.8857C10.7757 13.6914 11.2879 13.0699 11.6863 12.3513C11.7053 12.798 11.7812 13.1864 11.9709 13.4001C12.3313 13.808 13.0522 13.944 14.1525 13.944C14.7596 13.9051 16.2773 13.7108 17.0741 12.6038C17.131 12.5261 17.15 12.3901 17.0931 12.2735ZM8.72684 8.68034C8.72684 8.48616 8.5751 8.35019 8.38537 8.35019C8.19565 8.35019 8.06284 8.50554 8.06284 8.69979C8.10082 11.1277 7.8921 12.3901 7.36091 12.9534C7.11433 13.2059 6.75387 13.3418 6.4124 13.303C6.12779 13.303 5.93812 13.2253 5.84323 13.0893C5.63457 12.798 5.80531 12.1765 5.88121 11.9822C5.95706 11.8074 5.86222 11.6132 5.69149 11.5355C5.52075 11.4578 5.33103 11.5549 5.25513 11.7298C5.2172 11.8463 4.85675 12.8174 5.2931 13.4584C5.44485 13.6914 5.76738 13.9633 6.4124 13.9633C6.94354 13.9828 7.4558 13.7885 7.83519 13.4001C8.61302 12.5843 8.74583 10.9334 8.72684 8.68034Z" fill="#805750"/>
<path d="M11.0891 23C4.89537 23 -0.143497 17.8409 -0.143497 11.5C-0.143497 5.15887 4.89537 0 11.0891 0C17.2827 0 22.3216 5.15887 22.3216 11.5C22.3216 17.8412 17.2827 23 11.0891 23ZM11.0891 0.679601C5.26134 0.679601 0.520296 5.53374 0.520296 11.5C0.520296 17.4663 5.26134 22.3202 11.0888 22.3202C16.9164 22.3202 21.6575 17.4663 21.6575 11.5C21.6575 5.53374 16.9166 0.679601 11.0891 0.679601Z" fill="#805750"/>
<path d="M11.0895 21.2659C5.83014 21.2659 1.55143 16.8851 1.55143 11.5005C1.55143 6.11597 5.83014 1.73535 11.0895 1.73535C16.3488 1.73535 20.6278 6.11597 20.6278 11.5005C20.6278 16.8851 16.3488 21.2659 11.0895 21.2659ZM11.0895 2.41515C6.19633 2.41515 2.21542 6.49081 2.21542 11.5005C2.21542 16.5102 6.19633 20.5861 11.0895 20.5861C15.9827 20.5861 19.9638 16.5104 19.9638 11.5005C19.9638 6.49081 15.9827 2.41515 11.0895 2.41515Z" fill="#805750"/>
</g>
<defs>
<clipPath id="clip0_2604_3839">
<rect width="23" height="23" fill="white" transform="translate(-0.5)"/>
</clipPath>
</defs>
</svg>
