<svg width="30" height="30" viewBox="0 0 30 30" fill="none" xmlns="http://www.w3.org/2000/svg">
<circle cx="15" cy="15" r="14.25" stroke="#805750" stroke-width="1.5"/>
<path d="M18.2751 6.05726C17.9306 6.16273 17.4165 6.47913 17.0501 6.81136C16.1368 7.63402 15.3767 8.87855 13.9329 11.916C11.9915 16.0082 11.0892 17.4479 10.2306 17.8223C9.7876 18.0174 9.45947 17.9489 8.89619 17.5428C8.50791 17.258 8.22354 16.9469 7.15166 15.6391C5.30322 13.3715 4.28604 12.6491 2.96807 12.6438C2.38838 12.6438 2.08213 12.7123 1.50791 12.9707C1.02119 13.1922 1.02119 13.1869 1.04854 13.6299C1.06494 13.8936 1.13604 13.8936 1.4751 13.6405C2.63994 12.7545 3.73369 13.1078 4.86572 14.7373C5.38526 15.4862 5.86104 16.3826 6.88369 18.5342C8.37666 21.6614 8.9126 22.4998 9.68916 22.8795C10.1649 23.1168 10.8868 22.9692 11.3899 22.5315C12.1282 21.8934 12.4892 21.0971 13.3587 18.1914C14.1517 15.5231 14.6056 14.2891 15.1142 13.4084C15.7978 12.2325 16.6946 11.2885 17.4603 10.951C17.8431 10.7823 18.4938 10.7928 18.8603 10.9774C19.4235 11.2621 20.0306 11.916 20.6649 12.918C20.8399 13.1922 21.4579 14.3102 22.0431 15.3965C23.2462 17.6377 23.7548 18.492 24.3618 19.2725C25.7017 20.9916 27.1017 21.4979 28.6603 20.8229C28.9774 20.6858 28.9993 20.6647 28.9446 20.5645C28.9063 20.4907 28.8517 20.4643 28.797 20.4801C28.5181 20.5856 28.179 20.6278 27.8071 20.6067C26.7353 20.5434 25.822 19.7629 24.9853 18.1914C24.3181 16.9364 24.0446 16.235 22.9509 12.9444C22.0759 10.3235 21.8954 9.8014 21.5345 8.96292C20.8673 7.38616 20.2274 6.5055 19.4946 6.15745C19.2157 6.02562 18.5485 5.97288 18.2751 6.05726ZM19.2048 6.29984C19.7845 6.49495 20.3149 7.05921 20.8126 7.99788C21.3704 9.05784 21.5892 9.6221 22.6556 12.8389C23.0767 14.1151 23.4759 15.2858 23.536 15.444C23.5962 15.5969 23.6345 15.7393 23.6235 15.7498C23.6071 15.7604 23.5743 15.7024 23.5415 15.6233C23.5087 15.5442 23.1313 14.5264 22.6938 13.3662C21.8079 11.0143 21.6876 10.7032 21.2938 9.86468C20.4681 8.10863 19.6587 7.25433 18.7454 7.1805C17.5806 7.09085 16.2626 8.25101 15.1688 10.3287C14.704 11.2094 14.3813 11.9108 13.4571 14.0254C11.9532 17.4637 11.2368 18.6344 10.3837 19.0141C10.0501 19.167 9.79854 19.1723 9.50322 19.0405C8.92901 18.7821 8.52979 18.3338 7.33213 16.6094C6.40244 15.2752 5.89932 14.595 5.57119 14.2311C5.47822 14.1309 5.54385 14.1889 5.71885 14.3576C5.89932 14.5317 6.51729 15.2436 7.09151 15.945C8.43682 17.5639 8.83604 17.9278 9.49229 18.1123C10.2087 18.3127 10.8704 17.8803 11.7126 16.6569C12.2376 15.8922 12.8173 14.8006 13.9603 12.417C15.6938 8.79417 16.4485 7.56546 17.3892 6.83773C18.111 6.27874 18.6634 6.11527 19.2048 6.29984ZM19.2431 7.55491C19.7899 7.82386 20.3423 8.50941 20.9056 9.6221C21.3212 10.4448 21.5235 10.9405 22.4642 13.4453C22.8907 14.5897 23.3337 15.7393 23.4431 15.9977C23.5524 16.2561 23.629 16.4776 23.6181 16.4881C23.5962 16.5092 23.5579 16.4248 22.5134 13.9463C21.2118 10.8772 20.5774 9.69066 19.8446 8.98402C19.6587 8.80472 19.3743 8.59378 19.2103 8.50941C18.9478 8.37757 18.8493 8.35648 18.4446 8.35648C18.0126 8.35648 17.9415 8.3723 17.5696 8.55159C16.6673 8.98402 15.7649 10.0229 14.9829 11.5258C14.6438 12.185 14.1845 13.2555 13.3915 15.27C12.4181 17.7537 12.1063 18.4287 11.5868 19.1881C11.1876 19.7735 10.8978 20.0424 10.4931 20.227C9.96807 20.4643 9.56338 20.3483 9.01104 19.8051C8.57354 19.378 8.14697 18.7504 7.15166 17.084C6.70869 16.3457 6.23838 15.5758 6.10166 15.3807C5.97041 15.1803 5.88838 15.0326 5.92119 15.0537C5.94854 15.0696 6.39697 15.6971 6.91104 16.4407C8.28916 18.4287 8.61182 18.8084 9.22432 19.1618C9.50322 19.3252 9.60166 19.3516 9.88057 19.3516C10.5314 19.3516 11.0345 18.9983 11.6579 18.1123C12.1938 17.3582 12.7134 16.3352 13.6759 14.1309C14.5673 12.0901 14.9118 11.3412 15.3548 10.4922C16.2134 8.84691 17.1759 7.80804 18.1329 7.47581C18.4938 7.34925 18.8821 7.38089 19.2431 7.55491ZM19.1063 8.72562C20.0306 9.17913 20.7196 10.3446 22.3712 14.2364C22.8853 15.4387 23.3993 16.6358 23.5251 16.8994C23.6509 17.1578 23.7165 17.3319 23.6728 17.2739C23.629 17.2211 23.1313 16.2139 22.5735 15.0326C21.354 12.4803 20.9767 11.7684 20.4353 10.9826C19.1392 9.12113 17.8704 8.96292 16.361 10.4764C15.836 11.0037 15.5188 11.4203 15.1196 12.1006C14.5837 13.0076 14.2337 13.8778 13.1946 16.852C12.8063 17.9541 12.3798 19.1037 12.2376 19.4096C11.5868 20.7965 10.9798 21.4451 10.2251 21.5453C10.0173 21.577 9.91885 21.5559 9.67276 21.4399C9.10948 21.1709 8.61182 20.5065 7.64932 18.7293C6.65401 16.8889 6.18369 15.9977 6.24385 16.0557C6.27119 16.0821 6.63213 16.678 7.04776 17.3741C8.23994 19.3885 8.83604 20.1426 9.45947 20.4537C9.96807 20.7016 10.6298 20.5487 11.1767 20.053C11.9204 19.3832 12.5056 18.2231 13.8782 14.7162C14.9446 11.9846 15.5243 10.8455 16.3665 9.85941C17.3563 8.69398 18.2642 8.31956 19.1063 8.72562ZM18.9368 9.84359C19.4673 10.0967 20.0524 10.7453 20.6431 11.7315C21.0095 12.3537 21.2501 12.8231 22.0813 14.5791C22.4915 15.4493 23.022 16.5356 23.2571 16.9891C23.4923 17.4479 23.6782 17.8223 23.6673 17.8223C23.6345 17.8223 23.3337 17.2791 22.4368 15.6075C20.9165 12.7598 20.4954 12.1006 19.7571 11.3782C19.1556 10.7875 18.7728 10.5977 18.1876 10.5977C17.5313 10.5977 16.9954 10.8403 16.3501 11.4362C15.7431 11.9899 15.2181 12.7071 14.6985 13.6826C14.3595 14.3207 14.354 14.3155 14.622 13.6563C14.8899 13.0024 15.3657 12.1164 15.7376 11.5838C16.3337 10.7243 17.1759 9.97015 17.761 9.76449C17.854 9.73284 18.0837 9.70648 18.286 9.70648C18.5704 9.7012 18.7017 9.73284 18.9368 9.84359ZM13.0798 18.2758C12.5603 20.0108 12.3415 20.633 12.0079 21.2817C11.5704 22.1465 11.0892 22.6 10.4821 22.7319C9.53604 22.9375 8.86338 22.1254 7.39229 19.0299C7.00401 18.2125 6.69229 17.5323 6.70322 17.527C6.70869 17.5217 7.00947 18.0596 7.37041 18.7293C8.62822 21.0602 9.27354 21.7774 10.1103 21.7774C11.3024 21.7774 12.1446 20.6489 13.1673 17.6746C13.3368 17.1737 13.4899 16.7729 13.5009 16.7834C13.5118 16.794 13.3259 17.4637 13.0798 18.2758Z" fill="#805750"/>
</svg>
