<svg width="300" height="240" viewBox="0 0 300 240" fill="none" xmlns="http://www.w3.org/2000/svg">
<g filter="url(#filter0_d_2808_2888)">
<path d="M257 114.516C245.322 130.025 209.465 161.232 159.469 161.992C161.6 159.198 164.462 155.926 167.991 152.429C168.648 150.826 169.364 149.266 170.132 147.749L155.681 158.194C156.126 153.591 157.237 147.543 159.205 140.637L155.221 145.85C153.827 150.433 152.341 154.281 150.947 157.244C149.164 153.668 147.592 150.106 146.212 146.57L142.037 142.052C143.58 147.5 144.692 153.202 145.265 159.143C143.75 158.384 134.863 151.509 130.609 148.167C131.229 149.268 131.821 150.394 132.384 151.547C135.581 154.756 138.628 158.231 141.478 161.992C122.224 162.308 75.5735 153.446 43 115.466C52.5456 115.321 67.9761 117.103 84.6637 122.731C81.5074 118.727 75.1947 110.338 75.1947 108.819C82.8736 110.439 95.9958 115.189 108.34 124.011C90.1633 98.9443 84.3509 77.4853 83.7168 69.8893C93.8179 75.3829 109.732 87.3204 122.907 104.611C119.944 100.252 119.526 86.1182 119.699 79.3844C123.511 82.8659 132.454 92.2977 137.727 102.173C137.6 78.1742 144.424 58.6919 150 49C157.407 66.4263 160.493 83.6825 161.04 99.3241C164.828 90.9684 171.779 83.1824 174.619 80.3339C175.377 87.93 174.768 100.59 174.369 105.971C183.14 91.5239 195.495 77.1403 212.496 66.0912C210.223 84.3218 199.555 109.524 194.504 119.846C202.86 113.672 211.024 109.702 216.283 107.87L206.814 125.525C221.304 118.83 238.277 114.223 257 114.516Z" fill="url(#paint0_radial_2808_2888)"/>
<path d="M206.814 125.525C221.304 118.83 238.277 114.223 257 114.516C245.322 130.025 209.465 161.232 159.469 161.992C161.6 159.198 164.462 155.926 167.991 152.429M206.814 125.525L216.283 107.87C211.024 109.702 202.86 113.672 194.504 119.846M206.814 125.525C190.279 133.166 176.976 143.526 167.991 152.429M167.991 152.429C168.648 150.826 169.364 149.266 170.132 147.749M194.504 119.846C199.555 109.524 210.223 84.3218 212.496 66.0912C195.495 77.1403 183.14 91.5239 174.369 105.971M194.504 119.846C185.454 126.533 176.18 135.806 170.132 147.749M170.132 147.749L155.681 158.194C156.126 153.591 157.237 147.543 159.205 140.637M174.369 105.971C174.768 100.59 175.377 87.93 174.619 80.3339C171.779 83.1824 164.828 90.9684 161.04 99.3241M174.369 105.971C166.985 118.132 162.141 130.338 159.205 140.637M137.727 102.173C137.6 78.1742 144.424 58.6919 150 49C166.217 87.1513 161.72 124.487 155.221 145.85M137.727 102.173C132.454 92.2977 123.511 82.8659 119.699 79.3844C119.52 86.3475 119.973 101.223 123.218 105.021M137.727 102.173C137.799 115.833 140.124 130.956 146.212 146.57M84.6637 122.731C67.9761 117.103 52.5456 115.321 43 115.466C75.5735 153.446 122.224 162.308 141.478 161.992C138.628 158.231 135.581 154.756 132.384 151.547M84.6637 122.731C81.5074 118.727 75.1947 110.338 75.1947 108.819C82.8736 110.439 95.9958 115.189 108.34 124.011M84.6637 122.731C100.788 128.169 118.087 137.197 132.384 151.547M132.384 151.547C131.821 150.394 131.229 149.268 130.609 148.167M108.34 124.011C90.1633 98.9443 84.3509 77.4853 83.7168 69.8893C93.8976 75.4263 109.984 87.5092 123.218 105.021M108.34 124.011C116.794 130.053 124.882 138.004 130.609 148.167M130.609 148.167C134.863 151.509 143.75 158.384 145.265 159.143C144.692 153.202 143.58 147.5 142.037 142.052M142.037 142.052L146.212 146.57M142.037 142.052C138.037 127.924 131.138 115.501 123.218 105.021M146.212 146.57C147.592 150.106 149.164 153.668 150.947 157.244C152.341 154.281 153.827 150.433 155.221 145.85M155.221 145.85L159.205 140.637" stroke="#0A0A0A" stroke-width="0.1"/>
</g>
<g filter="url(#filter1_d_2808_2888)">
<path d="M36 166.271V165.294C94.4132 164.318 221.792 162.95 264 165.294V167.247C215.636 169.526 102.327 172.521 36 166.271Z" fill="url(#paint1_radial_2808_2888)"/>
</g>
<path d="M91.3 187.15C90.24 187.15 89.28 186.92 88.42 186.46C87.57 185.99 86.9 185.345 86.41 184.525C85.93 183.705 85.69 182.78 85.69 181.75C85.69 180.72 85.935 179.795 86.425 178.975C86.915 178.155 87.585 177.515 88.435 177.055C89.295 176.585 90.255 176.35 91.315 176.35C92.175 176.35 92.96 176.5 93.67 176.8C94.38 177.1 94.98 177.535 95.47 178.105L94.21 179.29C93.45 178.47 92.515 178.06 91.405 178.06C90.685 178.06 90.04 178.22 89.47 178.54C88.9 178.85 88.455 179.285 88.135 179.845C87.815 180.405 87.655 181.04 87.655 181.75C87.655 182.46 87.815 183.095 88.135 183.655C88.455 184.215 88.9 184.655 89.47 184.975C90.04 185.285 90.685 185.44 91.405 185.44C92.515 185.44 93.45 185.025 94.21 184.195L95.47 185.395C94.98 185.965 94.375 186.4 93.655 186.7C92.945 187 92.16 187.15 91.3 187.15ZM104.796 179.11C103.806 178.55 102.776 178.21 101.706 178.09V187H99.7555V178.09C98.6755 178.21 97.6405 178.55 96.6505 179.11L95.9755 177.61C96.6755 177.19 97.4255 176.875 98.2255 176.665C99.0355 176.455 99.8655 176.35 100.716 176.35C101.566 176.35 102.396 176.455 103.206 176.665C104.016 176.875 104.771 177.19 105.471 177.61L104.796 179.11ZM116.11 176.5V183.79C116.11 185.34 115.685 186.53 114.835 187.36C113.995 188.19 112.83 188.605 111.34 188.605C110.46 188.605 109.66 188.475 108.94 188.215C108.22 187.965 107.61 187.605 107.11 187.135L107.905 185.635C108.835 186.475 109.97 186.895 111.31 186.895C113.21 186.895 114.16 185.89 114.16 183.88V183.085C113.45 183.985 112.42 184.435 111.07 184.435C109.74 184.435 108.71 184.055 107.98 183.295C107.25 182.535 106.885 181.445 106.885 180.025V176.5H108.835V179.935C108.835 180.855 109.055 181.555 109.495 182.035C109.945 182.505 110.57 182.74 111.37 182.74C112.22 182.74 112.895 182.49 113.395 181.99C113.905 181.48 114.16 180.73 114.16 179.74V176.5H116.11ZM129.643 185.35V189.235H127.843V187H119.563L119.548 189.235H117.748L117.763 185.35H119.038V181.045C119.038 180.045 119.228 179.195 119.608 178.495C119.998 177.795 120.543 177.265 121.243 176.905C121.943 176.535 122.758 176.35 123.688 176.35C124.628 176.35 125.448 176.53 126.148 176.89C126.848 177.25 127.388 177.785 127.768 178.495C128.158 179.195 128.353 180.045 128.353 181.045V185.35H129.643ZM126.403 185.35V180.865C126.403 179.945 126.163 179.25 125.683 178.78C125.203 178.3 124.538 178.06 123.688 178.06C122.838 178.06 122.173 178.3 121.693 178.78C121.223 179.25 120.988 179.945 120.988 180.865V185.35H126.403ZM140.514 176.5V187H138.639V185.665C137.929 186.655 136.829 187.15 135.339 187.15C134.099 187.15 133.124 186.765 132.414 185.995C131.704 185.215 131.349 184.115 131.349 182.695V176.5H133.299V182.62C133.299 183.55 133.519 184.255 133.959 184.735C134.409 185.205 135.024 185.44 135.804 185.44C136.644 185.44 137.314 185.19 137.814 184.69C138.314 184.18 138.564 183.425 138.564 182.425V176.5H140.514ZM151.419 176.5V187H149.499V184.075H146.904H146.694L144.744 187H142.689L144.939 183.76C144.209 183.49 143.644 183.065 143.244 182.485C142.854 181.895 142.659 181.185 142.659 180.355C142.659 179.555 142.839 178.865 143.199 178.285C143.559 177.705 144.069 177.265 144.729 176.965C145.389 176.655 146.164 176.5 147.054 176.5H151.419ZM147.114 178.15C146.314 178.15 145.699 178.335 145.269 178.705C144.849 179.075 144.639 179.615 144.639 180.325C144.639 181.015 144.844 181.55 145.254 181.93C145.664 182.3 146.259 182.485 147.039 182.485H149.499V178.15H147.114ZM163.251 176.35C164.161 176.35 164.956 176.535 165.636 176.905C166.316 177.265 166.841 177.795 167.211 178.495C167.591 179.195 167.781 180.045 167.781 181.045V187H165.816V180.865C165.816 179.945 165.586 179.25 165.126 178.78C164.676 178.3 164.051 178.06 163.251 178.06C162.441 178.06 161.806 178.3 161.346 178.78C160.886 179.25 160.656 179.945 160.656 180.865V187H157.476L157.461 185.35H158.706V181.045C158.706 180.045 158.891 179.195 159.261 178.495C159.641 177.785 160.171 177.25 160.851 176.89C161.541 176.53 162.341 176.35 163.251 176.35ZM175.309 187.15C174.239 187.15 173.274 186.92 172.414 186.46C171.554 185.99 170.879 185.345 170.389 184.525C169.899 183.695 169.654 182.77 169.654 181.75C169.654 180.73 169.899 179.81 170.389 178.99C170.879 178.16 171.554 177.515 172.414 177.055C173.274 176.585 174.239 176.35 175.309 176.35C176.379 176.35 177.344 176.585 178.204 177.055C179.064 177.515 179.739 178.155 180.229 178.975C180.719 179.795 180.964 180.72 180.964 181.75C180.964 182.78 180.719 183.705 180.229 184.525C179.739 185.345 179.064 185.99 178.204 186.46C177.344 186.92 176.379 187.15 175.309 187.15ZM175.309 185.44C176.009 185.44 176.639 185.285 177.199 184.975C177.759 184.655 178.199 184.215 178.519 183.655C178.839 183.085 178.999 182.45 178.999 181.75C178.999 181.05 178.839 180.42 178.519 179.86C178.199 179.29 177.759 178.85 177.199 178.54C176.639 178.22 176.009 178.06 175.309 178.06C174.609 178.06 173.979 178.22 173.419 178.54C172.859 178.85 172.419 179.29 172.099 179.86C171.779 180.42 171.619 181.05 171.619 181.75C171.619 182.45 171.779 183.085 172.099 183.655C172.419 184.215 172.859 184.655 173.419 184.975C173.979 185.285 174.609 185.44 175.309 185.44ZM190.489 179.11C189.499 178.55 188.469 178.21 187.399 178.09V187H185.449V178.09C184.369 178.21 183.334 178.55 182.344 179.11L181.669 177.61C182.369 177.19 183.119 176.875 183.919 176.665C184.729 176.455 185.559 176.35 186.409 176.35C187.259 176.35 188.089 176.455 188.899 176.665C189.709 176.875 190.464 177.19 191.164 177.61L190.489 179.11ZM197.517 187.15C196.447 187.15 195.482 186.92 194.622 186.46C193.762 185.99 193.087 185.345 192.597 184.525C192.107 183.695 191.862 182.77 191.862 181.75C191.862 180.73 192.107 179.81 192.597 178.99C193.087 178.16 193.762 177.515 194.622 177.055C195.482 176.585 196.447 176.35 197.517 176.35C198.587 176.35 199.552 176.585 200.412 177.055C201.272 177.515 201.947 178.155 202.437 178.975C202.927 179.795 203.172 180.72 203.172 181.75C203.172 182.78 202.927 183.705 202.437 184.525C201.947 185.345 201.272 185.99 200.412 186.46C199.552 186.92 198.587 187.15 197.517 187.15ZM197.517 185.44C198.217 185.44 198.847 185.285 199.407 184.975C199.967 184.655 200.407 184.215 200.727 183.655C201.047 183.085 201.207 182.45 201.207 181.75C201.207 181.05 201.047 180.42 200.727 179.86C200.407 179.29 199.967 178.85 199.407 178.54C198.847 178.22 198.217 178.06 197.517 178.06C196.817 178.06 196.187 178.22 195.627 178.54C195.067 178.85 194.627 179.29 194.307 179.86C193.987 180.42 193.827 181.05 193.827 181.75C193.827 182.45 193.987 183.085 194.307 183.655C194.627 184.215 195.067 184.655 195.627 184.975C196.187 185.285 196.817 185.44 197.517 185.44ZM210.157 187.15C209.097 187.15 208.137 186.92 207.277 186.46C206.427 185.99 205.757 185.345 205.267 184.525C204.787 183.705 204.547 182.78 204.547 181.75C204.547 180.72 204.792 179.795 205.282 178.975C205.772 178.155 206.442 177.515 207.292 177.055C208.152 176.585 209.112 176.35 210.172 176.35C211.032 176.35 211.817 176.5 212.527 176.8C213.237 177.1 213.837 177.535 214.327 178.105L213.067 179.29C212.307 178.47 211.372 178.06 210.262 178.06C209.542 178.06 208.897 178.22 208.327 178.54C207.757 178.85 207.312 179.285 206.992 179.845C206.672 180.405 206.512 181.04 206.512 181.75C206.512 182.46 206.672 183.095 206.992 183.655C207.312 184.215 207.757 184.655 208.327 184.975C208.897 185.285 209.542 185.44 210.262 185.44C211.372 185.44 212.307 185.025 213.067 184.195L214.327 185.395C213.837 185.965 213.232 186.4 212.512 186.7C211.802 187 211.017 187.15 210.157 187.15Z" fill="#D8A59E"/>
<defs>
<filter id="filter0_d_2808_2888" x="33.8926" y="39.8882" width="234.206" height="133.162" filterUnits="userSpaceOnUse" color-interpolation-filters="sRGB">
<feFlood flood-opacity="0" result="BackgroundImageFix"/>
<feColorMatrix in="SourceAlpha" type="matrix" values="0 0 0 0 0 0 0 0 0 0 0 0 0 0 0 0 0 0 127 0" result="hardAlpha"/>
<feOffset dx="1" dy="1"/>
<feGaussianBlur stdDeviation="5"/>
<feComposite in2="hardAlpha" operator="out"/>
<feColorMatrix type="matrix" values="0 0 0 0 0 0 0 0 0 0 0 0 0 0 0 0 0 0 0.3 0"/>
<feBlend mode="normal" in2="BackgroundImageFix" result="effect1_dropShadow_2808_2888"/>
<feBlend mode="normal" in="SourceGraphic" in2="effect1_dropShadow_2808_2888" result="shape"/>
</filter>
<filter id="filter1_d_2808_2888" x="27" y="155" width="248" height="26" filterUnits="userSpaceOnUse" color-interpolation-filters="sRGB">
<feFlood flood-opacity="0" result="BackgroundImageFix"/>
<feColorMatrix in="SourceAlpha" type="matrix" values="0 0 0 0 0 0 0 0 0 0 0 0 0 0 0 0 0 0 127 0" result="hardAlpha"/>
<feOffset dx="1" dy="1"/>
<feGaussianBlur stdDeviation="5"/>
<feComposite in2="hardAlpha" operator="out"/>
<feColorMatrix type="matrix" values="0 0 0 0 0 0 0 0 0 0 0 0 0 0 0 0 0 0 0.3 0"/>
<feBlend mode="normal" in2="BackgroundImageFix" result="effect1_dropShadow_2808_2888"/>
<feBlend mode="normal" in="SourceGraphic" in2="effect1_dropShadow_2808_2888" result="shape"/>
</filter>
<radialGradient id="paint0_radial_2808_2888" cx="0" cy="0" r="1" gradientUnits="userSpaceOnUse" gradientTransform="translate(150 154.396) rotate(90) scale(67.4153 124.368)">
<stop offset="0.325" stop-color="#E2ACA5"/>
<stop offset="0.555" stop-color="#FCE4DF"/>
<stop offset="0.99" stop-color="#CD8E8D"/>
</radialGradient>
<radialGradient id="paint1_radial_2808_2888" cx="0" cy="0" r="1" gradientUnits="userSpaceOnUse" gradientTransform="translate(151.206 137.768) rotate(90) scale(69.3351 123.744)">
<stop offset="0.325" stop-color="#E2ACA5"/>
<stop offset="0.625" stop-color="#FCE4DF"/>
<stop offset="0.99" stop-color="#CD8E8D"/>
</radialGradient>
</defs>
</svg>
