<svg width="348" height="377" xmlns="http://www.w3.org/2000/svg">

 <g>
  <title>background</title>
  <rect fill="none" id="canvas_background" height="379" width="350" y="-1" x="-1"/>
 </g>
 <g>
  <title>Layer 1</title>
  <path id="svg_1" fill-opacity="0.6" fill="#503131" d="m0.400337,318.39c-0.259638,0.42 -0.050913,1.585 0.173898,2.061c0.391286,0.808 1.424975,1.909 2.164955,2.419c0.43975,0.317 0.94192,0.526 1.3769,0.516c24.47591,-0.301 48.85221,17.411 72.17831,29.948c25.8326,13.875 54.0686,21.089 80.3026,24.584c27.728,3.677 57.122,5.294 82.708,0.136c18.779,-3.777 41.724,-4.837 54.391,-19.529c0.949,-1.114 2.337,-0.711 3.383,0.878c6.956,10.644 18.353,14.945 26.807,24.814c13.792,16.136 21.449,36.492 25.744,55.828c3.702,16.69 5.055,32.96 7.686,49.55c2.146,13.51 6.221,27.171 11.21,40.571c0.649,1.736 1.282,3.215 1.382,3.307c0.109,0.106 0.772,1.604 1.442,3.325c2.473,6.436 4.239,12.856 4.184,19.336c-0.042,5.042 -1.483,9.751 -1.122,14.888c0.575,8.106 4.902,14.375 12.635,17.053c1.206,0.414 2.266,0.564 3.197,0.498c1.549,-0.108 2.55,-0.723 2.588,-0.585c0.038,0.137 0.691,1.643 1.472,3.344c6.494,14.153 13.232,28.187 20.157,41.939c8.972,17.81 51.168,190.704 62.748,207.977c1.046,1.567 2.815,2.187 3.921,1.371c1.095,-0.808 1.106,-2.742 0.04,-4.295c-14.074,-20.609 -58.371,-196.714 -69.066,-219.257c-5.084,-10.7 -10.277,-21.506 -15.378,-32.38c-0.801,-1.707 -1.122,-4.348 -1.155,-6.063c-0.021,-1.165 -0.183,-2.391 -0.487,-3.595c-0.01,-0.056 -0.029,-0.103 -0.038,-0.159c-0.039,-0.095 0.567,1.218 1.307,2.928c1.687,3.828 3.354,7.629 4.97,11.447c9.098,21.258 18.08,42.809 29.669,63.243c6.182,10.904 45.51,175.541 52.345,186.087c0.03,0.041 0.06,0.081 0.079,0.129c0.05,0.067 0.754,-0.371 1.573,-0.975c0.829,-0.612 0.727,-2.421 -0.226,-4.077c-3.059,-5.28 -38.395,-164.83 -41.27,-170.182c-0.659,-1.225 -1.195,-2.552 -1.521,-3.396c-0.176,-0.459 -0.304,-0.703 -0.556,-1.125c-0.148,-0.245 -0.418,-0.67 -0.595,-0.895c-0.061,-0.079 -0.123,-0.158 -0.188,-0.238c-0.248,-0.314 -1.162,-1.937 -2.015,-3.607c-6.743,-13.119 -13.017,-26.44 -18.916,-39.83c-3.93,-8.923 -7.809,-17.862 -11.616,-26.855c-0.73,-1.717 -1.331,-3.303 -1.418,-3.549c-0.039,-0.138 -0.117,-0.287 -0.205,-0.449c-0.069,-0.115 -0.128,-0.238 -0.187,-0.36c-0.107,-0.21 -0.77,-1.75 -1.5,-3.468c-8.37,-20.036 -16.271,-40.231 -23.02,-60.47c-11.492,-34.378 -20.716,-68.981 -29.192,-103.557c-0.199,-0.805 -0.398,-1.632 -0.587,-2.445c-0.322,-1.357 -0.686,-3.863 -1.102,-5.605c-0.019,-0.069 -0.028,-0.145 -0.057,-0.227c-0.426,-1.756 -1.25,-4.586 -1.646,-6.343c-5.185,-23.07 -10.571,-47.461 -24.086,-68.234c-0.217,-0.337 -0.455,-0.596 -0.705,-0.805c-0.449,-0.373 -0.361,-0.789 0.243,-1.214c0.603,-0.425 1.074,-0.793 1.094,-0.767c0.02,0.027 0.325,-0.053 0.691,-0.178c0.366,-0.125 0.989,-0.502 1.379,-0.852c0.39,-0.35 0.925,-0.911 1.194,-1.275c0.268,-0.364 0.879,-1.85 1.479,-3.266c5.657,-13.286 20.374,-20.981 29.055,-31.219c7.001,-8.274 14.191,-16.355 20.276,-25.527c3.535,-5.321 7.73,-12.02 8.59,-19.488c0.188,-1.63 1.299,-3.402 2.702,-3.858c4.321,-1.408 8.581,-2.834 12.631,-4.395c35.544,-13.646 67.814,-47.28 57.046,-96.356c-0.018,-0.111 -0.2,-0.143 -0.171,-0.04c6.536,26.442 -3.028,47.416 -17.129,63.187c-6.963,7.789 -14.497,15.918 -23.512,21.164c-9.698,5.626 -20.416,9.272 -31.223,12.817c-0.304,0.101 -0.62,0.21 -0.945,0.305c-0.518,0.176 -1.476,0.013 -2.044,0.101c-0.335,0.06 -0.591,0.27 -0.689,0.674c0,0.021 0,0.042 -0.021,0.057c-0.01,0.028 -1.159,0.421 -2.563,0.897c-17.394,5.654 -37.44,12.727 -45.387,30.023c-8.062,17.567 -4.148,41.078 -16.163,56.076c-0.052,0.058 -0.083,0.123 -0.125,0.195c-0.052,0.122 -0.084,0.207 -0.094,0.173c-0.01,-0.014 0.654,-1.042 1.404,-2.34c5.348,-9.27 6.202,-18.845 7.011,-28.139c1.973,-22.348 4.008,-45.467 71.005,-64.357c34.661,-9.765 56.955,-41.212 61.081,-67.22c1.758,-11.07 0.284,-21.164 -4.101,-28.819c-0.944,-1.643 -1.946,-2.829 -2.017,-2.776c-0.072,0.053 -0.144,0.106 -0.144,0.106l-0.201,-0.079c-0.11,-0.043 -0.264,0.712 -0.431,1.664c-0.1,0.571 -0.211,1.129 -0.361,1.675c-5.075,23.478 -35.305,30.593 -54.301,37.14c-7.85,2.709 -15.644,5.646 -23.182,9.015c-1.334,0.591 -2.593,-0.322 -2.777,-2.071c-0.624,-5.793 -0.985,-11.551 -1.044,-17.223c0.089,-7.333 -0.382,-14.977 -1.855,-22.649c-1.442,-7.673 -3.794,-15.4 -6.927,-22.923c-3.123,-7.53 -7.018,-14.842 -11.393,-21.862c-3.666,-5.9083 -7.658,-11.5748 -11.825,-17.1128c-1.138,-1.5205 -1.108,-1.5431 0.082,-0.0605c2.705,3.3657 5.31,6.7232 7.723,10.0774c11.32,15.7869 18.877,32.3229 23.367,50.2949c2.269,9.071 4.007,17.789 3.592,26.502c-0.221,4.884 -1.065,10.104 0.691,15.31c0.067,0.198 0.438,0.401 0.432,0.136c-0.139,-6.958 1.688,-13.566 1.185,-20.566c-0.494,-6.903 -1.532,-13.922 -3.268,-20.944c-3.51,-14.202 -8.239,-28.642 -16.611,-41.698c-17.869,-27.8291 -47.837,-52.8563 -56.57,-84.7164c-0.058,-0.1852 -0.125,-0.3628 -0.214,-0.5254c-0.157,-0.2773 -0.898,-0.0821 -1.584,0.3822c-0.695,0.4718 -1.238,0.9141 -1.219,0.9829c0.029,0.0821 -0.055,0.2892 -0.209,0.4025c-0.163,0.1209 -0.307,0.2476 -0.298,0.3239c0.009,0.0763 -0.716,1.0872 -1.505,2.353c-2.43,3.9475 -4.014,8.636 -4.996,13.6886c-0.309,1.5739 -1.117,1.5076 -2.01,-0.1522c-0.598,-1.132 -1.257,-2.2606 -1.987,-3.4201c-1.005,-1.5977 -1.953,-2.9682 -2.022,-3.1249c-0.039,-0.0746 -0.078,-0.1702 -0.137,-0.2506c-5.662,-8.7414 -14.5,-14.9313 -22.994,-19.26294c-5.215,-2.65236 -11.783,-6.02437 -17.837,-7.49892c-1.621,-0.39746 -3.325,-0.692538 -3.818,-0.846298c-0.483,-0.161336 -0.887,-0.194488 -0.879,-0.07628c-0.001,0.104785 -0.074,0.199589 -0.175,0.19132c-0.05,-0.004152 -0.101,-0.008306 -0.161,-0.004883c-0.587,0.019007 -1.164,0.051439 -1.741,0.062906c-0.961,0.026086 -1.69,0.087958 -1.621,0.223705c0.078,0.14913 0.102,0.5247 0.259,0.823c0.157,0.29828 0.908,1.35886 1.354,2.54131c0.272,0.71061 0.483,1.42464 0.572,2.1455c1.103,7.98558 3.423,15.81898 3.798,23.78268c0.667,14.3127 -2.741,26.7047 -4.437,40.1731c-2.487,19.8294 -3.504,48.6773 15.547,66.6473c0.07,0.073 0.16,0.131 0.26,0.181c0.14,0.083 0.733,1.529 1.302,3.263c0.289,0.884 0.588,1.761 0.877,2.645c0.588,1.74 0.666,2.573 0.192,1.867c-0.286,-0.431 -0.582,-0.875 -0.879,-1.298c-27.675,-39.743 -60.864,-73.7607 -98.944,-101.1239c-0.48,-0.3499 -0.894,-0.3965 -1.189,-0.2612c-0.571,0.2554 -0.501,0.9704 -0.521,0.9226c-0.009,-0.0343 -0.039,-0.0745 -0.069,-0.0728c-0.031,0.0017 -0.08,-0.0653 -0.13,-0.1324c-0.039,-0.0745 -0.089,-0.1206 -0.129,-0.1113c-0.031,0.0017 -0.081,-0.0234 -0.121,-0.0561c-0.05,-0.046 -0.09,-0.0577 -0.121,-0.0351c-0.03,0.0227 -0.061,0.0244 -0.081,0.0185c-0.02,-0.0058 -0.081,0.0395 -0.123,0.1326c-0.042,0.0931 -0.017,-0.2154 -0.347,-0.4272c-0.21,-0.1347 -0.453,-0.163 -0.557,0.0383c-0.042,0.0721 -0.073,0.1577 -0.136,0.3078c-6.038,11.8068 1.356,28.4217 7.23,42.1208c4.286,9.9843 9.121,19.8124 13.236,29.8204c0.019,0.027 0.019,0.048 0.019,0.069c0.019,0.047 -0.56,-0.395 -1.309,-0.96c-0.75,-0.565 -1.379,-1.053 -1.428,-1.12c-0.02,-0.027 -0.05,-0.067 -0.09,-0.1c-6.063,-5.815 -12.988,-9.007 -19.999,-11.907c-1.986,-0.9772 -3.962,-1.941 -5.95,-2.8554c-1.636,-0.7596 -3.261,-1.5267 -4.897,-2.2863c-1.596,-0.7479 -4.12,-2.1974 -5.588,-3.3294c-8.119,-6.2651 -15.298,-14.9632 -24.072,-18.2811c-0.924,-0.3528 -1.274,0.6091 -0.568,1.3721c0.049,0.046 0.099,0.0921 0.139,0.1457c0.079,0.0862 0.129,0.1533 0.108,0.1684c-0.02,0.0151 -0.03,0.0226 -0.03,0.0226c0,0 -0.051,0.0169 -0.123,0.0488c-0.061,0.0244 -0.444,-0.6241 -1.069,-0.7425c-0.393,-0.0826 -0.72,0.0962 -0.587,0.6402c5.429,23.6142 13.722,47.1029 24.432,69.9239c0.792,1.694 0.434,1.916 -0.951,0.661c-6.946,-6.282 -15.279,-8.662 -24.059,-9.76c-2.593,-0.321 -12.5152,-2.688 -19.2395,-2.694c-1.5673,-0.003 -2.6021,0.823 -2.4227,1.602c0.1893,0.792 -0.1345,1.424 -0.6507,1.453c-0.526,0.016 -0.9221,0.122 -0.8938,0.246c0.0283,0.124 -0.014,0.238 -0.1058,0.285c-0.0815,0.039 0.496,1.207 1.3636,2.575c0.8777,1.361 1.9793,3.882 2.7502,5.59c1.5618,3.444 3.9764,6.673 6.6336,9.908c7.1791,8.719 12.8561,14.654 14.7171,24.565c0.315,1.756 -0.797,2.369 -2.35,1.445c-3.685,-2.229 -7.2937,-4.141 -10.433,-5.717c-8.2544,-4.156 -23.247,-11.187 -32.0229,-8.167c-1.4032,0.477 -2.4663,1.178 -2.5977,1.172c-0.1215,0.007 -1.3025,-0.115 -2.6358,-0.208c-1.3234,-0.079 -2.3568,0.042 -2.3192,0.221c0.0375,0.179 0.0739,0.422 0.1026,0.525c0.0386,0.116 -1.0532,-0.527 -1.9621,0.019c-0.5209,0.323 -0.7543,0.992 -0.3449,1.932c3.178,7.262 9.0298,14.269 12.6408,21.646c4.677,9.592 9.2619,19.253 14.2033,28.753c7.1377,13.719 16.3587,26.19 25.8859,38.455c4.306,6.305 8.766,12.497 13.409,18.574c1.159,1.505 0.837,1.991 -0.747,1.151c-13.154,-6.917 -28.3719,-10.655 -39.3423,-13.821c-14.4325,-4.172 -29.2759,-4.853 -43.5702,-11.923c-7.6737,-3.798 -12.7043,-9.071 -19.2534,-14.859c-1.5352,-1.352 -2.9323,-2.495 -4.6436,-2.35c-0.4861,0.048 -0.7345,0.397 -0.813,0.869c-0.0113,0.071 -0.0328,0.149 -0.0341,0.233c-0.0222,0.12 -0.1054,0.264 -0.1972,0.311c-0.0816,0.039 -0.2552,0.147 -0.3982,0.232c-0.1429,0.084 0.5629,1.448 1.5986,3.044c0.4538,0.7 0.9075,1.401 1.3513,2.087c1.0357,1.596 2.1185,3.406 2.3809,4.061c0.1654,0.396 0.3308,0.792 0.4861,1.195c0.0679,0.177 0.1658,0.374 0.2736,0.584c0.1668,0.312 0.8487,1.279 1.4918,2.15c0.6431,0.871 1.2568,1.681 1.3762,1.8c0.0798,0.066 0.1494,0.138 0.2292,0.204c0.1795,0.157 0.3184,0.324 0.4268,0.492c0.1972,0.31 1.1634,1.833 2.3014,3.354c8.45,11.383 17.1417,22.816 26.5558,33.364c1.2613,1.409 1.1363,2.868 -0.2863,3.297c-7.7531,2.306 -15.3012,5.061 -22.5446,8.358c-4.6252,2.109 -9.5746,4.251 -14.2667,6.741c-1.2852,0.68 -3.42536,1.7 -4.71089,2.401c-1.19377,0.653 -2.32852,1.408 -3.37422,2.283c-1.11735,0.929 -2.27885,1.749 -2.65789,2.05c-0.23541,0.174 -0.64257,0.488 -0.84795,0.681c-0.15387,0.134 -0.401857,0.552 -0.465317,0.723c-0.428234,1.096 -0.320496,0.817 -0.320496,0.817zm354.785663,-56.52c1.33,-0.94 2.71,-1.813 4.109,-2.66c1.256,-0.74 1.792,-0.163 1.103,1.195c-4.431,8.799 -10.838,16.613 -17.131,24.218c-1.66,2.013 -3.322,4.047 -4.963,6.086c-0.919,1.155 -1.479,0.782 -1.22,-0.838c0.113,-0.684 0.235,-1.354 0.357,-2.024c0.309,-1.594 1.326,-3.794 2.205,-5.002c0.538,-0.728 1.086,-1.464 1.624,-2.213c3.587,-4.801 7.196,-9.702 10.395,-14.9c0.809,-1.239 2.335,-3.028 3.521,-3.862zm-10.784,23.883c6.788,-8.219 13.731,-16.657 18.187,-26.386c0.639,-1.383 2.164,-3.088 3.478,-3.706c0.653,-0.316 1.325,-0.605 1.987,-0.907c1.334,-0.592 2.273,-0.477 2.069,0.253c-0.129,0.426 -0.257,0.852 -0.396,1.286c-4.058,12.645 -13.981,23.365 -23.575,33.738c-2.944,3.188 -5.919,6.398 -8.733,9.697c-0.949,1.114 -1.579,0.71 -1.421,-0.918c0.168,-1.636 1.034,-3.89 1.943,-5.058c2.097,-2.728 4.274,-5.37 6.461,-7.999zm26.688,-28.664c0.223,-0.683 0.427,-1.371 0.62,-2.052c0.332,-1.136 1.689,-2.51 3.062,-3.027c0.611,-0.244 1.242,-0.482 1.862,-0.691c1.394,-0.511 2.269,0.375 1.88,1.925c-0.27,1.07 -0.561,2.133 -0.891,3.184c-1.003,3.226 -2.207,6.35 -3.591,9.339c-1.403,2.94 -3.106,5.688 -4.958,8.298c-7.521,10.355 -17.13,18.607 -26.114,27.536c-2.179,2.147 -4.318,4.347 -6.407,6.593c-0.989,1.082 -1.62,0.761 -1.444,-0.735c0.176,-1.497 1.03,-3.66 1.979,-4.774c3.249,-3.91 6.728,-7.679 10.187,-11.412c9.676,-10.497 19.671,-21.311 23.815,-34.184zm-30.977,21.933c0.241,-0.551 0.513,-1.083 0.794,-1.602c1.897,-3.428 4.16,-6.424 6.701,-9.087c1.009,-1.054 1.237,-0.83 0.408,0.403c-2.498,3.749 -5.166,7.354 -7.812,10.923c-0.125,0.174 -0.259,0.356 -0.393,0.517c-0.207,0.277 -0.107,-0.252 0.302,-1.154zm10.538,19.097c-4.877,4.574 -10.035,8.94 -14.655,13.841c-0.998,1.068 -1.724,1.562 -1.646,1.069c0.079,-0.493 0.929,-1.783 1.918,-2.864c2.439,-2.629 4.958,-5.151 7.527,-7.647c9.032,-8.821 18.662,-17.088 26.315,-27.52c1.893,-2.619 3.627,-5.39 5.072,-8.424c1.404,-3.024 2.639,-6.171 3.663,-9.454c0.448,-1.428 0.856,-2.888 1.194,-4.38c0.369,-1.556 1.284,-3.101 2.169,-3.402c0.885,-0.301 1.242,0.698 0.733,2.171c-6.251,18.736 -19.001,34.151 -32.29,46.61zm-32.198,-51.355c-0.137,0.35 -0.274,0.7 -0.411,1.049c-0.407,0.777 -0.815,1.575 -1.201,2.357c-0.659,1.314 -0.678,1.246 -0.049,-0.151c0.347,-0.773 0.703,-1.554 1.07,-2.321c0.659,-1.377 1.066,-2.133 0.907,-1.705c-0.105,0.264 -0.21,0.528 -0.316,0.771zm47.465,-54.456c-0.98,0.516 -2.025,-0.494 -2.34,-2.249c-1.732,-9.758 -3.32,-20.864 -3.629,-34.757c-0.865,-37.523 -21.372,-66.6344 -37.857,-90.0392c-2.56,-3.6391 -5.04,-7.1711 -7.371,-10.6067c-1.066,-1.5733 -1.025,-1.6035 0.093,-0.068c2.64,3.6206 5.451,7.3433 8.362,11.1791c18.392,24.2538 41.279,54.4458 41.705,94.0108c0.084,10.953 1.046,20.203 2.297,28.432c0.274,1.764 -0.281,3.582 -1.26,4.098zm-4.683,2.545c-0.96,0.543 -1.883,0.106 -2.088,-0.985c-0.12,-0.656 -0.241,-1.313 -0.362,-1.969c-2.149,-11.417 -4.567,-24.354 -5.209,-41.46c-1.312,-34.81 -18.485,-61.3312 -33.635,-84.7273c-3.354,-5.1649 -6.549,-10.1154 -9.394,-14.8902c-0.964,-1.6279 -0.913,-1.6447 0.112,-0.0621c3.167,4.8893 6.714,9.9316 10.421,15.1884c17.177,24.385 36.656,52.0392 37.499,89.0192c0.332,14.353 1.996,25.755 3.795,35.753c0.315,1.755 -0.19,3.598 -1.139,4.133zm-4.574,2.693c-0.94,0.59 -1.926,-0.359 -2.231,-2.101c-0.546,-3.138 -1.151,-6.294 -1.766,-9.547c-2.133,-11.201 -4.565,-23.879 -5.45,-40.308c-1.742,-32.05 -16.471,-57.1034 -29.469,-79.1896c-3.866,-6.5669 -7.527,-12.7895 -10.574,-18.7813c-0.852,-1.6691 -0.791,-1.6935 0.143,-0.0429c3.371,5.9597 7.395,12.1827 11.626,18.7292c15.022,23.2008 32.057,49.4926 33.337,83.8506c0.649,17.225 3.086,30.23 5.235,41.689c0.149,0.78 0.288,1.568 0.427,2.335c0.252,1.284 -0.329,2.789 -1.278,3.366zm-4.497,2.905c-0.941,0.632 -1.887,-0.243 -2.141,-2.001c-0.92,-6.258 -2.116,-12.249 -3.341,-18.406c-2.308,-11.59 -4.691,-23.579 -5.84,-39.338c-2.133,-29.153 -14.471,-52.6158 -25.378,-73.3049c-4.168,-7.918 -8.082,-15.3617 -11.04,-22.4544c-0.72,-1.7253 -0.649,-1.7364 0.173,-0.0446c3.334,6.9598 7.604,14.223 12.16,21.9587c12.899,21.9312 27.52,46.7742 29.238,78.4482c0.884,16.514 3.335,29.26 5.487,40.509c0.671,3.522 1.313,6.92 1.895,10.3c0.285,1.778 -0.262,3.694 -1.213,4.333zm-4.419,3.096c-0.921,0.68 -1.797,-0.164 -2.011,-1.911c-1.169,-9.594 -2.989,-18.272 -4.894,-27.281c-2.422,-11.506 -4.948,-23.411 -6.37,-38.49c-2.466,-26.112 -12.477,-47.773 -21.317,-66.8822c-4.327,-9.3748 -8.361,-18.0962 -11.047,-26.3836c-0.568,-1.7549 -0.477,-1.76 0.193,-0.0178c3.095,7.9643 7.48,16.3029 12.198,25.244c10.818,20.5475 23.078,43.8406 25.186,72.6806c1.157,15.835 3.55,27.859 5.867,39.503c1.271,6.392 2.514,12.639 3.449,19.175c0.245,1.745 -0.343,3.691 -1.254,4.363zm-4.188,3.216c-0.83,0.675 -1.496,1.208 -1.496,1.166c0.001,-0.021 0.001,-0.042 0.001,-0.063c-1.38,-14.552 -4.068,-26.441 -6.927,-39.032c-2.603,-11.496 -5.311,-23.39 -7.027,-37.819c-2.713,-22.762 -10.483,-42.3496 -17.33,-59.6164c-4.39,-11.0674 -8.43,-21.2749 -10.609,-30.9101c-0.396,-1.7575 -0.295,-1.7493 0.222,0.0015c2.684,9.0344 7.07,18.5316 11.817,28.7971c8.78,19.0078 18.743,40.5389 21.183,66.4009c1.431,15.156 3.956,27.103 6.387,38.643c1.963,9.257 3.809,18.164 4.972,28.072c0.184,1.749 -0.353,3.678 -1.193,4.36zm-3.866,3.288c-0.77,0.693 -1.424,-0.129 -1.547,-1.86c-0.179,-2.705 -0.486,-5.543 -0.933,-8.505c-2,-13.184 -4.864,-24.818 -7.633,-36.089c-2.844,-11.607 -5.813,-23.62 -7.853,-37.437c-2.796,-18.89 -8.415,-35.8423 -13.368,-50.7796c-4.405,-13.2721 -8.414,-25.3869 -9.866,-36.7798c-0.214,-1.7469 -0.113,-1.7386 0.242,0.0282c2.087,10.2825 6.39,21.1454 11.081,32.9845c6.828,17.1981 14.549,36.6767 17.244,59.2657c1.736,14.497 4.433,26.42 7.056,37.964c2.839,12.543 5.528,24.39 6.91,38.858c0.017,0.194 0.024,0.376 0.051,0.562c0.015,0.3 -0.604,1.088 -1.384,1.788zm-3.655,3.402c-0.442,0.409 -0.863,0.824 -1.285,1.259c-0.02,0.015 -0.041,0.051 -0.072,0.074c-0.041,0.03 -0.019,-1.29 -0.022,-2.986c-0.022,-6.092 -0.712,-12.789 -2.278,-20.309c-2.429,-11.645 -5.279,-22.275 -8.043,-32.575c-3.356,-12.494 -6.52,-24.3 -8.962,-37.634c-2.544,-13.921 -5.949,-26.4813 -9.259,-38.6353c-4.522,-16.6437 -8.615,-31.6783 -8.982,-45.7147c-0.043,-1.7076 0.068,-1.6859 0.252,0.0416c1.292,11.9255 5.474,24.5959 10.09,38.4982c4.935,14.8896 10.534,31.7732 13.322,50.5662c2.049,13.872 5.018,25.906 7.871,37.548c2.76,11.236 5.624,22.87 7.604,35.985c0.512,3.35 0.804,6.509 0.977,9.529c0.063,1.734 -0.504,3.664 -1.213,4.353zm-3.754,3.869c-0.752,0.803 -1.186,0.129 -1.068,-1.532c0.635,-9.144 -0.265,-19.681 -3.686,-32.478c-2.545,-9.489 -5.19,-18.47 -7.758,-27.155c-3.996,-13.553 -7.771,-26.358 -10.758,-39.724c-1.32,-5.88 -2.673,-11.611 -3.978,-17.1279c-5.553,-23.4817 -10.499,-44.4708 -9.074,-63.6403c0.118,-1.6608 0.229,-1.6182 0.262,0.076c0.189,14.4373 4.376,29.8783 9.032,46.9821c3.301,12.1197 6.706,24.6591 9.241,38.5251c2.441,13.375 5.615,25.216 8.97,37.73c2.765,10.28 5.615,20.91 8.025,32.508c1.659,7.968 2.313,15.001 2.25,21.364c-0.028,1.676 -0.717,3.676 -1.458,4.472zm-3.833,4.34c-0.794,0.959 -1.16,0.463 -0.891,-1.143c1.976,-12.04 1.41,-26.323 -4.892,-45.38l-2.496,-7.579c-18.329,-55.421 -32.167,-97.2407 -25.179,-133.8719c0.299,-1.5872 0.41,-1.5445 0.251,0.1046c-1.839,19.7441 3.23,41.3056 8.953,65.5106c1.305,5.5177 2.648,11.2347 3.977,17.1277c2.997,13.4 6.772,26.226 10.788,39.806c2.558,8.672 5.213,17.645 7.758,27.134c3.574,13.347 4.347,24.227 3.526,33.632c-0.158,1.629 -1.001,3.7 -1.795,4.659zm-4.192,5.31c-0.31,0.415 -0.61,0.844 -0.921,1.259c-0.859,1.214 -1.345,1.262 -1.123,0.084c0.201,-1.184 0.992,-3.176 1.581,-4.605c4.926,-11.856 0.44,-32.543 -2.892,-45.84c-3.561,-14.185 -8.46,-28.148 -13.206,-42.162c-0.516,-1.814 -1.023,-3.614 -1.529,-5.435c-3.227,-11.698 -5.847,-23.409 -8.78,-35.1797c-0.703,-2.7943 -1.446,-5.6003 -2.219,-8.4045c-0.487,-1.7524 -1.108,-4.5862 -1.353,-6.3313c-0.434,-3.1165 -0.819,-6.2078 -1.143,-9.2816c-1.748,-16.2063 -2.972,-34.7662 3.542,-47.8772c0.68,-1.3713 0.899,-1.2021 0.45,0.3098c-11.894,39.2172 2.762,83.5795 22.777,144.1345l2.505,7.572c6.543,19.831 6.83,34.445 4.526,46.767c-0.309,1.595 -1.346,3.789 -2.215,4.99zm-133.352,-67.238c-0.067,-0.261 -0.143,-0.515 -0.2,-0.763c-0.781,-3.565 -1.602,-7.183 -2.595,-10.757c-1.946,-7.177 -4.327,-14.323 -7.023,-21.403c-5.34,-14.175 -12.031,-27.996 -18.206,-41.8666c-1.51,-3.4817 -3.082,-6.9391 -4.319,-10.4571c-0.943,-3.5695 -2.444,-7.0169 -3.428,-10.5351c-1.025,-3.4881 -1.806,-7.0317 -2.114,-10.4694c-0.164,-1.7427 0.098,-1.6876 0.565,0.059c2.744,10.3362 9.449,22.6764 17.392,37.2503c9.759,17.9129 20.834,38.2299 27.971,61.2869c2.776,8.946 8.677,17.862 14.086,25.382c2.254,3.14 4.62,6.302 6.896,9.343c6.828,9.122 13.291,17.749 16.939,25.905c4.391,9.783 8.709,19.703 12.89,29.31c0.02,0.047 0.029,0.082 0.049,0.109c0.029,0.061 -1.213,-0.658 -2.765,-1.562c-3.036,-1.756 -6.123,-3.411 -9.223,-4.912c-1.585,-0.776 -3.454,-2.751 -4.235,-4.452c-0.742,-1.627 -1.545,-3.25 -2.398,-4.877c-0.873,-1.675 -2.184,-4.372 -2.905,-6.056c-0.438,-1.001 -0.877,-2.002 -1.326,-3.017c-1.692,-3.514 -3.761,-6.831 -5.953,-10.058c-4.395,-6.426 -9.272,-12.475 -13.904,-18.643c-0.455,-0.617 -0.92,-1.226 -1.385,-1.856c-0.752,-1.019 -2.153,-3.173 -3.097,-4.816c-3.471,-6.031 -6.668,-12.14 -9.934,-18.343c-0.842,-1.677 -1.664,-3.369 -1.778,-3.802zm-83.63,-20.246c8.912,1.705 16.378,4.559 22.057,7.946c1.552,0.925 3.379,2.351 4.115,3.091c0.726,0.748 1.488,1.801 1.742,2.338c0.156,0.32 0.293,0.633 0.449,0.952c0.334,0.645 0.647,1.283 0.98,1.948c0.538,1.073 0.593,1.447 0.118,0.824c-0.287,-0.367 -0.564,-0.743 -0.852,-1.111c-5.558,-7.016 -17.185,-12.721 -31.079,-15.821c-1.622,-0.355 -2.457,-0.588 -1.861,-0.551c0.353,0.029 0.707,0.037 1.07,0.079c1.081,0.093 2.171,0.199 3.261,0.305zm213.322,86.189c-0.002,0.168 0.055,0.353 0.164,0.521c0.177,0.283 0.184,1.749 -0.115,3.336c-0.067,0.381 -0.144,0.748 -0.221,1.115c-0.329,1.568 -1.286,3.848 -2.075,5.114c-1.133,1.892 -2.237,3.825 -3.27,5.789c-0.709,1.331 -0.98,1.178 -0.691,-0.422c5.04,-28.733 -4.647,-61.628 -14.095,-93.643c-2.788,-9.454 -5.672,-19.252 -8.097,-28.685c-2.196,-8.567 -3.833,-16.697 -5.403,-24.5652c-5.516,-27.6088 -10.378,-51.89 -36.498,-80.9582c-1.262,-1.4089 -1.189,-1.5036 0.175,-0.2123c2.519,2.3851 4.977,4.8364 7.362,7.3826c5.24,6.1129 10.048,12.606 14.214,19.4493c9.295,15.3354 12.533,28.8476 15.838,45.0641c0.131,0.6487 1.007,0.9136 1.137,0.3409c0.383,-1.7524 0.545,-3.6112 0.536,-5.5301c-0.003,-1.6959 0.27,-1.6903 0.737,0.0563c1.65,6.0703 2.92,11.9037 3.974,17.3375c0.326,1.7476 0.686,3.1791 0.778,3.1741c0.101,0.008 0.482,1.425 0.857,3.197c0.744,3.364 1.549,6.746 2.424,10.117c3.891,15.039 9.613,29.947 14.354,44.938c0.64,2.303 1.29,4.597 1.91,6.894c3.126,11.689 5.796,23.426 6.973,34.981c0.184,1.748 0.317,3.493 0.41,5.225c-0.232,6.798 -1.365,13.038 -1.378,19.984zm-30.713,-170.2673c0.028,1.3874 -0.423,1.1196 -1.102,-0.6151c-6.067,-15.4819 -16.886,-32.9234 -38.266,-46.95861c-1.531,-1.0028 -2.742,-1.74435 -2.702,-1.73266c0.04,0.01171 1.343,0.70622 2.906,1.60252c21.819,12.55175 32.155,27.94735 37.932,42.04975c0.69,1.7271 1.204,4.2667 1.232,5.6541zm17.6,194.3373c0.364,-3.727 -0.541,-7.78 -2.101,-11.929c-0.649,-1.736 -1.564,-4.54 -1.94,-6.291c-4.463,-20.849 -11.881,-44.052 -19.145,-66.767c-5.628,-17.628 -11.458,-35.874 -15.717,-52.483c-3.689,-14.3596 -4.347,-26.1322 -4.99,-37.5008c-1.043,-18.5493 -2.039,-36.2007 -17.033,-61.1201c-0.975,-1.6203 -0.852,-1.711 0.297,-0.1981c20.262,26.787 23.118,46.9792 26.333,69.9082c1.424,10.0685 2.882,20.4628 5.896,32.2148c3.08,11.993 6.948,24.709 10.681,37.006c10.537,34.67 21.391,70.389 18.098,99.344c-0.179,1.643 -0.506,2.485 -0.658,1.915c-0.153,-0.571 -0.276,-1.06 -0.285,-1.136c0.011,-0.05 0.405,-1.314 0.564,-2.963zm-6.744,-14.942c1.215,3.617 2.32,7.171 3.345,10.659c0.507,2.4 0.862,4.809 0.964,7.239c0.017,0.237 0.124,0.468 0.283,0.662c0.267,0.319 0.648,1.178 0.724,2.095c0.086,0.909 -0.317,0.234 -0.876,-1.508c-3.099,-9.597 -6.788,-20.229 -10.791,-31.479c-0.619,-1.738 -0.406,-1.792 0.467,-0.138c2.158,4.123 4.203,8.286 5.884,12.47zm-51.143,-220.2238c25.472,28.5114 30.269,52.4263 35.701,79.6c1.58,7.9028 3.206,16.0618 5.422,24.6758c2.424,9.475 5.328,19.278 8.126,28.767c10.693,36.273 21.732,73.678 11.014,104.614c-0.509,1.473 -0.78,1.321 -0.612,-0.315c3.135,-29.149 -7.699,-64.82 -18.217,-99.442c-3.733,-12.277 -7.592,-24.958 -10.663,-36.916c-2.985,-11.649 -4.454,-22.0151 -5.868,-32.0282c-3.18,-22.6029 -5.999,-42.5739 -25.16,-68.7039c-1.117,-1.5565 -1.004,-1.6605 0.257,-0.2517zm37.248,192.3818c0.637,1.29 1.293,2.586 1.96,3.875c0.862,1.682 2.091,4.44 2.71,6.178c4.825,13.521 9.309,26.279 12.937,37.578c0.558,1.741 0.253,1.821 -0.66,0.176c-13.504,-24.507 -27.956,-57.26 -39.897,-89.589c-0.639,-1.744 -0.354,-1.83 0.6,-0.195c8.109,13.727 15.471,27.922 22.35,41.977zm-14.092,-170.05c-5.047,-7.9942 -11.159,-15.7611 -18.626,-22.9424c-1.354,-1.2989 -1.333,-1.3559 0.062,-0.1082c13.166,11.7537 22.008,25.1674 28.132,38.4336c0.781,1.701 0.72,1.7254 -0.153,0.0505c-2.785,-5.3156 -5.936,-10.4849 -9.415,-15.4335zm19.488,46.3667c0.245,1.6823 0.115,1.6128 -0.332,-0.1489c-0.684,-2.6836 -1.428,-5.4057 -2.253,-8.1722c-0.527,-1.7432 -1.138,-3.9633 -1.375,-4.9481c-0.247,-0.9772 0.067,-0.3806 0.675,1.365c0.667,1.8889 1.293,3.8081 1.909,5.7138c0.548,1.749 1.14,4.5216 1.376,6.1904zm-47.123,-76.18032c0.189,0.17082 -0.03,0.00165 -0.489,-0.38436c-0.459,-0.38602 -0.619,-0.51661 -0.349,-0.32237c0.28,0.20763 0.639,0.52248 0.838,0.70673zm45.097,55.95542c0.078,1.4125 -0.272,1.1529 -0.881,-0.5927c-6.045,-17.4445 -16.787,-37.0748 -37.905,-52.93947c-1.479,-1.10346 -1.457,-1.1814 0.063,-0.1501c21.384,14.44677 31.779,32.38667 37.471,47.95947c0.639,1.7439 1.174,4.3103 1.252,5.7228zm0.617,8.0129c0.093,1.1534 -0.101,1.255 -0.479,0.2083c-0.232,-0.636 -0.454,-1.2587 -0.687,-1.8947c-6.048,-19.1195 -16.661,-40.4811 -37.117,-57.8906c-1.416,-1.2116 -1.395,-1.2686 0.073,-0.1367c21.159,16.4766 31.414,36.8184 37.062,54.4527c0.558,1.7415 1.046,4.0941 1.148,5.261zm-52.255,141.1273c-3.776,-8.436 -10.328,-17.183 -17.265,-26.453c-2.276,-3.041 -4.621,-6.176 -6.866,-9.302c-5.27,-7.354 -11.024,-16.006 -13.675,-24.568c-7.234,-23.317 -18.367,-43.756 -28.185,-61.7915c-7.933,-14.5815 -14.629,-26.8663 -17.215,-36.9462c-0.456,-1.7542 -0.122,-1.7729 0.669,-0.0795c3.997,8.521 10.506,18.6038 18.16,30.4509c11.756,18.1983 25.091,38.8343 34.919,62.4323c3.231,7.761 8.283,15.441 14.848,24.592c1.691,2.355 3.402,4.695 5.103,7.021c7.261,9.922 14.105,19.281 18.338,28.229c7.655,16.111 14.539,32.315 20.786,47.375c0.72,1.726 1.084,2.947 0.845,2.752c-0.16,-0.131 -0.3,-0.256 -0.449,-0.373c-4.361,-3.594 -8.807,-6.897 -13.348,-9.922c-1.521,-1.01 -2.986,-2.31 -3.259,-2.937c-0.166,-0.374 -0.331,-0.77 -0.497,-1.144c-4.181,-9.607 -8.509,-19.54 -12.909,-29.336zm-22.498,-10.043c1.376,1.842 2.721,3.707 4.025,5.602c0.809,1.183 1.599,2.381 2.348,3.588c0.995,1.605 0.913,1.645 -0.123,0.07c-2.062,-3.137 -4.206,-6.213 -6.321,-9.207c-1.097,-1.551 -1.067,-1.574 0.071,-0.053zm10.615,24.984c0.542,0.842 1.095,1.676 1.637,2.518c0.908,1.38 0.332,1.971 -1.276,1.356c-1.115,-0.419 -2.231,-0.838 -3.357,-1.228c-1.619,-0.565 -3.775,-2.266 -4.821,-3.854c-1.224,-1.851 -2.448,-3.701 -3.661,-5.56c-8.456,-12.849 -17.199,-26.128 -25.693,-38.535c-22.508,-32.894 -38.31,-51.71 -51.017,-66.825c-5.773,-6.879 -10.782,-12.851 -15.275,-18.8317c-1.138,-1.5204 -1.025,-1.6245 0.256,-0.2308c3.836,4.1465 7.947,8.1525 12.456,12.5475c14.244,13.878 31.942,31.128 57.097,67.865c11.111,16.253 22.565,33.805 33.654,50.778zm-91.363,-71.21c0.684,0.862 1.357,1.732 2.021,2.588c1.098,1.446 2.665,3.975 3.527,5.658c9.596,18.634 20.606,37.984 33.882,54.149c1.21,1.468 1.889,2.602 1.495,2.562c-0.393,-0.041 -1.616,-1.333 -2.724,-2.876c-14.642,-20.459 -22.316,-32.912 -28.187,-42.472c-3.999,-6.511 -7.457,-12.117 -11.847,-18.235c-5.378,-7.501 -18.8,-14.139 -34.9295,-17.783c-1.6222,-0.356 -2.8313,-0.623 -2.72,-0.622c0.1112,0.001 1.5243,0.159 3.138,0.417c18.1235,2.918 31.1125,10.019 36.3445,16.614zm-20.901,16.09c-1.009,-3.872 -5.897,-8.588 -12.089,-14.557c-3.6239,-3.495 -7.8149,-7.545 -11.8767,-12.084c-1.2612,-1.409 -1.1684,-1.519 0.2061,-0.235c3.6152,3.398 7.255,6.53 10.6356,9.439c7.23,6.217 13.472,11.59 14.76,15.691c2.058,6.536 2.904,11.647 3.65,16.149c0.167,0.953 0.323,1.873 0.481,2.771c0.278,1.534 -0.216,2.086 -1.184,1.267c-0.967,-0.818 -1.895,-2.866 -2.089,-4.607c-0.421,-3.913 -1.067,-8.365 -2.494,-13.834zm-77.3324,85.904c14.3856,8.286 27.7851,11.937 40.8929,15.493c19.1279,5.2 38.8905,10.573 60.9705,30.634c4.125,3.768 8.358,7.125 12.657,10.143c1.5,1.046 3.877,2.874 5.303,4.078c1.625,1.388 3.282,2.733 4.96,4.041c3.676,2.774 7.445,5.417 11.246,7.933c1.531,1.002 1.466,1.278 -0.141,0.58c-12.17,-5.221 -24.015,-12.463 -35.052,-22.662c-20.602,-18.999 -39.4753,-24.925 -57.7353,-30.642c-15.0002,-4.706 -30.3927,-9.536 -47.2053,-21.538c-1.4994,-1.068 -1.8173,-1.413 -0.7151,-0.798c1.1023,0.615 3.2564,1.841 4.8193,2.738zm56.0752,59.24c-13.9128,-8.138 -28.9776,-16.938 -45.9937,-34.443c-0.0992,-0.113 -0.1784,-0.22 -0.2777,-0.333c-0.1487,-0.18 0.8277,0.714 2.2124,1.99c15.3342,13.984 29.1652,21.562 42.0241,28.594c10.8341,5.917 21.1371,11.585 31.2671,20.424c1.406,1.219 1.231,2.011 -0.351,1.667c-1.582,-0.344 -4.039,-1.616 -5.497,-2.755c-7.568,-5.885 -15.311,-10.44 -23.3842,-15.144zm-68.3481,-8.604c-0.1515,-0.013 0.768,-0.588 2.073,-1.24c0.8464,-0.439 1.7024,-0.843 2.5584,-1.247c7.3765,-3.395 14.9791,-6.398 22.8461,-8.871c1.4128,-0.442 3.615,0.314 4.9179,1.65c1.3131,1.329 1.1421,2.512 -0.3774,2.681c-10.931,1.235 -20.469,3.244 -29.2231,6.165c-1.393,0.469 -2.6434,0.874 -2.7949,0.862zm206.9653,-67.147c32.741,14.367 56.109,39.793 69.289,61.29c0.984,1.612 1.931,4.351 2.236,6.114c0.278,1.555 0.607,3.093 0.997,4.585c0.467,1.747 0.223,1.823 -0.731,0.188c-13.745,-23.377 -40.505,-52.905 -75.506,-68.813c-20.076,-9.118 -39.929,-13.265 -59.126,-17.275c-11.388,-2.382 -22.171,-4.631 -32.162,-7.755c-1.619,-0.502 -1.618,-0.607 0.014,-0.217c2.901,0.675 5.824,1.25 8.759,1.735c8.171,1.837 16.663,3.209 25.276,4.596c19.888,3.23 40.452,6.542 60.954,15.552zm60.706,47.498c-13.902,-18.105 -34.225,-36.792 -60.561,-48.351c-20.622,-9.045 -41.257,-12.387 -61.185,-15.609c-3.117,-0.495 -6.213,-1.005 -9.289,-1.53c-1.623,-0.272 -1.632,-0.369 -0.036,-0.242c8.29,0.714 16.434,1.1 24.129,1.736c16.559,2.147 33.438,5.135 50.118,12.204c2.16,0.911 4.277,1.895 6.374,2.915c3.329,1.746 6.644,3.668 9.886,5.789c9.164,6.011 17.536,12.897 25.474,20.973c5.948,6.045 13.725,13.433 16.391,21.693c0.568,1.755 -0.153,1.935 -1.301,0.422zm-119.036,-216.4714c14.25,18.4701 31.985,41.4694 45.841,67.3954c4.072,7.616 9.26,14.988 15.618,23.816l1.642,2.288c8.315,11.545 16.156,22.446 21.395,32.949c13.445,26.87 23.202,52.963 31.102,75.168c0.618,1.739 0.221,1.907 -0.988,0.44c-4.154,-5.092 -9.261,-10.019 -13.547,-13.854c-1.395,-1.248 -3.116,-3.622 -3.826,-5.355c-6.528,-15.784 -13.751,-32.897 -21.856,-49.961c-4.34,-9.158 -11.254,-18.61 -18.584,-28.626c-1.691,-2.313 -3.403,-4.653 -5.093,-7.008c-6.477,-9.009 -11.43,-16.555 -14.573,-24.091c-9.926,-23.794 -23.891,-45.435 -35.135,-62.832c-7.694,-11.9007 -14.587,-22.59 -18.53,-31.3583c-0.771,-1.7086 -0.455,-1.817 0.621,-0.2513c4.278,6.1809 9.804,13.3456 15.913,21.2802zm40.347,148.7864c0.868,1.327 1.736,2.653 2.614,3.971c1.046,1.589 0.577,2.474 -1.044,2.034c-1.641,-0.445 -3.282,-0.869 -4.925,-1.23c-0.171,-0.04 -0.332,-0.066 -0.504,-0.105c-0.272,-0.047 -1.342,-1.369 -2.368,-2.931c-0.622,-0.949 -1.254,-1.891 -1.866,-2.826c-6.996,-10.572 -14.23,-21.508 -21.252,-31.792c-14.716,-21.501 -26.471,-37.941 -35.922,-51.153c-12.596,-17.62 -21.454,-30.028 -28.607,-42.1824c-0.954,-1.6355 -0.831,-1.7052 0.286,-0.1696c4.965,6.833 10.54,13.465 17.096,21.276c12.657,15.07 28.419,33.832 50.849,66.619c8.453,12.395 17.186,25.661 25.643,38.489zm-92.219,-54.717c-2.647,-6.307 -13.504,-13.347 -26.0714,-21.526c-0.9606,-0.616 -1.9313,-1.245 -2.9117,-1.888c-1.5308,-1.003 -1.4881,-1.138 0.0856,-0.291c14.2045,7.633 27.3865,15.317 30.5925,22.081c2.581,5.446 4.186,9.934 5.734,14.259c3.578,9.989 6.818,19.027 21.26,36.237c1.22,1.46 1.073,2.459 -0.38,2.248c-1.443,-0.198 -3.626,-1.527 -4.866,-2.972c-13.039,-15.223 -15.435,-23.311 -18.347,-33.233c-1.282,-4.457 -2.643,-9.085 -5.096,-14.915zm-23.1909,54.802c-11.537,-16.165 -21.9273,-30.713 -31.2534,-41.699c-1.2302,-1.452 -1.0961,-1.613 0.2989,-0.345c8.3399,7.593 17.1337,17.729 26.2516,29.075c1.1893,1.483 2.7446,4.083 3.5664,5.774c6.4184,13.152 16.8084,25.279 28.2414,36.055c1.364,1.291 3.441,3.527 4.62,5.017c17.319,21.878 35.156,42.359 53.678,55.564c8.986,6.412 17.505,11.677 25.625,16.037c1.574,0.847 1.738,1.905 0.325,2.39c-0.559,0.185 -1.108,0.383 -1.678,0.575c-1.403,0.477 -3.825,0.174 -5.399,-0.673c-7.738,-4.186 -15.796,-9.191 -24.153,-15.157c-28.557,-20.395 -55.951,-58.772 -80.1229,-92.613zm81.2119,115.103c-0.608,0.097 -1.226,0.181 -1.854,0.251c-1.51,0.203 -4.043,-0.143 -5.66,-0.813c-12.484,-5.175 -24.58,-12.501 -35.666,-22.85c-19.004,-17.756 -36.035,-23.8 -54.0819,-30.191c-16.086,-5.706 -32.5945,-11.555 -50.9064,-26.489c-1.4471,-1.168 -1.4055,-1.24 0.0734,-0.158c17.3881,12.676 33.2132,17.642 48.6361,22.471c18.9539,5.949 36.8418,11.547 57.2138,30.343c12.612,11.645 26.257,19.484 40.194,24.85c1.618,0.628 3.336,1.348 3.847,1.634c0.521,0.299 -0.285,0.728 -1.796,0.952zm-48.977,0.289c-1.412,-0.221 -3.656,-1.505 -5.03,-2.789c-11.058,-10.204 -22.223,-16.333 -33.9792,-22.77c-14.0916,-7.717 -29.3759,-16.085 -46.5526,-33.036c-1.3435,-1.328 -1.3022,-1.379 0.1031,-0.118c16.2444,14.596 30.8859,22.072 44.4245,28.975c13.7492,7.017 26.7462,13.636 39.8422,26.58c0.607,0.608 1.225,1.188 1.862,1.794c1.036,0.975 0.742,1.584 -0.67,1.364zm28.217,1.576c-0.576,0.011 -1.153,0.044 -1.74,0.063c-1.568,0.039 -4.094,-0.685 -5.636,-1.638c-6.256,-3.913 -12.308,-8.535 -18.033,-14.042c-16.029,-15.376 -31.091,-21.921 -47.0456,-28.841c-15.674,-6.797 -31.7293,-13.768 -49.6205,-29.695c-1.4055,-1.24 -1.3639,-1.313 0.0833,-0.144c16.968,13.627 32.3605,19.699 47.4214,25.644c16.8294,6.648 32.7344,12.923 49.9414,29.209c7.798,7.373 16.065,13.218 24.615,17.839c1.544,0.828 1.583,1.545 0.014,1.605zm-10.213,0.043c-0.314,-0.017 -0.627,-0.013 -0.94,-0.031c-1.577,-0.058 -4.09,-0.977 -5.568,-2.081c-3.497,-2.637 -6.908,-5.523 -10.192,-8.731c-14.662,-14.273 -28.761,-20.928 -43.6927,-27.983c-15.3833,-7.26 -31.1274,-14.709 -48.7102,-30.947c-1.3847,-1.276 -1.3435,-1.327 0.0932,-0.13c16.6596,13.937 31.7511,20.48 46.5415,26.894c15.7942,6.853 30.7052,13.323 46.4552,28.449c5.157,4.952 10.559,9.206 16.111,12.873c1.511,0.955 1.489,1.717 -0.098,1.687zm-17.619,-9.688c2.727,2.645 5.529,5.091 8.394,7.345c1.458,1.14 1.364,1.954 -0.241,1.793c-0.051,-0.004 -0.121,-0.014 -0.182,-0.01c-1.595,-0.148 -4.064,-1.287 -5.449,-2.542c-1.077,-0.965 -2.122,-1.954 -3.118,-2.938c-13.365,-13.201 -26.512,-19.916 -40.4414,-27.028c-15.0929,-7.702 -30.5269,-15.566 -47.8013,-32.114c-1.354,-1.299 -1.3127,-1.35 0.0932,-0.131c16.3515,14.227 31.1524,21.234 45.6527,28.068c14.7708,6.988 28.7098,13.554 43.0928,27.557zm4.76,-14.737c10.548,9.856 21.99,17.002 33.797,22.16c1.596,0.706 1.677,1.371 0.137,1.514c-0.861,0.076 -1.721,0.152 -2.582,0.229c-1.539,0.121 -4.079,-0.406 -5.663,-1.225c-9.256,-4.742 -18.196,-10.857 -26.541,-18.777c-17.477,-16.544 -33.522,-22.88 -50.5123,-29.575c-15.9049,-6.275 -32.2216,-12.721 -50.3728,-28.208c-1.4161,-1.212 -1.3847,-1.276 0.0833,-0.144c17.2277,13.207 32.8512,18.757 48.1229,24.174c17.8959,6.337 34.7969,12.332 53.5309,29.852zm80.293,18.36c5.09,-2.037 10.245,-4.435 15.557,-6.492c0.021,-0.016 0.051,-0.017 0.061,-0.025c0.041,-0.009 0.172,0.039 0.302,0.109c0.13,0.069 0.892,-0.162 1.737,-0.475c0.519,-0.196 1.028,-0.385 1.536,-0.533c0.05,-0.016 0.091,-0.026 0.142,-0.043c0.081,-0.018 0.112,-0.062 0.082,-0.081c-0.03,-0.019 1.108,-0.362 2.55,-0.743c8.022,-2.071 15.434,-3.297 22.322,-2.79c4.903,0.75 9.92,2.492 14.571,5.644c0.92,0.625 9.796,7.574 13.79,11.935c1.282,1.394 0.975,1.578 -0.286,0.149c-18.229,-20.627 -40.548,-14.319 -69.836,-6.015c-28.283,8.018 -63.494,18.002 -107.462,6.29c-19.9852,-5.312 -36.2029,-11.625 -49.2356,-16.685c-4.6726,-1.811 -8.9835,-3.474 -13.0447,-4.949c-1.6184,-0.586 -2.2489,-0.99 -1.3905,-0.92c0.8485,0.057 2.8627,0.558 4.4914,1.137c3.6395,1.289 7.4892,2.713 11.6002,4.234c12.9658,4.82 29.1078,10.816 48.5432,15.789c7.885,2.007 15.417,3.321 22.664,4.101c2.846,0.342 5.694,0.601 8.543,0.734c25.493,1.185 50.797,-1.528 72.763,-10.371zm-143.9769,-20.281c2.0084,1.478 4.0379,2.9 6.1087,4.27c1.5206,1.011 1.4683,1.732 -0.1177,1.64c-3.8995,-0.228 -7.6674,-0.469 -11.3039,-0.705c-1.5959,-0.106 -4.2065,-0.622 -5.8263,-1.124c-2.6157,-0.823 -5.2321,-1.605 -7.859,-2.357c-2.8081,-0.806 -5.7783,-1.595 -8.8201,-2.332c-1.6219,-0.376 -1.6867,-0.742 -0.1382,-0.829c6.6801,-0.376 14.0851,-0.562 22.4583,-0.592c1.5571,0.01 4.0094,0.933 5.4982,2.029zm153.3009,11.556c-0.966,0.341 -3.033,0.003 -4.638,-0.8c-9.257,-4.701 -19.261,-10.713 -30.206,-18.516c-7.337,-5.227 -14.613,-11.721 -21.845,-18.992c-1.323,-1.343 -1.188,-1.567 0.311,-0.499c18.142,12.947 36.622,25.002 55.314,36.487c1.572,0.952 2.04,1.993 1.064,2.32zm-197.3472,-9.172c-2.1483,-0.34 -4.2291,-0.481 -6.2621,-0.45c-0.0303,0.001 -0.0808,-0.003 -0.1112,-0.001c-0.0706,-0.01 1.1344,-0.113 2.7113,-0.076c1.2838,0.026 2.5764,0.128 3.9083,0.304c1.6045,0.203 2.2179,0.413 1.3292,0.344c-0.525,-0.047 -1.0603,-0.087 -1.5755,-0.121zm264.2132,30.57c0.375,0.551 0.681,1.029 0.68,1.05c0.01,0.035 -0.446,-0.519 -1.031,-1.226c-0.586,-0.686 -0.953,-1.098 -0.743,-0.984c0.22,0.148 0.708,0.616 1.094,1.16zm-73.197,-7.096c31.273,-7.823 54.615,-13.644 72.392,7.462c1.22,1.46 1.117,1.556 -0.257,0.273c-17.378,-16.431 -41.673,-11.108 -71.631,-4.525c-30.232,6.64 -67.862,14.911 -110.304,2.653c-21.2163,-6.123 -37.5851,-13.09 -50.7304,-18.689c-8.2144,-3.503 -15.2945,-6.497 -21.693,-8.503c-1.6199,-0.503 -2.3629,-0.824 -1.6761,-0.772c0.697,0.045 2.5812,0.455 4.2109,0.971c6.1467,1.944 12.9577,4.702 20.7529,7.873c13.1292,5.341 29.4629,11.982 50.0987,17.704c43.246,11.976 79.626,2.869 108.837,-4.447zm-178.5609,-23.308c0.5844,0.128 1.1487,0.249 1.7229,0.385c1.6218,0.376 2.3952,0.696 1.7187,0.636c-0.6666,-0.046 -2.3687,-0.467 -3.7978,-0.882c-1.4189,-0.423 -1.2459,-0.489 0.3562,-0.139zm-17.8808,-1.689c4.1807,-0.27 8.6806,0.342 13.5852,1.567c1.6215,0.398 2.7276,0.782 2.455,0.756c-0.1716,-0.019 -0.3334,-0.023 -0.4848,-0.036c-0.3132,-0.017 -0.6162,-0.042 -0.9191,-0.067c-0.5049,-0.041 -2.2275,-0.447 -3.8494,-0.823c-3.7974,-0.904 -7.3698,-1.352 -10.7586,-1.273c-1.5577,0.031 -1.5772,-0.016 -0.0283,-0.124zm18.794,3.355c0.7574,0.062 2.6812,0.526 4.3,1.091c4.9172,1.692 10.243,3.745 16.1212,6.032c13.0528,5.066 29.3109,11.391 49.3265,16.722c44.149,11.744 79.452,1.733 107.826,-6.289c29.095,-8.245 51.231,-14.5 69.18,5.96c1.25,1.438 2.087,2.849 2.173,3.117c0.077,0.275 -0.787,-0.682 -2.162,-1.966c-17.847,-16.767 -41.118,-10.957 -69.477,-3.857c-29.151,7.292 -65.419,16.379 -108.513,4.437c-20.5865,-5.697 -36.8898,-12.34 -49.9989,-17.676c-6.3285,-2.575 -12.0143,-4.88 -17.2228,-6.689c-1.5987,-0.559 -2.3005,-0.931 -1.553,-0.882zm125.8497,-74.775c-19.989,-8.188 -38.25,-15.684 -52.306,-26.201c-1.479,-1.104 -1.458,-1.161 0.052,-0.122c14.159,9.779 31.953,16.17 51.426,23.165c16.065,5.763 32.673,11.726 49.824,20.31c43.35,21.735 72.59,57.901 86.635,75.279c2.022,2.504 3.608,4.46 4.868,5.932c1.231,1.452 1,1.933 -0.478,0.787c-3.404,-2.663 -8.296,-7.79 -14.181,-13.986c-16.354,-17.165 -43.734,-45.904 -80.454,-64.891c-15.683,-8.095 -30.79,-14.295 -45.386,-20.273zm-55.415,-27.178c14.532,11.698 33.919,19.647 55.244,28.402c14.575,5.972 29.652,12.153 45.265,20.217c36.469,18.861 63.72,47.468 80.004,64.561c5.607,5.883 10.041,10.54 13.443,13.371c1.437,1.197 1.348,1.676 -0.236,0.858c-5.324,-2.8 -12.913,-9.911 -22.753,-19.151c-17.787,-16.708 -42.168,-39.585 -74.027,-56.57c-13.664,-7.266 -26.822,-13.332 -39.569,-19.183c-23.255,-10.705 -43.198,-19.88 -57.464,-32.374c-1.385,-1.235 -1.354,-1.299 0.093,-0.131zm170.284,109.197c8.884,8.351 15.995,15.008 21.42,18.416c1.552,0.967 1.535,1.373 -0.083,0.786c-7.389,-2.662 -17.531,-11.389 -30.803,-22.837c-17.74,-15.294 -39.807,-34.33 -67.729,-49.665c-10.974,-6.021 -21.645,-11.438 -31.955,-16.666c-25.774,-13.069 -47.798,-24.248 -62.549,-38.642c-1.344,-1.307 -1.292,-1.365 0.103,-0.118c14.811,13.19 35.567,22.738 58.481,33.281c12.716,5.853 25.864,11.905 39.478,19.146c31.648,16.892 55.909,39.671 73.637,56.299zm-115.607,-86.34c-18.91,-6.79 -36.242,-13.005 -50.075,-22.299c-1.51,-1.018 -1.499,-1.067 0.042,-0.114c14.125,8.789 31.36,14.102 50.175,19.885c17.266,5.312 35.135,10.82 53.475,19.707c49.901,24.228 81.532,70.701 89.474,84.696c0.934,1.65 0.494,1.954 -0.737,0.523c-1.468,-1.712 -3.312,-3.995 -5.205,-6.325c-14.115,-17.472 -43.514,-53.81 -87.174,-75.709c-17.232,-8.629 -33.88,-14.603 -49.975,-20.364zm122.874,98.327c4.224,3.281 8.014,5.867 11.355,7.522c1.595,0.789 1.6,1.096 -0.021,0.657c-2.155,-0.584 -4.465,-1.55 -6.931,-2.835c-1.574,-0.826 -3.583,-2.926 -4.69,-4.469c-0.069,-0.094 -0.128,-0.195 -0.197,-0.289c-1.128,-1.528 -0.973,-1.725 0.484,-0.586zm-23.35,-15.976c-0.443,-0.129 -0.896,-0.271 -1.329,-0.386c-0.735,-0.203 -1.509,-0.502 -1.748,-0.698c-0.13,-0.111 -0.28,-0.228 -0.429,-0.345c-16.478,-13.285 -36.989,-29.826 -61.457,-43.653c-7.374,-4.164 -14.63,-8.146 -21.646,-11.996c-28.934,-15.872 -53.609,-29.422 -69.218,-45.77c-1.312,-1.371 -1.251,-1.417 0.103,-0.118c14.936,14.258 36.829,25.368 62.353,38.312c10.299,5.235 20.95,10.625 31.904,16.64c27.742,15.241 49.73,34.191 67.409,49.446c0.578,0.505 1.157,0.989 1.725,1.48c0.948,0.813 0.474,0.707 -1.11,-0.133c-2.225,-1.173 -4.435,-2.11 -6.557,-2.779zm-65.339,-43.727c22.404,12.658 41.504,27.631 57.214,40.261c1.448,1.168 1.305,1.874 -0.3,1.692c-0.555,-0.067 -1.1,-0.12 -1.646,-0.152c-1.596,-0.127 -3.029,-0.248 -3.229,-0.391c-0.13,-0.09 -0.24,-0.175 -0.36,-0.273c-15.85,-12.112 -33.817,-25.851 -55.134,-38.235l-6.721,-3.901c-33.257,-19.286 -63.269,-36.682 -80.744,-56.458c-1.251,-1.416 -1.199,-1.475 0.104,-0.117c15.852,16.335 40.446,29.84 69.21,45.61c6.986,3.83 14.232,7.799 21.606,11.964zm-3.902,4.288c19.643,11.425 36.456,24.007 51.378,35.396c1.468,1.132 1.402,2.071 -0.137,2.214c-0.173,0.023 -0.345,0.026 -0.517,0.05c-1.529,0.155 -3.335,-0.085 -4.075,-0.616c-0.439,-0.338 -0.879,-0.655 -1.329,-0.986c-14.229,-10.452 -30.357,-22.276 -48.743,-33.262c-35.481,-21.186 -68.548,-42.249 -85.934,-64.926c-1.159,-1.505 -1.087,-1.558 0.143,-0.106c17.551,20.651 48.304,38.494 82.483,58.301l6.731,3.935zm44.681,37.42c0.22,0.169 0.43,0.325 0.66,0.486c0.359,0.273 -0.548,0.715 -2.01,1.049c-0.01,0.007 -0.02,0.015 -0.04,0.009c-1.462,0.333 -3.84,-0.189 -5.339,-1.257c-0.99,-0.698 -1.979,-1.396 -2.989,-2.121c-12.495,-8.895 -26.659,-18.98 -42.237,-28.539c-31.617,-19.4 -67.111,-43.558 -84.096,-69.161c-1.056,-1.581 -0.974,-1.621 0.164,-0.1c17.475,23.418 51.172,44.907 87.324,66.487c18.286,10.936 34.364,22.736 48.563,33.147zm-10.348,-0.396c0.75,0.524 1.489,1.054 2.219,1.572c1.23,0.873 2.016,1.638 1.752,1.709c-0.153,0.05 -0.305,0.101 -0.467,0.138c-0.671,0.205 -1.322,0.416 -1.993,0.621c-1.097,0.355 -2.602,0.244 -3.383,-0.235c-0.471,-0.295 -0.931,-0.597 -1.412,-0.884c-1.729,-1.208 -3.469,-2.409 -5.189,-3.603c-9.888,-6.927 -19.816,-13.865 -29.871,-20.44c-5.022,-3.312 -10.118,-6.425 -15.11,-9.739c-5.003,-3.286 -9.963,-6.685 -14.891,-10.17c-9.836,-6.986 -19.494,-14.393 -28.684,-22.538c-9.15,-8.134 -17.944,-17.006 -25.264,-27.03c-2.709,-3.756 -5.224,-7.677 -7.351,-11.759c-0.873,-1.675 -0.802,-1.686 0.162,-0.058c16.155,27.562 53.895,53.416 87.355,73.94c15.528,9.535 29.662,19.601 42.127,28.476zm-138.7183,-115.786c0.1146,0.412 0.2193,0.811 0.334,1.223c0.4973,1.745 0.0285,1.967 -1.1812,0.499c-7.7533,-9.454 -15.2699,-17.924 -22.4922,-24.602c-1.3745,-1.284 -1.2803,-1.478 0.2089,-0.403c6.5877,4.662 13.2644,10.687 20.0172,17.629c1.3226,1.364 2.6565,3.899 3.1133,5.654zm-2.6353,-7.684c-6.097,-6.225 -12.1556,-11.712 -18.1606,-16.142c-1.4786,-1.104 -1.425,-1.288 0.1382,-0.413c6.583,3.714 13.1468,8.6 19.6867,14.333c1.4158,1.233 2.6119,2.917 2.7504,3.726c0.1282,0.817 -0.2399,1.068 -0.8946,0.909c-0.6748,-0.164 -2.1872,-1.057 -3.5201,-2.413zm76.9086,39.888c-18.191,-5.602 -34.893,-10.749 -48.672,-19.028c-1.542,-0.932 -1.531,-0.982 0.032,-0.106c14.219,7.932 31.096,12.288 49.503,17.026c18.287,4.703 37.197,9.587 56.455,18.625c49.362,23.198 80.208,69.443 86.707,86.987c0.3,0.814 0.531,1.513 0.703,2.131c0.335,1.182 -0.235,0.774 -1.169,-0.876c-8.52,-15.1 -39.511,-60.513 -89.904,-84.979c-18.42,-8.932 -36.329,-14.451 -53.655,-19.78zm128.274,109.457c1.064,0.519 2.108,0.97 3.123,1.36c1.618,0.607 1.654,0.891 0.031,0.577c-0.726,-0.126 -1.461,-0.309 -2.206,-0.504c-1.631,-0.432 -2.977,-1.012 -3.046,-1.106c-0.059,-0.101 -0.117,-0.266 -0.136,-0.376c-0.028,-0.124 -0.174,-0.493 -0.33,-0.833c-0.166,-0.333 0.979,0.126 2.564,0.882zm-3.69,4.318c-16.39,-12.48 -40.309,-7.911 -69.787,-2.262c-31.658,6.057 -71.056,13.604 -113.198,0.938c-21.8463,-6.569 -38.2602,-13.876 -51.431,-19.766c-13.3619,-5.957 -23.5919,-10.498 -32.9435,-11.236c-1.5957,-0.126 -2.6171,-0.118 -2.3135,-0.135c0.1822,-0.01 0.3644,-0.02 0.5564,-0.017c1.8283,0.12 3.7372,0.264 5.6965,0.412c8.6151,1.261 18.3262,5.378 30.5476,10.582c13.1653,5.605 29.5744,12.584 50.8405,18.731c42.634,12.303 80.345,4.014 110.648,-2.637c30.161,-6.63 54.547,-11.958 71.642,5.033c1.333,1.356 1.22,1.481 -0.258,0.357zm-206.0847,-26.514c3.2536,2.009 6.5284,3.96 9.7625,5.921c1.5421,0.933 1.4858,1.285 -0.1436,0.748c-8.2275,-2.706 -16.4819,-5.62 -24.7793,-8.379c-1.6191,-0.544 -1.6437,-0.898 -0.0477,-0.793c3.091,0.204 6.2631,0.388 9.526,0.589c1.6062,0.098 4.1404,0.961 5.6821,1.914zm-13.9572,3.262c5.8014,2.033 11.5824,4.081 17.3443,6.061c1.6089,0.552 1.6184,0.586 -0.011,0.049c-6.2361,-2.043 -12.0068,-4.099 -17.3442,-6.061c-1.6083,-0.593 -1.6079,-0.614 0.0109,-0.049zm118.5649,-18.068c10.275,7.324 19.717,13.089 28.51,17.676c1.584,0.819 1.749,1.877 0.346,2.375c-0.519,0.196 -1.038,0.372 -1.557,0.569c-1.383,0.503 -3.796,0.255 -5.38,-0.563c-8.532,-4.49 -17.563,-10.041 -27.189,-16.892c-16.093,-11.477 -31.719,-28.621 -46.985,-47.397c-1.2,-1.475 -1.004,-1.702 0.422,-0.498c6.116,5.073 12.248,9.76 17.943,14.005c1.479,1.103 3.711,3.121 5.003,4.507c9.521,10.179 19.151,19.262 28.887,26.218zm-115.6321,-130.094c14.4976,6.382 28.4671,17.853 42.0581,31.467c1.333,1.335 1.102,1.858 -0.482,1.039c-5.405,-2.802 -10.391,-6.472 -14.498,-11.35c-0.327,-0.401 -0.686,-0.674 -1.037,-0.85c-0.6424,-0.312 -2.2649,-1.268 -3.6394,-2.552c-7.4512,-6.903 -14.9481,-12.861 -22.4993,-17.35c-1.5321,-0.919 -1.4987,-1.11 0.0976,-0.404zm49.8011,-11.146c-3.304,-6.962 -16.324,-14.661 -30.4678,-22.277c-1.5737,-0.847 -1.5512,-0.988 0.0652,-0.276c18.1326,7.922 28.9396,14.958 32.1376,20.983c2.747,5.178 4.616,9.617 6.427,13.891c4.342,10.274 8.529,20.146 24.125,39.154c1.2,1.475 1.415,2.538 0.456,2.439c-0.575,-0.073 -1.161,-0.138 -1.746,-0.223c-0.222,-0.023 -0.464,-0.072 -0.686,-0.094c-0.393,-0.062 -1.719,-1.258 -2.929,-2.704c-14.771,-17.485 -18.011,-26.502 -21.59,-36.512c-1.566,-4.372 -3.192,-8.888 -5.792,-14.381zm2.376,-1.837c-3.266,-6.181 -14.051,-13.295 -32.0826,-21.23c-1.5963,-0.706 -1.5942,-0.831 0.0246,-0.266c17.325,5.992 29.896,13.34 33.802,19.982c2.981,5.067 5.085,9.374 7.306,13.925c5.099,10.421 10.344,21.126 26.563,41.6c1.179,1.49 1.111,2.555 -0.17,2.404c-1.282,-0.173 -3.303,-1.476 -4.523,-2.936c-15.905,-19.277 -20.102,-29.183 -24.454,-39.471c-1.8,-4.324 -3.69,-8.768 -6.466,-14.008zm2.386,-1.844c-4.545,-7.722 -18.777,-14.921 -33.4352,-20.128c-1.6086,-0.572 -1.6167,-0.691 0.0041,-0.251c17.0041,4.572 30.5091,11.686 35.1951,18.891c3.403,5.232 5.987,9.889 8.727,14.823c5.767,10.383 12.152,21.904 28.188,43.072c1.148,1.513 1.11,2.618 -0.092,2.49c-1.211,-0.141 -3.151,-1.442 -4.33,-2.932c-16.498,-20.745 -21.783,-31.504 -26.891,-41.959c-2.251,-4.57 -4.365,-8.891 -7.366,-14.006zm2.376,-1.836c-4.695,-7.219 -17.856,-14.317 -34.455,-18.982c-1.6308,-0.453 -1.629,-0.558 -0.0065,-0.223c16.7495,3.456 30.8075,10.162 36.2755,17.763c4.36,6.078 7.818,11.684 11.807,18.16c5.832,9.486 13.447,21.838 27.871,42.022c1.097,1.551 1.089,2.696 -0.062,2.572c-1.141,-0.131 -3,-1.45 -4.148,-2.963c-16.285,-21.441 -22.719,-33.029 -28.494,-43.467c-2.772,-4.932 -5.365,-9.623 -8.788,-14.882zm73.367,61.716c0.493,0.754 1.007,1.514 1.5,2.268c0.829,1.252 0.19,1.992 -1.423,1.692c-0.978,-0.189 -1.946,-0.365 -2.904,-0.528c-1.623,-0.292 -3.131,-0.815 -3.398,-1.218c-0.157,-0.236 -0.315,-0.471 -0.483,-0.72c-6.05,-9.139 -12.337,-18.599 -18.43,-27.518c-35.269,-51.552 -51.43,-77.453 -62.315,-101.389c-0.771,-1.7086 -0.639,-1.744 0.285,-0.1068c7.423,12.9908 16.627,25.8678 30.052,44.6558c9.442,13.199 21.187,29.625 35.883,51.099c7.022,10.285 14.246,21.207 21.233,31.765zm-10.25,2.244c-0.998,-0.153 -1.997,-0.285 -2.996,-0.418c-1.604,-0.224 -3.765,-1.673 -4.821,-3.253c-4.047,-6.083 -8.133,-12.198 -12.173,-18.099c-36.869,-53.891 -50.799,-83.902 -59.738,-109.8949c-0.599,-1.7322 -0.477,-1.7599 0.284,-0.0648c10.952,24.7347 27.041,50.7097 63.564,104.0897c6.094,8.919 12.361,18.353 18.431,27.497c0.059,0.101 0.128,0.195 0.187,0.297c0.089,0.162 -1.134,0.091 -2.738,-0.154zm33.679,22.599c44.235,20.108 75.212,62.053 83.081,85.439c0.734,2.172 1.218,4.113 1.473,5.787c0.265,1.751 0.022,2.386 -0.267,1.502c-0.164,-0.5 -0.337,-1.035 -0.55,-1.602c-6.567,-17.723 -37.698,-64.419 -87.432,-87.798c-19.358,-9.089 -38.319,-13.977 -56.656,-18.705c-17.43,-4.485 -33.481,-8.622 -47.137,-15.791c-1.584,-0.839 -2.726,-1.508 -2.595,-1.438c0.09,0.036 0.181,0.073 0.261,0.117c14.738,7.757 32.011,11.365 50.907,15.308c19.158,3.977 38.95,8.106 58.915,17.181zm68.236,100.351c1.068,0.289 1.166,0.444 0.217,0.358c-0.949,-0.086 -1.824,-0.372 -1.942,-0.575c-0.108,-0.21 0.669,-0.079 1.725,0.217zm-74.329,-0.255c29.691,-5.682 53.691,-10.269 69.782,2.577c1.447,1.168 1.323,1.342 -0.241,0.467c-15.129,-8.586 -38.044,-4.779 -66.262,-0.059c-33.603,5.608 -75.429,12.607 -117.744,-0.656c-22.4953,-7.042 -38.9034,-14.705 -52.08,-20.861c-13.3875,-6.248 -23.453,-10.952 -32.9483,-11.563c-1.596,-0.106 -1.6052,-0.161 -0.0283,-0.124c9.5116,0.226 19.9419,4.889 34.4484,11.346c13.2012,5.889 29.6348,13.223 51.5512,19.801c42.304,12.713 81.803,5.154 113.522,-0.928zm3.588,3.833c28.3,-4.738 51.226,-8.553 66.08,0.132c1.562,0.918 1.467,1.174 -0.152,0.609c-13.471,-4.82 -34.281,-1.738 -59.886,2.046c-36.41,5.383 -81.72,12.096 -125.042,-2.04c-23.1543,-7.549 -39.5261,-15.57 -52.698,-22.019c-12.5297,-6.135 -22.0102,-10.754 -31.1456,-11.734c-1.6052,-0.161 -1.614,-0.237 -0.0283,-0.124c9.1514,0.616 18.9864,5.201 32.5744,11.549c13.2169,6.168 29.655,13.85 52.2005,20.917c42.507,13.287 84.424,6.283 118.097,0.664zm6.332,3.629c25.554,-3.788 46.313,-6.853 59.573,-2.084c1.619,0.586 1.593,0.937 -0.021,0.699c-10.987,-1.518 -27.791,0.801 -48.375,3.654c-38.624,5.36 -91.518,12.681 -137.455,-2.92c-23.793,-8.092 -40.1188,-16.458 -53.2255,-23.183c-11.6325,-5.97 -20.4877,-10.49 -29.1822,-11.837c-1.6038,-0.245 -1.6229,-0.314 -0.0184,-0.111c8.7304,1.01 17.9198,5.491 30.5199,11.658c13.1919,6.455 29.6041,14.487 52.8192,22.054c43.483,14.182 88.884,7.464 125.365,2.07zm11.456,3.119c20.311,-2.817 36.942,-5.112 47.81,-3.713c1.604,0.203 1.669,0.569 0.13,0.712c-6.147,0.561 -14.44,1.858 -24.405,3.395c-40.794,6.32 -109.091,16.893 -162.246,-1.931c-24.4308,-8.657 -40.6396,-17.378 -53.6606,-24.394c-10.7657,-5.802 -19.036,-10.216 -27.2802,-11.896c-1.6127,-0.321 -1.642,-0.382 -0.0082,-0.118c8.2896,1.377 16.8639,5.753 28.5166,11.729c13.1367,6.744 29.4823,15.136 53.3354,23.246c46.128,15.667 99.123,8.333 137.808,2.97zm23.855,1.235c9.58,-1.481 17.629,-2.722 23.665,-3.326c1.53,-0.156 1.656,0.165 0.253,0.642c-15.261,5.052 -44.599,10.846 -76.561,13.194c-30.828,2.256 -75.086,2.167 -110.88,-11.044c-25.0177,-9.238 -41.0992,-18.322 -54.0246,-25.615c-9.3283,-5.269 -16.6929,-9.42 -24.0201,-11.528c-1.6205,-0.46 -1.6297,-0.516 0.0017,-0.105c7.5527,1.921 15.2813,6.072 25.135,11.367c13.0612,7.028 29.3202,15.774 53.801,24.456c53.367,18.875 121.765,8.289 162.63,1.959zm-231.7919,-48.061c-1.6137,-0.258 -3.2281,-0.475 -4.8333,-0.636c-1.6051,-0.161 -1.7594,-0.627 -0.3466,-1.069c8.3038,-2.588 17.3027,-4.406 27.5746,-5.528c1.5295,-0.156 3.0241,-0.037 3.3424,0.287c0.189,0.192 0.3882,0.376 0.5772,0.568c1.3639,1.312 2.7593,2.56 4.1853,3.785c1.4161,1.211 1.3301,2.145 -0.2375,2.163c-9.2634,0.046 -17.3367,0.29 -24.5442,0.765c-1.5584,0.073 -4.1042,-0.077 -5.7179,-0.335zm165.1949,22.572c-0.64,0.183 -1.29,0.373 -1.94,0.542c-1.432,0.395 -3.893,-0.005 -5.456,-0.88c-6.854,-3.845 -13.72,-8.177 -20.577,-13.075c-35.795,-25.53 -69.924,-79.352 -94.8364,-118.63c-4.4758,-7.049 -8.5969,-13.532 -12.3556,-19.288c-1.0258,-1.583 -0.8617,-1.725 0.3685,-0.272c9.3069,10.916 19.7266,25.526 31.343,41.778c24.3095,34.048 51.8525,72.627 80.7795,93.266c7.747,5.526 15.204,10.23 22.429,14.256c1.543,0.848 1.678,1.888 0.245,2.303zm-80.049,-123.167c-14.023,-14.413 -28.4321,-26.823 -43.5029,-34.024c-1.5952,-0.769 -1.5723,-0.93 0.0366,-0.379c18.8143,6.446 36.2083,20.608 52.9033,37.377c1.333,1.335 1.078,2.103 -0.543,1.643c-1.208,-0.351 -2.405,-0.71 -3.592,-1.118c-1.619,-0.544 -3.979,-2.135 -5.302,-3.499zm5.555,-27.477c2.606,8.865 4.79,16.28 14.29,28.421c1.168,1.498 1.065,1.615 -0.288,0.296c-2.737,-2.68 -5.526,-5.302 -8.366,-7.864c-1.385,-1.255 -3.248,-3.607 -3.998,-5.331c-1.97,-4.489 -2.915,-8.554 -3.953,-13.088c-1.01,-4.39 -2.153,-9.386 -4.448,-15.601c-1.897,-5.184 -10.018,-11.324 -19.4273,-18.438c-2.5972,-1.954 -5.2341,-3.963 -7.8698,-6.034c-1.4578,-1.14 -1.395,-1.269 0.1259,-0.28c1.0705,0.701 2.1513,1.394 3.2017,2.089c11.8865,7.728 23.1335,15.039 25.6355,20.999c2.443,5.795 3.794,10.389 5.097,14.831zm0.801,16.595c-0.459,-0.407 -1.74,-1.822 -2.913,-3.068c-1.173,-1.246 -2.499,-3.622 -2.804,-5.363c-0.176,-1.03 -0.361,-2.074 -0.535,-3.167c-0.755,-4.536 -1.602,-9.689 -3.688,-16.286c-1.384,-4.424 -7.457,-9.631 -15.126,-16.229c-3.3907,-2.901 -7.0503,-6.06 -10.6655,-9.458c-1.3643,-1.292 -1.2916,-1.407 0.1662,-0.268c2.8255,2.221 5.612,4.347 8.2392,6.321c9.2701,7.011 17.2511,13.046 19.0521,17.907c2.256,6.162 3.388,11.103 4.399,15.471c0.934,4.094 1.784,7.815 3.377,11.795c0.68,1.713 0.967,2.744 0.498,2.345zm9.504,-47.682c-9.859,-20.427 -18.063,-41.31 -24.119,-62.4527c-0.086,-0.3302 -0.161,-0.647 -0.237,-0.9638c-0.133,-0.544 0.225,0.434 0.813,2.1947c8.929,26.6628 22.612,56.9608 60.735,112.6798c3.882,5.666 7.83,11.572 11.719,17.419c1.056,1.581 0.603,2.702 -1.012,2.507c-0.948,-0.108 -1.897,-0.215 -2.836,-0.33c-1.605,-0.182 -3.694,-1.642 -4.679,-3.254c-13.768,-22.616 -28.831,-43.881 -40.384,-67.8zm20.506,-102.7832c0.119,0.1189 0.239,0.2378 0.348,0.3643c18.061,18.5351 48.295,49.5568 72.359,85.6929c3.898,5.86 8.279,11.902 12.512,17.744c1.296,1.776 2.581,3.561 3.866,5.345c7.644,10.612 16.299,23.087 22.643,35.217c16.799,32.056 26.686,62.567 33.417,86.96c0.487,1.752 0.857,3.281 0.834,3.422c-0.011,0.091 -0.023,0.162 -0.034,0.253c-0.23,2.281 -0.449,5.218 -0.524,8.524c-0.047,1.691 -0.837,1.757 -1.873,0.161c-1.687,-2.586 -3.495,-5.185 -5.435,-7.77c-1.138,-1.521 -2.582,-4.141 -3.2,-5.879c-8.169,-23.062 -18.276,-50.636 -32.554,-79.169c-5.296,-10.647 -13.207,-21.621 -21.572,-33.233l-1.642,-2.288c-6.308,-8.761 -11.457,-16.079 -15.47,-23.594c-13.944,-26.067 -31.739,-49.1472 -46.028,-67.6709c-6.229,-8.0745 -11.833,-15.3674 -16.091,-21.5634c-1.076,-1.5867 -1.755,-2.7211 -1.556,-2.5159zm150.01,246.7612c-0.245,-10.421 1.888,-21.499 5.919,-32.425c0.539,-1.455 0.599,-1.416 0.14,0.082c-1.677,5.483 -2.966,11.342 -3.457,17.874c-0.635,3.616 -1.048,7.234 -1.218,10.817c-0.198,4.723 0.04,9.33 0.696,13.774c0.264,1.751 0.184,2.37 -0.286,1.391c-0.469,-0.979 -1.111,-3.197 -1.315,-4.93c-0.268,-2.142 -0.415,-4.332 -0.479,-6.583zm4.395,3.34c-0.655,-29.913 15.405,-64.108 51.887,-86.316c11.715,-7.135 23.823,-12.966 35.534,-18.608c23.37,-11.266 44.295,-21.348 52.776,-37.899c0.689,-1.358 0.739,-1.312 0.12,0.077c-8.501,18.988 -33.066,31.571 -60.578,45.666c-7.934,4.075 -16.132,8.263 -24.224,12.766c-25.185,14.014 -42.536,33.799 -50.189,57.192c-3.735,11.412 -4.974,23.508 -3.791,35.265c0.174,1.735 0.013,1.73 -0.383,-0.027c-0.142,-0.62 -0.284,-1.241 -0.405,-1.855c-0.366,-1.738 -0.704,-4.553 -0.747,-6.261zm123.649,-114.044c11.35,-10.158 18.078,-20.301 20.35,-30.654c0.349,-1.562 0.409,-1.544 0.161,0.068c-4.553,28.042 -40.284,53.173 -76.212,68.677c-64.911,27.993 -62.208,68.714 -60.052,101.432c0.016,0.278 0.041,0.57 0.047,0.835c0.023,0.459 -0.172,-0.577 -0.427,-2.335c-5.17,-36.416 0.22,-75.428 56.733,-101.923c27.309,-12.806 46.193,-24.281 59.4,-36.1zm18.947,-28.935c-8.018,27.846 -47.445,49.535 -78.789,64.244c-29.194,13.68 -47.051,31.581 -54.598,54.731c-5.343,16.347 -4.684,32.963 -2.471,47.957c0.255,1.737 0.123,1.731 -0.263,-0.013c-5.956,-26.642 -6.172,-74.127 53.683,-104.662l4.528,-2.306c35.504,-18.07 69.348,-35.327 77.8,-60.014c0.489,-1.48 0.539,-1.455 0.11,0.063zm-137.822,163.971c-0.251,-0.747 -0.501,-1.493 -0.722,-2.242c-3.42,-14.765 -2.776,-30.645 2.035,-45.398c7.6,-23.272 24.868,-42.934 49.931,-56.878c8.082,-4.495 16.28,-8.683 24.203,-12.751c28.022,-14.347 52.985,-27.141 61.203,-46.81c0.6,-1.416 0.65,-1.391 0.121,0.077c-8.667,24.183 -42.204,41.276 -77.352,59.165l-4.537,2.314c-57.408,29.288 -59.88,74.159 -54.765,101.567c0.335,1.782 0.297,2.203 -0.117,0.956zm63.606,-96.146c35.999,-15.535 71.782,-40.746 76.52,-68.987c0.269,-1.607 0.339,-1.576 0.161,0.068c-1.161,10.423 -6.478,21.428 -15.713,32.179c-13.452,15.665 -33.789,29.413 -57.27,38.731c-63.133,25.066 -63.143,59.156 -63.149,89.245c-0.005,2.778 -0.008,5.473 -0.061,8.121c-0.038,1.684 -0.105,2.686 -0.128,2.248c-0.026,-0.271 -0.032,-0.536 -0.048,-0.814c-2.169,-32.501 -4.846,-72.952 59.688,-100.791zm-65.077,93.96c0.35,1.502 0.73,2.982 1.161,4.444c0.507,1.758 0.396,1.779 -0.233,0.048c-1.132,-3.14 -2.049,-6.418 -2.733,-9.765c-0.366,-1.759 -0.234,-1.752 0.253,0c0.457,1.712 0.975,3.463 1.552,5.273zm126.691,-130.059c9.896,-11.528 15.348,-23.4 16.036,-34.571c0.098,-1.667 0.178,-1.643 0.171,0.039c-0.197,27.581 -29.403,60.547 -69.991,75.37c-63.152,23.071 -64.319,52.444 -65.429,80.844c-0.2,4.807 -0.387,9.459 -0.865,13.994c-0.179,1.644 -0.31,1.595 -0.282,-0.103c0.053,-2.627 0.066,-5.308 0.051,-8.071c0.012,-29.867 0.008,-63.739 62.796,-88.653c23.571,-9.302 43.99,-23.111 57.513,-38.849zm-127.509,134.97c0.086,0.288 -0.594,-0.825 -1.385,-2.518c-1.329,-2.85 -2.413,-5.819 -3.263,-8.898c-0.487,-1.752 -0.298,-2.14 0.267,-0.859c0.566,1.28 1.355,3.762 1.902,5.512c0.327,1.042 0.684,2.083 1.072,3.122c0.649,1.715 1.331,3.345 1.407,3.641zm-4.711,-30.439c0.019,-0.594 0.059,-1.183 0.109,-1.779c0.067,-0.981 0.158,-0.385 0.282,1.346c0.111,1.864 0.302,3.793 0.553,5.783c0.224,1.739 0.522,4.563 0.666,6.279c0.583,6.423 1.947,12.642 4.087,18.497c0.639,1.743 0.851,2.374 0.401,1.443c-0.44,-0.939 -0.982,-2.444 -1.25,-3.364c-0.153,-0.55 -0.335,-1.119 -0.519,-1.667c-0.327,-1.022 -0.684,-2.041 -1.082,-3.094c-0.629,-1.689 -1.565,-4.477 -1.921,-6.223c-1.133,-5.499 -1.585,-11.273 -1.326,-17.221zm1.112,-1.235c-0.168,-3.375 -0.116,-6.561 0.106,-9.603c4.843,-27.22 23.124,-54.421 48.764,-71.546c13.955,-9.327 28.834,-15.796 43.225,-22.069c20.338,-8.863 38.64,-16.843 47.563,-30.739c0.799,-1.252 0.859,-1.213 0.109,0.085c-8.898,15.471 -29.139,25.236 -51.684,36.1c-11.711,5.641 -23.829,11.48 -35.585,18.625c-23.337,14.203 -40.391,34.928 -48.033,58.355c-2.267,6.933 -3.615,13.953 -4.092,20.848c-0.119,1.703 -0.3,1.671 -0.373,-0.056zm134.251,-101.93c9.498,-12.581 14.22,-25.57 13.824,-37.246c-0.063,-1.713 0.028,-1.697 0.192,0.024c0.466,4.874 0.017,10.092 -1.315,15.527c-6.689,26.969 -33.602,53.273 -65.467,63.977c-64.097,21.511 -65.8,48.423 -67.459,74.453c-0.382,6.058 -0.76,11.887 -1.874,17.596c-0.299,1.587 -0.44,1.525 -0.271,-0.131c0.456,-4.416 0.641,-8.942 0.818,-13.608c1.107,-28.19 2.25,-57.339 65.056,-80.278c22.858,-8.362 43.443,-23.06 56.496,-40.314zm-136.713,119.567c0.52,2.246 1.141,4.437 1.885,6.559c0.619,1.738 0.558,1.763 -0.091,0.026c-0.814,-2.194 -1.455,-4.434 -1.924,-6.697c-0.376,-1.751 -0.555,-3.151 -0.535,-3.124c0.009,0.034 0.269,1.478 0.665,3.236zm-11.31,-20.764c1.433,2.006 2.786,4.01 4.068,6.004c1.025,1.603 1.831,4.301 1.904,6.007c0.03,0.661 0.059,1.323 0.109,1.99c0.104,1.725 -0.525,1.816 -1.54,0.205c-1.154,-1.819 -2.387,-3.684 -3.671,-5.552c-1.077,-1.565 -1.837,-2.723 -1.664,-2.747c0.101,-0.034 0.173,-0.086 0.205,-0.214c0.411,-1.628 0.269,-3.428 -0.256,-5.339c-0.487,-1.752 -0.263,-1.898 0.845,-0.354zm14.53,39.714c0.944,1.022 2.203,3.157 2.519,4.891c0.306,1.679 0.463,3.219 0.481,4.614c0.023,1.702 -0.299,1.587 -0.655,-0.158c-0.291,-1.401 -0.73,-2.982 -1.299,-4.674c-0.386,-1.144 -0.832,-2.326 -1.317,-3.541c-0.7,-1.72 -0.683,-2.167 0.271,-1.132zm-96.142,42.618c31.354,-2.292 60.224,-7.907 75.767,-12.898c1.423,-0.45 1.56,-0.2 0.295,0.528c-30.479,17.403 -129.162,25.475 -188.128,2.719c-25.6039,-9.882 -41.4981,-19.291 -54.2673,-26.865c-8.533,-5.048 -15.3235,-9.064 -22.1518,-11.374c-1.6192,-0.545 -1.6284,-0.6 -0.0085,-0.098c7.0334,2.139 14.1677,6.149 23.1452,11.221c12.9354,7.307 29.0572,16.403 54.1654,25.678c35.904,13.275 80.284,13.356 111.183,11.089zm-140.7482,-58.942c-2.6484,-1.917 -5.2241,-3.95 -7.7786,-6.04c-0.9365,-0.861 -1.8522,-1.759 -2.7566,-2.727c-0.6758,-0.723 -1.341,-1.474 -2.0066,-2.205c-1.1026,-1.215 -2.5658,-2.641 -3.2133,-3.239c-0.6574,-0.612 0.0126,-0.155 1.4492,1.042c11.8118,9.855 22.6893,16.237 32.9664,22.234c6.701,3.916 13.1917,7.718 19.5077,12.27c1.489,1.075 1.369,1.64 -0.252,1.201c-0.926,-0.248 -1.842,-0.504 -2.768,-0.773c-1.621,-0.46 -4.169,-1.685 -5.7,-2.667c-0.33,-0.212 -0.64,-0.418 -0.961,-0.616c-1.531,-0.982 -3.9084,-2.768 -5.3764,-3.9c-7.05,-5.459 -15.0878,-9.258 -22.5407,-14.193c-0.1999,-0.142 -0.38,-0.258 -0.5701,-0.387zm-29.7553,-49.845c3.6316,1.15 7.2575,2.036 10.8647,2.831c7.0122,2.195 13.8726,3.778 20.6427,5.324c16.24,3.708 32.9231,7.545 51.2831,20.123c1.51,1.039 3.711,3.1 4.932,4.539c4.792,5.615 9.79,11.057 15.035,16.192c1.354,1.32 1.25,1.48 -0.218,0.327c-2.456,-1.935 -4.88,-3.977 -7.281,-6.159c-22.3,-20.272 -42.2134,-25.679 -61.4522,-30.901c-10.9533,-2.972 -22.1175,-6.036 -33.8745,-11.811c-1.5851,-0.776 -1.5513,-0.988 0.0682,-0.465zm81.8655,26.725c-0.83,-0.568 -0.82,-0.554 0,0c0.83,0.567 0.83,0.546 0,0zm-2.972,-1.906c-0.611,-0.378 -0.601,-0.385 0,0c0.621,0.37 0.621,0.37 0,0zm-11.79,-21.114c-0.03,-0.04 0.152,-0.03 0.384,0.027c0.151,0.034 0.292,0.074 0.443,0.108c0.06,0.017 0.059,0.122 -0.002,0.105c-0.141,-0.041 -0.272,-0.069 -0.403,-0.096c-0.201,-0.038 -0.392,-0.104 -0.422,-0.144zm-3.825,-6.018c-1.169,-1.54 -2.306,-3.081 -3.444,-4.602c-0.543,-0.821 -1.096,-1.634 -1.638,-2.476c-7.648,-11.603 -14.795,-23.514 -21.6363,-35.567c-0.9337,-1.651 -2.0612,-3.821 -2.5193,-4.87c-0.2729,-0.627 -0.5459,-1.253 -0.8085,-1.888c-2.0349,-4.813 -4.0592,-9.655 -6.2257,-14.454c-0.771,-1.708 -0.5776,-1.789 0.4377,-0.178c1.459,2.298 2.9676,4.663 4.5253,7.116c25.0508,39.486 59.3478,93.578 95.5918,119.439c6.217,4.439 12.452,8.43 18.683,12.03c1.563,0.896 1.83,1.837 0.602,2.102c-0.751,0.161 -1.501,0.301 -2.252,0.44c-0.365,0.063 -0.73,0.125 -1.085,0.18c-0.608,0.097 -2.378,-0.459 -3.952,-1.306c-14.225,-7.639 -27.33,-18.775 -39.441,-31.391c-1.302,-1.358 -3.492,-3.489 -4.794,-4.847c-2.108,-2.192 -4.011,-4.576 -5.872,-7.054c-1.138,-1.521 -2.377,-3.049 -2.796,-3.382c-0.419,-0.332 -1.751,-1.772 -2.961,-3.24c-7.2,-8.661 -13.982,-17.528 -20.415,-26.052zm-15.9456,-80.661c8.1544,3.464 16.0546,8.255 23.6296,13.783c5.329,4.349 10.307,9.08 14.638,13.876c0.357,0.399 0.997,0.216 0.744,-0.342c-0.127,-0.279 -0.264,-0.571 -0.411,-0.856c-0.235,-0.468 0.685,0.157 2.07,1.433c3.288,2.998 6.503,6.112 9.678,9.256c1.333,1.335 1.106,2.206 -0.517,1.913c-0.968,-0.176 -1.926,-0.359 -2.903,-0.548c-1.613,-0.322 -3.987,-1.717 -5.32,-3.073c-16.729,-17.074 -34.155,-31.792 -53.0464,-39.092c-1.6178,-0.628 -1.6257,-0.767 0.0153,-0.322c3.8053,1.042 7.6165,2.35 11.4225,3.972zm23.5676,10.122c-0.759,-0.558 -1.457,-2.403 -1.621,-4.125c-0.259,-2.77 -0.684,-5.831 -1.416,-9.329c-0.702,-3.457 -4.736,-7.788 -9.834,-13.281c-3.6174,-3.894 -7.7911,-8.391 -11.7911,-13.618c-1.1483,-1.513 -2.0673,-2.822 -2.0963,-2.904c-0.029,-0.082 0.9337,1.029 2.2052,2.43c3.9236,4.331 7.9055,8.183 11.3802,11.541c6.052,5.843 10.831,10.454 11.764,14.031c1.351,5.172 1.98,9.409 2.434,13.173c0.205,1.713 -0.266,2.639 -1.025,2.082zm16.849,-90.0426c2.232,1.4381 4.535,2.8446 6.897,4.3096c10.933,6.714 23.647,14.557 38.719,30.35c1.303,1.357 2.808,3.911 3.387,5.658c0.75,2.324 1.501,4.648 2.242,6.959c0.558,1.741 0.059,1.965 -1.14,0.49c-17.913,-22.062 -32.131,-33.205 -44.092,-42.556c-2.137,-1.673 -4.194,-3.2817 -6.17,-4.8667c-1.447,-1.189 -1.374,-1.3257 0.157,-0.3439zm56.189,59.7366c-0.055,-0.332 -0.121,-0.657 -0.176,-0.988c-0.102,-0.546 0.266,0.424 0.885,2.162c0.493,1.376 1.027,2.741 1.561,4.086c0.839,2.529 1.88,5.011 3.095,7.427c0.401,0.801 0.823,1.587 1.255,2.366c3.936,7.924 8.645,15.567 13.915,22.879c7.654,10.605 14.121,21.444 20.665,32.474c0.965,1.628 1.13,2.002 0.371,0.844c-0.454,-0.7 -0.918,-1.393 -1.372,-2.093c-11.098,-17.007 -22.562,-34.573 -33.693,-50.831c-25.323,-37.007 -43.16,-54.382 -57.494,-68.36c-3.593,-3.497 -6.917,-6.737 -10.06,-10.0088c-1.302,-1.3577 -1.209,-1.4885 0.217,-0.2844c3.073,2.5983 6.278,5.0982 9.633,7.7152c12.58,9.847 27.687,21.68 47.032,46.411c1.169,1.497 2.35,3.462 2.628,4.375c0.183,0.548 0.356,1.103 0.54,1.652c0.172,0.576 1.107,0.9 0.998,0.174zm-28.533,-108.6827c20.519,15.3748 47.782,40.7425 73.545,71.2547c5.827,7.273 11.409,14.749 16.754,22.419c3.162,4.541 6.2,9.193 9.147,13.913c1.005,1.598 2.316,4.316 2.945,6.068c12.62,34.684 28.291,70.182 42.766,95.919c0.923,1.637 1.69,3.018 1.709,3.066c0.02,0.048 0.069,0.115 0.078,0.17c0.02,0.048 0.039,0.075 0.06,0.08c0.02,0.006 0.05,0.025 0.07,0.052c0.019,0.027 0.11,0.022 0.202,-0.025c0.092,-0.047 -0.201,1.163 -0.63,2.681c-1.119,4.097 -2.026,8.308 -2.714,12.625c-0.249,1.612 -0.803,1.504 -1.29,-0.249c-6.737,-24.036 -16.548,-53.63 -32.827,-84.703c-6.383,-12.226 -15.098,-24.76 -22.771,-35.412c-1.285,-1.785 -2.581,-3.583 -3.876,-5.359c-4.223,-5.828 -8.584,-11.844 -12.483,-17.683c-24.152,-36.2775 -54.447,-67.3587 -72.547,-85.9264c-0.14,-0.1458 -0.279,-0.2915 -0.418,-0.4372c-0.219,-0.2321 0.802,0.4435 2.28,1.5469zm134.171,165.8147c-2.559,-6.145 -5.41,-12.406 -8.602,-18.809c-0.842,-1.676 -2.031,-4.443 -2.649,-6.181c-9.572,-26.914 -19.399,-55.543 -25.722,-80.133c-4.25,-16.5756 -3.543,-28.9204 -2.863,-40.873c0.921,-16.1678 1.799,-31.5584 -9.581,-55.4594c-0.802,-1.686 -0.659,-1.7708 0.346,-0.1521c15.696,25.2917 16.68,42.4762 17.767,62.0071c0.642,11.4315 1.308,23.2804 5.036,37.7774c4.279,16.657 10.108,34.923 15.756,52.579c6.754,21.124 13.622,42.704 18.135,62.356c0.406,1.75 0.021,1.806 -0.862,0.139c-1.295,-2.419 -2.622,-4.794 -3.878,-7.118c-0.903,-1.673 -2.162,-4.429 -2.883,-6.133zm-52.04,-209.8721c-0.16,-0.13063 -0.24,-0.21689 -0.169,-0.18593c0.06,0.01754 0.2,0.10038 0.32,0.1774c0.111,0.06359 0.18,0.15743 0.169,0.18594c-0.02,0.03606 -0.161,-0.0468 -0.32,-0.17741zm11.257,3.57613c0.724,0.25247 2.58,1.1393 4.143,2.03561c17.883,10.21836 26.567,22.13326 31.557,33.00636c0.781,1.701 1.276,4.1928 1.244,5.5417c-0.042,1.3564 -0.594,1.0594 -1.334,-0.6509c-5.643,-13.0001 -15.285,-26.9202 -34.114,-38.67674c-1.531,-0.98185 -2.21,-1.51603 -1.496,-1.25603zm65.83,240.40097c8.496,-16.252 21.018,-31.334 36.034,-42.417c15.311,-11.302 33.149,-18.09 48.9,-24.084c18.223,-6.929 34.687,-13.222 44.007,-24.822c0.929,-1.141 0.969,-1.109 0.1,0.092c-9.227,12.691 -26.734,20.312 -46.104,28.751c-14.411,6.267 -29.321,12.759 -43.307,22.109c-22.164,14.807 -38.88,37.146 -46.208,60.549c-0.47,1.506 -0.56,1.448 -0.201,-0.101c1.676,-7.241 4.218,-13.714 6.779,-20.077zm138.968,-81.724c1.364,-5.521 1.815,-10.844 1.34,-15.815c-0.164,-1.742 -0.073,-1.727 0.192,0.003c0.795,5.17 0.592,10.828 -0.619,16.835c-4.773,23.588 -26.536,54.083 -63.011,65.311c-65.552,20.184 -67.526,45.143 -69.437,69.288c-0.511,6.527 -1.055,13.202 -2.891,19.754c-0.429,1.518 -0.549,1.441 -0.26,-0.139c1.032,-5.627 1.408,-11.351 1.763,-16.955c1.634,-25.826 3.334,-52.528 67.065,-73.914c32.048,-10.735 59.135,-37.209 65.858,-64.368zm-143.365,162.802c0.421,0.27 0.89,1.87 0.863,3.546c-0.011,0.629 -0.051,1.239 -0.101,1.814c-0.158,1.649 -0.399,1.537 -0.533,-0.187c-0.057,-0.806 -0.165,-1.637 -0.302,-2.509c-0.306,-1.742 -0.337,-2.92 0.073,-2.664zm-16.257,20.904c0.639,-0.141 0.689,-0.074 0.128,0.237c-0.552,0.324 -1.04,0.477 -1.128,0.315c-0.098,-0.176 0.361,-0.412 1,-0.552zm-7.768,8.177c-13.422,10.735 -42.051,17.683 -78.929,18.876c-40.438,1.295 -82.507,-4.737 -109.791,-15.739c-26.1197,-10.538 -42.4567,-20.696 -54.3993,-28.115c-7.7982,-4.845 -14.0748,-8.743 -20.4252,-11.22c-1.6075,-0.635 -1.6068,-0.677 0.0116,-0.091c6.535,2.32 13.0848,6.202 21.2672,11.054c12.1285,7.178 28.7436,17.027 54.4077,26.927c58.384,22.523 155.624,14.895 187.552,-2.129c1.295,-0.666 1.433,-0.478 0.306,0.437zm-178.908,-176.876c0.88,-11.126 -12.6035,-20.803 -19.8144,-31.279c-1.0766,-1.566 -0.8825,-1.689 0.317,-0.213c3.3603,4.145 6.7589,7.807 9.7604,11.037c4.978,5.353 8.904,9.579 9.56,12.738c0.675,3.271 1.083,6.158 1.353,8.796c0.174,1.735 -0.177,2.822 -0.717,2.455c-0.561,-0.374 -0.587,-1.866 -0.459,-3.534zm8.632,-39.439c1.207,0.414 2.402,0.898 3.587,1.453c1.595,0.748 1.573,0.847 -0.023,0.141c-1.144,-0.501 -2.33,-0.993 -3.556,-1.455c-1.618,-0.607 -1.617,-0.69 -0.008,-0.139zm41.548,-32.675c3.423,2.153 6.741,4.549 9.975,7.11c1.458,1.16 3.158,3.529 3.808,5.265c0.513,1.36 1.007,2.714 1.501,4.069c0.618,1.738 0.047,2.056 -1.286,0.721c-12.329,-12.247 -23.063,-19.378 -32.543,-25.259c-1.542,-0.954 -1.497,-1.194 0.131,-0.573c2.652,1.023 5.316,1.997 7.968,3.063c1.608,0.635 4.186,1.9 5.749,2.776c1.573,0.91 3.145,1.84 4.697,2.828zm3.529,-15.5048c-5.151,-12.1414 -13.269,-27.1242 -13.749,-39.898c-0.063,-1.7134 -0.002,-1.6959 0.091,0.0159c0.189,3.2977 0.801,6.6973 1.708,10.0036c1.012,3.6214 2.015,7.2713 3.818,10.7435c1.5,3.5102 2.929,7.0524 4.511,10.5232c6.234,13.93 12.916,27.6746 18.258,41.7456c2.687,7.024 5.069,14.107 7.006,21.208c0.43,1.546 0.819,3.081 1.199,4.623c0.426,1.756 0.531,2.776 0.266,2.288c-0.157,-0.298 -0.325,-0.589 -0.481,-0.887c-0.01,-0.034 -0.05,-0.067 -0.1,-0.092c-0.06,-0.038 -0.381,-1.458 -0.767,-3.223c-4.372,-19.612 -13.619,-37.881 -21.76,-57.0508zm110.699,84.1238c-4.999,-9.086 -10.365,-17.983 -15.921,-26.41c-1.046,-1.588 -2.397,-4.276 -2.975,-6.023c-0.56,-1.658 -1.109,-3.323 -1.659,-4.967c-0.578,-1.748 -0.806,-3.235 -0.781,-3.523c0.022,-0.141 -0.026,-0.313 -0.134,-0.523c-0.166,-0.312 -0.323,-0.61 -0.5,-0.914c-0.275,-0.501 -0.943,-2.327 -1.491,-4.076c-2.826,-8.992 -5.334,-17.68 -7.425,-25.868c-4.669,-18.1714 -2.203,-30.4476 0.185,-42.3146c2.784,-13.8366 5.646,-28.1033 -2.735,-51.796c-0.619,-1.73805 -0.456,-1.79609 0.366,-0.1043c11.948,24.4344 11.078,39.9642 10.144,56.2863c-0.682,12.0364 -1.39,24.4861 2.897,41.2196c5.866,22.878 14.77,49.186 23.682,74.392c0.619,1.738 0.396,1.799 -0.528,0.141c-1.012,-1.821 -2.063,-3.674 -3.125,-5.52zm-32.902,-117.9638c1.796,-12.1129 3.485,-23.9198 0.932,-37.2959c-0.363,-1.927 -0.852,-4.7751 -1.499,-7.8796c-0.366,-1.7593 -0.214,-1.7678 0.354,-0.0129c6.969,21.5873 4.272,35.0701 1.631,48.1588c-2.41,11.966 -4.896,24.3201 -0.181,42.7044c1.816,7.087 3.949,14.561 6.311,22.281c0.547,1.749 0.273,1.806 -0.569,0.13c-4.769,-9.525 -8.378,-18.849 -9.249,-29.3048c-1.115,-13.4849 0.408,-26.2665 2.27,-38.781zm43.992,-27.5641c0.818,1.3221 1.555,2.6417 2.201,3.9245c0.863,1.6825 1.308,4.1493 1.175,5.4899c-0.133,1.3406 -0.796,1.0637 -1.618,-0.6281c-4.686,-9.6897 -12.393,-20.089 -26.803,-29.3718c-1.531,-0.9819 -1.477,-1.1873 0.109,-0.4528c8.129,3.7519 15.719,8.9789 21.463,17.5971c0.207,0.3234 0.487,0.531 0.759,0.6204c0.472,0.1689 1.709,1.2021 2.714,2.8208zm13.923,-6.0939c2.417,6.1878 5.676,12.1676 9.434,17.9869c1.036,1.596 0.995,1.6262 -0.102,0.0756c-0.781,-1.1008 -1.531,-2.2242 -2.282,-3.3477c-2.999,-4.5776 -5.7,-9.4792 -7.398,-14.4789c-0.163,-0.5632 -0.305,-1.1205 -0.448,-1.6779c-0.207,-0.9445 0.126,-0.2792 0.796,1.442zm70.332,141.0848c0.074,6.013 0.48,12.111 1.179,18.242c0.204,1.733 -0.472,3.558 -1.522,4.064c-1.06,0.513 -2.136,-0.473 -2.391,-2.232c-1.184,-7.967 -2.07,-16.9 -2.172,-27.406c-0.436,-40.178 -23.55,-70.6576 -42.121,-95.1527c-3.267,-4.2973 -6.405,-8.4414 -9.312,-12.4659c-1.107,-1.543 -1.077,-1.5657 0.072,-0.0528c2.306,3.0391 4.674,6.0329 7.063,8.9907c10.348,12.8194 20.868,25.5734 29.499,39.5367c4.295,6.954 8.131,14.186 11.185,21.601c3.065,7.408 5.347,14.999 6.751,22.556c1.434,7.555 1.849,14.972 1.769,22.319zm47.87,6.265c11.442,-5.34 25.153,-11.464 31.697,-23.313c0.729,-1.325 0.749,-1.299 0.06,0.038c-7.915,15.347 -26.587,22.461 -47.548,30.437c-15.772,6.01 -33.659,12.815 -49.033,24.162c-12.548,9.263 -23.363,21.345 -31.567,34.544c-0.789,1.266 -1.149,1.677 -0.853,0.879c0.306,-0.806 1.163,-2.495 1.932,-3.766c9.255,-15.052 21.7,-27.24 36.735,-36.454c18.355,-11.249 39.043,-17.43 58.577,-26.527zm-19.283,61.898c-67.372,18.981 -69.431,42.325 -71.417,64.89c-0.61,7.014 -1.263,14.184 -3.856,21.253c-0.539,1.454 -0.639,1.383 -0.24,-0.154c1.702,-6.391 2.222,-12.863 2.72,-19.214c1.887,-23.942 3.838,-48.676 69.033,-68.742c36.689,-11.281 58.577,-42.015 63.393,-65.758c1.232,-6.065 1.436,-11.785 0.653,-17.046c-0.265,-1.751 -0.174,-1.756 0.192,0.003c1.134,5.457 1.227,11.559 0.191,18.018c-4.082,25.831 -26.231,57.046 -60.669,66.75zm-80.049,101.844c-1.463,3.481 -2.059,7.793 -5.819,8.933c-2.703,0.815 -5.582,1.263 -8.402,1.791c-1.481,0.286 -2.516,0.49 -2.322,0.41c0.122,-0.049 0.234,-0.09 0.346,-0.153c2.368,-0.733 4.701,-1.792 6.989,-3.212c1.236,-0.767 2.109,-1.556 2.02,-1.677c-0.079,-0.107 -0.208,-0.281 -0.277,-0.375c-0.069,-0.094 -0.039,-0.075 0.07,0.031c0.11,0.105 0.251,0.104 0.293,0.011c0.042,-0.093 0.156,-0.239 0.249,-0.349c0.061,-0.066 0.123,-0.132 0.175,-0.212c1.865,-2.164 2.858,-5.382 2.965,-9.436c0.048,-1.692 0.471,-2.811 1.164,-2.536c0.693,0.296 1.399,0.396 1.621,0.397c0.122,-0.006 0.263,0.014 0.384,0.049c0.08,0.023 0.171,0.06 0.251,0.104c0.08,0.045 0.18,0.095 0.25,0.147c0.141,0.083 0.3,0.213 0.36,0.273c0.06,0.059 0.119,0.119 0.129,0.153c0.009,0.034 0.059,0.101 0.098,0.176c0.039,0.075 0.349,0.28 0.628,0.572c0.278,0.291 0.445,0.582 0.476,0.58c0.04,-0.009 0.19,0.108 0.36,0.231c0.17,0.123 0.178,0.263 0.044,0.382c-0.143,0.126 -0.211,0.57 -0.358,0.864c-0.136,0.329 -1.095,1.43 -1.694,2.846zm55.583,231.979c0.34,-5.986 1.738,-11.739 0.77,-18.106c-0.703,-4.637 -2.048,-8.966 -3.797,-13.306c-0.69,-1.728 -0.724,-2.117 -0.159,-0.815c0.332,0.77 0.642,1.555 0.943,2.348c0.301,0.772 0.652,1.527 1.024,2.287c0.627,1.256 0.854,2.228 0.687,2.537c-0.084,0.166 -0.067,0.402 0.09,0.7c4.313,7.687 9.271,14.939 13.942,22.424c1.971,3.163 4.89,7.717 5.654,11.687c0.346,1.754 -0.701,3.956 -1.819,4.884c-4.324,3.502 -8.435,3.245 -12.364,-0.771c-1.313,-1.35 -2.707,-3.882 -3.34,-5.403c-0.652,-1.527 -1.461,-4.057 -1.586,-5.641c-0.076,-0.959 -0.091,-1.901 -0.045,-2.825zm-57.792,-193.886c-6.593,-4.99 -13.364,-8.916 -18.323,-15.526c-1.138,-1.52 -1.844,-2.842 -1.774,-2.832c0.071,0.01 -0.063,-0.45 0.056,-0.91c0.064,-0.255 0.2,-0.479 0.445,-0.66c0.184,-0.136 0.378,-0.196 0.57,-0.214c0.364,-0.02 1.14,-0.49 1.828,-1.122c0.688,-0.632 1.471,-0.92 1.582,-0.877c0.07,0.031 0.141,0.062 0.211,0.072c0.836,0.232 1.662,0.43 2.468,0.601c1.36,0.279 2.49,0.481 2.509,0.529c0.029,0.061 1.372,0.23 3.001,0.746c0.232,0.077 0.483,0.161 0.724,0.252c1.608,0.594 2.879,1.416 2.899,1.422c0.031,-0.002 1.292,0.764 2.781,1.86c6.964,5.172 13.453,12.806 16.854,19.385c1.196,2.327 2.401,4.667 3.556,7.024c0.832,1.684 2.204,4.399 2.964,6.115c0.995,2.248 2.28,5.295 3.162,7.626c0.66,1.729 1.596,4.475 2.186,6.131c0.368,0.991 0.705,1.984 1.033,2.985c1.56,4.749 3.501,9.177 4.143,13.775c0.245,1.745 0.543,4.548 0.97,6.304c0.596,2.479 1.203,4.951 1.84,7.4c2.473,9.626 5.015,19.261 7.659,28.905c0.487,1.753 1.027,4.584 1.252,6.323c0.285,2.357 0.59,4.72 0.895,7.083c0.235,1.753 0.801,3.613 0.882,4.215c0.081,0.603 -0.188,0.988 -0.179,1.043c0.02,0.048 0.229,1.509 0.493,3.26c1.763,11.578 4.101,23.249 7.808,34.655c0.768,3.098 2.038,6.446 3.511,9.77c4.053,10.674 8.612,21.264 13.274,31.821c0.75,1.703 0.608,1.766 -0.397,0.148c-1.636,-2.623 -3.404,-5.232 -5.122,-7.774c-1.066,-1.573 -2.529,-4.241 -3.229,-5.961c-3.385,-8.227 -6.577,-16.493 -9.425,-24.743c-11.22,-32.53 -11.687,-64.631 -21.894,-97.246c-0.058,-0.164 -0.096,-0.323 -0.154,-0.487c-0.086,-0.267 -0.554,-0.73 -0.819,-1.238c-0.137,-0.272 -0.223,-0.581 -0.227,-0.951c0.013,-0.175 0.006,-0.377 -0.001,-0.558c-0.015,-0.32 -0.494,-1.976 -1.102,-3.721c-2.977,-8.467 -6.718,-17.114 -11.668,-24.89c-1.025,-1.604 -1.885,-2.853 -1.855,-2.834c0.03,0.019 -0.346,-0.49 -0.81,-1.141c-0.475,-0.665 -0.87,-1.222 -0.9,-1.241c-0.04,-0.012 -0.308,-0.353 -0.605,-0.734c-0.178,-0.241 -0.356,-0.482 -0.555,-0.708c-3.785,-4.722 -7.763,-9.489 -12.517,-13.082zm-128.798,2.534c-12.453,-0.292 -25.046,-1.308 -37.764,-3.329c-1.614,-0.259 -1.613,-0.28 0.001,-0.042c12.085,1.764 24.858,2.895 37.754,3.336c1.587,0.051 1.586,0.072 0.009,0.035z"/>
 </g>
</svg>