<svg width="383" height="401" viewBox="0 0 383 401" fill="none" xmlns="http://www.w3.org/2000/svg">
<path d="M0.111943 21.6477C1.45588 28.4551 3.19201 34.3663 5.49279 40.0805C8.95852 48.6965 13.4931 56.7637 18.8523 64.3716C25.8515 74.3034 35.0378 81.5019 46.0392 86.5046C51.504 88.9904 56.9711 91.4514 62.3643 94.0424C69.6395 97.5255 74.6089 103.271 78.0568 110.444C79.54 113.537 80.9066 116.681 82.3897 119.773C84.3455 123.816 86.9109 127.441 90.3299 130.424C94.7147 134.265 99.8502 136.547 105.564 137.39C110.31 138.084 115.1 138.42 119.879 138.88C124.141 139.293 128.432 139.522 132.678 140.108C139.344 141 145.719 142.91 151.67 146.198C163.594 152.801 170.123 162.852 170.85 176.437C171.145 182.068 170.728 187.746 170.587 193.399C170.445 199.053 170.104 204.713 170.075 210.364C170.034 215.865 170.63 221.337 172.007 226.681C176.149 242.752 185.747 254.436 200.542 261.859C211.093 267.169 222.375 270.048 234.033 271.246C269.328 274.87 302.284 268.004 332.438 248.917C340.111 244.074 347.665 239.034 355.241 234.02C364.047 228.186 373.449 223.861 383.889 221.792C396.493 219.286 408.375 221.163 419.88 226.771C430.588 231.996 439.241 239.593 446.776 248.691C459.82 264.43 469.653 282 476.943 301.03C488.176 330.396 495.097 360.711 497.036 392.126C497.15 394.013 497.078 395.895 497.181 397.768C497.257 399.254 498.079 400.186 499.265 400.269C500.486 400.368 501.431 399.535 501.519 398.027C501.609 396.494 501.613 394.941 501.517 393.404C500.172 368.442 495.571 344.029 488.147 320.191C484.592 308.734 480.23 297.539 476.42 286.158C473.266 276.713 470.813 267.071 469.323 257.218C465.912 234.616 463.962 211.935 464.927 189.035C465.367 178.6 465.451 168.12 465.297 157.656C465.123 146.32 463.647 135.09 460.912 124.043C456.264 105.341 446.744 89.6502 432.315 76.8426C415.092 61.5563 395.276 51.6877 372.668 47.3802C360.515 45.0683 348.232 43.9126 335.901 43.1379C330.934 42.8347 325.977 42.545 321.012 42.2171C310.364 41.521 300.456 38.432 291.442 32.7527C283.322 27.6271 275.29 22.3603 267.255 17.1182C259.76 12.2234 251.916 8.02997 243.48 5.01281C226.971 -0.913919 210.262 -1.22993 193.354 3.10798C184.015 5.5132 175.088 8.98731 166.512 13.3757C154.13 19.7286 142.572 27.3992 131.012 35.0944C119.465 42.7784 107.873 50.4087 96.1069 57.7745C91.7845 60.4874 87.0318 62.602 82.2927 64.5687C74.8556 67.6441 67.3247 67.5176 59.6999 64.7358C51.0892 61.5909 43.1888 57.1935 35.5081 52.2943C22.7076 44.1206 11.2405 34.4033 1.5504 22.636C1.34875 22.394 0.988009 22.2617 0.0715918 21.6813L0.111943 21.6477ZM366.227 134.433C366.361 134.731 366.494 135.054 366.628 135.352C366.509 135.291 366.29 135.246 366.294 135.197C366.294 134.924 366.355 134.668 366.393 134.386C365.626 133.931 364.782 133.519 365.358 132.378C364.719 131.612 363.872 130.951 363.491 130.083C361.713 126.007 359.898 121.916 358.404 117.716C355.261 108.831 352.299 99.8637 349.259 90.9385C347.816 86.7191 346.501 82.4615 344.917 78.2914C340.856 67.6205 335.427 57.7697 327.048 49.7624C326.476 49.2134 326.163 48.4269 325.643 47.5843C328.547 47.3516 328.601 47.3068 329.983 48.638C335.307 53.77 340.146 59.3052 343.858 65.7567C347.378 71.8676 350.365 78.2406 352.486 84.9697C354.919 92.6467 357.159 100.393 359.348 108.16C361.409 115.418 363.317 122.712 365.237 130.019C365.429 130.769 365.266 131.612 365.268 132.407C366.202 132.791 366.657 133.391 366.227 134.433ZM179.352 191.973C178.862 191.904 178.396 191.836 177.905 191.767C177.943 191.621 177.981 191.476 178.008 191.316C178.447 191.543 178.886 191.769 179.326 191.996C183.399 199.809 189.858 205.43 196.862 210.392C204.509 215.798 213.185 219.048 222.342 220.963C240.339 224.739 258.117 224.096 275.677 218.463C284.676 215.567 293.388 211.999 301.753 207.603C308.278 204.172 314.662 200.516 321.113 196.94C328.508 192.83 336.294 189.736 344.578 188.005C365.385 183.699 385.825 185.076 405.872 192.269C411.552 194.302 416.244 197.5 419.627 202.518C419.922 202.955 419.875 203.609 419.992 204.241C415.851 202.634 412.105 200.926 408.202 199.713C399.427 197.001 390.382 196.314 381.246 196.613C367.2 197.086 353.675 200.017 340.766 205.464C331.451 209.375 322.318 213.75 313.146 217.997C307.244 220.728 301.454 223.73 295.498 226.369C280.294 233.136 264.343 237.064 247.724 237.675C228.698 238.378 211.454 233.429 197.014 220.334C188.6 212.697 182.166 203.798 178.31 193.046C178.705 192.672 179.061 192.307 179.364 191.987L179.352 191.973ZM176.012 178.97C177.178 179.685 178.184 180.236 179.093 180.891C187.435 186.857 196.543 191.09 206.673 192.97C211.549 193.873 216.471 194.669 221.399 195.28C231.768 196.572 241.977 195.675 251.829 192.136C258.444 189.768 265.021 187.273 271.431 184.415C280.82 180.237 290.034 175.658 299.351 171.313C315.884 163.598 333.305 159.356 351.486 158.514C362.929 157.978 374.11 159.505 384.379 165.05C386.758 166.348 389.207 167.839 391.044 169.77C396.939 175.998 402.565 182.45 408.256 188.87C408.615 189.3 408.664 189.988 408.877 190.654C408.375 190.708 408.182 190.777 408.025 190.725C406.719 190.333 405.399 189.952 404.111 189.499C392.498 185.485 380.55 183.502 368.251 183.476C350.053 183.422 332.86 187.199 317.143 196.74C314.355 198.425 311.503 200.004 308.664 201.572C296.929 208.046 284.791 213.626 271.875 217.371C254.135 222.515 236.326 222.41 218.498 217.879C205.477 214.581 194.597 207.701 185.718 197.672C182.18 193.672 179.187 189.287 176.695 184.574C175.826 182.929 174.997 181.251 175.99 178.943L176.012 178.97ZM360.885 141.253C360.719 141.573 360.566 141.883 360.401 142.203C359.419 142.064 358.438 141.925 357.459 141.761C349.296 140.384 341.097 140.222 332.874 141.014C318.52 142.403 305.006 146.578 292.252 153.195C287.087 155.881 282.05 158.803 276.925 161.592C265.748 167.669 254.206 172.843 241.967 176.389C235.866 178.169 229.695 179.62 223.327 180.097C203.371 181.598 186.107 175.913 172.323 160.927C171.046 159.531 169.917 158.148 169.568 156.389C169.944 156.076 170.072 155.901 170.184 155.899C170.688 155.957 171.206 156.004 171.676 156.159C179.406 158.876 187.394 159.441 195.51 159.149C208.152 158.685 220.27 155.787 232.112 151.547C244.701 147.027 256.81 141.357 269.01 135.907C275.733 132.904 282.529 130.043 289.403 127.413C297.127 124.464 305.176 122.724 313.424 122.07C321.697 121.42 329.891 121.768 337.766 124.66C339.823 125.406 341.867 126.437 343.639 127.717C348.362 131.117 352.955 134.716 357.564 138.279C358.736 139.194 359.782 140.258 360.885 141.253ZM465.126 261.011C463.869 259.256 463.242 258.503 462.772 257.665C455.846 245.417 448.222 233.614 440.255 222.028C437.809 218.463 435.958 214.629 434.488 210.568C430.577 199.75 429.081 188.604 430.408 177.157C431.041 171.71 431.87 166.28 432.551 160.838C433.233 155.395 434.076 149.955 434.448 144.497C435.98 122.605 432.21 101.759 421.546 82.398C419.391 78.4989 416.841 74.8372 414.516 71.0344C414.148 70.4294 413.304 69.7436 414.424 68.7646C427.05 76.9472 438.084 86.7742 446.139 99.7221C453.055 110.839 456.827 123.049 458.917 135.864C460.821 147.581 461.373 159.399 461.115 171.254C460.928 179.998 460.63 188.743 460.443 197.486C460.189 208.472 460.495 219.447 461.7 230.38C462.627 238.902 463.729 247.414 464.743 255.931C464.9 257.213 464.956 258.51 465.151 261.013L465.126 261.011ZM432.249 218.926C431.521 219.145 431.335 219.278 431.228 219.231C430.296 218.823 429.364 218.415 428.463 217.935C418.306 212.661 407.598 209.35 396.13 208.517C380.54 207.384 365.718 210.371 351.583 216.726C344.56 219.888 337.787 223.596 330.961 227.187C324.293 230.693 317.761 234.472 311.07 237.951C302.696 242.308 294.022 246.004 284.965 248.72C265.652 254.492 246.17 255.303 226.537 250.657C214.628 247.846 204.014 242.406 195.231 233.778C187.316 225.999 181.405 216.801 177.052 206.6C176.255 204.713 175.614 202.742 175.099 200.756C174.42 198.11 174.568 197.303 175.628 193.983C175.785 194.034 176.009 194.03 176.074 194.135C176.663 195.17 177.318 196.174 177.777 197.272C180.985 205.169 185.715 212.049 191.677 218.084C202.187 228.758 214.553 235.972 229.496 238.488C237.842 239.894 246.173 240.243 254.593 239.332C272.01 237.463 288.48 232.489 304.158 224.734C312.915 220.399 321.724 216.181 330.561 212.053C337.855 208.641 345.334 205.644 353.087 203.331C364.022 200.052 375.187 198.472 386.577 198.664C396.241 198.835 405.728 200.134 414.607 204.285C421.663 207.587 428.129 211.63 432.274 218.928L432.249 218.926ZM175.074 208.135C175.511 208.659 175.663 208.76 175.724 208.915C176.418 210.295 177.061 211.696 177.782 213.054C182.635 222.405 188.593 230.949 196.663 237.847C205.99 245.817 216.743 250.822 228.719 253.304C252.087 258.14 274.745 255.618 296.796 246.791C305.087 243.482 313.021 239.445 320.853 235.176C327.914 231.321 334.954 227.414 342.046 223.623C350.68 219.004 359.64 215.16 369.217 212.876C392.041 207.437 413.431 210.801 433.405 223.157C435.91 224.714 438.128 226.556 439.739 229.064C441.973 232.51 444.272 235.926 446.492 239.383C446.873 239.977 446.978 240.732 447.565 242.476C446.111 241.113 445.45 240.593 444.899 239.959C437.832 231.997 429.269 226.147 419.639 221.779C408.566 216.745 397.067 215.027 385.023 217.111C376.147 218.652 367.762 221.492 359.96 225.988C356.55 227.963 353.269 230.15 349.957 232.271C342.173 237.254 334.516 242.471 326.615 247.232C298.126 264.407 267.128 270.233 234.26 266.843C224.324 265.827 214.69 263.421 205.517 259.355C199.198 256.555 193.357 253.017 188.549 247.956C178.249 237.152 174.3 224.019 174.487 209.399C174.489 209.101 174.738 208.825 175.036 208.144L175.074 208.135ZM140.29 136.613C142.219 136.031 143.158 135.682 144.135 135.46C157.658 132.417 169.404 126.093 179.647 116.762C186.488 110.538 193.52 104.543 200.565 98.5363C207.838 92.3395 216.169 88.0407 225.262 85.203C232.399 82.97 239.773 82.0882 247.102 83.4762C261.602 86.2254 275.792 90.1889 289.356 96.1085C289.977 96.3887 291.095 96.2544 290.976 97.6974C290.302 97.7354 289.647 97.8249 288.991 97.8024C277.198 97.5364 265.764 99.4775 254.636 103.236C242.42 107.355 230.714 112.552 219.75 119.431C214.531 122.709 209.214 125.841 203.865 128.907C197.02 132.857 189.883 136.183 182.314 138.526C174.886 140.819 167.319 142.181 159.533 141.994C156.817 141.933 154.02 141.666 151.417 140.919C148.002 139.937 144.738 138.397 140.274 136.649L140.29 136.613ZM381.37 159.881L381.018 160.607C380.379 160.524 379.696 160.524 379.107 160.308C368.93 156.623 358.43 155.804 347.708 156.605C329.191 158 311.649 162.889 294.957 170.987C286.792 174.965 278.638 178.957 270.307 182.573C263.399 185.572 256.324 188.208 249.215 190.692C242.528 193.028 235.553 193.897 228.457 193.636C219.169 193.287 210.021 191.957 201.092 189.442C192.586 187.052 184.908 182.948 177.933 177.529C177.016 176.812 176.167 175.902 175.522 174.937C174.877 173.971 174.454 168.515 174.662 166.359C175.558 167.025 176.405 167.549 177.14 168.212C184.193 174.546 192.517 178.385 201.659 180.609C213.062 183.387 224.442 182.857 235.783 180.175C248.355 177.194 260.31 172.542 271.771 166.614C277.702 163.563 283.519 160.266 289.379 157.047C295.998 153.4 302.841 150.295 310.039 147.943C324.063 143.343 338.422 141.494 353.136 143.244C356.529 143.652 359.892 144.381 363.206 145.242C365.514 145.825 367.723 146.809 369.515 148.55C373.443 152.362 377.44 156.093 381.408 159.872L381.37 159.881ZM285.799 89.0498C285.536 89.1999 285.368 89.4082 285.247 89.3723C280.031 87.7045 274.692 86.2989 269.632 84.2726C257.871 79.561 247.607 72.5999 238.872 63.3177C231.359 55.3397 223.562 47.6216 215.725 39.9371C208.4 32.7591 199.693 27.667 190.256 23.7758C184.352 21.3371 178.177 19.9672 171.907 18.9491C170.83 18.7764 169.465 19.1616 168.593 17.5414C169.293 17.0956 169.911 16.5803 170.635 16.2735C175.356 14.2306 179.988 11.9435 184.846 10.3107C196.134 6.55457 193.403 6.52954 205.175 10.0244C215.98 13.2324 225.816 18.477 234.655 25.3953C242.38 31.4418 248.992 38.6668 254.475 46.8327C258.095 52.2445 261.716 57.6563 265.177 63.1779C270.854 72.2065 277.123 80.7422 285.093 87.9293C285.402 88.2184 285.572 88.6688 285.823 89.052L285.799 89.0498ZM364.282 137.922C362.5 136.604 361.291 135.698 360.092 134.806C352.947 129.484 345.943 123.975 338.625 118.91C333.75 115.546 329.587 111.588 326.262 106.75C324.133 103.649 321.931 100.541 320.287 97.1726C317.159 90.7122 314.345 84.0816 311.491 77.4846C309.121 71.9878 306.959 66.3857 304.512 60.9068C301.342 53.8213 296.947 47.5063 291.769 41.7291C290.178 39.9564 288.585 38.2085 286.97 36.4336C287.438 36.3395 287.817 36.138 288.068 36.2478C289.183 36.6849 290.313 37.1108 291.339 37.7137C299.611 42.5301 308.504 45.4398 318.023 46.2567C320.427 46.4632 322.159 47.5031 323.812 49.1323C331.085 56.3305 336.968 64.4584 340.826 73.955C342.766 78.7168 344.579 83.5167 346.198 88.386C351.618 104.623 356.445 121.079 364.141 136.467C364.203 136.597 364.174 136.781 364.246 137.906L364.282 137.922ZM332.913 120.502C330.688 120.374 329.557 120.383 328.45 120.258C321.607 119.398 314.78 119.597 307.957 120.566C300.278 121.656 292.841 123.638 285.659 126.501C279.148 129.102 272.703 131.919 266.315 134.805C254.614 140.089 242.933 145.425 230.819 149.777C223.857 152.274 216.768 154.263 209.508 155.528C199.496 157.263 189.449 157.889 179.35 156.075C175.109 155.303 171.038 154.026 167.186 152.109C165.64 151.347 164.092 150.61 163.718 148.439C164.787 148.436 165.786 148.378 166.787 148.432C173.319 148.754 179.792 148.212 186.221 147.07C198.773 144.858 210.882 141.239 222.353 135.623C226.046 133.822 229.667 131.853 233.4 130.155C241.345 126.542 249.21 122.723 257.351 119.562C274.535 112.876 292.416 110.416 310.819 111.507C317.417 111.909 323.738 113.044 328.97 117.546C329.927 118.367 330.993 119.073 332.913 120.502ZM85.816 115.028C86.9655 115.232 87.9379 115.333 88.8857 115.568C96.7481 117.514 104.526 116.98 112.263 114.839C123.823 111.654 133.514 105.516 141.608 96.7221C146.02 91.9299 150.536 87.2339 156.176 83.8333C158.253 82.5811 160.328 81.4901 162.79 81.1925C174.713 79.7556 186.642 78.5181 198.682 78.6699C199.625 78.6812 200.555 78.8405 201.527 78.9414C201.435 79.4053 201.462 79.6562 201.357 79.7212C200.79 80.0796 200.196 80.4604 199.589 80.7158C193.682 83.2223 188.387 86.6544 183.928 91.2808C180.361 94.982 176.84 98.7123 173.41 102.55C169.385 107.042 164.926 110.985 159.81 114.222C152.216 119.023 143.993 122.412 135.433 124.988C125.202 128.045 114.762 129.704 104.036 130.007C96.4492 130.223 91.3026 126.835 87.7561 120.473C87.0817 119.281 86.4477 118.055 85.8898 116.811C85.7039 116.397 85.8272 115.861 85.8003 115.064L85.816 115.028ZM384.073 55.054C391.615 56.1507 397.068 59.3064 401.029 64.9356C401.724 65.9059 402.537 66.8001 403.245 67.7592C414.77 83.2598 420.521 100.769 420.909 119.99C421.048 126.663 420.528 133.338 420.193 140.018C419.881 146.177 419.247 152.332 419.072 158.492C418.661 171.75 419.478 184.897 423.447 197.672C423.611 198.196 423.47 198.792 423.483 200.148C419.36 195.2 415.832 190.827 412.104 186.599C409.67 183.842 407.925 180.763 406.733 177.337C404.278 170.317 402.708 163.128 402.65 155.705C402.606 149.363 402.884 143.027 403.124 136.699C403.29 132.415 403.79 128.149 403.869 123.869C404.345 100.465 398.644 78.7223 386.203 58.8141C385.585 57.8259 385.045 56.7951 384.059 55.0652L384.073 55.054ZM312.516 101.597C310.391 100.77 309.112 100.355 307.895 99.7971C306.036 98.9319 304.254 97.8875 302.363 97.094C295.433 94.1891 289.827 89.429 284.419 84.4136C277.704 78.1857 272.488 70.7772 267.555 63.1334C263.755 57.2331 259.982 51.3104 256.05 45.4975C250.442 37.2083 243.714 29.8982 235.836 23.7508C226.856 16.7451 216.872 11.487 205.946 8.10651C204.544 7.68057 203.179 7.109 201.098 6.36031C206.361 4.77686 210.97 4.64978 215.577 4.54734C224.867 4.32457 233.664 5.97047 241.367 11.58C241.647 11.7795 241.956 11.9319 242.25 12.1202C259.529 22.6897 273.727 36.2592 283.278 54.3386C286.161 59.7951 288.993 65.2718 291.787 70.7575C296.541 80.0996 302.259 88.8213 308.929 96.9089C309.993 98.1863 310.938 99.5398 312.527 101.61L312.516 101.597ZM254.858 80.1812C253.717 80.152 253.365 80.1945 253.036 80.1272C243.137 78.033 233.152 76.4654 223.063 75.5094C221.559 75.3725 220.006 74.9578 218.622 74.3347C212.498 71.5777 206.796 68.1509 201.58 63.8861C195.174 58.6308 189.703 52.5285 184.816 45.8707C182.484 42.6886 180.071 39.5737 177.645 36.47C173.056 30.6345 167.248 26.5892 159.987 24.7351C159.209 24.5401 158.228 24.5377 158.057 23.4039C160.668 20.7961 163.789 20.0862 167.433 20.4676C184.314 22.1662 199.333 28.3549 212.097 39.5199C218.026 44.6945 223.468 50.4337 228.968 56.0788C236.741 64.068 244.24 72.3306 253.574 78.5857C253.937 78.83 254.156 79.2849 254.844 80.1924L254.858 80.1812ZM387.332 157.988C381.881 154.671 377.548 150.4 374.411 144.995C371.037 139.195 368.259 133.127 366.436 126.674C364.845 121.074 363.497 115.409 361.933 109.787C359.828 102.202 357.838 94.5652 355.388 87.0853C353.591 81.5662 351.324 76.1658 348.909 70.8886C345.324 63.0322 340.417 56.0495 334.115 50.0704C333.566 49.5482 333.198 48.8065 332.372 47.6502C337.81 47.4246 342.533 47.9541 347.23 48.506C348.016 48.6024 348.836 49.1493 349.457 49.7028C351.883 51.8497 354.509 53.8533 356.584 56.3161C365.714 67.1378 371.691 79.5611 374.33 93.4449C375.801 101.171 376.791 109.002 377.857 116.816C378.549 121.911 378.889 127.049 379.469 132.147C380.336 139.694 382.489 146.898 385.56 153.838C386.168 155.223 386.725 156.603 387.332 157.988ZM314.7 109.003C313.306 109.982 312.107 109.5 310.969 109.446C295.069 108.57 279.427 110.053 264.273 115.048C257.611 117.25 251.032 119.77 244.624 122.603C236.947 125.992 229.487 129.861 221.959 133.537C208.904 139.903 195.128 143.955 180.738 145.739C175.824 146.347 170.834 146.291 165.871 146.348C163.545 146.373 161.168 146.144 158.997 144.877C159.869 143.627 160.989 144.152 161.899 144.123C170.382 143.889 178.554 142.16 186.526 139.344C192.843 137.111 198.882 134.244 204.667 130.882C210.886 127.273 217.03 123.52 223.183 119.806C234.99 112.68 247.589 107.353 260.818 103.575C272.289 100.283 284.01 99.014 295.912 100.533C298.258 100.833 300.674 101.326 302.825 102.268C306.28 103.763 309.535 105.675 312.851 107.468C313.503 107.813 314.019 108.431 314.675 109.001L314.7 109.003ZM353.033 49.5935C355.585 48.8567 357.557 49.5829 359.535 49.6885C361.7 49.7986 363.394 50.7108 364.958 52.2325C368.655 55.8495 371.91 59.8115 374.643 64.1858C386.527 83.2603 392.839 104.015 393.064 126.538C393.109 132.196 393.016 137.854 392.998 143.518C392.973 150.077 393.779 156.512 395.564 162.838C395.874 163.947 395.981 165.088 396.362 167.185C395.165 165.859 394.534 165.292 394.072 164.628C387.391 155.024 383.264 144.384 381.683 132.808C380.935 127.372 380.664 121.88 379.905 116.431C378.727 107.936 377.69 99.3922 375.892 91.0274C372.521 75.2254 365.147 61.4821 352.997 49.5778L353.033 49.5935ZM106.339 132.143C107.854 132.02 109.394 131.899 110.908 131.776C125.401 130.499 139.291 126.967 152.436 120.708C161.215 116.537 168.925 111.001 175.28 103.565C178.729 99.5304 182.422 95.6791 186.214 91.9735C193.169 85.1762 201.639 81.2628 211.16 79.5948C212.486 79.3552 213.898 79.2725 215.256 79.3713C219.699 79.7013 224.133 80.1299 228.579 80.572C229.121 80.6213 230.031 80.4556 229.899 81.7732C228.982 82.0128 228.003 82.2591 227.035 82.5189C216.835 85.3677 207.54 90.0136 199.382 96.7884C197.015 98.7599 194.672 100.758 192.337 102.795C186.264 108.082 180.225 113.41 174.119 118.656C163.659 127.645 151.214 132.227 137.859 134.652C131.845 135.745 112.889 134.454 106.326 132.154L106.339 132.143ZM431.331 208.529C431.027 208.601 430.72 208.697 430.415 208.769C429.835 207.771 429.151 206.814 428.712 205.768C424.507 195.718 422.054 185.256 421.417 174.375C420.839 164.605 421.118 154.851 421.905 145.107C422.421 138.618 422.901 132.113 423.094 125.619C423.39 115.805 422.259 106.109 419.656 96.6151C416.448 84.8912 410.989 74.2919 403.508 64.7387C403.017 64.1225 402.188 63.5375 403.163 62.5204C405.636 63.0563 407.14 64.8333 408.645 66.7225C424.479 86.6289 432.47 109.288 432.692 134.707C432.75 141.583 432.167 148.402 431.225 155.2C430.257 162.157 429.215 169.108 428.369 176.076C427.188 186.059 427.844 195.922 430.677 205.611C430.951 206.568 431.107 207.577 431.305 208.551L431.331 208.529ZM246.489 12.0961C251.147 12.657 254.99 14.8086 258.727 17.1618C268.317 23.2041 277.23 30.1291 285.367 38.0646C292.56 45.0566 298.58 52.9112 302.718 62.0606C305.117 67.3736 307.31 72.7673 309.465 78.1699C313.435 88.2111 317.535 98.1896 323.833 107.088C324.052 107.407 323.9 107.989 323.929 108.762C321.872 108.016 320.449 106.855 319.195 105.486C309.135 94.6413 300.218 82.9817 293.589 69.6665C291.14 64.759 288.769 59.8089 286.045 55.0627C282.976 49.7384 279.794 44.4163 276.21 39.4302C270.586 31.5869 263.62 24.9758 255.951 19.1333C252.825 16.7487 249.655 14.4471 246.502 12.0849L246.489 12.0961ZM366.914 51.081C371.442 51.4312 374.7 52.3615 378.032 53.0253C379.679 53.3616 380.779 54.2446 381.635 55.6272C383.075 57.9577 384.7 60.1808 386.075 62.5427C397.316 81.8569 402.488 102.719 401.724 125.04C401.543 130.181 401.027 135.303 400.722 140.432C400.067 151.593 400.111 162.718 403.321 173.597C403.482 174.146 403.426 174.762 403.475 175.45C401.755 174.97 401.656 173.594 401.215 172.573C397.413 163.827 395.211 154.704 395.124 145.141C395.08 140.167 395.134 135.201 395.213 130.238C395.487 113.563 392.49 97.4717 386.177 82.0481C382.66 73.4522 378.412 65.2372 372.681 57.8936C371.113 55.8745 369.383 53.9898 366.936 51.1079L366.914 51.081ZM146.282 30.3216C148.471 28.9304 150.378 27.7745 152.205 26.549C153.435 25.7291 154.734 25.6486 156.128 25.8998C163.298 27.1242 169.518 30.1881 174.266 35.7771C177.588 39.6831 180.653 43.8266 183.734 47.9343C191.116 57.7519 199.563 66.3865 210.378 72.4782C211.028 72.848 211.548 73.4172 212.798 74.4257C211.113 74.5084 210.309 74.6091 209.502 74.5978C205.906 74.5189 202.292 74.2271 198.713 74.361C195.621 74.4771 193.051 73.4976 190.589 71.745C185.653 68.2264 181.55 63.8766 177.748 59.2311C174.17 54.8545 170.673 50.4107 167.122 46.0117C161.861 39.5062 155.794 34.0828 147.633 31.4511C147.344 31.3502 147.122 31.0566 146.269 30.3328L146.282 30.3216ZM181.823 73.9912C181.586 74.4169 181.538 74.6611 181.422 74.7127C181.113 74.8336 180.759 74.9008 180.432 74.9456C172.614 75.9237 165.453 74.0539 158.861 69.8875C154.218 66.9672 149.69 63.8834 145.09 60.9049C143.085 59.5915 141.109 58.2311 139 57.0948C132.816 53.7732 126.126 52.6049 119.144 52.7272C117.687 52.7561 116.117 53.3586 114.497 52.0431C115.137 51.418 115.633 50.7548 116.283 50.3045C118.682 48.6468 121.201 47.1861 123.511 45.4208C125.996 43.5098 128.67 43.0822 131.715 43.4837C139.808 44.5312 146.675 48.263 152.965 53.1598C156.608 56.0015 160.107 59.0539 163.486 62.207C167.918 66.3507 172.988 69.4839 178.444 72.0682C179.623 72.6353 180.725 73.357 181.848 73.9935L181.823 73.9912ZM188.386 73.0107C187.501 73.0419 186.965 73.192 186.555 73.0553C179.652 70.8114 173.262 67.5704 167.629 62.9694C163.917 59.935 160.399 56.6698 156.742 53.5659C149.868 47.7212 142.335 43.1088 133.207 41.6936C132.508 41.5927 131.423 41.7673 131.287 40.2638C134.305 38.2274 137.494 36.2313 140.492 34.0067C142.343 32.6469 144.086 32.4701 146.253 33.1023C152.211 34.8128 157.057 38.2238 161.283 42.5848C163.669 45.0387 165.757 47.7637 167.955 50.3744C172.7 55.9881 177.376 61.6824 182.216 67.2176C183.983 69.23 186.116 70.9153 188.361 73.0085L188.386 73.0107ZM165.013 75.4677C159.92 77.2282 154.914 78.3008 149.826 76.8683C146.373 75.8954 142.864 74.9919 139.618 73.5282C135.414 71.6544 131.401 69.3258 127.371 67.0576C120.523 63.2407 113.279 60.9161 105.385 60.8187C104.218 60.8118 103.06 60.7063 101.675 60.6299C104.543 57.5113 106.477 56.1963 109.406 55.6925C122.041 53.5253 133.916 54.9296 144.55 62.8811C148.937 66.1509 153.638 68.9771 158.28 71.8973C160.431 73.2488 162.773 74.2821 165.025 75.4812L165.013 75.4677ZM152.873 82.9859C149.467 86.1426 146.448 88.8624 143.52 91.6898C140.931 94.1878 138.561 96.892 135.952 99.3385C126.682 108.087 115.566 112.952 102.962 114.501C97.2816 115.202 91.6732 114.567 86.2285 112.816C85.1418 112.469 83.9453 111.825 83.3045 110.947C82.368 109.632 81.8819 108.009 80.9924 106.04C82.6618 106.129 83.8112 106.197 84.9629 106.24C89.7445 106.402 94.544 106.913 99.3033 106.638C112.557 105.869 124.245 101.143 133.979 91.9394C136.099 89.9454 138.33 88.086 140.518 86.1727C143.962 83.1437 148.129 83.0883 152.862 82.9724L152.873 82.9859ZM74.1433 96.6433C76.7515 97.0671 78.0735 97.2869 79.4089 97.4955C92.9626 99.5745 105.618 96.9121 117.517 90.279C121.671 86.4076 126.827 85.5972 132.225 85.4052C133.247 85.374 134.262 85.1434 135.286 85.0875C135.897 85.0562 136.507 85.1862 137.235 85.2401C136.968 85.8496 136.908 86.2417 136.677 86.4567C135.339 87.7763 133.99 89.0825 132.619 90.3617C117.95 103.95 100.442 106.692 81.4587 103.647C80.4907 103.496 79.357 103.12 78.7094 102.452C77.3248 101.009 76.2001 99.3033 74.168 96.6455L74.1433 96.6433ZM117.36 86.8103C117.409 87.0882 117.459 87.366 117.508 87.6439C116.376 88.3361 115.296 89.1449 114.113 89.7206C101.193 96.1115 87.7868 97.8731 73.7066 94.2053C68.8153 92.9274 64.6836 90.2649 60.496 87.6718C60.4377 87.6293 60.4713 87.3962 60.4467 86.9839C61.7217 86.6278 63.0706 86.8252 64.3858 86.8455C68.3519 86.9581 72.282 86.645 76.0532 85.3481C78.7465 84.4253 81.3569 84.4145 84.1129 84.8518C93.936 86.4172 103.831 87.0572 113.788 86.7337C114.971 86.7047 116.159 86.7631 117.349 86.7969L117.36 86.8103ZM90.1394 66.6872C93.3258 64.0324 96.0214 63.2217 98.9903 62.9577C109.047 62.0964 118.386 64.2017 127.095 69.2692C132.723 72.5526 138.369 75.7755 144.623 77.7863C144.973 77.9051 145.232 78.3264 145.92 78.9606C139.091 80.2772 132.655 81.083 126.171 81.4742C125.297 81.5189 124.159 80.9182 123.498 80.2616C115.371 72.0662 105.282 68.3766 94.0717 67.1695C93.0747 67.0663 92.0686 66.925 90.1394 66.6872ZM72.5063 83.6335C70.9848 84.1038 70.2185 84.469 69.4275 84.5585C54.8675 85.8919 42.0667 81.9555 31.2539 71.8752C23.8893 65.0042 18.5683 56.7039 13.9419 47.8704C13.6461 47.2967 13.5722 46.6065 13.1108 44.8498C17.063 49.0741 20.1303 52.6462 23.5135 55.8867C26.8384 59.0847 30.3404 62.1123 34.0127 64.907C37.8127 67.8003 41.7449 70.6062 45.8922 72.9595C49.885 75.2367 54.2026 76.9469 58.3881 78.8812C62.6677 80.8738 67.5456 81.2061 72.5063 83.6335ZM96.2084 81.3804C94.6063 81.5079 93.9587 81.6602 93.3313 81.5906C83.5956 80.5675 73.9182 79.1769 64.5322 76.359C57.7834 74.328 51.2901 71.5374 45.422 67.6109C40.3046 64.1752 35.5031 60.2712 30.5873 56.5308C28.5529 54.9911 26.8747 53.0863 24.6925 50.0297C26.7426 51.3968 27.8495 52.0691 28.8846 52.8468C35.0574 57.5218 41.6805 61.4798 48.6578 64.8239C55.6462 68.1815 62.823 70.8355 70.681 71.4639C76.7017 71.9376 82.4264 73.8878 87.9294 76.3645C90.5554 77.548 93.3024 78.6306 96.2196 81.3938L96.2084 81.3804ZM121.611 81.8791C114.564 82.4428 108.781 82.5002 102.984 82.2955C101.523 82.2371 100.378 81.5737 99.2871 80.7288C93.9501 76.5648 87.9587 73.7205 81.5326 71.694C80.8559 71.4833 80.2622 71.044 79.3861 70.5666C81.5843 69.2135 83.5584 68.8217 85.6489 68.7884C92.1917 68.7131 98.6358 69.4489 104.889 71.4597C109.814 73.0513 114.419 75.2972 118.488 78.5132C119.368 79.2146 120.038 80.1827 121.597 81.8903L121.611 81.8791Z" fill="#695E5C"/>
</svg>
