<svg width="333" height="723" viewBox="0 0 333 723" fill="none" xmlns="http://www.w3.org/2000/svg">
<path fill-rule="evenodd" clip-rule="evenodd" d="M138.732 152.808C136.004 157.568 136.236 162.323 139.699 172.737C142.145 179.984 142.658 182.027 143.079 185.874L143.453 189.128L139.393 189.6C127.056 191.009 117.895 194.194 106.096 201.178C98.9486 205.413 95.5976 207.969 92.218 211.801C89.6807 214.648 89.4058 215.057 88.7347 216.874C87.8749 219.241 87.9302 222.118 88.9272 224.422C89.5314 225.764 90.3039 226.604 93.4713 229.348C96.7734 232.177 98.1225 233.1 103.111 235.75C106.269 237.477 109.612 239.303 110.507 239.859L112.087 240.854L110.383 241.506C102.632 244.399 96.0723 248.369 89.6398 254.01C85.5983 257.522 83.6803 260.164 82.9987 263.045C81.9768 267.318 84.223 269.774 93.4734 274.469C97.5673 276.562 99.978 278.09 99.5814 278.328C99.433 278.425 97.9184 279.341 96.1673 280.406C91.7353 283.12 86.1677 287.082 82.0797 290.456C79.2846 292.784 78.239 293.786 76.658 295.781C73.4401 299.786 72.1315 303.645 72.965 306.782C74.4334 312.587 86.4246 322.09 96.0698 325.116C97.4991 325.588 98.6734 326.065 98.6521 326.209C98.6307 326.353 97.1701 328.258 95.3914 330.502C88.0191 339.774 81.8945 349.748 78.8911 357.453C77.1915 361.782 76.4014 367.201 76.9841 370.312C77.3883 372.552 77.5025 372.684 79.6629 374.546C81.6058 376.249 82.1129 376.531 84.0421 376.791C88.6636 377.494 96.7702 376.18 104.361 373.472C107.882 372.203 108.433 372.1 108.208 372.715C108.061 373.074 107.166 375.768 106.226 378.585C102.734 389.047 101.342 395.271 101.903 398.168C103.334 406.119 115.248 406.127 130.016 398.17C134.104 395.967 142.732 390.331 147.326 386.882C155.869 380.457 164.305 373.223 175.691 362.528C180.901 357.636 181.585 356.903 191.366 345.744C198.939 337.104 202.159 333.263 203.795 330.991L205.98 327.9L206.459 329.815C207.21 332.879 210.05 338.912 211.937 341.443C218.027 349.577 227.007 355.465 236.957 357.88C241.312 358.934 243.198 359.125 246.63 358.818C251.638 358.363 257.499 356.122 261.487 353.149C266.182 349.657 277.542 336.242 281.258 329.78C281.72 329.014 281.673 328.973 285.558 334.817C286.948 336.912 288.923 339.749 289.949 341.136C293.975 346.485 300.694 356.34 308.46 368.153C316.336 380.128 323.624 387.946 333.05 394.616C341.318 400.432 355.506 408.026 370.934 414.851C379.587 418.698 403.309 430.52 413.051 435.873C420.131 439.77 422.324 441.14 428.119 445.57C438.193 453.197 440.394 455.061 444.757 459.763C449.919 465.393 450.647 466.259 458.322 476.432C466.073 486.639 467.769 489.101 477.153 503.275C481.352 509.718 486.715 517.605 488.989 520.866C496.696 531.815 495.355 530.477 521.482 552.988C534.298 564.059 546.786 574.549 549.21 576.349C556.01 581.497 573.645 596.272 574.843 597.94C575.696 599.143 575.989 599.334 576.628 599.179C577.275 598.966 577.508 598.748 578.298 597.393C578.935 596.26 579.327 594.881 579.67 592.386C580.056 589.604 579.997 588.284 579.37 585.2C578.94 583.132 577.966 579.775 577.161 577.802C575.388 573.323 575.263 572.725 575.588 570.084L575.831 567.99L571.438 563.489C565.586 557.546 560.203 552.861 553.164 547.698C537.715 536.237 530.574 530.043 518.991 517.972C510.604 509.256 503.27 499.674 494.778 486.347C486.379 473.199 483.549 469.353 476.757 461.806C467.289 451.265 465.183 449.126 454.758 439.988C441.442 428.316 438.703 426.468 415.967 413.951C405.212 408.034 398.398 404.598 385.226 398.546C369.504 391.363 357.25 385.076 349.621 380.372C345.107 377.586 334.361 368.264 329.446 362.949C323.5 356.468 314.87 345.329 311.469 339.649C309.176 335.884 304.187 326.733 298.706 316.304C291.766 303.07 292.396 305.052 293.7 300.409C294.323 298.192 295.249 293.575 295.814 290.039C296.661 284.508 296.736 283.371 296.255 281.194C295.938 279.811 295.251 277.941 294.747 277.011L293.796 275.3L297.109 271.281C301.669 265.72 304.825 260.782 306.892 255.865L308.471 252.081L310.308 251.61C313.128 250.831 320.94 247.894 325.88 245.723C328.356 244.643 333.756 242.354 337.935 240.621C355.685 233.23 368.049 226.318 379.232 217.527C393.948 205.948 401.283 193.231 397.244 186.342C394.901 182.371 386.451 177.337 379.527 175.819C368.252 173.315 354.374 174.186 340.293 178.324L334.708 179.963L338.221 175.956C351.781 160.438 376.06 130.683 383.026 120.991C387.557 114.723 389.756 110.278 390.07 106.718C390.477 102.524 388.825 100.848 383.524 99.9404C372.95 98.2135 362.233 101.693 346.211 112.061C338.975 116.707 332.768 121.733 324.932 129.167C322.612 131.36 320.654 133.187 320.57 133.211C320.515 133.227 321.129 131.068 322.004 128.421C325.539 117.217 327.609 106.061 328.17 94.7851C329.07 76.9801 326.334 67.2675 320.286 66.9728C317.388 66.8378 316.639 67.2863 313.029 71.4042C310.926 73.8515 308.816 76.6177 306.157 80.4635C304.004 83.5174 302.183 86.0493 302.066 86.11C301.959 86.1133 301.502 85.1282 301.096 83.8946C298.593 76.0437 292.271 68.0317 287.807 67.0773C285.84 66.6209 282.884 67.5079 280.541 69.2249C278.17 70.95 272.143 77.8254 268.964 82.385C267.804 84.0665 265.255 87.7158 263.352 90.4364C261.461 93.1673 259.654 95.8742 259.362 96.3985C258.886 97.3471 258.798 97.3999 258.529 96.871C257.828 95.639 256.026 93.3446 254.304 91.5097C250.941 87.9125 246 86.4749 242.206 87.9598C240.642 88.5724 240.398 88.7802 238.319 91.1516C236.24 93.523 235.945 93.9794 234.552 97.1465C233.708 99.0406 232.262 102.746 231.392 105.364C230.522 107.982 229.147 111.653 228.388 113.523L227.009 116.866L225.67 115.237C223.206 112.265 215.696 106.039 213.055 104.797C204.694 100.785 197.618 100.564 191.708 104.128C189.801 105.252 189.094 105.867 187.499 107.687C185.243 110.261 183.568 112.889 182.292 115.898C179.625 122.143 177.016 135.589 176.954 143.499C176.935 145.79 176.84 147.787 176.807 147.921C176.718 148.07 175.617 147.82 174.326 147.404C163.838 143.835 149.922 144.152 143.801 148.052C141.677 149.376 139.535 151.366 138.732 152.808ZM144.724 149.413C149.857 146.664 160.541 146.211 169.202 148.374C174.086 149.567 177.141 150.814 180.938 153.102C183.73 154.769 191.213 160.906 191.258 161.596C191.272 161.771 190.403 164.746 189.297 168.231C188.183 171.772 187.024 175.795 186.683 177.284C185.516 182.535 185.547 188.284 186.761 192.371C187.355 194.322 187.34 194.699 186.808 194.493C185.669 194.047 182.133 195.141 177.947 197.193C175.702 198.248 173.144 199.517 172.236 199.956C171.355 200.387 167.208 201.725 163.074 202.88L155.496 205.048L153.938 203.91C152.186 202.634 149.368 199.253 148.013 196.831C146.94 194.948 145.72 191.082 145.897 190.067C145.945 189.654 145.838 189.203 145.684 189.068C145.506 188.912 145.249 187.581 145.12 186.103C144.807 182.253 143.675 177.522 141.635 171.508C138.548 162.529 138.08 158.283 139.69 154.558C140.635 152.428 142.342 150.673 144.724 149.413ZM98.9258 207.733C101.991 205.479 108.358 201.633 112.798 199.316C121.17 194.951 129.654 192.538 140.734 191.393L143.657 191.094L144.447 193.705C145.58 197.623 147.211 200.256 150.524 203.55L153.432 206.424L152.046 208.005C149.62 210.82 148.824 213.21 148.491 218.704C147.933 228.065 150.006 237.196 154.271 244.185C155.663 246.445 156.273 246.752 156.922 245.533C157.239 244.933 157.04 244.467 155.186 241.086C152.681 236.582 150.666 229.583 150.418 224.847C150.355 222.744 150.332 222.723 150.886 223.501C152.347 225.562 155.188 228.248 156.58 228.883L158.071 229.572L157.674 232.702C156.73 239.969 157.726 243.637 161.866 248.306C163.04 249.596 164.236 251.099 164.594 251.575L165.206 252.502L162.254 252.548C155.425 252.738 147.311 255.28 143.196 258.565C141.766 259.717 141.611 259.776 140.257 259.337C135.566 257.924 135.214 257.68 124.322 248.166C118.648 243.192 113.299 238.73 112.475 238.236C111.639 237.731 108.34 235.879 105.111 234.089C96.0185 229.143 92.2095 226.031 90.731 222.46C89.9757 220.693 90.0312 217.881 90.8853 216.094C91.7166 214.189 95.652 210.13 98.9258 207.733ZM192.471 105.576C197.353 102.802 203.473 103.062 210.786 106.287C213.416 107.421 214.199 108.01 218.964 112.253C221.858 114.854 224.593 117.446 224.981 118.079L225.699 119.196L224.081 122.166C223.185 123.786 222.105 125.83 221.71 126.687C220.413 129.386 218.582 135.322 217.349 140.84C216.149 146.225 216.149 146.225 215.419 145.91C211.646 144.359 204.377 142.733 201.707 142.863C198.551 143.022 196.673 144.4 195.283 147.635C194.924 148.523 194.02 151.371 193.32 154.009L192.059 158.722L188.789 155.856C186.989 154.277 184.248 152.265 182.712 151.341C181.159 150.436 179.667 149.485 179.383 149.236C178.684 148.623 178.716 140.46 179.454 134.671C180.025 130.1 181.383 124.106 182.983 118.91C183.887 116.062 185.461 112.76 187.102 110.362C188.277 108.759 190.632 106.598 192.471 105.576ZM93.3391 252.897C99.4166 248.115 109.205 243.042 113.016 242.709L114.484 242.565L122.236 249.685C130.967 257.793 134.156 260.035 139.032 261.546C139.504 261.7 139.542 261.896 139.268 262.209C139.027 262.484 138.712 263.249 138.53 263.935L138.211 265.183L137.027 265.315C134.626 265.616 125.148 267.873 122.123 268.863C115.962 270.873 104.336 275.604 102.676 276.781C102.527 276.879 101.219 276.22 99.7582 275.33C98.3294 274.402 95.596 272.884 93.7014 271.939C85.603 267.961 83.5687 265.43 85.2129 261.475C86.0366 259.531 89.4013 255.979 93.3391 252.897ZM241.715 90.0974C243.866 88.8623 247.784 89.4356 250.589 91.3741C254.394 94.0595 258.718 100.742 260.662 107.128C263.012 114.844 264.248 126.817 263.273 132.854L262.917 135.077L262.242 134.03C261.857 133.465 260.667 132.194 259.509 131.245C257.771 129.786 257.2 129.481 255.696 129.333C253.794 129.161 251.471 129.66 249.768 130.671C245.666 133.056 241.966 139.5 239.414 148.673C238.195 153.099 236.461 157.755 235.961 157.87C235.878 157.894 235.427 157.141 235.034 156.179C234.416 154.662 233.935 154.111 231.962 152.609C230.009 151.157 228.907 150.646 225.38 149.603C219.01 147.693 218.193 147.334 218.144 146.218C218.071 145.179 219.518 138.581 220.723 134.338C221.928 129.999 223.24 127.02 226.218 121.568C229.195 116.116 230.952 112.032 233.289 105.207C234.856 100.599 236.183 97.341 237.38 95.0425C238.342 93.2523 240.453 90.8441 241.715 90.0974ZM199.522 145.141C202.178 144.381 208.855 145.846 216.092 148.775C218.889 149.862 222.703 151.223 224.578 151.761C229.384 153.113 231.598 154.435 232.724 156.592C234.28 159.549 234.431 160.787 233.454 162.954C231.98 166.213 231.729 170.251 233.036 170.194C233.817 170.163 234.188 169.286 234.099 167.81C233.962 165.935 234.648 163.838 236.469 160.493C238.688 156.456 239.769 153.861 241.141 148.854C243.519 140.309 246.708 134.425 249.921 132.528C255.357 129.361 261.006 133.337 262.627 141.454C263.092 143.911 263.015 147.776 262.393 149.441C261.579 151.588 261.21 153.898 261.613 154.251C262.217 154.78 262.784 153.847 263.645 150.928C265.263 145.521 265.32 145.408 271.556 137.936C274.619 134.25 277.923 130.384 278.953 129.305C279.996 128.235 282.821 124.893 285.272 121.905C292.033 113.594 297.445 108.423 300.575 107.362C301.941 106.903 302.085 106.93 303.388 108.073C304.576 109.179 304.799 109.57 305.231 112.159C305.614 114.543 305.558 116.184 304.773 121.932C303.749 129.291 301.932 137.386 300.185 142.128C299.616 143.71 297.095 149.692 294.617 155.387C289.503 167.125 288.628 169.869 286.947 179.578C285.602 187.469 283.994 194.706 282.702 198.904C282.138 200.718 280.194 205.613 278.409 209.705C276.648 213.817 275.187 217.348 275.202 217.523C275.248 218.116 276.148 218.092 276.68 217.486C277.389 216.677 283.319 202.956 284.31 199.794C285.605 195.76 287.199 188.803 288.526 181.385C289.788 174.234 290.07 173.506 293.119 169.19C300.657 158.535 304.92 153.17 307.513 151.119C308.689 150.232 310.371 149.723 310.924 150.144C311.102 150.299 311.438 151.374 311.653 152.538C312.188 155.25 311.133 162.549 309.49 167.578C304.081 184.194 286.456 216.92 275.227 231.165C273.331 233.567 273.148 233.895 273.516 234.217C273.871 234.528 274.144 234.312 276.024 232.287C281.588 226.274 291.089 210.774 300.135 192.925C306.101 181.219 310.101 171.852 311.954 165.317C313.484 159.962 314.263 150.827 313.268 149.955C312.841 149.581 313.439 149.162 314.106 149.357C316.817 150.303 318.887 155.303 319.004 161.289C319.039 162.587 318.688 165.856 318.232 168.479C315.773 183.163 307.555 201.477 296.533 216.944C293.778 220.803 286.521 229.298 279.488 236.916C276.074 240.62 275.989 240.74 276.311 241.185C276.814 241.854 277.397 241.357 282.268 236.134L286.615 231.461L288.104 231.173C291.972 230.369 297.595 232.08 299.92 234.638C302.051 237.059 302.613 240.672 301.228 243.327C300.721 244.312 298.058 248.187 295.986 251.052C294.63 252.886 286.643 261.066 280.447 266.916C271.208 275.688 260.661 283.347 253.403 286.607C250.683 287.799 243.324 290.028 242.161 290.016C241.616 289.993 241.806 289.705 243.931 287.017C246.408 283.857 249.485 279.175 250.293 277.25C250.53 276.645 250.722 275.708 250.68 275.183C250.588 273.185 245.822 272.193 242.054 273.409C238.006 274.704 236.241 275.953 229.29 282.473C224.458 286.982 216.898 292.74 211.481 295.956C204.385 300.203 195.502 303.502 188.777 304.434C186.647 304.713 182.72 305.561 180.06 306.253C174.86 307.644 172.434 307.76 172.517 306.565C172.574 305.64 173.685 304.468 176.883 302.038C180.026 299.624 183.098 297.864 185.548 297.053C187.278 296.489 188.156 295.535 187.492 294.954C187.113 294.622 185 295.24 182.77 296.374C180.768 297.415 177.944 296.694 169.753 293.155C157.212 287.722 144.814 277.082 141.296 268.667C140.856 267.663 140.559 266.688 140.608 266.536C140.685 266.376 141.368 266.649 142.123 267.149C142.879 267.649 144.609 268.353 145.976 268.706C150.476 269.952 154.977 269.932 172.5 268.583C189.103 267.304 198.602 267.796 205.412 270.255C209.659 271.767 214.27 275.159 217.641 279.153C217.971 279.541 218.187 279.534 218.605 279.056C219.588 277.935 219.024 276.953 215.592 274.009C213.827 272.462 211.747 270.867 211.019 270.456C208.971 269.278 208.683 266.978 209.893 262.155C210.785 258.581 211.641 256.601 214.716 250.941C216.797 247.109 217.525 245.992 219.907 243.107C223.391 238.846 225.756 236.888 229.977 234.607C231.69 233.703 235.912 231.325 239.329 229.314C246.672 225.023 249.434 223.641 252.555 222.638C258.473 220.739 261.563 222.83 262.894 229.652C263.561 233.098 263.615 234.9 263.221 240.894C262.83 247.053 262.875 249.01 263.555 249.118C264.258 249.247 265.093 248.223 264.962 247.393C264.886 247.002 264.991 244.396 265.138 241.599C265.58 234.38 265.6 233.52 265.173 230.35C264.489 224.582 262.699 221.485 259.564 220.33C255.646 218.944 250.439 220.75 239.404 227.364C237.497 228.488 235.859 229.425 235.743 229.486C235.339 229.588 236.617 223.589 237.355 221.863C237.758 220.948 238.631 219.308 239.307 218.177C239.979 217.076 241.209 214.383 241.978 212.262C244.435 205.444 247.815 199.987 252.811 194.646C257.15 190.03 258.712 189.156 261.393 189.946C264.784 191 267.72 195.752 269.02 202.515C269.966 207.148 269.949 212.139 269.07 218.065C268.725 220.395 268.553 222.455 268.731 222.611C269.75 223.504 270.761 220.749 271.347 215.347C272.203 207.775 271.558 200.839 269.598 196L268.657 193.68L271.643 185.733C275.087 176.593 275.965 173.56 276.195 170.023C276.273 168.596 276.366 167.247 276.388 167.007C276.398 166.756 276.638 167.486 276.861 168.689C277.719 173.017 277.687 179.913 276.825 186.536C275.766 194.58 275.635 197.001 276.263 197.096C277.15 197.256 277.59 196.179 277.927 193.094C278.116 191.374 278.608 187.514 278.944 184.525C279.376 181.069 279.565 177.268 279.393 174.094C279.058 166.876 278.111 163.511 275.214 159.216C272.422 155.111 269.249 153.76 265.979 155.315C263.33 156.569 259.467 161.765 259.258 164.442C259.14 165.509 259.696 165.639 260.405 164.83C260.647 164.554 261.243 163.419 261.712 162.335C263.27 158.694 265.888 156.471 268.311 156.742C273.619 157.331 275.959 167.639 273.001 177.204C272.668 178.277 271.281 182.034 269.952 185.486L267.512 191.831L265.518 190.019C262.996 187.71 261.225 187.198 258.743 188.046C256.293 188.856 254.457 190.498 249.713 196.124C244.901 201.853 242.682 205.532 240.766 210.777C239.153 215.247 238.546 216.632 237.118 218.859C235.722 221.049 234.733 224.018 234.082 227.868L233.607 230.8L230.131 232.662C228.245 233.642 226.535 234.613 226.358 234.815C225.874 235.367 223.406 236.032 220.951 236.252C218.75 236.468 216.473 237.106 209.821 239.532C206.839 240.592 200.836 241.896 197.459 242.187C195.004 242.408 190.999 241.79 189.422 240.961L188.363 240.423L189.613 239.763C191.106 238.991 193.089 238.617 194.728 238.85C196.259 239.087 196.81 238.985 197.167 238.29C197.768 237.127 195.485 236.361 192.641 236.858C190.323 237.232 188.464 238.301 186.372 240.401L184.594 242.19L181.601 241.972C177.219 241.642 172.961 240.835 169.935 239.841C165.549 238.369 161.385 234.395 160.706 231.036C160.41 229.509 160.9 226.655 161.687 225.232C163.418 222.134 168.52 219.779 172.018 220.472C175.294 221.133 176.829 222.153 180.269 225.949C183.626 229.671 184.719 230.337 185.559 229.091C185.903 228.579 185.616 228.165 183.665 226.065C179.817 222.042 176.748 219.45 174.989 218.851C171.658 217.751 167.969 218.256 164.759 220.221C162.748 221.416 160.231 224.216 159.485 226C159.183 226.678 158.811 227.294 158.647 227.314C157.976 227.506 154.217 224.146 152.969 222.272C151.168 219.523 150.528 217.337 150.785 214.701C151.061 211.757 152.121 209.663 154.133 208.014C155.349 207.032 156.592 206.594 162.248 205.017C169.573 203.018 171.66 202.214 176.804 199.572C184.018 195.883 186.67 195.607 189.57 198.344C190.865 199.544 191.419 199.867 191.915 199.684C193.118 199.244 193.223 198.36 192.192 197.456C190.747 196.19 188.749 191.968 188.192 189.042C187.191 183.874 187.81 178.435 190.312 170.778C191.166 168.178 192.856 162.378 194.055 157.903C196.246 149.811 197.24 146.717 197.917 145.945C198.186 145.661 198.851 145.333 199.522 145.141ZM84.6141 290.337C95.0142 282.224 104.841 276.892 117.857 272.177C122.989 270.337 132.709 267.804 136.618 267.264L138.257 267.043L139.413 269.812C141.445 274.519 142.783 276.244 149.063 282.009C156.262 288.71 161.751 292.318 169.891 295.747C172.172 296.706 174.04 297.563 174.006 297.696C173.979 298.062 166.918 301.983 162.236 304.218C151.582 309.345 135.546 314.208 123.061 316.072C109.051 318.193 94.2731 317.462 85.244 314.164C80.7946 312.572 76.5391 309.492 76.2269 307.625C76.1326 307.087 75.8231 306.556 75.5175 306.451C74.8943 306.23 74.4873 304.28 74.7855 302.721C74.8708 302.145 75.3456 300.839 75.7736 299.849C76.8646 297.457 80.4636 293.59 84.6141 290.337ZM280.782 71.0292C283.11 69.2339 285.358 68.6043 287.396 69.2198C289.52 69.8792 293.718 73.9812 295.739 77.411C297.291 80.0386 299.594 85.633 299.956 87.609C300.187 88.8515 300.142 88.9744 297.825 92.5022C295.557 95.9748 293.655 98.5987 287.087 107.502C282.618 113.532 280.193 117.518 274.025 129.048C269.906 136.782 268.869 138.539 266.727 141.245L265.025 143.426L264.855 141.685C264.769 140.731 264.531 139.353 264.311 138.672C264.091 137.992 264.087 137.111 264.334 136.71C264.922 135.632 265.721 130.156 265.702 126.856C265.673 118.022 263.779 107.779 260.958 101.341L259.915 98.8986L260.848 97.1164C261.595 95.6907 268.917 85.0427 272.406 80.2984C274.376 77.5722 279.172 72.3162 280.782 71.0292ZM94.4351 318.807C99.5817 319.579 107.794 319.627 115.91 318.971C130.425 317.781 149.389 312.493 163.176 305.822C168.499 303.238 175.297 299.283 175.638 298.607C175.878 298.166 178.204 298.547 178.108 299.016C178.095 299.102 177.268 299.807 176.233 300.558C173.528 302.543 171.393 304.67 170.899 305.83C170.23 307.454 170.215 309.359 170.839 311.563C171.194 312.687 171.355 313.771 171.194 313.955C170.887 314.304 168.341 315.68 167.89 315.74C167.726 315.759 166.566 316.27 165.298 316.881C162.024 318.465 153.826 321.389 147.746 323.114C134.829 326.809 123.632 327.657 110.573 325.898C100.012 324.442 92.5437 321.992 86.7992 318.03L85.1335 316.895L88.3682 317.65C90.1449 318.037 92.8921 318.559 94.4351 318.807ZM160.386 235.535C161.661 237.594 166.288 240.967 168.963 241.882C171.663 242.818 177.266 243.763 181.246 244.002L184.26 244.173L183.982 246.139C183.642 248.702 183.712 253.282 184.107 255.221C184.298 256.104 184.358 256.871 184.277 256.963C184.197 257.055 183.165 256.703 181.967 256.206C179.301 255.04 173.542 253.437 170.527 253.005C168.443 252.706 168.209 252.566 167.139 251.205C166.494 250.412 164.9 248.43 163.573 246.813C160.967 243.715 160.036 241.957 159.521 239.294C159.196 237.514 159.061 234.275 159.328 234.184C159.396 234.179 159.884 234.769 160.386 235.535ZM146.719 258.369C149.377 256.962 155.297 255.227 158.571 254.91C165.42 254.218 173.724 255.547 181.58 258.63C185.905 260.34 187.502 261.22 191.242 263.979L193.746 265.783L191.46 265.762C184.729 265.746 181.899 265.866 172.855 266.553C162.467 267.362 155.247 267.665 151.851 267.452C147.763 267.216 142.357 265.306 141.567 263.769C140.915 262.482 142.871 260.393 146.719 258.369ZM316.577 69.8657C319.196 68.0974 321.869 68.8477 323.434 71.7471C326.721 78.1067 327.32 90.4967 325.058 107.011C323.643 117.278 321.11 126.597 316.092 139.85L313.52 146.633L311.303 147.225C308.76 147.856 307.62 148.678 303.91 152.577C301.334 155.228 300.104 156.848 294.143 165.178C292.491 167.469 291.054 169.395 290.966 169.448C290.523 169.547 293.653 161.53 297.667 152.338C301.2 144.221 302.536 140.808 303.457 137.487C306.076 127.95 307.779 116.733 307.342 112.189C307.031 109.055 305.971 106.631 304.53 105.694C302.836 104.663 301.193 104.816 298.825 106.251C295.135 108.478 292.656 111.019 282.789 122.491C272.627 134.324 272.994 134.191 278.612 123.934C283.053 115.832 286.471 110.571 291.494 104.051C293.681 101.222 296.269 97.6718 297.236 96.1141C298.939 93.4783 311.128 76.0113 313.101 73.4497C314.88 71.1087 315.178 70.817 316.577 69.8657ZM100.978 326.59C101.25 326.568 102.367 326.702 103.412 326.968C108.691 328.116 119.948 329.207 125.204 328.971C128.001 328.887 134.123 328.141 136.96 327.605L139.015 327.196L136.292 330.303C130.813 336.553 124.062 345.426 118.88 353.203C116.47 356.812 113.29 362.281 110.444 367.751L109.498 369.523L107.191 370.458C103.215 372.078 94.0871 374.413 90.3878 374.714C81.7372 375.453 78.4484 372.896 78.6941 365.732C78.9133 359.65 83.6219 349.475 91.4521 338.199C95.7227 332.06 100.097 326.76 100.978 326.59ZM188.339 242.937C190.23 243.815 194.071 244.451 196.551 244.251C200.653 243.946 206.96 242.486 211.342 240.833C216.443 238.933 218.68 238.293 220.712 238.221L222.194 238.155L219.189 241.632C216.489 244.759 215.964 245.502 213.815 249.34C212.494 251.66 210.878 254.794 210.158 256.309C208.811 259.256 207.339 264.663 207.34 266.646C207.305 267.331 207.235 267.985 207.122 268.113C207.009 268.242 206.341 268.144 205.627 267.907C204.912 267.671 202.957 267.225 201.279 266.892L198.222 266.293L192.915 262.357C187.961 258.664 187.558 258.311 186.753 256.696C185.504 254.106 185.272 246.101 186.361 243.544C186.622 242.96 186.858 242.452 186.914 242.436C187.006 242.354 187.597 242.612 188.339 242.937ZM145.698 325.642C154.38 323.337 165.474 319.213 169.541 316.797L172.141 315.24L173.245 317.541C175.521 322.234 180.176 326.412 184.407 327.584C185.436 327.869 187.39 328.053 188.756 328.048C190.11 328.033 191.209 328.118 191.208 328.214C191.219 328.322 189.981 330.26 188.46 332.568C185.949 336.413 185.276 337.253 178.669 344.79C170.217 354.48 164.479 360.405 157.272 367.026C147.356 376.116 138.193 383.2 129.79 388.317C120.682 393.857 115.81 395.925 107.795 397.709L104.114 398.513L103.857 397.182C103.724 396.449 103.712 394.91 103.843 393.757C104.257 390.057 108.149 377.085 110.509 371.644C114.442 362.544 121.407 351.323 130.003 340.393C131.77 338.139 133.593 335.771 134.073 335.152C134.565 334.543 136.343 332.395 138.019 330.483L141.045 326.959L145.698 325.642ZM324.943 131.258C333.307 123.245 340.08 117.837 347.687 113.03C352.637 109.892 357.047 107.419 360.68 105.759C364.292 104.147 371.088 102.107 374.003 101.769C378.891 101.211 385.371 102.112 387.03 103.566C389.233 105.497 388.428 109.57 384.538 115.945C382.384 119.453 380.596 121.852 370.086 135.133C358.426 149.846 347.946 162.375 332.34 180.228C322.679 191.297 319.761 194.459 310.751 203.758C305.024 209.694 300.349 214.502 300.366 214.387C300.379 214.301 301.439 212.565 302.726 210.572C314.71 192.048 322.687 167.411 320.487 155.892C319.766 152.173 318.908 150.38 316.941 148.656L315.14 147.078L317.151 141.916C318.513 138.331 319.387 136.497 319.914 136.016C320.332 135.635 322.603 133.497 324.943 131.258ZM173.711 309.53C174.06 309.609 176.559 309.1 179.246 308.4C181.938 307.672 185.962 306.81 188.191 306.489C201.131 304.633 216.342 296.576 228.916 284.908C236.409 277.985 237.841 276.9 241.22 275.603C243.447 274.76 246.616 274.872 248.024 275.847L248.911 276.461L247.471 279.035C245.29 282.909 238.757 291.486 233.005 298.049C217.738 315.419 202.385 325.334 190.097 325.778C182.427 326.044 177.145 321.577 173.352 311.588C172.609 309.734 172.706 309.266 173.711 309.53ZM117.94 396.459C129.829 391.309 143.798 381.514 158.618 367.881C163.241 363.611 167.127 359.703 174.638 351.659C181.683 344.148 185.174 339.927 189.69 333.483C191.524 330.865 193.289 328.446 193.595 328.096C193.925 327.768 195.725 327.005 197.634 326.404C199.584 325.805 202.571 324.619 204.328 323.786C206.249 322.837 207.408 322.423 207.226 322.751C204.987 326.834 200.597 332.608 192.976 341.565C184.095 351.984 179.298 356.979 169.708 365.769C150.655 383.299 135.066 394.535 123.089 399.38C117.175 401.802 111.949 402.553 108.299 401.531C104.68 400.569 104.914 400.254 110.296 398.894C112.928 398.21 116.368 397.129 117.94 396.459ZM296.967 220.153C309.789 207.174 322.495 193.898 327.103 188.64L332.372 182.629L337.02 181.079C344.732 178.542 354.345 176.728 361.613 176.467C366.825 176.257 374.625 176.918 378.587 177.92C383.545 179.146 386.813 180.58 390.639 183.218C393.342 185.034 393.653 185.372 393.858 186.43C394.847 191.132 385.95 199.132 366.366 211.125C353.856 218.754 343.667 224.451 333.918 229.168C329.015 231.535 315.539 237.277 312.582 238.261L310.344 238.997L309.869 237.15C309.059 234.034 308.168 232.733 304.916 230.013C300.733 226.444 297.971 225.843 292.652 227.227L289.764 228.012L290.986 226.45C291.692 225.574 292.723 224.397 293.275 223.84C293.882 223.267 295.559 221.616 296.967 220.153ZM213.917 317.986C220.078 313.537 227.942 306.191 234.632 298.63L237.629 295.211L240.025 295.393C245.248 295.745 256.291 295.12 260.721 294.224C268.823 292.582 281.315 285.978 289.65 278.883L292.084 276.823L292.676 277.797C293.531 279.164 294.111 280.94 294.518 283.247C294.971 286.245 292.784 298.826 290.956 303.563C290.597 304.451 289.998 306.234 289.547 307.561C287.485 313.881 282.021 325.54 278.559 330.924C274.38 337.436 266.107 347.186 261.863 350.617C256.021 355.346 248.128 357.563 241.341 356.392C232.37 354.867 223.987 350.64 217.988 344.602C214.103 340.741 212.265 338.058 210.268 333.381C208.139 328.329 207.442 325.085 208.304 324.054C208.627 323.686 209.194 322.752 209.567 322.04C209.94 321.327 210.298 320.632 210.378 320.54C210.494 320.48 212.071 319.326 213.917 317.986ZM297.037 228.893C302.079 229.282 306.908 233.644 308.08 238.832C309.39 244.89 307.025 253.706 301.729 262.425C299.839 265.514 299.092 266.485 294.967 271.191C290.665 276.099 290.13 276.638 287.365 278.765C283.199 281.94 279.864 284.12 275.843 286.317C267.734 290.717 262.396 292.409 254.663 293.01C249.86 293.351 239.31 293.628 239.025 293.379C238.729 293.119 240.086 292.098 240.57 292.262C241.73 292.564 251.199 289.649 254.853 287.846C262.938 283.88 273.311 276.036 283.06 266.54C293.472 256.358 297.705 251.648 301.139 246.369C303.618 242.56 304.186 240.621 303.599 237.538C303.146 235.093 303.013 234.814 301.15 233.019C299.154 231.042 296.516 229.607 294.046 229.197C293.028 229.02 293.005 229 293.798 228.883C294.27 228.775 295.711 228.804 297.037 228.893ZM323.773 235.555C337.665 229.625 350.29 222.942 367.301 212.497C377.027 206.492 381.394 203.493 386.627 199.173C390.285 196.17 394.13 191.902 395.164 189.72L395.835 188.26L396.179 189.374C397.633 194.55 392.849 203.164 383.873 211.42C378.165 216.689 368.535 223.493 360.485 227.945C353.284 231.906 340.568 237.761 332.308 240.923C331.205 241.321 328.185 242.64 325.537 243.797C322.888 244.954 318.206 246.83 315.096 247.94L309.428 249.961L310.096 245.638C310.506 243.235 310.685 241.214 310.543 241.089C310.401 240.964 311.537 240.433 313.108 239.859C314.627 239.37 319.413 237.422 323.773 235.555ZM291.784 307.734C291.867 307.807 292.324 308.695 292.776 309.709C294.016 312.453 303.194 329.73 307.593 337.617C311.978 345.426 320.518 356.715 328.649 365.435C333.556 370.712 343.197 379 347.828 381.986C356.002 387.168 369.255 393.941 388.364 402.661C403.948 409.787 428.146 423.001 439.563 430.603C444.122 433.623 462.362 449.644 467.131 454.767C480.511 469.258 482.978 472.395 492.51 487.285C501.481 501.357 508.875 510.99 517.664 520.06C529.186 531.914 536.602 538.415 549.067 547.521C556.193 552.727 564.67 559.929 569.354 564.815L573.81 569.436L573.611 571.407C573.37 573.666 573.626 574.736 575.395 579.147C577.424 584.241 578.294 589.295 577.792 592.951C577.58 594.651 577.32 596.047 577.18 596.087C577.096 596.111 571.972 591.847 565.805 586.67C559.647 581.434 552.961 575.964 550.94 574.518C544.676 569.905 500.352 531.541 497.914 528.657C494.781 524.87 485.744 511.878 478.197 500.387C470.188 488.133 468.154 485.245 460.164 474.666C449.226 460.137 444.804 455.383 435.741 448.252C428.895 442.869 423.62 438.993 420.531 437.163C412.564 432.39 383.552 417.688 372.309 412.709C359.166 406.91 354.144 404.394 342.683 397.728C326.892 388.568 318.847 380.346 306.575 360.91C305.305 358.919 303.267 355.865 302.05 354.148C300.816 352.448 298.809 349.552 297.564 347.745C296.319 345.939 293.702 342.28 291.741 339.618C289.779 336.956 287.768 334.088 287.255 333.216C286.726 332.362 285.709 330.821 284.923 329.806C283.523 327.961 282.872 326.481 283.291 326.003C283.807 325.415 288.199 315.839 289.625 312.181C291.263 307.993 291.499 307.485 291.784 307.734Z" fill="#503131"/>
<path fill-rule="evenodd" clip-rule="evenodd" d="M189.099 212.074C189.22 212.342 189.712 212.546 190.238 212.519C193.765 212.295 198.403 213.792 200.808 215.9C202.348 217.25 202.428 217.255 203.072 216.52C203.459 216.078 203.696 215.474 203.644 215.103C203.275 212.894 196.12 209.776 192.174 210.12C190.185 210.262 188.794 211.156 189.099 212.074Z" fill="#503131"/>
<path fill-rule="evenodd" clip-rule="evenodd" d="M211.164 187.139C211.272 189.119 214.659 198.329 215.512 199.077C215.998 199.502 216.967 198.922 217.287 198.032C217.418 197.691 216.695 195.432 215.719 192.984C214.743 190.536 213.819 187.743 213.625 186.793C213.448 185.825 213.101 185.001 212.867 184.958C212.123 184.826 211.102 186.207 211.164 187.139Z" fill="#503131"/>
<path fill-rule="evenodd" clip-rule="evenodd" d="M198.514 204.917C198.612 205.165 199.493 205.45 200.531 205.58C202.533 205.806 205.493 207.328 207.791 209.343C209.272 210.641 210.228 210.698 210.84 209.545C211.316 208.596 210.493 207.647 207.434 205.616C204.189 203.487 202.248 202.761 200.532 203.045C199.319 203.282 198.338 204.21 198.514 204.917Z" fill="#503131"/>
<path fill-rule="evenodd" clip-rule="evenodd" d="M224.586 176.895C224.387 178.866 224.499 186.051 224.76 186.28C225.056 186.539 226.063 186.251 226.466 185.792C226.949 185.24 226.93 174.984 226.433 174.548C225.805 173.998 224.792 175.321 224.586 176.895Z" fill="#503131"/>
<path fill-rule="evenodd" clip-rule="evenodd" d="M190.51 219.353C190.672 219.886 195.714 221.997 196.512 221.851C197.222 221.758 198.089 220.698 197.927 220.165C197.777 219.644 194.001 217.928 192.562 217.706C191.404 217.569 190.22 218.514 190.51 219.353Z" fill="#503131"/>
<path fill-rule="evenodd" clip-rule="evenodd" d="M219.384 191.743C219.565 195.218 224.291 207.488 225.905 208.61C226.803 209.234 226.99 209.236 227.571 208.574C228.151 207.912 228.07 207.646 227.027 205.562C225.288 202.12 222.386 194.245 221.954 191.656C221.516 189.191 221.023 188.63 219.994 189.613C219.495 190.086 219.319 190.646 219.384 191.743Z" fill="#503131"/>
<path fill-rule="evenodd" clip-rule="evenodd" d="M235.595 174.159C234.76 176.45 234.375 181.932 234.669 187.715C234.955 193.46 235.32 194.788 236.427 194.003C237.013 193.573 237.716 192.174 237.432 191.925C237.171 191.696 236.801 183.993 236.853 180.3C236.891 178.513 237.209 176.094 237.531 174.914C237.904 173.485 237.968 172.599 237.684 172.349C237.108 171.812 236.128 172.643 235.595 174.159Z" fill="#503131"/>
<path fill-rule="evenodd" clip-rule="evenodd" d="M212.028 204.605C211.917 204.898 212.743 206.012 214.001 207.277C215.188 208.48 216.337 209.942 216.586 210.518C216.92 211.428 217.118 211.536 217.701 211.397C218.628 211.105 219.078 210.232 218.818 209.191C218.6 208.22 216.713 205.688 215.391 204.496C214.064 203.333 212.426 203.361 212.028 204.605Z" fill="#503131"/>
<path fill-rule="evenodd" clip-rule="evenodd" d="M190.942 231.175C191.113 231.553 191.594 231.649 192.532 231.464C195.637 230.837 199.527 231.776 204.775 234.393C207.245 235.615 207.4 235.653 208.06 234.9C208.689 234.183 208.654 234.055 207.858 233.195C206.171 231.391 199.933 229.043 196.457 228.922C192.782 228.789 190.346 229.775 190.942 231.175Z" fill="#503131"/>
<path fill-rule="evenodd" clip-rule="evenodd" d="M227.918 189.826C227.787 191.792 228.592 198.999 229.021 199.538C229.497 200.118 230.654 199.539 230.891 198.576C230.99 198.175 230.876 196.418 230.65 194.692C230.424 192.966 230.267 190.683 230.301 189.64C230.326 187.581 229.683 186.856 228.67 187.82C228.22 188.238 227.97 188.93 227.918 189.826Z" fill="#503131"/>
<path fill-rule="evenodd" clip-rule="evenodd" d="M197.466 224.804C197.591 225.14 197.961 225.172 198.565 224.889C201.13 223.659 202.901 223.456 205.093 224.109C206.312 224.463 207.76 225.082 208.29 225.481C209.638 226.5 209.591 226.459 210.139 225.834C210.928 224.933 210.856 224.155 209.885 223.303C207.681 221.372 203.167 220.666 200.503 221.841C198.615 222.657 197.251 223.997 197.466 224.804Z" fill="#503131"/>
<path fill-rule="evenodd" clip-rule="evenodd" d="M206.896 217.562C206.981 217.799 208.071 218.038 209.344 218.115C212.039 218.267 214.688 219.548 215.758 221.266C216.55 222.513 216.963 222.712 217.813 222.124C218.952 221.303 218.675 220.28 216.801 218.475C214.288 216.012 211.223 215.016 208.451 215.836C207.588 216.055 206.734 217.03 206.896 217.562Z" fill="#503131"/>
<path fill-rule="evenodd" clip-rule="evenodd" d="M241.864 179.817C240.996 182.145 239.303 188.235 238.933 190.283C238.6 192.073 238.863 192.466 239.873 191.888C240.485 191.547 240.874 190.555 242.179 185.815C243.014 182.711 244.017 179.559 244.311 178.842C244.791 177.768 244.787 177.438 244.308 177.148C243.512 176.646 242.699 177.526 241.864 179.817Z" fill="#503131"/>
<path fill-rule="evenodd" clip-rule="evenodd" d="M251.543 170.162C250.142 172.119 248.362 175.727 246.552 180.35C243.625 187.894 242.407 192.678 243.323 193.091C244.148 193.488 244.779 192.481 245.561 189.558C247.337 183.086 251.005 174.241 253.381 170.765C255.341 167.932 255.35 167.874 254.751 167.577C254.105 167.239 252.981 168.139 251.543 170.162Z" fill="#503131"/>
<path fill-rule="evenodd" clip-rule="evenodd" d="M233.318 199.079C232.583 202.953 233.233 213.731 234.2 214.253C235.087 214.771 236.147 213.49 235.945 212.142C235.505 209.156 235.239 200.568 235.531 198.418C235.802 196.413 235.754 196.013 235.208 195.99C234.193 195.978 233.763 196.707 233.318 199.079Z" fill="#503131"/>
<path fill-rule="evenodd" clip-rule="evenodd" d="M220.702 212.66C220.764 212.877 221.409 213.67 222.134 214.468C223.943 216.444 225.719 220.536 227.592 226.956C227.657 227.24 228.077 227.382 228.516 227.311C229.158 227.224 229.355 227.071 229.596 226.438C230.009 225.369 229.636 224.002 227.799 219.238C225.285 212.809 222.709 209.869 221.114 211.689C220.82 212.048 220.648 212.483 220.702 212.66Z" fill="#503131"/>
<path fill-rule="evenodd" clip-rule="evenodd" d="M249.895 185.783C248.432 190.677 248.223 192.087 248.813 192.442C249.689 192.949 250.373 191.761 251.517 187.66C252.145 185.415 252.861 183.02 253.079 182.365C253.623 180.859 252.805 180.24 251.719 181.335C251.232 181.819 250.665 183.207 249.895 185.783Z" fill="#503131"/>
<path fill-rule="evenodd" clip-rule="evenodd" d="M210.88 229.408C211.036 229.707 211.656 229.861 212.521 229.806C214.383 229.618 216.605 230.525 217 231.651C217.595 233.148 219.114 232.562 219.307 230.716C219.506 228.744 215.519 226.745 212.824 227.406C211.506 227.714 210.601 228.675 210.88 229.408Z" fill="#503131"/>
<path fill-rule="evenodd" clip-rule="evenodd" d="M238.304 200.103C237.179 203.896 236.893 205.92 237.523 206.18C238.383 206.609 239.036 205.458 239.878 202.036C240.359 200.149 240.989 198.068 241.267 197.369C241.622 196.51 241.597 196.131 241.229 195.906C240.262 195.383 239.293 196.777 238.304 200.103Z" fill="#503131"/>
<path fill-rule="evenodd" clip-rule="evenodd" d="M220.45 224.466C220.554 225.207 223.952 231.274 224.318 231.334C225.045 231.484 225.862 230.218 225.677 229.21C225.416 227.811 223.287 223.93 222.452 223.425C221.906 223.044 221.539 223.08 221.052 223.564C220.711 223.882 220.436 224.291 220.45 224.466Z" fill="#503131"/>
<path fill-rule="evenodd" clip-rule="evenodd" d="M229.79 217.442C229.989 218.722 230.164 220.696 230.229 221.793C230.34 223.938 230.895 224.522 231.925 223.539C232.685 222.84 232.775 221.326 232.273 217.31C231.881 214.269 231.192 213.405 230.114 214.443C229.595 214.964 229.542 215.502 229.79 217.442Z" fill="#503131"/>
<path fill-rule="evenodd" clip-rule="evenodd" d="M138.205 156.086C138.253 156.843 138.401 158.013 138.562 158.642C138.98 160.34 141.248 164.636 142.82 166.762C144.436 168.958 150.549 174.316 154.38 176.829C159.714 180.399 163.11 183.767 166.952 189.182C168.865 191.899 171.027 195.289 171.765 196.717C173.368 199.812 173.991 200.488 174.557 199.651C175.07 198.898 172.568 194.104 168.743 188.574C165.73 184.243 164.898 183.448 150.226 171.076C144.616 166.386 143.768 165.513 142.715 163.679C140.842 160.51 139.783 157.631 139.698 155.769C139.647 154.847 139.513 153.948 139.382 153.834C138.865 153.349 138.167 154.719 138.205 156.086Z" fill="#503131"/>
<path fill-rule="evenodd" clip-rule="evenodd" d="M146.673 147.838C146.655 148.05 147.347 148.168 148.137 148.08C150.608 147.842 157.09 148.549 159.675 149.352C165.191 151.066 167.558 152.524 173.795 158.315C179.049 163.148 179.679 163.863 182.23 167.692C183.753 169.97 185.459 172.733 186.033 173.822C187.1 175.927 187.849 176.291 188.162 174.907C188.577 173.19 182.101 163.873 176.721 158.442C168.778 150.44 161.389 146.824 152.334 146.59C148.113 146.434 146.56 146.796 146.673 147.838Z" fill="#503131"/>
<path fill-rule="evenodd" clip-rule="evenodd" d="M90.8842 216.191C90.8117 216.68 90.5511 217.264 90.3103 217.443C88.7014 218.634 91.9963 220.969 98.3517 223.159C99.7487 223.669 100.867 224.161 100.898 224.221C100.805 224.854 92.8336 222.093 90.3746 220.621C89.4444 220.033 88.8246 219.879 88.5829 220.155C87.1649 221.773 92.7526 224.265 102.642 226.367C105.651 227.021 109.321 227.996 110.801 228.578C116.758 230.841 124.646 236.325 131.848 243.19C138.477 249.489 145.081 253.977 149.99 255.451C152.297 256.141 153.147 256.008 153.216 255.093C153.216 254.638 153.019 254.433 152.351 254.335C150.633 254 147.163 252.486 144.213 250.713C141.892 249.393 138.959 247.051 132.075 241.114C122.837 233.179 119.756 230.933 114.576 228.311C113.094 227.564 111.865 226.91 111.89 226.834C111.909 226.526 121.486 229.199 124.049 230.243C126.786 231.374 127.648 231.968 134.402 237.432C145.857 246.758 151.72 250.466 158.502 252.575C162.516 253.851 163.317 253.87 163.462 252.892C163.522 252.489 162.546 252.024 159.485 250.999C154.392 249.33 154.665 249.472 151.291 247.49C146.495 244.716 142.085 241.501 135.951 236.286C127.438 229.053 126.471 228.627 110.481 224.689C100.369 222.196 95.4179 220.555 92.5324 218.708C90.87 217.641 90.8989 217.537 92.7752 215.085C96.822 209.823 107.22 203.529 116.748 200.666C123.464 198.621 128.178 198.429 135.058 199.877C139.86 200.9 143.158 202.036 147.5 204.086C152.959 206.725 153.407 206.858 154.036 206.141C154.503 205.608 154.457 205.47 153.914 205.157C141.348 198.986 133.017 196.852 124.386 197.544C121.173 197.816 113.12 200.216 109.314 202.049C102.134 205.508 97.1618 208.886 93.3672 212.809C91.2829 214.948 91.0004 215.318 90.8842 216.191Z" fill="#503131"/>
<path fill-rule="evenodd" clip-rule="evenodd" d="M198.294 103.304C198.264 103.505 198.524 103.734 198.866 103.87C199.794 104.197 202.893 108.668 204.8 112.42C206.648 116.023 209.926 124.617 211.413 129.756C212.791 134.541 214.814 142.75 215.123 144.906C215.435 146.773 215.981 147.154 216.614 145.953C216.964 145.22 216.703 143.821 214.599 135.442C212.117 125.726 208.979 116.831 205.926 110.969C204.092 107.444 200.8 102.835 199.779 102.493C199.113 102.202 198.396 102.614 198.294 103.304Z" fill="#503131"/>
<path fill-rule="evenodd" clip-rule="evenodd" d="M180.388 127.82C180.991 130.884 183.147 137.65 184.897 142.012C186.619 146.285 190.582 154.049 191.868 155.664C192.699 156.652 192.822 156.727 193.206 156.122C193.493 155.723 193.466 155.179 193.082 154.518C188.718 147.117 184.42 137.011 182.524 129.757C181.252 124.97 181.015 124.404 180.403 125.102C180.161 125.378 180.151 126.442 180.388 127.82Z" fill="#503131"/>
<path fill-rule="evenodd" clip-rule="evenodd" d="M140.613 174.418C140.828 174.77 145.054 178.863 149.996 183.455C154.953 188.028 159.132 192.081 159.335 192.422C159.879 193.451 165.716 202.208 166.012 202.467C166.45 202.851 167.13 201.789 166.906 201.041C166.686 200.36 160.758 191.588 158.999 189.364C158.448 188.654 154.45 184.922 150.151 181.055C145.835 177.208 142.089 173.762 141.794 173.405C141.061 172.568 140.081 173.399 140.613 174.418Z" fill="#503131"/>
<path fill-rule="evenodd" clip-rule="evenodd" d="M206.603 103.987C206.549 104.168 207.026 104.748 207.653 105.298C213.332 110.34 218.094 121.829 218.755 132.355C218.949 134.931 219.446 135.822 220.035 134.648C220.518 133.738 219.985 128.395 219.076 124.055C217.185 115.409 213.464 108.181 208.666 103.976C207.718 103.145 207.25 102.962 207.009 103.238C206.783 103.495 206.601 103.823 206.603 103.987Z" fill="#503131"/>
<path fill-rule="evenodd" clip-rule="evenodd" d="M92.6043 252.516C92.7464 252.641 94.025 252.234 95.4656 251.546C98.7503 250.069 103.511 248.749 107.491 248.271C110.518 247.901 117.004 248.125 119.994 248.73C121.608 249.04 122.135 248.916 122.258 248.082C122.365 247.363 121.212 247.1 115.477 246.689C108.718 246.226 101.936 247.367 95.9231 249.996C93.3028 251.145 92.083 252.059 92.6043 252.516Z" fill="#503131"/>
<path fill-rule="evenodd" clip-rule="evenodd" d="M84.4783 267.691C84.5219 268.12 84.7769 268.115 87.2422 267.741C89.9903 267.354 93.0825 267.626 97.9348 268.759C103.308 269.99 109.44 270.522 116.031 270.317C122.043 270.126 123.292 269.92 123.452 269.021C123.524 268.532 123.406 268.428 122.88 268.454C122.509 268.519 119.584 268.653 116.408 268.763C109.994 268.959 105.5 268.661 100.813 267.674C93.81 266.151 92.7717 266.021 90.4373 266.055C87.8716 266.114 85.0944 266.606 84.7238 267.029C84.5509 267.202 84.4404 267.496 84.4783 267.691Z" fill="#503131"/>
<path fill-rule="evenodd" clip-rule="evenodd" d="M247.381 89.8009C249.344 93.1787 250.579 103.266 250.158 112.876C249.925 118.328 249.033 128.762 248.608 130.729C248.361 131.943 248.791 132.385 249.451 131.631C250.74 130.161 252.111 110.265 251.506 102.518C250.863 95.0305 249.249 88.2198 248.117 88.2681C247.432 88.2851 246.993 89.1681 247.381 89.8009Z" fill="#503131"/>
<path fill-rule="evenodd" clip-rule="evenodd" d="M250.142 90.4984C250.236 90.6782 250.742 91.5114 251.271 92.3654C253.857 96.3224 255.14 101.575 255.582 110.512C255.919 117.081 255.805 121.37 255.108 126.707C254.682 130.3 254.816 131.198 255.719 130.169C256.267 129.544 257.025 123.707 257.143 119.032C257.577 105.272 255.427 93.8625 251.776 90.4028C251.193 89.8261 250.645 89.6384 250.404 89.8175C250.179 89.9782 250.037 90.3083 250.142 90.4984Z" fill="#503131"/>
<path fill-rule="evenodd" clip-rule="evenodd" d="M222.706 129.089C222.344 132.25 221.992 135.615 221.947 136.551C221.843 139.06 222.191 144.566 222.606 147.368C222.95 149.652 222.961 149.759 222.271 149.447C221.894 149.279 221.368 149.306 221.107 149.532C220.765 149.85 220.946 150.432 221.868 151.89C223.499 154.522 224.264 157.403 225.187 164.356C225.593 167.573 226.064 170.358 226.218 170.493C226.384 170.638 226.74 170.495 226.997 170.201C227.296 169.813 227.177 167.726 226.547 163.305C226.044 159.841 225.499 156.567 225.404 156.029C224.866 154.062 223.636 151.164 223.162 150.748C222.7 150.343 222.708 150.286 223.398 150.24C223.825 150.159 224.21 149.911 224.3 149.665C224.369 149.466 224.237 147.92 223.963 146.249C223.059 140.516 223.19 135.397 224.355 126.634C224.698 124.139 224.73 122.932 224.392 122.863C224.102 122.836 223.766 122.932 223.637 123.079C223.508 123.226 223.063 125.957 222.706 129.089Z" fill="#503131"/>
<path fill-rule="evenodd" clip-rule="evenodd" d="M207.464 145.375C207.443 145.519 208.284 146.256 209.324 147.005C214.512 150.838 217.584 157.204 219.05 167.363C220.191 175.19 221.955 180.181 223.115 178.858C223.357 178.582 223.195 177.595 222.674 176.326C222.243 175.168 221.477 172.026 220.99 169.356C220.502 166.686 219.914 163.342 219.66 161.982C219.06 158.985 217.339 154.161 215.956 151.843C214.68 149.619 209.966 144.935 208.777 144.738C207.993 144.604 207.561 144.81 207.464 145.375Z" fill="#503131"/>
<path fill-rule="evenodd" clip-rule="evenodd" d="M74.1441 305.317C74.1986 305.852 82.6193 306.212 87.4664 305.844C99.313 304.948 111.795 302.204 135.923 295.136C149.872 291.077 156.286 288.898 157.076 287.997C158.026 286.912 156.862 286.997 153.22 288.356C143.57 291.957 110.237 301.066 100.338 302.823C92.2301 304.234 84.5926 304.821 78.6376 304.445C75.1507 304.216 74.073 304.442 74.1441 305.317Z" fill="#503131"/>
<path fill-rule="evenodd" clip-rule="evenodd" d="M74.4524 307.57C76.0399 308.961 85.878 310.596 92.4468 310.535C101.919 310.483 111.209 309.589 118.545 308.055C131.508 305.407 165.556 294.812 166.468 293.174C167.008 292.152 165.963 292.341 161.453 294.044C148.624 298.857 122.23 306.312 113.26 307.583C110.017 308.056 99.7881 308.875 95.3936 308.989C89.0424 309.208 78.5043 307.871 76.1509 306.588C75.2434 306.118 74.897 306.106 74.4942 306.566C74.1515 306.981 74.1325 307.289 74.4524 307.57Z" fill="#503131"/>
<path fill-rule="evenodd" clip-rule="evenodd" d="M186.237 181.118C186.409 182.212 189.303 186.439 191.749 189.265C192.986 190.675 194.38 192.287 194.797 192.815C195.595 193.84 196.435 193.861 196.573 192.844C196.615 192.556 195.31 190.795 193.66 188.925C192.005 187.085 189.882 184.249 188.933 182.702C187.961 181.135 187.065 179.862 186.878 179.86C186.392 179.889 186.112 180.424 186.237 181.118Z" fill="#503131"/>
<path fill-rule="evenodd" clip-rule="evenodd" d="M288.057 70.546C288.918 74.4867 287.98 80.8155 284.247 96.2353C283.093 100.945 281.834 106.278 281.41 108.052C280.565 111.765 276.451 124.704 275.951 125.274C275.371 125.936 275.436 127.033 276.051 126.857C276.443 126.745 276.741 126.357 277.184 125.445C278.358 123.126 282.255 110.482 283.4 105.375C284.025 102.607 285.211 97.4058 286.123 93.7841C288.085 85.8816 289.357 79.2921 289.683 75.2871C289.94 72.1971 289.313 67.5835 288.627 67.6004C287.739 67.6343 287.608 68.4294 288.057 70.546Z" fill="#503131"/>
<path fill-rule="evenodd" clip-rule="evenodd" d="M291.579 72.1415C292.4 74.1932 292.578 76.3323 292.337 80.9325C291.92 88.8889 289.908 99.4779 287.779 104.99C286.965 107.138 287.094 107.803 288.115 106.878C290.18 105.047 293.59 88.3698 293.843 78.904C294.027 73.6038 292.911 69.5704 291.654 70.6463C291.3 70.9541 291.244 71.4248 291.579 72.1415Z" fill="#503131"/>
<path fill-rule="evenodd" clip-rule="evenodd" d="M257.604 132.341C258.306 134.289 258.417 135.979 258.144 140.616C257.952 143.535 257.534 147.167 257.148 148.779C255.846 154.399 255.39 157.023 255.626 157.231C256.171 157.708 256.915 156.215 257.431 153.546C257.721 152.045 258.271 149.601 258.596 148.131C259.948 142.262 259.969 132.008 258.629 131.386C258.042 131.1 257.343 131.754 257.604 132.341Z" fill="#503131"/>
<path fill-rule="evenodd" clip-rule="evenodd" d="M146.587 267.65C146.593 267.883 149.17 270.369 152.333 273.142C158.872 278.874 162.295 281.159 172.208 286.532C179.954 290.721 182.968 292.062 186.413 292.936C190.732 293.959 191.831 294.045 192.507 293.273C193.184 292.5 193.382 292.609 188.91 291.712C184.652 290.906 181.039 289.364 173 284.983C163.25 279.687 159.918 277.417 153.426 271.727C148.794 267.667 147.635 266.813 147.151 267.007C146.684 267.182 146.539 267.348 146.587 267.65Z" fill="#503131"/>
<path fill-rule="evenodd" clip-rule="evenodd" d="M321.265 71.1137C321.435 74.1229 320.768 78.7072 319.289 84.8876C318.841 86.7376 317.921 90.7748 317.265 93.841C316.598 96.8968 315.484 101.251 314.753 103.471C313.18 108.301 309.716 117.033 307.961 120.565C305.064 126.38 305.08 126.362 305.6 126.461C306.253 126.577 306.71 125.84 309.108 120.953C311.364 116.396 315.556 105.638 316.856 101.024C317.36 99.1579 318.273 95.4396 318.834 92.745C319.406 90.0608 320.239 86.3377 320.696 84.4302C321.153 82.5227 321.887 79.1999 322.279 77.008L322.97 73.0637L323.188 74.8471C324.114 82.3229 322.519 94.6105 318.491 110.941C315.877 121.62 311.484 132.918 305.667 143.975C300.958 152.98 297.751 158.264 293.661 163.91C290.766 167.907 290.066 169.016 290.234 169.326C290.363 169.537 290.694 169.566 290.934 169.387C291.797 168.81 298.693 158.959 301.026 154.958C303.927 150.024 309.986 138.594 311.356 135.406C313.81 129.69 317.485 119.714 318.595 115.746C321.725 104.479 324.968 86.6791 325.039 80.2402C325.081 75.986 323.938 69.8807 322.828 68.5178C321.569 66.8945 321.071 67.7257 321.265 71.1137Z" fill="#503131"/>
<path fill-rule="evenodd" clip-rule="evenodd" d="M80.279 354.866C79.9354 355.377 79.8875 355.791 80.1363 356.009C80.5154 356.341 80.6519 356.233 82.1448 354.291C84.6988 350.971 93.3109 342.006 96.0406 339.848C99.8945 336.789 110.984 329.444 112.591 328.901C113.426 328.594 113.851 327.535 113.203 327.39C112.209 327.234 99.714 335.298 95.0919 339.114C91.6906 341.919 82.215 352.012 80.279 354.866Z" fill="#503131"/>
<path fill-rule="evenodd" clip-rule="evenodd" d="M79.4819 358.525C79.5468 358.81 79.7245 358.966 79.86 358.954C79.9761 358.894 81.7558 357.365 83.7415 355.53C91.3502 348.546 96.0846 345.057 108.244 337.446C121.329 329.282 122.826 328.22 121.945 327.838C121.43 327.614 121.257 327.691 116.944 330.509C115.064 331.722 110.723 334.451 107.313 336.597C96.6846 343.178 90.6982 347.617 83.9373 353.849C82.3534 355.321 80.6653 356.865 80.1592 357.299C79.5725 357.825 79.3578 358.189 79.4819 358.525Z" fill="#503131"/>
<path fill-rule="evenodd" clip-rule="evenodd" d="M160.167 269.055C160.219 269.881 175.945 279.927 181.181 282.533C183.651 283.755 190.757 286.57 195.476 288.237C198.751 289.352 200.084 289.48 200.745 288.727C201.18 288.23 200.689 287.572 200.006 287.754C199.283 287.933 190.468 284.725 183.733 281.844C181.186 280.782 169.133 273.598 165.639 271.154C161.574 268.24 160.892 267.87 160.505 268.311C160.28 268.569 160.153 268.88 160.167 269.055Z" fill="#503131"/>
<path fill-rule="evenodd" clip-rule="evenodd" d="M303.318 108.727C303.6 110.794 302.978 115.352 301.835 119.357C300.694 123.526 298.981 127.68 295.904 133.89C290.712 144.26 288.027 150.358 286.089 156.202C283.343 164.521 282.787 166.733 283.28 166.84C283.559 166.856 283.85 166.787 283.979 166.64C284.108 166.493 285.114 163.409 286.241 159.781C288.529 152.391 291.559 145.23 296.845 134.585C301.644 124.976 303.193 120.58 304.356 113.732C304.987 109.93 304.94 106.995 304.264 106.404C303.522 105.721 303.07 106.787 303.318 108.727Z" fill="#503131"/>
<path fill-rule="evenodd" clip-rule="evenodd" d="M188.038 245.146C187.647 248.054 188.248 250.499 189.936 253.019C191.196 254.903 192.096 255.693 197.405 259.793C204.905 265.554 207.38 267.008 208.202 266.071C208.669 265.538 207.903 264.834 205.89 263.785C203.052 262.338 193.167 254.518 191.587 252.45C189.746 250.057 188.954 246.73 189.539 243.959C189.948 242.107 189.606 241.612 188.736 242.605C188.498 242.852 188.192 244.014 188.038 245.146Z" fill="#503131"/>
<path fill-rule="evenodd" clip-rule="evenodd" d="M93.9381 375.683C95.0286 376.184 101.567 371.545 109.629 364.569C115.836 359.185 117.921 357.046 117.592 356.465C117.356 356.161 117.011 356.411 115.736 357.602C110.175 362.967 98.8564 372.127 95.6173 373.839C93.9832 374.747 93.3311 375.443 93.9381 375.683Z" fill="#503131"/>
<path fill-rule="evenodd" clip-rule="evenodd" d="M257.442 189.961C258.329 192.104 258.657 195.578 258.587 202.733C258.538 209.744 258.162 218.418 257.879 220.414C257.638 221.86 258.049 222.156 258.919 221.163C259.435 220.575 259.821 214.542 260.026 204.58C260.208 192.972 259.463 187.8 257.677 189.095C257.42 189.293 257.321 189.693 257.442 189.961Z" fill="#503131"/>
<path fill-rule="evenodd" clip-rule="evenodd" d="M260.522 190.127C262.643 191.986 264.11 203.219 263.642 214.316C263.38 219.873 263.507 220.732 264.382 220.069C264.771 219.792 265.357 210.424 265.239 207.069C265.045 202.511 264.205 195.175 263.625 192.945C262.861 190.064 261.408 188.304 260.5 189.1C260.038 189.508 260.06 189.722 260.522 190.127Z" fill="#503131"/>
<path fill-rule="evenodd" clip-rule="evenodd" d="M216.34 246.842C216.448 248.822 218.806 252.514 222.299 256.129C228.241 262.28 234.362 268.035 234.811 267.811C235.784 267.298 234.961 266.252 228.858 260.285C220.727 252.378 218.39 249.451 217.862 246.421C217.543 244.776 216.238 245.095 216.34 246.842Z" fill="#503131"/>
<path fill-rule="evenodd" clip-rule="evenodd" d="M123.997 353.268C121.492 356.533 117.512 362.699 113.312 369.713C109.234 376.54 107.907 378.986 106.411 382.485C105.751 383.955 105.06 385.365 104.835 385.622C104.094 386.468 103.232 389.841 103.307 391.5C103.361 392.49 103.706 393.507 104.194 394.097C104.922 394.963 105.145 394.996 106.743 394.511C111.213 393.163 127.132 382.411 135.621 374.997C139.94 371.241 142.145 369.012 149.477 361.006C153.471 356.64 157.894 352 159.314 350.644C160.745 349.298 165.335 344.252 169.661 339.365C176.34 331.793 177.698 330.123 179.276 327.703C181.331 324.498 181.544 323.872 180.521 324.178C179.938 324.318 179.713 324.575 178.797 326.145C176.066 330.838 168.705 339.404 157.165 351.231C154.292 354.174 149.067 359.704 145.496 363.563C140.48 368.951 138.2 371.243 135.339 373.742C129.329 378.973 120.291 385.484 112.846 390.011C108.274 392.765 106.082 393.64 105.383 393.027C104.459 392.217 104.594 387.784 105.545 387.512C105.709 387.493 106.01 386.815 106.208 386.111C107.896 380.504 119.335 361.144 126.092 352.504C129.4 348.252 133.641 343.939 140.026 338.256C148.959 330.288 157.271 323.888 163.702 319.968C166.091 318.486 167.186 317.691 167.237 317.346C167.361 316.511 166.665 316.779 163.64 318.581C157.293 322.38 149.187 328.57 140.572 336.199C132.11 343.702 128.323 347.568 123.997 353.268Z" fill="#503131"/>
<path fill-rule="evenodd" clip-rule="evenodd" d="M245.311 225.551C245.397 225.788 245.586 225.954 245.773 225.956C246.283 225.948 247.345 228.536 247.746 230.708C248.27 233.313 248.958 240.678 249.024 243.758C249.037 245.2 248.893 248.162 248.695 250.394C248.278 255.197 248.209 258.55 248.517 258.82C249.121 259.349 249.795 257.697 249.794 255.713C249.834 254.545 249.981 251.652 250.164 249.341C250.624 243.796 250.572 241.442 249.845 235.149C249.212 229.49 248.774 227.384 247.994 226.147C247.695 225.723 247.537 225.259 247.649 225.13C248.117 224.597 250.441 225.171 251.762 226.102C253.63 227.413 254.292 229.359 254.175 233.125C253.717 245.694 253.761 255.322 254.254 255.429C254.501 255.483 254.812 255.366 254.941 255.219C255.247 254.87 255.372 250.33 255.306 243.283C255.284 240.631 255.365 236.834 255.505 234.811C255.612 232.824 255.574 230.19 255.406 229.068C255.106 227.115 254.969 226.865 253.18 225.297C251.557 223.874 251.018 223.629 249.601 223.525C247.524 223.362 244.986 224.583 245.311 225.551Z" fill="#503131"/>
<path fill-rule="evenodd" clip-rule="evenodd" d="M317.375 146.728C316.084 148.392 315.909 148.759 316.253 149.06C316.632 149.393 316.784 149.266 318.45 147.151C319.454 145.886 324.076 140.542 328.728 135.258C337.993 124.687 341.348 121.386 347.42 116.729C355.663 110.432 366.729 105.145 377.563 102.321C380.753 101.477 382.213 100.936 382.336 100.556C382.655 99.6661 380.601 99.9784 375.448 101.508C361.705 105.618 351.136 111.438 341.029 120.555C337.999 123.295 336.3 125.089 328.185 134.229C323.081 140.027 318.194 145.626 317.375 146.728Z" fill="#503131"/>
<path fill-rule="evenodd" clip-rule="evenodd" d="M383.805 101.652C384.456 101.962 384.467 102.069 383.535 103.658C380.951 107.992 379.389 110.036 373.166 117.519C365.318 126.926 359.731 132.919 347.843 144.831C334.456 158.192 330.507 162.435 323.874 170.241C316.547 178.935 314.321 182.12 315.931 181.645C316.266 181.549 316.862 180.869 317.886 179.296C318.933 177.743 321.935 174.198 327.703 167.617C335.333 158.961 336.923 157.266 346.207 148.013C360.185 134.097 364.617 129.4 372.306 120.341C379.495 111.852 382.097 108.477 383.974 105.213C384.675 104.007 385.301 103.125 385.384 103.198C385.727 103.499 385.339 106.117 384.705 107.772C382.988 112.313 375.807 123.182 368.674 132.013C363.561 138.324 359.406 142.873 354.045 148.057C344.463 157.244 342.805 158.944 325.657 176.811C322.269 180.342 318.31 184.381 316.821 185.839C313.54 189.009 312.67 190.002 312.474 190.871C312.238 191.834 313.324 191.551 314.008 190.46C314.303 190.003 315.644 188.545 316.987 187.252C319.339 185.023 321.584 182.7 337.69 165.903C341.09 162.382 346.019 157.405 348.645 154.863C360.918 142.964 363.905 139.796 370.785 131.133C374.596 126.379 379.274 119.752 382.443 114.631C385.834 109.184 387.448 104.715 386.817 102.471C386.309 100.661 384.505 99.7302 383.523 100.852C383.172 101.227 383.266 101.407 383.805 101.652Z" fill="#503131"/>
<path fill-rule="evenodd" clip-rule="evenodd" d="M291.928 224.254C292.212 224.503 293.054 223.973 295.75 221.949C310.409 210.937 324.927 202.046 335.823 197.455C341.278 195.151 353.266 191.68 357.433 191.204C359.259 190.985 363.738 190.392 367.383 189.914C371.012 189.454 375.334 189.017 376.92 188.976C379.649 188.898 385.523 189.463 390.641 190.34C392.685 190.637 393.799 190.346 393.708 189.518C393.696 189.053 391.362 188.633 385.14 187.892C379.813 187.254 376.925 187.226 372.259 187.817C354.82 189.954 354.884 189.978 347.334 192.137C343.224 193.313 338.097 195.028 335.993 195.947C328.477 199.143 316.694 205.751 308.349 211.472C302.955 215.163 292.564 222.764 291.936 223.481C291.734 223.759 291.727 224.078 291.928 224.254Z" fill="#503131"/>
<path fill-rule="evenodd" clip-rule="evenodd" d="M306.531 209.292C306.537 209.524 306.687 209.688 306.827 209.648C306.966 209.608 309.031 208.232 311.417 206.585C318.162 201.997 327.156 196.684 332.531 194.113C349.652 185.91 368.385 181.363 381.721 182.162C384.945 182.355 390.803 183.297 391.253 183.691C391.703 184.086 392.429 182.804 392.024 182.286C391.619 181.769 386.06 180.797 381.971 180.562C368.87 179.806 349.937 184.437 333.153 192.448C326.21 195.756 322.028 198.137 314.354 203.211C308 207.425 306.475 208.592 306.531 209.292Z" fill="#503131"/>
<path fill-rule="evenodd" clip-rule="evenodd" d="M218.127 314.689C217.562 319.134 219.512 332.611 221.74 339.797C223.804 346.548 227.45 354.554 228.503 354.763C229.167 354.89 229.693 354.05 229.357 353.431C223.557 343.341 220.016 330.387 219.547 317.754C219.458 315.465 219.294 313.501 219.199 313.418C218.773 313.044 218.249 313.69 218.127 314.689Z" fill="#503131"/>
<path fill-rule="evenodd" clip-rule="evenodd" d="M273.524 289.943C273.455 290.5 273.603 293.653 273.854 296.928C274.049 300.22 274.181 305.016 274.08 307.593C273.983 310.142 274.004 314.061 274.069 316.329C274.343 323.33 272.303 333.472 268.785 342.123C267.274 345.902 267.096 347.014 268.091 346.261C268.621 345.848 273.065 339.081 275.236 335.36C280.228 326.798 283.862 315.745 285.238 305.021C286.02 299.205 285.933 295.456 284.981 290.591C284.034 285.697 283.721 284.74 282.927 284.044C281.944 283.182 281.248 284.263 281.96 285.505C283.039 287.263 284.364 295.023 284.311 299.171C284.201 307.59 281.678 318.642 277.748 327.81C276.672 330.28 273.251 336.741 271.909 338.75C271.189 339.81 271.203 339.627 272.063 336.805C274.511 328.874 275.786 320.824 275.512 315.448C275.402 313.661 275.404 309.859 275.491 307.01C275.579 304.162 275.473 299.192 275.242 295.967C275.01 292.741 274.853 289.742 274.83 289.267C274.796 288.587 274.69 288.494 274.222 288.669C273.75 288.873 273.608 289.106 273.524 289.943Z" fill="#503131"/>
</svg>
