<svg width="651" height="1238" viewBox="0 0 651 1238" fill="none" xmlns="http://www.w3.org/2000/svg">
<path d="M-122.086 5.0144C-123.085 4.60047 -125.533 5.46277 -126.483 6.11689C-128.095 7.24842 -130.112 9.87269 -130.954 11.6533C-131.485 12.7165 -131.761 13.8767 -131.585 14.8141C-122.309 67.6626 -152.038 126.643 -170.941 181.528C-191.858 242.307 -197.514 305.94 -195.831 363.93C-194.013 425.216 -187.153 489.38 -166.977 542.92C-152.186 582.218 -141.808 631.486 -105.557 653.714C-102.812 655.373 -103.196 658.521 -106.263 661.343C-126.841 680.142 -132.13 706.316 -150.502 728.085C-180.554 763.612 -221.895 787.351 -262.216 803.459C-297.021 817.349 -331.745 826.009 -366.71 837.549C-395.184 846.953 -423.303 860.583 -450.536 876.1C-454.064 878.116 -457.041 880.007 -457.205 880.255C-457.395 880.529 -460.402 882.492 -463.89 884.547C-476.943 892.167 -490.21 898.25 -504.25 900.415C-515.172 902.101 -525.868 900.641 -536.856 903.233C-554.19 907.335 -566.229 918.905 -569.298 936.578C-569.768 939.335 -569.719 941.68 -569.248 943.671C-568.468 946.984 -566.786 948.933 -567.069 949.064C-567.353 949.196 -570.381 951.139 -573.786 953.429C-602.118 972.465 -630.107 991.99 -657.418 1011.82C-692.79 1037.51 -1051.98 1189.73 -1085.27 1220.87C-1088.29 1223.69 -1089.01 1227.73 -1086.86 1229.84C-1084.72 1231.92 -1080.53 1231.26 -1077.55 1228.41C-1037.92 1190.7 -672.524 1032.8 -627.519 1001.71C-606.16 986.943 -584.611 971.899 -562.883 957.031C-559.472 954.696 -553.871 953.071 -550.172 952.396C-547.66 951.939 -545.064 951.156 -542.566 950.074C-542.449 950.035 -542.353 949.976 -542.236 949.936C-542.043 949.819 -544.671 951.591 -548.11 953.796C-555.797 958.795 -563.433 963.742 -571.123 968.584C-613.91 995.759 -657.371 1022.79 -697.498 1055.06C-718.91 1072.28 -1061.25 1215.39 -1081.66 1233.89C-1081.73 1233.97 -1081.81 1234.05 -1081.91 1234.11C-1082.03 1234.24 -1080.84 1235.61 -1079.24 1237.17C-1077.63 1238.75 -1073.75 1237.89 -1070.5 1235.24C-1060.16 1226.76 -727.417 1094.08 -716.851 1085.98C-714.433 1084.12 -711.752 1082.49 -710.039 1081.49C-709.109 1080.95 -708.625 1080.59 -707.803 1079.89C-707.324 1079.48 -706.501 1078.75 -706.075 1078.29C-705.926 1078.13 -705.778 1077.97 -705.628 1077.8C-705.035 1077.15 -701.844 1074.6 -698.534 1072.17C-672.525 1052.96 -645.917 1034.69 -619.025 1017.2C-601.106 1005.56 -583.132 994.015 -565.018 982.609C-561.559 980.423 -558.341 978.564 -557.839 978.289C-557.555 978.158 -557.26 977.936 -556.939 977.687C-556.715 977.498 -556.471 977.328 -556.227 977.157C-555.81 976.85 -552.711 974.874 -549.252 972.689C-508.853 947.52 -467.945 923.307 -426.536 901.575C-356.208 864.595 -284.593 832.444 -212.775 801.92C-211.103 801.205 -209.385 800.484 -207.693 799.789C-204.87 798.615 -199.576 796.945 -195.953 795.429C-195.811 795.364 -195.649 795.318 -195.482 795.226C-191.833 793.685 -186.002 790.906 -182.339 789.43C-134.255 770.081 -83.3811 749.832 -43.2011 713.272C-42.5489 712.684 -42.073 712.077 -41.708 711.464C-41.0601 710.361 -40.1276 710.404 -38.9959 711.56C-37.8642 712.716 -36.9008 713.606 -36.9518 713.658C-37.0029 713.71 -36.7226 714.341 -36.3225 715.089C-35.9225 715.837 -34.8873 717.052 -33.9927 717.772C-33.0981 718.493 -31.6968 719.453 -30.8144 719.906C-29.9319 720.359 -26.5015 721.157 -23.2274 721.955C7.5112 729.512 29.3462 758.641 54.5569 773.815C74.9241 786.046 94.9431 798.754 116.93 808.688C129.69 814.46 145.661 821.175 162.121 820.404C165.713 820.237 169.94 822.016 171.42 824.89C175.99 833.741 180.576 842.456 185.38 850.668C227.431 922.759 311.571 980.723 413.955 940.132C414.188 940.053 414.192 939.649 413.979 939.748C359.075 963.207 310.327 949.906 271.237 924.956C251.93 912.637 231.687 899.201 217.161 881.547C201.571 862.547 189.907 840.644 178.427 818.513C178.101 817.888 177.755 817.244 177.435 816.574C176.872 815.514 176.886 813.385 176.496 812.187C176.247 811.484 175.703 811.004 174.796 810.935C174.75 810.942 174.705 810.948 174.665 810.909C174.599 810.897 173.345 808.549 171.819 805.681C153.457 770.041 131.089 729.164 90.8692 718.065C50.0204 706.812 0.533236 723.566 -36.1486 702.856C-36.2938 702.766 -36.4447 702.721 -36.6154 702.656C-36.8971 702.585 -37.0933 702.547 -37.0223 702.514C-36.9968 702.488 -34.5379 703.562 -31.4646 704.725C-9.52475 713.031 11.4926 711.504 31.8845 709.979C80.9305 706.37 131.667 702.626 196.147 840.919C229.489 912.469 305.383 949.621 363.105 949.38C387.677 949.282 408.995 942.537 424.011 930.352C427.233 927.731 429.446 925.145 429.306 925.009C429.166 924.873 429.027 924.736 429.027 924.736L429.128 924.273C429.181 924.019 427.492 923.952 425.375 923.926C424.104 923.91 422.859 923.868 421.624 923.735C369.039 921.029 342.992 858.134 322.134 819.343C313.505 803.313 304.405 787.486 294.46 772.365C292.71 769.686 294.242 766.64 297.96 765.626C310.274 762.236 322.606 759.425 334.855 757.298C350.753 754.907 367.125 751.192 383.204 745.303C399.297 739.478 415.186 731.668 430.357 722.238C445.548 712.827 459.996 701.823 473.642 689.883C485.133 679.871 495.985 669.235 506.498 658.269C509.387 655.27 509.447 655.329 506.658 658.424C500.33 665.464 493.984 672.283 487.577 678.685C457.411 708.741 424.298 730.918 386.998 746.965C368.17 755.071 349.922 761.905 330.925 764.077C320.28 765.32 308.69 765.334 298.046 770.967C297.64 771.183 297.333 772.057 297.904 771.951C312.908 769.197 327.848 770.821 342.816 767.267C357.577 763.765 372.397 759.045 386.977 752.815C416.466 740.216 446.042 724.895 471.339 702.18C525.25 653.713 568.836 580.056 634.689 549.934C635.069 549.744 635.43 549.535 635.75 549.287C636.295 548.849 635.611 547.313 634.365 545.995C633.099 544.657 631.951 543.637 631.809 543.703C631.641 543.795 631.164 543.685 630.864 543.393C630.545 543.081 630.22 542.815 630.058 542.861C629.897 542.907 627.454 541.697 624.437 540.435C615.04 536.568 604.339 534.795 593.061 534.45C589.547 534.337 589.406 532.565 592.682 530.048C594.92 528.355 597.13 526.531 599.381 524.544C602.484 521.806 605.115 519.271 605.43 519.068C605.577 518.957 605.77 518.839 605.923 518.683C622.84 503.353 633.118 482.05 639.496 462.146C643.396 449.928 648.377 434.529 649.434 420.913C649.722 417.265 649.76 413.474 649.919 412.353C650.098 411.252 650.028 410.366 649.775 410.426C649.547 410.459 649.317 410.336 649.299 410.114C649.29 410.004 649.281 409.893 649.253 409.763C649.005 408.5 648.731 407.263 648.503 406.02C648.108 403.95 647.717 402.394 647.448 402.59C647.153 402.813 646.349 402.997 645.759 403.442C645.169 403.887 643.139 405.886 640.738 407.267C639.296 408.105 637.825 408.813 636.297 409.26C619.409 414.462 603.279 422.24 586.181 425.859C555.45 432.345 527.439 429.34 497.702 430.417C453.923 432.024 391.151 439.991 358.986 487.541C358.853 487.717 358.76 487.933 358.687 488.167C358.557 488.5 355.637 490.293 352.085 492.134C350.274 493.07 348.483 494.027 346.672 494.963C343.116 496.85 341.34 497.311 342.701 496.037C343.532 495.266 344.388 494.468 345.199 493.678C421.432 419.795 483.334 336.002 529.115 243.971C529.703 242.81 529.658 241.898 529.261 241.306C528.507 240.162 526.985 240.564 527.081 240.505C527.152 240.472 527.229 240.394 527.214 240.329C527.2 240.264 527.328 240.133 527.455 240.002C527.603 239.891 527.685 239.767 527.65 239.683C527.636 239.618 527.673 239.5 527.729 239.402C527.811 239.278 527.822 239.187 527.763 239.129C527.703 239.07 527.688 239.005 527.694 238.96C527.699 238.914 527.58 238.797 527.364 238.739C527.147 238.681 527.824 238.627 528.166 237.838C528.383 237.336 528.359 236.802 527.887 236.647C527.716 236.582 527.52 236.544 527.173 236.46C499.5 227.559 466.159 249.411 438.591 266.948C418.5 279.74 398.941 293.664 378.738 306.092C378.687 306.144 378.642 306.151 378.596 306.158C378.5 306.217 379.252 304.808 380.211 302.988C381.169 301.167 382.004 299.634 382.131 299.504C382.182 299.451 382.259 299.373 382.315 299.275C392.76 284.108 397.224 268 401.029 251.81C402.443 247.168 403.832 242.552 405.11 237.931C406.177 234.124 407.264 230.336 408.33 226.529C409.386 222.814 411.632 216.841 413.564 213.266C424.258 193.492 440.546 174.895 444.633 154.743C445.07 152.619 442.866 152.202 441.464 153.997C441.382 154.121 441.3 154.245 441.198 154.35C441.039 154.552 440.912 154.683 440.872 154.644C440.832 154.605 440.812 154.585 440.812 154.585C440.812 154.585 440.758 154.481 440.663 154.338C440.589 154.215 441.857 153.156 441.893 151.762C441.933 150.882 441.431 150.239 440.301 150.718C391.124 170.786 343.229 197.006 297.627 228.221C294.243 230.53 293.635 229.835 295.863 226.396C307.007 209.155 309.218 190.286 308.499 170.904C308.282 165.179 309.906 142.879 307.549 128.329C307.003 124.937 304.851 122.989 303.23 123.652C301.583 124.34 300.101 123.863 299.856 122.756C299.637 121.623 299.268 120.804 299.009 120.909C298.751 121.014 298.489 120.962 298.355 120.78C298.241 120.618 295.918 122.279 293.263 124.638C290.629 127.017 285.564 130.288 282.139 132.558C275.238 137.151 269.104 143.513 263.04 150.402C246.706 169.007 235.867 183.381 215.079 190.899C211.393 192.2 209.673 190.01 211.127 186.326C214.65 177.568 217.515 169.085 219.817 161.738C225.901 142.415 235.829 107.5 226.202 89.5773C224.676 86.7094 222.783 84.6566 222.751 84.3701C222.694 84.1098 222.541 81.5115 222.272 78.5943C221.977 75.7032 221.351 73.51 220.976 73.6544C220.601 73.7988 220.09 73.963 219.877 74.0614C219.639 74.1858 220.647 71.597 219.144 69.8233C218.263 68.8098 216.732 68.5408 214.842 69.7578C200.251 79.1927 187.154 94.3225 172.466 104.735C153.361 118.234 134.076 131.558 115.262 145.598C88.0967 165.875 64.3649 190.22 41.1862 215.156C29.0627 226.694 17.2384 238.524 5.7279 250.712C2.87937 253.749 1.71529 253.225 2.97289 249.502C13.3034 218.605 16.0263 184.362 19.011 159.512C22.9519 126.816 19.1931 94.4619 29.4513 61.0442C34.9651 43.1033 44.6007 30.3611 54.8153 14.1519C57.1984 10.3542 59.1788 6.92884 58.262 3.27752C57.9862 2.2427 57.1437 1.82831 56.0947 1.82486C55.9384 1.82533 55.7621 1.80624 55.5803 1.83282C55.313 1.82709 54.9715 1.69788 54.8374 1.51589C54.7233 1.35339 54.4295 1.01554 54.1957 0.736154C53.9618 0.456766 51.2611 2.46429 48.1731 5.26756C46.8177 6.49603 45.4623 7.7245 44.1324 8.92685C41.0445 11.7301 37.5107 14.7106 36.1854 15.5091C35.388 16.0064 34.5906 16.5038 33.7732 16.9816C33.4128 17.1911 33.0212 17.4723 32.6042 17.7797C31.9886 18.2505 30.1374 20.0666 28.4791 21.7649C26.8208 23.4632 25.2845 25.0765 25.0693 25.3768C24.9562 25.5725 24.8231 25.7487 24.7099 25.9445C24.4325 26.3882 24.1208 26.7474 23.7947 27.0414C23.1935 27.5773 20.2387 30.2043 17.3503 33.2024C-4.30069 55.4959 -25.9729 78.33 -45.4755 102.415C-48.079 105.64 -51.2792 105.884 -52.7086 102.957C-60.4305 86.9958 -69.0519 71.6364 -78.737 57.1269C-84.931 47.8634 -91.309 37.9101 -98.3502 28.6361C-100.273 26.095 -103.236 21.8243 -105.204 19.2899C-107.038 16.9374 -109.071 14.7483 -111.334 12.7944C-113.736 10.7041 -115.921 8.48046 -116.705 7.76628C-117.163 7.3182 -117.987 6.54807 -118.477 6.17172C-118.822 5.88615 -119.813 5.49693 -120.206 5.41993C-122.726 4.87941 -122.086 5.0144 -122.086 5.0144ZM125.23 752.687C127.733 755.233 130.108 757.91 132.432 760.639C134.477 763.095 133.418 764.459 130.237 763.446C109.638 756.96 90.4739 745.852 71.8016 734.919C66.8617 732.035 61.8762 729.157 56.8852 726.326C54.0638 724.745 54.6742 723.401 58.2701 723.391C59.7881 723.393 61.2805 723.421 62.773 723.449C66.3323 723.556 71.4502 724.98 74.3736 726.457C76.1386 727.364 77.9235 728.29 79.7339 729.19C91.3856 735.259 103.259 741.34 115.633 746.43C118.599 747.744 123.006 750.414 125.23 752.687ZM69.757 737.771C89.9326 749.56 110.635 761.608 133.254 767.821C136.471 768.717 140.697 771.414 142.498 774.04C143.411 775.34 144.274 776.692 145.161 778.018C146.911 780.697 146.994 782.768 145.342 782.584C144.375 782.456 143.408 782.329 142.421 782.182C113.633 777.857 86.9428 760.166 61.1185 743.066C53.1844 737.82 45.1904 732.515 37.0611 727.589C34.3162 725.929 34.9688 724.423 38.547 724.191C42.1452 723.978 47.3275 725.058 50.1745 726.612C56.8162 730.188 63.2994 733.967 69.757 737.771ZM141.179 785.41C142.735 785.653 144.296 785.85 145.837 786.028C148.411 786.346 151.863 788.798 153.465 791.588C154.208 792.823 154.945 794.104 155.616 795.372C157.213 798.207 155.604 800.413 152.113 800.118C149.705 799.91 147.302 799.656 144.91 799.311C137.579 798.278 130.394 796.775 123.441 794.834C116.585 792.835 110.039 790.119 103.74 787.03C78.6871 774.409 57.4458 756.527 34.961 740.237C29.5491 736.28 24.0351 732.427 18.439 728.698C15.7507 726.941 16.2213 725.461 19.5213 725.315C22.8212 725.168 27.8017 726.254 30.5466 727.914C40.1505 733.565 49.5312 739.765 58.8266 745.932C84.947 763.168 111.868 780.982 141.179 785.41ZM82.8097 726.12C84.087 726.448 85.3331 726.848 86.5538 727.275C94.6406 730.169 101.92 734.01 108.576 738.57C111.213 740.379 110.808 740.953 107.848 739.594C98.8568 735.511 90.1175 731.009 81.4635 726.54C81.0422 726.333 80.6009 726.107 80.2051 725.873C79.5333 725.524 80.7131 725.553 82.8097 726.12ZM45.2057 755.651C33.5916 746.709 22.3281 737.089 10.0961 728.82C7.4333 727.037 6.10772 725.64 7.20213 725.637C8.29654 725.634 11.3874 727.019 14.0757 728.776C20.6229 733.128 26.9661 737.688 33.2727 742.366C55.539 758.799 76.8201 776.72 102.087 789.601C108.421 792.774 115.026 795.549 122.099 797.606C129.137 799.579 136.381 801.141 143.843 802.2C147.091 802.666 150.395 803.034 153.742 803.239C157.239 803.489 160.904 804.925 161.867 806.733C162.83 808.541 160.795 809.667 157.428 809.084C114.689 802.161 76.8433 780.009 45.2057 755.651ZM144.966 667.891C144.161 667.717 143.357 667.544 142.552 667.37C140.728 666.763 138.859 666.163 137.029 665.602C133.954 664.64 134.095 664.575 137.339 665.444C139.134 665.921 140.949 666.417 142.738 666.94C145.95 667.881 147.728 668.495 146.747 668.302C146.138 668.167 145.53 668.032 144.966 667.891ZM279.512 751.39C278.051 749.453 279.866 746.836 283.552 745.535C304.054 738.35 327.522 730.999 357.472 725.434C438.349 710.34 494.106 655.712 538.933 611.798C545.905 604.978 552.672 598.367 559.284 592.114C562.312 589.252 562.392 589.33 559.463 592.289C552.561 599.279 545.497 606.673 538.224 614.321C492.232 662.661 434.975 722.817 349.526 737.683C325.858 741.725 306.184 747.065 288.822 752.672C285.102 753.888 280.973 753.326 279.512 751.39ZM272.354 742.155C270.842 740.271 271.462 738.119 273.751 737.292C275.128 736.8 276.506 736.307 277.883 735.814C301.826 727.14 328.963 717.35 365.747 709.934C440.598 694.825 491.925 648.326 537.204 607.303C547.196 598.226 556.781 589.568 566.109 581.731C569.291 579.071 569.345 579.175 566.283 581.952C556.82 590.526 547.161 599.979 537.094 609.85C490.39 655.606 437.423 707.497 357.713 722.352C326.778 728.129 302.696 735.748 281.698 743.163C278.012 744.464 273.846 744.02 272.354 742.155ZM264.916 733.208C263.308 731.382 265.015 728.915 268.676 727.641C275.273 725.355 281.887 722.932 288.708 720.457C312.191 711.895 338.763 702.164 373.996 694.46C442.724 679.395 491.737 638.7 534.94 602.796C547.785 592.115 559.958 582.003 571.848 573.299C575.158 570.867 575.233 570.99 571.991 573.592C560.285 582.986 548.239 593.886 535.567 605.347C490.665 646.024 439.786 692.144 365.901 707.022C328.864 714.497 301.585 724.353 277.551 733.041C275.915 733.638 274.26 734.216 272.65 734.788C269.96 735.786 266.499 735.06 264.916 733.208ZM257.046 724.503C255.347 722.691 256.907 720.335 260.622 719.165C273.837 714.97 286.378 710.27 299.267 705.452C323.527 696.373 348.628 686.992 382.317 678.953C444.638 664.064 491.053 629.101 531.971 598.212C547.633 586.403 562.359 575.314 576.661 566.414C580.14 564.247 580.189 564.397 576.819 566.771C562.936 576.439 548.727 588.237 533.596 600.819C490.693 636.456 442.098 676.844 374.173 691.724C338.758 699.455 312.044 709.251 288.465 717.872C281.082 720.564 273.956 723.151 266.848 725.601C263.102 726.843 258.765 726.335 257.046 724.503ZM248.791 716.034C246.995 714.28 248.513 712.087 252.216 711.008C272.562 705.1 290.696 698.104 309.515 690.806C333.555 681.512 358.422 671.852 390.546 663.46C446.171 648.922 489.507 619.629 527.735 593.77C546.493 581.105 563.94 569.304 580.923 560.572C584.52 558.724 584.563 558.92 581.03 560.982C564.89 570.486 548.394 582.91 530.712 596.269C490.07 626.916 443.995 661.649 382.341 676.374C348.49 684.458 323.318 693.872 298.942 702.991C285.561 707.993 272.484 712.884 258.672 717.21C254.983 718.354 250.567 717.768 248.791 716.034ZM240.357 708.105C238.605 706.547 237.217 705.294 237.308 705.281C237.353 705.275 237.399 705.268 237.444 705.261C268.441 697.146 293.216 687.141 319.45 676.519C343.404 666.835 368.184 656.784 398.796 647.986C447.086 634.095 486.727 610.381 521.671 589.482C544.068 576.084 564.729 563.745 584.807 555.636C588.47 554.16 588.488 554.381 584.882 556.118C566.282 565.109 547.28 577.944 526.743 591.832C488.713 617.527 445.642 646.67 390.548 661.063C358.262 669.501 333.304 679.175 309.193 688.501C289.858 696.009 271.238 703.143 250.21 709.151C246.492 710.165 242.13 709.683 240.357 708.105ZM231.881 700.9C230.111 699.479 231.659 697.775 235.361 696.898C241.15 695.558 247.181 693.893 253.432 691.881C281.251 682.909 305.414 672.613 328.821 662.65C352.933 652.406 377.876 641.749 407.051 632.467C446.935 619.76 481.631 601.629 512.203 585.647C539.365 571.44 564.163 558.497 588.3 551.34C592.004 550.261 592.022 550.483 588.325 551.874C566.814 560.014 544.828 573.15 520.867 587.472C486.064 608.306 446.642 631.875 398.721 645.668C367.968 654.531 343.122 664.569 319.072 674.312C292.934 684.875 268.25 694.867 237.435 702.955C237.02 703.061 236.631 703.14 236.236 703.265C235.594 703.404 233.67 702.341 231.881 700.9ZM223.232 694.191C222.192 693.38 221.147 692.614 220.056 691.855C220.016 691.816 219.931 691.784 219.871 691.726C219.791 691.648 222.655 691.229 226.323 690.625C239.496 688.431 253.741 684.579 269.459 678.541C293.798 669.182 315.793 659.269 337.103 649.658C362.951 637.995 387.379 626.988 415.366 617.006C444.588 606.596 470.563 594.803 495.692 583.357C530.108 567.709 561.193 553.556 591.432 547.814C595.111 547.119 595.103 547.367 591.43 548.374C566.085 555.372 540.146 568.885 511.695 583.773C481.219 599.696 446.665 617.761 406.988 630.415C377.697 639.737 352.708 650.401 328.526 660.678C305.189 670.607 281.026 680.904 253.349 689.811C246.283 692.098 239.551 693.844 233.079 695.282C229.349 696.029 224.972 695.482 223.232 694.191ZM213.54 687.432C211.538 686.09 212.842 684.914 216.477 684.584C236.484 682.734 258.965 677.073 285.446 665.161C305.079 656.311 323.577 647.424 341.462 638.807C369.377 625.386 395.751 612.706 423.615 601.532C435.87 596.605 447.793 591.658 459.27 586.89C508.117 566.601 551.784 548.503 593.76 544.83C597.395 544.501 597.342 544.755 593.688 545.423C562.519 550.921 530.588 565.421 495.224 581.522C470.166 592.935 444.236 604.722 415.13 615.091C387.052 625.087 362.553 636.127 336.66 647.797C315.395 657.401 293.4 667.313 269.158 676.614C252.503 683.013 237.516 686.906 223.729 689.011C220.092 689.543 215.522 688.755 213.54 687.432ZM202.799 680.67C200.444 679.29 201.388 678.323 204.958 678.339C231.702 678.371 262.406 672.113 301.413 651.762L316.932 643.692C430.379 584.506 515.98 539.828 597.695 542.038C601.235 542.125 601.181 542.379 597.558 542.618C554.192 545.597 509.329 564.161 458.978 585.073C447.501 589.842 435.604 594.762 423.323 599.715C395.388 610.922 368.969 623.609 341.003 637.082C323.143 645.674 304.665 654.579 285.032 663.43C257.416 675.867 234.149 681.373 213.51 682.912C209.932 683.144 205.153 682.051 202.799 680.67ZM189.833 673.472C188.826 672.947 187.792 672.449 186.785 671.924C183.856 670.493 183.58 669.458 186.207 669.522C188.839 669.541 193.427 670.55 196.726 671.322C224.113 677.801 267.29 660.805 294.885 648.909C324.32 636.206 352.803 620.686 381.449 605.478C385.191 603.722 388.907 601.992 392.669 600.254C416.841 589.15 441.255 579.354 465.688 568.861C471.485 566.356 477.294 563.76 483.089 561.099C486.709 559.427 492.621 557.085 496.31 555.941C502.9 553.902 509.452 551.981 515.988 550.197C550.435 540.704 590.159 531.514 620.82 540.986C624.027 541.974 623.738 542.509 620.309 542.069C531.269 530.156 440.454 577.5 316.496 642.143L300.997 650.233C260.397 671.377 228.882 677.148 201.408 676.506C197.849 676.399 192.737 674.929 189.833 673.472ZM288.309 361.264C288.851 361.028 289.373 360.773 289.89 360.563C297.327 357.617 304.866 354.566 312.247 351.157C327.09 344.418 341.712 336.748 356.078 328.421C384.866 311.871 412.409 292.524 440.243 274.277C447.243 269.782 454.169 265.163 461.345 261.247C468.735 257.949 475.665 253.487 482.93 250.118C490.115 246.671 497.507 243.731 504.835 241.853C508.548 240.885 508.521 241.471 504.907 243.097C483.511 252.676 459.176 271.531 430.444 293.852C395.128 321.279 355.075 352.4 307.705 375.967C289.329 385.126 272.118 401.037 257.754 415.389C251.755 421.373 245.749 427.604 239.972 433.6C222.641 451.589 206.255 468.61 189.893 479.379C170.275 492.327 150.335 505.164 131.025 517.596C130.928 517.655 130.857 517.688 130.806 517.74C130.684 517.825 131.802 514.884 133.21 511.207C135.939 504.021 138.432 496.758 140.587 489.521C141.708 485.819 145.322 481.079 148.727 478.79C151.985 476.611 155.213 474.302 158.433 471.883C161.749 469.405 167.123 465.618 170.511 463.465C172.523 462.163 174.535 460.861 176.572 459.533C183.577 454.634 190.026 448.987 196.235 443.107C208.588 431.334 219.958 418.652 231.67 406.457C232.844 405.255 233.998 404.034 235.197 402.806C237.136 400.82 241.304 397.03 244.526 394.409C256.351 384.773 268.441 375.704 280.71 366.452C284.041 364.039 287.411 361.664 288.309 361.264ZM302.638 173.194C302.09 193.075 298.547 210.235 293.22 223.713C291.767 227.398 289.326 231.853 287.983 233.707C286.621 235.541 284.611 237.56 283.539 238.299C282.903 238.75 282.273 239.156 281.638 239.607C280.361 240.556 279.09 241.458 277.768 242.413C275.637 243.956 274.848 244.206 276.027 242.959C276.721 242.208 277.436 241.476 278.13 240.725C291.351 226.227 299.597 199.061 301.407 167.909C301.605 164.274 301.813 162.384 301.944 163.687C302.006 164.462 302.113 165.23 302.15 166.031C302.33 168.401 302.484 170.798 302.638 173.194ZM191.345 665.098C190.982 665.151 190.601 665.341 190.275 665.635C189.725 666.118 186.557 666.649 183.017 666.561C182.17 666.551 181.349 666.514 180.527 666.477C177.019 666.318 171.748 665.051 168.731 663.789C164.238 662.005 159.668 660.299 155.055 658.756C151.926 657.69 152.16 657.051 155.725 657.112C219.664 657.889 287.42 625.339 353.357 593.615C372.829 584.251 393.011 574.558 412.564 565.988C430.324 558.218 447.337 551.811 463.807 545.64C521.596 523.977 572.416 504.901 626.101 438.144C628.704 434.919 628.935 435.042 626.622 438.449C622.349 444.74 617.912 450.921 613.244 456.979C601.865 470.469 589.511 483.161 576.174 494.585C546.271 520.101 518.178 531.868 484.258 544.734C482.9 545.246 482.636 547.233 483.921 547.314C487.847 547.524 491.926 547.219 496.074 546.523C499.742 545.919 499.826 546.512 496.212 548.138C483.66 553.848 471.487 558.651 460.102 562.846C456.436 564.166 453.466 565.452 453.509 565.647C453.527 565.868 450.597 567.192 446.894 568.63C439.878 571.425 432.844 574.357 425.86 577.439C394.694 591.156 364.456 608.791 333.693 624.331C328.938 626.527 324.202 628.742 319.452 630.893C295.263 641.775 270.812 651.689 246.227 658.307C242.509 659.32 238.782 660.224 235.066 661.036C220.278 662.929 206.376 662.676 191.345 665.098ZM548.9 538.644C545.908 539.193 546.329 538.123 549.842 536.042C581.2 517.459 615.123 487.906 637.953 436.703C639.583 433.037 640.761 430.155 640.75 430.246C640.739 430.338 639.695 433.402 638.307 437.099C618.84 488.729 589.174 516.517 560.699 533.985C557.205 536.086 551.892 538.094 548.9 538.644ZM134.648 645.209C142.839 644.683 151.289 641.298 159.716 636.46C163.244 634.443 168.986 631.476 172.644 630.045C216.178 613.042 263.763 588.816 310.348 565.095C346.505 546.706 383.924 527.662 418.359 512.594C448.125 499.552 473.364 493.981 497.734 488.581C537.498 479.789 575.337 471.413 623.967 430.191C627.129 427.511 627.368 427.745 624.5 430.763C573.686 484.041 531.006 497.336 482.531 512.374C461.25 519.001 439.275 525.82 414.911 536.482C390.051 547.373 363.902 560.223 338.611 572.633C267.317 607.649 193.862 643.72 130.055 646.798C126.437 646.991 124.5 646.58 125.681 646.049C126.862 645.518 127.876 645.079 128.038 645.033C128.149 645.039 131.024 645.447 134.648 645.209ZM164.597 625.353C157.2 629.257 149.902 632.899 142.716 636.346C137.702 638.289 132.615 639.906 127.393 640.983C126.887 641.102 126.425 641.416 126.062 641.827C125.464 642.519 123.742 643.645 121.785 644.132C119.847 644.64 121.166 643.529 124.737 641.707C144.409 631.619 166.112 619.89 189.04 607.266C192.582 605.314 192.774 605.756 189.503 608.228C181.345 614.348 173.057 620.241 164.597 625.353ZM623.036 437.092C570.328 502.249 520.277 521.056 463.4 542.385C446.859 548.588 429.781 554.982 411.925 562.811C392.28 571.395 372.093 581.133 352.549 590.53C277.841 626.448 200.804 663.513 130.096 651.227C126.729 650.644 126.963 650.005 130.561 649.793C194.73 646.303 268.089 610.291 339.286 575.334C364.532 562.93 390.61 550.114 415.399 539.255C439.55 528.692 461.459 521.86 482.625 515.272C530.406 500.425 572.62 487.288 622.401 436.624C625.375 433.659 625.64 433.866 623.036 437.092ZM219.94 585.479C217.372 587.31 214.799 589.187 212.246 591.084C208.909 593.542 203.376 597.173 199.834 599.125C172.282 614.329 146.26 628.527 123.093 640.357C119.522 642.179 119.242 641.548 122.478 638.991C170.742 601.138 236.511 558.328 302.248 521.101C305.796 519.104 306.082 519.69 302.88 522.33C276.038 544.711 247.922 565.642 219.94 585.479ZM582.881 495.061C598.398 481.324 613.048 465.363 625.953 446.677C628.287 443.29 628.417 443.316 626.21 446.774C605.42 479.402 579.515 503.258 552.971 521.182C549.566 523.472 549.492 523.348 552.808 520.87C563.327 512.971 573.4 504.331 582.881 495.061ZM489.433 553.564C485.88 554.688 485.984 554.381 489.638 552.794C495.203 550.368 500.83 547.799 506.525 545.04C510.111 543.284 514.699 541.18 516.746 540.32C518.773 539.442 517.593 540.331 514.031 542.263C510.179 544.371 506.247 546.402 502.341 548.406C498.75 550.208 492.96 552.466 489.433 553.564ZM637.645 424.765C637.342 425.234 637.63 424.7 638.304 423.571C638.977 422.442 639.204 422.05 638.878 422.703C638.528 423.381 637.973 424.269 637.645 424.765ZM532.476 542.052C529.448 542.719 529.886 541.871 533.448 539.939C569.059 520.712 607.745 490.553 634.626 439.272C636.492 435.684 636.668 435.703 634.973 439.356C611.253 490.712 576.103 519.525 544.417 537.328C540.869 539.325 535.505 541.386 532.476 542.052ZM515.358 546.212C512.895 546.819 512.607 546.435 514.738 545.25C516.032 544.524 517.301 543.823 518.595 543.096C557.829 523.272 600.306 492.782 630.763 442.39C632.885 438.9 633.016 438.925 631.084 442.5C602.893 494.084 562.497 523.441 526.335 541.875C522.764 543.696 517.846 545.58 515.358 546.212ZM191.609 482.891C208.529 471.75 225.145 454.493 242.756 436.217C248.533 430.221 254.489 424.042 260.462 418.084C274.514 404.091 291.206 388.593 308.796 379.839C356.694 355.971 396.991 324.68 432.551 297.083C461.303 274.782 485.521 255.966 506.418 246.818C510.052 245.212 510.211 245.928 506.826 248.237C489.799 259.887 470.279 277.524 447.344 298.258C412.115 330.107 372.167 366.23 324.576 395.81C308.923 405.534 294.088 419.171 276.602 436.6C272.103 441.088 267.644 445.614 263.211 450.115C244.303 469.32 226.467 487.427 208.6 499.737C176.44 521.977 143.809 542.583 113.427 561.404C109.948 563.57 107.433 564.789 107.772 564.202C107.998 563.811 108.219 563.465 108.42 563.099C114.659 552.399 120.237 541.616 125.182 530.725C126.832 527.079 129.128 523.451 130.388 522.639C131.14 522.149 131.937 521.651 132.689 521.16C151.999 508.729 171.965 495.865 191.609 482.891ZM205.408 430.679C201.908 434.304 198.347 437.871 194.707 441.36C192.433 443.529 190.119 445.659 187.771 447.704C184.649 450.423 184.535 450.261 187.577 447.464C193.637 441.897 199.536 436.174 205.269 430.543C208.237 427.622 208.297 427.681 205.408 430.679ZM155.095 462.448C153.465 463.919 151.854 465.408 150.224 466.879C147.559 469.329 146.077 468.291 146.84 464.596C147.354 462.035 147.867 459.473 148.315 456.899C148.967 453.198 151.886 447.933 154.954 445.11C158.527 441.811 162.099 438.511 165.692 435.231C190.511 412.407 216.161 388.812 240.011 366.063C303.245 305.772 338.384 264.954 366.61 232.136C379.457 217.222 390.613 204.279 401.969 192.45C404.857 189.452 405.122 189.66 402.558 192.924C394.938 202.684 387.721 212.99 379.801 224.294C354.796 260.002 323.711 304.371 253.094 371.743C221.847 401.509 187.908 432.476 155.095 462.448ZM276.962 239.686C275.338 241.469 273.694 243.232 272.075 244.97C269.335 247.857 264.414 252.137 261.078 254.596C224.144 281.924 186.16 312.563 155.864 346.983C153.115 350.118 150.9 351.987 150.849 351.121C150.798 350.255 153.164 347.154 156.112 344.215C195.214 305.326 219.452 284.334 238.067 268.263C250.744 257.316 261.654 247.86 273.345 236.206C287.678 221.925 297.308 190.548 299.508 154.367C299.706 150.731 299.857 148.021 299.895 148.262C299.933 148.503 300.089 151.616 300.099 155.199C300.172 195.438 289.386 226.043 276.962 239.686ZM234.784 200.136C242.808 196.589 251.288 184.352 262.019 168.851C268.305 159.779 275.59 149.284 283.979 138.897C286.582 135.672 286.853 135.834 284.56 139.26C278.481 148.279 272.988 157.258 267.886 165.597C256.982 183.43 247.558 198.829 239.139 203.061C225.723 209.816 214.965 213.449 205.488 216.649C203.483 217.345 201.549 218.009 199.66 218.665C196.44 219.808 195.073 218.933 196.502 216.551C197.931 214.17 202.037 211.442 205.735 210.408C214.052 208.117 223.456 205.152 234.784 200.136ZM21.6766 63.0992C8.81903 97.1432 5.64179 127.42 2.5679 157.032C-1.94107 200.249 -6.60248 244.899 -42.2237 299.741C-48.9212 309.993 -54.6918 320.334 -59.7062 330.698C-61.4417 334.312 -64.5583 340.098 -66.6607 343.609C-69.0916 347.615 -71.4171 351.673 -73.6572 355.764C-78.3628 364.694 -82.7525 373.78 -86.855 382.891C-88.4852 386.557 -89.105 386.513 -88.1601 382.791C-81.1536 354.62 -69.6587 326.442 -51.4844 298.967C-17.6385 247.699 -11.4686 204.777 -5.53645 163.257C-0.641402 129.145 4.38474 94.1405 24.4275 53.536C26.2085 49.9159 26.843 49.1063 25.9007 51.7079C24.9584 54.3095 23.065 59.402 21.6766 63.0992ZM-86.7296 205.297C-74.0254 172.328 -60.2969 136.634 -28.421 93.6502C-28.2113 93.3955 -28.0072 93.1865 -27.7975 92.9318C-27.4603 92.5465 -29.0512 94.9742 -31.3244 98.4199C-56.1753 136.524 -67.6951 169.118 -78.3769 199.417C-87.3606 224.943 -95.9922 249.231 -111.547 274.262C-113.689 277.733 -115.463 277.634 -115.277 274.09C-115.09 270.546 -113.205 264.783 -111.253 261.228C-101.189 242.778 -94.0622 224.422 -86.7296 205.297ZM-92.2017 54.3915C-92.2282 54.0594 -90.6599 55.8461 -88.7879 58.4394C-87.5411 60.1163 -86.3652 61.8258 -85.1893 63.5354C-75.2449 78.2982 -66.069 93.6885 -57.9457 109.838C-56.4908 112.738 -57.3498 117.769 -59.7826 121.059C-62.1954 124.368 -64.8134 124.415 -65.7149 121.187C-72.2401 97.9729 -79.9473 78.0449 -89.3518 60.1346C-90.8577 57.2861 -92.1752 54.7236 -92.2017 54.3915ZM126.011 478.504C106.466 554.403 59.6916 613.923 17.8275 650.012C14.6852 652.711 9.09346 655.724 5.38732 657.005C2.12141 658.154 -1.09017 659.407 -4.18206 660.778C-7.79629 662.404 -8.0479 661.903 -4.84579 659.262C40.8877 621.286 95.3415 552.983 117.424 471.651C130.076 425.005 132.052 380.591 133.961 337.642C135.102 312.165 136.167 288.043 139.405 265.328C139.92 261.646 140.148 261.613 139.879 265.281C139.442 271.795 139.227 278.322 139.214 284.842C138.119 303.168 138.142 322.024 138.178 341.147C138.197 385.314 138.28 430.973 126.011 478.504ZM44.6404 626.583C78.9136 590.125 112.181 539.569 127.907 478.518C140.209 430.713 140.168 384.892 140.115 340.64C140.087 333.723 140.1 326.845 140.152 320.005C140.168 316.397 140.375 316.344 140.663 319.841C142.041 338.029 144.074 355.785 145.411 372.657C146.6 409.239 146.084 446.81 136.67 485.39C135.458 490.383 134.076 495.311 132.609 500.207C130.003 508.024 127.015 515.875 123.568 523.636C113.793 545.582 101.845 566.121 87.1691 586.141C76.1865 601.141 62.9448 620.57 46.0122 629.249C42.4156 631.097 41.7719 629.601 44.6404 626.583ZM471.034 292.757C436.095 330.096 392.585 376.572 341.377 415.685C326.334 427.179 312.213 441.003 295.354 457.87L290.983 462.227C268.936 484.287 248.114 505.093 227.236 520.129C173.84 558.688 120.826 588.993 75.5679 613.909C72.0256 615.86 71.5202 615.06 74.2689 611.926C83.8219 601.144 92.6814 588.359 99.469 577.735C101.677 574.277 106.207 569.717 109.706 567.57C141.555 547.885 176.034 526.225 210.095 502.677C228.378 490.059 246.393 471.769 265.48 452.382C269.888 447.907 274.347 443.38 278.846 438.892C296.056 421.705 310.636 408.33 325.833 398.874C373.814 369.013 415.714 331.171 449.389 300.714C472.426 279.875 493.123 261.193 510.704 249.574C514.129 247.304 514.475 247.948 511.467 250.829C499.601 262.262 486.048 276.742 471.034 292.757ZM163.348 432.482C160.784 434.828 158.221 437.174 155.678 439.539C152.61 442.362 150.53 441.658 150.909 437.996C151.294 434.289 151.633 430.589 151.836 426.908C151.861 426.524 151.86 426.165 151.885 425.781C151.891 425.175 154.374 422.393 157.391 419.623C159.226 417.943 161.04 416.245 162.849 414.591C183.256 395.728 204.366 376.224 224.142 357.407C265.474 317.991 296.899 286.765 322.152 261.66C355.837 228.2 379.559 204.663 403.335 184.904C406.537 182.263 406.731 182.504 403.803 185.463C390.768 198.612 378.386 213.01 363.795 229.949C335.652 262.644 300.614 303.357 237.584 363.438C213.746 386.096 188.121 409.665 163.348 432.482ZM249.231 213.681C261.944 205.73 273.349 179.761 286.615 149.689C287.609 147.393 288.629 145.071 289.675 142.723C291.305 139.058 291.612 139.103 290.334 142.806C278.825 176.227 266.847 207.455 253.341 216.776C242.469 224.279 233.324 229.334 224.514 234.205C204.163 245.468 185.75 255.663 153.606 292.975C150.877 296.129 148.663 296.161 148.608 292.944C148.529 289.752 150.635 284.561 153.324 281.369C181.664 247.794 198.317 239.76 218.757 229.962C227.95 225.617 237.483 221.043 249.231 213.681ZM122.491 182.82C153.4 152.162 181.214 124.555 201.695 100.507C204.403 97.3333 204.799 97.5667 202.546 101.032C189.058 121.751 170.227 144.349 148.893 168.075C146.104 171.17 141.028 175.451 137.657 177.825C111.465 196.348 88.8909 223.099 69.6052 251.632C67.2921 255.039 63.1875 260.32 60.3789 263.396C19.1481 308.576 -18.8773 354.386 -40.9185 399.112C-51.6239 420.814 -60.0137 441.101 -66.5845 460.205C-67.8621 463.908 -70.0944 464.637 -71.6402 461.75C-72.2375 460.606 -72.8602 459.487 -73.4775 458.323C-75.0034 455.455 -75.2 450.108 -73.9225 446.405C-67.5936 428.188 -59.6045 408.989 -49.6425 388.807C-15.581 319.835 57.7955 247.042 122.491 182.82ZM-97.9168 399.09C-98.341 397.808 -98.7397 396.5 -99.1129 395.166C-100.085 391.971 -100.229 386.37 -99.3492 382.635C-92.5521 353.8 -80.9649 325.048 -62.4812 297.417C-30.7623 250.043 -23.689 211.066 -16.2212 169.769C-9.54554 132.955 -2.70766 95.1772 23.148 50.2961C25.1651 46.7534 25.3358 46.8181 23.5149 50.3992C2.21977 92.4859 -2.94869 128.474 -7.9605 163.544C-14.1526 206.648 -19.9592 247.322 -53.4456 298.022C-74.1959 329.412 -86.3476 361.695 -93.0449 393.741C-93.8334 397.463 -94.7862 401.432 -95.2235 402.638C-95.6863 403.871 -96.8988 402.279 -97.9168 399.09ZM-115.801 293.228C-115.821 290.095 -113.835 284.788 -111.541 281.361C-93.3616 253.841 -84.0361 227.526 -74.2511 199.822C-62.5226 166.615 -49.8041 130.598 -19.1822 87.4615C-16.7838 84.087 -16.6585 84.1583 -18.8918 87.643C-44.7459 127.932 -55.7606 162.244 -65.924 193.968C-76.2594 226.188 -85.9999 256.64 -109.39 289.536C-110.491 291.063 -111.528 292.603 -112.615 294.196C-114.359 296.78 -115.781 296.361 -115.801 293.228ZM-109.267 354.832C-109.495 353.589 -109.768 352.352 -110.016 351.089C-110.654 347.711 -109.979 341.99 -108.46 338.318C-102.199 323.404 -94.3306 308.68 -84.435 294.354C-56.8179 254.255 -47.9652 219.363 -38.615 182.405C-29.4336 146.099 -20.0102 108.906 8.14389 64.5847C10.3317 61.1067 10.5025 61.1713 8.48539 64.714C-15.0173 106.227 -22.7314 141.67 -30.2857 176.35C-38.7383 215.103 -46.7078 251.725 -75.8804 294.694C-89.0822 314.162 -98.8147 334.109 -105.801 354.236C-107.047 357.867 -108.584 358.204 -109.267 354.832ZM-112.961 332.75C-113.034 332.066 -113.152 331.389 -113.225 330.705C-113.655 327.274 -112.551 321.513 -110.685 317.925C-106.211 309.431 -101.168 301.034 -95.3864 292.797C-69.6732 256.045 -60.2435 223.197 -50.2421 188.406C-39.9564 152.565 -29.3888 115.877 -0.454351 72.1133C1.81883 68.6676 1.9441 68.7388 -0.13839 72.2687C-24.4215 113.224 -33.2598 148.181 -41.9238 182.441C-51.184 219.028 -59.9269 253.568 -87.1024 292.975C-95.9986 305.878 -103.299 319.063 -109.275 332.368C-110.808 335.974 -112.465 336.194 -112.961 332.75ZM-98.2078 291.216C-102.97 298.05 -107.275 304.973 -111.142 311.967C-113.093 315.522 -114.89 315.605 -115.107 312.076C-115.116 311.965 -115.119 311.809 -115.148 311.679C-115.391 308.175 -113.797 302.432 -111.57 298.993C-109.86 296.324 -108.091 293.714 -106.312 291.214C-82.4608 257.646 -72.565 226.835 -62.0886 194.191C-50.7441 158.823 -39.1688 122.66 -9.45394 79.4541C-7.12091 76.0669 -6.99564 76.1382 -9.138 79.6095C-34.156 120.001 -44.0986 154.492 -53.7759 188.273C-63.6874 222.692 -72.9817 255.163 -98.2078 291.216ZM-64.6475 296.322C-82.2537 322.616 -93.6829 349.889 -100.68 377.252C-101.645 380.955 -103.057 381.363 -103.907 378.082C-104.376 376.247 -104.844 374.411 -105.312 372.576C-106.117 369.289 -105.871 363.609 -104.659 359.893C-97.6607 338.196 -87.5828 316.698 -73.3871 295.853C-43.7529 252.211 -35.699 215.263 -27.2019 176.145C-19.2323 139.523 -11.0351 101.949 16.0746 57.2209C18.197 53.73 18.3477 53.7753 16.416 57.3502C-6.08772 99.2775 -12.59 135.035 -18.9268 169.985C-26.3301 210.937 -33.3447 249.614 -64.6475 296.322ZM-76.0739 476.509C-69.8713 486.802 -62.8671 497.112 -56.5438 507.879C-56.5039 507.918 -56.4896 507.983 -56.4696 508.003C-56.4353 508.087 -56.4942 508.387 -56.5985 508.694C-56.7028 509 -55.9338 510.568 -54.9597 512.284C-54.3514 513.338 -53.7629 514.372 -53.2654 515.419C-53.2111 515.523 -53.1768 515.607 -53.1225 515.711C-53.0538 515.881 -52.9485 515.932 -52.9174 515.861C-52.8863 515.789 -51.7428 518.13 -50.4099 521.116C-43.1041 537.743 -37.8391 553.347 -36.507 568.428C-36.4032 579.298 -38.4042 590.768 -43.5841 601.94C-44.6128 604.151 -56.518 625.804 -64.5461 635.982C-67.1098 639.246 -67.6174 638.648 -64.9684 635.416C-26.7664 588.708 -48.2785 542.643 -76.5672 482.204C-103.881 423.839 -137.891 351.177 -128.047 251.923C-123.597 206.812 -115.655 169.5 -109.299 139.519C-107.029 128.772 -104.95 118.859 -103.19 109.553C-102.493 105.845 -101.84 104.338 -101.69 106.22C-101.514 108.076 -101.889 112.61 -102.566 116.338C-104.073 124.667 -105.797 133.497 -107.638 142.928C-113.498 172.678 -120.781 209.715 -124.691 253.516C-126.254 271.283 -126.444 288.042 -125.576 303.997C-125.314 310.275 -124.871 316.527 -124.154 322.739C-117.733 378.312 -102.946 432.101 -76.0739 476.509ZM-82.9343 157.862C-85.4253 162.728 -87.7855 167.62 -90.0204 172.584C-91.6705 176.229 -93.2506 176.371 -93.6098 172.907C-94.4917 164.39 -95.296 156.153 -96.0683 148.202C-96.402 144.712 -96.2048 138.882 -95.6891 135.2C-94.8299 129.251 -94.0617 123.315 -93.3588 117.366C-92.606 111.007 -91.945 104.303 -91.4237 97.4623C-91.1808 93.8206 -90.4111 93.5513 -89.6771 96.871C-86.5108 111.191 -83.4992 127.147 -80.4816 145.252C-79.955 148.624 -81.0879 154.255 -82.9343 157.862ZM-53.911 493.607C-54.9881 491.637 -54.9865 487.045 -53.8143 483.29C-46.9066 461.606 -37.4234 437.844 -24.4 411.413C-15.6763 393.697 -4.1904 375.667 8.99211 357.457C11.4305 354.121 11.9627 354.334 10.1818 357.955C-11.4356 401.768 -31.005 445.999 -49.2662 490.487C-50.771 494.223 -52.8594 495.604 -53.911 493.607ZM-103.616 63.4069C-103.637 58.6392 -104.065 54.0876 -104.847 49.6998C-104.862 49.6347 -104.871 49.524 -104.885 49.4589C-104.888 49.3026 -104.242 51.8735 -103.766 55.2982C-103.369 58.0848 -103.134 60.9173 -103.046 63.8611C-102.92 67.404 -103.157 68.8051 -103.322 66.8581C-103.405 65.7055 -103.508 64.5334 -103.616 63.4069ZM-76.6401 645.813C-77.7005 646.819 -78.6278 647.649 -78.6733 647.656C-78.7443 647.689 -77.7071 646.507 -76.3837 644.992C-75.1058 643.484 -74.3438 642.543 -74.5158 643.039C-74.7588 643.567 -75.5997 644.788 -76.6401 645.813ZM-87.0831 484.95C-59.1375 549.853 -38.3181 598.303 -77.7163 644.201C-80.4451 647.355 -80.6901 647.167 -78.3969 643.741C-48.9725 600.354 -69.0504 549.667 -93.8511 487.172C-118.872 424.104 -150.028 345.605 -138.464 249.459C-132.695 201.4 -123.39 163.53 -115.909 133.116C-111.225 114.11 -107.242 97.7365 -105.156 83.186C-104.64 79.5044 -104.207 77.7836 -104.078 79.2878C-103.929 80.8115 -104.153 85.0329 -104.694 88.7406C-106.734 102.724 -110.301 118.432 -114.413 136.414C-121.343 166.702 -129.955 204.381 -135.063 251.045C-145.732 348.829 -113.206 424.328 -87.0831 484.95ZM-99.5845 90.4126C-99.6548 91.722 -99.7196 92.9858 -99.8099 94.2758C-100.053 97.9175 -100.471 99.7033 -100.581 98.2186C-100.715 96.76 -100.405 92.9292 -100.01 89.6909C-99.5953 86.472 -99.3925 86.8232 -99.5845 90.4126ZM-102.231 51.1316C-100.174 60.0815 -99.9135 70.0332 -100.835 81.0761C-101.124 84.7244 -101.566 87.2529 -101.605 86.6538C-101.626 86.2761 -101.672 85.9245 -101.698 85.5923C-101.771 84.9087 -101.824 84.2445 -101.877 83.5803C-101.966 82.4733 -101.695 78.6035 -101.452 74.9618C-100.836 66.4275 -101.125 58.5406 -102.489 51.2366C-103.107 47.8775 -103.011 47.8186 -102.231 51.1316ZM-102.866 92.9755C-102.734 94.636 -103.06 98.9618 -103.712 102.663C-105.64 113.898 -108.205 126.144 -111.081 139.668C-117.443 169.694 -125.396 207.097 -129.877 252.281C-139.726 351.938 -105.626 424.788 -78.2696 483.348C-50.1781 543.391 -28.8433 589.079 -66.7856 635.122C-69.4546 638.335 -72.2142 640.642 -72.762 640.924C-73.3298 641.186 -71.5649 638.979 -69.2718 635.553C-39.2847 591.031 -60.0553 542.73 -85.4118 483.877C-111.461 423.379 -143.903 348.114 -133.253 250.669C-128.182 204.122 -119.555 166.508 -112.631 136.266C-109.289 121.666 -106.306 108.553 -104.229 96.6465C-103.583 92.9906 -103.024 91.3411 -102.866 92.9755ZM103.264 338.904C113.933 292.771 123.715 250.621 141.516 216.504C143.382 212.916 143.513 212.942 141.798 216.575C125.631 250.654 118.074 291.404 109.802 336C102.996 372.788 95.9482 410.82 83.4201 450.953C51.6737 552.401 -16.2671 628.409 -48.917 664.921C-53.6214 670.178 -57.2942 674.298 -60.0341 677.544C-62.743 680.717 -63.8639 680.388 -61.9067 676.787C-57.3443 668.482 -47.9748 656.092 -36.6452 641.176C-5.27101 599.744 47.2582 530.379 75.3967 444.242C87.3825 407.459 95.4735 372.588 103.264 338.904ZM142.534 209.434C122.347 244.997 111.98 289.742 100.555 338.964C92.7702 372.603 84.7103 407.401 72.7667 444.022C44.8113 529.572 -7.47726 598.611 -38.7183 639.867C-49.47 654.071 -57.9841 665.306 -62.9102 673.664C-64.9927 677.193 -66.0615 677.17 -64.8494 673.454C-60.6681 660.949 -47.9568 642.023 -31.4345 617.478C-1.55513 573.106 39.3484 512.295 64.8685 437.382C75.7727 405.258 84.2592 374.653 92.4271 345.013C107.393 290.928 120.213 244.547 142.218 209.278C144.4 205.846 144.551 205.891 142.534 209.434ZM-33.706 616.332C-48.643 638.495 -60.5391 656.227 -66.0012 669.165C-67.546 672.863 -68.4298 672.97 -67.7322 669.262C-64.5751 652.337 -49.2678 627.32 -29.1779 594.571C-2.34125 550.8 31.0666 496.348 54.4058 430.534C63.5648 404.669 71.5237 379.673 79.2007 355.525C98.3931 295.155 114.818 243.567 140.761 206.58C143.114 203.212 143.259 203.303 141.051 206.761C117.734 243.454 104.393 291.725 89.6583 345.015C81.476 374.59 73.0152 405.169 62.1476 437.175C36.7541 511.599 -3.97972 572.117 -33.706 616.332ZM112.351 335.784C120.377 292.479 127.715 252.791 142.949 219.587C144.619 215.961 144.73 215.967 143.21 219.638C129.172 253.295 123.751 292.456 117.87 335.201C112.463 374.428 106.844 415.029 94.0791 457.84C59.2472 574.342 -30.1514 659.154 -57.6303 681.269C-60.8723 683.871 -61.6849 683.026 -59.0215 679.859C-55.8368 676.079 -51.5461 671.286 -47.1734 666.368C-14.3449 629.674 53.9133 553.261 85.905 451.083C98.5008 410.761 105.559 372.637 112.351 335.784ZM-57.0804 636.279C-62.6891 646.574 -66.9479 655.685 -69.3512 663.495C-70.4979 667.224 -71.16 667.344 -70.7806 663.682C-70.2766 658.815 -69.0007 653.477 -67.0893 647.687C-65.8573 643.991 -62.0223 638.906 -59.074 635.966C-58.8954 635.783 -58.6968 635.62 -58.5183 635.437C-55.6099 632.458 -55.1288 632.724 -57.0804 636.279ZM-30.7441 580.128C-30.6217 579.125 -30.4739 578.095 -30.3772 577.118C-30.197 575.457 -29.8238 573.678 -29.4842 573.09C-29.289 572.771 -29.0881 572.405 -28.8873 572.04C-5.95279 531.707 22.6058 481.503 43.8975 423.693C50.3081 406.271 56.3671 389.168 62.223 372.633C86.3658 304.439 106.986 246.28 136.856 206.747C139.359 203.425 139.479 203.542 137.146 206.929C111.562 244.267 95.2416 295.549 76.2323 355.332C68.5354 379.461 60.6275 404.404 51.4741 430.224C28.2759 495.614 -4.97334 549.864 -31.7478 593.49C-32.6364 594.919 -33.4796 596.342 -34.3428 597.745C-35.7662 600.081 -35.7037 599.019 -34.4461 595.296C-32.6924 590.067 -31.4443 584.957 -30.7441 580.128ZM40.8351 423.357C21.3435 476.29 -4.31977 522.89 -26.1082 561.33C-28.1253 564.873 -29.7032 564.812 -29.8749 561.276C-29.9266 560.052 -30.0038 558.854 -30.1265 557.662C-30.4147 554.165 -30.6565 551.02 -30.4191 550.537C-30.2692 550.224 -30.1249 549.957 -29.9552 549.663C-9.33539 511.102 14.056 467.388 33.3383 416.905L39.409 400.988C69.4156 322.238 96.4756 251.176 133.102 206.4C135.726 203.194 135.871 203.285 133.393 206.582C103.638 246.635 83.0857 304.605 59.1039 372.395C53.2791 388.858 47.2457 405.934 40.8351 423.357ZM30.1816 416.425C12.3865 462.95 -8.90929 503.76 -28.293 540.057C-30.2248 543.632 -32.2796 543.821 -33.13 540.541C-33.2418 540.176 -33.3083 539.805 -33.4201 539.441C-34.2961 536.187 -34.4122 532.194 -33.5245 530.407C-32.9476 529.337 -32.4161 528.274 -31.8591 527.184C-14.2611 492.716 5.63808 453.656 22.9265 410.005C56.2581 325.774 90.1756 246.811 133.111 201.202C135.959 198.165 136.099 198.302 133.39 201.475C94.897 246.725 67.1312 319.548 36.3233 400.476L30.1816 416.425ZM-35.0312 526.282C-35.3196 526.817 -35.5826 527.326 -35.8511 527.88C-36.3149 528.754 -37.5905 526.947 -38.8269 523.902C-38.8469 523.883 -38.8669 523.864 -38.8613 523.818C-40.0977 520.773 -39.8053 515.445 -38.0244 511.824C-36.8627 509.437 -35.7009 507.05 -34.4881 504.61C-19.6472 474.442 -2.81882 440.244 12.3727 403.171C43.202 327.929 82.9607 242.624 132.368 196.854C135.416 194.011 135.531 194.174 132.642 197.172C88.1333 243.234 53.5177 323.711 19.568 409.533C2.35283 452.949 -17.5098 491.892 -35.0312 526.282ZM-37.8221 503.754C-38.6898 505.56 -39.5775 507.348 -40.4396 509.109C-41.8954 512.077 -43.2745 514.048 -43.5204 513.501C-43.6833 513.189 -43.8462 512.877 -43.9835 512.539C-44.6639 511.16 -45.3498 509.827 -46.0301 508.448C-47.1847 506.198 -47.4752 502.903 -46.7128 501.044C-46.2411 499.922 -45.7496 498.82 -45.2979 497.679C-43.2939 493.511 -41.3099 489.324 -39.3314 485.182C-27.8302 461.348 -16.3178 437.424 -5.63595 413.352C-0.239573 401.319 4.69893 389.196 10.1097 377.228C15.4551 365.247 21.0621 353.318 26.8654 341.427C38.5119 317.684 51.134 294.18 65.5178 271.425C79.8905 248.762 95.9873 226.609 115.094 207.241C122.266 200.055 129.862 193.233 137.945 187.191C141.261 184.713 141.31 184.862 138.127 187.523C84.1885 232.186 41.5538 322.951 8.94008 402.575C-6.21483 439.53 -23.0121 473.658 -37.8221 503.754ZM163.8 162.827C162.948 163.22 162.122 163.587 161.27 163.981C157.67 165.672 157.025 164.736 159.774 161.601C177.497 141.495 193.172 122.247 205.076 104.268C207.369 100.842 207.822 100.977 206.021 104.578C198.256 120.474 187.573 137.043 174.933 154.099C172.449 157.441 167.434 161.221 163.8 162.827ZM179.494 154.418C190.814 139.033 200.551 123.991 208.018 109.438C209.885 105.85 210.303 105.901 208.96 109.591C203.246 125.142 194.986 141.066 184.888 157.235C182.72 160.733 179.497 163.914 177.796 164.499C176.075 165.064 175.402 164.356 175.515 162.884C175.633 161.366 177.03 157.779 179.494 154.418ZM120.3 334.868C126.008 293.537 131.259 255.588 144.314 222.859C145.787 219.194 145.898 219.2 144.555 222.891C132.404 256.451 128.927 294.499 125.164 335.994C121.434 377.215 117.532 419.85 104.764 464.699C71.9715 579.672 -17.2104 662.705 -52.8785 682.948C-54.5331 683.885 -55.9638 684.631 -57.2414 685.221C-59.6801 686.362 -58.9989 684.985 -55.7569 682.384C-26.0908 658.627 61.2405 575.574 96.4132 457.924C109.246 414.924 114.876 374.232 120.3 334.868ZM-71.3074 650.969C-72.0567 653.453 -72.664 655.871 -73.1494 658.205C-73.8925 661.919 -74.4946 662.097 -74.3881 658.475C-74.3698 656.86 -74.235 655.205 -74.0747 653.524C-73.7153 649.843 -72.9337 646.727 -72.7551 646.545C-72.5565 646.381 -72.2216 646.198 -71.9887 646.119C-71.7303 646.014 -70.984 645.569 -70.303 645.111C-69.6419 644.634 -70.2316 647.273 -71.3074 650.969ZM-81.951 644.507C-60.7264 604.648 -79.0403 554.509 -101.65 492.724C-125.913 426.365 -156.125 343.786 -143.573 248.146C-137.06 198.566 -127.037 160.479 -118.934 129.908C-110.756 98.8996 -104.536 75.1663 -106.235 54.6736C-106.523 51.1768 -106.902 48.9698 -106.758 49.6207C-106.672 50.0113 -106.585 50.4018 -106.524 50.8185C-106.141 54.8166 -105.78 58.9972 -105.41 63.2884C-105.102 82.3717 -110.586 104.833 -117.538 133.108C-125.024 163.567 -134.34 201.528 -140.146 249.705C-151.74 346.281 -120.516 424.949 -95.4459 488.166C-70.4735 551.084 -50.3524 601.967 -81.0885 644.941C-83.5524 648.302 -83.8627 648.101 -81.951 644.507ZM-97.2147 189.292C-100.414 197.039 -103.483 204.812 -106.586 212.5C-108.059 216.165 -108.841 216.168 -108.254 212.453C-105.298 193.699 -101.902 174.813 -98.8586 155.89C-98.2519 152.195 -97.4934 152.017 -97.1598 155.507C-96.5101 162.266 -95.7917 169.194 -95.0757 176.324C-94.722 179.834 -95.6954 185.62 -97.2147 189.292ZM-109.191 160.245C-111.545 173.513 -113.939 186.742 -116.191 199.906C-116.818 203.581 -116.889 203.614 -116.302 199.899C-114.079 185.687 -111.665 172.478 -109.302 160.238C-108.584 156.55 -108.539 156.543 -109.191 160.245ZM-28.3171 410.396C-40.5405 435.208 -49.6862 457.667 -56.5115 478.308C-57.7236 482.025 -59.9559 482.754 -61.5272 479.893C-62.1356 478.839 -62.6986 477.779 -63.3069 476.726C-64.8838 473.91 -65.1969 468.603 -63.9848 464.887C-57.2772 444.845 -48.4502 423.351 -37.0212 400.11C-17.8606 361.248 13.7226 321.398 48.9649 281.752C51.7337 278.637 52.2946 278.98 50.1922 282.491C41.3729 297.51 33.3919 312.43 26.2152 326.246C24.3489 329.834 20.7711 335.374 18.2274 338.658C-0.43918 362.845 -16.6984 386.881 -28.3171 410.396ZM212.395 114.375C203.698 147.99 183.803 182.256 159.138 216.459C156.719 219.814 155.507 219.498 156.719 215.782C160.877 203.101 167.061 191.02 176.168 180.416C176.919 179.567 177.383 178.693 177.639 177.871C178.09 176.372 179.586 172.525 181.879 169.099C194.188 150.545 204.437 132.225 211.488 114.306C212.937 110.667 213.36 110.673 212.395 114.375ZM254.062 218.194C267.959 208.591 280.029 177.709 291.521 144.424C292.799 140.721 293.111 140.72 292.141 144.468C281.392 186.491 269.979 212.35 258.07 221.393C247.835 229.161 238.891 234.769 230.281 240.194C209.582 253.209 189.701 265.747 154.071 306.189C151.303 309.304 149.079 310.144 148.957 308.034C148.911 306.764 148.845 305.475 148.824 304.179C148.794 303.69 148.815 303.149 148.786 302.661C148.78 301.788 150.901 298.499 153.604 295.372C186.227 257.251 204.593 247.062 224.99 235.793C233.897 230.863 243.093 225.755 254.062 218.194ZM258.872 222.687C271.096 213.441 282.686 187.601 293.498 145.793C294.463 142.091 294.735 142.051 294.083 145.752C287.225 185.348 275.757 215.134 262.764 225.926C252.852 234.162 244.275 240.231 235.211 246.641C214.463 261.344 193.15 276.465 154.569 318.771C151.761 321.847 149.433 322.076 149.309 319.249C149.23 316.416 151.337 311.583 154.066 308.43C190.168 267.224 210.121 254.654 230.845 241.612C239.565 236.194 248.516 230.54 258.872 222.687ZM263.703 227.2C278.809 214.643 289.368 181.316 295.468 147.767C296.14 144.085 296.392 144.026 296.013 147.688C292.113 186.089 281.481 217.814 267.544 230.491C257.424 239.698 248.259 246.928 238.55 254.597C218.119 270.732 195.443 288.606 155.296 330.76C152.427 333.778 150.023 334.084 149.877 331.44C149.756 328.77 151.886 324.114 154.695 321.038C193.763 278.033 215.177 262.807 235.996 248.071C245.092 241.59 253.694 235.494 263.703 227.2ZM268.514 231.693C282.476 218.99 293.196 188.014 297.439 150.458C297.844 146.77 298.071 146.737 297.919 150.366C296.345 187.822 286.79 220.599 272.273 235.108C260.658 246.684 249.749 256.14 237.143 267.055C218.675 283.014 194.635 303.843 156.049 342.163C153.081 345.083 150.601 345.468 150.463 342.935C150.345 340.421 152.544 335.933 155.413 332.916C196.062 290.128 218.864 272.123 239.412 255.949C249.107 248.215 258.343 240.952 268.514 231.693ZM160.844 412.174C159.387 413.507 157.924 414.886 156.466 416.219C154.05 418.454 152.222 417.332 152.303 413.736C152.369 411.554 152.408 409.398 152.422 407.268C152.483 403.653 153.082 400.206 153.862 399.487C154.316 399.063 154.769 398.638 155.248 398.187C172.888 381.878 191.139 364.942 208.29 348.615C307.395 254.142 357.737 210.049 405.687 178.064C409.112 175.794 409.235 176.067 406.018 178.643C380.528 199.28 355.913 223.732 319.994 259.4C294.766 284.479 263.367 315.678 222.086 355.042C202.31 373.859 181.225 393.337 160.844 412.174ZM152.377 390.79C152.357 388.575 152.291 386.367 152.225 384.159C152.144 380.61 154.518 375.425 157.566 372.583C169.299 361.684 181.088 350.687 192.432 339.868C296.034 241.109 356.056 200.394 409.141 171.893C412.678 169.987 412.781 170.241 409.381 172.485C359.727 204.897 309.2 248.86 206.582 346.692C189.431 363.019 171.231 379.903 153.586 396.257C153.387 396.421 153.209 396.604 153.01 396.767C152.69 397.016 152.412 394.346 152.377 390.79ZM115.352 471.618C87.4381 574.409 7.60518 656.21 -40.2185 681.478C-44.658 683.83 -48.6869 685.561 -52.2201 686.705C-55.9151 687.894 -57.3741 687.593 -55.5631 686.656C-54.5384 686.125 -53.4426 685.562 -52.2903 684.901C-16.2618 664.448 73.7962 580.637 106.85 464.798C119.692 419.713 123.585 376.968 127.352 335.629C130.914 296.337 134.208 260.152 144.905 228.081C146.163 224.358 147.207 221.652 147.103 221.959C147.055 222.167 147.007 222.376 146.939 222.565C135.351 257.185 133.633 295.827 131.762 338.098C129.91 380.949 127.951 425.226 115.352 471.618ZM-77.7132 654.616C-77.9624 657.027 -78.2631 657.295 -78.4109 655.211C-78.5588 653.127 -78.2487 651.133 -77.8516 650.806C-77.4346 650.499 -77.4441 652.225 -77.7132 654.616ZM-103.356 493.713C-80.5998 555.947 -62.2173 606.255 -84.3387 645.595C-86.3558 649.138 -86.777 648.93 -85.4341 645.24C-72.189 609.482 -88.5021 561.246 -108.658 501.857C-132.634 431.133 -162.517 343.107 -148.733 246.884C-141.426 195.733 -130.629 157.533 -121.956 126.855C-113.155 95.6891 -106.525 72.254 -108.549 51.4953C-108.883 48.0051 -108.767 47.9657 -108.291 51.3903C-105.428 72.049 -111.84 96.2584 -120.699 129.919C-128.788 160.556 -138.862 198.695 -145.372 248.431C-157.968 344.436 -127.693 427.23 -103.356 493.713ZM-110.384 502.826C-90.159 562.384 -73.826 610.639 -87.3825 645.838C-88.8164 649.542 -89.4051 649.427 -88.753 645.725C-83.0729 614.881 -97.0745 570.943 -114.285 516.88C-138.761 440.003 -169.253 344.339 -153.939 245.629C-145.766 192.873 -134.182 154.625 -124.872 123.855C-116.012 94.5836 -109.362 72.4447 -110.46 52.3346C-110.677 48.805 -110.515 48.7589 -110.202 52.2297C-108.31 72.2463 -114.763 95.1401 -123.71 126.776C-132.395 157.544 -143.222 195.816 -150.566 247.085C-164.334 343.732 -134.409 431.952 -110.384 502.826ZM-116.005 517.804C-98.8034 571.756 -84.8562 615.589 -90.5006 645.958C-91.1982 649.666 -91.9655 649.734 -92.0209 646.158C-92.6079 621.852 -103.548 586.314 -116.974 542.785C-142.183 461.11 -176.662 349.252 -159.099 244.368C-149.975 190.039 -137.63 151.769 -127.699 121.043C-118.883 93.7714 -112.223 73.0197 -112.372 53.7341C-112.408 50.1779 -112.266 50.1123 -112.139 53.6552C-111.248 72.8997 -117.704 94.3606 -126.606 123.795C-135.922 154.611 -147.517 192.95 -155.706 245.843C-171.065 344.917 -140.53 440.776 -116.005 517.804ZM-118.714 543.689C-105.463 586.639 -94.6348 621.812 -93.8326 645.818C-93.7063 649.361 -94.4759 649.63 -95.3263 646.35C-98.7082 633.248 -104.436 615.764 -111.274 594.746C-139.323 508.714 -186.268 364.678 -164.273 243.041C-154.153 187.133 -140.997 148.991 -130.407 118.347C-121.648 93.0108 -115.012 73.562 -114.284 55.1335C-114.158 51.5312 -114.036 51.4462 -114.031 55.0741C-114.089 73.4941 -120.535 93.5873 -129.357 120.904C-139.318 151.703 -151.715 190.024 -160.855 244.49C-178.494 349.811 -143.952 461.883 -118.714 543.689ZM-112.979 595.734C-106.4 615.939 -100.878 632.916 -97.4429 645.763C-96.5669 649.018 -97.2169 649.404 -98.7428 646.536C-115.052 615.3 -137.928 553.867 -154.271 485.544C-170.016 419.642 -185.422 323.856 -169.453 241.76C-158.283 184.377 -144.296 146.383 -133.072 115.848C-124.96 93.8087 -118.575 76.4123 -116.597 59.8169C-116.172 56.1486 -116.055 56.1091 -116.369 59.7836C-117.863 76.8009 -124.121 94.9851 -132.105 118.17C-142.706 148.905 -155.899 187.164 -166.055 243.189C-188.085 365.302 -141.077 509.553 -112.979 595.734ZM-90.6861 77.3077C-90.6959 73.7254 -90.7967 70.1564 -91.0139 66.6268C-91.2312 63.0971 -90.2774 62.5993 -88.8225 65.5C-80.2959 82.5532 -73.1915 101.382 -67.1448 123.21C-66.2688 126.464 -65.9983 129.74 -66.5874 130.543C-66.9357 131.019 -67.2641 131.515 -67.6124 131.992C-69.971 135.405 -72.1787 138.864 -74.3266 142.381C-76.449 145.872 -78.4982 146.014 -79.0902 142.629C-82.4542 122.604 -85.8279 105.223 -89.3952 89.7966C-90.1037 86.4508 -90.6762 80.8901 -90.6861 77.3077ZM-81.3038 442.668C-81.9243 441.348 -82.5647 440.008 -83.1597 438.661C-84.5181 435.702 -84.5217 430.237 -83.1788 426.546C-77.2764 410.363 -70.3229 393.981 -62.1418 377.42C-19.5207 290.98 84.8966 198.171 161.095 130.431C174.769 118.263 187.343 107.062 198.472 96.9013C201.535 94.1241 201.9 94.4292 199.191 97.6026C178.852 121.586 150.917 149.278 119.849 180.138C54.7503 244.732 -19.0088 317.917 -53.4687 387.777C-62.6928 406.484 -70.2423 424.274 -76.4067 441.325C-77.6986 444.963 -79.8999 445.621 -81.3038 442.668ZM156.961 226.072C183.204 190.654 204.974 155.105 215.242 119.962C216.343 116.239 216.701 116.232 216.075 119.907C208.76 162.884 184.251 205.508 153.853 247.537C151.435 250.891 149.683 250.61 150.108 246.942C150.441 244.205 150.795 241.488 151.259 238.777C151.866 235.082 154.477 229.414 156.961 226.072ZM218.366 228.407C200.106 237.169 184.833 244.508 161.913 269.339C159.084 272.396 158.793 272.214 161.172 268.82C166.005 261.954 170.694 254.997 175.237 247.949C177.465 244.51 181.897 239.651 185.362 237.42C194.38 231.577 202.841 228.101 212.286 224.256C221.426 220.523 231.833 216.292 244.471 209.136C255.018 203.204 265.439 183.47 277.514 160.606C280.829 154.297 284.245 147.885 287.798 141.452C289.749 137.897 290.051 137.987 288.446 141.626C287.308 144.189 286.189 146.772 285.056 149.289C272.524 177.731 260.671 204.64 248.658 212.152C236.981 219.481 227.519 224.023 218.366 228.407ZM182.746 235.988C183.464 234.853 186.074 231.582 188.357 228.605C190.64 225.629 195.311 221.922 198.972 220.648C201.139 219.905 203.331 219.137 205.635 218.374C215.183 215.142 226.032 211.495 239.57 204.656C248.654 200.102 257.78 185.128 269.352 166.211C274.434 157.853 279.978 148.822 286.056 139.803C288.369 136.396 288.645 136.513 286.694 140.068C282.884 146.964 279.267 153.742 275.921 160.122C264.021 182.647 253.776 202.041 243.893 207.652C231.356 214.704 221.066 218.896 211.971 222.622C203.444 226.086 195.692 229.235 187.644 234.085C184.176 236.16 182.047 237.143 182.746 235.988ZM289.256 239.748C329.976 211.217 372.265 186.108 415.875 165.555C416.559 165.253 417.218 164.978 417.877 164.702C419.007 164.224 417.017 165.343 413.415 167.236C358.875 195.95 298.147 236.231 191.032 338.348C180.142 348.743 168.755 359.367 157.476 369.841C154.428 372.683 151.842 372.098 151.696 368.535C151.593 366.445 151.491 364.354 151.409 362.283C151.237 358.747 153.659 353.712 156.801 351.013C200.878 313.256 241.577 273.171 289.256 239.748ZM518.858 247.889C518.643 248.189 518.427 248.49 518.192 248.771C484.456 294.378 427.995 370.724 358.294 435.521C346.99 446.021 335.46 457.629 324.314 468.845C320.926 472.274 317.519 475.684 314.111 479.094C293.845 499.371 269.905 522.492 245.897 540.493C182.463 588.135 119.937 620.279 69.5345 643.438C65.9147 645.11 62.7374 646.448 62.4247 646.449C62.2229 646.456 62.0666 646.456 61.8648 646.464C56.8483 646.771 50.4169 647.331 43.2391 648.335C39.562 648.828 39.1424 647.142 42.2304 644.339C47.2294 639.778 52.2164 634.95 57.1258 629.842C60.0143 626.844 65.1739 622.797 68.7162 620.846C115.734 595.046 171.829 563.461 228.53 522.515C249.698 507.303 270.653 486.321 292.827 464.13L297.198 459.773C313.93 443.037 327.949 429.318 342.794 417.987C394.277 378.632 437.94 331.999 472.981 294.555C488.255 278.233 502.058 263.538 513.963 252.144C517.017 249.256 519.232 247.387 518.858 247.889ZM37.8486 659.404C60.3083 655.203 85.0272 655.912 110.087 660.782C113.424 661.437 113.361 661.58 109.957 661.115C97.5048 659.419 84.3753 658.695 70.0688 659.935C62.0209 659.835 54.0483 660.217 46.2363 661.112C35.9492 662.347 26.0655 664.487 16.6816 667.471C12.9865 668.661 11.6193 668.704 13.5713 667.343C15.5233 665.983 20.0969 663.814 23.7753 662.761C28.3142 661.425 33.0016 660.337 37.8486 659.404ZM32.1699 670.09C96.657 658.132 176.3 680.826 237.203 751.93C256.77 774.761 273.653 798.902 289.986 822.251C322.597 868.843 351.784 910.561 390.581 923.077C393.762 924.09 393.68 924.214 390.457 923.364C346.38 911.664 310.5 862.952 270.308 808.396C258.695 792.667 246.745 776.406 234.151 760.485C194.957 710.935 146.035 680.367 92.7269 672.056C66.7195 667.996 40.1138 669.578 15.094 676.282C11.4013 677.27 11.3548 676.918 15.0177 675.442C16.3097 674.917 17.6017 674.392 18.8881 673.913C22.52 672.508 28.4906 670.784 32.1699 670.09ZM322.485 897.418C348.462 918.393 372.777 929.375 395.977 930.643C399.48 930.847 399.463 930.984 395.887 931.014C333.613 931.046 266.648 862.598 220.443 790.33C137.005 659.759 49.8557 679.958 -20.1714 696.153C-20.768 696.285 -21.3901 696.443 -21.9612 696.549C-22.9471 696.76 -20.7746 695.973 -17.0596 694.802C59.9049 670.784 146.208 668.695 223.447 781.626C260.779 836.197 292.26 873.009 322.485 897.418ZM391.763 928.212C328.692 920.678 267.873 843.021 225.004 780.39C185.117 722.049 140.094 689.725 87.3491 681.555C50.0999 675.756 14.382 683.038 -17.2774 693.109C-20.947 694.273 -20.979 693.986 -17.3415 692.536C38.1997 670.261 140.858 653.059 228.016 771.797L234.602 780.779C286.208 851.227 335.471 918.366 391.862 927.952C395.235 928.489 395.198 928.606 391.763 928.212ZM-11.564 687.817C-10.0368 687.011 -8.50973 686.206 -6.9682 685.465C23.7718 672.863 58.3554 668.658 91.97 673.869C144.997 682.109 193.622 712.541 232.623 761.85C245.197 777.752 257.147 794.014 268.74 809.723C309.656 865.292 346.133 914.792 391.586 925.64C394.86 926.438 394.823 926.556 391.461 925.927C336.087 915.7 287.285 849.165 236.196 779.426L229.59 770.425C145.993 656.541 48.0405 667.008 -9.45505 687.733C-13.1923 689.085 -14.1159 689.153 -11.564 687.817ZM218.866 791.546C265.165 863.957 332.321 932.49 395.09 932.788C398.661 932.804 398.619 932.967 395 933.16C372.041 934.321 346.356 926.697 319.841 910.505C281.209 886.922 244.298 847.767 215.863 800.25C139.382 672.492 65.625 684.484 0.523002 695.076C-5.4894 696.045 -11.3199 696.987 -17.0684 697.805C-20.7255 698.317 -22.9166 698.525 -21.9763 698.321C-21.3996 698.169 -20.8285 698.063 -20.2319 697.931C49.3206 681.783 135.893 661.736 218.866 791.546ZM-7.35353 683.864C-10.4797 685.15 -13.5462 686.494 -16.5582 687.942C-20.1836 689.659 -20.2667 689.425 -16.7444 687.454C-10.3497 683.899 -3.58135 680.759 3.41849 678.101C7.09585 676.69 7.12797 676.976 3.50819 678.648C-0.03505 680.241 -3.64054 681.977 -7.35353 683.864ZM318.683 912.13C347.111 929.476 374.718 937.088 399.129 934.639C402.77 934.264 402.747 934.446 399.105 935.024C339.363 944.317 257.748 892.748 211.373 810.157C139.203 681.657 75.2413 689.484 13.4058 697.091C2.93691 698.352 -7.19381 699.587 -17.1757 700.15C-20.7938 700.343 -20.735 700.043 -17.0524 699.505C-11.3494 698.694 -5.54426 697.778 0.428226 696.77C65.05 686.271 138.332 674.326 214.362 801.388C242.795 849.107 279.866 888.417 318.683 912.13ZM-18.2666 683.824C-18.86 684.112 -16.6905 682.25 -13.3055 679.941C-7.60811 676.062 -1.56829 672.67 4.79409 669.746C8.41387 668.075 9.31857 668.346 6.74774 670.021C4.17692 671.696 -0.915641 674.277 -4.50668 676.079C-6.6471 677.153 -8.77314 678.293 -10.8848 679.497C-14.3672 681.507 -17.6534 683.555 -18.2666 683.824ZM45.9285 662.904C47.2215 662.738 48.5089 662.617 49.8162 662.515C51.9619 662.314 50.7065 662.721 47.0049 663.598C43.0106 664.496 38.9031 665.589 34.688 666.832C31.0041 667.931 24.9992 669.57 21.3375 670.486C7.64558 674.011 -5.32833 679.155 -17.2406 685.847C-20.7884 687.844 -22.0771 688.525 -20.2216 687.223C-18.3461 685.941 -15.2807 684.239 -13.3843 683.334C-12.2487 682.81 -11.0819 682.214 -9.96074 681.624C-7.86577 680.557 -5.78522 679.424 -3.64809 678.193C-0.216672 676.235 5.48595 673.229 9.13781 671.844C20.6357 667.453 32.9702 664.44 45.9285 662.904ZM48.9927 664.876C56.2372 663.324 63.1477 662.313 69.8064 661.721C130.406 662.605 195.699 692.571 241.784 742.01C266.882 768.915 286.121 798.827 304.766 827.75C331.107 868.63 354.823 905.413 388.031 919.821C391.022 921.109 390.96 921.252 387.886 920.089C351.277 906.29 323.018 865.937 291.569 820.989C275.236 797.641 258.332 773.48 238.732 750.564C199.779 705.078 148.93 675.487 95.5505 667.208C79.7528 664.746 64.0885 664.304 49.0035 665.703C45.2777 666.046 45.2823 665.642 48.9927 664.876ZM316.835 919.411C347.401 935.526 377.168 941.165 402.289 936.193C405.974 935.453 405.971 935.655 402.304 936.616C391.925 939.343 380.477 940.211 368.248 939.243C307.543 934.275 241.149 885.319 206.761 820.149C137.631 689.055 78.8066 694.854 21.9061 700.44C8.66286 701.748 -4.08027 702.984 -16.825 702.585C-20.3643 702.498 -20.28 702.172 -16.6363 701.953C-6.92169 701.384 2.93625 700.189 13.0925 698.928C74.4733 691.389 137.94 683.589 209.705 811.387C235.852 857.894 274.904 897.251 316.835 919.411ZM9.96814 665.765C5.29153 667.68 0.768988 669.797 -3.55961 672.155C-7.10189 674.106 -7.17605 673.983 -3.64818 671.966C0.813494 669.432 5.43249 667.257 10.1634 665.445C13.8208 664.014 16.7862 663.133 16.7352 663.185C16.6642 663.218 13.6311 664.288 9.96814 665.765ZM50.9061 633.977C47.0704 637.785 43.2116 641.418 39.3494 644.895C36.2415 647.678 30.6886 650.372 27.0237 651.131C25.6031 651.429 24.1827 651.726 22.7566 652.069C19.0605 652.9 18.6419 651.573 21.7697 648.808C25.3003 645.672 28.8984 642.346 32.4878 638.909C35.4959 636.028 37.7332 633.976 37.845 634.341C37.9536 634.549 38.0933 634.685 38.3805 634.71C42.0484 635.025 45.8919 634.083 49.841 632.274C53.4608 630.602 53.8544 631.037 50.9061 633.977ZM-29.8968 679.41C-31.7748 681.812 -35.9497 685.289 -39.5904 686.583C-43.1147 687.837 -46.3927 688.72 -49.4044 689.25C-53.0782 689.899 -52.9439 689.162 -49.292 687.777C-46.3643 686.655 -43.0993 685.147 -39.6392 683.32C-37.3002 682.082 -34.8992 680.701 -32.4415 679.222C-28.9679 677.101 -27.9932 676.981 -29.8968 679.41ZM-155.985 486.422C-139.976 553.45 -117.654 613.933 -101.377 645.801C-99.9022 648.721 -100.396 649.107 -102.415 646.625C-150.808 586.817 -203.05 376.158 -174.599 240.564C-162.242 181.686 -147.487 143.982 -135.6 113.686C-127.684 93.4454 -121.39 77.3389 -118.797 61.7513C-118.191 58.0564 -118.074 58.017 -118.59 61.6986C-120.738 77.6691 -126.9 94.5177 -134.71 115.729C-145.959 146.29 -159.957 184.375 -171.175 241.967C-187.243 324.324 -171.779 420.37 -155.985 486.422ZM-78.0643 161.137C-74.8498 154.732 -71.3593 148.443 -67.7379 142.179C-66.2036 139.849 -64.5839 137.552 -62.8078 135.254C-61.4822 133.537 -60.0912 131.833 -58.7456 130.136C-56.5048 127.322 -53.9366 123.654 -52.8693 122.042C-51.7766 120.404 -52.5311 122.015 -54.6136 125.545C-71.7717 154.573 -81.7467 180.356 -91.1004 204.704C-97.2111 220.582 -103.15 235.965 -110.771 251.235C-112.572 254.835 -113.838 254.774 -113.458 251.112C-113.248 249.021 -113.018 246.949 -112.762 244.851C-112.337 241.183 -110.585 235.237 -109.001 231.579C-108.659 230.789 -108.323 230.046 -108.006 229.283C-106.422 225.624 -103.396 219.851 -101.464 216.276C-92.1363 199.099 -86.7497 180.37 -78.7001 162.507C-78.4627 162.024 -78.2762 161.594 -78.0643 161.137ZM19.2904 79.1942C18.0822 87.4567 17.4451 95.6134 16.9955 103.698C14.7169 119.643 13.7103 135.043 12.7515 150.235C10.4525 186.678 8.03127 224.124 -12.7124 268.28C-14.4279 271.913 -18.1111 277.402 -20.7944 280.549C-31.2527 292.896 -41.2666 305.627 -50.5288 318.785C-52.9073 322.179 -53.2886 322.01 -51.3115 318.429C-47.9907 312.433 -44.4281 306.47 -40.5529 300.505C-4.5523 245.114 0.128017 200.126 4.64486 156.662C7.21479 131.916 9.91128 106.682 18.2614 79.2103C19.3826 75.5074 19.8516 75.506 19.2904 79.1942ZM-9.67775 265.731C-8.74232 263.735 -8.76784 263.761 -9.67775 265.731C-10.6132 267.727 -10.5677 267.72 -9.67775 265.731ZM-6.60167 258.629C-6.00017 257.175 -5.98021 257.194 -6.60167 258.629C-7.18322 260.103 -7.18322 260.103 -6.60167 258.629ZM34.9243 225.68C35.0008 225.602 35.0417 225.999 35.0005 226.52C34.9815 226.859 34.9426 227.178 34.9237 227.517C34.907 227.654 34.6797 227.687 34.6964 227.55C34.7353 227.231 34.7487 226.938 34.7621 226.645C34.7723 226.195 34.8477 225.759 34.9243 225.68ZM46.5961 215.283C49.5156 212.213 52.4495 209.209 55.3379 206.211C56.9229 204.747 58.488 203.264 60.1185 201.794C82.5273 181.159 105.777 161.498 129.444 142.449C132.686 139.847 136.984 136.643 139.092 135.282C140.352 134.471 141.612 133.66 142.892 132.868C152.589 126.769 162.351 120.683 171.97 114.304C175.395 112.034 175.637 112.424 172.509 115.189C168.052 119.155 163.466 123.253 158.708 127.487C82.1065 195.6 -22.8354 288.866 -66.0134 376.395C-73.4256 391.411 -79.8631 406.306 -85.4567 421.056C-86.8451 424.753 -88.7869 425.664 -89.7917 423.101C-90.4043 421.533 -90.9715 419.958 -91.5387 418.384C-91.8024 417.616 -92.0661 416.848 -92.3098 416.1C-92.734 414.818 -92.1537 410.791 -90.8762 407.087C-79.3616 373.621 -59.8873 341.342 -36.8607 310.694C-34.3825 307.398 -30.5429 301.909 -28.0647 298.612C-24.0655 293.279 -19.5764 288.322 -14.871 283.424C-11.9826 280.425 -9.11182 277.206 -8.54041 276.182C-7.969 275.157 -5.3233 271.769 -2.57454 268.635C13.6286 250.005 30.4225 232.207 46.5961 215.283ZM215.49 152.359C210.869 171.222 203.288 190.003 193.998 208.339C186.466 221.401 177.984 233.84 169.134 244.899C168.397 245.814 169.018 247.134 170.136 246.388C170.695 246.015 171.279 245.616 171.844 245.198C172.774 244.524 171.746 246.735 169.472 250.181C164.145 258.351 158.542 266.405 152.858 274.381C150.44 277.736 148.475 277.553 148.536 273.938C148.576 271.782 148.635 269.645 148.7 267.463C148.827 263.861 151.009 258.233 153.473 254.872C184.518 212.659 210.22 169.771 219.356 126.326C220.144 122.605 220.443 122.539 220.058 126.246C219.143 134.846 217.658 143.553 215.49 152.359ZM201.896 206.915C202.835 205.076 206.581 202.915 210.249 201.954C216.151 200.419 222.624 198.42 229.934 195.604C237.166 192.867 245.115 182.611 255.202 169.646C262.351 160.448 270.611 149.833 280.509 139.337C283.377 136.32 285.886 133.87 286.054 133.778C286.221 133.686 284.156 136.161 281.572 139.406C273.586 149.42 266.655 159.393 260.616 168.093C250.105 183.248 241.815 195.211 234.405 198.49C223.689 203.237 214.746 206.09 206.761 208.399C203.128 209.445 200.958 208.755 201.896 206.915ZM402.644 211.637C400.319 216.972 398.088 222.449 395.75 228.077C385.077 254.097 372.59 284.369 343.733 322.543C341.255 325.84 336.261 329.997 332.684 331.864C327.921 334.307 323.158 336.75 318.42 339.168C314.849 340.989 314.189 339.988 316.958 336.873C358.376 290.344 377.474 255.656 393.489 226.482C396.357 221.269 399.112 216.252 401.845 211.418C403.907 207.868 404.229 207.978 402.644 211.637ZM293.204 354.255C293.903 354.018 294.582 353.762 295.28 353.526C296.425 353.112 294.455 354.251 290.913 356.202C288.111 357.754 285.344 359.391 282.623 361.02C277.448 363.726 272.445 366.854 267.645 370.333C266.053 371.484 264.501 372.674 262.97 373.883C247.213 385.191 232.335 398.072 218.374 412.052C198.127 432.348 176.956 450.159 155.398 468.205C152.216 470.866 151.464 471.356 153.701 469.305C155.057 468.076 156.392 466.828 157.748 465.6C190.632 435.594 224.596 404.602 255.848 374.79C326.99 306.96 358.295 262.245 383.485 226.309C389.785 217.302 395.624 208.967 401.594 201.017C404.072 197.72 404.388 197.875 402.286 201.386C397.747 208.948 393.468 216.764 388.987 224.944C372.118 255.633 351.84 292.486 305.152 343.056C302.324 346.112 298.489 349.361 296.613 350.285C295.492 350.874 294.351 351.444 293.229 352.034C292.043 352.61 291.671 354.748 293.204 354.255ZM518.287 254.222C492.254 304.034 446.978 371.958 390.044 438.45C376.361 453.621 362.154 468.33 347.443 482.599C338.733 491.039 329.739 499.253 320.565 507.291C317.463 510.03 312.044 513.823 308.476 515.801C237.882 555.328 166.605 601.743 116.023 642.13C112.806 644.706 110.089 646.85 109.992 646.909C109.896 646.968 109.768 647.099 109.652 647.138C109.555 647.197 109.504 647.249 109.499 647.295C109.493 647.34 109.462 647.412 109.411 647.464C109.36 647.517 109.403 647.712 109.537 647.894C109.671 648.076 106.95 647.869 103.515 647.475C94.257 646.499 84.8265 646.019 75.244 646.053C71.668 646.083 71.7073 644.846 75.3271 643.174C124.956 620.128 185.526 588.472 247.017 542.301C271.217 524.182 295.265 500.911 315.608 480.555C319.015 477.145 322.448 473.709 325.836 470.28C336.957 459.09 348.435 447.534 359.694 437.041C429.67 372.002 486.239 295.506 520.031 249.801C520.298 249.448 520.564 249.096 520.83 248.743C521.255 248.188 520.153 250.634 518.287 254.222ZM206.826 602.941C219.219 595.238 231.76 586.864 244.487 577.702C247.818 575.289 253.385 571.742 256.928 569.791C311.782 539.597 370.26 508.247 421.233 485.9C455.597 470.864 482.554 468.043 508.654 465.303C543.958 461.598 577.566 458.074 625.266 425.029C628.631 422.7 628.865 422.98 625.717 425.724C576.529 468.596 539.696 476.78 497.823 486.015C473.317 491.434 447.917 497.051 417.866 510.224C383.335 525.352 345.87 544.402 309.663 562.843C266.339 584.901 222.072 607.364 181.144 624.054C177.501 625.55 177.243 624.736 180.539 622.239C185.316 618.584 189.988 614.877 194.572 611.34C197.874 608.796 203.392 605.1 206.826 602.941ZM642.551 416.387C642.777 415.996 642.936 415.793 642.894 415.956C642.877 416.093 642.747 416.426 642.623 416.713C642.524 416.973 642.345 417.156 642.28 417.143C642.195 417.111 642.325 416.779 642.551 416.387ZM638.781 442.002C638.49 443.657 637.225 447.986 635.837 451.683C620.031 493.975 597.314 516.962 575.548 531.59C572.143 533.879 566.926 535.829 563.997 536.235C561.047 536.621 561.495 535.324 564.935 533.119C591.072 516.329 617.791 490.562 636.591 445.682C638.175 442.024 639.092 440.366 638.781 442.002ZM141.866 669.15C180.021 681.805 217.064 703.582 246.334 732.161C276.182 761.306 297.155 797.505 315.675 829.471C337.088 866.456 356.505 899.859 384.887 915.935C387.683 917.542 387.627 917.64 384.723 916.183C354.014 900.693 331.355 865.502 306.272 826.567C287.633 797.598 268.334 767.628 243.176 740.664C203.329 697.929 149.107 669.637 95.8916 662.029C92.4677 661.544 92.5609 661.329 96.0381 661.559C112.295 662.632 127.197 665.852 141.866 669.15ZM367.653 941.01C380.078 942.016 391.753 941.115 402.34 938.336C406.053 937.367 406.051 937.569 402.401 938.752C391.498 942.295 379.185 943.849 365.76 943.347C313.046 941.333 239.398 904.995 202.251 830.037C135.482 695.327 80.7874 699.851 27.8747 704.226C13.5737 705.421 -1.05994 706.597 -15.8833 704.934C-19.3184 704.54 -19.194 704.253 -15.6747 704.321C-3.13501 704.571 9.3808 703.368 21.6293 702.16C78.0807 696.595 136.45 690.862 205.181 821.209C239.7 886.763 306.525 936.037 367.653 941.01ZM-35.1002 688.211C-35.5353 689.216 -38.8312 690.795 -42.4684 691.327C-43.8323 691.526 -45.1651 691.654 -46.427 691.749C-50.0508 691.987 -49.8931 691.427 -46.2114 690.53C-44.487 690.121 -42.7261 689.595 -40.8886 688.99C-37.2279 687.716 -34.6907 687.233 -35.1002 688.211ZM-86.0547 660.405C-85.5252 661.739 -85.6527 661.869 -86.5227 660.764C-87.4183 659.686 -87.9214 658.684 -87.6008 658.436C-87.2548 658.161 -86.5843 659.071 -86.0547 660.405ZM-106.483 646.48C-134.439 621.225 -159.562 561.734 -175.139 482.368C-192.193 395.334 -193.967 302.191 -179.779 239.283C-166.186 179.059 -149.965 140.133 -138.124 111.681C-130.389 93.1015 -124.167 78.1481 -121.047 63.536C-120.238 59.834 -120.147 59.8208 -120.845 63.5289C-123.561 78.4851 -129.653 94.0242 -137.266 113.437C-148.521 142.207 -163.976 181.625 -176.35 240.64C-204.504 374.892 -153.731 582.585 -105.647 645.664C-103.75 648.231 -104.107 648.597 -106.483 646.48ZM213.143 197.073C237.525 195.055 253.709 162.473 273.834 143.18C276.842 140.299 277.175 140.676 274.407 143.791C266.622 152.522 259.897 161.165 253.966 168.797C244.139 181.455 236.381 191.436 229.776 193.97C222.938 196.582 216.834 198.482 211.224 199.997C207.531 200.985 205.054 200.608 205.659 199.31C206.269 197.966 209.488 197.384 213.143 197.073ZM301.512 201.85C301.042 204.606 300.416 207.363 299.633 210.121C298.577 213.836 298.355 213.824 299.32 210.122C300.001 207.469 300.647 204.731 301.214 201.916C301.957 198.201 302.139 198.174 301.512 201.85ZM386.848 280.223C383.397 288.388 379.383 296.411 374.981 304.312C372.984 307.874 368.459 312.388 364.931 314.405C362.17 315.995 359.414 317.541 356.658 319.086C353.116 321.037 352.226 319.913 354.644 316.558C376.797 285.568 388.441 259.832 397.825 237.248C399.344 233.577 399.879 233.589 399.11 237.329C397.831 243.43 396.662 249.536 395.292 255.65C394.483 259.352 392.655 265.375 391.312 269.066C389.898 272.789 388.438 276.519 386.848 280.223ZM421.637 282.395C446.09 266.971 475.645 244.127 503.112 238.589C506.797 237.848 506.781 237.985 503.11 238.79C496.042 240.361 488.902 242.883 482.069 246.01C474.591 249.478 467.047 252.932 460.171 258.059C453.105 262.541 445.945 266.88 438.993 271.525C411.052 289.923 383.67 309.224 355.11 325.74C340.86 334.028 326.375 341.678 311.694 348.371C308.5 349.846 305.317 351.23 302.114 352.594C298.466 354.135 296.296 354.721 297.257 353.976C297.847 353.531 298.417 353.067 299.007 352.622C299.078 352.59 299.135 352.492 299.171 352.374C299.234 352.231 302.192 351.037 305.875 349.58C346.765 333.21 383.033 306.763 421.637 282.395ZM278.644 551.542C296.54 537.525 313.899 522.78 330.172 507.791C333.24 504.968 338.579 501.096 342.156 499.23C345.545 497.435 348.954 495.66 352.318 493.892C355.894 492.025 359.033 491.006 359.664 490.959C359.976 490.958 360.331 490.794 360.748 490.487C361.364 490.016 361.954 489.571 362.549 489.081C363.537 488.309 367.252 486.221 370.843 484.419C389.3 475.136 407.214 466.648 424.193 459.239C461.861 442.734 489.29 443.742 515.806 444.726C546.723 445.873 578.598 447.037 626.905 420.556C630.447 418.604 630.63 418.936 627.259 421.31C578.605 455.771 544.699 459.362 509.057 463.094C482.776 465.861 455.591 468.715 420.898 483.889C373.468 504.642 319.687 533.178 268.295 561.342C264.753 563.294 264.541 562.832 267.803 560.25C271.386 557.419 275.025 554.49 278.644 551.542ZM522.268 438.787C549.108 438.402 575.247 437.896 603.288 427.659C607.329 426.195 613.318 424.132 619.807 421.638C623.484 420.227 623.556 420.553 619.96 422.4C575.711 445.085 545.59 444.001 516.341 442.901C489.603 441.904 461.998 440.878 423.884 457.559C409.191 463.985 393.773 471.234 377.904 479.064C374.313 480.866 374.092 480.293 377.423 477.88C396.349 464.205 415.25 453.11 437.564 447.541C466.346 440.376 494.536 439.167 522.268 438.787ZM597.408 524.25C594.835 526.486 592.24 528.545 589.692 530.396C586.356 532.854 581.176 534.687 578.229 534.871C575.282 535.056 575.647 533.524 579.017 531.15C598.33 517.598 618.113 497.257 633.119 462.81C634.703 459.151 635.167 459.195 634.137 462.885C628.884 481.795 620.25 500.058 603.629 515.524C603.002 516.086 602.652 516.764 602.554 517.383C602.355 518.465 600.555 521.506 597.408 524.25ZM615.498 552.225C602.963 559.634 591.174 568.794 579.908 578.975C576.82 581.778 576.74 581.7 579.708 578.78C581.815 576.703 583.981 574.684 586.147 572.665C594.994 564.562 604.647 556.992 614.866 551.556C616.027 551.005 617.182 550.5 618.338 549.995C620.309 549.214 618.986 550.169 615.498 552.225ZM335.042 754.113C322.061 756.391 309.01 759.419 295.992 763.092C292.313 764.144 288.127 763.323 286.663 761.23C285.179 759.118 286.934 756.442 290.649 755.272C307.468 749.901 326.483 744.837 349.177 740.914C435.95 725.81 493.748 665.06 540.199 616.25C548.345 607.668 556.205 599.418 563.888 591.71C566.836 588.77 566.896 588.829 564.027 591.846C558.265 597.908 552.622 604.086 547.065 610.296C522.976 637.202 499.09 664.458 471.922 688.051C458.39 699.795 444.095 710.643 429.128 719.864C414.182 729.104 398.562 736.719 382.707 742.419C366.867 748.184 350.966 751.695 335.042 754.113ZM338.358 859.887C353.945 882.762 372.026 910.267 399.968 920.249C403.092 921.36 403.041 921.412 399.906 920.392C363.914 908.676 341.941 870.786 317.298 828.248C298.738 796.243 277.711 759.94 247.742 730.679C223.281 706.794 193.329 687.654 161.882 674.556C158.865 673.295 157.848 672.66 159.68 673.019C161.531 673.398 165.486 674.657 168.509 675.872C204.335 690.592 235.09 713.221 260.322 742.503C291.13 778.249 311.794 820.832 338.358 859.887ZM197.645 839.983C132.837 700.91 81.6051 704.681 32.0846 708.337C16.6947 709.489 0.952302 710.603 -15.2566 707.485C-18.5928 706.83 -18.4741 706.589 -15.008 706.911C-0.580415 708.341 13.6042 707.186 27.5215 706.025C79.9851 701.67 134.185 697.174 200.575 831.155C237.913 906.556 312.119 943.081 365.186 945.134C378.741 945.661 391.19 944.087 402.295 940.538C405.99 939.348 406.033 939.543 402.356 940.954C390.949 945.332 377.78 947.683 363.442 947.718C306.117 947.99 230.776 911.071 197.645 839.983ZM-50.9082 702.685C-58.9555 700.748 -68.4948 700.978 -72.2855 693.244C-75.0013 687.683 -76.9851 681.612 -79.122 675.698C-80.2619 672.594 -81.0696 670.427 -80.8269 670.817C-80.6784 671.065 -80.5498 671.292 -80.3757 671.513C-77.9546 676.378 -74.8405 681.052 -70.9622 685.502C-68.8662 687.906 -66.852 689.516 -66.6224 689.28C-66.4183 689.071 -66.0867 688.732 -65.9081 688.549C-65.7295 688.366 -65.7606 688.438 -65.9503 688.712C-66.14 688.986 -66.0879 689.292 -65.8717 689.35C-65.6555 689.408 -65.2997 689.602 -65.0292 689.764C-64.864 689.875 -64.6988 689.985 -64.5081 690.069C-59.1691 693.343 -51.8579 694.357 -43.0489 693.159C-39.3718 692.666 -36.8006 693.186 -37.1516 694.783C-37.5479 696.386 -37.5152 697.949 -37.44 698.431C-37.3824 698.691 -37.3759 699.004 -37.4093 699.278C-37.4315 699.46 -37.4793 699.669 -37.547 699.858C-37.6147 700.047 -37.688 700.282 -37.7756 700.451C-37.9055 700.784 -38.1318 701.175 -38.2394 701.325C-38.347 701.476 -38.4546 701.626 -38.5256 701.659C-38.5966 701.691 -38.7241 701.822 -38.8717 701.933C-39.0192 702.044 -39.3555 702.788 -39.8879 703.493C-40.4204 704.198 -40.9904 704.662 -40.976 704.727C-40.9417 704.811 -41.1426 705.177 -41.349 705.588C-41.5554 705.999 -41.8536 706.065 -42.1584 705.818C-42.4832 705.552 -43.4668 705.561 -44.1553 705.348C-44.9148 705.168 -47.6341 703.483 -50.9082 702.685ZM-533.216 904.694C-520.143 903.321 -507.204 904.318 -493.77 899.98C-483.986 896.825 -475.095 892.39 -466.32 887.075C-462.826 884.974 -461.997 884.763 -464.613 886.445C-466.162 887.433 -467.752 888.382 -469.361 889.312C-470.925 890.235 -472.434 891.261 -473.949 892.334C-476.446 894.133 -478.467 894.966 -479.196 894.714C-479.583 894.591 -480.088 894.71 -480.679 895.155C-495.788 907.197 -509.732 920.479 -524.28 933.223C-530.428 938.601 -539.252 946.521 -547.573 949.574C-551.245 950.94 -556.377 949.45 -558.779 947.36C-567.881 939.238 -568.773 930.252 -561.469 920.337C-559.011 917.021 -554.024 913.111 -550.956 911.207C-547.883 909.257 -542.694 906.617 -539.31 905.787C-537.262 905.285 -535.231 904.921 -533.216 904.694ZM-134.103 711.33C-125.631 695.309 -119.524 679.274 -106.969 666.217C-104.081 663.219 -101.471 661.225 -101.468 661.381C-101.465 661.538 -100.516 661.085 -99.4785 661.18C-98.9041 661.23 -98.3719 661.444 -97.8931 661.911C-97.5339 662.262 -97.3367 662.659 -97.2304 663.069C-97.0577 663.85 -95.7687 665.364 -94.1592 666.629C-92.5496 667.895 -91.6497 669.488 -91.703 669.742C-91.7452 669.905 -91.7874 670.068 -91.7841 670.224C-91.9922 672.114 -92.1291 673.97 -92.2151 675.775C-92.3404 678.817 -92.3789 681.331 -92.4754 681.39C-92.5974 681.475 -92.4898 684.439 -93.0311 688.146C-93.1178 688.674 -93.2099 689.247 -93.3221 689.801C-94.0396 693.49 -95.3703 696.529 -95.3758 696.575C-95.3614 696.64 -96.5755 699.64 -98.4218 703.247C-107.156 720.136 -121.386 736.865 -134.422 746.543C-139.034 749.949 -143.673 753.383 -148.365 756.712C-151.716 759.105 -157.106 763.029 -160.551 765.28C-165.063 768.224 -171.204 772.078 -175.935 774.808C-179.443 776.844 -185.055 779.837 -188.429 781.697C-190.444 782.843 -192.474 783.923 -194.523 784.984C-204.249 790.035 -213.144 795.792 -222.867 798.804C-226.556 799.948 -232.516 801.581 -236.164 803.122C-241.318 805.287 -246.451 807.47 -251.525 809.713C-271.479 818.454 -291.43 827.351 -311.363 836.469C-314.983 838.14 -320.918 840.307 -324.602 841.406C-329.601 842.853 -334.606 844.346 -339.61 845.84C-343.32 846.964 -347.144 848.845 -348.419 849.233C-349.694 849.621 -350.622 849.174 -350.739 849.214C-350.835 849.273 -353.923 850.239 -357.618 851.429C-382.046 859.323 -406.473 868.493 -429.843 880.533C-436.275 883.288 -443.072 887.216 -449.743 891.573C-471.41 904.103 -492.715 917.7 -513.912 931.505C-517.331 933.73 -517.519 933.444 -514.371 930.699C-509.273 926.235 -504.251 921.492 -499.358 916.879C-496.33 914.018 -491.073 909.912 -487.6 907.791C-470.993 897.569 -454.234 887.75 -437.387 878.679C-370.962 842.942 -301.675 830.618 -234.708 797.041C-234.374 796.858 -234.044 796.72 -233.709 796.536C-233.161 796.255 -232.326 795.08 -231.319 794.328C-230.78 793.935 -230.141 793.641 -229.343 793.501C-228.959 793.468 -228.524 793.382 -228.135 793.302C-227.448 793.157 -224.035 791.538 -220.473 789.607C-203.204 780.183 -185.815 769.04 -170.735 755.592C-167.627 752.808 -165.225 750.508 -165.256 750.58C-165.287 750.652 -164.318 749.659 -163.073 748.424C-161.803 747.163 -160.737 746.111 -160.706 746.04C-160.695 745.948 -160.052 745.25 -159.332 744.472C-158.873 744.002 -158.413 743.532 -157.994 743.023C-149.112 733.168 -140.2 722.883 -134.103 711.33ZM-184.975 433.566C-188.734 406.52 -190.973 378.917 -191.082 350.688C-191.092 347.106 -191.046 347.099 -190.991 350.675C-190.548 377.443 -188.495 405.477 -184.904 433.533C-184.454 436.984 -184.5 436.991 -184.975 433.566Z" fill="#503131" fill-opacity="0.6"/>
</svg>
