<svg width="643" height="581" viewBox="0 0 643 581" fill="none" xmlns="http://www.w3.org/2000/svg">
<path opacity="0.8" d="M9.7429 431.006C2.44211 416.796 -3.30277 400.132 2.17282 385.113C11.2988 360.073 44.2122 354.837 64.2295 337.216C91.2484 313.492 90.65 271.428 83.3492 236.245C76.0185 201.033 64.2295 164.055 76.0783 130.099C78.8909 122.052 83.2893 114.124 90.5004 109.606C103.247 101.648 119.943 106.734 133.557 113.166C147.171 119.598 161.713 127.407 176.404 124.146C193.489 120.346 203.633 103.293 212.34 88.0956C229.275 58.4476 249.352 28.8595 279.064 11.9862C308.746 -4.91696 350.336 -5.276 373.825 19.5253C391.927 38.6723 398.929 70.8034 424.212 78.2827C446.773 84.9842 468.466 67.1834 490.877 59.9435C521.277 50.1306 559.965 64.6704 569.57 95.1261C577.289 119.598 565.77 145.387 557.571 169.71C550.809 189.754 546.231 210.517 543.927 231.519C542.85 241.242 542.371 251.503 546.68 260.269C554.938 277.082 576.451 281.391 594.973 284.263C613.494 287.135 635.067 293.028 641.351 310.679C648.651 331.232 630.19 350.888 615.858 367.343C602.752 382.361 591.861 399.294 583.662 417.454C581.508 422.241 579.503 427.386 580.251 432.562C582.017 444.589 596.558 449.465 608.617 450.931C620.675 452.427 635.067 454.521 640.154 465.561C646.916 480.25 630.908 494.999 616.396 502.179C552.664 533.652 467.503 578.008 396.5 581C283.487 581 163.299 574.639 66.2941 498.619C43.0153 480.37 23.387 457.363 9.83266 431.006H9.7429Z" fill="#E6BEBE"/>
<path d="M314.37 532.515C296.717 536.584 278.435 537.901 260.393 536.495C246.898 535.418 232.566 532.306 223.32 522.433C216.289 514.954 213.237 504.693 208.539 495.538C196.78 472.621 174.189 456.137 164.824 432.143C161.652 424.036 160.126 415.33 157.015 407.192C153.963 399.234 149.474 391.935 146.243 384.066C140.109 368.988 138.942 352.444 137.835 336.199C136.548 316.932 135.232 297.696 133.945 278.429C139.989 276.155 146.991 278.938 151.479 283.575C155.937 288.212 158.391 294.435 160.485 300.508C164.824 313.013 168.355 325.788 171.018 338.742C168.026 334.344 173.262 325.818 177.989 323.364C182.717 320.911 188.312 321.27 193.608 321.629C214.673 323.065 235.827 323.634 256.952 323.305C269.967 323.095 284.868 323.335 293.366 333.177C314.49 357.59 311.767 394.238 319.696 425.532C320.953 430.498 322.18 435.524 322.15 440.64C322.06 448.568 318.859 456.107 316.734 463.766C310.78 485.097 312.934 507.714 315.148 529.763C314.849 528.716 314.64 533.533 314.341 532.486L314.37 532.515Z" fill="#F0C49B"/>
<path d="M165.363 289.378C166.709 271.876 170.898 254.763 175.177 237.741C178.558 224.248 182.149 210.516 189.839 198.938C192.143 195.498 195.404 191.967 199.533 192.087C203.213 192.207 206.235 195.378 207.343 198.908C208.45 202.408 208.061 206.208 207.582 209.858C203.303 242.856 193.938 276.065 199.294 308.914C200.311 315.047 201.807 321.18 201.598 327.402C201.089 341.075 185.081 354.118 174.01 341.523C163.269 329.287 164.256 304.306 165.393 289.378H165.363Z" fill="#F0C49B"/>
<path d="M238.37 224.248C236.395 238.997 232.655 253.507 231.668 268.346C230.441 286.774 233.433 305.203 235.348 323.573C235.737 327.342 236.036 331.381 234.121 334.642C230.531 340.775 221.764 340.685 214.732 339.788C212.488 339.519 210.155 339.189 208.24 337.963C206.145 336.616 204.829 334.313 203.751 332.069C190.825 305.443 195.822 274 201.088 244.861C203.542 231.368 205.966 217.875 208.419 204.383C210.005 195.587 209.526 176.41 218.293 171.264C238.191 159.537 243.098 213.926 238.4 224.248H238.37Z" fill="#F0C49B"/>
<path d="M203.99 291.77C203.422 279.234 206.294 266.849 208.718 254.553C214.073 227.178 217.125 199.355 217.963 171.473C209.525 176.888 209.944 195.706 208.359 204.382C205.905 217.874 203.481 231.367 201.028 244.859C195.762 273.999 190.765 305.442 203.691 332.068C204.768 334.312 206.085 336.615 208.179 337.962C210.004 339.129 212.248 339.488 214.403 339.757C212.697 333.265 211.022 326.803 209.316 320.311C206.862 310.917 204.379 301.463 203.96 291.77H203.99Z" fill="#E0A988"/>
<path d="M254.857 195.378C260.243 202.738 261.23 209.38 260.692 218.504C258.597 252.909 261.619 290.784 268.531 324.651C268.89 326.356 268.651 328.181 268.052 329.826C267.065 332.579 264.432 334.433 261.709 335.391C252.643 338.592 242.26 333.326 236.725 325.458C231.189 317.59 229.484 307.687 228.437 298.114C225.744 273.881 226.193 249.319 229.753 225.176C231.04 216.53 231.279 200.225 235.767 192.805C240.854 184.459 249.98 188.737 254.827 195.378H254.857Z" fill="#F0C49B"/>
<path d="M279.064 242.857C283.103 273.104 287.143 303.32 291.182 333.566C291.302 334.374 291.392 335.212 291.182 335.99C290.644 338.054 288.28 339.041 286.155 339.161C281.368 339.46 276.73 336.797 273.618 333.118C270.506 329.438 268.711 324.86 267.275 320.283C261.201 300.957 260.543 280.434 259.944 260.21C259.705 252.371 255.396 232.536 262.099 226.523C272.631 217.039 277.418 236.515 279.034 242.887L279.064 242.857Z" fill="#F0C49B"/>
<path d="M193.339 372.247C202.166 379.068 212.339 383.915 222.243 389.031C243.636 400.07 264.91 413.263 278.465 433.158C280.559 415.238 282.594 396.689 277.178 379.487C275.832 375.239 274.036 371.08 271.433 367.46C261.649 353.758 242.918 350.138 226.073 349.989C211.681 349.869 198.066 349.839 183.794 348.134C165.333 345.92 187.145 367.46 193.339 372.247Z" fill="#E0A988"/>
<path d="M167.398 336.017C168.475 336.885 169.612 337.663 170.809 338.381C170.27 337.393 170.091 336.227 170.181 335C167.637 323.332 164.406 311.814 160.486 300.535C158.362 294.432 155.938 288.239 151.48 283.602C148.607 280.61 144.688 278.426 140.648 277.828C145.496 284.44 148.398 292.966 150.552 301.044C153.963 313.789 157.195 327.7 167.428 336.017H167.398Z" fill="#E0A988"/>
<path d="M170.84 338.381C170.84 338.381 170.93 338.411 170.989 338.44C170.75 337.274 170.481 336.137 170.211 335C170.122 336.227 170.301 337.393 170.84 338.381Z" fill="#F0C49B"/>
<path d="M171.049 338.799C171.049 338.799 170.989 338.59 170.989 338.47C170.959 338.47 170.9 338.44 170.84 338.41C170.9 338.53 170.959 338.679 171.049 338.799Z" fill="#F0C49B"/>
<path d="M233.883 507.353C220.149 496.852 213.746 479.649 204.112 465.289C195.375 452.275 183.675 441.236 176.614 427.235C169.642 413.413 167.638 397.497 160.337 383.825C156.387 376.435 151.031 369.883 146.513 362.823C143.461 358.066 140.888 353.01 138.674 347.804C139.751 360.22 141.516 372.606 146.214 384.094C149.416 391.962 153.934 399.262 156.986 407.22C160.097 415.357 161.623 424.033 164.795 432.171C174.16 456.164 196.721 472.649 208.51 495.565C213.208 504.69 216.26 514.952 223.291 522.461C232.537 532.334 246.869 535.445 260.364 536.522C278.406 537.958 296.688 536.612 314.341 532.543C314.641 533.59 314.85 528.773 315.149 529.821C315.03 528.624 314.91 527.397 314.79 526.201C295.312 526.59 275.743 523.927 257.102 518.243C248.874 515.73 240.705 512.588 233.883 507.353Z" fill="#E0A988"/>
<path d="M241.632 242.557C243.248 232.565 245.731 222.722 246.569 212.64C247.257 204.562 246.838 196.425 245.402 188.467C241.871 187.599 238.311 188.586 235.767 192.805C231.249 200.224 231.01 216.529 229.753 225.175C226.193 249.288 225.744 273.88 228.437 298.113C229.514 307.687 231.189 317.559 236.725 325.457C240.256 330.484 245.761 334.433 251.656 335.809C240.136 306.37 236.545 273.82 241.632 242.587V242.557Z" fill="#E0A988"/>
<path d="M267.065 223.978C265.569 224.097 263.953 224.845 262.128 226.461C255.426 232.504 259.734 252.339 259.974 260.148C260.572 280.372 261.26 300.925 267.304 320.221C268.741 324.799 270.536 329.406 273.648 333.056C274.785 334.402 276.161 335.629 277.657 336.616C266.766 300.237 263.145 261.703 267.065 223.918V223.978Z" fill="#E0A988"/>
<path d="M196.391 378.023C206.833 382.451 217.036 387.447 226.97 392.952C244.534 402.705 261.469 414.373 273.737 430.289" stroke="#CA9070" stroke-linecap="round" stroke-linejoin="round"/>
<path d="M241 503.693C248.952 504.563 257.443 503.566 264.254 500.935C266.835 499.937 269.175 498.722 271.966 497.978C278.447 496.237 285.919 497.325 293 497.452" stroke="#CA9070" stroke-linecap="round" stroke-linejoin="round"/>
<path d="M182.957 228.646C186.069 229.245 189.181 229.843 192.263 230.412" stroke="#CA9070" stroke-linecap="round" stroke-linejoin="round"/>
<path d="M177.48 263.32C181.161 265.833 185.948 266.611 190.227 265.355" stroke="#CA9070" stroke-linecap="round" stroke-linejoin="round"/>
<path d="M216.826 219.312C219.399 220.928 222.511 221.616 225.503 221.287" stroke="#CA9070" stroke-linecap="round" stroke-linejoin="round"/>
<path d="M210.244 269.693C213.715 271.429 217.874 271.758 221.584 270.561" stroke="#CA9070" stroke-linecap="round" stroke-linejoin="round"/>
<path d="M241.363 235.797C243.787 237.263 246.689 237.921 249.472 237.622" stroke="#CA9070" stroke-linecap="round" stroke-linejoin="round"/>
<path d="M242.529 266.701C245.492 268.287 249.052 268.706 252.314 267.808" stroke="#CA9070" stroke-linecap="round" stroke-linejoin="round"/>
<path d="M267.543 260.449C269.967 261.287 272.63 261.377 275.083 260.629" stroke="#CA9070" stroke-linecap="round" stroke-linejoin="round"/>
<path d="M270.445 280.254C272.121 280.523 273.767 280.763 275.442 281.032" stroke="#CA9070" stroke-linecap="round" stroke-linejoin="round"/>
<path d="M171.047 338.801C170.778 337.544 170.478 336.288 170.209 335.031C170.089 336.437 170.329 337.754 171.047 338.801Z" fill="#F0C49B"/>
<path d="M139.869 299.728C141.036 292.428 140.527 285.039 139.301 277.709C137.505 277.619 135.68 277.799 133.975 278.457C134.573 287.552 135.201 296.647 135.8 305.741C136.757 305.472 137.625 304.934 138.253 304.156C139.241 302.929 139.6 301.284 139.869 299.698V299.728Z" fill="#DB9289"/>
<path d="M344.353 535.935C362.036 539.884 380.318 541.111 398.361 539.585C411.855 538.448 426.157 535.247 435.343 525.315C442.315 517.776 445.307 507.514 449.945 498.329C461.584 475.353 484.055 458.719 493.271 434.666C496.383 426.528 497.849 417.822 500.931 409.655C503.923 401.697 508.381 394.367 511.553 386.469C517.597 371.361 518.674 354.787 519.661 338.572C520.828 319.305 522.025 300.038 523.192 280.772C517.148 278.558 510.146 281.34 505.688 286.007C501.26 290.674 498.866 296.897 496.772 303C492.493 315.535 489.052 328.34 486.479 341.324C489.441 336.926 484.145 328.4 479.417 325.977C474.69 323.553 469.065 323.942 463.768 324.331C442.704 325.917 421.58 326.605 400.455 326.395C387.439 326.276 372.539 326.605 364.101 336.507C343.126 361.069 346.088 397.688 338.339 429.011C337.112 433.978 335.915 439.004 336.005 444.12C336.154 452.048 339.386 459.557 341.57 467.216C347.674 488.487 345.639 511.164 343.545 533.183C343.844 532.136 344.054 536.953 344.383 535.905L344.353 535.935Z" fill="#F0C49B"/>
<path d="M492.971 288.988C491.535 271.517 487.226 254.404 482.858 237.411C479.387 223.948 475.736 210.216 467.957 198.698C465.653 195.258 462.362 191.757 458.203 191.907C454.522 192.057 451.53 195.258 450.453 198.758C449.376 202.258 449.795 206.058 450.303 209.708C454.792 242.676 464.366 275.825 459.19 308.704C458.232 314.867 456.736 321 457.006 327.222C457.604 340.895 473.702 353.849 484.683 341.164C495.365 328.838 494.198 303.887 492.971 288.958V288.988Z" fill="#F0C49B"/>
<path d="M419.575 224.336C421.639 239.085 425.469 253.565 426.546 268.404C427.893 286.833 425.02 305.262 423.225 323.661C422.866 327.431 422.597 331.469 424.512 334.7C428.132 340.833 436.899 340.654 443.961 339.727C446.205 339.427 448.538 339.098 450.424 337.872C452.518 336.495 453.805 334.222 454.882 331.948C467.628 305.232 462.452 273.819 457.006 244.739C454.493 231.247 451.95 217.784 449.436 204.291C447.791 195.526 448.15 176.319 439.353 171.233C419.395 159.655 414.817 214.045 419.575 224.336Z" fill="#F0C49B"/>
<path d="M454.342 291.649C454.82 279.113 451.888 266.758 449.405 254.462C443.899 227.117 440.638 199.324 439.65 171.441C448.118 176.826 447.819 195.615 449.435 204.291C451.948 217.783 454.491 231.246 457.005 244.738C462.45 273.818 467.627 305.231 454.88 331.947C453.803 334.191 452.517 336.495 450.422 337.871C448.597 339.067 446.353 339.397 444.198 339.696C445.844 333.204 447.52 326.712 449.165 320.22C451.559 310.826 453.983 301.342 454.342 291.649Z" fill="#E0A988"/>
<path d="M402.908 195.556C397.552 202.946 396.594 209.587 397.223 218.712C399.527 253.117 396.744 290.992 390.012 324.888C389.683 326.593 389.922 328.418 390.52 330.034C391.508 332.756 394.141 334.611 396.894 335.569C405.99 338.71 416.342 333.385 421.818 325.487C427.294 317.558 428.939 307.686 429.957 298.112C432.5 273.879 431.901 249.287 428.191 225.204C426.875 216.558 426.516 200.253 421.968 192.864C416.821 184.547 407.725 188.885 402.908 195.556Z" fill="#F0C49B"/>
<path d="M379.002 243.184C375.142 273.43 371.282 303.706 367.452 333.952C367.363 334.76 367.243 335.598 367.452 336.376C367.991 338.44 370.385 339.397 372.479 339.517C377.266 339.786 381.874 337.094 384.956 333.384C388.038 329.704 389.804 325.097 391.21 320.49C397.164 301.133 397.703 280.61 398.181 260.356C398.361 252.518 402.55 232.653 395.818 226.67C385.226 217.246 380.558 236.752 378.972 243.154L379.002 243.184Z" fill="#F0C49B"/>
<path d="M465.504 372.038C456.707 378.919 446.594 383.825 436.69 389.001C415.356 400.16 394.172 413.503 380.737 433.458C378.523 415.538 376.369 397.019 381.695 379.757C383.011 375.508 384.777 371.35 387.35 367.7C397.074 353.938 415.775 350.198 432.591 349.959C446.983 349.75 460.597 349.63 474.87 347.835C493.301 345.531 471.638 367.191 465.474 372.008L465.504 372.038Z" fill="#E0A988"/>
<path d="M491.206 335.688C490.129 336.586 488.992 337.364 487.795 338.082C488.334 337.094 488.513 335.927 488.393 334.701C490.877 323.003 494.019 311.485 497.878 300.176C499.973 294.073 502.337 287.851 506.795 283.183C509.637 280.192 513.557 277.978 517.597 277.35C512.779 283.991 509.937 292.548 507.842 300.625C504.521 313.37 501.349 327.311 491.206 335.718V335.688Z" fill="#E0A988"/>
<path d="M487.794 338.053C487.794 338.053 487.704 338.112 487.645 338.112C487.884 336.946 488.153 335.809 488.393 334.672C488.512 335.898 488.333 337.065 487.794 338.053Z" fill="#F0C49B"/>
<path d="M487.584 338.471C487.584 338.471 487.644 338.262 487.644 338.142C487.674 338.142 487.733 338.112 487.793 338.082C487.733 338.202 487.674 338.351 487.584 338.471Z" fill="#F0C49B"/>
<path d="M425.768 507.382C439.442 496.792 445.725 479.559 455.27 465.139C463.917 452.065 475.557 440.966 482.528 426.935C489.41 413.083 491.325 397.138 498.536 383.435C502.426 376.016 507.782 369.434 512.24 362.344C515.262 357.557 517.805 352.501 519.99 347.266C519.002 359.711 517.297 372.067 512.659 383.615C509.487 391.513 505.029 398.843 502.037 406.801C498.985 414.968 497.519 423.644 494.377 431.812C485.161 455.865 462.69 472.469 451.051 495.475C446.413 504.63 443.421 514.921 436.449 522.461C427.264 532.393 412.931 535.594 399.467 536.731C381.424 538.257 363.142 537.03 345.459 533.081C345.16 534.128 344.95 529.312 344.621 530.359C344.741 529.162 344.86 527.935 344.95 526.739C364.459 527.008 383.968 524.226 402.608 518.452C410.807 515.909 418.975 512.708 425.768 507.442V507.382Z" fill="#E0A988"/>
<path d="M416.403 242.646C414.727 232.684 412.184 222.841 411.257 212.759C410.538 204.711 410.897 196.544 412.274 188.586C415.805 187.688 419.365 188.676 421.938 192.864C426.486 200.254 426.846 216.558 428.162 225.205C431.872 249.288 432.471 273.88 429.927 298.113C428.91 307.686 427.264 317.589 421.789 325.487C418.288 330.543 412.812 334.522 406.918 335.928C418.258 306.4 421.639 273.85 416.373 242.646H416.403Z" fill="#E0A988"/>
<path d="M390.88 224.246C392.377 224.366 393.992 225.084 395.817 226.699C402.55 232.683 398.361 252.548 398.181 260.386C397.703 280.64 397.164 301.163 391.21 320.52C389.803 325.127 388.038 329.704 384.956 333.414C383.819 334.79 382.473 336.017 380.977 337.004C391.629 300.565 395.04 262.002 390.88 224.246Z" fill="#E0A988"/>
<path d="M462.482 377.844C452.07 382.361 441.896 387.387 431.992 392.982C414.488 402.855 397.613 414.612 385.465 430.588" stroke="#CA9070" stroke-linecap="round" stroke-linejoin="round"/>
<path d="M419 500.663C411.058 501.586 402.576 500.59 395.742 497.952C393.165 496.956 390.797 495.72 388.01 494.964C381.506 493.211 374.073 494.355 367 494.503" stroke="#CA9070" stroke-linecap="round" stroke-linejoin="round"/>
<path d="M475.018 228.406C471.907 229.005 468.825 229.633 465.713 230.231" stroke="#CA9070" stroke-linecap="round" stroke-linejoin="round"/>
<path d="M480.703 263.02C477.052 265.562 472.235 266.37 467.986 265.144" stroke="#CA9070" stroke-linecap="round" stroke-linejoin="round"/>
<path d="M441.058 219.281C438.515 220.897 435.403 221.645 432.381 221.316" stroke="#CA9070" stroke-linecap="round" stroke-linejoin="round"/>
<path d="M447.97 269.602C444.5 271.367 440.34 271.726 436.66 270.559" stroke="#CA9070" stroke-linecap="round" stroke-linejoin="round"/>
<path d="M416.642 235.885C414.248 237.381 411.346 238.039 408.533 237.77" stroke="#CA9070" stroke-linecap="round" stroke-linejoin="round"/>
<path d="M415.655 266.82C412.692 268.436 409.132 268.855 405.9 267.987" stroke="#CA9070" stroke-linecap="round" stroke-linejoin="round"/>
<path d="M390.61 260.717C388.217 261.584 385.524 261.674 383.07 260.956" stroke="#CA9070" stroke-linecap="round" stroke-linejoin="round"/>
<path d="M387.828 280.551C386.183 280.82 384.507 281.089 382.861 281.359" stroke="#CA9070" stroke-linecap="round" stroke-linejoin="round"/>
<path d="M487.586 338.469C487.825 337.212 488.124 335.956 488.394 334.699C488.513 336.105 488.304 337.422 487.586 338.469Z" fill="#F0C49B"/>
<path d="M518.524 299.218C517.297 291.918 517.776 284.528 518.972 277.199C520.768 277.079 522.593 277.258 524.328 277.917C523.76 287.011 523.221 296.136 522.653 305.231C521.695 304.962 520.798 304.423 520.169 303.645C519.152 302.419 518.793 300.773 518.524 299.218Z" fill="#DB9289"/>
<path d="M321.881 416.373C339.953 403.598 360.36 393.008 382.412 391.033C416.133 388.041 448.388 405.393 482.169 407.787C433.846 433.725 372.777 436.747 321.881 416.373Z" fill="#97A376"/>
<path d="M478.579 407.428C446.114 404.137 414.966 388.131 382.442 391.003C361.138 392.888 341.36 402.88 323.736 415.087C373.974 404.286 427.862 415.685 478.579 407.428Z" fill="#B0B39F"/>
<path d="M328.613 417.362C341.18 414.939 354.136 416.734 366.883 417.93C390.7 420.174 414.697 420.294 438.514 418.289" stroke="#B0B39F" stroke-linecap="round" stroke-linejoin="round"/>
<path d="M327.236 415.896C356.888 400.638 391.986 396.24 424.45 403.749" stroke="#97A376" stroke-linecap="round" stroke-linejoin="round"/>
<g style="mix-blend-mode:multiply">
<path d="M425.886 426.845C405.151 421.759 384.416 416.643 363.68 411.557C380.646 403.958 398.299 398.005 416.372 393.637C405.151 391.333 393.871 389.987 382.441 391.004C360.389 392.979 339.983 403.569 321.91 416.344C354.435 429.358 391.088 432.798 425.916 426.845H425.886Z" fill="#E9E9E9"/>
</g>
<path d="M329.63 416.373C311.558 403.598 291.151 393.008 269.099 391.033C235.378 388.041 203.123 405.393 169.342 407.787C217.665 433.725 278.734 436.747 329.63 416.373Z" fill="#97A376"/>
<path d="M172.963 407.428C205.427 404.137 236.575 388.131 269.1 391.003C290.404 392.888 310.182 402.88 327.805 415.087C277.568 404.286 223.679 415.685 172.963 407.428Z" fill="#B0B39F"/>
<path d="M322.897 417.362C310.33 414.939 297.374 416.734 284.628 417.93C260.81 420.174 236.813 420.294 212.996 418.289" stroke="#B0B39F" stroke-linecap="round" stroke-linejoin="round"/>
<path d="M324.275 415.896C294.623 400.638 259.525 396.24 227.061 403.749" stroke="#97A376" stroke-linecap="round" stroke-linejoin="round"/>
<g style="mix-blend-mode:multiply">
<path d="M225.624 426.845C246.359 421.759 267.095 416.643 287.83 411.557C270.865 403.958 253.211 398.005 235.139 393.637C246.359 391.333 257.639 389.987 269.069 391.004C291.121 392.979 311.528 403.569 329.6 416.344C297.076 429.358 260.422 432.798 225.594 426.845H225.624Z" fill="#E9E9E9"/>
</g>
<path d="M332.592 415.566C313.622 411.497 293.515 409.941 275.053 415.955C246.808 425.139 226.76 450.24 200.34 463.792C248.244 468.1 298.541 449.522 332.592 415.566Z" fill="#97A376"/>
<path d="M203.152 462.266C228.196 448.444 247.825 424.809 275.053 415.954C292.886 410.15 312.275 411.406 330.707 415.176C286.453 423.762 246.897 451.466 203.152 462.266Z" fill="#B0B39F"/>
<path d="M327.535 418.707C316.553 421.07 306.739 426.964 296.865 432.319C278.434 442.312 259.105 450.659 239.207 457.27" stroke="#B0B39F" stroke-linecap="round" stroke-linejoin="round"/>
<path d="M328.134 417.033C298.961 414.908 269.159 423.435 245.521 440.667" stroke="#97A376" stroke-linecap="round" stroke-linejoin="round"/>
<g style="mix-blend-mode:multiply">
<path d="M252.312 459.814C267.303 448.565 282.264 437.316 297.254 426.067C280.977 425.798 264.64 427.055 248.572 429.717C256.831 424.003 265.478 419.037 275.053 415.925C293.514 409.912 313.621 411.468 332.591 415.536C310.838 437.226 282.443 452.604 252.312 459.784V459.814Z" fill="#E9E9E9"/>
</g>
<path d="M314.102 415.566C333.072 411.497 353.179 409.941 371.64 415.955C399.886 425.139 419.933 450.24 446.353 463.792C398.45 468.1 348.152 449.522 314.102 415.566Z" fill="#97A376"/>
<path d="M443.57 462.266C418.526 448.444 398.897 424.809 371.669 415.954C353.836 410.15 334.447 411.406 316.016 415.176C360.269 423.762 399.825 451.466 443.57 462.266Z" fill="#B0B39F"/>
<path d="M319.188 418.707C330.169 421.07 339.983 426.964 349.857 432.319C368.288 442.312 387.617 450.659 407.515 457.27" stroke="#B0B39F" stroke-linecap="round" stroke-linejoin="round"/>
<path d="M318.59 417.033C347.763 414.908 377.565 423.435 401.202 440.667" stroke="#97A376" stroke-linecap="round" stroke-linejoin="round"/>
<g style="mix-blend-mode:multiply">
<path d="M394.41 459.814C379.419 448.565 364.458 437.316 349.468 426.067C365.745 425.798 382.082 427.055 398.15 429.717C389.891 424.003 381.244 419.037 371.669 415.925C353.208 409.912 333.101 411.468 314.131 415.536C335.884 437.226 364.279 452.604 394.41 459.784V459.814Z" fill="#E9E9E9"/>
</g>
<path d="M323.077 414.939C331.994 422.598 338.845 431.633 338.157 442.314C337.11 458.648 318.918 476.3 313.293 493.203C296.387 471.932 300.337 442.074 323.077 414.939Z" fill="#97A376"/>
<path d="M313.981 491.379C320.234 475.015 337.169 458.052 338.157 442.315C338.815 431.994 332.442 423.198 323.944 415.719C327.774 439.443 312.365 467.176 313.981 491.379Z" fill="#B0B39F"/>
<path d="M321.491 418.352C322.209 424.305 319.307 430.887 316.943 437.289C312.514 449.256 309.851 461.133 309.014 472.681" stroke="#B0B39F" stroke-linecap="round" stroke-linejoin="round"/>
<path d="M322.896 417.543C332.711 430.677 332.711 447.55 322.896 464.333" stroke="#97A376" stroke-linecap="round" stroke-linejoin="round"/>
<g style="mix-blend-mode:multiply">
<path d="M303.089 467.295C309.612 456.555 316.165 445.815 322.688 435.074C327.325 442.703 330.527 450.841 332.322 459.307C335.464 453.533 337.798 447.849 338.157 442.284C338.845 431.604 331.993 422.569 323.077 414.91C308.535 432.262 301.743 450.661 303.089 467.295Z" fill="#E9E9E9"/>
</g>
<path d="M325.171 408.687C316.614 394.775 312.844 377.992 314.579 361.747C315.686 351.365 318.978 341.223 318.828 330.812C318.708 321.807 316.075 312.952 316.554 303.976C317.242 291.561 323.945 280.103 332.682 271.247C341.419 262.421 352.13 255.84 362.752 249.348C373.584 275.974 385.044 305.173 375.708 332.368C365.715 361.567 337.409 380.355 325.171 408.687Z" fill="#E9E9E9"/>
<path d="M343.962 312.414C349.498 291.532 352.579 269.094 361.735 249.977C351.472 256.259 341.15 262.691 332.682 271.248C323.945 280.073 317.242 291.561 316.554 303.977C316.076 312.952 318.709 321.838 318.828 330.813C318.948 341.224 315.687 351.396 314.579 361.747C312.964 376.855 316.195 392.382 323.496 405.666C322.628 393.16 324.304 380.326 327.236 368.06C331.754 349.212 338.965 331.112 343.932 312.384L343.962 312.414Z" fill="white"/>
<g style="mix-blend-mode:multiply">
<path d="M322.208 402.614C316.882 387.506 318.259 370.842 321.52 355.135C324.751 339.429 329.808 324.081 331.723 308.165C333.01 297.515 333.369 285.548 341.148 278.158" fill="white"/>
</g>
<path d="M361.256 292.758C360.059 304.216 357.306 315.495 353.087 326.235C342.824 352.413 323.704 376.646 324.542 404.738C332.771 391.066 340.819 379.428 349.048 365.786C354.314 357.05 359.58 348.254 363.44 338.8C367.36 329.167 369.753 318.905 370.501 308.524" stroke="white" stroke-width="0.75" stroke-linecap="round" stroke-linejoin="round"/>
<g style="mix-blend-mode:multiply">
<path d="M337.409 339.309C335.135 322.346 328.732 306.011 319.187 291.801C317.751 295.72 316.793 299.789 316.554 303.947C316.075 312.922 318.708 321.808 318.828 330.783C318.948 341.194 315.686 351.366 314.579 361.717C312.844 377.962 316.644 394.716 325.171 408.657C337.409 380.326 365.715 361.538 375.708 332.339C379.508 321.179 379.808 309.721 378.132 298.203C362.214 309.272 348.271 323.214 337.409 339.279V339.309Z" fill="#E9E9E9"/>
</g>
<path d="M262.906 270.648C284.39 282.585 304.736 298.053 317.213 319.204C324.424 331.44 328.613 345.711 328.494 359.951C328.434 370.003 325.382 394.147 312.994 397.049C301.684 399.681 291.601 378.919 287.083 371.38C278.615 357.169 272.182 341.762 268.023 325.756C265.629 316.541 263.983 307.147 263.146 297.664C262.906 294.822 263.953 271.217 262.906 270.648Z" fill="#E9E9E9"/>
<path d="M317.214 319.233C304.796 298.172 284.599 282.794 263.266 270.857C290.195 307.685 308.357 350.856 315.957 395.851C325.891 390.137 328.464 369.195 328.524 359.981C328.614 345.74 324.455 331.47 317.244 319.233H317.214Z" fill="white"/>
<path d="M270.297 302.75C276.939 334.851 291.302 365.307 311.798 390.886C297.136 366.713 287.262 339.787 280.171 312.413" stroke="white" stroke-width="0.75" stroke-linecap="round" stroke-linejoin="round"/>
<path d="M299.021 303.977C317.992 330.274 324.484 365.187 316.196 396.51C315.029 372.188 309.853 345.861 301.086 323.153" stroke="#E9E9E9" stroke-width="0.75" stroke-linecap="round" stroke-linejoin="round"/>
<g style="mix-blend-mode:multiply" opacity="0.5">
<g style="mix-blend-mode:multiply">
<path d="M263.535 300.926C264.463 309.303 265.929 317.62 268.053 325.787C272.212 341.793 278.615 357.2 287.113 371.411C291.631 378.98 301.715 399.712 313.025 397.08C322.42 394.896 326.43 380.535 327.866 369.316C316.376 339.399 292.768 314.149 263.565 300.956L263.535 300.926Z" fill="white"/>
</g>
</g>
<path d="M323.466 413.353C300.337 402.224 277.058 391.005 256.383 375.747C235.737 360.489 217.635 340.834 208.27 316.93C219.969 314.357 233.014 312.562 244.983 312.921C251.984 313.13 259.016 313.848 265.718 315.943C288.877 323.153 303.988 345.202 314.669 366.951C321.611 381.132 326.458 397.886 323.496 413.383L323.466 413.353Z" fill="#E9E9E9"/>
<path d="M314.67 366.922C303.988 345.172 288.878 323.153 265.719 315.913C259.047 313.819 251.985 313.101 244.984 312.891C233.554 312.562 221.166 314.208 209.916 316.601L241.992 329.914C250.669 333.504 259.436 337.154 267.185 342.48C274.546 347.536 280.829 353.998 286.724 360.669C300.817 376.585 313.174 394.027 323.587 412.576C326.28 397.288 321.492 380.863 314.67 366.922Z" fill="white"/>
<path d="M266.346 318.996C276.04 323.065 283.55 330.993 290.043 339.25C306.291 359.953 317.9 384.275 323.795 409.944C312.335 384.545 291.15 351.965 270.235 333.536" stroke="#E9E9E9" stroke-width="0.75" stroke-linecap="round" stroke-linejoin="round"/>
<path d="M227.898 332.816C240.196 354.088 264.223 375.957 284.779 389.42C297.017 397.438 309.554 405.036 322.3 412.187C299.59 389.15 266.946 362.524 244.235 339.458" stroke="white" stroke-width="0.75" stroke-linecap="round" stroke-linejoin="round"/>
<g style="mix-blend-mode:multiply" opacity="0.5">
<g style="mix-blend-mode:multiply">
<path d="M280.32 352.98C261.829 345.77 241.991 342.928 222.094 341.881C231.519 354.865 243.458 366.174 256.413 375.747C277.059 390.975 300.368 402.224 323.497 413.353C325.651 402.194 323.706 390.436 319.876 379.427C309.165 367.759 295.191 358.814 280.32 353.01V352.98Z" fill="white"/>
</g>
</g>
<path d="M371.37 323.154C388.276 309.272 408.832 299.519 422.805 282.676C428.998 300.656 422.954 321.03 411.674 336.347C400.424 351.665 384.535 362.824 368.827 373.534C361.197 378.74 353.507 383.886 346.206 389.57C338.876 395.284 332.712 403.332 325.321 408.537C323.526 393.968 332.921 374.282 339.743 361.687C347.702 346.998 358.444 333.774 371.34 323.184L371.37 323.154Z" fill="#E9E9E9"/>
<path d="M411.585 309.96C416.941 301.913 420.412 292.848 423.075 283.513C422.985 283.244 422.925 282.945 422.835 282.676C408.862 299.519 388.306 309.272 371.401 323.154C358.475 333.774 347.763 346.968 339.804 361.657C332.982 374.252 323.587 393.938 325.382 408.507C325.711 408.268 326.04 407.999 326.369 407.76C339.235 380.116 361.557 357.588 384.686 337.454C394.38 329.017 404.464 320.671 411.615 309.96H411.585Z" fill="white"/>
<path d="M325.41 409.944C331.933 381.702 347.462 355.584 369.185 336.377C380.705 326.176 394.02 317.769 403.654 305.742" stroke="#E9E9E9" stroke-width="0.75" stroke-linecap="round" stroke-linejoin="round"/>
<path d="M325.471 407.429C345.697 373.773 386.151 356.84 408.083 324.26" stroke="white" stroke-width="0.75" stroke-linecap="round" stroke-linejoin="round"/>
<g style="mix-blend-mode:multiply">
<path d="M348.361 347.985C345.25 352.383 342.347 356.93 339.804 361.687C332.982 374.282 323.587 393.968 325.382 408.537C332.743 403.332 338.936 395.284 346.267 389.57C353.568 383.886 361.257 378.74 368.887 373.534C384.596 362.854 400.484 351.665 411.735 336.347C412.423 335.39 413.111 334.433 413.769 333.445C399.646 334.433 385.524 335.839 371.82 339.339C363.771 341.403 355.812 344.245 348.391 347.985H348.361Z" fill="white"/>
</g>
<path d="M339.414 361.507C340.551 359.951 341.808 358.396 343.573 357.678C345.339 356.96 347.762 357.528 348.48 359.293C348.929 360.37 348.63 361.597 348.361 362.704C346.685 369.166 336.542 405.964 326.279 401.267C316.824 396.929 335.524 366.892 339.444 361.537L339.414 361.507Z" fill="#97A376"/>
<path d="M300.457 365.667C299.948 363.813 299.529 361.868 300.068 360.043C300.636 358.218 302.551 356.692 304.377 357.231C305.484 357.56 306.262 358.547 306.95 359.475C310.929 364.86 333.251 395.824 323.137 400.85C313.832 405.487 302.162 372.1 300.427 365.697L300.457 365.667Z" fill="#F6E2C9"/>
<path d="M300.068 360.043C299.499 361.868 299.948 363.843 300.457 365.668C302.192 372.07 313.861 405.458 323.167 400.821C323.167 400.821 323.197 400.791 323.227 400.791C314.549 387.298 307.279 372.908 301.564 357.949C300.905 358.488 300.337 359.206 300.098 360.043H300.068Z" fill="#97A376"/>
<path d="M306.98 359.475C306.292 358.548 305.514 357.561 304.407 357.232C303.39 356.932 302.372 357.291 301.564 357.95C307.279 372.938 314.55 387.298 323.227 400.791C333.161 395.645 310.96 364.831 306.98 359.475Z" fill="#97A376"/>
<path d="M326.817 401.359C336.871 404.56 346.685 369.049 348.36 362.706C348.66 361.599 348.929 360.373 348.48 359.296C348.271 358.787 347.912 358.428 347.493 358.129C338.666 371.532 331.694 386.102 326.787 401.389L326.817 401.359Z" fill="#E9E9E9"/>
<path d="M322.987 359.713C323.525 357.888 324.154 355.974 325.59 354.687C327.026 353.431 329.48 353.101 330.736 354.508C331.514 355.375 331.664 356.602 331.784 357.769C332.412 364.44 335.464 402.465 324.214 401.537C313.861 400.7 321.162 366.056 322.987 359.683V359.713Z" fill="#97A376"/>
<g style="mix-blend-mode:multiply">
<path d="M330.258 354.238C326.518 369.705 324.633 385.621 324.543 401.567C335.374 401.657 332.382 364.38 331.754 357.798C331.634 356.632 331.485 355.405 330.707 354.537C330.587 354.388 330.408 354.328 330.228 354.238H330.258Z" fill="#E9E9E9"/>
</g>
<path d="M327.596 413.563C302.462 418.919 275.712 416.405 252.015 406.473C228.317 396.54 207.761 379.218 193.938 357.558C207.731 361.567 222.632 356.212 236.964 355.315C256.144 354.088 275.742 358.306 292.319 367.999C308.925 377.693 320.744 395.643 327.566 413.593L327.596 413.563Z" fill="#E9E9E9"/>
<path d="M255.875 381.971C280.679 387.715 306.741 393.669 325.801 410.542C326.1 410.812 326.369 411.081 326.668 411.35C319.727 394.148 308.237 377.244 292.319 367.97C275.712 358.277 256.114 354.089 236.964 355.285C222.692 356.183 207.851 361.478 194.117 357.559C211.501 371.022 234.152 376.915 255.875 381.941V381.971Z" fill="white"/>
<path d="M242.23 371.351C273.767 368.628 306.292 383.198 325.262 408.508C315.717 391.605 298.153 376.078 280.23 368.628C262.308 361.179 241.871 359.922 223.141 365.098" stroke="#E9E9E9" stroke-width="0.75" stroke-linecap="round" stroke-linejoin="round"/>
<path d="M223.201 379.668C251.058 402.764 287.622 415.12 323.796 413.594C301.834 403.721 278.107 395.345 254.978 388.673" stroke="white" stroke-width="0.75" stroke-linecap="round" stroke-linejoin="round"/>
<g style="mix-blend-mode:multiply">
<path d="M251.985 406.443C275.682 416.375 302.432 418.888 327.566 413.533C326.967 411.978 326.279 410.422 325.621 408.866C292.857 398.694 256.114 398.754 223.23 389.51C232.027 396.361 241.692 402.135 251.985 406.443Z" fill="white"/>
</g>
<path d="M443.301 380.773C437.945 386.996 432.469 393.308 425.468 397.557C409.549 407.19 389.472 404.258 370.861 404.467C353.686 404.647 336.542 407.818 320.414 413.742C324.304 405.395 327.655 395.971 331.545 387.624C333.161 384.154 334.806 380.683 336.781 377.422C346.206 362.015 364.159 352.202 382.231 352.681C403.984 353.219 426.216 367.31 443.301 380.773Z" fill="#E9E9E9"/>
<path d="M441.685 379.517C424.839 366.443 403.326 353.189 382.231 352.681C364.159 352.232 346.206 362.015 336.781 377.422C334.776 380.683 333.161 384.154 331.545 387.624C327.655 395.971 324.304 405.395 320.414 413.742C320.743 413.622 321.042 413.532 321.372 413.413C352.968 383.884 399.316 370.99 441.685 379.487V379.517Z" fill="white"/>
<path d="M412.451 372.396C395.276 365.276 375.378 370.242 358.712 378.559C344.889 385.44 331.843 394.923 323.734 408.057C329.749 384.991 350.185 366.023 373.464 360.938" stroke="#E9E9E9" stroke-width="0.75" stroke-linecap="round" stroke-linejoin="round"/>
<path d="M323.705 411.438C336.601 400.428 353.926 396.21 370.741 394.235C387.557 392.231 404.732 392.111 421.099 387.684" stroke="white" stroke-width="0.75" stroke-linecap="round" stroke-linejoin="round"/>
<g style="mix-blend-mode:multiply" opacity="0.5">
<path d="M413.11 389.21C399.466 391.364 385.553 390.227 371.759 390.526C357.965 390.825 343.633 392.77 332.053 400.279C328.762 402.433 325.8 405.006 323.047 407.788C322.179 409.793 321.312 411.797 320.414 413.742C336.542 407.788 353.686 404.647 370.861 404.467C389.472 404.258 409.549 407.19 425.468 397.557C432.499 393.308 437.945 386.996 443.301 380.773C442.672 380.264 442.014 379.786 441.386 379.277C432.589 384.154 423.014 387.624 413.08 389.21H413.11Z" fill="#E9E9E9"/>
</g>
</svg>
