<svg width="449" height="1235" viewBox="0 0 449 1235" fill="none" xmlns="http://www.w3.org/2000/svg">
<path d="M694.094 899.443C673.114 936.674 649.353 975.451 630.711 1013.8C616.335 1043.4 604.381 1075.09 599.753 1107.8C597.292 1090.47 594.794 1073.12 592.232 1055.74C593.033 1047.94 594.248 1040.18 595.839 1032.52C615.865 944.742 666.307 868.794 707.146 789.059C719.495 765.78 731.637 742.052 742.862 718.162C754.036 694.16 764.45 669.376 773.149 644.347C783.105 615.639 791.134 585.953 796.007 555.94C799.342 535.419 801.154 514.22 801.216 493.455C801.169 476.405 799.731 459.324 797.095 442.582C797.008 449.957 797.293 457.792 796.866 465.15C796.59 477.864 795.341 491.668 793.732 504.279C784.939 572.716 760.165 637.873 730.401 699.793C691.227 781.329 643.654 857.812 610.016 942.564C600.108 967.924 591.489 995.146 587.29 1022.7C583.396 997.18 579.34 971.659 575.015 946.168C576.69 934.014 579.479 921.993 582.97 910.186C590.326 885.269 600.468 861.137 609.749 836.333C628.335 786.854 644.958 736.627 659.684 685.844C676.14 628.565 691.069 570.588 698.752 511.38C702.98 478.395 705.743 444.659 700.521 411.593C698.515 398.386 694.906 385.421 689.873 373.215C691.494 380.47 692.859 387.723 693.69 395.056C694.478 402.113 694.983 409.926 695.106 417.017C695.457 441.46 692.259 465.71 688.018 489.772C685.714 502.636 683.201 515.469 680.444 528.247C655.933 636.815 621.834 743.608 589.015 850.067C581.704 873.51 574.295 898.091 570.972 922.864C565.591 892.342 559.797 861.898 553.445 831.622C556.596 765.1 584.516 699.631 599.413 634.719C626.916 518.581 634.403 390.177 582.63 279.638C587.193 295.485 591.092 311.805 594.295 327.89C616.128 441.247 599.033 557.843 571.02 668.663C561.184 707.394 550.039 746.251 545.675 786.143C545.425 788.419 545.208 790.71 545.003 793.008C542.382 781.495 539.664 770.01 536.852 758.564C538.03 699.083 552.474 639.997 558.1 580.731C558.706 573.349 559.292 564.097 559.852 556.693C560.014 553.681 560.509 535.948 560.617 532.599C560.491 525.875 560.746 510.203 560.232 503.684C559.926 498.043 559.741 489.986 559.32 484.437C558.746 477.493 558.073 467.34 557.296 460.454C551.224 401.758 537.216 343.406 516.569 288.146C511.148 273.408 504.824 258.362 498.375 244.002C494.522 235.328 490.187 226.695 485.992 218.208C516.402 314.427 538.786 412.758 540.534 513.7L540.735 532.42C540.669 535.669 540.269 552.987 540.233 555.803C539.672 566.21 539.149 578.106 538.253 588.515C534.812 632.303 527.84 677.391 527.48 721.969C516.248 679.916 503.528 638.388 488.881 597.654C489.942 583.01 491.419 568.368 492.186 553.678C497.635 449.794 475.773 343.74 427.163 251.594C422.311 242.865 416.934 234.368 410.778 226.487C404.651 218.651 397.634 211.442 389.746 205.427C396.027 212.948 401.438 221.031 406.13 229.567C413.085 242.304 418.513 255.738 423.412 269.384C454.537 356.063 472.948 446.923 477.18 538.956C477.738 548.825 477.931 558.804 478.129 568.812C476.648 564.971 475.158 561.142 473.641 557.327C464.401 534.204 454.406 511.234 443.653 488.561C440.303 461.878 437.636 435.096 432.481 408.612C417.238 330.484 385.628 255.206 338.709 190.81C333.767 184.236 328.568 177.374 323.253 171.084C320.525 167.917 317.87 164.706 315.09 161.589C322.551 176.561 330.335 191.146 337.511 206.019C364.727 261.083 387.798 318.276 405.429 377.06C411.201 396.709 416.547 416.418 421.316 436.358C422.446 441.03 423.562 445.734 424.69 450.447C408.545 419.523 390.868 389.318 371.602 360.238C357.141 281.137 316.884 197.239 266.791 136.346C262.951 131.822 259.04 127.353 254.943 123.03C257.165 128.574 259.592 133.966 262.07 139.307C278.975 176.438 297.145 213.054 314.385 249.968C327.622 277.636 340.149 305.693 353.198 333.499C335.188 308.303 315.9 284.093 295.282 261.143C288.11 219.51 263.836 178.189 234.492 148.67C226.923 141.281 218.929 134.338 209.946 128.673C211.294 132.021 212.811 135.193 214.381 138.316C224.945 159.62 237.427 180.032 249.858 200.179C258.339 213.553 266.758 227.091 275.751 240.215C252.184 215.88 226.983 193.178 200.083 172.468C203.319 154.856 194.252 135.975 180.28 125.2C174.784 121.122 168.513 118.006 161.619 117.237C162.358 120.7 163.468 123.767 164.645 126.913C168.703 137.36 174.648 148.639 181.727 158.809C172.623 152.291 163.327 145.992 153.842 139.934C152.901 139.155 151.959 138.377 151.008 137.601C155.072 121.196 150.488 103.246 141.486 89.2686C138.042 84.1506 133.832 79.2898 128.58 75.7464C126.565 81.7571 126.185 88.1804 126.577 94.325C126.743 96.3291 127.001 98.3361 127.34 100.338C117.843 77.6809 99.8765 55.7747 76.9466 46.2299C82.4193 65.2126 95.3617 86.8196 109.368 104.215C77.5393 78.0161 48.0504 49.664 19.567 19.798C13.3928 13.325 7.32117 6.80211 0.796017 0.517837C2.24733 4.84317 3.91346 9.06666 5.66799 13.2734C32.5387 73.0639 91.3827 125.305 155.24 141.724C165.605 149.581 175.735 157.696 185.626 166.059C172.295 161.992 158.797 158.282 145.58 154.172C106.153 141.842 67.5435 127.658 30.3597 109.61C23.0697 105.679 16.578 100.966 11.5633 94.0597C12.073 98.4109 13.6871 102.736 15.9816 106.677C21.7411 116.384 30.7605 123.692 39.8622 130.037C82.2865 159.671 137.797 176.3 189.582 169.421C190.008 169.788 190.434 170.155 190.86 170.522C193.338 173.34 195.904 175.978 198.522 178.351C198.629 178.056 198.716 177.765 198.814 177.472C215.991 192.698 232.438 208.683 248.183 225.321C223.886 204.381 190.176 196.169 159.204 190.642C129.868 185.478 101.242 182.713 72.83 174.534C66.2064 172.614 59.7178 170.333 53.1726 168.022C54.7973 169.719 56.4992 171.34 58.2343 172.976C85.0174 196.345 122.024 204.39 155.754 210.34C191.276 216.408 226.471 220.909 258.916 236.884C264.934 243.498 270.85 250.224 276.66 257.031C266.533 252.63 255.868 250.012 245.249 249.725C253.121 257.26 261.454 263.955 269.663 270.958C280.295 279.955 290.433 288.923 300.461 298.217C276.133 284.255 248.35 276.863 221.224 279.971C217.491 280.577 213.797 281.278 210.169 282.22C218.832 285.178 227.546 287.495 235.985 290.719C267.332 301.66 295.82 317.754 323.801 335.634C331.324 340.416 338.698 345.328 346.199 350.104C356.944 366.509 367.211 383.239 377.018 400.229C355.589 375.733 330.292 355.319 300.914 342.203C295.848 340.069 290.719 338.141 285.461 336.604C291.716 341.79 297.983 346.871 304.07 352.19C346.146 388.628 378.825 433.261 410.568 478.763C417.601 488.636 424.603 498.616 431.864 508.405C452.375 554.358 469.931 601.258 485.325 648.833C459.026 597.535 430.795 547.315 400.994 497.943C373.895 453.636 339.116 411.723 292.494 387.22C285.397 383.497 278.042 380.302 270.525 377.697C276.984 382.344 283.202 387.17 289.245 392.142C328.114 424.282 357.874 465.55 383.933 508.344C416.969 561.947 450.55 615.743 490.38 664.699C506.227 715.363 519.739 766.756 531.884 818.56C529.99 816.141 528.086 813.723 526.2 811.292C521.522 804.871 515.931 797.555 511.495 790.966C500.736 775.774 490.321 758.96 480.97 742.871C459.76 706.007 441.452 667.005 424.729 627.927C418.302 613.146 408.858 590.234 402.587 575.148C391.379 548.195 379.373 520.954 361.786 497.399C344.251 473.955 320.299 453.49 291.525 446.193C316.827 459.065 336.483 480.65 350.883 504.739C365.373 529.034 375.052 555.647 384.945 582.107C394.059 606.608 404.323 631.909 415.206 655.698C443.753 717.348 480.321 777.396 532.625 821.666C537.751 843.646 542.634 865.692 547.344 887.792C537.157 878.406 527.118 868.513 517.868 858.491C440.018 774.78 396.693 666.812 328.251 575.983C319.835 565.04 311.07 554.356 301.681 544.238C306.653 553.066 316.859 571.406 321.679 580.242C382.34 690.368 435.637 824.242 548.12 891.401C553.586 917.112 558.818 942.879 563.947 968.685C534.991 926.4 493.635 893.438 457.984 857.226C432.543 831.649 408.3 804.286 386.039 775.887C346.777 726.273 313.468 672.518 283.133 616.947C288.716 635.868 295.649 654.34 303.425 672.478C329.258 731.356 365.158 786.055 408.435 833.604C419.969 846.389 432.4 858.963 445.035 870.633C483.718 906.728 528.002 936.132 564.988 974.014C568.414 991.329 571.801 1008.65 575.176 1025.97C556.875 1003.75 532.303 986.615 509.382 969.709C420.097 904.116 344.089 821.695 285.515 727.672C280.926 719.952 275.937 711.676 271.249 703.914C267.982 698.172 261.077 685.751 257.697 679.685C253.485 672.127 248.945 662.729 244.836 655.019C240.781 647.32 234.522 633.636 230.633 625.743C226.151 616.119 221.703 605.543 217.197 595.954C255.873 748.265 355.801 883.505 486.271 970.265C516.469 990.818 550.387 1007.15 576.495 1032.76C579.845 1050 583.195 1067.23 586.573 1084.46C587.271 1089.05 588.169 1093.62 589.263 1098.16C591.197 1107.98 593.148 1117.78 595.11 1127.59C576.638 1092.87 548.896 1063.38 519.509 1037.44C483.02 1005.35 443.088 977.152 406.755 944.917C327.377 874.564 264.097 788.946 215.202 694.706C218.905 706.075 223.203 718.166 227.705 729.241C232.009 740.129 237.487 752.373 242.6 762.915C277.393 835.066 327.096 900.236 386.793 953.598C427.487 990.584 474.561 1020.1 517.958 1053.63C526.721 1060.34 535.873 1067.91 544.271 1075.05C551.476 1081.38 558.942 1088.28 565.853 1095.04C571.996 1101.3 578.711 1108.42 584.372 1115.03C588.224 1119.3 591.593 1123.91 595.253 1128.35C602.377 1163.87 609.755 1199.29 617.666 1234.51C612.229 1196.82 606.966 1158.82 601.559 1120.65C607.016 1097.2 615.565 1074.6 626.222 1053.03C650.845 1003.13 683.262 957.61 711.131 909.363C755.387 834.231 795.699 756.062 824.742 673.647C832.919 650.162 840.173 625.082 838.394 599.973C835.755 624.81 826.085 647.56 815.643 669.948C778.965 748.385 737.098 824.305 694.077 899.457L694.094 899.443ZM137.977 127.176C136.444 125.96 134.91 124.745 133.367 123.531C133.174 121.491 132.894 119.478 132.518 117.494C134.047 120.888 135.874 124.135 137.977 127.176Z" fill="#A48F70"/>
</svg>
