<svg width="93" height="299" viewBox="0 0 93 299" fill="none" xmlns="http://www.w3.org/2000/svg">
<path fill-rule="evenodd" clip-rule="evenodd" d="M67.2609 12.0498C68.1543 11.8946 69.3497 12.193 69.7056 12.6797C69.7911 12.8097 70.1712 13.1505 70.5433 13.4536C70.9272 13.752 71.7392 14.461 72.3669 15.0313L73.505 16.0479L74.0433 15.7534C75.3301 15.0404 77.5131 14.3689 78.1673 14.506C78.7463 14.6251 79.251 15.2986 80.4043 17.4753C81.9488 20.4181 82.7217 22.8406 83.0625 25.7747C83.1852 26.8446 83.2105 28.635 83.1079 29.2211C83.009 29.7648 83.0183 29.7884 83.3811 30.327C84.6802 32.2688 84.7596 35.7495 83.5722 38.2849C82.733 40.0963 81.2492 41.4327 79.1728 42.253C78.0095 42.7262 77.9458 42.7378 76.8765 42.7238C76.2735 42.7165 75.6612 42.6856 75.5329 42.6545C75.3294 42.6053 75.2632 42.6451 75.0711 42.9528C74.758 43.4721 74.1036 44.1807 73.6146 44.5307C73.2472 44.7918 73.1831 44.9058 73.0493 45.6202C72.8372 46.7405 72.8383 48.4177 73.0549 52.608C73.2319 55.8524 73.2537 59.8605 73.1343 63.0105C73.043 65.3516 73.3759 69.3186 73.88 71.82C73.9849 72.3446 74.5075 75.1864 75.0369 78.1143C75.5603 81.0445 76.2578 84.5879 76.591 85.9838C76.9101 87.3785 77.3187 89.3448 77.5005 90.3573C78.071 93.5621 78.5645 95.5016 79.4952 98.2027C80.2617 100.471 80.439 100.885 81.1716 102.273C81.855 103.572 82.2694 104.172 82.5809 104.322C82.6056 104.332 82.7606 104.155 82.9253 103.933C83.1896 103.549 83.2006 103.456 83.0755 102.674C82.8783 101.415 82.8278 99.7162 82.9643 98.353C83.0459 97.4546 83.1813 96.917 83.4823 96.2116C83.9176 95.2076 84.268 94.7827 84.8461 94.5544C85.6543 94.2351 86.4269 94.5163 87.5978 95.5813L88.2876 96.2226L88.3988 95.2785C88.7115 92.6522 89.5835 90.596 90.6606 89.9045C91.9561 89.0926 93.8229 90.4692 95.4438 93.45L95.9768 94.4192L96.2023 93.73C96.6044 92.5209 97.6855 90.0616 98.3251 88.936C100.214 85.5709 101.96 84.4311 103.403 85.6139C103.798 85.9418 103.862 86.0528 104.334 87.2644C104.737 88.319 104.89 88.8791 105.12 90.1863C105.273 91.0738 105.588 92.75 105.815 93.8946C106.435 97.0183 106.761 99.2422 106.879 101.112L106.993 102.799L108.153 100.159C110.163 95.6138 111.955 93.1257 114.077 91.9534C114.708 91.6016 115.619 91.5077 116.128 91.7431C116.992 92.1519 117.769 93.0657 118.252 94.2526L118.536 94.9722L119.1 94.4152C119.897 93.6365 120.737 93.1548 121.744 92.9071C122.911 92.6164 123.637 92.7114 124.405 93.2399C125.342 93.8858 125.814 94.5792 126.305 96.0288C126.656 97.0903 126.94 98.5331 126.858 98.9473C126.845 99.0344 126.959 98.9619 127.16 98.7802C128.932 97.0164 130.304 95.9834 131.739 95.3346C133.408 94.5727 134.308 94.5718 135.007 95.3391C136.26 96.6989 136.382 100.927 135.26 104.541C134.16 108.092 131.645 113.239 128.953 117.405C128.087 118.75 125.003 123.201 124.168 124.315L123.797 124.809L126.722 123.736C131.859 121.842 133.829 121.391 136.178 121.555C138.629 121.718 140.036 123.345 139.361 125.227C138.956 126.342 138.202 127.315 136.62 128.766C133.989 131.169 130.924 133.164 125.693 135.872C121.39 138.117 115.885 140.701 113.033 141.855L110.973 142.683L111.526 143.91C112.435 145.951 112.922 148.289 112.875 150.483C112.844 152.166 112.174 154.49 111.437 155.422C110.553 156.569 108.294 157.564 106.533 157.578C106.385 157.582 106.431 157.734 106.85 158.639C107.496 160.069 108.699 163.665 109.072 165.352C109.24 166.104 109.705 168.266 110.096 170.137C112.54 181.931 113.769 185.939 116.462 191.047C119.114 196.069 122.179 200.443 126.695 205.642C127.558 206.638 130.753 210.858 133.341 214.439C136.271 218.471 137.636 220.926 139.937 226.284C141.986 231.039 143.358 235.203 144.259 239.382C144.608 241.024 144.696 241.575 145.276 245.615C145.465 246.905 145.733 248.722 145.874 249.648C146.014 250.575 146.383 253.13 146.686 255.329C147.371 260.275 147.788 262.245 149.009 266.181C149.461 267.619 151.174 271.695 153.02 275.712C153.731 277.252 153.941 277.783 153.887 277.907C153.791 278.129 153.029 278.15 151.086 277.997C149.633 277.876 148.162 277.57 147.858 277.336C147.667 277.18 144.241 269.061 143.715 267.523C142.91 265.14 142.287 262.215 141.644 257.757C140.904 252.519 139.681 245.609 139.007 242.78C136.81 233.507 133.654 226.141 128.472 218.15C127.064 215.985 121.571 208.192 119.18 204.97C114.357 198.459 112.452 195.243 109.881 189.201C108.282 185.481 107.483 182.578 105.903 174.869C104.833 169.638 104.856 169.732 103.558 166.48C101.838 162.161 100.755 160.181 98.8001 157.735C98.1815 156.963 97.5865 156.182 97.4637 155.992C97.3431 155.808 97.2096 155.642 97.1613 155.641C97.1248 155.635 96.7966 156.099 96.462 156.667C95.1013 158.971 93.0665 161.364 89.5016 164.907C88.1165 166.286 86.7475 167.482 84.3625 169.419C80.7473 172.334 77.8908 174.356 75.7909 175.445C74.3744 176.175 71.5363 177.208 70.7599 177.262C69.2071 177.371 68.3525 176.433 68.4715 174.75C68.5647 173.328 69.96 170.663 72.0633 167.943C72.4814 167.396 73.4652 166.21 74.2558 165.311C75.0464 164.412 76.0478 163.218 76.4908 162.648L77.3007 161.625L75.009 162.401C70.5235 163.907 66.8884 164.839 62.8587 165.497C56.5933 166.519 52.9799 166.228 50.5822 164.509C49.307 163.594 48.6925 162.419 48.8568 161.16C48.9439 160.362 49.6296 158.905 50.2619 158.123C50.8929 157.355 52.3066 156.169 53.588 155.356C54.143 155.001 54.6486 154.658 54.7124 154.612C54.7762 154.566 54.3729 154.392 53.8142 154.237C51.3931 153.564 49.5904 152.626 48.1251 151.282C47.2944 150.525 47.2874 150.508 46.8773 149.47C46.5184 148.561 46.4686 148.349 46.5145 147.826C46.6187 146.571 47.4309 145.295 48.9084 144.064C49.887 143.261 51.891 142.033 52.6588 141.784L53.2308 141.592L52.1983 140.671C50.4618 139.106 49.95 138.156 50.3253 137.155L50.5182 136.642L49.8494 136.054C47.8721 134.346 45.6819 131.202 45.1855 129.393C44.9384 128.508 45.0482 127.613 45.4593 127.048C46.08 126.202 46.5902 125.871 48.4661 125.13C51.3624 123.986 53.7099 123.679 57.599 123.943L59.1579 124.057L58.1206 123.416C56.9964 122.729 55.8803 121.785 55.2735 121.009C54.7359 120.321 54.3434 119.276 54.4036 118.686C54.4652 118.048 54.7598 117.741 55.5975 117.41C57.143 116.799 61.0127 116.634 63.2639 117.068C63.6664 117.154 64.0006 117.206 64.0183 117.199C64.0478 117.188 63.6011 116.73 63.0263 116.173C60.8329 114.039 59.6255 112.415 58.9426 110.721C58.5556 109.776 58.5035 109.558 58.5583 109.127L58.6158 108.634L57.9003 107.669C57.0641 106.553 56.5793 106.172 55.7696 106.021C54.9741 105.872 54.597 105.918 53.1003 106.394C52.2394 106.666 51.6617 106.792 51.3992 106.766C50.7776 106.711 49.8162 106.505 49.7836 106.422C49.7673 106.381 49.2069 106.602 48.5496 106.889C47.1749 107.5 46.1655 107.776 44.3225 108.014C42.8046 108.211 41.6331 108.128 40.4922 107.76C38.1058 106.985 34.9046 104.199 33.1888 101.392C32.7559 100.71 32.4199 99.9633 31.8489 98.5181C31.1872 96.8087 31.0082 96.252 30.4844 93.9767C30.1536 92.5525 29.731 90.8441 29.537 90.1978C29.3467 89.5433 29.1531 88.7946 29.106 88.52C29.046 88.23 28.806 87.6224 28.5023 87.0263C28.2267 86.4669 27.8559 85.5973 27.692 85.096C27.5234 84.583 26.8497 82.9124 26.1944 81.3573C25.3384 79.3632 24.8888 78.1905 24.658 77.3474C24.4676 76.6929 24.2982 76.0916 24.2703 76.0208C24.1901 75.766 24.5152 75.208 24.8337 75.0821C25.0638 74.9912 25.3379 75.0466 26.0047 75.3015C27.5191 75.8897 27.6584 75.8279 27.2262 74.7166C26.8348 73.6914 26.8036 73.2673 27.1053 72.6844C27.2561 72.393 27.3538 72.1225 27.3305 72.0635C27.2349 71.8216 27.4976 71.261 27.7395 71.1654C27.9695 71.0745 29.4705 71.2317 30.3659 71.4439C30.6342 71.5016 30.7061 71.4937 30.6264 71.3956C30.5643 71.3247 30.3559 71.0387 30.1652 70.7458C29.8071 70.1849 29.7813 69.895 30.0821 69.7762C30.1647 69.7435 30.901 69.9846 31.7535 70.2956C34.1841 71.2176 35.0379 71.5145 36.9706 72.0739C37.9752 72.3726 39.1819 72.7688 39.6723 72.957C40.6846 73.3617 42.4097 74.276 43.3833 74.9279L44.0633 75.3889L43.4394 73.6373C42.911 72.1616 42.8334 71.8445 42.9239 71.6246C42.9799 71.4729 43.1042 71.3215 43.1927 71.2865C43.2812 71.2516 44.2472 71.4701 45.3165 71.7773C47.5163 72.4085 50.3602 73.6173 52.4409 74.8275C55.6707 76.7021 58.5628 79.3103 60.3441 81.9549C61.0416 82.9955 62.0913 85.1518 62.4364 86.2498C63.2543 88.9068 63.0017 91.5299 61.6337 94.4367C61.2355 95.2759 60.9332 96.0296 60.9681 96.1181C61.0777 96.3953 60.9306 97.7492 60.7106 98.5044C60.5841 98.909 60.3204 99.7088 60.1213 100.258C59.666 101.522 59.6267 101.906 59.8186 103.03C60.0074 104.061 60.1486 104.366 61.4112 106.302C62.1904 107.515 62.317 107.663 62.637 107.748C65.997 108.623 67.9201 109.227 69.5379 109.904L71.4308 110.691L70.2883 107.937C69.0058 104.863 68.5281 103.361 68.2298 101.501C67.9582 99.726 68.105 98.1813 68.642 97.3486C69.0238 96.7613 69.74 96.4511 70.57 96.5323C71.1917 96.5868 72.5577 97.1792 73.3798 97.7409C73.6757 97.9377 74.5438 98.495 75.3144 98.9611L76.7194 99.8245L76.529 99.17C76.4233 98.8162 76.1548 97.9812 75.9233 97.3089C74.738 93.8082 73.791 89.6678 71.728 79.0601C70.5017 72.7455 69.7535 65.6214 69.7937 60.6136C69.7982 60.1072 69.7754 58.8068 69.7576 57.7432C69.7351 56.6678 69.7096 54.9116 69.7153 53.8387C69.7133 51.5549 69.5178 47.6768 69.3247 46.2733C69.1671 45.1148 68.9558 44.6664 68.3333 44.2645C67.4583 43.6895 67.314 43.5487 66.9442 42.9924L66.5816 42.4197L65.7993 42.4764C64.19 42.5803 62.3462 42.1425 60.2375 41.1548C58.3239 40.2468 57.4122 39.1818 56.4054 36.6335C55.4895 34.3152 55.3375 33.2228 55.3571 29.4575C55.3721 28.149 55.317 26.4386 55.2543 25.6587C55.1101 24.1199 55.1619 23.5606 55.5015 23.1946C55.7464 22.9342 56.18 22.8925 56.6539 23.0735L56.9514 23.1878L57.0549 22.3968C57.3068 20.4969 58.733 18.0308 60.5564 16.3284C61.3569 15.5757 61.5644 15.5483 62.1309 16.1019C62.3455 16.3172 62.5545 16.4665 62.6135 16.4432C62.7256 16.3989 64.0825 14.4307 64.2263 14.1216C64.4679 13.542 64.7851 13.1711 65.1037 13.0453C65.2971 12.9825 65.5592 12.8176 65.6834 12.7003C65.8953 12.4598 66.5949 12.1765 67.2609 12.0498ZM65.7716 13.286C65.5268 13.5123 65.7428 13.6793 66.4935 13.8533C66.9101 13.941 67.3582 14.0913 67.4874 14.1767C67.7082 14.3213 67.7554 14.3027 68.0638 14.0649C68.2541 13.9079 68.5245 13.7465 68.6661 13.6906C68.9551 13.5764 69.1245 13.073 68.9405 12.8661C68.8021 12.723 68.1689 12.6049 67.6341 12.6321C67.2194 12.6527 65.9915 13.0832 65.7716 13.286ZM64.6264 14.4955C64.4329 14.8515 63.9206 15.6608 63.488 16.3091C61.6033 19.1337 59.8462 22.4193 59.5402 23.7336C59.2811 24.8384 59.4305 25.9933 59.9138 26.7161L60.1151 27.0185L60.3672 26.1892C61.1095 23.6319 62.7192 20.9228 65.4611 17.6096C66.2709 16.6213 66.8206 15.8722 67.1685 15.2165C67.3893 14.8087 67.3918 14.7805 67.1461 14.6593C67.0016 14.5868 66.6216 14.471 66.2804 14.4012C65.9509 14.3268 65.5382 14.1625 65.3738 14.057C65.2106 13.9373 65.059 13.8472 65.0413 13.8542C65.0095 13.8599 64.8328 14.1548 64.6264 14.4955ZM60.8276 16.8078C60.1912 17.4411 59.142 18.7899 58.6614 19.6276C58.0302 20.7226 57.6652 21.8011 57.5975 22.7689C57.5227 23.7191 57.5996 23.9138 58.3457 24.6283L58.7738 25.0388L58.8329 24.429C58.9537 23.181 59.6858 21.3574 60.7994 19.5672C60.9204 19.3557 61.2182 18.8494 61.4484 18.4311C61.681 18.0186 61.9481 17.5381 62.0477 17.376L62.2352 17.0564L61.841 16.6802C61.6311 16.4767 61.4115 16.318 61.3584 16.3389C61.3017 16.3681 61.0641 16.5779 60.8276 16.8078ZM69.4904 13.7059C69.4619 13.7717 69.2007 13.9908 68.9148 14.1993L68.388 14.5574L69.0516 14.9772C69.4122 15.2166 69.7446 15.4194 69.7858 15.4373C70.021 15.5148 72.5013 17.2014 73.5473 18.002C74.4712 18.7009 76.493 21.0391 77.2977 22.3511L77.7515 23.0856L77.5466 22.5323C77.0003 21.0978 75.4467 18.9088 73.6315 17.0413C72.4084 15.7924 69.7717 13.4856 69.6183 13.5462C69.5806 13.5543 69.532 13.6212 69.4904 13.7059ZM67.3769 16.0548C66.9939 16.6562 65.6095 18.4511 65.1588 18.9156C65.0925 18.9895 64.9457 19.1703 64.8378 19.3288C64.7253 19.4756 64.3024 20.045 63.902 20.5851C62.2412 22.837 60.8266 25.885 60.6781 27.5803C60.6166 28.1843 60.686 28.4979 61.1998 30.0748C62.4916 34.0176 63.4502 35.6847 65.1664 37.0253C65.8989 37.602 67.6925 38.4823 70.0757 39.4571C71.4831 40.0331 71.6843 40.0764 72.4052 40.0371C73.8225 39.9477 75.836 38.9681 76.8006 37.871C77.2053 37.411 77.6515 36.3482 77.7846 35.5114C77.8911 34.8487 77.7826 32.1229 77.6113 30.8607C77.5312 30.3127 77.2728 29.2964 77.0007 28.4696C76.6031 27.2559 76.5535 27.0096 76.6639 26.8228C76.869 26.4962 77.0905 26.4701 77.7975 26.6886C78.2468 26.8248 78.4587 26.8434 78.4733 26.7421C78.4866 26.655 78.2131 25.8765 77.8659 24.9976C76.5828 21.8015 74.5509 19.3513 71.4645 17.27C69.0077 15.6083 68.0467 15.04 67.9152 15.2079C67.8749 15.2784 67.6342 15.6531 67.3769 16.0548ZM74.025 16.4494C74.0118 16.5023 74.2684 16.8238 74.6037 17.1891C75.3412 17.9684 76.2314 19.117 77.0332 20.3006C77.8466 21.5136 79.2061 24.7477 79.5798 26.3323L79.8307 27.4334L80.6724 27.8033C81.1214 28.0078 81.7348 28.3519 82.0129 28.5898L82.5305 29.0196L82.5523 28.3154C82.5788 27.6229 82.4157 25.5529 82.2528 24.5193C82.0143 23.0177 81.6519 21.8243 80.8578 19.9353C80.0288 17.9578 79.9857 17.8657 79.0969 16.3756C78.2724 14.9964 78.2724 14.9964 77.2494 15.1687C76.6034 15.2944 74.1082 16.2801 74.025 16.4494ZM55.79 23.7694C55.759 23.8635 55.7827 24.9248 55.8447 26.1346C55.9185 27.3398 55.9555 29.1597 55.9265 30.1736C55.8787 33.0908 56.1754 34.7739 57.1294 36.9816C57.6601 38.2041 58.353 39.2329 59.0631 39.8048C59.3201 40.0238 60.1873 40.4927 61.0056 40.8377C63.305 41.8592 65.04 42.1081 67.012 41.7313C67.5543 41.6194 67.8964 41.4842 68.5575 41.1207C69.0192 40.8565 69.5917 40.5622 69.8217 40.4713C70.0589 40.3639 70.2407 40.2716 70.229 40.2422C70.222 40.2245 69.2828 39.7976 68.1554 39.3088C67.0162 38.8246 65.8477 38.2837 65.547 38.1093C64.4638 37.4734 63.1881 36.1088 62.412 34.731C61.6288 33.3355 61.4177 32.8529 60.9366 31.3244C60.2741 29.2334 59.483 27.2137 59.0514 26.5181C58.3131 25.3572 57.0773 24.0587 56.3391 23.7093C55.9348 23.5145 55.8735 23.5319 55.79 23.7694ZM77.6604 28.4476C78.1652 29.9326 78.3135 30.8083 78.4291 32.9654C78.532 35.0729 78.4336 36.0665 78.0028 37.1164C77.5862 38.1334 77.0692 38.6718 75.7382 39.5318C74.6977 40.1952 73.4979 40.6624 72.7417 40.6816C72.5415 40.6925 72.3587 40.7306 72.3409 40.7717C72.285 40.8893 74.4824 41.8079 75.1873 41.9522C76.2699 42.1724 77.9084 42.1251 78.74 41.8307C79.9384 41.4118 81.2463 40.4587 82.3044 39.2359C83.1128 38.2959 83.8403 35.9081 83.8038 34.245C83.7908 33.4181 83.557 32.1875 83.2727 31.4678C83.028 30.8484 82.2214 29.6873 81.6502 29.1218C81.4426 28.9243 80.9293 28.6088 80.4895 28.4279C79.2104 27.883 77.4054 27.1981 77.3288 27.2284C77.2875 27.2447 77.4382 27.7989 77.6604 28.4476ZM68.7718 41.6976C68.394 41.915 67.8806 42.1519 67.6318 42.2298C67.1648 42.3597 67.153 42.3644 67.3146 42.6006C67.585 42.9916 68.1271 43.4662 68.6628 43.7865C69.666 44.3926 69.9775 45.6471 70.1882 49.8398C70.2345 50.8375 70.2841 52.4819 70.2928 53.4878C70.292 54.5042 70.3142 56.2003 70.3367 57.2757C70.3545 58.3394 70.3823 59.8423 70.3838 60.6055C70.3888 64.9681 71.0011 71.6275 71.8278 76.361C72.3704 79.4951 74.7002 90.7953 75.2238 92.8456C75.6384 94.5163 76.5807 97.5402 77.1409 99.0101L77.7152 100.515L78.6158 101.155C79.1031 101.508 79.7453 101.977 80.0353 102.211L80.5777 102.617L80.1039 101.59C79.846 101.024 79.2671 99.5068 78.8238 98.2293C77.9443 95.658 77.4 93.4862 76.8077 90.14C76.6052 89.0061 76.1942 87.068 75.9074 85.8242C75.3926 83.6408 74.4108 78.5321 73.9405 75.5809C73.8155 74.7983 73.5555 73.3462 73.3583 72.3466C72.6998 69.0743 72.3988 65.6197 72.5064 62.7676C72.6312 59.7176 72.6021 55.2078 72.4429 52.5088C72.2475 49.1489 72.2267 47.4045 72.3533 46.1543C72.4809 44.9582 72.6798 44.4431 73.1665 44.0872C73.5872 43.771 74.6533 42.6201 74.6136 42.5198C74.5973 42.4785 74.0719 42.236 73.4406 41.9671C72.8151 41.696 71.9913 41.2849 71.6201 41.036L70.9436 40.6009L70.1989 40.9428C69.7764 41.1507 69.1449 41.4683 68.7718 41.6976ZM27.9231 72.0271C27.9284 72.1614 27.8125 72.5414 27.6721 72.8764C27.4296 73.4019 27.4244 73.5267 27.5759 73.9101C27.6668 74.1402 27.8307 74.6414 27.9433 75.0129L28.1336 75.7016L28.7111 75.6098C29.3451 75.523 29.8549 75.5534 32.1597 75.8636C33.0037 75.9802 33.6889 76.0573 33.7031 76.0244C33.7138 75.9997 33.3978 75.5449 32.9831 75.0132C32.579 74.4909 32.009 73.6522 31.7213 73.1657C31.1962 72.3025 31.1727 72.2777 30.661 72.1389C29.9398 71.9533 28.179 71.6737 28.0315 71.732C27.9654 71.7717 27.9106 71.9093 27.9231 72.0271ZM31.9086 72.328C32.8772 73.882 33.9335 75.3128 34.5821 75.9363C34.7733 76.1267 35.1469 76.3474 35.4104 76.4274C36.5502 76.775 39.6422 78.0767 41.2805 78.9093C43.5276 80.0401 44.2372 80.4553 45.5075 81.4265L46.5205 82.2129L46.0305 81.1108C45.7682 80.4984 45.2941 79.2467 44.9824 78.3197L44.4207 76.6389L43.8294 76.1088C42.3616 74.7928 40.1542 73.7281 36.5255 72.6044C34.9647 72.1231 33.0746 71.4991 32.3326 71.2262C31.5859 70.9415 30.972 70.734 30.9636 70.7645C30.9482 70.7774 31.3786 71.4871 31.9086 72.328ZM24.9318 76.1072C25.2508 77.536 25.5789 78.4703 26.5539 80.731L27.6268 83.2396L27.3327 81.2349C26.9419 78.6751 26.8341 77.1765 26.9999 76.6814L27.1322 76.3086L26.798 76.2565C26.6155 76.2263 26.1792 76.0713 25.8336 75.9214C25.0836 75.5767 24.8255 75.6309 24.9318 76.1072ZM27.6133 76.7323C27.3465 77.4378 28.0346 82.6147 28.7018 84.9767C29.0894 86.3375 29.9316 88.262 30.6837 89.4925C31.334 90.5517 33.2297 93.158 34.0631 94.1109C34.8952 95.0778 36.2396 96.3402 37.1694 97.0367C38.739 98.2306 42.4283 100.06 44.0272 100.465C45.432 100.81 45.1858 101.378 43.7631 101.074C42.4499 100.788 38.7582 98.9868 37.2035 97.8825C36.1855 97.1527 34.4656 95.5612 33.5959 94.5682C32.8762 93.7478 30.5318 90.5754 30.2209 90.03C30.1472 89.8954 30.2915 90.5885 30.5323 91.5777C30.7802 92.5504 31.1249 94.01 31.2983 94.794C31.7534 96.8782 32.9979 100.028 33.8851 101.342C36.1965 104.793 39.6026 107.287 42.2424 107.478C43.0973 107.536 44.6196 107.385 45.9941 107.101C49.0837 106.48 54.6176 102.726 56.3532 100.076C56.5428 99.7963 57.1568 99.1582 57.7219 98.6554C59.085 97.4622 59.3951 97.1078 60.0252 95.9928C60.978 94.3479 61.6861 92.6361 61.9411 91.3828C62.2335 89.9307 62.2765 89.2454 62.1356 88.0258C61.988 86.7202 60.9718 84.1824 60.0275 82.7415C57.5011 78.8841 53.7343 75.8918 48.5135 73.6035C47.1592 73.0065 43.6954 71.8858 43.4831 71.9697C43.4536 71.9814 43.606 72.419 43.8134 72.944C44.0185 73.4631 44.5466 75.007 44.9825 76.3692C45.538 78.1206 46.0492 79.5008 46.7233 81.0689C48.5156 85.2777 50.0054 87.5125 53.2245 90.7757C55.6555 93.2523 56.8147 94.8743 57.4278 96.6507C57.7174 97.5046 57.7018 97.845 57.3951 97.9661C57.2358 98.0291 57.1844 97.9334 56.8437 96.9156C56.2015 95.0484 55.3142 93.7691 53.0989 91.5277C50.4719 88.883 49.3836 87.4921 47.9573 85.021C46.4386 82.368 43.894 80.5705 38.2885 78.1887C35.4327 76.9846 35.0104 76.865 32.4561 76.5102C29.7947 76.1432 29.4015 76.1145 28.7793 76.1966C27.999 76.3276 27.7146 76.4536 27.6133 76.7323ZM59.7402 97.6534C59.5093 97.9492 57.3064 99.9857 57.1471 100.049C57.1059 100.065 56.8489 100.398 56.5751 100.793C55.7692 101.964 53.4309 103.985 51.4328 105.245C50.2483 105.993 50.2625 105.96 50.9533 106.103C51.5158 106.215 51.6454 106.198 52.7482 105.83C54.5162 105.248 55.2161 105.19 56.2993 105.532C57.0063 105.751 57.5603 106.187 58.1013 106.934C58.956 108.131 58.8667 108.078 59.5769 107.804C60.0122 107.646 60.3881 107.579 60.8474 107.602L61.4939 107.633L60.6865 106.384C59.7599 104.936 59.2688 103.814 59.1097 102.738C58.9627 101.848 59.0616 101.304 59.6469 99.6611C60.0831 98.4522 60.2997 97.6369 60.3612 97.033L60.3954 96.7399L60.1881 97.0264C60.0778 97.2132 59.8835 97.4809 59.7402 97.6534ZM69.3744 97.407C68.5786 98.1374 68.4765 100.278 69.1268 102.995C69.3893 104.125 69.6176 104.737 71.2358 108.626C72.2303 111.023 73.2377 113.4 73.463 113.884C73.8857 114.747 73.9161 114.789 74.4016 115L74.9036 115.218L74.5921 114.256C74.1618 112.96 74.0111 111.853 74.0842 110.727C74.2211 108.709 75.1904 107.623 76.7741 107.714C77.2675 107.737 79.3826 108.62 80.5116 109.285C80.9016 109.513 81.2507 109.689 81.2861 109.675C81.3215 109.661 81.4106 109.196 81.4695 108.655C81.6088 107.454 81.8792 106.188 82.1248 105.497C82.2343 105.222 82.3085 104.961 82.2945 104.926C82.2479 104.808 80.4933 103.353 79.1726 102.34C78.4471 101.781 77.2528 100.95 76.5222 100.482C72.8151 98.1413 72.2559 97.7962 71.6482 97.518C71.0711 97.2482 70.0024 97.0635 69.6957 97.1846C69.6261 97.1985 69.4832 97.3027 69.3744 97.407ZM100.888 86.43C99.8808 87.2984 98.5511 89.5082 97.473 92.0959C96.6865 93.9888 96.0242 96.2827 95.2854 99.6774L94.8012 101.921L95.2566 102.573C95.7283 103.267 96.6393 104.796 96.8973 105.328L97.0573 105.647L97.2724 104.914C97.5342 104.006 98.0528 103.092 98.5208 102.723C98.8292 102.485 98.9341 102.457 99.3144 102.505C99.8194 102.558 100.378 102.971 100.828 103.625C101.232 104.216 104.095 111.275 104.637 113.025C104.862 113.734 105.11 114.741 105.208 115.282C105.301 115.811 105.396 116.258 105.414 116.271C105.48 116.299 105.924 113.935 106.123 112.404C106.471 109.866 106.493 108.643 106.339 103.869C106.21 99.9171 105.943 97.7582 105.1 93.57C104.927 92.7177 104.662 91.3221 104.504 90.4569C104.031 87.7731 103.624 86.6242 102.932 86.0111C102.372 85.5435 101.776 85.6564 100.888 86.43ZM90.4254 90.9317C89.6996 91.839 89.07 93.9222 88.9152 95.9815L88.8287 96.9363L90.0347 98.608L91.2407 100.28L91.7156 100.222C92.3047 100.159 93.1267 100.462 93.75 100.952C94.0047 101.165 94.2443 101.323 94.2856 101.307C94.3269 101.29 94.5189 100.464 94.7257 99.4689C94.9443 98.4687 95.2468 97.1285 95.4121 96.4767L95.7151 95.2932L95.1241 94.1423C93.7878 91.5196 92.1281 89.9249 91.1548 90.3094C90.9601 90.3863 90.6397 90.6629 90.4254 90.9317ZM84.5879 95.4543C83.6437 96.482 83.2681 99.2081 83.6532 102.254C83.7138 102.701 83.7769 103.085 83.7851 103.089C83.8075 103.094 84.0725 103.091 84.3952 103.08C85.3823 103.058 86.7629 103.842 88.2972 105.309C88.5705 105.57 88.8264 105.769 88.8677 105.752C88.8972 105.741 89.0161 105.196 89.1237 104.553C89.4332 102.678 89.7237 101.929 90.6145 100.732C90.7212 100.587 90.589 100.374 89.349 98.6675C87.4966 96.1191 86.3693 95.0437 85.4896 95.0094C85.0091 95.0014 84.9902 95.0226 84.5879 95.4543ZM59.3023 108.663C59.0171 108.994 59.1303 109.781 59.6111 110.825C60.4105 112.555 62.0335 114.506 64.4484 116.613C65.6804 117.695 67.3332 119.013 67.3676 118.945C67.3724 118.923 67.2029 118.614 67.0007 118.258C66.4592 117.353 66.1026 116.192 66.1523 115.592C66.2394 114.76 66.3863 114.579 67.2948 114.186C68.587 113.608 69.7729 113.623 71.9798 114.238L73.0903 114.563L72.4743 113.177C72.0625 112.255 71.7703 111.723 71.6072 111.569C71.1249 111.159 67.5304 109.742 65.4765 109.169C61.7674 108.118 59.8953 107.971 59.3023 108.663ZM83.4482 104.204C82.7775 105.164 82.29 106.796 82.0418 108.947L81.8931 110.124L82.9045 111.027C83.9206 111.942 84.4242 112.595 84.2501 112.828C84.1174 113.01 83.839 112.84 83.2705 112.212C82.6691 111.536 81.7219 110.778 80.7234 110.15C79.6169 109.455 77.7669 108.569 77.1339 108.417C75.3783 108.013 74.4857 109.361 74.6956 112.067C74.7561 112.807 74.8479 113.091 75.6401 115.131C76.4907 117.284 76.5162 117.383 76.3275 117.458C76.1092 117.544 75.8829 117.299 75.5985 116.614C75.4259 116.211 75.318 116.111 74.7914 115.848C73.8171 115.367 70.915 114.529 69.8932 114.428C68.3909 114.285 67.0385 114.642 66.8322 115.242C66.6318 115.84 66.7992 116.626 67.3601 117.666C68.0321 118.901 68.8945 119.944 70.3972 121.349C71.1128 122.021 71.266 122.288 71.0064 122.39C70.7941 122.474 70.4275 122.271 69.9583 121.809C69.4083 121.262 69.0906 121.183 67.6643 121.18C65.6338 121.185 64.5849 121.326 63.4019 121.732C62.3923 122.077 62.2766 122.129 61.8531 122.576C61.568 122.873 61.4185 123.116 61.4628 123.228C61.6119 123.606 62.3759 124.538 63.0258 125.147C64.0816 126.128 64.7609 126.467 66.2424 126.782C67.4898 127.039 67.8705 127.243 67.595 127.495C67.3999 127.675 65.4146 127.293 64.5141 126.912C63.6911 126.555 62.1748 125.306 61.5951 124.512C61.21 123.969 61.2004 124.273 61.5755 125.257C61.9552 126.252 62.6966 127.214 63.9508 128.369C64.8342 129.173 65.1372 129.387 65.65 129.546C65.9817 129.66 66.5156 129.838 66.8249 129.948C67.2165 130.093 67.4932 130.12 67.6937 130.041C68.8499 129.584 71.2015 129.685 74.1067 130.324L76.0518 130.742L76.1031 130.319C76.1948 129.533 76.6021 128.752 77.1173 128.364C77.8168 127.822 79.3537 127.017 79.8878 126.901C80.4595 126.778 81.2803 126.801 81.825 126.954L82.2273 127.075L82.7246 126.176C83.3062 125.128 83.411 124.841 83.6465 123.745C83.9279 122.386 84.1115 122.143 85.1753 121.539C86.7302 120.659 87.6191 120.457 89.4088 120.569C89.9775 120.61 90.4534 120.606 90.4523 120.586C90.463 120.561 90.5963 119.95 90.743 119.251C91.1737 117.13 91.4162 116.864 93.5641 116.138C95.0609 115.628 95.5606 115.547 96.1523 115.715C96.3793 115.789 96.401 115.672 96.5745 113.919C96.7075 112.564 96.7195 111.679 96.6178 110.662C96.462 109.094 96.4698 108.354 96.6523 107.28C96.779 106.548 96.7744 106.536 96.3961 105.751C95.8905 104.73 94.7641 102.898 94.4392 102.576C94.1952 102.338 94.1952 102.338 94.279 102.585C95.0574 104.814 95.7813 107.406 95.7266 107.802C95.7056 108.043 95.6418 108.088 95.4018 108.033C95.2664 108.018 95.192 107.796 94.9512 106.806C94.4931 104.853 93.6103 102.515 93.0333 101.658C92.6132 101.026 92.5017 100.934 92.1568 100.873C91.6578 100.783 91.2944 100.934 90.8779 101.398C90.3843 101.961 89.9543 103.1 89.7127 104.525C89.1716 107.678 89.2267 107.472 88.9281 107.338C88.7635 107.266 88.7026 107.181 88.7108 106.926C88.7076 106.572 88.1988 106.01 87.0146 105.032C85.2412 103.564 84.0834 103.291 83.4482 104.204ZM114.514 92.7833C114.91 93.5269 114.785 95.2472 114 99.4921C113.724 101.02 113.222 103.339 112.892 104.663C111.991 108.251 110.336 114.108 109.684 115.996C107.754 121.573 104.472 128.973 103.066 130.885C101.572 132.921 98.4636 136.618 98.2067 136.658C98.0994 136.68 97.9667 136.603 97.8965 136.494C97.7971 136.329 97.9464 136.12 98.84 135.085C99.4223 134.419 100.324 133.319 100.858 132.651C101.388 131.971 102.039 131.134 102.315 130.78C103.181 129.674 103.93 128.239 105.62 124.421C107.197 120.818 108.565 117.392 109.337 115.083C110.108 112.807 112.304 104.711 112.875 102.098C113.192 100.623 113.845 97.0098 114.018 95.7409C114.161 94.6686 114.142 93.1892 113.968 93.0059C113.827 92.8569 113.709 92.9035 113.149 93.384C111.454 94.8243 110.063 97.1056 108.182 101.545C107.263 103.722 107.02 104.419 107.027 104.818C107.146 109.054 107.039 111.148 106.552 114.076C106.286 115.681 105.879 117.274 105.634 117.691C105.54 117.831 105.493 118.231 105.512 118.571C105.61 120.081 105.583 120.391 105.382 120.471C105.27 120.515 105.141 120.498 105.079 120.427C105.017 120.356 104.909 119.376 104.835 118.239C104.624 114.633 104.476 114.05 102.336 108.635C101.015 105.29 100.666 104.494 100.343 104.056C99.8279 103.338 99.4381 103.042 99.1091 103.125C98.5326 103.271 97.8705 104.685 97.4094 106.763C97.1296 108.039 97.092 109.118 97.2626 110.81C97.3676 111.887 97.3588 112.572 97.2345 113.535C97.1444 114.239 97.0749 115.065 97.096 115.377L97.123 115.946L97.8205 116.434C98.6719 117.018 99.7894 118.173 100.466 119.194C100.881 119.814 101.156 120.422 101.925 122.369C102.915 124.876 102.977 125.172 102.566 125.252C102.425 125.274 102.276 124.951 101.478 122.879C100.688 120.845 100.464 120.347 100.001 119.657C98.8249 117.872 97.4132 116.663 96.1495 116.364C95.3235 116.172 94.6706 116.28 93.1664 116.875C92.2108 117.252 92.147 117.298 91.8708 117.721C91.7036 117.971 91.4852 118.644 91.3662 119.223C91.0248 120.844 91.0251 120.776 91.4981 120.869C91.9948 120.952 93.597 121.676 94.7108 122.32C95.4569 122.742 96.8734 123.669 98.7829 124.981C99.7952 125.679 100.939 126.727 101.024 127.028C101.165 127.558 100.812 127.425 99.8325 126.584C98.7154 125.621 95.4494 123.413 93.8806 122.566C92.2931 121.707 91.364 121.392 89.8936 121.243C88.0699 121.064 87.5291 121.127 86.1838 121.727C84.7017 122.394 84.5254 122.587 84.238 123.982C84.1009 124.637 83.8588 125.353 83.619 125.782C82.7976 127.293 82.2675 128.696 82.1976 129.623C82.046 131.484 82.4945 133.741 83.4711 135.919C84.185 137.52 85.8318 140.238 86.2851 140.557C86.3543 140.611 86.9129 140.54 87.52 140.403C88.673 140.145 91.8234 139.903 93.0138 139.999C94.1747 140.072 94.097 140.635 92.9253 140.586C91.6935 140.541 88.8365 140.749 87.8829 140.941C87.3724 141.048 86.4601 141.224 85.8695 141.334C85.2766 141.439 83.7394 141.76 82.4497 142.051C79.6074 142.676 77.9382 143.302 76.0148 144.423C73.9981 145.602 71.8043 147.437 71.6839 148.064C71.5589 148.645 72.1921 149.316 73.7473 150.284C76.5678 152.02 79.5632 152.507 83.5208 151.892C85.4961 151.575 86.3274 151.349 87.7847 150.705C89.6964 149.847 91.4256 148.7 93.3963 146.974C94.2971 146.182 94.6865 145.735 95.2559 144.794C95.6983 144.066 95.9474 143.92 96.0849 144.268C96.2061 144.575 95.6222 145.617 94.8009 146.542C94.1405 147.287 93.8619 147.997 93.7888 149.124C93.6526 151.23 94.5313 152.868 96.5793 154.289C98.1154 155.346 100.38 156.176 102.885 156.612C106.335 157.199 108.198 157.029 109.786 155.973C110.633 155.406 110.947 155.064 111.345 154.258C111.995 152.951 112.343 150.482 112.128 148.678C111.876 146.609 111.169 144.405 110.329 143.073C108.796 140.658 106.399 138.857 105.017 139.069C104.757 139.117 104.334 139.325 103.695 139.727C103.134 140.085 102.334 140.511 101.644 140.783C100.622 141.201 100.489 141.226 100.219 141.114C99.9514 140.988 99.928 140.963 100.014 140.766C100.092 140.585 100.188 140.533 100.644 140.462C102.248 140.224 105.671 137.774 107.686 135.416C109.709 133.062 110.664 131.389 112.461 126.996C114.881 121.089 116.116 117.328 116.93 113.365C117.117 112.439 117.356 111.267 117.466 110.786C118.156 107.595 118.732 101.612 118.575 99.1099C118.477 97.43 118.076 95.6039 117.533 94.3661C117.144 93.4693 117.04 93.3264 116.484 92.8164C115.794 92.2092 115.313 92.0788 114.676 92.3305C114.352 92.4587 114.342 92.4692 114.514 92.7833ZM55.204 118.261C54.9839 118.498 54.9279 119.202 55.098 119.632C55.2751 120.081 55.9698 120.959 56.6303 121.577C57.2861 122.184 58.7707 123.146 59.9742 123.741L60.6512 124.074L60.7026 123.617C60.7523 123.018 60.9483 122.634 61.444 122.11C62.058 121.472 63.6541 120.869 65.1235 120.704C66.0225 120.615 67.5457 120.552 68.4253 120.587C68.5737 120.582 68.614 120.546 68.5673 120.428C68.5324 120.34 68.4631 120.285 68.4159 120.304C68.3039 120.348 66.5456 119.195 65.8015 118.588C65.312 118.195 65.0394 118.058 64.2957 117.901C62.227 117.464 60.8612 117.355 58.6406 117.483C56.7121 117.59 55.605 117.843 55.204 118.261ZM120.133 94.2665C119.894 94.4562 119.473 94.8408 119.201 95.1187L118.691 95.6407L118.926 96.7005C119.326 98.5949 119.361 100.6 119.035 104.159C118.869 105.929 118.66 107.887 118.572 108.474C118.471 109.066 118.447 109.506 118.502 109.436C118.542 109.366 119.172 108.476 119.872 107.449C121.391 105.253 123.67 102.409 125.163 100.803L126.229 99.6525L126.224 99C126.192 97.2261 125.548 95.1823 124.748 94.332C124.269 93.8259 123.701 93.4431 123.308 93.346C122.586 93.1745 120.907 93.6538 120.133 94.2665ZM47.6895 126.064C45.6909 127.134 45.2096 128.142 46.0993 129.427C47.6936 131.737 52.1864 133.788 57.4264 134.588C59.3062 134.875 59.2142 134.885 58.6425 134.456C57.4614 133.572 56.2121 132.102 55.8509 131.187C55.5083 130.32 55.7732 129.799 56.7642 129.408C57.9145 128.954 59.5354 128.879 62.4093 129.128C63.2052 129.209 63.8763 129.251 63.8999 129.242C63.9294 129.23 63.6234 128.921 63.2316 128.551C62.2978 127.672 61.6045 126.746 61.106 125.708L60.7067 124.87L59.8404 124.749C58.9211 124.614 56.6156 124.475 55.1634 124.476C53.882 124.477 51.7562 124.724 50.6419 125.028C50.0995 125.174 49.5111 125.324 49.3449 125.37C48.7411 125.533 48.5111 125.624 47.6895 126.064ZM130.738 96.5482C127.555 98.6241 121.949 105.026 118.667 110.339C118.07 111.312 118.014 111.464 117.547 113.632C117.278 114.884 116.981 116.202 116.876 116.578C116.435 118.239 114.774 123.028 113.787 125.518C113.177 127.013 112.551 128.604 112.376 129.042L112.063 129.82L112.831 129.019C114.28 127.492 115.766 125.78 118.1 122.955C122.998 117.037 126.92 111.566 128.663 108.211C131.907 101.958 133.53 97.9004 133.395 96.3511C133.344 95.7914 133.111 95.4606 132.787 95.5205C132.445 95.5873 131.489 96.0673 130.738 96.5482ZM133.903 95.9457C134.348 97.0724 133.153 100.641 130.61 105.717C128.993 108.961 128.465 109.919 127.202 111.85C125.223 114.903 122.061 119.187 119.569 122.183C118.769 123.147 117.53 124.653 116.792 125.531C115.489 127.116 112.532 130.317 111.707 131.059C111.469 131.269 111.042 131.826 110.752 132.302C109.303 134.709 107.756 136.541 105.766 138.254C105.702 138.3 106.104 138.523 106.647 138.759C107.582 139.174 107.647 139.182 108.107 139.001C108.738 138.751 111.154 137.012 112.726 135.675C114.382 134.257 116.677 131.919 119.518 128.771C122.649 125.269 125.146 121.992 128.155 117.386C131.269 112.617 134.017 106.901 134.892 103.384C135.201 102.13 135.405 100.126 135.362 98.7586C135.307 97.1507 134.782 95.7351 134.156 95.4639C133.816 95.3117 133.721 95.4856 133.903 95.9457ZM47.1037 131.97C47.8643 133.135 49.0351 134.494 50.0524 135.394L50.9747 136.21L51.7355 135.943C52.2793 135.749 52.7708 135.664 53.4693 135.654C55.0901 135.614 60.6211 136.409 62.2326 136.897C62.7231 137.051 63.4783 137.271 63.9111 137.4C64.6617 137.608 64.6323 137.586 63.351 137.001C62.6081 136.674 61.5949 136.181 61.1049 135.924C60.5266 135.634 60.0821 135.476 59.9053 135.512C59.5588 135.567 55.9029 135.013 54.7487 134.732C51.8062 133.999 48.6862 132.627 47.1333 131.372C46.8434 131.138 46.6096 131.012 46.6152 131.078C46.609 131.149 46.8381 131.556 47.1037 131.97ZM57.3307 129.962C57.3773 130.08 58.1278 130.581 59.0596 131.093C60.5413 131.926 62.1795 132.499 63.9943 132.812L64.9205 132.964L64.9679 132.359C65.0229 131.601 65.2268 131.288 65.9603 130.815L66.5461 130.433L65.9143 130.267C64.1342 129.817 59.9993 129.467 58.3474 129.635C57.7818 129.688 57.2864 129.85 57.3307 129.962ZM56.3678 130.39C56.1502 130.892 57.4369 132.682 58.7997 133.766C60.6614 135.233 64.2855 136.898 67.7617 137.877C69.8509 138.47 71.6831 138.844 71.6155 138.673C71.5992 138.632 70.9459 138.256 70.168 137.84C67.6793 136.478 66.0042 135.155 65.4633 134.114C65.2274 133.655 65.171 133.615 64.6955 133.551C63.5702 133.395 61.7441 132.951 60.8599 132.611C59.738 132.188 58.0353 131.279 57.1806 130.635C56.535 130.14 56.4879 130.124 56.3678 130.39ZM51.1705 136.964C50.6064 137.521 50.6978 138.167 51.5029 139.118C53.6908 141.704 59.0761 144.65 64.6682 146.308C66.0833 146.73 69.7156 147.553 70.5868 147.652C71.0212 147.698 71.0389 147.691 71.2603 147.406C71.9887 146.471 73.8973 144.932 75.6 143.925C77.0004 143.086 80.0442 141.883 81.3326 141.64C81.8441 141.554 82.8968 141.336 83.6761 141.151C84.4577 140.972 85.2075 140.798 85.3431 140.779C85.5623 140.747 85.5671 140.724 85.3515 140.455C84.7495 139.656 83.3759 137.232 82.8288 136.003C82.2291 134.657 82.2128 134.616 81.6341 134.17C79.8663 132.768 77.0576 131.579 73.9664 130.918C70.5987 130.196 69.0028 130.179 67.3111 130.833C66.1549 131.29 65.6705 131.652 65.5977 132.158C65.3215 133.686 66.8974 135.327 70.5554 137.319C71.2487 137.693 72.3061 138.298 72.9005 138.663C74.2162 139.473 75.7748 140.208 77.4118 140.796C78.0856 141.034 78.6628 141.304 78.6977 141.392C78.7956 141.64 78.5701 141.777 78.2065 141.702C77.6134 141.582 75.1278 140.573 74.0713 140.022C73.1147 139.534 72.9088 139.478 71.5974 139.335C70.8015 139.254 69.8576 139.109 69.4823 139.005C69.1094 138.906 68.7504 138.844 68.6678 138.876C68.5852 138.909 67.9801 138.862 67.308 138.766C66.1945 138.605 64.6884 138.246 61.8064 137.407C60.8512 137.129 56.3516 136.425 54.6703 136.277C53.0408 136.157 51.7406 136.405 51.1705 136.964ZM78.4878 128.191C77.4418 128.754 77.0728 129.132 76.8517 129.867C76.5577 130.883 76.5355 130.844 78.4622 131.699C79.4132 132.121 80.5579 132.706 81.0242 133.006C81.4905 133.306 81.8936 133.515 81.9351 133.464C81.9647 133.418 81.9477 133.255 81.8871 133.101C81.4933 132.104 81.4689 129.263 81.8457 128.18C82.0151 127.677 82.0152 127.643 81.7953 127.552C81.6719 127.499 81.2693 127.446 80.9149 127.43C80.1895 127.389 79.739 127.526 78.4878 128.191ZM51.4733 143.03C49.1546 144.342 47.4796 146.04 47.1935 147.387C47.0518 148.03 47.0964 148.074 48.5219 148.799C49.8747 149.479 50.939 149.842 52.7017 150.23C54.9963 150.722 57.6143 150.772 60.9386 150.366C63.1151 150.092 63.1198 150.104 65.4876 148.882L67.6371 147.781L65.9736 147.333C63.5747 146.699 62.0659 146.176 59.6899 145.151C57.6867 144.292 55.5937 143.189 54.3923 142.375C53.8639 142.004 53.8156 142.002 53.3261 142.162C52.7081 142.358 52.4556 142.478 51.4733 143.03ZM47.2625 149.167C47.633 150.105 49.0161 151.414 50.56 152.284C51.7208 152.943 54 153.741 55.0489 153.859L55.7764 153.939L57.3478 153.066C58.2049 152.578 59.4444 151.917 60.1066 151.574L61.3106 150.962L60.5918 151.041C58.8443 151.227 56.3777 151.301 55.1579 151.217C52.7925 151.047 50.2314 150.347 48.3335 149.358C47.7717 149.075 47.2874 148.851 47.2402 148.869C47.1825 148.878 47.2042 149.02 47.2625 149.167ZM122.302 126.6C120.816 128.483 116.445 133.162 114.344 135.145C112.745 136.656 109.388 139.19 108.58 139.509C108.392 139.584 108.245 139.662 108.257 139.691C108.268 139.721 108.546 139.993 108.888 140.288C109.212 140.589 109.716 141.106 109.994 141.447L110.508 142.075L110.98 141.957C111.803 141.762 113.461 141.059 116.781 139.502C127.237 134.621 132.155 131.825 135.639 128.751C137.075 127.501 137.933 126.549 138.422 125.715C139.369 124.072 138.756 122.712 136.895 122.281C136.069 122.089 134.368 122.133 132.967 122.387C131.267 122.69 128.391 123.628 124.817 125.061L122.923 125.823L122.302 126.6ZM65.8589 149.356C64.9122 149.86 63.5065 150.565 62.7406 150.922C58.9499 152.72 54.1419 155.533 52.2522 157.05C50.6698 158.31 49.3481 160.298 49.7286 160.83C50.1161 161.379 52.5786 162.002 54.3654 161.985C56.9436 161.969 60.8708 161.31 65.2265 160.149C72.366 158.249 77.101 156.528 80.7573 154.477C82.069 153.74 83.9373 152.566 83.8526 152.524C83.8233 152.502 83.2459 152.559 82.5718 152.648C79.8085 152.99 77.3883 152.664 75.0795 151.653C73.0763 150.76 71.4291 149.542 71.07 148.668C70.9277 148.342 70.8737 148.309 69.8486 148.148C68.5703 147.951 68.45 147.991 65.8589 149.356ZM49.4555 161.899C49.815 163.776 52.2294 165.175 55.5473 165.425C57.7939 165.588 63.4454 164.91 67.0519 164.045C74.6057 162.226 81.6136 159.458 86.6113 156.331C88.3107 155.264 91.1301 153.079 92.0978 152.076C92.5486 151.612 93.0182 151.126 93.1424 151.009C93.3198 150.837 93.3404 150.699 93.2607 150.342C93.1946 150.088 93.1949 149.468 93.2312 148.955C93.2781 148.453 93.3058 148.039 93.2906 148.018C93.2741 148.011 92.7802 148.384 92.1776 148.826C90.3888 150.167 89.4903 150.672 87.2322 151.585C85.4341 152.315 85.0788 152.504 84.2023 153.116C83.6506 153.497 82.4225 154.255 81.4685 154.81C79.8001 155.782 79.5842 155.875 75.7912 157.373C71.5382 159.053 70.2173 159.473 65.1483 160.814C61.4612 161.786 58.0064 162.415 55.4512 162.558C53.4472 162.682 51.3392 162.369 50.1768 161.791C49.8277 161.616 49.5115 161.488 49.4714 161.49C49.4313 161.493 49.4176 161.682 49.4555 161.899ZM92.5138 152.594C91.7413 153.383 90.212 154.622 88.5013 155.85C86.5414 157.259 83.1827 159.097 80.2447 160.36L78.2801 161.204L77.9458 161.705C77.538 162.33 76.0556 164.17 75.1621 165.171C71.4675 169.283 69.1872 172.919 69.0694 174.848C68.9774 176.548 69.8025 176.945 72.0747 176.327C74.9306 175.546 78.4498 173.337 83.91 168.93C87.4568 166.049 89.0484 164.554 91.944 161.371C94.3012 158.776 95.3579 157.342 96.3173 155.524L96.5643 155.045L95.9069 154.554C95.0157 153.904 94.2362 153.018 93.8392 152.221C93.6254 151.8 93.4779 151.599 93.4188 151.657C93.3868 151.697 92.9763 152.125 92.5138 152.594ZM98.38 156.257C98.5768 156.514 99.0794 157.147 99.5012 157.662C101.087 159.641 102.052 161.408 103.759 165.487C105.179 168.909 105.462 169.799 106.096 172.801C107.599 180.023 107.996 181.755 108.66 184.091C109.2 185.958 110.312 188.826 111.37 191.088C113.516 195.675 115.296 198.627 118.71 203.246C120.628 205.823 125.259 212.279 126.914 214.673C130.527 219.881 132.832 223.922 135.256 229.367C137.246 233.853 138.971 239.323 140.141 244.977C140.606 247.174 141.718 253.82 142.291 257.685C143.355 264.903 143.761 266.345 146.558 272.905L148.227 276.801L148.753 276.996C149.301 277.209 151.42 277.463 152.521 277.471L153.142 277.471L152.764 276.721C152.065 275.298 150.225 271.054 149.267 268.664C147.83 265.078 146.786 261.106 146.258 257.216C145.848 254.193 145.126 249.173 144.643 246.084C144.568 245.568 144.382 244.25 144.215 243.136C143.448 237.69 141.894 232.412 139.312 226.497C136.862 220.85 135.762 218.945 132.194 214.04C128.892 209.514 126.844 206.831 125.549 205.365C121.708 201.011 118.188 195.848 115.521 190.669C114.651 188.967 113.088 185.097 112.533 183.243C111.703 180.434 110.753 176.424 109.261 169.3C108.124 163.885 107.801 162.738 106.575 159.757L105.681 157.58L104.685 157.476C102.462 157.25 100.015 156.668 98.613 156.036C98.3097 155.89 98.0511 155.787 98.0452 155.789C98.0275 155.796 98.1797 156.009 98.38 156.257Z" fill="#695E5C"/>
<path fill-rule="evenodd" clip-rule="evenodd" d="M89.4814 108.374C89.5552 108.474 89.5716 108.775 89.5372 109.102C89.3756 110.264 89.6153 111.492 90.494 113.975C91.0852 115.644 91.1952 116.078 91.1167 116.259C91.0632 116.382 90.938 116.48 90.8214 116.478C90.6388 116.482 90.5594 116.315 89.8843 114.434C88.8658 111.597 88.5422 109.863 88.8436 108.796C88.9905 108.322 89.2716 108.136 89.4814 108.374Z" fill="#695E5C"/>
<path fill-rule="evenodd" clip-rule="evenodd" d="M85.0575 110.988C85.1904 111.03 85.4957 111.51 86.0751 112.631C87.0844 114.599 87.3292 115.184 87.1916 115.423C86.9684 115.825 86.8091 115.628 85.919 113.893C85.4272 112.942 84.919 111.983 84.7869 111.735C84.5918 111.362 84.5805 111.265 84.7048 111.113C84.8219 110.978 84.9104 110.943 85.0575 110.988Z" fill="#695E5C"/>
<path fill-rule="evenodd" clip-rule="evenodd" d="M81.8652 113.401C82.1099 113.468 85.1393 117.597 85.24 118.007C85.3455 118.395 84.9736 118.611 84.7015 118.336C84.372 118.003 81.6653 114.155 81.5441 113.848C81.4183 113.53 81.5653 113.315 81.8652 113.401Z" fill="#695E5C"/>
<path fill-rule="evenodd" clip-rule="evenodd" d="M94.7911 108.731C95.0948 108.775 95.0956 108.863 94.861 109.754C94.5711 110.885 94.5179 111.492 94.6253 113.386C94.6803 114.285 94.6686 115.101 94.6165 115.177C94.4554 115.39 94.1446 115.363 94.049 115.121C93.9115 114.773 93.7803 112.111 93.856 111.215C93.9377 110.282 94.2277 109.118 94.4408 108.863C94.5319 108.766 94.6616 108.714 94.7911 108.731Z" fill="#695E5C"/>
<path fill-rule="evenodd" clip-rule="evenodd" d="M92.1246 111.182C92.2468 111.25 92.3547 111.644 92.547 112.666C92.9445 114.759 92.9487 114.874 92.6655 114.985C92.5358 115.037 92.3779 115.051 92.3251 115.004C92.1959 114.919 91.616 111.983 91.6424 111.584C91.6757 111.237 91.8908 111.057 92.1246 111.182Z" fill="#695E5C"/>
<path fill-rule="evenodd" clip-rule="evenodd" d="M79.0208 116.421C79.3722 116.602 80.8786 118.258 80.9633 118.558C81.0248 118.766 80.9774 118.853 80.7945 118.925C80.5821 119.009 80.4495 118.898 79.5208 117.928C78.4937 116.847 78.3044 116.506 78.6583 116.366C78.735 116.336 78.8951 116.361 79.0208 116.421Z" fill="#695E5C"/>
<path fill-rule="evenodd" clip-rule="evenodd" d="M75.8455 118.343C76.3815 118.595 79.2223 120.814 79.3132 121.044C79.4111 121.292 79.3091 121.448 79.0452 121.471C78.9451 121.476 78.3226 121.074 77.6934 120.587C77.0477 120.091 76.2224 119.47 75.8489 119.215C75.4767 118.946 75.1576 118.656 75.1332 118.577C75.0731 118.287 75.4741 118.163 75.8455 118.343Z" fill="#695E5C"/>
<path fill-rule="evenodd" clip-rule="evenodd" d="M88.5683 113.951C88.6376 114.006 88.9178 114.577 89.2107 115.232C89.6458 116.213 89.7247 116.481 89.6697 116.687C89.6028 116.898 89.5508 116.939 89.3625 116.911C89.1636 116.874 89.0783 116.71 88.5936 115.483C88.0623 114.138 88.0578 114.092 88.2526 113.981C88.3577 113.919 88.5037 113.909 88.5683 113.951Z" fill="#695E5C"/>
<path fill-rule="evenodd" clip-rule="evenodd" d="M85.507 115.147C85.7424 115.191 88.0918 118.859 88.0413 119.111C87.9847 119.399 87.738 119.517 87.5503 119.353C87.2768 119.126 85.0764 115.611 85.0749 115.4C85.0734 115.189 85.2375 115.104 85.507 115.147Z" fill="#695E5C"/>
<path fill-rule="evenodd" clip-rule="evenodd" d="M79.3379 118.914C79.4777 119.009 80.2073 119.716 80.9519 120.479C82.4025 121.959 82.6447 122.347 82.2199 122.515C82.0017 122.601 81.8609 122.486 80.7621 121.345C80.0891 120.643 79.3643 119.913 79.1438 119.7C78.9161 119.504 78.7193 119.247 78.7057 119.143C78.641 118.842 79.035 118.7 79.3379 118.914Z" fill="#695E5C"/>
<path fill-rule="evenodd" clip-rule="evenodd" d="M73.4272 121.631C74.2922 122.06 76.079 123.148 76.5967 123.543C76.8925 123.774 76.9346 123.846 76.8796 124.052C76.8484 124.18 76.7419 124.291 76.6489 124.28C76.5488 124.285 75.8673 123.906 75.1213 123.451C74.3872 122.991 73.4319 122.454 73.0158 122.264C72.1812 121.878 72.008 121.612 72.4259 121.392C72.623 121.287 72.8219 121.325 73.4272 121.631Z" fill="#695E5C"/>
<path fill-rule="evenodd" clip-rule="evenodd" d="M83.1437 117.793C83.3867 117.977 85.0058 120.263 85.0216 120.441C85.037 120.687 84.7419 120.838 84.514 120.709C84.2801 120.584 82.8095 118.553 82.7343 118.241C82.6774 118.046 82.725 117.925 82.8631 117.843C82.9623 117.783 83.0873 117.754 83.1437 117.793Z" fill="#695E5C"/>
<path fill-rule="evenodd" clip-rule="evenodd" d="M71.5107 123.459C71.9762 123.671 73.0724 124.288 73.9535 124.827C75.6016 125.839 75.8912 126.141 75.4662 126.377C75.3021 126.462 74.9495 126.295 73.6843 125.526C72.8174 124.989 71.707 124.371 71.2063 124.139C70.26 123.694 70.0515 123.443 70.4588 123.213C70.6277 123.106 70.8677 123.161 71.5107 123.459Z" fill="#695E5C"/>
<path fill-rule="evenodd" clip-rule="evenodd" d="M78.4976 122.519C79.1953 122.973 80.8268 124.566 80.9162 124.878C81.045 125.325 80.6743 125.526 80.3471 125.199C79.6107 124.439 78.617 123.529 78.199 123.231C77.9207 123.027 77.7179 122.807 77.7196 122.69C77.7232 122.389 78.1464 122.304 78.4976 122.519Z" fill="#695E5C"/>
<path fill-rule="evenodd" clip-rule="evenodd" d="M71.5141 125.729C73.2407 126.561 75.5809 127.962 75.6811 128.215C75.7603 128.416 75.5589 128.7 75.3541 128.665C75.2552 128.656 74.6818 128.344 74.0874 127.979C73.4812 127.618 72.4308 127.031 71.7563 126.67C70.5035 126.019 70.269 125.771 70.6645 125.546C70.8227 125.463 71.0581 125.507 71.5141 125.729Z" fill="#695E5C"/>
<path fill-rule="evenodd" clip-rule="evenodd" d="M76.2011 124.906C76.9897 125.297 77.5188 125.791 77.4845 126.084C77.4393 126.47 77.1922 126.431 76.4488 125.913C76.0543 125.639 75.6268 125.351 75.494 125.274C75.285 125.125 75.2733 125.095 75.3567 124.892C75.5017 124.569 75.5582 124.574 76.2011 124.906Z" fill="#695E5C"/>
<path fill-rule="evenodd" clip-rule="evenodd" d="M68.8499 128.029C70.0185 127.984 71.2647 128.221 72.7912 128.771C74.2047 129.276 74.5078 129.456 74.5067 129.73C74.5099 130.083 74.0495 130.04 72.6714 129.52C70.7605 128.809 69.4422 128.614 68.0714 128.855C67.449 128.972 67.1716 128.856 67.2837 128.519C67.3673 128.247 67.9676 128.057 68.8499 128.029Z" fill="#695E5C"/>
<path fill-rule="evenodd" clip-rule="evenodd" d="M65.875 14.0151C65.9612 14.2334 65.4304 15.2546 64.5295 16.5993C62.7955 19.1666 61.0025 22.3095 60.4167 23.7957C60.1975 24.3802 60.0427 25.0414 59.9821 25.7337C59.9346 26.373 59.8326 26.8225 59.7334 26.8822C59.4807 27.0366 59.4371 26.7537 59.5492 25.6047C59.6085 24.9607 59.7707 24.2146 59.9708 23.6855C60.5578 22.1851 62.5715 18.6686 64.2936 16.1402C64.7132 15.5107 65.1556 14.7835 65.2698 14.5201C65.4757 14.0228 65.7817 13.7791 65.875 14.0151Z" fill="#695E5C"/>
<path fill-rule="evenodd" clip-rule="evenodd" d="M67.5708 15.0098C67.8671 15.1383 67.7838 15.894 67.3264 17.3773C66.5763 19.8286 66.4285 20.8008 66.4157 23.2541C66.4077 24.0279 66.3873 25.4953 66.3548 26.4833C66.2859 28.8292 66.2992 29.5877 66.4338 30.6189C66.5945 31.8715 67.1326 34.114 67.6176 35.5659C68.0155 36.7112 68.9422 38.7115 69.3345 39.2385C69.4516 39.3968 69.4431 39.4615 69.2838 39.5245C69.0419 39.62 68.9481 39.5207 68.4315 38.5927C67.2429 36.43 66.0695 32.3722 65.9026 29.7921C65.8639 29.1937 65.8523 27.7661 65.8938 26.6109C65.9329 25.4498 65.9623 23.781 65.9743 22.8965C66.001 21.0652 66.1581 19.8574 66.6306 18.1364L66.9619 16.9553L66.2913 18.4341C65.9134 19.2381 65.3213 20.5358 64.9764 21.3199C63.5651 24.428 63.3392 26.5836 63.9462 31.1925C64.2761 33.6672 64.8167 35.5881 65.5183 36.7771C66.1615 37.8528 66.2268 38.018 66.0498 38.0879C65.6487 38.2464 64.5309 36.0557 64.0092 34.1136C63.7056 32.931 63.2978 30.2416 63.1898 28.4839C63.0411 26.3467 63.3102 24.2832 63.9536 22.5287C64.2932 21.6103 65.8719 18.1838 66.7199 16.5326C67.031 15.9391 67.2902 15.3525 67.3037 15.2313C67.3318 15.0088 67.4204 14.9397 67.5708 15.0098Z" fill="#695E5C"/>
<path fill-rule="evenodd" clip-rule="evenodd" d="M68.6413 98.8826C68.687 98.9464 68.9614 99.4858 69.2145 100.075C69.9986 101.818 71.6026 104.048 73.939 106.63C74.5637 107.331 75.1542 108.066 75.2347 108.253C75.3139 108.453 75.8028 108.983 76.3929 109.527C76.949 110.037 77.6702 110.775 77.9889 111.168C78.8981 112.295 79.8721 113.69 79.8527 113.814C79.8333 113.938 79.5606 114.093 79.528 114.01C79.5163 113.981 79.1053 113.407 78.6041 112.725C77.5878 111.326 76.63 110.266 75.5634 109.344C75.1057 108.945 74.8771 108.694 74.9481 108.632C75.0072 108.575 74.7941 108.277 74.2782 107.731C72.2371 105.516 70.1932 102.845 69.2827 101.214C68.7379 100.249 68.2829 98.9765 68.4306 98.8499C68.4944 98.8042 68.591 98.807 68.6413 98.8826Z" fill="#695E5C"/>
<path fill-rule="evenodd" clip-rule="evenodd" d="M91.9625 90.0585C92.17 90.2902 93.5443 94.2004 93.8079 95.351C94.1363 96.8035 94.5043 98.8744 94.6139 99.9631C94.6784 100.592 94.656 100.881 94.5332 100.95C94.31 101.093 94.259 100.894 94.0872 99.4757C93.7897 96.8585 93.0404 93.8744 92.0663 91.4086C91.6095 90.2525 91.5433 90.0331 91.6731 89.9818C91.7698 89.9505 91.8863 89.9863 91.9625 90.0585Z" fill="#695E5C"/>
<path fill-rule="evenodd" clip-rule="evenodd" d="M98.5733 88.8924C98.5966 88.9513 98.5019 89.3502 98.3635 89.7595C97.7066 91.6353 97.3615 93.5583 97.0712 96.7418C96.781 99.8911 96.7336 101.342 96.852 103.696C96.8984 104.693 96.91 105.569 96.8814 105.634C96.8386 105.733 96.7631 105.749 96.6644 105.707C96.4669 105.621 96.2614 102.701 96.3247 100.842C96.4137 98.2018 96.8269 94.1037 97.1694 92.5022C97.6188 90.3947 98.0866 88.9551 98.3344 88.8572C98.4406 88.8152 98.55 88.8334 98.5733 88.8924Z" fill="#695E5C"/>
<path fill-rule="evenodd" clip-rule="evenodd" d="M68.3568 101.116C68.4144 101.141 68.5744 101.46 68.7165 101.82C69.0288 102.61 69.6773 103.82 70.3231 104.834C70.8344 105.627 72.8825 108.412 73.8044 109.589C74.4875 110.438 74.5726 110.636 74.3298 110.677C74.1011 110.72 73.7168 110.265 71.8911 107.801C69.9377 105.17 69.2183 104.022 68.5923 102.489C68.1145 101.314 68.0569 100.996 68.3568 101.116Z" fill="#695E5C"/>
<path fill-rule="evenodd" clip-rule="evenodd" d="M85.1609 94.9547C85.2005 95.055 85.2486 95.3838 85.2744 95.6737C85.2944 95.9658 85.3746 96.4797 85.4474 96.8192C85.6515 97.8365 86.9023 101.727 87.6676 103.716C88.3234 105.428 88.3674 105.608 88.2199 105.667C87.9486 105.774 87.7476 105.403 87.0762 103.479C85.817 99.9125 84.9626 96.9903 84.8541 95.9216L84.8169 95.5339L84.7142 95.8609C84.3643 96.9948 84.5383 98.7128 85.2039 100.898C86.0692 103.761 86.0808 103.791 85.8907 103.914C85.73 104.025 85.7067 103.966 85.3392 102.863C84.0708 98.9793 83.8163 97.0749 84.3527 95.5673C84.5221 95.0639 85.0444 94.6598 85.1609 94.9547Z" fill="#695E5C"/>
<path fill-rule="evenodd" clip-rule="evenodd" d="M64.2285 109.41C66.4197 110.399 68.673 111.459 69.231 111.785C70.7338 112.637 73.2209 114.375 73.3235 114.635C73.4587 114.977 73.1617 115.019 72.8238 114.716C72.318 114.282 70.3273 112.954 69.1018 112.252C68.4592 111.885 66.2083 110.797 64.1159 109.85C62.0258 108.91 60.2497 108.091 60.1758 108.024C60.0349 107.909 60.0229 107.689 60.1586 107.635C60.1939 107.622 62.035 108.415 64.2285 109.41Z" fill="#695E5C"/>
<path fill-rule="evenodd" clip-rule="evenodd" d="M59.6587 111.256C59.7809 111.324 60.3057 111.703 60.8234 112.098C61.8249 112.855 63.8989 114.239 65.675 115.351C66.6418 115.951 66.9219 116.263 66.627 116.38C66.5149 116.424 65.1041 115.563 62.8398 114.043C60.1995 112.297 59.0107 111.307 59.3528 111.172C59.4046 111.165 59.547 111.198 59.6587 111.256Z" fill="#695E5C"/>
<path fill-rule="evenodd" clip-rule="evenodd" d="M83.5041 103.916C83.539 104.004 83.5645 104.397 83.5652 104.778C83.5661 105.678 83.8717 107.194 84.3707 108.681C84.6985 109.684 84.7248 109.871 84.589 109.959C84.4532 110.047 84.3946 109.967 84.0754 109.159C83.4671 107.62 82.9956 105.235 83.1072 104.189C83.1476 103.825 83.3969 103.644 83.5041 103.916Z" fill="#695E5C"/>
<path fill-rule="evenodd" clip-rule="evenodd" d="M77.2153 108.589C78.4851 109.404 79.3918 110.266 80.3332 111.579C81.0485 112.578 81.142 112.746 81.0449 112.88C80.9809 112.96 80.8971 113.006 80.8395 112.981C80.7937 112.952 80.3896 112.429 79.9423 111.815C78.9845 110.495 78.2408 109.787 76.9652 108.975C76.4531 108.645 76.0209 108.345 75.9976 108.286C75.979 108.239 76.0511 108.163 76.1514 108.123C76.2871 108.069 76.6539 108.238 77.2153 108.589Z" fill="#695E5C"/>
<path fill-rule="evenodd" clip-rule="evenodd" d="M57.0759 117.391C59.1274 117.733 60.8191 118.183 63.1664 119.016C64.7905 119.588 66.9995 120.536 67.0578 120.683C67.1836 121.002 66.6671 120.885 65.0563 120.226C62.0876 119.012 59.4796 118.263 56.362 117.707C55.9913 117.649 55.7908 117.435 55.9634 117.285C56.0082 117.261 56.5063 117.296 57.0759 117.391Z" fill="#695E5C"/>
<path fill-rule="evenodd" clip-rule="evenodd" d="M55.8158 118.121C58.4902 118.762 63.0648 120.14 64.0051 120.587C64.2778 120.725 64.3376 120.79 64.284 120.913C64.1948 121.119 64.2701 121.137 62.3638 120.471C60.9713 119.985 56.5741 118.728 55.355 118.474C54.8043 118.357 54.5897 118.142 54.8964 118.02C54.9967 117.981 55.417 118.026 55.8158 118.121Z" fill="#695E5C"/>
<path fill-rule="evenodd" clip-rule="evenodd" d="M67.2735 115.463C67.9285 117.086 69.1543 118.273 72.2423 120.238C72.3363 120.303 72.3689 120.386 72.3225 120.492C72.2154 120.739 71.8593 120.58 70.5592 119.689C69.2041 118.744 68.7511 118.357 67.9508 117.385C66.9219 116.161 66.417 114.969 66.8476 114.799C66.9479 114.76 67.0568 114.914 67.2735 115.463Z" fill="#695E5C"/>
<path fill-rule="evenodd" clip-rule="evenodd" d="M47.9389 126.491C50.1254 125.811 52.1563 125.445 53.7593 125.446C54.8582 125.448 58.9343 125.754 60.334 125.931C61.1085 126.027 61.4779 126.134 61.4939 126.243C61.5112 126.339 61.4743 126.435 61.4271 126.454C61.3681 126.477 59.6856 126.344 57.6841 126.18C53.9201 125.853 52.6987 125.851 50.8988 126.181C49.5398 126.417 47.3121 127.113 46.7393 127.476C45.9894 127.943 45.9759 128.064 46.7177 127.853C48.6316 127.294 51.4523 127.046 54.8875 127.128C57.3818 127.193 57.7915 127.229 60.6352 127.66C63.4059 128.079 63.3201 128.052 63.2343 128.284C63.1674 128.494 62.5163 128.451 60.3295 128.095C57.5743 127.628 54.6293 127.475 51.392 127.636C49.4011 127.741 48.06 127.936 46.4929 128.371C45.3609 128.682 45.1572 128.667 45.2729 128.321C45.4758 127.696 46.6475 126.899 47.9389 126.491Z" fill="#695E5C"/>
<path fill-rule="evenodd" clip-rule="evenodd" d="M46.7173 129.817C48.437 130.89 51.8579 131.851 55.2413 132.198C56.1561 132.287 56.9518 132.402 57.0046 132.45C57.0527 132.485 57.0747 132.592 57.0295 132.685C56.8618 133.072 51.5054 132.201 49.0215 131.369C47.462 130.839 45.4234 129.701 45.5459 129.407C45.6269 129.198 45.8516 129.266 46.7173 129.817Z" fill="#695E5C"/>
<path fill-rule="evenodd" clip-rule="evenodd" d="M56.5802 130.012C56.6165 130.052 56.7183 130.224 56.7928 130.412C56.8674 130.601 57.2249 131.005 57.5675 131.32C59.3639 132.916 63.3981 134.772 66.9196 135.625C67.5644 135.772 68.1184 135.949 68.1371 135.996C68.2396 136.256 67.8636 136.323 67.1905 136.172C62.9923 135.212 57.9489 132.752 56.6559 131.032C56.4088 130.7 56.2172 130.353 56.214 130.259C56.2242 130.078 56.4581 129.91 56.5802 130.012Z" fill="#695E5C"/>
<path fill-rule="evenodd" clip-rule="evenodd" d="M87.4794 121.072C88.5868 121.268 90.3931 121.939 91.2271 122.462C91.5184 122.647 92.245 123.226 92.8386 123.762C93.43 124.292 94.4018 125.095 95.0088 125.544C96.6795 126.787 97.9016 127.981 99.1925 129.626C100.523 131.303 101.18 132.326 101.082 132.562C100.968 132.826 100.777 132.669 100.372 131.991C99.9112 131.238 97.9924 128.798 97.2325 128.014C96.611 127.373 95.5078 126.445 94.7445 125.928C94.4133 125.711 93.6093 125.04 92.9441 124.443C92.2811 123.853 91.4631 123.18 91.1437 122.959C90.2805 122.379 88.6814 121.749 87.4163 121.499C86.4149 121.295 86.134 121.153 86.3822 120.953C86.4306 120.92 86.9215 120.972 87.4794 121.072Z" fill="#695E5C"/>
<path fill-rule="evenodd" clip-rule="evenodd" d="M51.2557 138.062C52.8856 139.185 56.4096 140.561 59.9156 141.461C63.3992 142.355 65.1387 142.65 69.2206 142.988C73.3391 143.332 74.3637 143.336 76.7256 142.962C77.7297 142.811 78.0561 142.791 78.125 142.914C78.2678 143.137 77.9104 143.251 76.5221 143.465C74.5103 143.776 73.2936 143.786 70.011 143.521C65.418 143.167 63.9774 142.938 60.5771 142.1C56.8016 141.157 52.7214 139.597 51.0173 138.443C50.1306 137.839 50.0111 137.709 50.2883 137.599C50.411 137.564 50.7659 137.738 51.2557 138.062Z" fill="#695E5C"/>
<path fill-rule="evenodd" clip-rule="evenodd" d="M65.911 131.693C65.9566 131.757 66.1076 131.984 66.2326 132.214C66.6337 132.901 67.3429 133.678 67.9349 134.072C68.5409 134.466 75.1446 137.545 78.6303 139.066C80.7041 139.965 83.2512 140.889 83.9668 141.009C84.593 141.109 84.5582 141.539 83.9154 141.465C83.1314 141.38 79.4427 139.966 76.3605 138.551C69.558 135.435 68.0816 134.736 67.5532 134.366C66.5409 133.668 65.3622 131.944 65.7003 131.661C65.7641 131.615 65.8571 131.626 65.911 131.693Z" fill="#695E5C"/>
<path fill-rule="evenodd" clip-rule="evenodd" d="M51.3588 138.942C51.4927 139.039 52.0341 139.391 52.5485 139.727C53.6784 140.481 56.498 141.87 58.2806 142.55C61.3849 143.744 62.9519 144.155 66.0641 144.61C68.643 144.975 70.3045 145.055 72.6583 144.937C73.6632 144.874 74.2567 144.892 74.294 144.986C74.3266 145.069 74.2697 145.166 74.1846 145.227C73.9319 145.382 71.3874 145.5 69.6327 145.444C68.2255 145.386 64.7141 144.939 63.3739 144.636C59.7745 143.828 54.4756 141.618 51.9602 139.877C51.4822 139.548 51.0762 139.211 51.0412 139.122C50.9292 138.873 51.1004 138.771 51.3588 138.942Z" fill="#695E5C"/>
<path fill-rule="evenodd" clip-rule="evenodd" d="M82.9591 127.27C83.1821 128.266 84.192 130.649 84.819 131.649C85.136 132.158 86.157 133.569 87.0658 134.799C88.5274 136.738 88.9001 137.164 89.9842 138.147C90.6647 138.765 91.5003 139.464 91.8195 139.72C92.4899 140.226 92.5508 140.311 92.2912 140.413C92.073 140.5 91.595 140.17 90.1305 138.914C88.8362 137.796 88.4165 137.321 86.7066 135.064C84.4122 132.035 83.7059 130.834 82.9844 128.801C82.5027 127.409 82.426 126.887 82.6914 126.782C82.8248 126.723 82.8622 126.783 82.9591 127.27Z" fill="#695E5C"/>
<path fill-rule="evenodd" clip-rule="evenodd" d="M82.2873 128.435C82.3519 128.478 82.368 128.587 82.3369 128.681C82.19 129.155 82.792 131.352 83.4017 132.55C83.6586 133.063 84.2122 133.894 84.7581 134.585C85.2653 135.231 86.0828 136.299 86.5794 136.969C87.0759 137.639 87.8574 138.598 88.3134 139.114C88.944 139.813 89.1337 140.085 89.0801 140.209C89.0302 140.324 88.9712 140.347 88.8207 140.277C88.5128 140.119 87.2084 138.596 86.13 137.126C85.5854 136.386 84.837 135.407 84.4727 134.95C82.9684 133.076 82.2763 131.583 81.917 129.379C81.8151 128.69 81.9962 128.216 82.2873 128.435Z" fill="#695E5C"/>
<path fill-rule="evenodd" clip-rule="evenodd" d="M54.5996 143.349C55.6299 143.126 56.1706 143.097 56.2429 143.28C56.3338 143.51 56.2087 143.573 55.3532 143.652C54.6345 143.731 54.2311 143.85 52.2255 144.642C49.2479 145.805 48.355 146.376 47.4519 147.714C47.0749 148.279 46.9403 148.353 46.8355 148.087C46.7376 147.84 47.3953 146.898 48.0621 146.307C49.1981 145.333 52.6308 143.786 54.5996 143.349Z" fill="#695E5C"/>
<path fill-rule="evenodd" clip-rule="evenodd" d="M50.0636 160.779C51.5198 161.22 53.0062 161.219 55.7875 160.802C58.3178 160.423 59.6629 160.151 62.5598 159.422C66.2526 158.482 68.0218 157.885 71.6842 156.349C74.805 155.048 76.2635 154.39 78.8684 153.095C79.7312 152.672 80.1512 152.493 80.2664 152.543C80.645 152.707 80.4148 152.832 76.6699 154.659C74.5608 155.69 68.3832 158.213 66.5799 158.775C62.1125 160.172 56.0934 161.438 53.2649 161.58C51.5143 161.672 49.4747 161.325 49.3116 160.912C49.1904 160.606 49.3719 160.582 50.0636 160.779Z" fill="#695E5C"/>
</svg>
