<svg width="218" height="353" viewBox="0 0 218 353" fill="none" xmlns="http://www.w3.org/2000/svg">
<path d="M216.059 351.955C205.042 346.103 195.385 338.489 186.744 329.545C181.563 324.188 176.76 318.564 172.829 312.189C169.352 306.536 168.041 300.535 169.311 294.083C170.12 289.979 171.062 285.825 172.536 281.931C176.553 271.325 180.786 260.8 185.102 250.307C189.402 239.815 193.702 229.306 196.788 218.378C198.926 210.794 200.268 203.086 200.681 195.22C201.436 180.975 198.473 167.654 191.029 155.396C187.231 149.136 182.594 143.527 177.447 138.318C171.933 132.733 166.402 127.148 160.969 121.48C154.935 115.172 150.862 107.741 148.57 99.3207C147.509 95.3987 146.482 91.4763 145.421 87.5377C142.803 77.7818 139.887 68.1442 136.063 58.7786C128.939 41.3642 117.8 27.0896 102.745 15.7724C90.1232 6.28417 75.9824 1.20273 60.2227 0.495769C50.9094 0.0802815 41.6548 0.721366 32.5253 2.41854C24.107 3.97746 15.7069 5.73444 7.39218 7.78803C-10.8409 12.2723 -29.3763 14.3477 -48.0871 15.2848C-56.2503 15.6853 -64.3874 15.2763 -72.4799 14.2722C-82.2307 13.0676 -91.9359 11.3836 -101.718 10.3775C-122.062 8.28948 -142.418 8.54712 -162.685 11.5128C-163.926 11.6886 -165.183 11.9306 -166.389 12.2713C-167.579 12.5954 -168.102 13.4754 -167.829 14.431C-167.556 15.3702 -166.69 15.8747 -165.482 15.6992C-163.96 15.4714 -162.456 15.1116 -160.917 14.9002C-135.37 11.3771 -109.904 12.0171 -84.5057 16.2751C-68.0326 19.0406 -52.335 24.0757 -37.5737 31.9763C-29.0529 36.5445 -21.5495 42.2447 -15.619 49.9735C-9.25278 58.2766 -5.82748 67.4805 -5.80345 77.9855C-5.77848 86.6735 -7.72857 94.916 -10.9895 102.905C-13.7962 109.784 -16.6031 116.647 -19.2602 123.574C-29.6943 150.802 -29.8721 178.305 -21.2521 205.981C-18.407 215.14 -14.2584 223.693 -8.29587 231.29C0.0617639 241.938 10.9951 247.741 24.5848 248.45C29.1092 248.692 33.5782 248.273 37.9933 247.36C42.5241 246.412 47.0197 245.234 51.5332 244.204C56.0467 243.174 60.5418 241.93 65.108 241.247C76.1266 239.632 85.2521 243.254 92.4977 251.731C96.1122 255.961 98.6547 260.746 100.455 265.95C101.594 269.261 102.484 272.656 103.507 276C104.649 279.756 105.709 283.529 107.032 287.218C108.628 291.664 111.294 295.391 115.095 298.281C118.047 300.536 121.356 301.994 124.925 302.921C127.648 303.624 130.403 304.195 133.126 304.882C139.434 306.48 144.861 309.538 148.832 314.806C151.781 318.712 154.665 322.701 157.531 326.674C163.332 334.685 170.608 340.882 179.703 344.884C186.67 347.946 193.88 350.262 201.363 351.652C206.324 352.567 211.347 353.003 217.028 352.987C216.41 352.348 216.242 352.085 216.009 351.955L216.059 351.955ZM68.9933 78.4658C69.6383 78.3446 70.282 78.0748 70.9117 78.1024C77.0771 78.4624 83.2591 78.8222 89.4253 79.2812C96.0061 79.7863 102.587 80.3244 109.153 81.0277C114.89 81.6557 120.484 82.995 125.966 84.8309C131.748 86.7633 136.975 89.7411 141.957 93.1669C143.257 94.0642 143.224 94.0976 143.51 96.4736C142.762 96.1827 142.065 96.0731 141.548 95.6977C133.766 90.2808 124.979 87.5152 115.739 85.9924C112.139 85.3957 108.492 85.0306 104.876 84.5497C97.2146 83.5584 89.5371 82.6499 81.8911 81.5594C78.2754 81.0454 74.7071 80.2501 71.1389 79.488C70.3756 79.3294 69.7081 78.757 68.9924 78.3667C68.1696 79.0014 67.7004 78.3778 67.2155 77.8534C67.0007 77.9213 66.8028 78.0221 66.5878 78.057C66.5546 78.0573 66.4704 77.8928 66.4034 77.8108L67.2166 77.9855C67.9742 77.4669 68.5399 77.7594 68.993 78.4327L68.9933 78.4658ZM50.5852 237.985C41.3301 236.628 33.1315 232.916 25.6464 227.414C12.7768 217.977 6.0223 204.97 3.5049 189.614C1.30241 176.204 1.88297 162.803 4.85005 149.531C6.01466 144.334 7.47816 139.217 8.72586 134.053C10.6447 126.026 12.6796 118.014 14.3162 109.906C16.5886 98.6877 16.7564 87.3718 14.8701 76.0569C13.6306 68.6842 11.6146 61.5494 8.02962 54.9732C6.43075 52.0468 4.45264 49.3219 2.48824 46.2665C3.01828 46.262 3.53063 46.1255 3.92959 46.2872C8.50133 48.1805 11.8423 51.4222 14.3965 55.6453C23.42 70.5326 27.8325 86.6654 27.7498 104.026C27.7098 110.931 26.4757 117.68 24.3787 124.256C22.5561 129.987 20.6505 135.702 18.9443 141.481C16.7716 148.883 15.3125 156.444 14.4508 164.116C12.7572 179.079 15.1334 193.428 21.0666 207.236C24.0921 214.263 28.0899 220.687 33.6844 225.941C38.7948 230.753 44.3643 235.016 51.2891 237.005C51.5403 237.316 51.7915 237.645 52.0427 237.956C51.9272 238.007 51.8117 238.057 51.6963 238.124C51.5605 237.746 51.4248 237.367 51.2891 237.005C51.0763 237.304 50.8474 237.653 50.6021 238.018L50.5852 237.985ZM57.6246 237.875C53.4395 236.639 49.4162 234.956 45.6535 232.759C36.164 227.257 28.8762 219.656 24.1198 209.77C17.6092 196.232 14.6375 181.986 15.8832 166.944C16.7996 156.002 19.309 145.376 22.6153 134.941C23.4218 132.407 24.2282 129.873 25.1344 127.371C30.2476 113.238 30.4885 98.8656 27.514 84.2896C25.4914 74.4626 21.9663 65.2099 16.8725 56.5489C16.301 55.5793 15.7789 54.5928 15.2571 53.6228C15.1898 53.5077 15.2216 53.3423 15.1849 52.9297C15.7321 52.991 16.3112 52.9199 16.7106 53.1312C22.7706 56.6469 28.8799 60.1126 34.8422 63.8274C36.7075 64.9841 38.2959 66.7049 39.7185 68.3939C45.8444 75.7246 48.8678 84.4199 50.3057 93.6739C52.569 108.372 51.9825 123.011 48.4626 137.494C46.4786 145.654 44.2956 153.783 42.461 161.975C41.217 167.569 40.2718 173.243 39.4427 178.932C38.2068 187.399 39.1232 195.716 41.8433 203.82C43.1354 207.674 44.5595 211.477 46.0828 215.246C49.2145 223.049 54.0918 229.663 60.2535 235.375C60.9215 235.997 61.524 236.718 62.2931 237.538C60.6135 238.708 59.1192 238.308 57.6577 237.875L57.6246 237.875ZM65.5259 85.5651C69.1308 88.6889 72.7686 91.7795 76.2752 95.0199C77.5943 96.2308 78.75 97.7075 79.6741 99.2191C83.2693 105.068 84.8824 111.579 85.7021 118.295C86.5218 125.01 86.4305 131.734 85.3117 138.4C84.3191 144.338 83.1108 150.229 81.7863 156.104C79.3766 166.762 76.7842 177.372 75.1875 188.188C73.7012 198.359 73.3249 208.537 75.0027 218.731C76.0861 225.279 77.8133 231.574 81.2586 237.325C81.4603 237.67 81.5798 238.082 81.7157 238.478C81.7496 238.56 81.6182 238.693 81.4224 239.042C79.9482 239.054 78.6503 238.372 77.3347 237.574C63.0642 228.959 55.6975 216.039 53.6862 199.82C53.0455 194.655 53.2164 189.484 53.6522 184.293C54.5237 173.913 56.806 163.834 59.8847 153.914C61.2869 149.376 62.8217 144.853 64.1408 140.283C67.39 128.99 68.5667 117.5 67.3562 105.783C66.6524 99.0667 65.2046 92.5217 62.765 86.2165C62.4769 85.4591 62.2052 84.6851 61.9337 83.9277C62.164 83.744 62.3778 83.5604 62.6083 83.3933C63.5918 84.1116 64.608 84.7801 65.5259 85.5651ZM-46.3176 18.7714C-39.3154 18.1992 -32.296 17.7093 -25.3107 17.0877C-16.3392 16.2838 -7.47349 14.7376 1.30588 12.7792C8.29959 11.216 15.2759 9.55372 22.2696 7.99053C31.7434 5.87745 41.3221 4.40765 51.0428 4.0433C61.6743 3.6381 72.0864 4.68834 82.1406 8.434C93.84 12.7932 103.51 20.0439 112.133 28.8232C111.53 29.8855 110.846 29.3132 110.297 29.1197C106.874 27.8773 103.515 26.4031 100.027 25.3264C82.7527 19.9084 65.4118 20.2557 48.0758 25.0296C43.7459 26.223 39.5184 27.7625 35.2568 29.1866C30.9952 30.6107 26.7677 32.1501 22.5058 33.5412C13.5193 36.4595 4.34719 37.0503 -4.99091 35.677C-8.47405 35.1618 -11.8774 34.2992 -15.1195 32.923C-25.7268 28.4223 -36.431 24.2197 -47.3949 20.6471C-48.1424 20.4057 -48.858 20.0155 -50.471 19.3026C-48.4356 19.0539 -47.3768 18.8961 -46.3174 18.8044L-46.3176 18.7714ZM3.27079 50.5874C8.0472 57.0212 10.6287 64.4155 12.3184 72.1312C14.3181 81.2151 14.8445 90.4274 13.9966 99.7011C13.3903 106.264 12.1872 112.749 10.6352 119.138C8.7471 126.884 6.77613 134.632 4.72194 142.33C1.03057 156.137 -0.290285 170.139 1.02483 184.382C1.66378 191.265 3.29444 197.891 5.76845 204.344C10.2079 215.902 18.019 224.638 28.2807 231.322C34.0946 235.121 40.3959 237.792 47.2485 239.088C48.1942 239.261 49.1085 239.633 50.0388 239.939C50.1219 239.971 50.1732 240.153 50.2404 240.268C47.7509 241.644 47.1235 241.897 44.8863 241.784C43.2124 241.699 41.5211 241.499 39.8782 241.166C30.9835 239.343 22.6397 236.078 15.1085 231.006C6.76095 225.379 0.682161 217.751 -3.50409 208.669C-10.408 193.697 -12.9121 177.961 -11.4131 161.563C-10.7007 153.86 -9.142 146.331 -7.00257 138.912C-5.29745 133.001 -3.31018 127.153 -1.57179 121.258C0.215012 115.214 2.08478 109.185 3.48989 103.062C6.29929 90.7156 6.30907 78.3603 2.87379 66.0678C0.344218 57.0048 -4.0483 48.9821 -9.92548 41.6823C-10.4445 41.0426 -10.9309 40.353 -11.417 39.6799C-11.4674 39.5978 -11.4026 39.432 -11.3416 38.8203C-4.81298 40.961 -0.516861 45.483 3.27093 50.6039L3.27079 50.5874ZM38.0443 243.659C26.3211 246.172 15.1471 245.128 4.80411 238.627C-0.0258866 235.596 -3.805 231.482 -7.09132 226.886C-11.8533 220.204 -15.3288 212.867 -17.7647 205.075C-25.8051 179.294 -26.1589 153.547 -16.9698 127.948C-14.4136 120.84 -11.475 113.877 -8.73603 106.834C-7.56911 103.834 -6.33581 100.85 -5.31839 97.8024C-2.97636 90.8284 -2.04408 83.6517 -2.25632 76.3032C-2.54097 66.3126 -5.78154 57.4043 -11.6156 49.3443C-16.6951 42.335 -22.7758 36.408 -30.3008 32.046C-30.8836 31.7041 -31.4175 31.2628 -32.7508 30.3162C-31.2584 30.5016 -30.629 30.4796 -30.0973 30.6733C-26.956 31.8851 -23.8472 33.1798 -20.7222 34.4248C-18.4451 35.3137 -16.6103 36.7844 -14.9551 38.5541C-1.79789 52.547 4.37453 69.1437 3.6943 88.2933C3.41543 96.3233 1.77615 104.117 -0.543354 111.785C-2.44398 118.078 -4.42758 124.355 -6.3946 130.632C-8.55457 137.588 -10.4988 144.591 -11.8285 151.772C-15.342 170.863 -13.7082 189.415 -6.03337 207.353C-2.09458 216.552 3.67106 224.365 11.5761 230.541C18.4138 235.883 26.2453 239.285 34.5318 241.658C35.7441 242.011 36.9725 242.298 38.1846 242.634C38.3174 242.666 38.4342 242.764 38.917 243.041C38.423 243.392 38.2264 243.641 37.9949 243.693L38.0443 243.659ZM96.7992 251.083C95.7719 249.126 95.1068 246.919 94.6245 244.759C93.2128 238.56 93.0759 232.268 93.7174 225.953C94.3744 219.522 95.8944 213.266 97.9456 207.153C99.5612 202.382 101.21 197.611 102.992 192.904C106.733 183.028 109.014 172.8 110.349 162.35C111.559 152.825 111.262 143.347 109.144 133.95C109.024 133.422 108.986 132.894 108.898 132.35C110.039 132.01 110.113 132.934 110.431 133.394C117.391 143.311 122.867 154.033 127.419 165.193C129.721 170.839 130.203 176.896 129.576 182.964C128.765 190.701 126.658 198.086 122.874 204.907C119.203 211.512 115.516 218.118 111.629 224.593C105.799 234.306 102.609 244.723 102.358 256.04C102.332 256.85 102.206 257.676 102.055 259.313C99.9228 256.028 98.1632 253.664 96.8157 251.083L96.7992 251.083ZM55.3369 77.7077C57.0199 78.866 58.1602 80.4749 59.0036 82.235C60.2179 84.7518 61.3664 87.3187 62.2341 89.9706C66.0269 101.467 66.8571 113.254 65.4361 125.241C64.7103 131.375 63.3206 137.367 61.4663 143.263C59.8213 148.463 58.1266 153.665 56.631 158.897C53.7364 169.031 51.9366 179.353 51.5801 189.911C51.2643 199.428 52.6685 208.616 56.752 217.302C60.0255 224.261 64.4341 230.301 70.6692 234.922C71.3195 235.412 71.8878 236.002 72.5722 236.607C70.8703 237.117 66.4355 237.667 65.5544 237.295C64.6733 236.939 63.8073 236.402 63.0731 235.78C57.5992 231.07 53.0627 225.576 49.7607 219.146C46.2903 212.404 43.7278 205.29 41.9581 197.905C40.601 192.268 40.1707 186.54 40.9663 180.802C41.8085 174.716 42.7665 168.613 44.0567 162.606C45.6178 155.358 47.5107 148.173 49.3707 141.005C53.1872 126.337 54.2523 111.495 52.3836 96.4475C51.2983 87.7355 48.9412 79.464 44.3208 71.9056C44.0519 71.462 43.9478 70.9178 43.7779 70.4237C43.959 70.2901 44.1401 70.1564 44.3046 70.0228C47.971 72.5846 51.6377 75.1793 55.3205 77.7244L55.3369 77.7077ZM117.705 135.512C124.774 140.72 132.641 144.369 140.817 147.453C145.803 149.343 150.74 151.349 155.678 153.388C163.142 156.462 170.002 160.582 176.11 165.798C183.102 171.751 188.911 178.787 193.221 186.909C197.919 195.772 197.47 193.596 196.277 203.235C195.766 207.386 194.658 211.475 193.799 215.579C193.672 216.208 193.345 216.789 193.102 217.418C191.657 216.968 191.747 215.811 191.442 214.988C189.611 210.131 187.499 205.392 184.596 201.073C179.948 194.143 174.445 187.996 167.497 183.298C160.066 178.258 152.602 173.268 144.974 168.544C136.098 163.054 128.847 155.947 123.157 147.291C120.707 143.563 118.717 139.517 116.53 135.604C116.48 135.522 116.611 135.356 116.691 135.107C117.04 135.237 117.422 135.299 117.705 135.512ZM65.8923 80.012C79.4909 83.6942 93.4825 84.9119 107.412 86.6091C111.591 87.1183 115.738 87.8093 119.87 88.5832C128.116 90.1475 135.616 93.5518 142.564 98.1996C144.147 99.2596 145.251 100.489 145.813 102.367C148.015 109.864 151.783 116.521 157.001 122.356C157.653 123.077 158.174 123.915 158.711 124.737C158.829 124.934 158.732 125.265 158.719 125.645C157.037 124.635 155.372 123.642 153.691 122.649C148.213 119.442 142.427 116.948 136.219 115.548C131.423 114.466 126.579 113.649 121.782 112.633C116.024 111.41 110.249 110.238 104.554 108.767C101.583 108 98.7391 106.736 95.8961 105.538C91.4736 103.66 87.6239 100.968 84.1327 97.5951C78.8879 92.5528 73.3144 87.8271 67.8889 82.968C66.9708 82.15 66.0525 81.3156 64.7005 80.1214C65.6105 79.9979 65.7592 79.9471 65.8754 79.9791L65.8923 80.012ZM86.7985 105.154C91.2512 108.617 93.1981 113.49 94.5848 118.714C98.437 133.266 99.3587 147.991 96.7695 162.83C95.5377 169.844 93.7585 176.764 92.1451 183.715C91.378 186.975 90.3953 190.205 89.5452 193.449C86.8987 203.548 85.9434 213.83 86.2151 224.234C86.3437 229.568 86.9523 234.848 88.2724 240.023C88.4779 240.814 88.601 241.639 88.7573 242.48C86.9687 242.529 86.1142 241.413 85.2598 240.297C83.0989 237.508 81.4162 234.466 80.1126 231.191C77.0142 223.404 75.9005 215.254 75.6635 206.948C75.4957 200.921 75.9411 194.921 76.834 188.95C78.368 178.548 80.765 168.336 83.1122 158.108C84.406 152.514 85.6167 146.904 86.645 141.262C87.7844 135.059 88.1775 128.762 87.8084 122.439C87.4785 116.826 86.5367 111.317 84.7349 105.981C84.4458 105.108 84.2723 104.201 83.8099 102.437C85.2623 103.746 85.9976 104.483 86.8148 105.121L86.7985 105.154ZM126.769 299.668C125.674 299.429 124.594 299.108 123.531 298.771C117.85 296.953 114.291 293.383 113.245 287.264C111.746 278.638 111.39 270.002 112.193 261.307C112.86 254.034 114.256 246.903 116.881 240.042C118.647 235.435 121.095 231.218 124.06 227.278C126.582 223.92 129.004 220.48 131.41 217.04C134.404 212.72 136.301 207.93 137.35 202.801C137.462 202.254 137.672 201.741 137.867 201.227C137.899 201.144 138.098 201.126 138.461 200.974C138.699 201.732 138.971 202.456 139.143 203.214C141.213 212.826 142.159 222.58 142.922 232.369C143.088 234.382 142.541 236.237 141.878 238.093C140.049 243.163 137.023 247.549 133.879 251.854C128.132 259.75 124.762 268.5 124.084 278.268C123.627 284.812 124.46 291.115 127.294 297.103C127.631 297.827 127.886 298.584 128.225 299.474C127.58 299.578 127.168 299.763 126.803 299.684L126.769 299.668ZM124.721 49.8079C106.723 43.0583 88.3264 42.0105 69.6102 46.1686C66.1876 46.9248 62.8342 48.0108 59.4288 48.833C54.3868 50.049 49.3286 51.2982 44.2349 52.2835C38.2648 53.4415 32.2176 53.3449 26.1972 52.5047C23.2451 52.1006 20.4875 51.1993 17.8904 49.702C13.895 47.4074 9.80175 45.2953 5.17492 42.7748C6.26645 42.5672 6.72844 42.3485 7.17608 42.3942C18.0858 43.5227 28.7743 42.0434 39.3549 39.5739C44.2815 38.4249 49.1057 36.9298 54.0149 35.6819C59.3208 34.3314 64.6088 32.8324 69.9842 31.8612C85.4819 29.0687 100.472 30.8394 114.793 37.5711C115.674 37.993 116.524 38.4977 117.421 38.8864C122.576 41.1546 126.005 45.0067 128.11 50.8689C126.565 50.3701 125.651 50.0972 124.754 49.758L124.721 49.8079ZM106.653 117.85C114.242 121.881 122.154 125.067 130.44 127.358C135.305 128.704 140.171 130.099 145.004 131.511C161.063 136.246 174.262 145.415 185.564 157.541C185.748 157.754 185.932 157.967 186.133 158.164C191.893 163.416 194.635 170.198 195.958 177.669C196.619 181.38 197.264 185.091 196.839 189.554C195.898 188.01 195.226 187.008 194.638 185.956C190.144 177.752 184.318 170.617 177.226 164.55C171.018 159.235 164.041 155.034 156.493 151.877C151.189 149.66 145.821 147.609 140.469 145.507C133.538 142.792 126.721 139.811 120.637 135.437C115.736 131.911 111 128.186 107.544 123.112C106.604 121.732 105.467 120.47 104.478 119.124C103.824 118.238 103.286 117.285 102.279 115.724C104.191 116.649 105.439 117.2 106.637 117.834L106.653 117.85ZM130.316 159.205C136.866 165.673 144.708 170.33 152.387 175.269C157.801 178.757 163.297 182.195 168.416 186.099C179.438 194.527 186.838 205.53 190.944 218.791C191.83 221.658 191.786 224.268 190.102 226.777C189.158 226.818 189.002 226.026 188.732 225.45C186.067 219.94 181.892 215.945 176.451 213.217C173.573 211.772 170.678 210.343 167.751 208.998C161.598 206.176 155.82 202.774 150.566 198.491C146.295 195.01 142.616 190.995 139.414 186.546C138.693 185.545 138.103 184.36 137.745 183.174C135.358 175.25 132.475 167.511 129.18 159.925C129.078 159.678 129.042 159.381 128.836 158.475C129.668 158.88 130.082 158.976 130.333 159.221L130.316 159.205ZM48.5079 65.6755C54.5823 67.0108 60.6999 67.5859 66.9073 67.0535C71.0953 66.7037 75.2815 66.1392 79.4868 65.8718C85.9272 65.4531 92.367 64.9847 98.8269 64.9127C110.422 64.7965 121.362 67.56 131.531 73.1217C133.845 74.3901 135.881 76.1566 137.998 77.7571C138.532 78.1655 139.117 78.7385 139.321 79.3479C140.528 83.0209 141.72 86.7106 142.42 91.0983C141.356 90.6284 140.708 90.4523 140.192 90.0933C134.375 86.0305 127.974 83.228 121.085 81.6189C116.454 80.5355 111.742 79.6015 107.032 79.0473C100.632 78.293 94.168 77.9356 87.7366 77.4623C82.9794 77.1233 78.2071 76.9496 73.4497 76.5776C67.9628 76.1457 62.6512 74.9029 57.4346 73.1474C52.5834 71.5043 48.4348 68.7319 44.9066 64.8971C46.118 65.151 47.3292 65.3719 48.5242 65.6424L48.5079 65.6755ZM97.5134 116.393C99.4884 118.754 101.562 121.065 103.323 123.577C104.43 125.154 105.225 126.997 105.837 128.841C108.998 138.13 109.859 147.719 109.081 157.438C108.183 168.645 105.942 179.599 102.14 190.203C100.15 195.737 98.1434 201.254 96.2531 206.821C94.4919 211.989 93.179 217.286 92.3974 222.711C91.4125 229.541 91.3553 236.38 92.5405 243.208C92.6628 243.95 93.2662 244.771 92.4125 245.67C91.0411 244.145 90.4782 242.267 90.1144 240.404C89.3513 236.43 88.4887 232.423 88.189 228.396C87.2923 216.577 88.3184 204.907 91.3174 193.418C93.0494 186.779 94.9474 180.189 96.4306 173.503C97.6746 167.91 98.6363 162.236 99.3163 156.548C100.862 143.601 99.5261 130.845 96.2539 118.253C96.0142 117.347 95.4435 116.477 95.9957 115.2C96.5627 115.641 97.1286 115.95 97.5302 116.409L97.5134 116.393ZM100.486 63.2632C93.4781 63.1913 86.4424 63.7308 79.4389 64.1543C74.952 64.4242 70.4851 65.0903 65.9984 65.3766C56.4454 65.9873 47.238 64.3981 38.4424 60.6086C37.8272 60.3496 37.2936 59.9412 36.0282 59.1923C37.7673 59.1608 38.7107 59.0701 39.6555 59.1281C45.0261 59.5279 50.3236 59.1355 55.5822 58.0662C60.1296 57.1352 64.66 56.1382 69.2081 55.2733C87.334 51.814 105.007 53.5286 122.274 59.9542C126.246 61.4397 129.94 63.4065 133.439 65.788C134.922 66.7993 135.927 67.9965 136.356 69.7272C136.75 71.2929 137.657 72.7551 137.477 74.9205C125.947 67.1242 113.706 63.4304 100.486 63.2797L100.486 63.2632ZM104.04 260.948C103.829 249.866 105.493 239.149 111.007 229.323C114.238 223.58 117.535 217.886 120.799 212.176C122.039 209.985 123.28 207.794 124.47 205.571C128.595 197.937 130.811 189.742 131.449 181.114C131.508 180.288 131.551 179.462 131.594 178.701C132.635 178.395 132.641 179.138 132.777 179.567C133.851 183.043 134.908 186.535 135.899 190.028C136.206 191.099 136.365 192.238 136.391 193.344C136.575 201.238 134.816 208.653 130.484 215.33C128.113 218.968 125.626 222.541 122.955 225.966C118.023 232.269 114.821 239.333 112.882 247.03C109.983 258.584 109.388 270.267 110.715 282.082C110.859 283.32 111.002 284.558 111.145 285.795C108.237 280.914 104.133 265.952 104.04 260.948ZM-0.350107 37.9C7.88894 38.6055 15.914 37.5455 23.7438 34.9676C29.2115 33.1697 34.6116 31.2072 40.0453 29.3106C45.3469 27.4646 50.7336 25.8822 56.2573 24.8271C76.6984 20.9019 96.2027 23.6414 114.754 33.0951C116.518 33.9885 118.199 34.899 119.027 36.8079C118.373 37.7551 117.771 37.1821 117.189 36.8898C108.288 32.4405 98.9059 29.7792 88.9775 29.1047C80.9221 28.5628 72.9598 29.2259 65.1235 31.0441C59.9323 32.2449 54.793 33.6931 49.6701 35.1411C41.9696 37.3381 34.1828 39.1393 26.2411 40.2647C17.3893 41.5135 8.5908 41.2423 -0.154109 39.5005C-1.06683 39.3102 -1.94814 38.9214 -2.84515 38.6318C-2.83086 38.3674 -2.81642 38.1194 -2.80214 37.855C-1.97392 37.8479 -1.14602 37.8078 -0.333663 37.8834L-0.350107 37.9ZM177.694 147.731C171.769 142.529 165.319 138.026 158.118 134.784C153.529 132.726 148.743 131.033 143.975 129.439C139.723 128.022 135.356 126.919 131.023 125.751C119.267 122.598 108.455 117.339 98.1134 111.036C96.8146 110.254 95.6469 109.306 94.7227 107.778C95.3512 107.674 95.7966 107.455 96.0794 107.585C104.244 111.181 112.905 112.858 121.632 114.418C126.327 115.253 131.023 116.154 135.67 117.204C143.704 119.051 150.974 122.606 157.755 127.223C165.437 132.459 172.446 138.477 178.848 145.177C181.339 147.782 183.698 150.521 184.889 154.161C182.502 152.017 180.114 149.858 177.711 147.731L177.694 147.731ZM127.679 60.5189C120.841 57.109 113.551 55.0408 106.085 53.6184C92.6613 51.0414 79.2782 51.239 65.9185 54.1618C61.9338 55.0385 57.9488 55.8821 53.9631 56.6431C46.2729 58.1132 38.5842 57.8325 30.95 56.1968C30.0539 56.0063 28.9286 56.1481 28.2714 54.8488C28.834 54.7779 29.3297 54.6249 29.7939 54.6705C39.0444 55.4829 47.9745 53.7215 56.8336 51.3989C60.8994 50.3234 64.9307 49.083 69.0305 48.1062C86.8351 43.8899 104.417 44.6472 121.762 50.5436C123.889 51.2686 125.935 52.209 128.028 52.9839C129.275 53.4522 130.176 54.1712 130.7 55.4386C131.782 57.9895 133.046 60.4562 134.07 64.0317C131.357 62.5354 129.559 61.4607 127.679 60.5353L127.679 60.5189ZM185.364 236.43C181.932 230.315 176.581 226.348 170.507 223.179C166.397 221.034 162.271 218.972 158.177 216.81C153.834 214.502 149.671 211.928 146.047 208.54C144.243 206.854 143.051 204.965 142.632 202.458C142.16 199.555 141.34 196.721 140.686 193.852C140.548 193.209 140.492 192.549 140.282 191.18C141.3 192.014 141.832 192.339 142.234 192.798C148.876 200.472 157.189 205.851 166.254 210.167C170.046 211.984 173.872 213.752 177.55 215.785C182.793 218.68 186.261 223.176 188.412 228.707C188.836 229.794 188.994 230.833 188.523 231.96C187.825 233.634 187.21 235.324 186.448 237.313C185.748 236.741 185.465 236.611 185.331 236.398L185.364 236.43ZM147.738 218.353C150.687 222.309 154.031 225.848 158.081 228.737C161.165 230.94 164.183 233.243 167.053 235.696C172.01 239.948 176.11 244.851 178.268 251.159C179.084 253.531 179.169 255.727 178.029 258.032C176.987 260.172 176.212 262.425 175.27 264.614C175.01 265.21 174.567 265.726 174.158 266.324C172.84 265.246 173.077 263.873 172.851 262.702C171.809 257.095 169.793 251.926 166.128 247.514C164.872 246.005 163.453 244.646 162.082 243.254C158.94 240.06 155.733 236.916 152.64 233.672C148.244 229.069 145.563 223.625 145.094 217.22C145.075 216.939 145.073 216.658 145.12 216.394C145.136 216.294 145.318 216.21 145.63 215.96C146.333 216.763 147.085 217.517 147.722 218.37L147.738 218.353ZM151.018 214.51C156.245 217.487 161.57 220.316 166.846 223.21C169.31 224.56 171.838 225.794 174.187 227.293C178.368 229.966 181.892 233.306 184.233 237.795C185.075 239.423 185.237 240.858 184.439 242.55C183.138 245.32 182.053 248.186 180.917 250.938C179.676 251.081 179.651 250.173 179.448 249.646C176.836 242.566 171.92 237.289 166.1 232.714C163.014 230.296 159.831 227.995 156.794 225.51C152.19 221.751 148.556 217.157 145.629 211.996C145.444 211.683 145.49 211.237 145.368 210.511C147.418 211.98 149.12 213.419 151.018 214.493L151.018 214.51ZM151.14 234.462C154.232 237.706 157.259 241.016 160.598 243.994C168.694 251.225 171.756 260.514 172.061 270.984C172.131 273.411 171.385 275.169 169.338 277.978C169.047 276.874 168.774 275.967 168.584 275.028C167.221 268.73 164.193 263.288 160.009 258.419C157.55 255.549 155.024 252.713 152.827 249.66C151.134 247.296 149.836 244.631 148.488 242.017C146.517 238.185 146.564 233.989 147.156 229.623C148.478 231.231 149.685 232.938 151.123 234.445L151.14 234.462ZM142.535 250.954C141.343 253.013 140.218 255.103 138.96 257.113C133.159 266.413 131.258 276.521 132.775 287.261C133.322 291.121 134.514 294.877 135.408 298.685C135.631 299.608 135.871 300.514 136.214 301.833C134.504 301.435 133.095 301.315 131.898 300.78C131.083 300.424 130.38 299.554 129.925 298.749C127.637 294.672 126.225 290.29 125.87 285.619C125.069 275.286 127.172 265.605 132.712 256.754C134.264 254.263 136.05 251.918 137.635 249.46C139.434 246.67 141.132 243.798 143.108 240.56C143.787 244.353 144.412 247.701 142.535 250.954ZM139.488 303.11C138.838 302.702 138.367 301.847 138.079 301.107C132.569 286.404 131.915 271.94 140.459 257.992C141.259 256.68 142.093 255.385 142.943 254.105C143.09 253.889 143.388 253.788 143.832 253.47C144.003 254.03 144.206 254.508 144.276 255.002C144.399 255.827 144.373 256.686 144.513 257.511C145.229 261.849 145.432 266.125 142.981 270.078C139.577 280.678 139.485 291.234 143.353 301.755C143.726 302.792 144.132 303.813 144.895 305.822C142.433 304.621 140.887 304.006 139.505 303.126L139.488 303.11ZM146.414 272.46C147.775 280.475 149.896 288.303 152.728 295.926C153.525 298.067 153.941 300.161 153.629 302.46C153.193 305.684 153.585 308.885 154.308 312.034C154.549 313.089 154.922 314.126 154.849 315.201C154.518 315.253 154.336 315.321 154.286 315.272C151.511 312.339 148.72 309.472 146.899 305.755C141.672 295.08 140.914 284.053 143.964 272.679C144.237 271.636 144.709 270.641 145.081 269.63C145.313 269.628 145.545 269.626 145.777 269.624C145.983 270.564 146.24 271.52 146.397 272.476L146.414 272.46ZM165.324 285.098C162.548 276.302 157.945 268.826 150.032 263.641C149.399 263.217 148.73 262.414 148.624 261.704C147.883 256.458 147.49 251.159 147.441 245.478C148.058 245.918 148.44 246.064 148.591 246.327C151.232 250.995 154.729 255.012 158.275 258.979C163.761 265.142 166.97 272.283 167.902 280.468C168.171 282.893 167.975 285.175 166.344 288.145C165.834 286.63 165.563 285.856 165.324 285.082L165.324 285.098ZM161.693 315.571C163.923 318.608 165.987 321.795 168.464 324.631C171.04 327.565 173.912 330.266 176.866 332.834C179.704 335.32 182.706 337.64 185.805 339.794C188.955 341.98 192.317 343.85 196.347 346.343C194.872 346.24 194.293 346.311 193.795 346.167C185.956 343.889 178.427 340.964 171.71 336.182C161.86 329.164 156.625 319.546 155.347 307.664C155.275 307.021 155.452 306.359 155.59 305.053C158.354 308.646 159.414 312.486 161.693 315.588L161.693 315.571ZM158.935 291.512C161.819 295.501 164.307 299.791 165.673 304.52C167.449 310.715 170.742 316.022 174.579 321.077C178.399 326.115 182.647 330.786 187.404 334.973C188.188 335.677 188.907 336.447 190.344 337.872C187.534 336.624 185.736 335.582 184.167 334.208C180.362 330.888 176.441 327.668 172.865 324.114C168.755 320.053 165.468 315.308 162.741 310.227C158.953 303.157 156.254 295.632 153.869 288.005C153.716 287.51 153.728 286.965 153.568 285.678C156.268 287.571 157.577 289.608 158.952 291.512L158.935 291.512ZM152.251 267.372C155.488 270.119 158.051 273.433 160.12 277.132C162.745 281.817 164.379 286.857 165.385 292.118C165.714 293.8 165.711 295.435 164.983 297.423C164.464 296.8 164.013 296.391 163.727 295.898C161.052 291.081 157.801 286.749 153.596 283.151C152.728 282.415 152.009 281.595 151.734 280.441C150.634 275.826 149.749 271.192 149.054 265.45C150.669 266.411 151.567 266.799 152.268 267.388L152.251 267.372Z" fill="#695E5C" fill-opacity="0.8"/>
</svg>
