<svg width="182" height="246" viewBox="0 0 182 246" fill="none" xmlns="http://www.w3.org/2000/svg">
<path d="M24.3708 2.78342C25.8525 2.44145 27.4034 2.18655 29.1051 2.00756C31.9813 1.70195 34.8575 1.39635 37.7279 1.10566C39.2915 0.950224 40.8523 0.802245 42.4131 0.654271L44.2664 0.482821C44.3808 0.475829 44.4699 0.467597 44.5532 0.474268C44.9846 0.513446 45.1826 0.556231 45.2641 0.854236C45.2902 0.941693 45.3593 1.18333 44.786 1.39812L42.5332 2.26434C40.8255 2.92197 39.1281 3.57504 37.4188 4.21486C35.2265 5.03593 32.9777 6.17857 30.5302 7.69905C28.399 9.02492 25.6178 10.7848 22.9509 12.6922C18.8973 15.5798 14.9601 17.7054 10.9055 19.1841C8.86122 19.9339 7.17303 20.4532 5.59641 20.8183C4.9631 20.9667 4.34143 21.0854 3.74338 21.1874L2.74454 21.3481C-0.0633606 21.8092 -2.94254 22.2768 -5.79919 22.444C-6.13197 22.4604 -6.47842 22.4457 -6.8174 22.434C-7.3839 22.4109 -7.95785 22.3849 -8.51406 22.5118C-9.09389 22.6553 -9.56815 22.9688 -9.98479 23.2446C-10.2729 23.433 -10.5639 23.6289 -10.857 23.7638C-11.3706 24.0018 -11.9322 24.1868 -12.4834 24.3672C-12.7487 24.4528 -12.9962 24.5369 -13.2436 24.6208L-13.4036 24.6788L-13.4095 24.8483C-13.4355 25.4222 -12.9901 25.5356 -12.7249 25.6045L-12.5997 25.6361C-11.7545 25.9138 -10.9034 26.1765 -10.0478 26.4496L-9.81822 26.5219C-8.23374 27.0187 -6.43755 27.5895 -4.71844 28.1817C-0.861316 29.5036 2.52658 31.0379 5.64079 32.8778C5.69755 32.9085 5.75886 32.9496 5.81271 32.9877C5.99665 33.1109 6.16858 33.2208 6.37575 33.2843C9.7879 34.3814 12.5204 34.621 14.9737 34.0562C16.8039 33.6353 18.4384 32.7687 19.9555 31.4098C20.7295 30.7235 21.4945 30.0165 22.2491 29.314C22.8917 28.7226 23.5315 28.1386 24.1741 27.5471C25.7604 26.1207 27.6957 24.5038 30.0398 23.3811C31.382 22.7357 32.5923 22.2966 33.7537 22.0275C34.0459 21.9609 34.3352 21.9018 34.6365 21.8559L35.3593 21.7423C36.5318 21.5548 37.7324 21.361 38.9144 21.2373C39.6376 21.1668 40.3707 21.0487 41.0811 20.8787C42.9396 20.4516 44.7448 19.7202 46.6077 18.6421L47.1163 18.3506C48.8462 17.3494 50.6337 16.3105 52.4704 15.454C53.9311 14.7689 55.4395 14.2484 56.9315 13.9019C59.9439 13.2026 63.0458 13.1997 66.1568 13.8788C67.3825 14.1501 68.6857 14.4429 69.925 14.8998C73.7054 16.2863 77.6585 17.2075 81.6665 17.6347C82.3747 17.713 82.9925 17.8248 83.5631 17.9697C83.6555 17.9971 83.8208 18.1903 83.8638 18.3445C83.8898 18.432 83.8757 18.5124 83.8318 18.5811C83.782 18.6648 83.6771 18.7356 83.5569 18.7575C83.0703 18.86 82.5879 18.9298 82.1159 18.9951L81.6156 19.0665C80.7502 19.1933 79.8849 19.3201 79.0224 19.4394C77.1848 19.7029 75.2833 19.9758 73.4224 20.2989C72.7398 20.4196 72.041 20.5597 71.341 20.7251C67.0932 21.7076 62.8238 23.429 58.2871 25.9911C57.8701 26.2237 57.4456 26.4535 57.024 26.6759L56.8731 26.7545C56.5374 26.933 56.1913 27.116 55.86 27.3048C54.2703 28.1887 52.7375 28.7942 51.1729 29.1726C47.2694 30.1089 43.5095 31.6249 39.9967 33.6753C37.5617 35.0976 34.9507 36.1335 32.2306 36.7662C31.7871 36.8683 31.3287 36.9647 30.8762 37.0461C28.0968 37.544 25.2266 37.5256 22.3442 36.987C20.76 36.6878 19.297 36.1438 18.0102 35.3677C17.7397 35.2022 17.4634 35.0517 17.1721 34.8953L16.6836 34.6277L16.5858 34.6584C16.2671 34.7489 15.9438 34.8292 15.6234 34.9019C13.7161 35.3444 12.046 35.3982 10.5061 35.0734L10.253 35.0177L10.2122 35.2767C10.1952 35.3646 10.181 35.4449 10.1653 35.5075C10.1283 35.6907 10.0897 35.856 10.2305 35.9796C13.4645 38.5705 16.4807 41.7208 19.4559 45.5938C20.632 47.1169 22.0734 47.893 24.1234 48.0988C25.7926 48.2679 27.4192 48.1714 28.9469 47.8215C30.0875 47.5615 31.2133 47.141 32.2799 46.5858C32.7222 46.3544 33.1541 46.1275 33.5964 45.8961C35.5016 44.8859 37.4689 43.8483 39.5219 43.0761C42.1792 42.0754 44.3951 41.3923 46.4923 40.9036C48.238 40.5012 49.8676 40.2426 51.4776 40.1225C53.0268 40.0043 54.6596 40.0905 56.3283 40.3711C57.8436 40.6263 59.2057 40.8562 60.5847 41.1528C64.4359 41.9828 68.3161 41.9222 72.4305 40.9736C73.5354 40.7168 74.6844 40.3913 75.8416 40.0002C76.9499 39.6245 78.0707 39.3052 79.1935 39.0467C83.5259 38.0456 87.9229 37.9373 92.2523 38.7302C95.1302 39.2584 98.0272 40.2665 101.093 41.8126C102.744 42.6447 104.212 43.4399 105.592 44.2433C110.372 47.0327 115.576 49.7038 122.457 52.8992C123.111 53.2053 123.764 53.5115 124.412 53.8326C124.845 54.0442 124.904 54.2473 124.864 54.481C124.833 54.6492 124.703 54.7619 124.467 54.816C124.337 54.8425 124.187 54.8528 124.02 54.8394C123.788 54.8178 123.554 54.7783 123.324 54.7313C118.865 53.8965 114.17 53.4681 108.92 53.4074C107.192 53.3874 105.403 53.2833 103.814 53.1967L103.622 53.1821C102.765 53.1319 101.906 53.0892 101.054 53.0494C100.52 53.0305 99.9954 53.0323 99.438 53.0299C99.1897 53.0277 98.3738 53.0277 98.3738 53.0277L98.4449 53.3303C98.4573 53.3867 98.4697 53.443 98.4775 53.489C98.4953 53.642 98.5188 53.78 98.6357 53.877C99.1837 54.3224 99.7392 54.7706 100.295 55.2189C101.106 55.87 101.864 56.4829 102.619 57.1032C104.191 58.4028 105.499 59.2128 106.853 59.7489C110.292 61.088 113.57 63.301 117.181 66.7089C118.079 67.5569 118.797 68.2489 119.437 68.9015C119.492 68.9575 119.759 69.2419 119.562 69.4399C119.447 69.5584 119.244 69.6598 119.008 69.714C118.962 69.7218 118.916 69.7297 118.87 69.7375C118.743 69.7565 118.556 69.6839 118.385 69.6171L118.228 69.5561L117.593 69.3345C116.988 69.1245 116.29 68.8871 115.647 68.6194C113.822 67.8572 111.922 67.4435 110.009 67.394C107.594 67.3298 105.231 66.8475 102.982 65.9628C101.96 65.5648 100.922 65.1863 99.9139 64.8195L99.7499 64.7556C98.973 64.4788 98.199 64.1945 97.4382 63.8982C93.9467 62.5641 90.2867 62.1693 86.2696 62.6919C80.4694 63.4478 75.7359 63.6484 71.3735 63.315C65.085 62.8328 59.5093 62.2845 54.3311 61.642C50.2941 61.1348 46.1958 59.7705 42.1361 57.5795C41.5954 57.2916 41.0548 57.0037 40.4992 56.71L39.3462 56.0978L39.228 56.1806C37.7878 57.1658 36.29 58.1886 34.5725 58.5847C34.0163 58.7117 33.4684 58.7731 32.8961 58.765L32.572 58.759L32.6552 59.0748C32.8748 59.8561 33.2866 60.1883 33.6474 60.4748C33.7132 60.5262 33.7791 60.5776 33.8421 60.6365L35.8751 62.4075C38.3741 64.592 40.966 66.8469 43.5467 69.0202C45.5417 70.6904 47.7265 71.4984 50.0385 71.4283C51.2822 71.3888 52.5126 71.3612 53.7534 71.3291C55.4712 71.2852 57.186 71.2488 58.9022 71.1871C64.3477 70.9889 69.2 71.9168 73.7451 74.0306C74.3123 74.2944 74.8749 74.5479 75.445 74.8043L75.5494 74.845C76.2061 75.1437 76.8628 75.4424 77.5166 75.7486C80.9364 77.3554 84.7084 78.1459 88.715 78.0916C93.0457 78.0433 97.2785 78.0256 101.494 78.3617C104.141 78.5769 106.745 78.9724 109.245 79.5426C114.956 80.8477 120.159 83.3211 124.698 86.8841C125.179 87.2602 126.4 88.2256 126.4 88.2256C127.739 89.288 129.263 90.4914 130.776 91.6132C132.018 92.5263 133.374 93.3894 134.8 94.1597C137.976 95.8862 141.002 97.9751 143.924 99.9981L144.561 100.435L144.726 100.542C145.177 100.838 145.35 100.991 145.219 101.37C145.16 101.545 145.078 101.624 144.934 101.663C144.736 101.706 144.424 101.67 143.977 101.539C143.198 101.313 142.421 101.079 141.645 100.845C140.221 100.42 138.783 99.9885 137.353 99.6031C136.03 99.251 134.669 98.9959 133.348 98.7478L133.092 98.6996C128.608 97.8635 124.632 96.6244 120.941 94.9205C114.983 92.179 108.786 90.2037 104.052 88.7976C99.8339 87.5414 95.3884 86.7377 90.8358 86.4075C89.0556 86.2811 87.2451 86.0999 85.4927 85.9241L83.5885 85.7408C80.9152 85.4812 78.3056 84.8599 75.8117 83.8972C75.0659 83.6067 74.3039 83.3357 73.5448 83.0573C71.9716 82.4875 70.3582 81.9106 68.8592 81.1722C66.2793 79.9011 63.7994 78.3511 61.3957 76.8481C59.6483 75.7552 57.6768 74.3775 56.212 72.3382L56.1623 72.2673L47.4475 72.369L47.7826 72.7657C47.9238 72.9324 48.053 73.0858 48.1628 73.223C48.4183 73.5373 48.6002 73.7541 48.8102 73.9648C50.9027 76.0681 53.0544 78.4608 55.372 81.2875C56.3233 82.4397 57.4193 83.485 58.4764 84.4979L58.6847 84.6907C59.9862 85.9363 61.6194 86.727 63.5396 87.0454C64.4998 87.2047 65.5564 87.3585 66.8601 87.5399L67.4643 87.6206C69.1281 87.8477 70.8394 88.0848 72.5268 88.2954C76.9998 88.8521 81.3048 90.3914 85.327 92.8771C87.7365 94.3652 90.1659 95.9127 92.5115 97.4103C93.6342 98.1224 94.7271 98.8229 95.8228 99.516C96.2355 99.7798 96.6481 100.044 97.0533 100.304L97.2596 100.436C98.3719 101.153 99.5187 101.892 100.674 102.565C104.55 104.83 108.74 106.531 113.126 107.621C116.25 108.399 119.946 109.298 123.689 110.095C128.617 111.138 133.234 112.867 137.412 115.242C140.534 117.016 143.695 118.848 146.756 120.625L147.835 121.251C148.261 121.503 148.711 121.781 149.038 122.132C149.11 122.211 149.137 122.54 149.057 122.766C149.051 122.781 148.926 122.861 148.718 122.909C148.68 122.92 148.644 122.923 148.608 122.926C148.42 122.947 148.19 122.875 147.968 122.806C143.641 121.456 139.012 120.529 134.2 120.046C129.853 119.607 125.538 118.536 121.89 117.537C120.773 117.23 119.666 116.919 118.551 116.605L118.263 116.528C117.319 116.263 116.374 115.998 115.429 115.733C110.764 114.457 106.828 113.646 103.042 113.202C97.3205 112.519 91.9017 110.753 86.9268 107.956L86.4189 107.672C83.9808 106.302 81.4813 104.89 79.1324 103.357C74.0666 100.044 69.8134 96.034 66.5017 91.4373C65.8876 90.5882 65.3323 89.6762 64.9112 88.9711C64.5911 88.4256 64.1512 88.0996 63.5375 87.9551C62.8538 87.7919 62.1685 87.6108 61.4831 87.4298L60.3449 87.1325L60.2449 87.2568C59.863 87.7522 60.1699 88.1552 60.3504 88.3973C60.391 88.4475 60.4241 88.4947 60.4573 88.542C62.4296 91.6378 64.0604 94.6179 65.4467 97.6745C66.9088 100.889 68.002 104.236 68.884 107.087C69.2117 108.143 69.7521 109.049 70.5353 109.861C72.1424 111.534 73.8521 112.724 75.7439 113.513C77.3507 114.173 79.0288 114.672 80.8885 115.035L82.6707 115.377C83.5119 115.533 84.3278 115.688 85.1454 115.86C89.8746 116.817 94.2864 118.656 98.2555 121.344C100.411 122.802 102.297 124.155 104.005 125.482C107.556 128.23 111.554 130.337 115.886 131.741C116.749 132.017 117.606 132.308 118.466 132.591L118.726 132.675C119.401 132.904 120.079 133.125 120.758 133.346C125.728 134.964 129.84 137.373 133.332 140.692C134.159 141.478 135.025 142.253 135.8 142.933C136.259 143.343 136.708 143.733 137.144 144.135L137.285 144.258C137.52 144.47 137.763 144.685 137.926 144.929C137.985 145.021 137.987 145.279 137.927 145.367C137.889 145.421 137.744 145.528 137.611 145.562C137.084 145.391 136.565 145.137 136.046 144.815C132.963 142.919 129.674 141.638 126.276 141.01C124.802 140.737 123.281 140.539 121.757 140.418C116.762 140.01 111.472 138.972 105.592 137.24C103.812 136.718 101.991 136.233 100.222 135.767L98.3615 135.274C93.7277 134.028 89.2142 131.789 84.5641 128.423C81.8785 126.475 79.6821 124.065 78.0557 121.25C76.8885 119.241 75.672 117.049 74.3116 114.544C73.9866 113.945 73.6893 113.451 73.1125 113.123C72.6987 112.885 72.3138 112.572 71.9021 112.24C71.5636 111.962 71.2223 111.691 70.8379 111.421L70.4998 111.187L70.4515 111.597C70.4336 111.754 70.4124 111.874 70.3971 111.98C70.3634 112.199 70.3335 112.342 70.3719 112.485C71.472 116.916 72.0444 121.511 72.5933 125.968L72.7551 127.251C73.0981 129.987 74.6213 131.92 77.2917 133.003C79.6219 133.945 82.0545 134.712 84.4022 135.455L84.5589 135.516C85.3801 135.767 86.1984 136.026 87.0139 136.292C87.4924 136.452 87.993 136.579 88.4728 136.714C88.9705 136.848 89.4159 136.961 89.8572 137.107C93.138 138.144 95.6938 139.543 97.6708 141.37C100.733 144.203 104.398 146.24 108.869 147.595C109.616 147.817 110.342 148.092 111.083 148.372C114.321 149.607 117.686 151.046 120.188 153.928L120.289 154.044L120.829 153.894C121.096 153.826 121.348 153.752 121.595 153.668L122.356 153.39C124.065 152.775 125.811 152.15 127.521 151.51C128.424 151.175 129.326 150.822 130.225 150.476L130.419 150.397C132.068 149.759 133.765 149.106 135.447 148.516C135.983 148.329 136.582 148.159 137.346 147.984C137.743 147.89 138.145 147.806 138.54 147.719C138.839 147.655 139.139 147.592 139.431 147.525C139.667 147.471 139.959 147.516 140.24 147.565C140.338 147.578 140.415 147.668 140.452 147.794C140.487 147.902 140.471 147.965 140.461 147.969C140.154 148.271 139.823 148.571 139.469 148.751C138.349 149.311 137.184 149.854 135.91 150.414C134.203 151.158 132.814 152.232 131.649 153.702C129.959 155.835 128.271 157.48 126.483 158.716C126.355 158.803 126.262 158.931 126.162 159.055C126.111 159.121 126.049 159.191 125.982 159.276L125.855 159.425L126.343 160.07C126.609 160.423 126.875 160.775 127.152 161.124C128.757 163.132 130.439 165.299 131.795 167.682C132.04 168.112 132.213 168.506 132.326 168.877C132.352 168.964 132.323 169.039 132.288 169.085C132.216 169.203 132.085 169.298 131.951 169.332C131.877 169.346 131.809 169.345 131.746 169.329C131.547 169.269 131.393 169.2 131.267 169.126C131.027 168.972 130.772 168.787 130.492 168.558C127.129 165.856 123.32 163.685 119.156 162.115C118.161 161.736 117.381 161.664 116.546 161.846C112.784 162.683 108.76 163.091 103.473 163.17C101.2 163.204 99.1086 162.974 97.0886 162.471C93.2793 161.511 90.0197 159.537 87.4187 156.6C86.761 155.863 85.9772 155.317 84.9418 154.888C83.0425 154.097 81.2525 152.893 79.1528 150.984C78.835 150.697 78.5173 150.41 78.1893 150.128L77.5584 149.564L77.3946 149.698C76.8163 150.169 77.0394 150.676 77.1685 150.984L77.7736 152.474C78.5811 154.481 79.4234 156.552 80.3349 158.556C81.078 160.177 82.0034 161.749 82.8195 163.072C84.1773 165.275 86.23 166.599 88.9239 167.004C91.2279 167.351 93.5159 167.255 96.0576 167.102C98.5993 166.95 100.54 166.864 102.347 166.812C105.039 166.735 107.789 167.239 110.536 168.301C112.252 168.969 113.982 169.686 115.653 170.38L116.192 170.607C119.576 172.019 122.721 173.029 125.798 173.686C130.602 174.716 135.315 176.552 139.819 179.147C141.326 180.018 142.953 180.737 144.517 181.441L145.342 181.814C146.321 182.255 147.345 182.671 148.256 183.043C148.969 183.33 149.612 183.597 150.26 183.875C150.612 184.03 150.947 184.272 151.188 184.469C151.211 184.478 151.237 184.565 151.205 184.69C151.167 184.856 151.064 184.987 150.997 185.004C150.828 185.041 150.648 185.083 150.52 185.059C150.074 184.971 149.646 184.856 149.207 184.728C144.214 183.299 139.141 182.697 134.125 182.96C129.374 183.205 124.74 182.422 120.348 180.643C116.722 179.17 112.983 178.47 109.81 177.973C107.808 177.666 105.802 177.236 103.866 176.826C101.978 176.426 100.095 175.658 98.2643 174.558C95.5681 172.924 93.37 171.467 91.4493 169.628C90.3997 168.618 89.0513 167.603 87.0857 167.688L87.05 167.691L86.9522 167.722C86.5541 168.237 86.8904 168.608 87.0706 168.807L87.1501 168.89C90.4555 172.797 94.0113 175.797 98.0093 178.058C98.5665 178.369 99.1756 178.658 99.8215 178.918C104.201 180.641 108.693 182.76 113.168 185.207C114.66 186.029 116.194 186.833 117.678 187.608L119.269 188.443C121.748 189.752 124.536 190.82 127.773 191.703C132.401 192.965 137.021 194.248 141.647 195.535C142.717 195.832 143.781 196.143 144.848 196.447L146.57 196.945C155.464 199.491 163.587 203.908 170.721 210.071L171.338 210.604C172.057 211.227 172.733 211.808 173.395 212.401C175.52 214.311 177.546 215.924 179.598 217.316L179.679 217.374C180.127 217.677 180.588 217.994 180.957 218.37C181.08 218.495 181.132 218.824 181.115 219.067C181.103 219.097 181.015 219.191 180.815 219.242C180.682 219.276 180.545 219.274 180.44 219.233C180.105 219.103 179.763 218.944 179.436 218.791L179.03 218.598L176.282 217.339C173.966 216.274 171.664 215.214 169.349 214.166C168.764 213.904 168.15 213.674 167.562 213.462L167.137 213.296C162.396 211.553 157.663 209.349 153.056 206.755C146.905 203.295 140.469 200.788 133.941 199.311C130.317 198.492 126.504 197.522 121.913 196.275C117.565 195.088 113.256 193.582 109.108 191.794C105.835 190.383 102.876 188.345 100.304 185.729C98.333 183.733 97.1712 181.665 96.7451 179.429C96.5752 178.564 96.1938 177.978 95.4957 177.543C92.7826 175.842 90.2135 173.639 87.6224 170.809C87.4708 170.647 87.3014 170.486 87.1411 170.346L86.8308 170.062L86.6915 170.111C86.093 170.325 86.2179 170.82 86.2717 171.013L86.4975 171.977C86.7683 173.156 87.0437 174.345 87.3692 175.494C87.9252 177.463 88.8177 179.34 90.0166 181.069C91.5467 183.271 93.1349 185.479 94.6808 187.618L94.9442 187.979C96.4404 190.047 97.9444 192.317 98.8556 194.939L98.9532 195.218C99.2843 196.154 99.6261 197.129 99.7881 198.103C100.717 203.635 103.057 208.498 106.942 212.948C108.972 215.276 110.571 218.029 111.828 221.353C112.798 223.913 113.579 226.759 114.211 230.055C115.117 234.762 115.951 238.995 117.053 243.178C117.175 243.638 117.215 244.195 117.174 244.831C117.163 244.99 117.019 245.097 116.878 245.128C116.737 245.159 116.612 245.128 116.532 245.045C116.265 244.761 116.009 244.404 115.776 243.986C115.353 243.22 114.923 242.451 114.492 241.683C113.368 239.673 112.209 237.598 111.167 235.509C108.787 230.725 105.905 225.952 102.087 220.471C101.432 219.529 100.788 218.582 100.135 217.632L99.0719 216.084C97.1032 213.222 95.5387 210.182 94.4044 207.052C93.1389 203.552 91.4461 200.136 89.2424 196.598C88.2213 194.963 86.9186 192.772 85.9174 190.381C84.3222 186.582 83.7785 182.531 84.3007 178.345C84.4584 177.058 84.8411 175.832 85.4281 174.678C85.799 173.947 85.8905 173.226 85.7049 172.424C85.5593 171.783 85.4287 171.148 85.301 170.506C85.1344 169.676 84.9616 168.819 84.7548 167.983C84.6221 167.441 84.3269 166.854 83.9372 166.333C81.7091 163.386 79.8398 160.004 77.8832 155.368C77.7131 154.967 77.5223 154.575 77.3116 154.124L76.7871 153L76.5453 153.378C76.4602 153.509 76.3885 153.627 76.3151 153.727C76.1567 153.957 76.0335 154.141 75.9476 154.34C74.5859 157.417 73.9149 160.772 73.8814 164.607C73.8678 166.207 73.9537 167.641 74.1411 168.968C74.566 172.045 75.1282 175.674 76.0467 179.27C76.6001 181.444 77.0863 183.592 77.4878 185.406C78.6224 190.52 78.6706 195.822 77.6372 201.165L77.5221 201.747C77.3859 202.45 77.2512 203.171 77.0851 203.862C75.9708 208.487 75.5273 213.485 75.6676 219.587C75.8032 225.171 75.2577 231.048 73.9941 237.557L73.9771 237.644C73.9148 237.981 73.8466 238.332 73.6886 238.606C73.589 238.773 73.3693 238.962 73.2255 239.001C73.0382 238.997 72.7701 238.781 72.6898 238.612C72.5487 238.291 72.4722 237.891 72.448 237.358C72.4062 236.517 72.3822 235.675 72.3582 234.832C72.3284 233.85 72.2949 232.944 72.2539 232.034C72.1936 230.8 72.0645 228.044 72.0645 228.044C71.8768 223.917 71.6776 219.665 71.3958 215.492C71.2552 213.427 70.9182 211.183 70.3448 208.443C69.7635 205.657 69.1181 202.838 68.4912 200.103L68.4664 199.99C67.9694 197.804 67.4649 195.614 66.9961 193.422C66.1523 189.546 65.4702 186.137 64.902 182.986C64.4574 180.511 64.249 178.025 64.2846 175.574C64.3375 171.909 65.0266 168.751 66.3861 165.922C67.3386 163.939 68.5057 162.023 69.6318 160.168L69.8691 159.78C70.6115 158.557 71.6754 157.546 73.0417 156.772C74.0561 156.197 74.7042 155.393 75.0654 154.245C75.1621 153.931 75.2944 153.613 75.4135 153.307L75.5442 152.971C75.9974 151.808 76.0548 150.602 75.7148 149.181C75.2066 147.068 74.7722 144.897 74.3622 142.797L74.334 142.648C74.1658 141.801 74.0051 140.957 73.8339 140.117C73.8058 139.969 73.7748 139.828 73.7086 139.579L73.3559 138.058L73.0906 138.96C73.0113 139.23 72.9449 139.444 72.8885 139.611C72.7976 139.911 72.7295 140.108 72.7016 140.312C72.6047 140.935 72.5257 141.557 72.4363 142.184C72.3194 143.057 72.195 143.928 72.0557 144.793C71.6039 147.563 70.4691 150.101 68.6806 152.334L68.5939 152.446C67.2918 154.069 65.9516 155.746 64.5273 157.33C60.3161 162.012 57.3148 167.843 55.3749 175.161C54.0055 180.331 53.4199 186.047 53.5869 192.631L53.6377 194.463C53.6752 195.801 53.7205 197.184 53.7343 198.538C53.7588 201.563 53.3761 204.42 52.6048 207.04C51.1584 211.922 49.6943 216.806 48.2331 221.682L47.0836 225.538C46.9972 225.848 46.9034 226.155 46.7512 226.413C46.6927 226.52 46.4991 226.642 46.3404 226.674C46.0569 226.719 45.9153 226.509 45.8764 226.322C45.8156 226.015 45.8038 225.692 45.8081 225.35L45.8033 224.988C45.7484 223.695 45.6361 220.499 45.6361 220.499C45.507 216.927 45.3709 213.241 45.1908 209.623C45.0928 207.67 44.8592 205.689 44.5009 203.72C43.6575 199.071 43.4839 194.864 44.0003 190.847C44.5978 186.115 44.6785 181.431 44.6084 175.855C44.5383 170.279 45.522 164.865 47.5296 159.754C48.9139 156.222 51.0891 153.196 54.1828 150.501C55.6766 149.202 57.4136 148.006 59.6509 146.738C63.3092 144.667 66.8472 141.957 70.7786 138.214C72.1402 136.924 72.7882 135.613 72.8101 134.101L72.8093 134.015C72.816 133.777 72.8182 133.529 72.7802 133.273C72.1971 129.301 71.6111 125.337 71.0072 121.374C70.9866 121.228 70.9245 121.101 70.8293 120.926C70.7734 120.827 70.7233 120.713 70.6595 120.568L70.4427 120.089L70.2136 120.566C70.151 120.705 70.0925 120.811 70.0531 120.89C69.9801 121.034 69.9245 121.132 69.9062 121.245C68.7987 126.449 66.1893 130.921 63.3781 135.426C61.9659 137.685 60.1045 139.752 57.5054 141.926C54.663 144.306 52.4386 146.334 50.5052 148.321C47.6056 151.289 45.3911 154.24 43.7294 157.338C41.4467 161.611 38.5363 165.511 35.0746 168.93C34.7653 169.239 34.4635 169.551 34.1662 169.873C33.9277 170.132 33.6818 170.389 33.436 170.645C30.1297 173.996 27.4855 177.741 25.5721 181.772C25.1054 182.75 24.5732 183.719 24.0555 184.651C23.8025 185.102 23.5789 185.522 23.3479 185.939C22.1113 188.232 20.4025 190.237 18.748 192.17L18.1451 192.88C18.1127 192.919 18.0451 193.004 18.017 193.01L17.9295 193.036C17.8599 193.061 17.7828 193.082 17.716 193.099C17.5469 193.136 17.4947 193.116 17.4947 193.116C17.4081 193.074 17.2827 192.844 17.2799 192.697C17.2759 192.421 17.3875 192.112 17.4995 191.847C19.3941 187.225 20.3896 182.287 21.3539 177.518L21.3851 177.349C21.9738 174.426 22.5487 171.782 23.1426 169.264C23.7768 166.6 24.9024 164.04 26.5999 161.446C28.2373 158.94 29.7927 156.402 31.0959 154.247C33.1328 150.892 35.4817 147.684 37.7646 144.579C38.4033 143.711 39.0345 142.84 39.6657 141.969L40.8235 140.342L40.4676 140.263C40.3723 140.243 40.2799 140.216 40.2053 140.187C40.0205 140.132 39.861 140.079 39.6919 140.116L39.379 140.191C36.6899 140.81 33.9092 140.672 31.2222 140.536L30.7345 140.509C27.8631 140.362 25.3438 140.523 23.0249 140.985C22.7845 141.029 22.5487 141.083 22.3128 141.137C18.6315 141.988 15.2549 143.645 11.9876 146.212C11.592 146.522 11.1936 146.839 10.8027 147.159C10.1298 147.696 9.44077 148.252 8.74841 148.773C6.67431 150.327 4.31113 151.477 2.02341 152.587C1.39749 152.893 0.781919 153.194 0.173815 153.499C0.0805518 153.539 -0.0230892 153.585 -0.153633 153.611C-0.322744 153.649 -0.503843 153.673 -0.667139 153.695C-0.794781 153.714 -0.883435 153.611 -0.913655 153.556C-0.979909 153.461 -1.01836 153.318 -0.959878 153.212C-0.845807 153.007 -0.706469 152.803 -0.544756 152.609L2.70586 148.695C4.06142 147.068 5.40952 145.437 6.76219 143.816C8.25875 142.003 9.31935 140.14 10.0009 138.103C10.105 137.791 10.2167 137.483 10.3358 137.177C10.4374 136.916 10.5275 136.685 10.6055 136.44C12.166 132.015 14.657 127.934 18.2164 123.978C18.8873 123.226 19.5628 122.484 20.2412 121.735L20.5281 121.417C21.3433 120.515 22.1585 119.613 22.9662 118.708C23.1619 118.492 23.3411 118.252 23.5584 117.959C23.7214 117.739 23.8595 117.561 24.0196 117.348L24.5176 116.709L23.747 116.967C23.5381 117.041 23.3736 117.088 23.2372 117.13C23.0031 117.202 22.846 117.252 22.7054 117.326C20.2386 118.676 17.4714 119.694 14.2514 120.441C12.5414 120.84 10.6523 121.17 8.47438 121.446C7.47971 121.574 6.47218 121.758 5.47995 121.989C3.82624 122.376 2.13225 122.91 0.436539 123.581C-1.26209 124.26 -2.84036 125.423 -4.53003 127.247C-5.06285 127.821 -5.57911 128.419 -6.08209 129.005C-6.47479 129.461 -6.86746 129.918 -7.27215 130.362C-7.72827 130.872 -8.12465 131.25 -8.52016 131.559C-8.53342 131.571 -8.58234 131.587 -8.64161 131.607C-8.79288 131.642 -8.91348 131.621 -8.92549 131.608C-9.09035 131.458 -9.22075 131.175 -9.20452 131.001C-9.17577 130.729 -9.04338 130.411 -8.80159 130.033C-7.97791 128.756 -7.13891 127.528 -6.50231 126.599C-6.16929 126.119 -5.83919 125.646 -5.49871 125.169C-4.89114 124.315 -4.26452 123.434 -3.69755 122.529C-2.73367 120.981 -1.55907 119.884 -0.111975 119.167C1.37366 118.44 2.60151 117.802 3.74604 117.157C4.55935 116.701 5.40376 116.231 5.86513 115.156L5.97842 114.866L5.67924 114.818C5.6063 114.806 5.53628 114.788 5.48117 114.775C5.29056 114.735 5.15051 114.698 4.99468 114.723C2.26136 115.213 -0.742813 115.34 -4.1782 115.119C-4.70614 115.085 -5.23991 115.066 -5.77077 115.039C-6.40563 115.015 -6.96468 114.995 -7.51791 114.96C-7.84362 114.936 -8.1362 114.96 -8.39277 115.023C-9.07207 115.179 -9.58079 115.625 -9.94255 116.378C-10.7026 117.954 -11.5235 119.533 -12.3241 121.059L-13.2604 122.868L-13.4516 123.248C-13.6487 123.644 -13.856 124.044 -14.08 124.421C-14.2264 124.664 -14.362 124.792 -14.5029 124.823C-14.5771 124.837 -14.6604 124.83 -14.7528 124.803C-15.0139 124.701 -15.1302 124.493 -15.1519 124.063C-15.163 123.827 -15.1443 123.603 -15.1242 123.353C-15.1167 123.201 -15.1017 123.052 -15.0942 122.901L-15.0807 122.425C-15.0406 121.109 -15.0002 119.836 -14.9747 118.558C-14.9704 118.371 -15.0122 118.191 -15.0527 117.986C-15.0837 117.846 -15.1085 117.733 -15.1275 117.605L-15.1887 117.255L-15.4917 117.438C-15.706 117.569 -15.9116 117.678 -16.1023 117.792C-16.5637 118.051 -16.9289 118.261 -17.2862 118.517C-18.1324 119.123 -18.9694 119.751 -19.799 120.381L-19.8935 120.447C-20.3939 120.828 -20.8988 121.198 -21.3992 121.579C-21.6177 121.743 -21.8308 121.849 -22.0281 121.892C-22.1512 121.921 -22.3576 121.944 -22.4495 121.805C-22.671 121.47 -22.5146 121.179 -22.2774 120.79C-21.9609 120.286 -21.6519 119.78 -21.3355 119.276C-20.4757 117.884 -19.6101 116.478 -18.6724 115.151C-17.9122 114.081 -16.9814 113.147 -15.9295 112.122C-15.2901 111.495 -14.88 110.839 -14.6508 110.052C-14.3552 109.05 -14.0078 108.026 -13.6995 107.124L-13.3637 106.13C-12.8212 104.494 -12.0215 102.375 -10.7144 100.496C-10.619 100.362 -10.5861 100.211 -10.5562 100.068C-10.5388 100.023 -10.5363 99.9729 -10.5234 99.9178L-10.457 99.7032L-10.6658 99.6219C-10.7106 99.6044 -10.7553 99.587 -10.8001 99.5696C-10.921 99.5053 -11.0524 99.4455 -11.2008 99.4736C-14.3466 100.207 -18.0159 101.226 -21.4027 103.239C-23.7324 104.634 -26.2518 105.765 -28.8838 106.613L-29.0127 106.657C-29.1727 106.715 -29.2705 106.746 -29.3654 106.769C-29.4322 106.786 -29.496 106.795 -29.5465 106.793C-29.7666 106.784 -29.98 106.693 -30.0114 106.663C-30.1071 106.446 -30.1027 106.104 -30.0468 106.048C-29.4949 105.447 -28.955 104.833 -28.4255 104.223C-26.8751 102.448 -25.2716 100.624 -23.3376 99.1873C-21.6117 97.9097 -19.6701 96.8278 -17.554 95.9599C-14.4991 94.7103 -11.9407 92.6404 -9.73118 89.6357C-7.6759 86.8287 -6.06802 84.5088 -4.66246 82.3334C-3.13537 79.9563 -1.39253 77.9295 0.668878 76.1212C1.55363 75.3492 2.30823 74.6467 3.00064 73.9715C5.46973 71.5576 7.09236 68.7367 7.82915 65.5879C8.07959 64.5259 8.3122 63.4655 8.54027 62.3948C8.82689 61.0634 9.11518 59.7499 9.42457 58.4703C10.1979 55.2499 11.5889 52.2958 13.5525 49.7021C13.905 49.2382 14.2873 48.7858 14.6564 48.3455C14.8313 48.1388 15.0034 47.9396 15.171 47.7299L16.2516 46.433L16.2342 46.3231C15.8854 44.4179 15.0363 42.7387 14.2175 41.1141L14.0283 40.7398C13.8966 40.4824 13.6837 40.2792 13.4857 40.0819L13.3358 39.9376C9.98486 36.5882 6.00168 33.8257 1.49681 31.719C1.35801 31.6564 1.2076 31.6236 1.03646 31.5999C0.915872 31.5787 0.828036 31.5616 0.725272 31.5388L0.361862 31.4574L0.44249 31.8238C0.458187 31.9158 0.476802 32.0003 0.487955 32.082C0.518101 32.2913 0.544952 32.4649 0.628167 32.6262C2.60428 36.3076 3.26361 40.3265 2.64835 44.9055C2.14457 48.669 2.03959 52.1583 2.32337 55.5757C2.48485 57.4767 2.35539 59.419 2.19657 61.2382C1.84641 65.2247 0.697467 68.8142 -1.22867 71.9292C-1.36928 72.1579 -1.50988 72.3866 -1.63102 72.6314C-3.90925 77.0695 -7.08887 80.7786 -11.092 83.6687C-14.2592 85.9567 -16.7436 88.9832 -18.4848 92.6598C-18.7909 93.3136 -19.1551 93.962 -19.5032 94.5909L-19.5865 94.7388C-19.6919 94.9211 -19.8387 95.1216 -20.0153 95.3105C-20.0477 95.3494 -20.0995 95.3722 -20.1588 95.392C-20.2715 95.4168 -20.4174 95.3944 -20.5325 95.3152C-20.6208 95.255 -20.6779 95.1812 -20.6936 95.0892C-20.7469 94.785 -20.7617 94.4701 -20.7375 94.1874C-20.4105 90.922 -20.0806 87.6491 -19.7283 84.385C-19.4052 81.3499 -18.3163 78.5101 -16.4833 75.9429C-16.0914 75.3998 -15.6713 74.8505 -15.2628 74.331C-14.9514 73.9284 -14.6354 73.5361 -14.336 73.1202L-13.9366 72.58C-13.1848 71.5758 -12.3346 70.4296 -11.5529 69.2825C-10.0142 67.0301 -9.07673 64.3803 -8.5187 60.6981C-8.40769 59.9941 -8.57851 59.3521 -9.05434 58.6772C-9.96994 57.3671 -11.0746 56.1897 -12.3351 55.1919L-13.0986 54.5939C-13.6645 54.1502 -14.2452 53.7007 -14.8024 53.2346C-17.6962 50.7848 -19.3504 48.0189 -19.8527 44.7655C-20.0989 43.1923 -20.6633 41.5981 -21.5841 39.8824C-22.1662 38.7968 -22.6754 37.7223 -23.0831 36.696C-24.0897 34.2082 -24.1973 31.5293 -23.4068 28.7279C-23.1045 27.6431 -23.0104 26.7178 -23.5635 25.7121C-23.8053 25.2744 -23.9452 24.7733 -24.0883 24.2365C-24.1619 23.9845 -24.2252 23.728 -24.3137 23.4702L-24.3398 23.3827L-25.657 23.0157C-26.4854 22.8047 -27.3062 22.5967 -28.1328 22.4036C-30.1823 21.9317 -32.2317 21.4599 -34.2887 20.9852L-39.658 19.7529C-39.9336 19.6885 -40.2539 19.6067 -40.505 19.4574C-40.5215 19.4337 -40.5704 19.2945 -40.5591 19.2215C-40.545 19.1411 -40.4376 19.0198 -40.4036 18.9987C-39.9755 19.0022 -39.4434 19.0033 -38.9549 19.1163C-37.5266 19.4406 -36.0982 19.765 -34.6699 20.0894C-30.0141 21.1469 -25.2227 22.2314 -20.5405 23.4195C-18.2329 24.0004 -16.0365 24.1172 -13.8296 23.7656C-13.5536 23.7185 -13.285 23.6685 -13.0135 23.611C-11.6549 23.2984 -10.5332 22.7561 -9.58919 21.9642C-8.49176 21.0431 -7.39058 20.0462 -6.21181 18.9163C-4.17852 16.9596 -2.18856 15.4671 -0.138697 14.3501C0.788609 13.8437 1.81367 13.4613 2.99283 13.1905C3.39775 13.0991 3.8176 13.0135 4.26437 12.947C5.46212 12.7607 6.27529 12.6136 6.9575 12.4499C9.6109 11.8342 10.5802 11.0435 13.5451 8.39321C15.8494 6.33598 18.0926 4.89911 20.4075 4.00557C21.6709 3.51845 23.0242 3.10929 24.4317 2.78138L24.3708 2.78342ZM5.60106 19.8581C11.0948 18.5878 16.3773 16.1616 21.7418 12.4446C24.1404 10.7848 26.5664 9.18726 29.2614 7.4282C31.4142 6.02485 33.6742 4.80928 35.9809 3.82663C36.4651 3.62009 36.9521 3.40609 37.4524 3.18008L38.616 2.66265L38.3269 2.41262C37.7664 1.91089 37.2247 2.00054 36.79 2.0803C36.6979 2.096 36.6134 2.1146 36.5243 2.12284C34.7737 2.31714 33.0231 2.51143 31.2696 2.71318L27.9184 3.09148C26.7336 3.22266 25.576 3.41602 24.4889 3.67116C20.3998 4.62097 17.0002 6.3805 14.1054 9.04951C13.3272 9.76854 12.4847 10.454 11.6763 11.1183L11.5731 11.2069C10.3235 12.2319 8.95348 12.9266 7.4925 13.2595C7.3694 13.2888 7.23885 13.3153 7.1112 13.3343L6.35897 13.4794C5.57854 13.6307 4.80103 13.7745 4.01895 13.9079C3.73547 13.9521 3.45654 14.0067 3.18217 14.0716C2.03866 14.3392 0.9278 14.7654 -0.125117 15.3517C-1.81684 16.299 -3.37893 17.4428 -4.76416 18.75C-4.91591 18.8971 -5.0826 19.0383 -5.2418 19.1824C-5.83303 19.708 -6.42715 20.2411 -6.94475 21.0187L-7.15875 21.3476L-6.77337 21.3946C-6.59477 21.4212 -6.44144 21.4466 -6.29103 21.4794C-5.97983 21.5405 -5.71628 21.5916 -5.45062 21.549C-4.55252 21.4264 -3.65732 21.3113 -2.76213 21.1961C-0.377844 20.8965 2.08063 20.5828 4.49733 20.0896C4.86827 20.0193 5.23467 19.9387 5.60397 19.8506L5.60106 19.8581ZM-7.86802 54.9476C-7.83898 54.8731 -7.79792 54.8117 -7.76142 54.7401C-7.66933 54.5698 -7.58014 54.407 -7.54026 54.2164C-6.77991 50.3896 -5.09675 46.7076 -2.37832 42.9477C-1.73097 42.0575 -1.12585 41.0992 -0.582112 40.2545C-0.123405 39.5399 0.319141 38.8447 0.775336 38.1807C1.28877 37.4358 1.36248 36.7172 1.00732 35.9089C0.451828 34.6447 -0.0933195 33.3759 -0.616087 32.1158C-1.12519 30.8868 -2.01245 30.0774 -3.41417 29.5744C-9.54762 27.3488 -15.7389 25.6245 -22.0728 23.9135C-22.2605 23.8661 -22.452 23.8947 -22.6538 23.9277C-22.7562 23.948 -22.8556 23.9607 -22.9551 23.9735L-23.2224 23.9983L-23.1724 24.2668C-22.8876 25.6747 -22.325 26.8988 -21.4632 28.0161C-20.4631 29.3075 -19.3846 30.5521 -18.56 31.5003C-18.0178 32.1152 -17.4727 32.7226 -16.9173 33.3254C-16.0856 34.2334 -15.2734 35.1253 -14.501 36.0531C-11.7526 39.3396 -10.1716 43.2193 -9.77969 47.5721C-9.68368 48.6488 -9.54888 50.067 -9.3337 51.4994C-9.21477 52.3187 -9.02457 53.1315 -8.84345 53.9235L-8.69169 54.5925C-8.65614 54.7437 -8.53351 54.8259 -8.41835 54.9051C-8.36449 54.9432 -8.30772 54.9739 -8.25678 55.0195L-8.01278 55.2091L-7.88003 54.9344L-7.86802 54.9476ZM-9.67396 55.5928C-9.664 55.5451 -9.65858 55.4871 -9.64861 55.4394C-9.6187 55.2965 -9.58876 55.1536 -9.61107 54.9903C-9.7238 54.1991 -9.84109 53.3975 -9.95382 52.6064L-9.98067 52.4327C-10.1975 50.9825 -10.4193 49.4789 -10.6008 47.9824C-11.196 43.1811 -12.6346 39.5973 -15.1312 36.7009C-16.6649 34.9269 -18.2115 33.2079 -19.8512 31.3753C-20.5885 30.5557 -21.3377 29.7227 -22.1006 28.8587L-22.3889 28.5403L-22.5204 28.9443C-23.148 30.8643 -23.2343 32.6517 -22.8052 34.571C-22.4706 36.0498 -21.8821 37.5159 -20.9588 39.1811C-20.0537 40.8048 -19.445 42.5279 -19.0796 44.4568C-18.9048 45.3752 -18.621 46.3447 -18.2361 47.3191C-17.4891 49.2163 -16.1746 50.9136 -14.1092 52.6457C-12.905 53.6558 -11.6904 54.6614 -10.473 55.6595C-10.3636 55.7536 -10.2194 55.7583 -10.1034 55.7691C-10.0528 55.7716 -10.0126 55.7787 -9.96207 55.7812L-9.71055 55.819L-9.67562 55.575L-9.67396 55.5928ZM77.263 18.1787C77.1375 18.104 77.0344 18.0381 76.9507 17.9883C76.7937 17.8842 76.6756 17.8125 76.5355 17.7751C74.1435 17.0582 71.7589 16.3441 69.3685 15.645L69.136 15.5803C68.3417 15.3482 67.5176 15.1045 66.6984 14.9143C63.3486 14.1422 60.0918 14.102 57.0231 14.8136C55.9359 15.0688 54.857 15.413 53.8042 15.8447C51.8096 16.6655 50.0271 17.6032 48.371 18.7018C46.1888 20.1366 43.722 21.1772 41.0404 21.7991C40.1817 21.9972 39.2869 22.1554 38.3635 22.2768C37.8483 22.3424 37.3286 22.3977 36.8015 22.4501C35.9461 22.5292 35.0927 22.6692 34.2725 22.8566C31.6117 23.4694 29.1494 24.6749 26.9509 26.4383C26.2382 27.0111 25.5259 27.627 24.9007 28.1737L24.0984 28.8662C22.2609 30.4525 20.4189 32.0284 18.5859 33.625C18.4827 33.7136 18.4362 33.833 18.3897 33.9523C18.3694 34.0045 18.3433 34.0716 18.3171 34.1387L18.2267 34.3268L18.4032 34.4471C18.4794 34.494 18.5527 34.5483 18.626 34.6026C18.7996 34.7303 18.9806 34.861 19.1882 34.9676C20.5186 35.6317 22.0223 36.0714 23.7797 36.3006C26.4612 36.6493 29.2407 36.5036 32.0351 35.8569C32.5556 35.7332 33.0895 35.5976 33.6142 35.4412C36.3327 34.6361 38.8075 33.3324 40.6588 32.284C43.7094 30.5604 46.557 29.4019 49.3691 28.7535L49.7177 28.6746C50.5201 28.4889 51.5699 28.2192 52.5602 27.7718C54.8338 26.7419 56.6863 25.8228 58.39 24.8888C62.7957 22.4646 67.0907 20.7876 71.5284 19.7588C72.8514 19.4495 74.2017 19.2024 75.5436 19.0207C75.7247 18.9968 75.9117 18.9579 76.1015 18.9116C76.2528 18.876 76.404 18.8405 76.5761 18.7958C76.7659 18.7495 76.9661 18.6986 77.1944 18.6415L77.7967 18.5068L77.2647 18.1965L77.263 18.1787ZM-18.3551 90.2538C-18.185 89.9936 -18.015 89.7334 -17.8524 89.4704C-16.6674 87.5526 -15.1821 85.812 -13.4196 84.3082L-13.2633 84.1715C-12.4773 83.4985 -11.675 82.806 -10.8393 82.2039C-5.58833 78.4254 -2.6796 72.8758 -0.365479 67.9708C-0.0621996 67.3244 0.132102 66.6271 0.317688 65.9521L0.386618 65.6869C1.30334 62.3849 1.62992 59.0763 1.36262 55.8371C1.08465 52.4048 1.1602 48.947 1.59928 45.2614C1.74539 44.0041 1.7991 42.7195 1.8532 41.4779L1.88341 40.7166C1.90139 40.4058 1.93483 39.8348 1.23495 39.691L1.092 39.6611L0.855243 39.9382C0.742033 40.0745 0.62136 40.2079 0.520161 40.3574L-0.279397 41.5062C-1.09224 42.667 -1.92999 43.8696 -2.72463 45.0718C-3.35213 46.0214 -3.90466 47.043 -4.41321 47.9959C-5.65683 50.3289 -6.48829 53.037 -7.03628 56.517L-7.21462 57.6587C-7.47863 59.351 -7.74847 61.0583 -8.04233 62.739C-8.50449 65.3591 -9.52397 67.8223 -11.0597 70.0672C-11.7183 71.0304 -12.4395 71.9778 -13.1312 72.8937L-13.861 73.8635C-14.1136 74.2031 -14.384 74.5445 -14.644 74.8813C-15.1039 75.4666 -15.5754 76.0818 -16.0067 76.704C-17.5598 78.9937 -18.4565 81.2298 -18.7403 83.5243C-18.9339 85.1239 -19.0702 86.7972 -19.1891 88.2712L-19.2079 88.4958C-19.2616 89.1191 -19.3125 89.7349 -19.3663 90.3581L-19.3867 90.5649L-18.6761 90.7472L-18.3492 90.2389L-18.3551 90.2538ZM16.6457 73.8919C17.9283 73.2233 19.2005 72.5592 20.4755 71.8877L23.2728 70.4176C25.7342 69.1258 27.6915 67.6291 29.2493 65.8566L29.4318 65.6528C29.6511 65.4205 29.8659 65.1777 30.0148 64.8836C30.2061 64.5028 30.3704 64.103 30.5214 63.7152C30.6522 63.3796 30.7932 63.0394 30.9463 62.7125C31.1782 62.2274 31.4399 61.7538 31.6913 61.2848L32.1095 60.52L31.9864 60.3948C31.2318 59.6199 30.4787 58.8628 29.7257 58.1057L29.6582 58.0364C27.8701 56.232 26.1901 54.5469 24.5358 52.7517C22.8576 50.9299 21.1765 48.9609 19.6892 47.2221L19.5931 47.116C18.9246 46.3403 18.2591 45.5571 17.5831 44.7785L17.463 44.6458L16.7878 44.9239L17.0195 45.7185C17.1423 46.1529 17.2681 46.5798 17.4146 46.9976C18.5774 50.3193 18.5413 53.5434 17.32 56.8556C16.8631 58.0949 16.4899 59.384 16.1266 60.6254L15.8543 61.5672C15.3582 63.2379 15.1555 64.9713 15.2516 66.7094C15.3411 68.3762 15.4873 70.0737 15.6241 71.7074L15.7823 73.5728C15.7925 73.7228 15.9077 73.802 15.969 73.8431L16.0423 73.8974L16.1451 73.9203C16.1956 73.9228 16.2284 73.9269 16.2611 73.9311C16.3444 73.9378 16.4381 73.9399 16.5301 73.9242L16.6279 73.8936L16.6457 73.8919ZM-26.9044 104.773C-26.6955 104.699 -26.5103 104.643 -26.3324 104.583L-26.245 104.557C-25.8744 104.444 -25.5885 104.349 -25.3103 104.208C-23.9921 103.536 -22.7038 102.853 -21.4763 102.171C-19.1176 100.857 -16.8089 99.9349 -14.4257 99.3514C-13.5893 99.1446 -12.7296 98.8782 -11.9678 98.6423L-11.87 98.6117C-11.458 98.4801 -11.0489 98.356 -10.6324 98.2348C-9.21818 97.8236 -8.02637 97.1454 -6.96372 96.1592C-5.9276 95.1971 -4.70591 94.3759 -3.10047 93.584L-2.52636 93.3008C-1.83245 92.9526 -1.04984 92.5531 -0.270991 92.2294C2.02248 91.2588 3.98306 89.6432 5.537 87.4397C6.49957 86.071 7.44933 84.6027 8.43607 82.9514C10.064 80.227 11.6183 78.2212 13.3145 76.6229C14.3593 75.6383 14.8203 74.5209 14.7659 73.1168C14.7136 71.7737 14.6596 70.2581 14.4975 68.7778C14.1845 65.8987 14.3839 63.3136 15.1108 60.8739C15.2997 60.2346 15.5064 59.5936 15.7102 58.9601C15.9588 58.1894 16.19 57.4634 16.4034 56.7391L16.4856 56.4619C16.777 55.4932 17.0726 54.4917 17.2521 53.4794C17.5846 51.6333 17.3803 49.9304 16.6324 48.2562L16.5276 48.0178L16.3013 48.1358C16.174 48.1979 16.0808 48.2389 16.0053 48.2782C15.8602 48.342 15.7641 48.3904 15.6816 48.4699C15.4767 48.665 15.2885 48.8837 15.1297 49.071C12.8266 51.7643 11.23 54.8273 10.3717 58.1778C9.82769 60.3022 9.43516 62.082 9.1355 63.7776C8.26478 68.7037 5.88848 72.8201 2.08582 76.0117C1.80555 76.2461 1.54022 76.4863 1.27196 76.734C1.27196 76.734 0.900461 77.0703 0.754517 77.2024C-0.936659 78.6997 -2.44687 80.4821 -3.86445 82.6442C-5.45497 85.074 -7.14206 87.509 -9.024 90.0915C-11.3845 93.3294 -14.1792 95.565 -17.5765 96.9217C-21.0641 98.3119 -24.0763 100.489 -26.5411 103.377C-26.6837 103.544 -26.7787 103.722 -26.9281 103.973C-27.0056 104.106 -27.0919 104.262 -27.2002 104.451L-27.5457 105.03L-26.9086 104.805L-26.9044 104.773ZM72.0284 42.0281C68.9879 42.7335 65.8602 42.8467 62.7345 42.3594C60.6775 42.0393 58.638 41.6744 56.9183 41.3482C54.3798 40.8749 52.1097 40.8153 49.9711 41.1677C48.8061 41.3581 47.6444 41.5842 46.5216 41.8426C42.2841 42.8206 38.2938 44.3328 34.6467 46.3309C34.4146 46.4638 34.2081 46.6411 33.9913 46.8229C33.8748 46.9235 33.7554 47.0316 33.6078 47.1459L33.3362 47.358L33.6262 47.5396C34.8281 48.2912 35.897 48.8106 36.9942 49.1692C41.5201 50.6485 46.0643 51.1987 50.4987 50.7956C52.9833 50.5694 55.5159 50.2417 57.7502 49.9523C61.2344 49.497 64.2583 49.7385 66.9809 50.6872C67.6161 50.9088 68.2496 51.1126 68.8877 51.3268L69.7956 51.6203C72.0645 52.3665 74.5408 52.8672 77.3628 53.1417C81.3199 53.5234 85.0846 53.1859 89.6045 52.6959C93.1815 52.3111 96.9877 51.9554 100.782 52.0932C104.429 52.2339 107.648 52.3711 110.624 52.5164C112.075 52.5835 113.525 52.6758 114.975 52.7681C114.975 52.7681 116.819 52.8851 117.693 52.9336C117.878 52.9453 118.059 52.9214 118.237 52.9049L118.779 52.8583L118.714 52.584C118.714 52.584 118.696 52.4994 118.69 52.4712C118.674 52.3792 118.656 52.2694 118.549 52.1931L118.345 52.0537C118.061 51.8572 117.814 51.6751 117.547 51.5452C113.306 49.4896 108.946 47.1646 103.805 44.2433C102.257 43.3656 100.527 42.494 98.5044 41.5775C94.8762 39.9325 91.0503 39.1038 87.1204 39.0935C84.2949 39.0924 81.5227 39.3956 78.8872 40.0097C77.5849 40.3099 76.2864 40.6888 75.0375 41.1387C74.0464 41.4999 73.0384 41.7945 72.0387 42.0236L72.0284 42.0281ZM23.0056 49.0721L22.5916 49.1428L23.2605 49.9616C23.48 50.236 23.6663 50.4632 23.8734 50.6813C24.4438 51.29 25.017 51.8912 25.5977 52.4953C26.7757 53.7271 27.9851 54.9884 29.1146 56.2786C30.2921 57.6219 31.746 58.1452 33.5642 57.8656C33.7556 57.8371 33.9529 57.7937 34.1502 57.7503C34.7346 57.6171 35.3095 57.4202 35.8645 57.1639C36.3856 56.9288 36.8553 56.605 37.3117 56.2932C37.5082 56.1636 37.6972 56.031 37.8937 55.9014C39.3331 54.9846 40.5899 54.4262 41.8565 54.1293C42.4512 53.9916 43.048 53.9149 43.6439 53.9065C44.5548 53.8833 45.4844 53.7901 46.4223 53.6315C46.8185 53.5625 47.2102 53.4831 47.5973 53.3934C48.0897 53.2759 48.6235 53.1403 49.307 52.9512C49.5308 52.8838 49.7079 52.738 49.9351 52.5517C50.0487 52.4585 50.1755 52.3533 50.3306 52.2419L50.9566 51.7814L50.175 51.8033C42.5044 52.0025 36.9478 50.7659 32.1437 47.7954L32.0675 47.7485L31.9088 47.7812C31.0532 48.1695 30.1716 48.4703 29.2743 48.6791C27.6206 49.0658 25.9194 49.1333 24.0712 48.8944C23.9 48.8707 23.7339 48.9005 23.5262 48.9485L23.2518 49.0134C23.1747 49.0349 23.0931 49.046 23.0011 49.0617L23.0056 49.0721ZM115.874 66.9557C115.848 66.9113 115.826 66.8595 115.803 66.8077C115.736 66.6701 115.672 66.525 115.551 66.4176C113.424 64.4899 110.822 62.351 107.689 61.0879C105.187 60.0792 102.876 58.6035 100.814 56.7094C100.613 56.5195 100.399 56.3416 100.177 56.1608C100.033 56.0447 99.8998 55.924 99.7561 55.8079C97.5267 53.8574 94.8156 53.0334 91.7077 53.3604C89.2161 53.6269 87.1609 53.8314 85.2438 54.0123C79.0496 54.5889 73.4909 53.9528 68.2674 52.0816C67.6127 51.8438 66.9361 51.6404 66.2847 51.4382L65.8256 51.2938C63.9014 50.6989 61.7623 50.5014 59.2939 50.7082C58.8053 50.7498 58.3287 50.8046 57.8446 50.8566L57.6739 50.876C57.3606 50.9086 57.0547 50.944 56.7414 50.9766C56.1786 51.0323 55.6754 51.1112 55.186 51.2212C54.1195 51.4672 53.2002 51.865 52.3789 52.4298C51.1825 53.2522 49.8026 53.84 48.2823 54.1927C48.0465 54.2469 47.8032 54.2982 47.5629 54.342C46.8803 54.4626 46.1645 54.536 45.4815 54.6136C45.0687 54.6589 44.6588 54.6969 44.2506 54.7526C43.6642 54.8248 43.0869 54.9178 42.505 55.0004L41.359 55.1639L41.2795 55.8974C41.2795 55.8974 41.5069 56.0632 41.5608 56.1014C41.7195 56.2233 41.8632 56.3394 42.0289 56.4211L42.8787 56.8638C43.6493 57.267 44.5214 57.7183 45.3973 58.0938C49.3259 59.7613 53.5818 60.8091 58.0474 61.2084C59.0009 61.2963 59.9573 61.3768 60.9137 61.4573C63.0438 61.6341 65.1708 61.8183 67.2627 62.049C73.1856 62.6981 79.2892 62.6187 85.3935 61.8096C90.2122 61.1697 94.4092 61.619 98.2418 63.1805C99.2801 63.602 100.348 63.9921 101.389 64.3631C102.125 64.6329 102.872 64.8981 103.603 65.1827C105.493 65.9102 107.454 66.3219 109.439 66.4078C111.161 66.4858 113.19 66.6576 115.16 67.3992C115.265 67.4398 115.357 67.4241 115.423 67.4072C115.469 67.3993 115.511 67.3811 115.567 67.3687C115.616 67.3534 115.665 67.3381 115.714 67.3228L116.034 67.25L115.879 66.966L115.874 66.9557ZM9.57425 103.648C9.84862 103.583 10.0915 103.489 10.3133 103.361L10.334 103.352L10.3871 103.304C11.8989 99.9069 13.3417 98.0552 16.3399 95.6498C18.8631 93.6263 21.7242 92.1466 24.2026 90.9216C25.7666 90.1479 27.178 89.435 28.551 88.5783C30.8936 87.1286 32.4632 85.1717 33.3493 82.5879C34.6699 78.756 36.376 74.8166 38.436 70.8948C38.5791 70.6156 38.6771 70.2758 38.7196 69.8801C38.812 69.0915 38.882 68.2942 38.962 67.4492L39.0707 66.332L32.9724 61.1052L32.8165 61.285C31.9324 62.2978 31.3396 63.467 30.9505 64.9732C30.6001 66.314 30.3072 67.7718 30.0473 69.4314C29.8478 70.6936 29.6826 71.9778 29.517 73.2189C29.3277 74.6311 29.1384 76.0433 28.9206 77.4187C27.7195 84.9132 23.7072 90.3851 16.9878 93.6775L16.0453 94.135C15.0583 94.6181 14.0742 95.0938 13.0992 95.5902C9.06468 97.6349 4.91324 99.7372 0.81981 101.845C0.185175 102.173 -0.420486 102.581 -1.00253 102.973L-1.36444 103.219C-1.51368 103.315 -1.58049 103.487 -1.63278 103.621C-1.65311 103.673 -1.66763 103.711 -1.68215 103.748L-1.77134 103.911L-1.6334 104.042C-1.29457 104.363 -0.941066 104.337 -0.61778 104.257L-0.476861 104.226C-0.420497 104.213 -0.356669 104.204 -0.300305 104.192C0.117032 104.157 0.532697 104.104 0.94839 104.051C1.5601 103.98 2.19255 103.9 2.82247 103.87C4.05705 103.81 5.32019 103.787 6.54025 103.764L8.29821 103.727C8.72174 103.72 9.15565 103.709 9.58131 103.608L9.57425 103.648ZM-12.7992 109.201C-12.599 109.15 -12.4506 109.122 -12.3192 109.027C-10.3425 107.547 -8.08176 106.572 -5.74646 105.626C-4.90088 105.286 -4.27033 104.836 -3.75116 104.23C-2.66888 102.951 -1.26512 101.883 0.529346 100.959C2.63015 99.8873 4.73841 98.8187 6.83631 97.7548C6.83631 97.7548 10.0128 96.1489 11.4139 95.4405C12.0456 95.1197 12.6848 94.8017 13.3136 94.4883C14.9663 93.6632 16.6369 92.8365 18.2457 91.9256C22.9332 89.2849 26.0019 85.3093 27.3784 80.0991C27.6628 79.016 27.917 78.0327 28.077 77.0042C28.4305 74.6853 28.7479 72.3267 29.0512 70.0484L29.1793 69.1019C29.2258 68.828 29.2974 68.3577 28.7472 68.006L28.5902 67.9019L28.4546 68.0294C26.4545 69.8788 23.979 71.0963 21.5864 72.2774C20.9915 72.5697 20.3864 72.8665 19.7961 73.1691C16.8107 74.7034 14.4903 76.471 12.7213 78.5649C11.4831 80.0239 10.353 81.6022 9.24562 83.387C8.05484 85.3196 7.0317 86.888 6.02061 88.3152C4.53843 90.4006 2.53182 92.0241 0.0596864 93.1227C-0.523534 93.3851 -1.10966 93.655 -1.68834 93.9278L-1.90884 94.0309C-4.01499 95.0058 -5.90211 96.3666 -7.69581 98.1932C-10.8885 101.451 -12.4019 105.491 -13.4563 109.014L-13.5817 109.446L-13.1473 109.323C-12.9931 109.28 -12.8701 109.251 -12.7752 109.228L-12.7992 109.201ZM44.3531 83.644C45.9676 82.2114 47.4892 80.8628 49.0075 79.4786C49.3023 79.2069 49.5205 78.6907 49.5108 78.2746C49.4798 76.5017 48.9508 75.2135 47.8465 74.2336C46.3586 72.9154 44.8761 71.5392 43.4417 70.2161C42.6277 69.461 41.8378 68.7325 41.045 68.0114C40.9041 67.8879 40.7591 67.797 40.5619 67.6859C40.4633 67.6303 40.3573 67.5718 40.2496 67.4955L39.9596 67.3138L39.8823 67.6445C39.8466 67.8024 39.8018 67.9395 39.7673 68.0721C39.6764 68.3717 39.6029 68.6265 39.6144 68.9058C39.6764 70.0036 39.7393 71.0331 39.9447 72.0493C40.1737 73.2036 40.4636 74.3558 40.7428 75.4695L40.7676 75.5822C40.8879 76.0672 41.0112 76.5446 41.1241 77.0267L41.2337 77.473C41.7328 79.5657 42.2563 81.728 42.2154 83.9281C42.2112 84.1154 42.2766 84.2783 42.3676 84.4855C42.4057 84.5863 42.4558 84.7002 42.5046 84.8395L42.6267 85.1877L44.3738 83.6349L44.3531 83.644ZM29.9502 94.8437C32.519 94.2466 34.7347 93.0567 36.5453 91.2968C36.9446 90.9112 37.3244 90.5094 37.7071 90.1001C38.2607 89.5169 38.8304 88.9142 39.4453 88.3721C40.7708 87.1962 41.3621 85.7001 41.2541 83.7941C41.2483 83.6545 41.253 83.5103 41.2576 83.3661C41.2647 83.1713 41.269 82.984 41.2525 82.8058C40.9951 79.5189 40.0967 76.3345 39.206 73.3506C39.1691 73.2246 39.0705 73.1691 38.9794 73.1164C38.9181 73.0753 38.8613 73.0446 38.8 73.0036L38.6041 72.8671L38.4676 73.0631C38.4133 73.1364 38.3619 73.2023 38.3134 73.2607C38.2105 73.3924 38.1135 73.5092 38.0583 73.6509C37.699 74.5073 37.3367 75.3712 36.97 76.2247C35.9455 78.6344 34.9257 81.0545 33.9845 83.4709C33.2032 85.4771 32.1319 86.9925 30.69 88.1144C29.654 88.922 28.7884 89.5125 27.9693 89.9837C26.6208 90.7555 25.1973 91.4551 23.9616 92.0475C20.6749 93.6276 17.9103 95.4111 15.5052 97.5064C14.1942 98.645 13.0754 99.9958 12.0767 101.634C11.9581 101.828 11.9111 102.059 11.8716 102.293C11.8533 102.406 11.8247 102.524 11.7931 102.649L11.6926 103.039L12.0798 102.949C12.2207 102.918 12.3409 102.896 12.4536 102.872C12.5634 102.854 12.6405 102.833 12.7147 102.819C12.8274 102.794 12.9327 102.766 13.0289 102.718C15.6436 101.606 17.9123 100.368 19.9772 98.9475C20.4867 98.5877 20.9328 98.2804 21.3242 98.0034C23.3518 96.5685 24.04 96.0806 26.247 95.5745C26.9649 95.4074 27.858 95.2314 29.3256 94.9698C29.3716 94.9619 29.8047 94.8644 29.9456 94.8334L29.9502 94.8437ZM140.205 98.6527C139.984 98.4719 139.808 98.3263 139.66 98.1999C139.368 97.9573 139.188 97.8014 138.972 97.674C138.354 97.2962 137.741 96.9287 137.118 96.5658L136.89 96.4252C136.122 95.9714 135.349 95.5073 134.587 95.0386C134.262 94.8349 133.935 94.6388 133.608 94.4426C132.381 93.6898 131.124 92.9254 129.964 92.0872C128.619 91.1081 127.3 90.0619 126.023 89.0405C125.367 88.5189 124.719 88.0001 124.06 87.4859C120.764 84.9223 117.152 82.9486 113.319 81.6102C109.924 80.4253 106.251 79.665 102.11 79.2717C98.4044 78.9279 94.4618 78.8181 89.6918 78.9359C84.8178 79.056 80.5456 78.1823 76.6266 76.2695C75.8025 75.8712 74.9519 75.497 74.1312 75.1343C73.7073 74.9435 73.2731 74.7572 72.8492 74.5664C69.0823 72.8587 64.9783 72.0162 60.3037 71.9993C59.8222 72.0007 59.3365 72.0348 58.8657 72.0748C58.6162 72.0979 58.3874 72.1118 58.1586 72.1258L57.9046 72.1385L57.9351 72.3909C58.0259 73.2165 58.5346 73.5864 58.9745 73.9124L59.1137 74.0181C64.1407 77.8055 68.56 80.3084 73.0096 81.8954C73.4778 82.0606 73.946 82.2257 74.4068 82.388C75.1791 82.6545 75.9485 82.9284 76.7151 83.2097C78.7209 83.948 80.7363 84.441 82.6943 84.6624L82.9815 84.697C85.3502 84.9667 87.7619 85.2361 90.1489 85.3927C95.3347 85.729 100.447 86.6723 105.354 88.1883C110.453 89.7619 115.903 91.5583 121.22 94.0069C124.562 95.549 128.16 96.7187 131.92 97.496C133.122 97.7407 134.328 97.9957 135.527 98.2479C135.527 98.2479 137.869 98.7394 138.665 98.903C138.855 98.9429 139.052 98.9679 139.364 99.0037L140.029 99.0823L140.888 99.1934L140.213 98.6556L140.205 98.6527ZM52.9108 99.0966C53.6746 98.9217 54.4037 98.6817 55.0669 98.3903C57.0197 97.5446 58.2457 96.3816 58.8292 94.8394C59.2371 93.77 59.5584 92.6583 59.8681 91.5764C60.0063 91.0892 60.152 90.6048 60.2949 90.1279L60.3094 90.0906L60.3069 89.9866C57.9032 86.1901 54.944 81.7908 50.926 77.4859L50.5868 77.1219L50.4189 78.1043C50.3648 78.3753 50.3436 78.4959 50.3403 78.6149C50.3014 79.2439 50.2774 79.8788 50.2461 80.5108C50.1911 81.8207 50.144 83.1766 49.9328 84.4687C48.617 92.5885 45.2908 98.4823 39.7476 102.482L39.1689 102.909C38.4823 103.415 37.7693 103.945 37.021 104.366C35.8292 105.044 34.6121 105.876 33.8123 107.334C33.4614 107.97 32.9464 108.543 32.4551 109.098C32.2108 109.373 31.9724 109.632 31.7535 109.907C31.627 110.056 31.5125 110.217 31.3554 110.422L30.718 111.265L31.3131 111.17C31.4126 111.158 31.5075 111.134 31.5995 111.119C32.3916 110.938 32.9098 110.555 33.4118 110.193C33.5063 110.126 33.6037 110.053 33.6983 109.986L34.6642 109.315C37.2519 107.522 39.9312 105.671 42.5459 103.744C45.5814 101.507 48.682 100.052 52.0072 99.2772C52.1942 99.2384 52.786 99.1081 52.8988 99.0833L52.9108 99.0966ZM26.5756 107.831C32.587 106.444 37.9987 103.355 42.6691 98.6637C44.0374 97.2898 45.1293 95.7653 45.92 94.1321C47.9084 90.0192 49.0277 86.1089 49.3426 82.1688L49.358 82.0631C49.3917 81.8443 49.4507 81.4722 48.9901 81.1554L48.8554 81.06L48.7165 81.1519C48.656 81.1971 48.5909 81.2318 48.52 81.2815C48.3604 81.3826 48.1594 81.5018 47.9898 81.6505L47.1818 82.3579C46.008 83.3867 44.8372 84.4081 43.7111 85.4468C42.6882 86.397 41.6645 87.4155 40.7631 88.3185L40.1872 88.893C39.7717 89.2981 39.3683 89.7164 38.9574 90.1319L38.8853 90.2068C38.1564 90.9536 37.4407 91.6885 36.7097 92.3743C35.2449 93.7536 33.5652 94.7142 31.7299 95.2362C31.131 95.4067 30.5304 95.5593 29.9535 95.6953C29.2534 95.8607 28.565 95.9963 27.9135 96.1033C27.5915 96.1583 27.2844 96.219 26.9743 96.2872C25.2108 96.6912 23.7144 97.3796 22.4023 98.3889C22.1336 98.5935 21.8559 98.7774 21.5752 98.9687C21.3655 99.1103 21.1557 99.2519 20.9505 99.4039C19.2789 100.608 17.3451 101.736 15.0441 102.858C13.6339 103.546 12.2947 104.029 10.9614 104.343C9.55383 104.671 8.1949 104.786 6.79712 104.714C5.75324 104.66 4.71178 104.709 3.70597 104.756L3.03294 104.785C1.26046 104.86 -0.479386 105.092 -2.15092 105.481C-5.82474 106.335 -9.29838 107.954 -12.4636 110.302C-15.3159 112.421 -17.2145 114.319 -18.6217 116.476C-18.805 116.748 -18.9597 117.057 -19.1394 117.408C-19.2576 117.646 -19.3642 117.853 -19.5032 118.1L-19.8612 118.776L-18.6848 118.204C-18.4331 118.087 -18.2926 118.013 -18.1492 117.931C-17.7811 117.714 -17.4175 117.486 -17.0465 117.261C-16.4611 116.905 -15.8804 116.539 -15.2859 116.204C-13.8562 115.378 -12.3901 114.789 -10.9337 114.446C-9.87761 114.204 -8.79965 114.083 -7.72051 114.091C-6.03342 114.104 -4.30702 114.192 -2.64609 114.272L-2.41859 114.284C0.326433 114.425 2.91374 114.222 5.26749 113.67C6.97757 113.271 8.63097 112.686 10.1639 111.926C12.0164 111.007 14.0403 110.309 16.5321 109.734C17.6652 109.471 18.8804 109.24 20.4698 108.974L21.5888 108.792C23.2392 108.524 24.8924 108.249 26.4972 107.877L26.5818 107.859L26.5756 107.831ZM143.793 119.917L143.295 119.586C142.955 119.359 142.744 119.216 142.52 119.086L142.379 119.006C140.362 117.877 138.345 116.748 136.313 115.638C132.382 113.489 128.147 111.925 123.713 111.005C122.162 110.685 120.597 110.316 119.079 109.957L118.946 109.922C117.719 109.633 116.495 109.337 115.266 109.073C108.397 107.566 101.842 104.703 95.7834 100.566C92.8251 98.546 89.725 96.6256 86.7309 94.7638L85.3079 93.8745C82.5127 92.1417 80.0662 90.9913 77.5908 90.2677C73.9143 89.1879 70.0327 88.7669 66.6856 88.4511L66.589 88.4564C66.5223 88.4734 66.4779 88.4991 66.4025 88.5384L66.1525 88.673L65.9158 88.7955L66.4061 89.5877C66.6264 89.9483 66.8376 90.2883 67.0649 90.6087C70.0585 94.8754 73.8974 98.6038 78.8065 102.01C82.4173 104.516 86.4078 106.775 91.0067 108.927C93.7755 110.22 96.6242 111.132 99.4929 111.639C100.874 111.885 102.226 112.12 103.585 112.314C107.34 112.84 110.97 113.575 114.361 114.484C116.639 115.096 118.909 115.731 121.178 116.366L121.573 116.477C126.499 117.854 131.121 118.778 135.692 119.304C137.163 119.474 138.654 119.728 140.089 119.969C140.925 120.114 141.707 120.247 142.487 120.362C142.68 120.394 142.873 120.384 143.132 120.381C143.279 120.378 143.454 120.369 143.659 120.372L144.475 120.372L143.791 119.925L143.793 119.917ZM48.6386 127.289C50.7507 126.806 52.6365 125.625 54.2474 123.805C55.7406 122.11 56.9057 120.133 57.9199 118.389C59.7727 115.22 61.7129 112.995 64.0108 111.374C64.5676 110.981 64.8811 110.484 65.0129 109.771C65.3985 107.722 65.8804 106.132 66.5322 104.745C66.8064 104.174 66.8282 103.632 66.6044 103.038L66.3606 102.385C66.1044 101.676 65.8408 100.963 65.5536 100.267C64.2291 96.9855 62.8787 94.2779 61.2965 91.7463L61.0944 91.4271L60.8788 91.7382C60.3375 92.5323 60.1582 93.2355 59.9974 93.8686L59.897 94.259C58.9919 97.5311 57.7482 100.835 56.0903 104.363C54.4267 107.907 52.056 110.84 49.0458 113.078C48.8907 113.189 48.4953 113.499 48.4953 113.499C48.1972 113.735 47.9182 113.944 47.6346 114.143C44.9068 116.052 42.1763 118.167 39.5217 120.44C37.4968 122.177 35.1856 123.656 32.4523 124.962C30.7652 125.765 29.3716 126.476 28.0509 127.199C25.4406 128.63 23.1836 130.499 21.3553 132.768C21.2362 132.919 21.1367 133.086 20.9874 133.338C20.8908 133.497 20.7854 133.68 20.6419 133.916L20.1599 134.69L21.8446 133.783C22.3105 133.535 22.6803 133.335 23.0426 133.133C26.2768 131.335 29.7159 130.003 33.2562 129.183C34.0126 129.005 34.7827 128.859 35.5469 128.727C37.9955 128.306 40.504 128.106 42.9264 127.907L44.9671 127.74C45.9414 127.664 46.9261 127.584 47.8938 127.437C48.1417 127.396 48.3895 127.355 48.6283 127.294L48.6386 127.289ZM11.4988 139.219C11.7326 139.104 11.9071 139.009 12.0845 138.906C12.4676 138.694 12.8535 138.475 13.232 138.253L13.2999 138.211C14.1871 137.698 15.0978 137.168 16.0379 136.761C17.3067 136.216 18.286 135.378 19.2117 134.037C21.6793 130.48 24.8054 127.747 28.5029 125.906C28.8743 125.724 29.2411 125.532 29.608 125.34C30.1776 125.046 30.7368 124.757 31.3051 124.489C33.587 123.394 36.2304 122.01 38.5459 120.034C41.4647 117.546 44.4932 115.196 47.5444 113.051C48.0274 112.716 48.4921 112.338 48.9481 111.983L49.1223 111.845C51.526 109.93 53.4252 107.611 54.761 104.954C55.4048 103.675 55.9725 102.351 56.5301 101.073L56.8765 100.272C56.9827 100.021 57.0384 99.768 57.1024 99.4493C57.1394 99.2662 57.1735 99.0905 57.2266 98.8879L57.357 98.3546L56.8749 98.622C55.5173 99.3731 54.193 99.7077 52.7292 100.048L51.9089 100.235C49.2705 100.857 46.8249 101.931 44.6596 103.433C43.8856 103.965 43.1162 104.507 42.3497 105.041L41.5935 105.571C40.8742 106.073 40.1595 106.585 39.4477 107.089L39.1065 107.326C36.1457 109.436 33.0829 111.61 29.84 113.431C28.5209 114.171 27.2568 115.234 25.8706 116.764C25.1363 117.569 24.4169 118.379 23.6974 119.19C22.388 120.655 21.0432 122.167 19.6579 123.629C15.558 127.959 12.5812 132.889 10.8109 138.273C10.7574 138.432 10.7441 138.599 10.7237 138.805C10.7128 138.921 10.7065 139.048 10.6886 139.204L10.6304 139.662L11.4943 139.209L11.4988 139.219ZM-12.8469 119.799C-12.2894 118.831 -11.7979 117.966 -11.3138 117.098C-11.2217 116.928 -11.1342 116.747 -10.9927 116.45L-10.4268 115.262L-10.9648 115.43C-11.2761 115.523 -11.5488 115.606 -11.7934 115.683C-12.3745 115.852 -12.8221 115.986 -13.2366 116.169C-13.5371 116.301 -13.9008 116.683 -13.9598 117.055C-14.161 118.299 -14.2341 119.413 -13.9182 120.808L-13.7789 121.42L-12.8514 119.789L-12.8469 119.799ZM26.6468 108.795C25.2422 109.115 23.8384 109.367 22.1553 109.631C21.6165 109.713 21.0703 109.792 20.5315 109.874C19.2119 110.065 17.8389 110.26 16.5055 110.574C15.5904 110.784 14.7751 111.025 14.0257 111.317C12.817 111.774 11.6133 112.285 10.4465 112.766C9.75799 113.056 9.0695 113.347 8.37645 113.626C7.83595 113.845 7.45902 114.24 7.1881 114.847C6.7093 115.966 5.86011 116.889 4.67452 117.596C4.07135 117.954 3.44127 118.292 2.82736 118.611L2.09074 119.003C1.82752 119.15 1.55972 119.286 1.29194 119.422L1.18543 119.475C0.564051 119.791 -0.0809527 120.124 -0.692815 120.504C-1.96092 121.29 -2.64934 122.242 -3.22629 124.01L-3.43008 124.643L-2.10271 123.838C-0.850796 123.071 0.579256 122.443 2.51614 121.814C3.26305 121.573 4.04434 121.353 4.89274 121.16C6.82829 120.711 8.81887 120.43 10.7531 120.161C11.7506 120.025 12.7433 119.837 13.7355 119.605C15.7096 119.145 17.7236 118.495 19.7256 117.677C24.1028 115.878 27.9865 112.941 31.9511 108.43C32.0452 108.32 32.1095 108.199 32.197 108.019C32.2642 107.89 32.324 107.759 32.4102 107.604L32.6645 107.127L32.144 107.251C31.9007 107.302 31.693 107.35 31.4987 107.386C31.3325 107.416 31.1812 107.451 31.0506 107.478C30.843 107.526 30.6859 107.576 30.5362 107.63C29.3736 108.079 28.1078 108.462 26.672 108.796L26.6468 108.795ZM62.3979 125.88C64.2178 125.463 65.8833 124.738 67.439 124.029C68.0533 123.753 68.4352 123.258 68.6188 122.522C68.7521 121.981 68.8929 121.443 69.0336 120.906C69.2661 120 69.5132 119.057 69.7263 118.135C70.125 116.383 70.0894 114.755 69.614 113.152C69.2322 111.861 68.8649 110.533 68.5129 109.253C68.2961 108.464 68.0839 107.686 67.8643 106.905C67.8258 106.761 67.7401 106.65 67.6196 106.475C67.5367 106.356 67.4494 106.228 67.3438 106.058L67.0784 105.637L66.8983 106.099C66.8202 106.344 66.7418 106.545 66.675 106.716C66.5443 107.052 66.4542 107.283 66.3957 107.544C66.141 108.793 65.8294 110.321 65.5858 111.807C64.682 117.347 63.4276 121.428 61.5327 125.036C61.4464 125.191 61.4629 125.37 61.4822 125.54C61.4934 125.622 61.4971 125.701 61.5008 125.779L61.499 126.071L61.7854 126.019C61.9901 125.979 62.1874 125.935 62.3847 125.892L62.3979 125.88ZM39.3794 139.264C39.6434 139.204 39.9104 139.136 40.1727 139.058C42.042 138.514 43.5832 137.689 44.8955 136.525C46.7753 134.852 48.8017 133.288 50.7648 131.776L51.4791 131.221C53.2871 129.821 55.162 128.756 57.0492 128.057C58.2372 127.609 59.177 126.85 60.0089 125.662C60.5137 124.94 60.9147 124.263 61.2342 123.597C62.6783 120.595 63.6982 117.359 64.2693 113.974L64.2893 113.878C64.3408 113.658 64.428 113.28 63.976 112.94L63.8368 112.835L63.6951 112.934C63.6138 112.988 63.5326 113.043 63.4438 113.094C63.2295 113.225 62.9945 113.366 62.8 113.556C61.4343 114.879 60.2615 116.347 59.3126 117.901L59.1002 118.248C58.2259 119.677 57.3238 121.155 56.3989 122.581C54.4156 125.622 51.8017 127.482 48.423 128.262C47.5183 128.468 46.546 128.604 45.5327 128.648C43.5003 128.749 41.4497 128.964 39.46 129.177C38.7339 129.255 38.0004 129.33 37.2772 129.401C35.963 129.533 34.6421 129.749 33.3473 130.052C30.6939 130.667 28.0068 131.656 25.3704 133C23.9457 133.725 22.5255 134.461 21.1054 135.196C19.1778 136.197 17.1806 137.223 15.2054 138.215C12.1753 139.732 9.73133 141.64 7.73053 144.064C6.33972 145.739 4.83156 147.582 2.98252 149.86C2.87968 149.991 2.83358 150.154 2.79041 150.309C2.76881 150.386 2.74722 150.464 2.72272 150.549L2.57789 150.965L3.00353 150.864C3.09844 150.841 3.19046 150.825 3.27211 150.814C3.38193 150.797 3.4665 150.778 3.55106 150.76C3.67415 150.73 3.78231 150.695 3.87103 150.644C6.14305 149.442 7.78923 148.391 9.22204 147.248C9.54666 146.988 9.87419 146.72 10.1988 146.46C10.7904 145.978 11.3821 145.495 11.9828 145.033C15.0071 142.716 18.3858 141.12 22.0389 140.275C23.8054 139.863 25.6671 139.627 27.5705 139.569C29.3015 139.513 31.0441 139.582 32.7258 139.653L32.928 139.663C33.502 139.689 34.0714 139.705 34.6407 139.72C36.3713 139.776 37.9217 139.632 39.3856 139.292L39.3794 139.264ZM132.083 140.789L131.414 140.211C131.05 139.889 130.664 139.558 130.276 139.252C127.541 137.122 124.325 135.457 120.438 134.167L119.533 133.866C117.516 133.2 115.502 132.528 113.538 131.814C110.347 130.657 107.4 129.071 104.773 127.104L104.209 126.678C102.741 125.573 101.227 124.434 99.6651 123.37C98.0992 122.297 96.4065 121.174 94.6453 120.204C91.71 118.589 88.4487 117.413 84.9688 116.71C84.3166 116.577 83.6511 116.455 82.996 116.328C80.8491 115.93 78.6425 115.509 76.5493 114.797C76.4821 114.771 76.4034 114.774 76.3188 114.793C76.2625 114.805 76.2032 114.825 76.1307 114.857C76.0714 114.877 75.9989 114.909 75.9218 114.93L75.6772 115.007L75.7641 115.247C75.7977 115.337 75.8237 115.425 75.8543 115.523C75.9247 115.739 75.9921 115.963 76.1114 116.164L76.5387 116.897C77.4098 118.387 78.3112 119.932 79.2404 121.428C80.4955 123.454 81.9914 125.171 83.6671 126.536C88.0394 130.086 92.3908 132.476 96.9797 133.86C101.287 135.151 105.707 136.306 109.977 137.428L111.816 137.912C115.315 138.828 118.861 139.23 122.163 139.528C125.534 139.828 128.274 140.379 130.777 141.251C130.949 141.318 131.13 141.337 131.309 141.364L131.703 141.432L132.093 140.785L132.083 140.789ZM20.6413 188.389C20.7807 188.186 20.9171 187.99 21.0565 187.786C21.3675 187.341 21.6786 186.895 21.9507 186.417L22.426 185.571C23.3153 183.994 24.2428 182.362 25.0629 180.697C26.8829 177.017 29.2173 173.692 32.0045 170.792C32.2827 170.496 32.5609 170.201 32.8317 169.903C33.2173 169.486 33.6117 169.047 34.0242 168.649C37.6659 165.077 40.7305 160.98 43.1256 156.484C44.7214 153.49 46.8036 150.702 49.315 148.201C51.0266 146.497 52.8306 144.821 54.5757 143.207L55.0297 142.791C55.606 142.26 56.2196 141.743 56.8095 141.243C57.2063 140.908 57.606 140.565 57.9982 140.22C59.9829 138.476 61.4624 136.75 62.54 134.954C63.7478 132.933 64.8865 130.826 65.9932 128.8L66.9551 127.036C67.0837 126.794 67.1497 126.537 67.217 126.254C67.2544 126.113 67.2784 125.985 67.3204 125.856L67.4183 125.516L67.0648 125.541C66.943 125.546 66.8464 125.551 66.7573 125.559C66.6177 125.565 66.4809 125.563 66.3549 125.6C65.7324 125.787 65.1322 125.983 64.4151 126.236C64.1648 126.327 63.9144 126.419 63.6612 126.518C63.2761 126.668 62.925 126.798 62.5723 126.91C57.8874 128.375 54.0348 130.327 50.7911 132.877C50.406 133.183 50.0163 133.478 49.634 133.775C48.9226 134.323 48.2112 134.87 47.5296 135.429C45.1843 137.393 42.5246 139.613 40.4822 142.365C37.8555 145.911 35.1731 149.711 32.5247 153.644C31.2854 155.48 30.1212 157.389 28.9906 159.233C28.3037 160.357 27.6447 161.432 26.9632 162.498C25.624 164.613 24.7253 166.634 24.2088 168.666C23.681 170.771 23.1938 172.926 22.7356 175.007L22.3958 176.541C21.8317 179.07 21.2677 181.598 20.714 184.123L20.056 187.113C20.0103 187.319 19.8238 188.217 19.8238 188.217L20.5198 188.591L20.643 188.407L20.6413 188.389ZM105.297 154.716L105.076 154.578C102.872 153.179 100.982 151.326 99.1557 149.533L98.7162 149.095C96.4157 146.842 93.8285 145.259 90.7976 144.242C90.1446 144.022 89.5437 143.822 88.9736 143.566C88.5228 143.356 88.0588 143.158 87.6051 142.955C86.3427 142.404 85.0384 141.827 83.8415 141.129C80.596 139.229 78.0635 136.8 76.3207 133.931C75.7985 133.066 75.0255 132.559 74.0809 131.985L73.7462 131.786L73.7066 132.174C73.6887 132.33 73.6691 132.468 73.6554 132.592C73.6147 132.851 73.581 133.07 73.6202 133.3C74.1899 136.777 74.7775 140.253 75.3724 143.731L75.6158 145.157C75.7368 145.883 76.0714 146.546 76.6272 147.192C79.0049 149.93 81.4241 151.989 84.0118 153.461C86.2498 154.727 88.5909 155.244 90.9711 154.977L91.5264 154.919C92.4411 154.82 93.3885 154.725 94.3098 154.543C97.1762 153.975 99.8152 154.058 102.381 154.792C102.891 154.939 103.412 155.056 103.916 155.174L104.805 155.383L105.294 154.723L105.297 154.716ZM114.536 155.849C114.905 155.761 115.267 155.67 115.631 155.572C116.014 155.472 116.34 155.384 116.653 155.308C117.11 155.194 117.565 155.062 117.996 154.904C118.177 154.837 118.347 154.731 118.517 154.625C118.598 154.571 118.69 154.512 118.789 154.456L119.031 154.319L118.86 154.098C118.786 154 118.72 153.906 118.661 153.814C118.515 153.594 118.378 153.395 118.185 153.251L117.798 152.963C117.034 152.39 116.257 151.804 115.422 151.324C113.089 149.969 110.604 149.096 108.475 148.43C103.835 146.957 100.121 144.893 97.1293 142.121C95.1986 140.33 92.8188 139.008 89.86 138.07C87.2827 137.255 84.6491 136.453 82.1079 135.678L79.1374 134.77C79.0703 134.744 79.0094 134.746 78.9307 134.75C78.8772 134.755 78.4727 134.734 78.4727 134.734L78.502 135.012C78.5132 135.094 78.5152 135.155 78.5201 135.208C78.5226 135.312 78.5337 135.394 78.5954 135.478L78.6451 135.549C78.7851 135.741 78.9222 135.94 79.0858 136.116C81.3178 138.522 83.8465 140.366 86.5984 141.593C88.143 142.28 89.4303 142.79 90.6439 143.203C94.2102 144.411 97.1247 146.191 99.5399 148.634C100.879 149.981 102.3 151.23 103.772 152.499C105.597 154.077 107.932 155.184 111.121 155.971C112.328 156.269 113.521 156.072 114.531 155.839L114.536 155.849ZM47.6784 220.35C47.8262 219.926 47.9552 219.573 48.0619 219.211C48.3691 218.179 48.6643 217.135 48.9641 216.101L49.0201 215.891C49.6437 213.694 50.2963 211.423 51.0148 209.203C52.4273 204.849 52.9924 200.311 52.7388 195.316C52.4647 190.021 52.5921 185.725 53.127 181.793C54.6237 170.849 58.5249 162.156 65.0625 155.228C66.0871 154.141 67.0214 152.933 67.9159 151.761L68.195 151.397C69.6875 149.462 70.64 147.325 71.0341 145.056C71.3009 143.511 71.5185 141.938 71.7364 140.408L71.7684 140.172C71.7934 139.975 71.7574 139.781 71.7169 139.576C71.6921 139.463 71.6673 139.351 71.6483 139.223L71.5835 138.794L70.8119 139.43C70.5375 139.649 70.3074 139.843 70.0818 140.047C66.4847 143.284 62.9812 145.862 59.3511 147.927C57.8799 148.771 56.3999 149.793 54.9646 150.986C51.9049 153.505 49.6443 156.618 48.2533 160.234C46.3686 165.117 45.4348 170.139 45.4894 175.159C45.5556 181.936 45.3074 187.491 44.7076 192.626C44.3975 195.297 44.5087 198.209 45.0457 201.527C45.5717 204.764 46.1178 208.103 46.1886 211.472C46.2302 213.593 46.3314 215.737 46.4261 217.809L46.4966 219.348L46.4982 219.521C46.5083 219.98 46.525 220.51 47.0341 221.078L47.3074 221.391C47.3074 221.391 47.6 220.551 47.671 220.347L47.6784 220.35ZM73.7509 231.741C73.8177 231.57 73.87 231.436 73.9107 231.331C73.9891 231.13 74.0489 230.998 74.0639 230.85C74.1305 230.171 74.1943 229.5 74.2684 228.825C74.557 226.077 74.8477 223.236 74.7373 220.41C74.4831 214.204 75.0286 208.172 76.3635 202.473C76.8714 200.309 77.1233 198.096 77.2833 196.406C77.7124 191.952 77.2076 187.272 75.6957 181.693C74.813 178.446 74.1906 175.06 73.6344 172.077C72.7574 167.338 72.685 163.136 73.4209 159.239C73.4549 159.064 73.4608 158.894 73.4676 158.656C73.4693 158.519 73.5103 157.797 73.5103 157.797L73.1563 157.934C72.0737 158.354 71.4849 158.983 70.9275 159.797C70.1839 160.89 69.4087 162.109 68.4892 163.632C66.1598 167.517 65.0312 171.87 65.1453 176.562C65.2302 179.85 65.6565 183.254 66.4661 186.954C67.386 191.186 68.3614 195.474 69.2954 199.626L69.3264 199.767C69.9148 202.358 70.4957 204.946 71.0738 207.542C71.7742 210.683 72.2192 214.018 72.4006 217.455C72.4006 217.455 72.9616 228.299 73.0807 230.441C73.0901 230.659 73.1277 230.872 73.1719 231.155C73.2 231.303 73.2619 231.74 73.2619 231.74L73.6979 231.789L73.7211 231.73L73.7509 231.741ZM114.863 156.595C111.701 157.305 108.517 157.276 105.411 156.496L104.13 156.168C103.091 155.901 102.05 155.642 101.013 155.393C99.3124 154.996 97.809 154.909 96.4185 155.149C93.7888 155.594 91.5176 155.912 88.9814 156.006L88.5089 156.028L88.7992 156.408C89.9965 157.965 91.1725 158.981 92.7332 159.804C95.5828 161.309 98.4646 162.113 101.312 162.191C103.647 162.259 105.976 162.213 108.223 162.066C111.9 161.823 115.692 161.238 119.806 160.29C120.176 160.202 120.542 160.121 120.904 160.03C124.472 159.161 127.496 157.264 129.882 154.379C130.16 154.041 130.452 153.708 130.738 153.373C131.111 152.943 131.451 152.534 131.79 152.125C131.904 151.989 131.954 151.837 132.033 151.635C132.07 151.538 132.117 151.419 132.169 151.285L132.385 150.776L129.941 151.602C128.665 152.033 127.449 152.444 126.247 152.861L125.732 153.038C125.017 153.284 124.208 153.552 123.456 153.895C121.168 154.919 118.577 155.748 115.322 156.499L114.868 156.606L114.863 156.595ZM129.08 165.568C128.4 163.895 126.245 161.071 124.733 159.881L124.667 159.829L123.825 160.051C122.968 160.31 122.088 160.586 121.204 160.869C121.047 160.919 120.97 161.052 120.911 161.158C120.897 161.196 120.88 161.215 120.861 161.242L120.85 161.272L120.812 161.369C120.84 161.56 120.861 161.706 120.997 161.776C121.563 162.065 122.124 162.344 122.693 162.625C124.645 163.592 126.608 164.571 128.37 165.824C128.49 165.914 128.637 165.911 128.749 165.911C128.781 165.916 128.809 165.909 128.842 165.914L129.248 165.951L129.095 165.574L129.08 165.568ZM141.83 181.416L141.699 181.331C136.269 177.919 131.443 175.842 126.506 174.778C122.648 173.945 118.754 172.695 114.933 171.061C113.503 170.453 112.05 169.861 110.549 169.259C107.6 168.076 104.514 167.553 101.393 167.694C99.0129 167.807 96.5988 167.94 94.2606 168.077L92.7231 168.166C92.7231 168.166 92.6949 168.172 92.6875 168.169C92.5362 168.205 92.4653 168.254 92.3898 168.294C92.3322 168.331 92.3086 168.348 92.2804 168.354L92.1428 168.421L92.1427 168.575C92.1557 169.182 92.579 169.484 92.9171 169.719C93.0128 169.782 93.0936 169.839 93.164 169.901C97.9924 173.911 102.888 176.162 108.127 176.759C108.25 176.773 108.371 176.794 108.491 176.815C108.652 176.843 108.773 176.865 108.904 176.881C113.542 177.477 117.756 178.543 121.794 180.15C124.94 181.401 128.406 182.029 132.101 182.025C132.841 182.021 133.574 182.015 134.307 182.008C135.668 181.997 137.043 181.974 138.397 182.004C139.02 182.014 139.657 182.099 140.279 182.178C140.581 182.219 140.876 182.256 141.173 182.286L141.089 182.502L141.557 182.315L141.645 182.332L141.72 182.336L141.733 182.195C141.733 182.195 141.77 182.209 141.791 182.2C141.826 182.197 141.86 182.176 141.905 182.15C141.946 182.132 141.983 182.103 142.023 182.067L142.486 181.715C142.486 181.715 141.827 181.578 141.794 181.574L141.816 181.385L141.83 181.416ZM114.961 238.979L114.92 238.774C114.802 238.196 114.684 237.617 114.558 237.036C114.291 235.781 114.024 234.483 113.832 233.188C113.292 229.568 112.459 226.083 111.348 222.807C110.24 219.541 108.833 216.846 107.051 214.563C106.668 214.07 105.764 212.928 105.764 212.928C105.297 212.342 104.832 211.748 104.367 211.155C102.59 208.882 101.267 206.478 100.424 204.011C99.8336 202.286 99.3418 200.505 98.9689 198.728C98.2528 195.34 96.8463 192.181 94.7872 189.352C94.557 189.039 94.3222 188.716 94.0919 188.403C93.7353 187.929 93.3891 187.45 93.0458 186.965L92.1952 185.774C91.2664 184.476 90.3135 183.152 89.4066 181.819C88.1622 179.986 87.3466 178.397 86.8269 176.821C86.7413 176.555 86.6006 176.123 85.9885 176.15L85.9529 176.154L85.855 176.184C85.3421 176.818 85.2534 177.531 85.1706 178.228L85.1361 178.516C84.539 183.136 85.3904 187.676 87.6488 192C88.452 193.533 89.3319 195.001 90.3082 196.618C92.285 199.879 93.6748 202.662 94.6982 205.371C95.2892 206.941 95.9622 208.543 96.7599 210.288C97.9277 212.847 99.5348 215.183 101.092 217.447C101.092 217.447 102.208 219.058 102.669 219.727C104.788 222.777 106.975 225.94 108.811 229.231C109.853 231.098 110.861 233.01 111.833 234.858L111.877 234.944C112.4 235.938 112.919 236.921 113.453 237.911C113.597 238.181 113.771 238.439 113.939 238.693C114.033 238.824 114.278 239.211 114.278 239.211L114.952 238.958L114.961 238.979ZM173.516 214.759C173.66 214.72 173.789 214.633 173.9 214.479L174.002 214.329L173.884 214.189C173.848 214.149 173.823 214.105 173.79 214.058C173.707 213.94 173.616 213.818 173.495 213.711C172.677 213.032 171.863 212.345 171.043 211.648C169.183 210.073 167.252 208.437 165.245 206.951C159.697 202.848 153.245 199.743 146.08 197.717C140.687 196.192 134.394 194.419 128.031 192.697C124.288 191.677 120.947 190.376 117.813 188.717L116.823 188.194C115.973 187.752 115.139 187.315 114.345 186.86C110.065 184.42 105.267 182.096 99.2356 179.541C98.997 179.448 98.7525 179.37 98.4724 179.295C98.3025 179.246 98.1401 179.2 97.9553 179.145L97.5484 179.021L97.6443 179.436C97.6844 179.598 97.708 179.736 97.7344 179.866C97.7919 180.138 97.8341 180.36 97.9177 180.565C98.5232 182.098 99.3857 183.456 100.481 184.612C103.012 187.29 105.879 189.343 109.007 190.707C110.558 191.38 112.245 192.054 114.33 192.832C119.727 194.831 125.588 196.478 133.323 198.185C140.507 199.764 147.366 202.443 154.304 206.374C157.801 208.355 161.463 210.09 165.2 211.545C166.855 212.19 168.505 212.85 170.152 213.517C170.152 213.517 172.023 214.271 172.885 214.616L172.982 214.654C173.118 214.724 173.301 214.804 173.509 214.756L173.516 214.759Z" fill="#695E5C"/>
</svg>
