<svg width="309" height="560" viewBox="0 0 309 560" fill="none" xmlns="http://www.w3.org/2000/svg">
<path d="M352.789 429.792C353.383 428.04 353.881 426.193 354.305 424.154C355.025 420.708 355.745 417.263 356.447 413.823C356.825 411.948 357.195 410.076 357.564 408.205L357.997 405.981C358.019 405.844 358.04 405.737 358.042 405.635C358.047 405.108 358.02 404.863 357.669 404.728C357.566 404.686 357.282 404.573 356.952 405.241L355.629 407.863C354.625 409.851 353.627 411.827 352.644 413.818C351.383 416.373 349.726 418.957 347.587 421.735C345.722 424.154 343.252 427.308 340.618 430.305C336.628 434.862 333.574 439.37 331.29 444.1C330.133 446.484 329.299 448.465 328.665 450.329C328.408 451.078 328.189 451.816 327.992 452.528L327.676 453.718C326.776 457.062 325.859 460.491 325.309 463.93C325.249 464.331 325.224 464.752 325.197 465.164C325.156 465.853 325.118 466.551 324.896 467.209C324.652 467.894 324.215 468.43 323.83 468.901C323.567 469.227 323.294 469.555 323.095 469.894C322.744 470.486 322.452 471.144 322.166 471.79C322.03 472.1 321.898 472.39 321.767 472.679L321.677 472.866L321.471 472.852C320.773 472.814 320.69 472.261 320.639 471.931L320.616 471.776C320.382 470.718 320.168 469.656 319.941 468.587L319.882 468.3C319.473 466.321 319.001 464.076 318.493 461.923C317.362 457.091 315.917 452.802 314.068 448.807C314.038 448.735 313.995 448.656 313.956 448.586C313.829 448.348 313.717 448.126 313.665 447.868C312.752 443.603 312.795 440.265 313.777 437.363C314.51 435.198 315.758 433.324 317.589 431.653C318.514 430.799 319.463 429.959 320.405 429.131C321.2 428.425 321.985 427.721 322.779 427.015C324.7 425.268 326.893 423.121 328.538 420.42C329.483 418.873 330.162 417.461 330.629 416.087C330.746 415.742 330.852 415.399 330.945 415.039L331.17 414.178C331.54 412.781 331.921 411.351 332.214 409.935C332.388 409.068 332.62 408.194 332.913 407.355C333.656 405.156 334.761 403.06 336.294 400.935L336.709 400.355C338.132 398.382 339.607 396.344 340.868 394.224C341.875 392.539 342.689 390.776 343.291 389.012C344.504 385.449 344.885 381.694 344.442 377.844C344.263 376.327 344.067 374.713 343.664 373.157C342.446 368.41 341.812 363.512 341.782 358.606C341.774 357.739 341.714 356.978 341.608 356.269C341.586 356.154 341.372 355.93 341.19 355.859C341.088 355.817 340.989 355.824 340.9 355.869C340.793 355.919 340.694 356.038 340.653 356.181C340.47 356.757 340.326 357.333 340.19 357.897L340.042 358.494C339.784 359.526 339.525 360.558 339.275 361.588C338.732 363.781 338.17 366.051 337.552 368.264C337.323 369.076 337.069 369.905 336.783 370.733C335.076 375.757 332.472 380.717 328.817 385.898C328.485 386.375 328.155 386.861 327.834 387.344L327.721 387.517C327.464 387.902 327.2 388.299 326.931 388.677C325.667 390.494 324.747 392.277 324.099 394.125C322.49 398.738 320.196 403.106 317.286 407.11C315.267 409.885 313.695 412.92 312.597 416.137C312.42 416.662 312.247 417.205 312.093 417.743C311.152 421.048 310.825 424.526 311.126 428.081C311.296 430.036 311.776 431.874 312.559 433.526C312.727 433.874 312.875 434.227 313.029 434.599L313.294 435.223L313.245 435.337C313.096 435.712 312.96 436.094 312.833 436.473C312.065 438.729 311.796 440.745 312.002 442.649L312.038 442.962L311.72 442.98C311.611 442.99 311.512 442.997 311.435 443.009C311.208 443.031 311.003 443.058 310.871 442.872C308.128 438.641 304.68 434.605 300.353 430.531C298.652 428.921 297.887 427.081 297.888 424.574C297.886 422.532 298.201 420.574 298.811 418.767C299.265 417.418 299.911 416.106 300.713 414.882C301.047 414.374 301.374 413.879 301.709 413.372C303.164 411.188 304.66 408.932 305.845 406.54C307.38 403.444 308.477 400.844 309.324 398.364C310.024 396.3 310.535 394.358 310.877 392.423C311.209 390.561 311.303 388.574 311.166 386.519C311.042 384.653 310.929 382.976 310.738 381.27C310.202 376.506 310.748 371.815 312.397 366.948C312.843 365.641 313.377 364.29 313.991 362.936C314.581 361.64 315.104 360.322 315.554 358.994C317.294 353.87 317.96 348.559 317.527 343.22C317.238 339.671 316.37 336.04 314.872 332.14C314.065 330.039 313.281 328.164 312.476 326.396C309.68 320.269 307.08 313.642 304.048 304.921C303.757 304.092 303.466 303.263 303.156 302.439C302.953 301.889 302.714 301.794 302.426 301.813C302.219 301.831 302.067 301.974 301.972 302.253C301.924 302.408 301.894 302.588 301.889 302.792C301.887 303.075 301.907 303.363 301.936 303.648C302.403 309.149 302.351 314.886 301.785 321.251C301.599 323.345 301.507 325.524 301.418 327.459L301.413 327.693C301.369 328.736 301.316 329.782 301.26 330.819C301.218 331.467 301.152 332.102 301.087 332.778C301.06 333.079 300.96 334.067 300.96 334.067L300.603 333.944C300.536 333.922 300.469 333.9 300.414 333.885C300.231 333.845 300.067 333.799 299.964 333.646C299.491 332.928 299.016 332.201 298.541 331.474C297.852 330.412 297.202 329.42 296.542 328.43C295.16 326.368 294.339 324.686 293.854 322.98C292.652 318.654 290.371 314.415 286.684 309.627C285.767 308.437 285.016 307.483 284.304 306.63C284.243 306.555 283.931 306.197 283.667 306.412C283.51 306.537 283.362 306.77 283.268 307.049C283.253 307.104 283.238 307.158 283.223 307.213C283.184 307.365 283.25 307.6 283.31 307.816L283.364 308.013L283.555 308.809C283.736 309.568 283.938 310.441 284.184 311.253C284.885 313.555 285.155 315.906 284.981 318.229C284.765 321.16 285.062 324.081 285.859 326.912C286.216 328.198 286.548 329.501 286.87 330.766L286.927 330.972C287.168 331.947 287.418 332.919 287.684 333.876C288.874 338.266 288.906 342.746 287.785 347.546C286.163 354.478 285.344 360.185 285.216 365.508C285.035 373.181 285.019 379.999 285.167 386.347C285.29 391.297 286.443 396.426 288.601 401.609C288.884 402.298 289.167 402.988 289.455 403.697L290.056 405.167L289.941 405.3C288.573 406.924 287.152 408.613 286.463 410.645C286.242 411.303 286.101 411.959 286.041 412.653L286.009 413.046L285.636 412.907C284.717 412.546 284.365 412.007 284.062 411.535C284.008 411.449 283.953 411.363 283.89 411.279L281.993 408.602C279.652 405.31 277.237 401.897 274.92 398.508C273.14 395.889 272.428 393.145 272.794 390.354C272.994 388.852 273.177 387.366 273.367 385.867C273.629 383.793 273.882 381.721 274.166 379.65C275.069 373.081 274.536 367.092 272.53 361.331C272.28 360.612 272.041 359.9 271.8 359.179L271.764 359.047C271.482 358.216 271.2 357.384 270.909 356.555C269.38 352.219 268.882 347.555 269.435 342.71C270.021 337.472 270.558 332.349 270.664 327.204C270.726 323.972 270.564 320.772 270.178 317.674C269.293 310.601 266.932 303.999 263.17 298.069C262.773 297.441 261.753 295.844 261.753 295.844C260.63 294.094 259.358 292.102 258.184 290.134C257.229 288.519 256.349 286.772 255.59 284.951C253.887 280.895 251.726 276.977 249.632 273.192L249.18 272.367L249.071 272.155C248.767 271.572 248.603 271.345 248.128 271.457C247.91 271.507 247.804 271.597 247.739 271.767C247.663 272 247.668 272.383 247.773 272.941C247.952 273.912 248.14 274.881 248.329 275.849C248.67 277.624 249.018 279.418 249.31 281.197C249.575 282.842 249.718 284.521 249.858 286.15L249.885 286.466C250.352 291.998 251.368 296.962 252.982 301.639C255.576 309.188 257.213 316.932 258.339 322.836C259.347 328.096 259.779 333.577 259.624 339.13C259.561 341.301 259.559 343.515 259.559 345.658L259.549 347.986C259.538 351.255 259.972 354.491 260.834 357.628C261.095 358.566 261.331 359.522 261.575 360.475C262.074 362.449 262.576 364.473 263.288 366.378C264.513 369.657 266.087 372.848 267.615 375.942C268.725 378.191 270.153 380.746 272.444 382.768L272.524 382.836L271.34 393.376L270.9 392.922C270.716 392.731 270.546 392.556 270.393 392.406C270.043 392.059 269.803 391.812 269.574 391.532C267.281 388.742 264.646 385.846 261.506 382.695C260.226 381.403 259.094 379.948 257.996 378.545L257.788 378.269C256.438 376.542 255.68 374.468 255.528 372.104C255.452 370.922 255.395 369.624 255.334 368.023L255.31 367.282C255.237 365.239 255.158 363.138 255.109 361.07C254.979 355.586 253.64 350.185 251.12 345.012C249.611 341.914 248.033 338.784 246.505 335.761C245.78 334.315 245.065 332.906 244.359 331.495C244.09 330.963 243.82 330.431 243.554 329.909L243.419 329.643C242.687 328.209 241.932 326.731 241.258 325.25C238.986 320.281 237.437 314.999 236.652 309.556C236.089 305.679 235.452 301.095 234.943 296.464C234.28 290.37 232.747 284.569 230.381 279.222C228.613 275.225 226.779 271.175 225.001 267.251L224.374 265.869C224.121 265.322 223.839 264.744 223.454 264.305C223.366 264.208 222.972 264.135 222.688 264.204C222.669 264.21 222.557 264.352 222.474 264.598C222.456 264.643 222.447 264.686 222.439 264.728C222.391 264.954 222.45 265.241 222.507 265.518C223.615 270.922 224.174 276.641 224.172 282.525C224.175 287.842 224.946 293.198 225.712 297.737C225.947 299.127 226.189 300.505 226.433 301.893L226.492 302.251C226.698 303.427 226.904 304.603 227.109 305.78C228.086 311.584 228.59 316.448 228.666 321.088C228.796 328.098 230.275 334.875 233.056 341.239L233.338 341.889C234.7 345.008 236.105 348.206 237.676 351.237C241.07 357.775 245.408 363.413 250.571 367.983C251.524 368.83 252.561 369.613 253.363 370.209C253.985 370.663 254.326 371.235 254.426 371.996C254.541 372.844 254.677 373.695 254.812 374.547L255.034 375.962L254.871 376.068C254.225 376.47 253.774 376.049 253.503 375.801C253.447 375.746 253.394 375.7 253.341 375.654C249.832 372.889 246.422 370.551 242.89 368.501C239.175 366.339 235.256 364.608 231.911 363.192C230.673 362.667 229.642 361.902 228.754 360.855C226.923 358.705 225.69 356.49 224.966 354.104C224.362 352.078 223.962 349.985 223.749 347.689L223.552 345.489C223.465 344.452 223.377 343.445 223.268 342.434C222.685 336.591 220.996 331.025 218.224 325.892C216.721 323.105 215.312 320.655 213.914 318.426C211.018 313.792 208.954 308.694 207.782 303.278C207.553 302.199 207.305 301.126 207.066 300.05L206.996 299.725C206.801 298.88 206.616 298.031 206.431 297.183C205.077 290.968 202.661 285.695 199.068 281.063C198.217 279.965 197.383 278.822 196.655 277.801C196.213 277.196 195.796 276.605 195.363 276.027L195.23 275.842C195.002 275.531 194.772 275.211 194.496 274.984C194.393 274.902 194.08 274.868 193.966 274.93C193.896 274.969 193.749 275.132 193.691 275.289C193.834 275.947 194.078 276.607 194.405 277.274C196.326 281.239 197.477 285.378 197.823 289.568C197.975 291.386 198.028 293.251 197.99 295.112C197.875 301.21 198.489 307.742 199.869 315.072C200.284 317.292 200.651 319.556 200.999 321.754L201.369 324.067C202.314 329.83 204.476 335.568 207.985 341.608C210.017 345.097 212.668 348.05 215.878 350.362C218.169 352.02 220.675 353.76 223.543 355.712C224.229 356.179 224.79 356.599 225.117 357.337C225.355 357.867 225.688 358.372 226.04 358.911C226.335 359.354 226.621 359.8 226.901 360.299L227.144 360.737L226.641 360.745C226.449 360.748 226.301 360.759 226.171 360.765C225.902 360.779 225.725 360.798 225.556 360.733C220.324 358.862 214.83 357.609 209.5 356.402L207.967 356.05C204.695 355.301 202.54 353.222 201.554 349.856C200.697 346.92 200.064 343.881 199.451 340.948L199.396 340.751C199.192 339.726 198.979 338.703 198.756 337.684C198.62 337.085 198.528 336.463 198.422 335.866C198.321 335.247 198.238 334.694 198.115 334.141C197.258 330.043 195.875 326.777 193.904 324.161C190.846 320.108 188.826 315.423 187.73 309.844C187.552 308.913 187.308 308 187.059 307.068C185.957 302.997 184.624 298.747 181.44 295.366L181.311 295.23L181.559 294.595C181.674 294.28 181.794 293.984 181.926 293.695L182.356 292.807C183.308 290.813 184.278 288.774 185.261 286.782C185.777 285.729 186.314 284.68 186.842 283.633L186.961 283.408C187.934 281.49 188.932 279.514 189.851 277.55C190.142 276.923 190.422 276.218 190.726 275.315C190.889 274.845 191.039 274.368 191.193 273.901C191.306 273.546 191.42 273.191 191.536 272.845C191.63 272.566 191.611 272.208 191.586 271.861C191.583 271.741 191.483 271.637 191.335 271.577C191.208 271.521 191.131 271.533 191.124 271.545C190.721 271.879 190.317 272.244 190.056 272.65C189.242 273.938 188.443 275.283 187.609 276.758C186.501 278.734 185.031 280.285 183.109 281.517C180.32 283.303 178.124 285.147 176.409 287.161C176.287 287.306 176.122 287.402 175.959 287.508C175.873 287.563 175.781 287.629 175.669 287.7L175.474 287.835L174.752 287.167C174.358 286.801 173.963 286.436 173.575 286.058C171.339 283.87 168.92 281.57 166.199 279.637C165.708 279.288 165.252 279.031 164.817 278.849C164.714 278.806 164.62 278.833 164.56 278.87C164.408 278.942 164.277 279.09 164.22 279.247C164.194 279.335 164.187 279.418 164.198 279.496C164.247 279.745 164.311 279.939 164.387 280.101C164.544 280.411 164.737 280.741 164.98 281.108C167.841 285.509 170.006 290.387 171.401 295.62C171.738 296.871 171.73 297.823 171.409 298.812C169.937 303.265 168.953 308.088 168.213 314.481C167.895 317.229 167.92 319.79 168.283 322.297C168.982 327.026 170.975 331.214 174.215 334.721C175.027 335.607 175.592 336.622 175.986 337.928C176.713 340.324 177.953 342.638 180.008 345.413C180.317 345.833 180.626 346.253 180.928 346.684L181.533 347.517L181.351 347.699C180.711 348.342 180.123 348.01 179.766 347.816L178.036 346.902C175.705 345.68 173.299 344.408 170.983 343.06C169.111 341.963 167.321 340.651 165.818 339.502C163.315 337.589 161.963 334.942 161.8 331.631C161.66 328.799 162.055 326.04 162.549 322.981C163.043 319.922 163.384 317.583 163.667 315.402C164.088 312.151 163.812 308.76 162.861 305.304C162.261 303.145 161.604 300.962 160.967 298.855L160.758 298.175C159.46 293.905 158.619 289.974 158.198 286.168C157.537 280.226 155.888 274.295 153.293 268.526C152.422 266.594 151.749 264.537 151.088 262.558L150.736 261.513C150.321 260.274 149.942 258.984 149.603 257.835C149.343 256.936 149.097 256.125 148.839 255.307C148.695 254.862 148.443 254.427 148.234 254.111C148.226 254.083 148.123 254.04 147.968 254.063C147.763 254.09 147.591 254.198 147.562 254.277C147.497 254.477 147.424 254.69 147.438 254.848C147.49 255.399 147.577 255.931 147.679 256.479C148.801 262.698 148.912 268.915 147.984 274.956C147.108 280.679 147.492 286.385 149.111 291.92C150.453 296.49 150.845 301.103 151.061 305.006C151.189 307.467 151.465 309.948 151.726 312.342C151.981 314.678 152.681 317.051 153.79 319.401C155.44 322.865 156.937 325.704 158.93 328.254C160.025 329.648 161.09 331.404 160.748 333.774L160.74 333.817L160.691 333.931C160.019 334.351 159.61 333.898 159.391 333.656L159.301 333.549C154.972 329.071 151.773 324.4 149.521 319.284C149.212 318.571 148.936 317.799 148.7 316.985C147.147 311.472 145.129 305.775 142.71 300.059C141.897 298.152 141.111 296.197 140.352 294.305L139.536 292.277C138.252 289.116 137.298 285.61 136.623 281.582C135.659 275.825 134.667 270.075 133.672 264.316C133.444 262.985 133.196 261.658 132.958 260.329L132.564 258.184C130.565 247.104 126.205 236.73 119.611 227.342L119.042 226.53C118.374 225.583 117.753 224.694 117.115 223.82C115.062 221.014 113.354 218.365 111.919 215.711L111.86 215.606C111.547 215.026 111.219 214.43 110.809 213.937C110.672 213.773 110.28 213.67 109.984 213.661C109.947 213.671 109.822 213.767 109.736 214.003C109.678 214.16 109.664 214.326 109.7 214.458C109.818 214.88 109.968 215.313 110.114 215.728L110.298 216.243L111.488 219.723C112.496 222.658 113.499 225.574 114.485 228.504C114.731 229.244 114.936 230.017 115.121 230.754L115.269 231.289C116.803 237.241 118.896 243.241 121.475 249.136C124.916 257.005 127.168 265.103 128.162 273.188C128.712 277.675 129.423 282.411 130.373 288.122C131.281 293.531 132.58 298.932 134.24 304.173C135.551 308.307 137.658 312.139 140.512 315.571C142.689 318.201 145.051 319.86 147.707 320.648C148.733 320.959 149.397 321.492 149.839 322.39C151.568 325.883 153.923 329.262 157.034 332.744C157.212 332.947 157.386 333.172 157.536 333.383L157.842 333.793L157.766 333.956C157.434 334.655 156.85 334.443 156.623 334.355L155.483 333.964C154.088 333.492 152.681 333.014 151.33 332.48C149.014 331.567 146.85 330.258 144.902 328.596C142.422 326.475 139.942 324.283 137.539 322.15L137.135 321.788C134.813 319.724 132.248 317.626 129.183 316.204L128.858 316.052C127.765 315.537 126.626 315.004 125.467 314.69C118.881 312.891 113.277 309.465 108.362 304.22C105.79 301.478 102.651 299.206 98.779 297.28C95.7979 295.794 92.4462 294.502 88.5329 293.335C82.9427 291.664 77.9188 290.139 72.9882 288.295C72.4464 288.092 71.7769 287.975 71.0011 287.948C70.8072 287.941 70.6601 288.104 70.6054 288.27C70.5507 288.437 70.5737 288.593 70.6639 288.699C70.9758 289.057 71.3774 289.41 71.854 289.743C72.7301 290.349 73.6087 290.964 74.4874 291.579C76.784 293.185 79.1551 294.84 81.558 296.356C87.0605 299.82 92.489 303.892 98.6609 309.182C99.7221 310.09 100.79 310.986 101.861 311.891L103.606 313.367C106.832 316.1 110.323 318.364 113.975 320.119C118.058 322.077 121.989 324.543 126.005 327.642C127.859 329.078 130.354 330.922 133.127 332.425C137.534 334.819 142.373 335.971 147.505 335.848C149.082 335.814 150.613 335.5 152.082 334.93C153.013 334.57 153.896 334.547 154.845 334.869C155.603 335.123 156.356 335.359 157.119 335.592C158.102 335.894 159.12 336.208 160.107 336.56C160.747 336.787 161.422 337.216 162.005 337.751C165.302 340.808 169.17 343.483 174.545 346.417C175.01 346.672 175.461 346.95 175.982 347.261L177.279 348.032L176.791 348.279C176.623 348.366 176.472 348.439 176.341 348.515C176.043 348.679 175.805 348.806 175.555 348.886C171.663 350.16 167.519 350.564 162.871 350.138C160.931 349.959 159.206 349.681 157.622 349.292C153.947 348.403 149.622 347.28 145.379 345.73C142.814 344.795 140.273 343.945 138.125 343.238C132.07 341.242 125.657 340.538 119.061 341.138L118.342 341.207C117.474 341.286 116.585 341.362 115.728 341.479C109.992 342.265 103.886 342.193 96.5151 341.28C89.7698 340.436 82.5867 340.381 74.5523 341.119L74.4438 341.129C74.0288 341.163 73.5951 341.203 73.2447 341.361C73.0299 341.461 72.774 341.704 72.7099 341.873C72.6922 342.101 72.9212 342.452 73.1157 342.569C73.4875 342.779 73.9615 342.921 74.6044 343.015C75.6175 343.168 76.6347 343.3 77.652 343.431C78.8376 343.587 79.931 343.738 81.027 343.898C82.5145 344.121 85.8359 344.613 85.8359 344.613C90.8106 345.343 95.9349 346.102 100.953 346.951C103.436 347.373 106.112 348.054 109.36 349.082C112.663 350.125 115.999 351.25 119.234 352.342L119.367 352.386C121.954 353.254 124.544 354.131 127.141 354.966C131.732 356.46 135.777 357.701 139.523 358.772C142.465 359.612 145.451 360.167 148.423 360.423C152.866 360.805 156.775 360.355 160.366 359.053C162.883 358.141 165.345 356.961 167.728 355.824L168.227 355.584C169.798 354.834 171.152 353.668 172.255 352.108C173.075 350.95 174.128 350.263 175.562 349.966C175.954 349.887 176.355 349.765 176.74 349.658L177.162 349.541C178.626 349.134 180.093 349.211 181.772 349.796C184.27 350.668 186.845 351.459 189.339 352.211L189.515 352.263C190.52 352.57 191.523 352.867 192.519 353.177C192.695 353.229 192.862 353.284 193.156 353.394L194.954 354.006L193.829 354.218C193.493 354.281 193.225 354.335 193.016 354.383C192.642 354.457 192.396 354.515 192.145 354.524C191.379 354.566 190.616 354.586 189.846 354.618C188.774 354.653 187.705 354.697 186.641 354.761C183.231 354.971 180.019 356.036 177.099 357.929L176.952 358.021C174.828 359.4 172.635 360.818 170.543 362.35C164.362 366.879 156.935 369.803 147.837 371.261C141.411 372.29 134.418 372.303 126.466 371.299L124.254 371.015C122.639 370.806 120.969 370.583 119.332 370.401C115.672 370.003 112.166 370.119 108.9 370.734C102.812 371.891 96.7197 373.069 90.637 374.245L85.8285 375.167C85.4427 375.234 85.0595 375.31 84.7279 375.463C84.5924 375.521 84.4209 375.74 84.362 375.929C84.274 376.266 84.5107 376.464 84.7323 376.533C85.0968 376.644 85.4858 376.698 85.9003 376.734L86.3388 376.784C87.8972 377.008 91.7536 377.533 91.7536 377.533C96.0629 378.125 100.51 378.738 104.868 379.397C107.222 379.753 109.592 380.277 111.932 380.951C117.459 382.538 122.533 383.261 127.459 383.124C133.261 382.977 138.943 383.45 145.686 384.214C152.429 384.977 159.106 384.445 165.538 382.637C169.984 381.391 173.913 379.125 177.553 375.707C179.308 374.057 180.967 372.099 182.774 369.544C185.728 365.367 189.441 361.413 194.451 357.108C196.18 355.617 197.846 354.992 199.679 355.149L199.783 355.161C200.072 355.181 200.373 355.209 200.678 355.286C205.416 356.476 210.145 357.668 214.871 358.882C215.044 358.925 215.191 359.015 215.39 359.152C215.504 359.232 215.635 359.306 215.803 359.401L216.358 359.722L215.751 359.941C215.576 360 215.44 360.058 215.34 360.096C215.157 360.167 215.031 360.222 214.892 360.231C208.456 360.938 202.723 363.553 196.926 366.409C194.019 367.844 191.29 369.846 188.341 372.728C185.112 375.88 182.386 378.327 179.744 380.426C175.798 383.576 171.954 385.898 168.001 387.533C162.549 389.776 157.473 392.826 152.911 396.601C152.499 396.938 152.085 397.265 151.659 397.586C151.316 397.843 150.975 398.11 150.635 398.376C146.175 401.972 141.318 404.717 136.204 406.544C134.963 406.99 133.725 407.516 132.533 408.029C131.956 408.281 131.42 408.5 130.888 408.729C127.961 409.948 125.324 411.772 122.783 413.541L121.85 414.184C121.799 414.219 121.687 414.29 121.676 414.323L121.634 414.426C121.596 414.508 121.56 414.598 121.532 414.677C121.466 414.877 121.484 414.943 121.484 414.943C121.525 415.053 121.787 415.233 121.965 415.254C122.299 415.293 122.687 415.195 123.022 415.092C128.849 413.36 134.949 412.756 140.842 412.169L141.049 412.152C144.66 411.795 147.933 411.421 151.053 411.008C154.357 410.565 157.593 409.514 160.941 407.774C164.175 406.096 167.437 404.522 170.206 403.206C174.516 401.149 178.687 398.695 182.725 396.309C183.853 395.641 184.984 394.983 186.116 394.325L188.227 393.121L188.279 393.561C188.292 393.679 188.314 393.794 188.34 393.888C188.384 394.119 188.429 394.318 188.363 394.519L188.234 394.888C187.157 398.069 186.985 401.453 186.823 404.723L186.796 405.317C186.625 408.812 186.123 411.843 185.281 414.594C185.199 414.88 185.104 415.159 185.01 415.438C183.531 419.792 181.114 423.679 177.608 427.322C177.185 427.764 176.752 428.207 176.317 428.642C175.585 429.391 174.828 430.158 174.113 430.933C171.979 433.255 170.299 435.977 168.676 438.611C168.229 439.332 167.789 440.041 167.347 440.74C167.286 440.848 167.218 440.968 167.17 441.123C167.105 441.323 167.053 441.539 167.007 441.734C166.968 441.887 167.082 442.007 167.145 442.05C167.251 442.142 167.421 442.206 167.556 442.148C167.818 442.035 168.081 441.891 168.337 441.718L173.471 438.259C175.607 436.816 177.746 435.382 179.873 433.941C182.251 432.35 184.636 431.293 187.185 430.715C187.575 430.627 187.963 430.53 188.347 430.423C188.676 430.331 188.967 430.25 189.272 430.186C194.821 428.835 200.065 426.316 205.289 422.487C206.281 421.767 207.262 421.039 208.252 420.309L208.672 420C209.863 419.123 211.055 418.246 212.249 417.378C212.534 417.167 212.846 416.979 213.228 416.752C213.514 416.581 213.746 416.436 214.023 416.268L214.858 415.743L214.451 416.644C214.337 416.888 214.26 417.082 214.193 417.242C214.077 417.516 213.997 417.701 213.89 417.862C211.955 420.684 210.386 423.911 209.089 427.719C208.398 429.741 207.769 431.988 207.168 434.592C206.892 435.781 206.548 436.978 206.146 438.152C205.477 440.107 204.624 442.093 203.605 444.065C202.576 446.039 200.976 447.808 198.561 449.632C197.801 450.207 197.014 450.76 196.244 451.298C195.643 451.717 195.042 452.137 194.455 452.573C193.783 453.064 193.277 453.497 192.853 453.939C192.837 453.953 192.813 454.011 192.782 454.08C192.72 454.259 192.731 454.407 192.746 454.424C192.907 454.641 193.234 454.834 193.447 454.835C193.78 454.834 194.181 454.712 194.668 454.465C196.314 453.623 197.903 452.757 199.106 452.099C199.727 451.755 200.34 451.412 200.959 451.058C202.068 450.427 203.211 449.775 204.375 449.199C206.367 448.22 207.839 446.931 208.882 445.266C209.944 443.556 210.866 442.147 211.787 440.84C212.438 439.91 213.11 438.945 214.467 438.517L214.833 438.415L214.854 438.784C214.859 438.873 214.873 438.96 214.882 439.029C214.907 439.264 214.935 439.438 214.886 439.624C213.96 442.874 213.44 446.496 213.29 450.683C213.267 451.326 213.225 451.975 213.192 452.621C213.144 453.393 213.1 454.072 213.075 454.746C213.064 455.144 213 455.495 212.892 455.798C212.62 456.601 212.018 457.163 211.063 457.509C209.062 458.238 207.05 459.04 205.105 459.823L202.801 460.737L202.317 460.922C201.814 461.112 201.304 461.315 200.82 461.54C200.508 461.688 200.337 461.836 200.282 462.003C200.256 462.091 200.254 462.193 200.276 462.308C200.367 462.637 200.605 462.803 201.123 462.882C201.407 462.924 201.682 462.928 201.987 462.935C202.171 462.944 202.353 462.944 202.538 462.953L203.115 462.995C204.714 463.106 206.259 463.212 207.811 463.337C208.038 463.355 208.25 463.427 208.493 463.501C208.66 463.556 208.793 463.6 208.946 463.638L209.362 463.755L209.104 464.1C208.919 464.343 208.762 464.579 208.6 464.796C208.231 465.323 207.933 465.74 207.579 466.141C206.742 467.092 205.88 468.029 205.016 468.957L204.924 469.063C204.402 469.623 203.892 470.189 203.371 470.749C203.145 470.993 202.991 471.238 202.915 471.472C202.864 471.617 202.811 471.865 202.968 471.993C203.348 472.302 203.719 472.148 204.219 471.908C204.867 471.586 205.518 471.274 206.167 470.952C207.957 470.08 209.765 469.203 211.486 468.23C212.874 467.439 214.119 466.426 215.487 465.277C216.325 464.579 217.169 464.162 218.15 463.981C219.398 463.745 220.681 463.449 221.811 463.185L223.056 462.9C225.102 462.442 227.766 461.732 230.2 460.378C230.374 460.279 230.56 460.257 230.737 460.238C230.794 460.223 230.855 460.226 230.923 460.217L231.191 460.163L231.264 460.426C231.28 460.482 231.296 460.538 231.311 460.594C231.374 460.749 231.431 460.915 231.379 461.091C230.108 464.811 228.428 469.13 225.577 472.986C223.605 475.637 221.928 478.55 220.581 481.634L220.512 481.784C220.422 481.971 220.373 482.086 220.333 482.198C220.305 482.277 220.286 482.353 220.282 482.414C220.266 482.682 220.351 482.951 220.383 482.993C220.635 483.135 221.049 483.172 221.123 483.111C221.918 482.516 222.728 481.937 223.53 481.37C225.869 479.709 228.272 477.989 230.248 475.822C232.005 473.888 233.551 471.669 234.86 469.212C236.745 465.665 239.563 462.819 243.47 460.51C247.119 458.363 250.124 456.698 252.929 455.261C255.994 453.702 258.66 451.838 261.101 449.562C262.143 448.585 263.086 447.757 263.988 447C267.211 444.305 270.824 442.683 274.727 442.175C276.043 442.001 277.356 441.848 278.68 441.702C280.327 441.517 281.953 441.328 283.54 441.109C287.533 440.565 291.28 439.241 294.659 437.179C295.264 436.808 295.858 436.4 296.436 436.007C296.708 435.821 296.97 435.636 297.244 435.459L298.946 434.309L299.077 434.343C301.342 434.997 303.272 436.23 305.139 437.419L305.569 437.694C305.865 437.885 306.085 438.167 306.3 438.431L306.456 438.63C310.104 443.095 312.964 448.255 314.967 453.966C315.025 454.142 315.047 454.328 315.055 454.538C315.066 454.687 315.076 454.795 315.091 454.922L315.145 455.372L314.711 455.23C314.602 455.2 314.502 455.167 314.404 455.144C314.154 455.082 313.947 455.028 313.762 454.908C309.545 452.066 304.759 450.779 299.14 450.966C294.521 451.118 290.283 450.82 286.18 450.06C283.898 449.633 281.53 449.554 279.308 449.525C274.438 449.463 269.952 450.417 265.946 452.37C265.652 452.513 265.357 452.655 265.046 452.772C259.395 454.99 254.517 458.389 250.53 462.884C247.373 466.441 243.406 469.08 238.742 470.741C237.914 471.032 237.084 471.394 236.28 471.739L236.091 471.822C235.857 471.927 235.597 472.081 235.347 472.271C235.295 472.306 235.262 472.366 235.23 472.435C235.187 472.569 235.196 472.748 235.278 472.897C235.34 473.011 235.422 473.089 235.532 473.12C235.894 473.221 236.273 473.278 236.618 473.283C240.612 473.284 244.615 473.283 248.611 473.254C252.325 473.233 255.896 472.26 259.228 470.353C259.933 469.944 260.65 469.503 261.328 469.071C261.854 468.743 262.367 468.408 262.907 468.096L263.61 467.679C264.918 466.891 266.409 466.001 267.893 465.194C270.808 463.605 274.131 462.792 278.657 462.565C279.523 462.516 280.28 462.801 281.039 463.46C282.514 464.728 283.805 466.209 284.86 467.857L285.491 468.854C285.959 469.593 286.433 470.351 286.929 471.083C289.544 474.885 292.691 477.225 296.569 478.229C298.444 478.719 300.306 479.596 302.271 480.92C303.515 481.757 304.754 482.504 305.947 483.123C308.837 484.645 312.068 485.101 315.556 484.485C316.906 484.251 318.038 484.25 319.189 485.042C319.689 485.388 320.279 485.619 320.912 485.857C321.208 485.977 321.511 486.085 321.812 486.224L321.915 486.266L322.199 487.906C322.353 488.934 322.505 489.953 322.639 490.978C322.96 493.517 323.282 496.056 323.606 498.605L324.445 505.256C324.489 505.598 324.549 505.995 324.7 506.318C324.726 506.341 324.889 506.417 324.979 506.412C325.078 506.405 325.238 506.289 325.267 506.251C325.315 505.732 325.379 505.088 325.301 504.482C325.082 502.713 324.864 500.944 324.645 499.175C323.931 493.409 323.201 487.475 322.333 481.661C321.91 478.796 322.036 476.122 322.731 473.493C322.822 473.164 322.915 472.845 323.017 472.523C323.561 470.916 324.355 469.624 325.428 468.578C326.677 467.361 328.019 466.149 329.53 464.859C332.147 462.635 334.197 460.407 335.799 458.061C336.525 457 337.113 455.806 337.584 454.411C337.744 453.932 337.899 453.434 338.034 452.901C338.405 451.473 338.682 450.506 338.964 449.7C340.032 446.562 341.108 445.485 344.678 442.218C347.45 439.678 349.463 437.137 350.826 434.442C351.57 432.972 352.23 431.383 352.799 429.719L352.789 429.792ZM329.828 450.441C332.035 443.943 335.616 437.842 340.77 431.799C343.072 429.097 345.302 426.354 347.76 423.305C349.722 420.869 351.469 418.28 352.939 415.607C353.248 415.046 353.567 414.482 353.901 413.904L354.67 412.558L354.937 412.938C355.476 413.678 355.302 414.323 355.152 414.84C355.122 414.949 355.089 415.049 355.069 415.156C354.62 417.252 354.172 419.348 353.714 421.447L352.848 425.459C352.545 426.878 352.17 428.256 351.728 429.541C350.08 434.377 347.536 438.279 343.952 441.459C342.986 442.314 342.054 443.251 341.151 444.149L341.031 444.263C339.638 445.651 338.63 447.225 338.049 448.954C337.998 449.099 337.95 449.254 337.912 449.406L337.644 450.3C337.366 451.226 337.097 452.15 336.84 453.081C336.752 453.419 336.652 453.75 336.54 454.074C336.077 455.426 335.426 456.719 334.588 457.923C333.235 459.856 331.659 461.608 329.908 463.126C329.711 463.292 329.52 463.477 329.326 463.652C328.618 464.304 327.9 464.959 326.895 465.491L326.471 465.71L326.461 465.237C326.451 465.018 326.438 464.829 326.417 464.643C326.381 464.259 326.351 463.933 326.435 463.617C326.693 462.544 326.941 461.474 327.19 460.404C327.843 457.554 328.522 454.615 329.414 451.749C329.544 451.308 329.686 450.874 329.838 450.438L329.828 450.441ZM285.7 462.477C285.793 462.451 285.873 462.409 285.964 462.374C286.181 462.283 286.389 462.195 286.625 462.17C291.351 461.715 296.015 460.125 300.898 457.291C302.055 456.616 303.289 456 304.378 455.444C305.299 454.976 306.195 454.525 307.055 454.053C308.019 453.522 308.898 453.52 309.833 454.049C311.297 454.875 312.767 455.69 314.229 456.476C315.655 457.242 316.527 458.415 316.965 460.174C318.914 467.872 320.248 475.578 321.548 483.456C321.583 483.689 321.525 483.918 321.46 484.158C321.423 484.279 321.396 484.398 321.368 484.517L321.305 484.838L320.986 484.745C319.316 484.228 317.903 483.398 316.655 482.219C315.213 480.85 313.837 479.393 312.789 478.279C312.111 477.547 311.442 476.814 310.779 476.068C309.781 474.95 308.8 473.858 307.771 472.81C304.126 469.082 299.62 466.695 294.398 465.69C293.105 465.443 291.405 465.107 289.696 464.672C288.719 464.428 287.758 464.099 286.821 463.783L286.029 463.518C285.85 463.456 285.766 463.298 285.684 463.149C285.644 463.079 285.614 463.007 285.565 462.939L285.365 462.621L285.714 462.493L285.7 462.477ZM284.698 464.586C284.757 464.579 284.828 464.58 284.887 464.574C285.064 464.555 285.241 464.536 285.436 464.583C286.38 464.816 287.336 465.055 288.281 465.288L288.488 465.342C290.217 465.781 292.011 466.232 293.801 466.635C299.542 467.94 303.706 470.118 306.909 473.494C308.871 475.567 310.764 477.649 312.783 479.858C313.686 480.85 314.603 481.859 315.557 482.888L315.907 483.276L315.402 483.386C313.001 483.912 310.826 483.799 308.554 483.045C306.804 482.46 305.101 481.569 303.197 480.248C301.341 478.955 299.329 478.008 297.037 477.331C295.947 477.007 294.807 476.545 293.674 475.961C291.468 474.825 289.573 473.027 287.727 470.315C286.65 468.734 285.581 467.141 284.52 465.545C284.42 465.401 284.432 465.226 284.433 465.084C284.436 465.022 284.432 464.973 284.435 464.911L284.42 464.602L284.72 464.59L284.698 464.586ZM340.587 363.872C340.663 364.033 340.73 364.166 340.78 364.274C340.887 364.476 340.959 364.628 340.988 364.802C341.564 367.786 342.139 370.76 342.694 373.74L342.744 374.029C342.929 375.019 343.123 376.047 343.254 377.062C343.781 381.212 343.433 385.161 342.198 388.79C341.756 390.075 341.208 391.34 340.557 392.562C339.321 394.877 337.968 396.921 336.436 398.793C334.433 401.26 332.873 404.121 331.793 407.292C331.449 408.308 331.148 409.372 330.889 410.475C330.747 411.091 330.616 411.714 330.489 412.346C330.289 413.372 330.015 414.388 329.689 415.358C328.623 418.506 326.863 421.34 324.46 423.788C323.68 424.581 322.847 425.368 322.109 426.059L321.173 426.946C319.028 428.978 316.896 431.016 314.739 433.041C314.62 433.156 314.469 433.197 314.319 433.239C314.254 433.257 314.169 433.281 314.085 433.304L313.846 433.391L313.722 433.163C313.674 433.065 313.617 432.969 313.561 432.874C313.427 432.648 313.291 432.413 313.187 432.149C312.545 430.457 312.196 428.583 312.132 426.427C312.036 423.137 312.551 419.789 313.675 416.485C313.888 415.869 314.117 415.239 314.37 414.623C315.676 411.429 317.556 408.592 319.051 406.477C321.509 402.993 323.259 399.686 324.386 396.36L324.524 395.948C324.847 394.999 325.301 393.76 325.964 392.616C327.488 389.988 328.826 387.857 330.164 385.908C333.636 380.868 336.19 375.872 337.976 370.624C338.512 369.059 338.975 367.454 339.359 365.852C339.41 365.635 339.479 365.414 339.559 365.189C339.62 365.011 339.682 364.832 339.757 364.629C339.836 364.405 339.922 364.168 340.019 363.899L340.255 363.186L340.566 363.868L340.587 363.872ZM241.672 470.877C242.007 470.703 242.343 470.528 242.681 470.364C245.148 469.162 247.436 467.576 249.472 465.625L249.656 465.452C250.567 464.582 251.503 463.695 252.334 462.756C257.549 456.858 264.623 454.012 270.844 451.807C271.663 451.519 272.531 451.368 273.371 451.226L273.701 451.174C277.811 450.466 281.857 450.474 285.746 451.192C289.869 451.946 294.065 452.276 298.581 452.193C300.121 452.169 301.683 452.261 303.193 452.346L304.119 452.402C304.497 452.419 305.193 452.448 305.282 453.313L305.3 453.489L304.936 453.742C304.757 453.863 304.581 453.993 304.388 454.097L302.899 454.925C301.395 455.768 299.837 456.636 298.284 457.452C297.058 458.096 295.754 458.641 294.538 459.141C291.561 460.362 288.181 461.039 283.9 461.279L282.496 461.356C280.415 461.47 278.315 461.589 276.244 461.74C273.015 461.98 269.908 462.915 267.003 464.501C265.757 465.181 264.522 465.939 263.328 466.665L262.065 467.431C261.623 467.695 261.177 467.981 260.738 468.255C259.973 468.741 259.17 469.237 258.365 469.683C255.403 471.285 252.586 472.098 249.773 472.163C247.813 472.202 245.77 472.164 243.971 472.128L243.696 472.123C242.935 472.113 242.183 472.099 241.422 472.089L241.169 472.088L241.035 471.205L241.69 470.872L241.672 470.877ZM265.745 430.488C266.711 429.016 267.67 427.557 268.639 426.094L270.759 422.886C272.623 420.063 274.674 417.875 277.01 416.205L277.279 416.009C277.587 415.772 277.907 415.541 278.281 415.396C278.765 415.211 279.27 415.061 279.758 414.925C280.18 414.808 280.609 414.678 281.023 414.533C281.639 414.311 282.244 414.052 282.843 413.805L283.82 413.392L283.956 413.556C284.803 414.564 285.628 415.568 286.453 416.572L286.529 416.662C288.496 419.047 290.332 421.286 292.304 423.508C294.306 425.762 296.485 428.037 298.409 430.05L298.526 430.179C299.384 431.083 300.251 431.984 301.112 432.898L301.258 433.059L300.839 433.843L299.905 433.466C299.394 433.264 298.892 433.06 298.404 432.832C294.524 431.019 290.615 430.67 286.456 431.746C284.9 432.148 283.294 432.443 281.746 432.732L280.573 432.947C278.489 433.344 276.366 433.378 274.273 433.05C272.265 432.739 270.228 432.355 268.266 431.991L266.027 431.572C265.846 431.541 265.764 431.392 265.722 431.313L265.665 431.218L265.65 431.091C265.653 431.029 265.652 430.989 265.651 430.949C265.653 430.847 265.662 430.733 265.692 430.624L265.741 430.509L265.745 430.488ZM223.05 479.461C223.164 479.217 223.256 479 223.349 478.792L223.392 478.689C223.574 478.254 223.724 477.919 223.928 477.6C224.902 476.085 225.887 474.608 226.861 473.205C228.74 470.509 230.137 467.826 231.134 465.011C231.486 464.024 231.914 463.015 232.292 462.121L232.341 462.007C232.55 461.524 232.75 461.044 232.948 460.554C233.618 458.892 234.584 457.531 235.908 456.364C237.199 455.227 238.342 453.848 239.497 452L239.909 451.339C240.415 450.542 240.995 449.643 241.481 448.739C242.936 446.08 245.131 443.903 247.988 442.289C249.763 441.291 251.656 440.319 253.776 439.326C257.273 437.686 259.891 436.048 262.033 434.189C263.352 433.044 264.762 432.622 266.455 432.858C268.075 433.085 269.904 433.335 271.676 433.712C275.124 434.441 278.279 434.515 281.322 433.932C282.119 433.781 282.92 433.608 283.712 433.439C284.675 433.232 285.583 433.04 286.486 432.87L286.831 432.804C288.04 432.569 289.288 432.333 290.536 432.239C292.812 432.061 294.849 432.516 296.785 433.625L297.061 433.781L296.891 434.041C296.8 434.188 296.739 434.295 296.682 434.382C296.587 434.55 296.517 434.66 296.411 434.751C296.149 434.975 295.862 435.176 295.616 435.346C292.074 437.807 288.171 439.367 284.009 439.998C281.37 440.398 279.168 440.657 277.078 440.813C271.007 441.268 265.733 443.644 261.406 447.86C261.088 448.171 260.765 448.463 260.432 448.757C260.432 448.757 259.98 449.166 259.802 449.327C257.783 451.192 255.441 452.804 252.65 454.257C249.514 455.887 246.36 457.634 243.004 459.598C238.796 462.062 235.749 465.174 233.692 469.122C231.584 473.176 228.582 476.558 224.785 479.191C224.564 479.343 224.338 479.437 224.015 479.587C223.845 479.665 223.646 479.75 223.403 479.858L222.661 480.206L223.01 479.462L223.05 479.461ZM311.072 367.307C309.847 370.902 309.329 374.676 309.539 378.52C309.676 381.05 309.87 383.564 310.055 385.686C310.319 388.817 310.115 391.573 309.428 394.12C309.055 395.507 308.64 396.886 308.19 398.214C306.49 403.226 304.173 407.874 301.31 412.047C301.121 412.312 300.881 412.54 300.634 412.781C300.498 412.909 300.353 413.041 300.196 413.206L299.907 413.509L299.722 413.135C298.958 411.589 298.46 410.231 298.159 408.859C296.919 403.198 296.806 397.629 297.834 392.309C298.41 389.328 299.116 386.301 299.738 383.631C300.714 379.467 300.789 375.776 299.972 372.364C299.781 371.568 299.611 370.776 299.43 369.977L299.185 368.842C298.558 366.004 298.253 362.945 298.264 359.494C298.284 354.656 299.151 350.139 300.295 344.725C301.196 340.441 302.09 335.876 302.385 331.264C302.659 326.831 302.885 322.916 303.071 319.296C303.167 317.53 303.231 315.763 303.296 313.996C303.296 313.996 303.379 311.749 303.427 310.684C303.435 310.46 303.486 310.243 303.528 310.03L303.65 309.379L303.974 309.491C303.974 309.491 304.075 309.524 304.108 309.535C304.217 309.565 304.348 309.599 304.428 309.739L304.572 310.002C304.775 310.37 304.965 310.691 305.09 311.031C307.063 316.417 309.347 321.979 312.259 328.56C313.133 330.541 313.978 332.742 314.841 335.303C316.391 339.896 316.929 344.63 316.463 349.39C316.12 352.811 315.415 356.131 314.351 359.247C313.829 360.788 313.212 362.314 312.515 363.771C311.957 364.927 311.478 366.112 311.078 367.295L311.072 367.307ZM296.573 425.809L296.437 426.302L295.527 425.392C295.222 425.093 294.969 424.84 294.73 424.562C294.063 423.797 293.405 423.03 292.744 422.253C291.396 420.677 290.016 419.059 288.591 417.534C287.108 415.945 286.651 414.121 287.211 411.953C287.269 411.725 287.346 411.491 287.422 411.258C287.654 410.566 287.963 409.894 288.341 409.253C288.689 408.651 289.138 408.122 289.571 407.607C289.752 407.385 289.936 407.172 290.117 406.95C291.402 405.319 292.231 403.865 292.745 402.367C292.984 401.664 293.15 400.951 293.232 400.23C293.371 399.13 293.597 398.016 293.904 396.899C294.035 396.428 294.179 395.963 294.335 395.506C294.537 394.924 294.766 394.294 295.079 393.489C295.188 393.226 295.386 393.03 295.639 392.777C295.766 392.651 295.908 392.51 296.062 392.336L296.696 391.634L296.574 392.578C295.399 401.842 296.22 408.721 299.232 414.899L299.279 414.997L299.22 415.186C298.646 416.174 298.174 417.205 297.812 418.266C297.143 420.222 296.854 422.273 296.918 424.54C296.926 424.75 296.87 424.948 296.786 425.194L296.674 425.518C296.639 425.609 296.615 425.706 296.585 425.816L296.573 425.809ZM286.226 311.18C286.277 311.217 286.337 311.251 286.397 311.284C286.555 311.382 286.723 311.477 286.839 311.637C288.914 314.447 291.187 317.859 292.335 321.806C293.252 324.958 294.757 327.936 296.799 330.664C297.005 330.93 297.194 331.211 297.386 331.502C297.509 331.69 297.639 331.866 297.762 332.054C299.853 334.991 300.52 338.374 299.746 342.098C299.12 345.082 298.622 347.546 298.17 349.845C296.717 357.275 296.81 364.084 298.44 370.637C298.649 371.458 298.812 372.302 298.978 373.116L299.097 373.689C299.583 376.092 299.562 378.706 299.011 381.669C298.901 382.256 298.776 382.826 298.654 383.406L298.61 383.611C298.533 383.986 298.452 384.352 298.375 384.728C298.239 385.402 298.082 386.002 297.889 386.581C297.462 387.843 296.868 388.907 296.084 389.833C294.943 391.182 294.063 392.781 293.451 394.579C293.356 394.858 293.265 395.146 293.182 395.432C292.953 396.244 292.777 397.101 292.6 397.919C292.495 398.413 292.399 398.905 292.282 399.392C292.123 400.094 291.94 400.781 291.769 401.476L291.432 402.844L290.534 402.851C290.534 402.851 290.361 402.555 290.321 402.485C290.193 402.278 290.07 402.09 289.991 401.879L289.558 400.797C289.164 399.814 288.724 398.703 288.376 397.597C286.835 392.637 286.084 387.356 286.145 381.9C286.154 380.735 286.173 379.567 286.192 378.399C286.237 375.799 286.273 373.201 286.249 370.639C286.184 363.389 287.023 356.008 288.746 348.715C290.108 342.958 290.075 337.821 288.651 332.99C288.267 331.682 287.924 330.341 287.602 329.036C287.365 328.111 287.135 327.174 286.879 326.254C286.228 323.878 285.969 321.453 286.106 319.039C286.222 316.944 286.261 314.467 285.603 311.991C285.566 311.859 285.596 311.75 285.625 311.671C285.64 311.616 285.667 311.568 285.689 311.502C285.713 311.444 285.738 311.387 285.762 311.329L285.89 310.95L286.214 311.173L286.226 311.18ZM228.853 435.427C228.965 435.103 229.109 434.82 229.292 434.567L229.305 434.543L229.37 434.485C233.667 433.068 236.085 431.546 239.362 428.209C242.12 425.4 244.26 422.116 246.045 419.264C247.172 417.464 248.207 415.842 249.412 414.284C251.452 411.624 254.013 409.962 257.25 409.203C262.05 408.071 267.028 406.485 272.028 404.468C272.383 404.328 272.807 404.251 273.291 404.248C274.257 404.232 275.231 404.244 276.264 404.25L277.63 404.255L283.216 412.275L282.98 412.442C281.646 413.389 280.158 413.965 278.287 414.253C276.62 414.514 274.819 414.691 272.778 414.803C271.226 414.891 269.651 414.935 268.128 414.984C266.395 415.042 264.661 415.099 262.97 415.195C253.748 415.737 246.634 419.929 241.829 427.664L241.161 428.75C240.455 429.886 239.76 431.02 239.04 432.14C236.073 436.776 233.022 441.547 229.971 446.247C229.496 446.976 228.928 447.659 228.383 448.316L228.042 448.725C227.907 448.894 227.691 448.954 227.522 449.001C227.456 449.019 227.409 449.032 227.362 449.045L227.154 449.133L227.012 448.95C226.665 448.501 226.739 448.076 226.875 447.694L226.93 447.527C226.952 447.461 226.971 447.385 226.993 447.318C227.086 446.817 227.201 446.32 227.316 445.823C227.476 445.091 227.65 444.335 227.762 443.576C227.986 442.088 228.168 440.561 228.344 439.087L228.603 436.963C228.663 436.451 228.729 435.927 228.903 435.424L228.853 435.427ZM219.405 461.842C219.491 461.606 219.543 461.43 219.674 461.282C221.708 459.069 223.163 456.45 224.593 453.738C225.108 452.755 225.73 452.047 226.526 451.492C228.207 450.337 229.671 448.767 231.009 446.707C232.562 444.294 234.113 441.871 235.656 439.46C235.656 439.46 237.988 435.809 239.016 434.199C239.481 433.473 239.944 432.738 240.4 432.015C241.6 430.114 242.805 428.192 244.104 426.355C247.872 421 253.06 417.768 259.536 416.736C260.882 416.524 262.104 416.336 263.369 416.267C266.22 416.121 269.114 416.024 271.91 415.934L273.072 415.895C273.409 415.872 273.987 415.842 274.346 416.551L274.453 416.754L274.282 416.903C271.799 419.099 270.023 421.949 268.302 424.702C267.876 425.387 267.442 426.083 267.004 426.761C264.783 430.189 262.36 432.784 259.609 434.671C257.692 435.992 255.643 437.169 253.347 438.292C250.862 439.499 248.838 440.547 246.987 441.597C244.281 443.138 242.071 445.37 240.44 448.23C240.051 448.904 239.653 449.581 239.252 450.248L239.101 450.503C237.664 452.934 235.786 455.054 233.356 457.003C229.023 460.472 223.947 461.813 219.552 462.661L219.013 462.76L219.215 462.249C219.286 462.068 219.337 461.922 219.376 461.81L219.405 461.842ZM257.311 395.75C259.242 393.97 261.06 392.292 262.921 390.622C263.286 390.298 263.938 390.097 264.44 390.159C266.583 390.412 268.079 391.21 269.131 392.666C270.546 394.628 272.032 396.591 273.459 398.489C274.274 399.567 275.06 400.612 275.837 401.66C275.969 401.845 276.062 402.032 276.172 402.284C276.227 402.41 276.285 402.546 276.365 402.686L276.549 403.059L276.14 403.112C275.944 403.136 275.772 403.174 275.608 403.199C275.234 403.273 274.916 403.331 274.58 403.283C273.258 403.074 272.019 402.873 270.813 402.5C269.444 402.082 268.084 401.591 266.769 401.117L266.636 401.074C266.063 400.869 265.5 400.662 264.93 400.466L264.403 400.279C261.93 399.42 259.375 398.523 256.706 398.304C256.479 398.287 256.29 398.188 256.05 398.052C255.933 397.994 255.801 397.919 255.638 397.843L255.231 397.653L257.324 395.726L257.311 395.75ZM241.996 411.827C243.031 408.789 244.742 406.251 247.093 404.273C247.609 403.836 248.142 403.425 248.684 403.012C249.457 402.412 250.257 401.796 250.988 401.118C252.573 399.656 254.457 399.122 256.751 399.485C256.92 399.509 257.095 399.521 257.27 399.533C257.507 399.548 257.734 399.565 257.948 399.607C261.897 400.319 265.643 401.794 269.148 403.236C269.296 403.296 269.351 403.422 269.404 403.539C269.446 403.618 269.476 403.691 269.519 403.77L269.66 404.024L269.406 404.165C269.311 404.222 269.225 404.276 269.148 404.328C268.976 404.437 268.823 404.54 268.644 404.589C267.564 404.92 266.474 405.254 265.395 405.594C262.353 406.541 259.298 407.481 256.258 408.326C253.733 409.028 251.768 410.141 250.234 411.75C249.13 412.906 248.309 413.883 247.639 414.817C246.54 416.356 245.52 417.994 244.652 419.419C242.339 423.206 239.843 426.336 237.013 428.994C235.474 430.442 233.702 431.633 231.597 432.642C231.348 432.762 231.062 432.791 230.775 432.81C230.635 432.819 230.489 432.839 230.334 432.862L229.849 432.936L230.005 432.479C230.06 432.312 230.101 432.169 230.145 432.035C230.179 431.904 230.214 431.814 230.24 431.726C230.284 431.592 230.331 431.468 230.401 431.357C232.065 428.327 233.841 425.73 235.812 423.403C236.31 422.83 236.736 422.327 237.119 421.887C239.104 419.607 239.778 418.833 240.66 416.222C240.949 415.373 241.271 414.313 241.767 412.568C241.782 412.513 241.953 412 242.008 411.834L241.996 411.827ZM250.808 277.859C251 278.149 251.155 278.379 251.29 278.574C251.548 278.957 251.715 279.194 251.843 279.472C252.225 280.265 252.596 281.052 252.959 281.851L253.102 282.145C253.558 283.13 254.026 284.122 254.5 285.102C254.707 285.52 254.905 285.94 255.103 286.36C255.865 287.938 256.637 289.553 257.511 291.059C258.533 292.807 259.639 294.531 260.72 296.202C261.272 297.06 261.821 297.908 262.364 298.768C265.067 303.071 267.017 307.685 268.171 312.49C269.192 316.745 269.665 321.284 269.637 326.347C269.603 330.876 269.255 335.663 268.532 341.425C267.793 347.312 268.331 352.591 270.17 357.57C270.552 358.616 270.901 359.691 271.24 360.729C271.42 361.266 271.593 361.814 271.772 362.351C273.381 367.12 273.902 372.192 273.353 377.854C273.293 378.437 273.192 379.021 273.086 379.586C273.028 379.886 272.983 380.161 272.939 380.436L272.892 380.742L272.59 380.675C271.602 380.464 271.216 379.803 270.875 379.231L270.764 379.049C266.79 372.501 264.297 366.845 262.917 361.264C262.774 360.677 262.631 360.09 262.491 359.512C262.262 358.545 262.024 357.58 261.777 356.617C261.127 354.099 260.776 351.598 260.746 349.2L260.739 348.848C260.701 345.947 260.668 342.994 260.769 340.085C260.994 333.765 260.474 327.459 259.236 321.333C257.951 314.967 256.44 308.149 254.122 301.413C252.662 297.179 251.683 292.679 251.2 288.032C251.05 286.547 250.888 285.055 250.729 283.573C250.729 283.573 250.419 280.677 250.317 279.694C250.292 279.458 250.286 279.217 250.281 278.835L250.266 278.02L250.237 276.967L250.806 277.85L250.808 277.859ZM239.642 383.507C239.946 382.603 240.326 381.75 240.759 380.982C242.021 378.72 243.579 377.377 245.517 376.859C246.862 376.495 248.247 376.241 249.595 375.998C250.201 375.89 250.806 375.773 251.401 375.658L251.448 375.645L251.573 375.66C255.877 379.033 260.844 383.152 265.568 388.541L265.967 388.996L264.757 389.08C264.422 389.113 264.274 389.124 264.129 389.113C263.363 389.084 262.591 389.035 261.822 388.996C260.229 388.903 258.582 388.795 256.991 388.894C246.999 389.498 239.458 392.808 233.94 399.033L233.352 399.682C232.656 400.452 231.928 401.251 231.326 402.105C230.36 403.466 229.205 404.839 227.342 405.629C226.529 405.977 225.773 406.531 225.04 407.058C224.678 407.32 224.335 407.577 223.975 407.809C223.78 407.944 223.57 408.063 223.303 408.228L222.205 408.898L222.392 408.188C222.42 408.07 222.459 407.958 222.49 407.848C222.805 406.911 223.331 406.33 223.832 405.766C223.923 405.66 224.025 405.551 224.116 405.445L225.047 404.357C227.532 401.442 230.1 398.423 232.753 395.491C235.83 392.088 237.97 388.511 239.313 384.579C239.383 384.357 239.612 383.656 239.656 383.523L239.642 383.507ZM225.859 414.332C228.27 407.222 232.669 401.045 238.919 395.961C240.749 394.471 242.728 393.335 244.802 392.576C250.024 390.669 254.895 389.79 259.704 389.888L259.834 389.883C260.103 389.869 260.561 389.842 260.889 390.439L260.988 390.613L260.859 390.77C260.797 390.838 260.747 390.913 260.679 390.993C260.537 391.173 260.368 391.402 260.167 391.59L259.212 392.482C257.824 393.778 256.444 395.071 255.049 396.308C253.774 397.431 252.416 398.547 251.213 399.528L250.448 400.156C249.906 400.609 249.351 401.047 248.798 401.494L248.698 401.572C247.705 402.364 246.728 403.141 245.809 403.943C243.96 405.548 242.593 407.465 241.737 409.624C241.458 410.328 241.2 411.037 240.965 411.719C240.679 412.547 240.431 413.364 240.222 414.14C240.117 414.523 240.006 414.887 239.885 415.254C239.181 417.341 238.166 419.069 236.784 420.535C236.503 420.835 236.247 421.149 235.981 421.465C235.784 421.702 235.587 421.939 235.378 422.169C233.716 424.046 232.115 426.251 230.476 428.9C229.472 430.524 228.723 432.087 228.181 433.663C227.612 435.327 227.308 436.959 227.225 438.66C227.164 439.931 226.977 441.186 226.798 442.398L226.68 443.209C226.374 445.347 225.881 447.425 225.207 449.402C223.726 453.746 221.342 457.755 218.113 461.302C215.2 464.498 212.671 466.566 209.887 468.007C209.535 468.196 209.142 468.345 208.696 468.52C208.394 468.634 208.129 468.738 207.814 468.876L206.951 469.228L207.788 467.873C207.96 467.582 208.067 467.421 208.183 467.257C208.491 466.838 208.811 466.426 209.128 466.004C209.631 465.338 210.145 464.68 210.624 464.001C211.798 462.37 212.689 460.667 213.282 458.945C213.703 457.696 213.981 456.405 214.103 455.097C214.293 453.053 214.396 450.952 214.501 448.931L214.515 448.654C214.678 445.313 215.24 442.205 216.195 439.422C216.886 437.4 217.795 435.469 218.902 433.705C220.24 431.574 221.331 429.208 222.332 426.261C222.788 424.921 223.216 423.478 223.731 421.586L224.088 420.253C224.614 418.287 225.148 416.319 225.793 414.421L225.826 414.321L225.859 414.332ZM225.496 270.925L225.837 271.568C226.071 272.009 226.217 272.281 226.348 272.569L226.428 272.748C227.55 275.328 228.671 277.908 229.767 280.504C231.891 285.525 233.269 290.844 233.843 296.325C234.042 298.241 234.298 300.182 234.548 302.063L234.574 302.228C234.774 303.75 234.984 305.268 235.154 306.788C236.143 315.289 238.81 323.575 243.083 331.415C245.168 335.243 247.116 339.231 249.006 343.083L249.909 344.914C251.667 348.51 252.763 351.612 253.337 354.698C254.197 359.281 254.234 364.032 254.209 368.124L254.191 368.24C254.162 368.319 254.126 368.369 254.069 368.456L253.876 368.742L253.698 369.014L252.799 368.324C252.389 368.013 252.003 367.716 251.643 367.402C246.841 363.257 242.794 358.155 239.267 351.796C236.672 347.118 234.423 342.012 232.377 336.181C231.149 332.671 230.391 329.11 230.126 325.575C229.996 323.872 229.877 322.207 229.807 320.538C229.628 315.927 229.179 311.442 228.492 307.225C228.028 304.392 227.536 301.567 227.043 298.741L226.957 298.25C225.889 292.117 225.333 286.408 225.252 280.809C225.226 279.007 225.1 277.172 224.983 275.405C224.909 274.374 224.843 273.412 224.799 272.453C224.783 272.215 224.82 271.982 224.854 271.67C224.876 271.492 224.908 271.281 224.93 271.032L225.029 270.044L225.487 270.928L225.496 270.925ZM204.984 385.247C205.826 382.748 207.486 380.609 209.886 378.88C212.12 377.278 214.656 376.108 216.891 375.092C220.954 373.235 223.884 371.156 226.127 368.571C226.671 367.945 227.31 367.626 228.19 367.553C230.717 367.336 232.702 366.946 234.46 366.325C235.186 366.063 235.844 366.102 236.536 366.446L237.297 366.82C238.125 367.217 238.956 367.623 239.764 368.056C243.576 370.059 246.69 372.024 249.563 374.248L249.925 374.531L249.522 374.755C248.494 375.313 247.621 375.445 246.835 375.562L246.35 375.636C242.278 376.334 238.126 377.438 233.651 379.015C229.158 380.598 225.317 383.112 222.242 386.484C222.088 386.659 221.665 387.1 221.665 387.1C221.342 387.432 221.055 387.744 220.78 388.063C218.136 391.134 215.243 394.183 212.167 397.12C209.818 399.361 207.746 401.979 205.831 405.13C204.653 407.075 203.622 408.676 202.587 410.187C200.536 413.173 197.997 415.679 195.028 417.616C194.83 417.742 194.616 417.842 194.293 417.992C194.088 418.09 193.854 418.195 193.551 418.34L192.555 418.83L193.858 416.9C194.215 416.366 194.502 415.943 194.791 415.529C197.362 411.832 199.394 407.829 200.818 403.642C201.125 402.748 201.397 401.834 201.649 400.924C202.457 398.011 203.004 394.997 203.54 392.088L203.991 389.638C204.201 388.467 204.418 387.285 204.714 386.131C204.794 385.836 204.874 385.541 204.977 385.259L204.984 385.247ZM186.016 428.766C186.184 428.497 186.321 428.297 186.467 428.095C186.769 427.657 187.082 427.216 187.397 426.785L187.456 426.707C188.186 425.696 188.938 424.658 189.545 423.569C190.36 422.099 191.494 421.015 193.23 420.057C197.837 417.503 201.528 414.05 204.207 409.797C204.472 409.369 204.75 408.949 205.027 408.528C205.452 407.874 205.87 407.232 206.264 406.577C207.868 403.947 209.866 400.914 212.54 398.351C215.908 395.12 219.123 391.739 222.091 388.306C222.556 387.762 223.07 387.245 223.555 386.736L223.744 386.542C226.356 383.864 229.394 381.847 232.775 380.553C234.401 379.929 236.074 379.403 237.689 378.884L238.701 378.562C239.018 378.464 239.331 378.427 239.725 378.388C239.951 378.366 240.168 378.346 240.42 378.306L241.081 378.213L240.699 378.765C239.624 380.317 239.058 381.88 238.467 383.611L238.141 384.581C237.067 387.7 235.468 390.531 233.386 392.97C232.648 393.842 231.898 394.708 231.157 395.571L230.423 396.422C229.729 397.232 229.022 398.035 228.324 398.836L227.997 399.22C225.08 402.548 222.075 405.992 219.475 409.697C218.418 411.204 216.978 412.605 214.957 414.098C213.893 414.889 212.823 415.661 211.754 416.434C209.82 417.841 207.826 419.285 205.887 420.784C200.145 425.222 193.813 428.226 187.079 429.714C186.879 429.759 186.676 429.755 186.423 429.755C186.281 429.754 186.127 429.746 185.936 429.749L185.374 429.763L186.028 428.772L186.016 428.766ZM206.567 460.61C207.807 460.053 208.915 459.563 210.024 459.082C210.242 458.991 210.471 458.907 210.848 458.772L212.356 458.232L212.086 458.863C211.935 459.228 211.802 459.548 211.679 459.835C211.404 460.518 211.187 461.044 210.916 461.524C210.719 461.871 210.212 462.265 209.754 462.291C208.223 462.384 206.865 462.336 205.215 461.784L204.491 461.541L206.579 460.616L206.567 460.61ZM224.701 414.128C224.142 415.79 223.666 417.459 223.141 419.465C222.976 420.107 222.814 420.759 222.649 421.401C222.257 422.976 221.854 424.615 221.311 426.191C220.945 427.274 220.554 428.231 220.109 429.103C219.409 430.511 218.644 431.907 217.919 433.261C217.484 434.059 217.049 434.858 216.625 435.663C216.294 436.29 215.771 436.699 215.003 436.953C213.589 437.396 212.368 438.312 211.368 439.662C210.862 440.349 210.375 441.07 209.913 441.775L209.35 442.619C209.14 442.92 208.942 443.228 208.745 443.535L208.668 443.658C208.209 444.372 207.728 445.112 207.193 445.807C206.087 447.247 204.851 447.964 202.64 448.448L201.848 448.617L202.985 447.108C204.065 445.686 205 444.031 205.997 441.762C206.381 440.887 206.742 439.967 207.08 438.964C207.859 436.675 208.441 434.299 209.002 431.989C209.288 430.798 209.637 429.619 210.039 428.446C210.836 426.111 211.868 423.752 213.102 421.427C215.814 416.346 219.843 412.001 225.788 407.75C225.932 407.649 226.087 407.586 226.316 407.502C226.48 407.436 226.646 407.38 226.845 407.294L227.452 407.044L227.239 407.66C227.148 407.948 227.064 408.194 226.997 408.425C226.941 408.622 226.879 408.801 226.831 408.956C226.748 409.202 226.668 409.386 226.585 409.56C225.9 410.913 225.282 412.4 224.702 414.097L224.701 414.128ZM208.366 368.758C209.092 366.605 210.173 364.677 211.22 362.879C211.629 362.169 212.276 361.767 213.189 361.634C213.86 361.539 214.529 361.434 215.197 361.329C216.322 361.157 217.494 360.973 218.636 360.827C220.806 360.558 222.774 360.799 224.656 361.57C226.173 362.189 227.737 362.796 229.243 363.378C230.172 363.737 231.088 364.088 232.008 364.449C232.177 364.513 232.301 364.631 232.499 364.798C232.632 364.913 232.777 365.034 232.97 365.183L233.447 365.555L232.866 365.717C232.56 365.782 232.307 365.852 232.091 365.912C231.669 366.03 231.378 366.111 231.055 366.15C229.511 366.306 227.623 366.497 225.795 366.611C218.976 367.031 213.882 368.053 209.282 369.908C209.084 369.994 208.87 369.952 208.666 369.908C208.568 369.885 208.473 369.871 208.378 369.856L208.025 369.823L208.123 369.483C208.197 369.24 208.273 369.006 208.35 368.773L208.366 368.758ZM189.357 395.001C189.462 394.688 189.577 394.373 189.703 394.065C190.589 391.868 191.776 390.102 193.345 388.655C195.599 386.582 197.74 384.319 199.81 382.126L200.568 381.329C202.484 379.31 204.002 377.169 205.079 374.969C205.765 373.586 206.799 372.54 208.339 371.677C209.275 371.154 210.143 370.751 210.988 370.445C214.799 369.062 218.842 368.221 223.01 367.942L223.128 367.929C223.401 367.894 223.87 367.834 224.226 368.423L224.337 368.604L224.199 368.764C224.124 368.855 224.048 368.947 223.975 369.048C223.79 369.292 223.592 369.559 223.337 369.772C221.569 371.264 219.649 372.506 217.651 373.465L217.206 373.68C215.369 374.565 213.469 375.477 211.63 376.424C207.706 378.455 205.136 381.393 203.78 385.39C203.421 386.46 203.137 387.621 202.961 388.842C202.59 391.291 202.08 393.748 201.58 396.131C201.398 397.001 201.217 397.88 201.044 398.747C200.724 400.322 200.302 401.895 199.777 403.426C198.708 406.564 197.184 409.698 195.235 412.726C194.184 414.363 193.121 415.993 192.058 417.623C190.61 419.835 189.125 422.129 187.684 424.4C185.478 427.884 182.87 430.611 179.69 432.739C177.494 434.219 175.078 435.821 172.095 437.782C171.923 437.891 171.721 437.927 171.528 437.96C171.431 437.977 171.335 437.994 171.229 438.013L170.708 438.138L170.881 437.634C170.921 437.522 170.951 437.413 170.974 437.315C171.009 437.184 171.042 437.084 171.074 436.984C171.125 436.839 171.181 436.712 171.254 436.611C172.986 434.006 174.459 432.141 176.017 430.545C176.372 430.184 176.735 429.82 177.09 429.458C177.746 428.801 178.402 428.143 179.035 427.472C182.21 424.092 184.553 420.195 186.021 415.874C186.734 413.786 187.248 411.56 187.549 409.262C187.828 407.173 187.957 405.055 188.075 403.01L188.088 402.764C188.126 402.066 188.177 401.374 188.227 400.683C188.371 398.581 188.733 396.721 189.323 394.99L189.357 395.001ZM198.797 282.564L199.416 283.443C199.762 283.923 200.115 284.432 200.438 284.938C202.685 288.509 204.309 292.607 205.399 297.47L205.653 298.603C206.213 301.126 206.782 303.647 207.407 306.112C208.419 310.117 209.981 313.878 212.044 317.298L212.491 318.033C213.649 319.945 214.845 321.918 215.942 323.938C217.052 325.965 218.205 328.151 219.165 330.402C220.764 334.153 221.79 338.245 222.217 342.544C222.3 343.35 222.366 344.171 222.439 344.979C222.66 347.628 222.901 350.351 223.509 352.972C223.532 353.056 223.518 353.151 223.486 353.252C223.464 353.318 223.432 353.388 223.385 353.472C223.354 353.541 223.306 353.625 223.271 353.716L223.148 354.002L222.868 353.868C222.763 353.816 222.66 353.774 222.546 353.725C222.292 353.614 222.029 353.505 221.801 353.336L220.965 352.729C219.266 351.493 217.505 350.213 215.807 348.906C213.506 347.14 211.61 345.119 210.161 342.924C206.395 337.197 204.03 331.637 202.914 325.912C201.875 320.54 201.015 315.047 200.176 309.74L199.814 307.454C199.13 303.105 199.076 298.763 199.116 294.728C199.164 290.61 198.83 287.225 198.079 284.088C198.019 283.872 198.018 283.65 198.007 283.431L197.973 282.945L198.804 282.552L198.797 282.564ZM127.591 411.708C127.854 411.564 128.108 411.423 128.372 411.279C128.949 410.957 129.527 410.634 130.139 410.363L131.221 409.89C133.239 409.006 135.328 408.081 137.443 407.291C142.121 405.535 146.432 403.114 150.283 400.092C150.674 399.791 151.066 399.49 151.46 399.198C152.011 398.782 152.591 398.358 153.123 397.907C157.891 393.932 163.226 390.72 168.961 388.368C172.782 386.8 176.411 384.618 179.745 381.882C182.016 380.017 184.266 378.036 186.433 376.12L186.991 375.621C187.705 374.988 188.406 374.308 189.083 373.654C189.537 373.214 190.001 372.772 190.467 372.339C192.82 370.148 195.089 368.567 197.396 367.481C199.989 366.265 202.68 365.142 205.267 364.049L207.521 363.099C207.829 362.973 208.149 362.924 208.5 362.877C208.674 362.849 208.832 362.835 208.994 362.8L209.418 362.723L209.344 363.148C209.324 363.295 209.306 363.411 209.285 363.518C209.261 363.687 209.246 363.853 209.187 364.001C208.884 364.732 208.574 365.435 208.18 366.272C208.039 366.564 207.898 366.856 207.747 367.151C207.518 367.599 207.318 368.008 207.14 368.421C204.796 373.916 201.962 378.343 198.479 381.96C198.063 382.389 197.658 382.825 197.251 383.252C196.502 384.047 195.752 384.841 194.992 385.599C192.329 388.199 189.317 391.15 185.736 393.288C181.122 396.036 176.195 398.822 171.11 401.55C168.735 402.827 166.282 404.004 163.911 405.149C162.467 405.843 161.085 406.511 159.712 407.206C156.987 408.57 154.431 409.412 151.908 409.79C149.294 410.173 146.626 410.5 144.051 410.802L142.152 411.027C139.021 411.402 135.89 411.777 132.766 412.14L129.065 412.572C128.81 412.603 127.7 412.719 127.7 412.719L127.332 411.831L127.57 411.704L127.591 411.708ZM178.673 313.302L178.812 313.587C180.238 316.425 182.252 318.939 184.201 321.369L184.677 321.955C187.125 325.015 188.727 328.34 189.59 332.134C189.777 332.952 189.946 333.703 190.187 334.425C190.386 334.996 190.569 335.582 190.759 336.156C191.273 337.752 191.813 339.402 192.512 340.936C194.417 345.097 197.051 348.459 200.313 350.919C201.296 351.657 201.816 352.654 202.396 353.868L202.597 354.298L202.122 354.298C201.93 354.301 201.76 354.308 201.609 354.309C201.29 354.327 201.021 354.341 200.748 354.266C196.607 353.153 192.47 352.018 188.33 350.874L186.633 350.406C185.769 350.171 185.007 349.685 184.293 348.933C181.266 345.721 179.068 342.541 177.601 339.228C176.34 336.364 175.999 333.466 176.612 330.617L176.75 329.951C176.982 328.856 177.212 327.72 177.545 326.627C178.58 323.225 178.801 320.02 178.226 316.823C178.11 316.188 178.032 315.543 177.949 314.919L177.805 313.816L178.663 313.305L178.673 313.302ZM178.425 301.977C178.577 301.541 178.731 301.114 178.895 300.684C179.063 300.233 179.208 299.849 179.338 299.479C179.532 298.94 179.747 298.405 179.992 297.902C180.095 297.692 180.243 297.499 180.392 297.306C180.468 297.214 180.55 297.11 180.63 296.997L180.826 296.72L181.073 296.955C181.182 297.056 181.288 297.147 181.392 297.23C181.641 297.434 181.865 297.624 182.016 297.875L182.318 298.378C182.918 299.373 183.533 300.385 184.012 301.455C185.369 304.444 186.124 307.56 186.671 310.219C187.889 316.017 189.937 320.765 192.929 324.725C194.863 327.281 196.174 330.324 196.949 334.021C197.622 337.241 198.273 340.527 198.902 343.699L199.639 347.406C199.663 347.491 199.653 347.564 199.639 347.659C199.626 347.723 199.601 348.215 199.601 348.215L199.269 348.146C199.171 348.123 199.098 348.113 199.034 348.1C198.908 348.085 198.81 348.061 198.716 347.976L198.636 347.907C198.421 347.715 198.196 347.524 198.004 347.305C195.361 344.309 193.436 341.023 192.286 337.541C191.642 335.587 191.181 333.966 190.829 332.447C189.8 327.981 188.001 324.235 185.336 321.013C183.868 319.227 182.529 317.355 181.171 315.418C179.483 313.016 178.427 310.054 177.862 306.097C177.648 304.599 178.031 303.179 178.437 301.984L178.425 301.977ZM92.1831 375.078C92.7138 374.951 93.1575 374.838 93.609 374.753C94.8952 374.506 96.196 374.276 97.4848 374.039L97.746 373.997C100.482 373.509 103.311 372.996 106.086 372.396C111.531 371.216 117.095 371.084 123.112 371.999C129.49 372.976 134.708 373.345 139.534 373.176C152.968 372.696 163.969 369.031 173.154 361.958C174.595 360.85 176.171 359.865 177.699 358.925L178.173 358.631C180.699 357.06 183.402 356.167 186.197 355.966C188.101 355.831 190.032 355.759 191.911 355.681L192.202 355.671C192.442 355.665 192.673 355.732 192.916 355.806C193.05 355.85 193.183 355.894 193.336 355.932L193.847 356.063L192.983 356.92C192.684 357.225 192.421 357.48 192.147 357.729C187.789 361.69 184.241 365.619 181.299 369.763C180.097 371.441 178.68 373.109 177.061 374.702C173.638 378.1 169.593 380.458 165.046 381.702C158.903 383.39 152.709 383.909 146.636 383.232C138.438 382.326 131.682 381.95 125.391 382.051C122.12 382.102 118.607 381.612 114.654 380.558C110.799 379.527 106.822 378.459 102.751 377.963C100.189 377.655 97.605 377.271 95.107 376.904L93.2518 376.631L93.0432 376.609C92.4885 376.54 91.8482 376.456 91.2229 375.77L90.8777 375.401C90.8777 375.401 91.9297 375.149 92.1857 375.088L92.1831 375.078ZM81.5641 342.121C81.7799 342.061 81.9489 342.014 82.0803 341.978C82.3336 341.907 82.4999 341.851 82.6819 341.851C83.5114 341.853 84.3315 341.857 85.1585 341.85C88.5209 341.835 91.997 341.829 95.4053 342.307C102.889 343.37 110.259 343.444 117.322 342.521C120.005 342.17 122.714 342.134 124.78 342.146C130.225 342.169 135.831 343.35 142.403 345.86C146.227 347.324 150.251 348.49 153.795 349.527C159.427 351.166 164.507 351.765 169.314 351.349C169.531 351.329 169.737 351.342 170.026 351.363C170.192 351.378 171.072 351.416 171.072 351.416L170.863 351.828C170.222 353.088 169.388 353.724 168.335 354.3C166.921 355.067 165.351 355.858 163.395 356.786C158.407 359.133 152.998 359.97 147.331 359.26C143.36 358.757 139.29 357.826 134.909 356.396C129.896 354.766 124.823 353.063 119.909 351.427L119.743 351.372C116.677 350.344 113.613 349.325 110.54 348.309C106.822 347.079 102.839 346.134 98.6981 345.496C98.6981 345.496 85.6365 343.496 83.0571 343.091C82.7938 343.053 82.5414 342.982 82.2035 342.894C82.0273 342.842 81.5064 342.713 81.5064 342.713L81.4995 342.18L81.5745 342.159L81.5641 342.121ZM177.562 301.489C176.318 305.232 175.965 309.091 176.532 312.947L176.772 314.538C176.969 315.828 177.156 317.121 177.332 318.406C177.604 320.514 177.527 322.345 177.067 324C176.209 327.13 175.547 329.841 175.124 332.901L175.04 333.47L174.616 333.072C172.876 331.433 171.788 329.885 170.982 327.895C169.507 324.262 168.884 320.674 169.136 317.217C169.338 314.381 169.678 311.567 170.129 308.863C170.871 304.441 172.04 299.921 173.69 295.054C173.842 294.618 173.984 294.184 174.138 293.757C175.625 289.542 178.291 286.112 182.074 283.574C182.517 283.279 182.956 282.965 183.397 282.66C183.963 282.26 184.499 281.899 185.036 281.537C185.215 281.417 185.405 281.374 185.658 281.304C185.78 281.27 185.93 281.228 186.099 281.181L186.742 280.982L185.444 283.84C184.767 285.333 184.121 286.756 183.47 288.16L183.193 288.763C182.808 289.597 182.384 290.544 181.878 291.413C180.359 294.059 179.039 297.095 177.734 300.946L177.55 301.483L177.562 301.489ZM168.428 283.183C170.371 284.209 173.528 287.163 174.785 289.139L174.839 289.225L174.468 290.218C174.05 291.224 173.61 292.256 173.159 293.291C173.079 293.475 172.909 293.553 172.773 293.611C172.726 293.624 172.701 293.641 172.666 293.661L172.628 293.671L172.506 293.705C172.278 293.647 172.104 293.605 172.036 293.432C171.755 292.711 171.485 291.997 171.214 291.274C170.281 288.794 169.334 286.297 168.031 284.011C167.938 283.855 167.959 283.677 167.972 283.542C167.971 283.502 167.982 283.468 167.981 283.428L167.984 282.932L168.423 283.164L168.428 283.183ZM150.79 265.815L150.877 265.983C154.348 272.974 156.275 279.07 156.962 285.177C157.501 289.951 158.541 294.818 160.054 299.644C160.617 301.449 161.156 303.281 161.702 305.171C162.775 308.886 163.033 312.686 162.482 316.449C162.056 319.317 161.601 322.224 161.15 325.038L160.856 326.889C160.856 326.889 160.845 326.923 160.848 326.932C160.786 327.111 160.717 327.191 160.66 327.277C160.608 327.343 160.585 327.369 160.574 327.403L160.476 327.561L160.289 327.542C159.557 327.453 159.242 326.903 158.999 326.465C158.934 326.342 158.875 326.237 158.809 326.144C154.54 319.809 152.411 313.608 152.326 307.191C152.324 307.04 152.313 306.892 152.302 306.743C152.288 306.545 152.277 306.396 152.273 306.236C152.116 300.547 151.339 295.314 149.885 290.229C148.753 286.267 148.414 281.994 148.868 277.52C148.963 276.624 149.06 275.738 149.158 274.852C149.337 273.205 149.532 271.543 149.661 269.9C149.724 269.144 149.699 268.362 149.679 267.6C149.667 267.229 149.657 266.868 149.657 266.504L149.385 266.579L149.669 266.036L149.659 265.927L149.663 265.835L149.836 265.837C149.836 265.837 149.823 265.79 149.837 265.766C149.845 265.724 149.875 265.685 149.911 265.635C149.938 265.587 149.977 265.545 150.026 265.502L150.508 264.983C150.508 264.983 150.594 265.799 150.595 265.839L150.826 265.835L150.79 265.815ZM77.818 291.34L78.0609 291.414C78.7471 291.628 79.4333 291.841 80.1221 292.064C81.6092 292.541 83.1485 293.022 84.6924 293.412C89.0102 294.506 93.129 295.939 96.9605 297.685C100.78 299.423 103.872 301.455 106.42 303.89C106.97 304.415 108.243 305.648 108.243 305.648C108.896 306.286 109.557 306.921 110.219 307.555C112.755 309.984 115.505 311.879 118.39 313.2C120.406 314.125 122.503 314.937 124.609 315.605C128.625 316.885 132.278 318.973 135.453 321.81C135.804 322.127 136.167 322.451 136.518 322.768C137.049 323.257 137.586 323.735 138.132 324.21L139.47 325.385C140.928 326.667 142.416 327.982 143.919 329.243C145.987 330.973 147.812 332.154 149.658 332.975C149.969 333.111 150.476 333.334 150.367 334.072L150.359 334.115L150.31 334.229C149.481 334.773 148.607 334.794 147.752 334.809L147.4 334.816C141.732 334.976 136.338 333.393 131.377 330.132C129.62 328.972 127.949 327.728 126.11 326.349C122.402 323.559 119.202 321.537 116.046 319.968C114.217 319.061 112.359 318.051 110.343 316.873C107.386 315.147 104.754 312.917 102.202 310.755C102.202 310.755 100.387 309.207 99.6326 308.568C96.1975 305.631 92.6347 302.598 88.8723 299.974C86.7395 298.484 84.5462 297.032 82.4275 295.629L82.329 295.565C81.189 294.811 80.0611 294.063 78.9279 293.296C78.6177 293.089 78.3277 292.846 78.0404 292.613C77.8928 292.482 77.4537 292.139 77.4537 292.139L77.842 291.354L77.818 291.34ZM114.275 223.386C114.339 223.217 114.461 223.072 114.661 222.956L114.855 222.851L115.01 223.01C115.054 223.059 115.104 223.095 115.158 223.141C115.291 223.256 115.426 223.38 115.541 223.54C116.264 224.613 116.997 225.683 117.741 226.76C119.421 229.204 121.168 231.741 122.723 234.352C127.015 241.57 129.989 249.761 131.57 258.683C132.76 265.399 134.14 273.234 135.451 281.15C136.23 285.806 137.399 290.01 139.026 294.006L139.538 295.269C139.971 296.352 140.398 297.416 140.852 298.432C143.286 303.912 145.516 310.005 147.875 317.619C147.959 317.919 148.024 318.224 148.08 318.573C148.119 318.784 148.155 318.987 148.198 319.217L148.299 319.725L147.808 319.558C147.617 319.49 147.453 319.445 147.298 319.397C146.976 319.294 146.712 319.216 146.475 319.09C144.692 318.17 143.153 316.96 141.886 315.493C138.952 312.103 136.815 308.38 135.544 304.427C134.918 302.468 134.307 300.343 133.619 297.723C131.856 290.945 130.575 283.648 129.45 274.073C128.413 265.182 126.003 256.551 122.089 247.671C120.116 243.195 118.461 238.55 117.154 233.848C116.575 231.765 115.977 229.687 115.369 227.611C115.369 227.611 114.684 225.254 114.372 224.168L114.338 224.046C114.269 223.873 114.195 223.641 114.278 223.396L114.275 223.386Z" fill="#695E5C"/>
</svg>
