<svg width="40" height="40" viewBox="0 0 40 40" fill="none" xmlns="http://www.w3.org/2000/svg">
<g clip-path="url(#clip0_420_3836)">
<path d="M14.9997 2.38946C12.1482 4.4754 11.6404 4.88165 10.82 5.7254C5.62473 11.0066 2.02316 18.4676 0.663789 26.7254C0.273432 29.098 0.0878339 32.504 0.0698178 34.0584C0.0636077 34.5942 0.24767 35.1132 0.723534 35.3595C1.46003 35.7408 2.65973 36.0678 3.84348 36.5145C8.43723 38.2488 12.8825 39.3348 17.3435 39.8191C18.9138 39.9832 23.0857 40.0066 24.6091 39.8582C27.6794 39.5535 29.445 39.1785 33.1169 38.0457C36.195 37.1004 37.6091 36.7957 38.9685 36.7957H39.2185C39.4342 36.7957 39.6091 36.6208 39.6091 36.4051C39.6091 36.1893 39.4342 36.0145 39.2185 36.0145H38.9294C37.5466 36.0145 35.9529 36.3504 33.0075 37.2645C29.0075 38.4988 26.8279 38.9285 23.3982 39.1473C21.7419 39.2566 18.8982 39.1941 17.2654 39.0223C12.6716 38.5379 7.41379 37.1551 2.61691 35.1785C1.84348 34.8582 1.1091 34.5535 0.984101 34.5066C0.847989 34.4503 0.761451 34.3151 0.767339 34.1679L0.812226 33.0457C1.20285 22.9129 4.49973 13.9988 10.3122 7.40508C11.6794 5.84258 12.156 5.43633 15.2341 3.18633C16.3835 2.34383 17.3017 1.58897 17.8551 1.20353C18.157 0.993301 18.524 0.899986 18.8874 0.957455C19.1698 1.00212 19.5489 1.13883 20.9529 1.55352C21.5246 1.72636 22.0553 1.88648 22.4776 2.01522C23.109 2.20771 23.5109 2.64859 23.633 3.29733C23.6806 3.55017 23.7336 3.83708 23.7888 4.13946L24.1091 5.92852L23.7107 6.01446C23.3279 6.09258 23.281 6.08477 22.4919 5.73321C22.1967 5.60373 22.0766 5.5429 21.9222 5.47109C21.7311 5.38221 21.6013 5.23853 21.6325 5.03008C21.6794 4.74883 21.7029 4.73321 22.2263 4.55352C22.531 4.45196 22.8122 4.35821 22.8669 4.33477C22.9372 4.31133 22.9294 4.21758 22.8435 3.94415C22.7732 3.74883 22.695 3.59258 22.6716 3.59258C22.5779 3.59258 21.4997 3.49878 21.1091 4.13165C20.9919 4.20196 20.7888 5.0379 20.781 5.4754C20.781 5.83477 20.8747 5.9129 21.8591 6.32696C22.2966 6.51446 22.656 6.69415 22.656 6.73321C22.656 6.76446 22.5466 6.99102 22.4138 7.2254C22.2029 7.6004 22.156 7.64727 21.9685 7.60821C20.5779 7.36602 20.2341 7.3504 19.5857 7.51446C18.4763 7.79571 17.3904 7.60821 16.4841 6.98321C16.1928 6.78234 15.7732 6.61602 15.3904 7.26446C14.7654 8.34258 14.281 9.63165 14.0075 10.9754C13.8982 11.5379 13.8669 12.0379 13.8747 13.4754C13.8747 15.0066 13.9138 15.6004 14.1325 17.4598C14.5544 20.9832 14.4997 23.1238 13.9529 25.3035C13.6716 26.4207 13.4841 26.8504 12.9529 27.6629C12.0857 28.9754 10.6325 30.241 9.27316 30.8582L9.00162 30.9794C8.86586 31.0399 8.79494 31.1908 8.83489 31.334L8.8591 31.4207C8.91379 31.6004 8.99191 31.7566 9.03879 31.7723C9.49973 31.9988 10.7107 30.9988 11.32 30.5457C12.3669 29.7566 13.5154 28.4207 14.0466 27.366C14.4607 26.5613 17.07 24.952 19.0544 24.2957C21.9763 23.3191 24.3982 23.702 26.4607 25.4676C26.656 25.6316 26.8591 25.9207 26.9763 26.1863C27.7654 27.9676 29.6091 29.616 31.7575 30.4598C32.2642 30.6625 33.2023 30.9524 33.6391 31.0549C33.7791 31.0878 33.9315 31.0994 34.0566 31.0287C34.2539 30.9172 34.2224 30.7044 34.1575 30.5451C34.0988 30.4014 33.9605 30.3231 33.8104 30.2836C33.6817 30.2497 33.5091 30.2042 33.32 30.1551C30.7575 29.491 28.7732 28.0145 27.7732 26.0223L27.7486 25.9731C27.6373 25.7505 27.6465 25.4866 27.7732 25.2723C28.1482 24.6238 28.9372 23.6473 29.6247 22.9676C32.1794 20.4363 35.3435 19.4832 38.7888 20.1941C39.1325 20.2645 39.4372 20.3426 39.4607 20.3582C40.4997 20.3582 39.7107 19.6863 39.656 19.6238C39.4997 19.4988 39.32 19.5145 38.9685 19.4363C38.0075 19.2098 35.8904 19.1551 34.8747 19.327C31.9997 19.8191 29.3669 21.5926 27.4685 24.3191L27.386 24.4374C27.2052 24.6967 26.8448 24.753 26.5935 24.5613C24.8279 23.1863 22.5232 22.6863 20.1716 23.1707C18.7185 23.4676 16.8591 24.2566 15.4294 25.1863C15.0544 25.4285 14.7419 25.6238 14.7263 25.6082C14.4997 25.4988 14.7888 25.1785 14.8904 24.6863C15.32 22.6004 15.3122 20.8113 14.8747 17.0691C14.6247 14.9598 14.57 12.2723 14.7575 11.2488C14.9294 10.2801 15.2185 9.38165 15.6404 8.49883L15.8992 7.94998C15.9714 7.79706 16.1556 7.73393 16.3063 7.81044L16.5544 7.93633C17.531 8.42852 18.6716 8.56133 19.7029 8.2879C20.2029 8.1629 20.2654 8.1629 21.3747 8.31133L22.2971 8.43682C22.4371 8.45587 22.5767 8.39918 22.6638 8.2879C22.7419 8.19415 22.9529 7.85821 23.1247 7.5379C23.2966 7.2254 23.4841 6.93633 23.5388 6.89727C23.5857 6.8504 23.8747 6.77227 24.1638 6.71758C24.7575 6.60821 24.9216 6.49102 24.9216 6.18633C24.9101 5.8308 24.5455 3.9137 24.281 2.69653C24.1459 2.07489 23.747 1.63423 23.1404 1.44278C22.0759 1.10685 20.3297 0.58416 19.2681 0.26836C18.6923 0.0970802 18.0715 0.195145 17.5792 0.53944C16.9505 0.97916 16.0076 1.64679 14.9997 2.38946Z" fill="#503131"/>
<path d="M25.5075 16.0982L23.9528 19.9513L28.7338 15.4387L27.6942 13.335L29.1159 9.87479L24.3349 14.3874L25.5075 16.0982Z" stroke="#503131" stroke-width="0.5" stroke-linecap="round" stroke-linejoin="round"/>
</g>
<defs>
<clipPath id="clip0_420_3836">
<rect width="40" height="40" fill="white"/>
</clipPath>
</defs>
</svg>
