<svg width="40" height="40" viewBox="0 0 40 40" fill="none" xmlns="http://www.w3.org/2000/svg">
<g clip-path="url(#clip0_420_3843)">
<path d="M29.8438 2.71093C26.1328 4.875 25.5547 5.17187 24.4375 5.5C23.0625 5.89843 21.7266 5.92968 20.2344 5.60156C18.8047 5.28906 17.6484 5.4375 16.5703 6.07031C15.9922 6.41406 15.2891 7.14062 14.9766 7.71093C14.7031 8.22656 14.4531 9.19531 14.4531 9.75781C14.4609 11.3594 15.4766 13.0156 16.875 13.6953C17.1953 13.8516 17.5234 13.9922 17.6016 14.0156C17.7188 14.0547 17.7266 14.1094 17.6797 14.3906C17.4844 15.4531 17.7188 16.7031 18.2656 17.5391C19.125 18.8672 20.3984 19.5625 21.9141 19.5547C23.2109 19.5547 24.2109 19.1484 25.0781 18.2812C25.6719 17.6875 25.9766 17.1484 26.3672 15.9766C27 14.0625 28.0312 12.6797 29.6875 11.5156C30.4453 10.9922 30.4844 10.9375 30.4531 10.5703C30.4297 10.3125 30.3906 10.25 30.1406 10.1328C29.8516 9.99218 29.8438 9.99218 29.4766 10.1953C28.8516 10.5312 28.1172 11.1172 27.4141 11.8516C26.3047 13 25.6016 14.1641 25.1016 15.6953C24.9531 16.1484 24.75 16.6641 24.6484 16.8437C24.0547 17.8516 22.6719 18.4844 21.5 18.2812C20.4062 18.0937 19.6328 17.5312 19.1641 16.5937C18.9219 16.0937 18.875 15.9062 18.8438 15.3672C18.8203 14.8359 18.8516 14.6172 19.0156 14.1094C19.1953 13.5469 19.2031 13.4687 19.0938 13.2734C18.9844 13.0547 18.7891 12.9687 18.1172 12.8594C17.2891 12.7187 16.3906 11.9922 15.9609 11.1094C15.7656 10.7109 15.7422 10.5859 15.7422 9.84375C15.7422 9.04687 15.75 8.99218 16.0391 8.42187C16.375 7.73437 16.8359 7.27343 17.5 6.96093C17.875 6.78125 18.0312 6.75781 18.7109 6.75781C19.2422 6.76562 19.7422 6.82031 20.2734 6.94531C20.9766 7.10937 21.1875 7.11718 22.3828 7.08593C23.8906 7.04687 24.6797 6.875 25.9141 6.34375C26.8516 5.9375 33.8125 1.92187 34.0859 1.63281C34.2031 1.50781 34.2969 1.32812 34.2969 1.24218C34.2969 0.999996 33.8828 0.624996 33.6172 0.624996C33.4766 0.624996 32.1797 1.34375 29.8438 2.71093Z" fill="#503131"/>
<path d="M11.9062 3.44532C11.7656 3.60157 11.7578 3.75001 11.7578 5.62501V7.64063L11.9453 7.84376C12.1797 8.09376 12.5859 8.11719 12.8125 7.89063C12.9609 7.74219 12.9688 7.63282 12.9688 5.66407C12.9688 3.69532 12.9609 3.58594 12.8125 3.43751C12.5938 3.21876 12.1094 3.22657 11.9062 3.44532Z" fill="#503131"/>
<path d="M35.3585 6.796C33.6007 7.82725 32.0773 8.74131 31.9757 8.83506C31.7335 9.06944 31.7413 9.40538 31.9913 9.64756C32.3585 10.0226 32.4523 9.9835 35.8585 7.99913C37.6007 6.99131 39.0851 6.10069 39.1632 6.02256C39.2413 5.94444 39.3273 5.74131 39.3507 5.56944C39.3898 5.296 39.3663 5.2335 39.1788 5.09288C39.0616 4.99913 38.8741 4.921 38.7569 4.921C38.6319 4.921 37.296 5.66319 35.3585 6.796Z" fill="#503131"/>
<path d="M5.77344 6.16325C5.64844 6.28825 5.54688 6.47575 5.54688 6.5695C5.54688 6.78044 8.33594 9.62419 8.6875 9.77262C8.97656 9.88981 9.24219 9.78044 9.41406 9.46012C9.51563 9.257 9.51563 9.18669 9.4375 8.99137C9.38281 8.85856 8.67969 8.12419 7.875 7.34294C6.26563 5.79606 6.1875 5.74919 5.77344 6.16325Z" fill="#503131"/>
<path d="M17.5391 8.45313C16.9844 9.03125 16.836 9.61719 17.0469 10.3281C17.1485 10.6875 17.5078 11.0156 17.7813 11.0156C17.8907 11.0156 18.0625 10.9297 18.1719 10.8125C18.3828 10.6094 18.3907 10.4219 18.2422 9.83594C18.1953 9.66406 18.2422 9.57031 18.461 9.32031C18.8047 8.9375 18.875 8.67969 18.7188 8.375C18.4688 7.89063 18.0625 7.92188 17.5391 8.45313Z" fill="#503131"/>
<path d="M3.36021 12.0859C2.95396 12.2422 2.82115 12.8203 3.12584 13.125C3.27428 13.2734 3.38365 13.2812 5.3524 13.2812C7.32115 13.2812 7.43053 13.2734 7.57896 13.125C7.78209 12.9219 7.78209 12.5 7.58678 12.2578C7.43834 12.0703 7.43834 12.0703 5.45396 12.0547C4.36803 12.0469 3.42271 12.0625 3.36021 12.0859Z" fill="#503131"/>
<path d="M8.59375 14.6562C6.67969 15.1562 5.39062 16.8281 5.39062 18.8125C5.39062 19.2109 5.46094 19.8047 5.54688 20.2188C5.95312 22.0781 5.76562 23.9922 5 25.6719C4.875 25.9531 3.82031 27.8516 2.65625 29.8828C1.34375 32.1797 0.546875 33.6562 0.546875 33.7812C0.546875 34.0625 0.867188 34.375 1.16406 34.375C1.29688 34.375 1.48438 34.2969 1.59375 34.1953C1.84375 33.9688 5.96875 26.7891 6.3125 25.9766C7.09375 24.125 7.30469 21.8984 6.875 19.9688C6.78906 19.5781 6.71875 19.0469 6.71875 18.7734C6.71875 17.8984 7.17188 16.9766 7.89844 16.4062C9.75 14.9453 12.4141 16 12.8906 18.3984C13.0625 19.2734 13.2891 19.4219 13.9766 19.1094C15.0312 18.6406 16.2344 18.8203 17.2188 19.6016C17.6016 19.9062 17.8359 19.9062 18.1328 19.6172C18.4375 19.3047 18.4219 19.125 18.0391 18.7109C17.2422 17.8516 15.4531 17.3828 14.1719 17.7031C14.0234 17.7422 13.9844 17.6953 13.8672 17.3516C13.4609 16.1094 12.2344 15 10.8906 14.6484C10.3203 14.5 9.16406 14.5078 8.59375 14.6562Z" fill="#503131"/>
<path d="M9.41317 17.1014C8.2413 17.4061 7.68661 18.4842 8.51473 18.8279C8.8038 18.9451 9.14755 18.8279 9.33505 18.5467C9.51473 18.2654 9.78036 18.1873 10.1788 18.2967C10.6397 18.4139 10.9132 18.3357 11.0616 18.0232C11.21 17.7186 11.1163 17.4139 10.835 17.2264C10.6163 17.0857 9.75692 17.0076 9.41317 17.1014Z" fill="#503131"/>
<path d="M25.1632 20.2816C24.9601 20.5394 24.9523 20.8676 25.1476 21.1019C25.296 21.2894 25.3038 21.2894 27.3038 21.3129C29.0382 21.3363 29.3351 21.3207 29.4992 21.2113C29.757 21.0472 29.8585 20.7582 29.757 20.4926C29.6085 20.0941 29.5695 20.0863 27.3663 20.0785H25.3195L25.1632 20.2816Z" fill="#503131"/>
<path d="M18.4766 20.9375C18.3672 21.0625 18.3359 21.2422 18.3203 21.8516C18.3047 22.6953 18.1562 23.1719 17.7266 23.8047C17.3516 24.3516 16.8672 24.6562 15.875 24.9688C14.7656 25.3203 13.6094 25.8906 12.8203 26.4844C12.0625 27.0547 11 28.1719 10.5234 28.8828C9.74219 30.0625 4.92188 38.5781 4.92188 38.7812C4.92188 39.0625 5.24219 39.375 5.53906 39.375C5.67188 39.375 5.85938 39.2969 5.96875 39.1953C6.07031 39.1016 7.34375 36.9688 8.78906 34.4531C10.2422 31.9375 11.5938 29.6484 11.8047 29.3672C12.5391 28.375 13.7109 27.3984 14.8828 26.8125C15.1406 26.6875 15.7031 26.4688 16.1328 26.3281C17.5234 25.875 18.1641 25.4453 18.7969 24.5625C19.2891 23.8672 19.5391 23.1797 19.5859 22.3359C19.6406 21.5234 19.5859 21.1797 19.3672 20.9531C19.1641 20.7266 18.6719 20.7188 18.4766 20.9375Z" fill="#503131"/>
<path d="M23.4531 23.7734C23.3438 23.8828 23.2812 24.0547 23.2812 24.2188C23.2812 24.4531 23.4219 24.625 24.6328 25.8438C25.9688 27.1953 26.25 27.4219 26.5625 27.4219C26.8125 27.4219 27.1094 27.0781 27.1094 26.7812C27.1094 26.5547 26.9453 26.3672 25.6406 25.0625C24.2891 23.7109 24.1562 23.5938 23.8984 23.5938C23.7109 23.5938 23.5703 23.6484 23.4531 23.7734Z" fill="#503131"/>
<path d="M19.8516 25.5938C19.6953 25.7891 19.6875 25.8984 19.6875 27.7734C19.6875 29.6484 19.6953 29.7578 19.8516 29.9531C19.9766 30.1094 20.0781 30.1562 20.3125 30.1562C20.5469 30.1562 20.6484 30.1094 20.7734 29.9531C20.9297 29.7578 20.9375 29.6484 20.9375 27.7734C20.9375 25.8984 20.9297 25.7891 20.7734 25.5938C20.6484 25.4375 20.5469 25.3906 20.3125 25.3906C20.0781 25.3906 19.9766 25.4375 19.8516 25.5938Z" fill="#503131"/>
<path d="M5.78906 32.1641C5.47656 32.4688 3.67188 35.6484 3.67188 35.8984C3.67188 36.1719 4 36.4844 4.28906 36.4844C4.42188 36.4844 4.60938 36.4062 4.71875 36.3047C5.01562 36.0391 6.79688 32.8906 6.79688 32.6328C6.79688 32.3672 6.42188 31.9531 6.17969 31.9531C6.09375 31.9531 5.91406 32.0469 5.78906 32.1641Z" fill="#503131"/>
</g>
<defs>
<clipPath id="clip0_420_3843">
<rect width="40" height="40" fill="white"/>
</clipPath>
</defs>
</svg>
