<svg width="40" height="41" viewBox="0 0 40 41" fill="none" xmlns="http://www.w3.org/2000/svg">
<path d="M17.2816 0.655849C17.141 0.788662 17.1097 0.905849 17.1097 1.31991C17.1097 2.17929 17.3832 2.84335 18.2894 4.22616C18.7347 4.90585 19.1566 5.63241 19.2347 5.84335C19.4144 6.3746 19.43 8.82772 19.2582 9.48397C18.8441 11.0308 17.5941 12.2574 16.016 12.6558C15.6488 12.7496 15.2972 12.773 14.7269 12.7418C13.3363 12.6793 12.5238 12.2418 11.1644 10.8433C10.2113 9.85116 10.0785 9.57772 9.7269 7.84335C9.40659 6.26522 9.11753 5.5621 8.54721 4.95272C8.11753 4.4996 7.80503 4.42929 7.51596 4.74179C7.25815 5.01522 7.29721 5.28085 7.64878 5.67929C8.10971 6.21835 8.27378 6.64022 8.55503 8.01522C8.70346 8.71835 8.81284 9.29647 8.80503 9.30429C8.79721 9.3121 8.21909 9.20272 7.51596 9.05429C6.14096 8.77304 5.71909 8.60897 5.18003 8.14804C4.77378 7.78866 4.48471 7.75741 4.23471 8.02304C3.94565 8.33554 4.00815 8.6246 4.45346 9.04647C5.06284 9.61679 5.76596 9.90585 7.34409 10.2262C8.09409 10.3824 8.89096 10.5933 9.11753 10.6949C9.39096 10.8199 9.80503 11.1402 10.3207 11.648C11.7425 13.023 12.18 13.8277 12.2425 15.2262C12.2894 16.1402 12.1722 16.7418 11.7738 17.5308C11.4144 18.2652 10.5863 19.0777 9.83628 19.4293C8.98471 19.8277 8.56284 19.9058 7.14878 19.9058C5.50815 19.9058 5.3519 19.859 3.82065 18.8433C2.42221 17.9137 1.69565 17.6168 0.844089 17.609C0.406589 17.609 0.297214 17.6402 0.156589 17.7808C-0.265286 18.234 0.148777 18.773 0.922214 18.7808C1.42221 18.7887 1.99253 19.0465 3.07846 19.7652C3.6644 20.148 4.14096 20.4762 4.14096 20.4996C4.14096 20.523 3.6644 20.8512 3.07846 21.234C1.99253 21.9527 1.42221 22.2105 0.922214 22.2183C0.148777 22.2262 -0.265286 22.7652 0.156589 23.2183C0.289402 23.359 0.406589 23.3902 0.820652 23.3902C1.68003 23.3902 2.34409 23.1168 3.7269 22.2105C4.40659 21.7652 5.13315 21.3433 5.34409 21.2652C5.87534 21.0855 8.32846 21.0699 8.98471 21.2418C10.4613 21.6324 11.6175 22.7496 12.0863 24.234C12.266 24.8121 12.2816 24.9684 12.2503 25.7184C12.18 27.1637 11.766 27.9527 10.3441 29.3355C9.3519 30.2887 9.07846 30.4215 7.34409 30.773C5.76596 31.0934 5.06284 31.3824 4.45346 31.9527C4.00034 32.3824 3.93003 32.6949 4.24253 32.984C4.51596 33.2418 4.78159 33.2027 5.18003 32.8512C5.71909 32.3902 6.14096 32.2262 7.51596 31.9449C8.21909 31.7965 8.79721 31.6871 8.80503 31.6949C8.81284 31.7027 8.70346 32.2809 8.55503 32.984C8.27378 34.359 8.10971 34.7809 7.64878 35.3199C7.2894 35.7262 7.25815 36.0152 7.52378 36.2652C7.83628 36.5543 8.12534 36.4918 8.54721 36.0465C9.11753 35.4371 9.40659 34.734 9.7269 33.1559C9.88315 32.4059 10.0941 31.609 10.1957 31.3824C10.3207 31.109 10.641 30.6949 11.1488 30.1793C12.5472 28.734 13.3285 28.3199 14.7816 28.2496C15.5316 28.2184 15.6878 28.234 16.266 28.4137C17.7503 28.8824 18.8675 30.0387 19.2582 31.5152C19.43 32.1715 19.4144 34.6246 19.2347 35.1559C19.1566 35.3668 18.7347 36.0934 18.2894 36.773C17.3832 38.1559 17.1097 38.8199 17.1097 39.6793C17.1097 40.0934 17.141 40.2105 17.2816 40.3434C17.4769 40.523 17.7894 40.5465 17.9925 40.3902C18.1488 40.273 18.2816 39.8824 18.2816 39.523C18.2894 39.0777 18.5707 38.4684 19.266 37.4215C19.6488 36.8355 19.9769 36.359 20.0003 36.359C20.0238 36.359 20.3519 36.8355 20.7347 37.4215C21.43 38.4684 21.7113 39.0777 21.7191 39.523C21.7191 39.8824 21.8519 40.273 22.0082 40.3902C22.2113 40.5465 22.5238 40.523 22.7191 40.3434C22.8597 40.2105 22.891 40.0934 22.891 39.6793C22.891 38.8199 22.6175 38.1559 21.7113 36.773C21.266 36.0934 20.8441 35.3668 20.766 35.1559C20.5863 34.6246 20.5707 32.1715 20.7425 31.5152C21.1332 30.0387 22.2503 28.8824 23.7347 28.4137C24.3128 28.234 24.4691 28.2184 25.2191 28.2496C26.6644 28.3199 27.4535 28.734 28.8363 30.1559C29.7894 31.148 29.9222 31.4215 30.2738 33.1559C30.5941 34.734 30.8832 35.4371 31.4535 36.0465C31.8832 36.4996 32.1957 36.5699 32.4847 36.2574C32.7425 35.984 32.7035 35.7184 32.3519 35.3199C31.891 34.7809 31.7269 34.359 31.4457 32.984C31.2972 32.2809 31.1878 31.7027 31.1957 31.6949C31.2035 31.6871 31.7816 31.7965 32.4847 31.9449C33.8597 32.2262 34.2816 32.3902 34.8207 32.8512C35.2269 33.2105 35.516 33.2418 35.766 32.9762C36.055 32.6637 35.9925 32.3746 35.5472 31.9527C34.9378 31.3824 34.2347 31.0934 32.6566 30.773C30.9222 30.4215 30.6488 30.2887 29.6566 29.3355C28.2347 27.9527 27.8207 27.1637 27.7503 25.7184C27.7191 24.9684 27.7347 24.8121 27.9144 24.234C28.3832 22.7496 29.5394 21.6324 31.016 21.2418C31.6253 21.0777 34.0394 21.0777 34.5941 21.2418C34.8363 21.3199 35.4769 21.6871 36.1878 22.1637C37.5785 23.0855 38.305 23.3824 39.1566 23.3902C39.5941 23.3902 39.7035 23.359 39.8441 23.2183C40.266 22.7652 39.8519 22.2262 39.0785 22.2183C38.5785 22.2105 38.0082 21.9527 36.9222 21.234C36.3363 20.8512 35.8597 20.523 35.8597 20.4996C35.8597 20.4762 36.3285 20.148 36.9066 19.773C38.0238 19.0387 38.5785 18.7808 39.055 18.7808C39.8441 18.7808 40.266 18.2418 39.8441 17.7808C39.7035 17.6402 39.5941 17.609 39.1566 17.609C38.305 17.6168 37.5785 17.9137 36.18 18.8433C34.6488 19.859 34.4925 19.9058 32.8519 19.9058C31.4457 19.9058 31.016 19.8277 30.1957 19.4449C29.1175 18.9293 28.2894 17.9605 27.9144 16.7652C27.7347 16.1871 27.7191 16.0308 27.7503 15.2808C27.8207 13.8277 28.2347 13.0465 29.68 11.648C30.1957 11.1402 30.6097 10.8199 30.8832 10.6949C31.1097 10.5933 31.9066 10.3824 32.6566 10.2262C34.2347 9.90585 34.9378 9.61679 35.5472 9.04647C36.0003 8.61679 36.0707 8.30429 35.7582 8.01522C35.4847 7.75741 35.2191 7.79647 34.8207 8.14804C34.2816 8.60897 33.8597 8.77304 32.4847 9.05429C31.7816 9.20272 31.2035 9.3121 31.1957 9.30429C31.1878 9.29647 31.2972 8.71835 31.4457 8.01522C31.7269 6.64022 31.891 6.21835 32.3519 5.67929C32.7113 5.27304 32.7425 4.98397 32.4769 4.73397C32.1644 4.44491 31.8753 4.50741 31.4535 4.95272C30.8832 5.5621 30.5941 6.26522 30.2738 7.84335C29.9222 9.57772 29.7894 9.85116 28.8363 10.8433C27.4535 12.2652 26.6644 12.6793 25.2191 12.7496C24.4691 12.7808 24.3128 12.7652 23.7347 12.5855C22.2503 12.1168 21.1332 10.9605 20.7425 9.48397C20.5707 8.82772 20.5863 6.3746 20.766 5.84335C20.8441 5.63241 21.266 4.90585 21.7113 4.22616C22.6175 2.84335 22.891 2.17929 22.891 1.31991C22.891 0.905849 22.8597 0.788662 22.7191 0.655849C22.5238 0.476162 22.2113 0.452724 22.0082 0.608974C21.8519 0.726162 21.7191 1.11679 21.7191 1.47616C21.7113 1.92147 21.43 2.53085 20.7347 3.57772C20.3519 4.16366 20.0238 4.64022 20.0003 4.64022C19.9769 4.64022 19.6488 4.16366 19.266 3.57772C18.5707 2.53085 18.2894 1.92147 18.2816 1.47616C18.2816 1.11679 18.1488 0.726162 17.9925 0.608974C17.7894 0.452724 17.4769 0.476162 17.2816 0.655849ZM20.2347 11.2574C20.3363 11.4683 20.7269 11.9371 21.0941 12.3043C21.6566 12.8746 21.8832 13.0387 22.5003 13.3355C22.9066 13.5387 23.4691 13.7496 23.7503 13.8121C24.4066 13.9683 25.6957 13.9683 26.2816 13.8199C26.5394 13.7496 26.7582 13.7105 26.7738 13.7262C26.7894 13.7418 26.7503 13.9605 26.68 14.2183C26.5316 14.7965 26.5316 15.9918 26.68 16.7105C26.7425 17.0074 26.9613 17.5933 27.1566 17.9996C27.4613 18.6168 27.641 18.8512 28.1957 19.4058C28.5628 19.773 29.0316 20.1637 29.2425 20.2652C29.4457 20.3746 29.6097 20.4762 29.6097 20.4996C29.6097 20.523 29.4457 20.6246 29.2425 20.734C29.0316 20.8355 28.5707 21.2262 28.2035 21.5933C27.43 22.359 26.9691 23.1558 26.7191 24.1402C26.5238 24.8824 26.5082 26.1246 26.68 26.7809C26.7503 27.0387 26.7894 27.2574 26.7738 27.273C26.7582 27.2887 26.5394 27.2496 26.2816 27.1793C25.6957 27.0309 24.4066 27.0309 23.7503 27.1871C23.4691 27.2496 22.9066 27.4605 22.5003 27.6637C21.8832 27.9605 21.6566 28.1246 21.0941 28.6949C20.7269 29.0621 20.3363 29.5309 20.2347 29.734C20.1253 29.9449 20.0238 30.109 20.0003 30.109C19.9769 30.109 19.8753 29.9449 19.766 29.734C19.6644 29.5309 19.2738 29.0699 18.9066 28.7027C18.141 27.9293 17.3441 27.4684 16.3597 27.2184C15.6175 27.023 14.3753 27.0074 13.7191 27.1793C13.4613 27.2496 13.2425 27.2887 13.2269 27.273C13.2113 27.2574 13.2503 27.0387 13.3207 26.7809C13.4691 26.2027 13.4691 25.0074 13.3207 24.2887C13.2582 23.984 13.0394 23.4058 12.8441 22.9996C12.5394 22.3824 12.3597 22.148 11.805 21.5933C11.4378 21.2262 10.9691 20.8355 10.766 20.734C10.555 20.6246 10.391 20.523 10.391 20.4996C10.391 20.4762 10.555 20.3746 10.766 20.2652C10.9691 20.1637 11.4378 19.773 11.805 19.4058C12.9144 18.3043 13.43 17.0387 13.4378 15.4215C13.4378 14.9996 13.3832 14.4762 13.3207 14.2183C13.2503 13.9605 13.2113 13.7418 13.2269 13.7262C13.2425 13.7105 13.4613 13.7496 13.7191 13.8199C14.3753 13.9918 15.6175 13.9762 16.3597 13.7808C17.3441 13.5308 18.141 13.0699 18.9066 12.2965C19.2738 11.9293 19.6644 11.4683 19.766 11.2574C19.8753 11.0543 19.9769 10.8902 20.0003 10.8902C20.0238 10.8902 20.1253 11.0543 20.2347 11.2574Z" fill="#503131"/>
<path d="M18.9994 14.7271C18.2103 14.8599 17.2025 15.2739 16.7807 15.6411C16.5853 15.8052 16.601 16.2427 16.7963 16.438C17.015 16.6568 17.2728 16.6333 17.8197 16.3521C18.8744 15.8286 20.0385 15.688 21.1244 15.9693C22.0072 16.1958 22.6088 16.5396 23.2807 17.2193C23.9603 17.8911 24.3041 18.4927 24.5307 19.3755C24.8119 20.4771 24.6635 21.6802 24.1244 22.7114C23.7807 23.3521 22.8353 24.2974 22.2103 24.6255C21.1713 25.1724 19.976 25.313 18.8744 25.0318C17.9916 24.8052 17.39 24.4614 16.7182 23.7818C16.0385 23.1099 15.6947 22.5083 15.4682 21.6255C15.1869 20.5396 15.3275 19.3755 15.851 18.3208C15.9838 18.063 16.0932 17.7583 16.0932 17.6489C16.0932 17.1568 15.3978 16.9536 15.0775 17.3521C14.5932 17.9693 14.2416 19.0708 14.1635 20.188C13.9838 23.0396 15.9994 25.6489 18.8432 26.2349C20.765 26.6333 22.7416 26.0318 24.1322 24.6177C25.2103 23.5239 25.7338 22.3599 25.8353 20.813C25.9916 18.3833 24.515 16.0552 22.2182 15.0864C21.2807 14.688 20.0463 14.5552 18.9994 14.7271Z" fill="#503131"/>
<path d="M19.1797 17.0928C18.5234 17.2568 18.0312 17.5381 17.5391 18.0381C16.1484 19.4209 16.1484 21.5771 17.5391 22.9599C19.5547 24.9834 22.9688 23.8818 23.4531 21.0537C23.6406 19.9521 23.2812 18.8584 22.4609 18.0303C21.5859 17.1474 20.3594 16.7959 19.1797 17.0928ZM21.0469 18.4209C21.8672 18.8193 22.3047 19.5459 22.3047 20.499C22.3047 21.1631 22.1406 21.6084 21.7266 22.0849C21.0859 22.8037 19.875 23.0303 18.9688 22.5849C17.7188 21.9678 17.2891 20.4131 18.0469 19.2256C18.6719 18.2412 19.9688 17.8974 21.0469 18.4209Z" fill="#503131"/>
</svg>
