<svg width="18" height="22" viewBox="0 0 18 22" fill="none" xmlns="http://www.w3.org/2000/svg">
<g clip-path="url(#clip0_2483_1517)">
<path d="M4.96289 16.2971C5.7092 17.108 6.38844 17.9621 6.9957 18.8533C7.51418 19.6915 7.73032 20.2598 8.10923 21.2697C8.34162 21.8277 8.55164 21.9942 9.00319 21.9942C9.49523 21.9942 9.71848 21.7109 9.89095 21.2728C10.2491 20.3191 10.5302 19.5912 10.9736 18.9034C11.8436 17.5757 12.9247 16.3957 13.987 15.2618C14.2746 14.9408 16.1339 13.071 16.971 11.5957C16.971 11.5957 17.9998 9.9751 17.9998 7.71174C17.9998 5.59459 16.9852 4.12622 16.9852 4.12622L14.0641 4.79317L12.2901 8.77661L11.8512 9.32589L11.7634 9.4254L11.6467 9.54997L11.4418 9.74893L11.1491 9.99848L9.56934 11.0957L5.61989 13.0399L4.96289 16.2971Z" fill="#EA4335"/>
<path d="M0.886719 11.3232C1.85063 13.2003 3.70941 14.8504 4.96702 16.2984L11.6468 9.55252C11.6468 9.55252 10.7057 10.6018 8.99867 10.6018C7.09721 10.6018 5.56109 9.30728 5.56109 7.67496C5.56109 6.5556 6.35098 5.78662 6.35098 5.78662L1.8166 6.82248L0.886719 11.3232Z" fill="#EA4335"/>
<path d="M11.7214 0.346862C13.9399 0.956687 15.8387 2.23694 16.9873 4.12481L11.6488 9.54856C11.6488 9.54856 12.4387 8.76567 12.4387 7.65326C12.4387 5.98294 10.789 4.73511 9.00676 4.73511C7.32144 4.73511 6.35352 5.78266 6.35352 5.78266V2.36577L11.7214 0.346802V0.346862Z" fill="#EA4335"/>
<path d="M2.11035 2.74341C3.43539 1.39181 5.76695 0 8.98136 0C10.5409 0 11.7158 0.349063 11.7158 0.349063L6.34844 5.7857H2.54559L2.11035 2.74341Z" fill="#EA4335"/>
<path d="M0.886781 11.3232C0.886781 11.3232 0 9.84269 0 7.69784C0 5.67067 0.924328 3.89868 2.11043 2.74341L6.35154 5.78618L0.886781 11.3232Z" fill="#EA4335"/>
</g>
<defs>
<clipPath id="clip0_2483_1517">
<rect width="18" height="22" fill="white"/>
</clipPath>
</defs>
</svg>
