<svg width="248" height="152" viewBox="0 0 248 152" fill="none" xmlns="http://www.w3.org/2000/svg">
<g filter="url(#filter0_d_2808_2889)">
<path d="M230 75.5163C218.322 91.025 182.465 122.232 132.469 122.992C134.6 120.198 137.462 116.926 140.991 113.429C141.648 111.826 142.364 110.266 143.132 108.749L128.681 119.194C129.126 114.591 130.237 108.543 132.205 101.637L128.221 106.85C126.827 111.433 125.341 115.281 123.947 118.244C122.164 114.668 120.592 111.106 119.212 107.57L115.037 103.052C116.58 108.5 117.692 114.202 118.265 120.143C116.75 119.384 107.863 112.509 103.609 109.167C104.229 110.268 104.821 111.394 105.384 112.547C108.581 115.756 111.628 119.231 114.478 122.992C95.2242 123.308 48.5735 114.446 16 76.4658C25.5456 76.3208 40.9761 78.103 57.6637 83.7308C54.5074 79.7266 48.1947 71.3384 48.1947 69.8192C55.8736 71.4387 68.9958 76.1887 81.3405 85.0114C63.1633 59.9443 57.3509 38.4853 56.7168 30.8893C66.8179 36.3829 82.7322 48.3204 95.9068 65.6107C92.9443 61.2523 92.5261 47.1182 92.6991 40.3844C96.5113 43.8659 105.454 53.2977 110.727 63.1726C110.6 39.1742 117.424 19.6919 123 10C130.407 27.4263 133.493 44.6825 134.04 60.3241C137.828 51.9684 144.779 44.1824 147.619 41.3339C148.377 48.93 147.768 61.5901 147.369 66.9707C156.14 52.5239 168.495 38.1403 185.496 27.0912C183.223 45.3218 172.555 70.5236 167.504 80.8457C175.86 74.672 184.024 70.7023 189.283 68.8697L179.814 86.5251C194.304 79.8297 211.277 75.223 230 75.5163Z" fill="url(#paint0_radial_2808_2889)"/>
<path d="M179.814 86.5251C194.304 79.8297 211.277 75.223 230 75.5163C218.322 91.025 182.465 122.232 132.469 122.992C134.6 120.198 137.462 116.926 140.991 113.429M179.814 86.5251L189.283 68.8697C184.024 70.7023 175.86 74.672 167.504 80.8457M179.814 86.5251C163.279 94.1656 149.976 104.526 140.991 113.429M140.991 113.429C141.648 111.826 142.364 110.266 143.132 108.749M167.504 80.8457C172.555 70.5236 183.223 45.3218 185.496 27.0912C168.495 38.1403 156.14 52.5239 147.369 66.9707M167.504 80.8457C158.454 87.5328 149.18 96.8056 143.132 108.749M143.132 108.749L128.681 119.194C129.126 114.591 130.237 108.543 132.205 101.637M147.369 66.9707C147.768 61.5901 148.377 48.93 147.619 41.3339C144.779 44.1824 137.828 51.9684 134.04 60.3241M147.369 66.9707C139.985 79.132 135.141 91.338 132.205 101.637M110.727 63.1726C110.6 39.1742 117.424 19.6919 123 10C139.217 48.1513 134.72 85.4873 128.221 106.85M110.727 63.1726C105.454 53.2977 96.5113 43.8659 92.6991 40.3844C92.5202 47.3475 92.9735 62.2231 96.2183 66.0212M110.727 63.1726C110.799 76.8326 113.124 91.9558 119.212 107.57M57.6637 83.7308C40.9761 78.103 25.5456 76.3208 16 76.4658C48.5735 114.446 95.2242 123.308 114.478 122.992C111.628 119.231 108.581 115.756 105.384 112.547M57.6637 83.7308C54.5074 79.7266 48.1947 71.3384 48.1947 69.8192C55.8736 71.4387 68.9958 76.1887 81.3405 85.0114M57.6637 83.7308C73.7885 89.1687 91.0869 98.1973 105.384 112.547M105.384 112.547C104.821 111.394 104.229 110.268 103.609 109.167M81.3405 85.0114C63.1633 59.9443 57.3509 38.4853 56.7168 30.8893C66.8976 36.4263 82.9838 48.5092 96.2183 66.0212M81.3405 85.0114C89.7936 91.0528 97.8821 99.0039 103.609 109.167M103.609 109.167C107.863 112.509 116.75 119.384 118.265 120.143C117.692 114.202 116.58 108.5 115.037 103.052M115.037 103.052L119.212 107.57M115.037 103.052C111.037 88.924 104.138 76.5005 96.2183 66.0212M119.212 107.57C120.592 111.106 122.164 114.668 123.947 118.244C125.341 115.281 126.827 111.433 128.221 106.85M128.221 106.85L132.205 101.637" stroke="#0A0A0A" stroke-width="0.1"/>
</g>
<g filter="url(#filter1_d_2808_2889)">
<path d="M9 127.271V126.294C67.4132 125.318 194.792 123.95 237 126.294V128.247C188.636 130.526 75.3273 133.521 9 127.271Z" fill="url(#paint1_radial_2808_2889)"/>
</g>
<path d="M64.3 148.15C63.24 148.15 62.28 147.92 61.42 147.46C60.57 146.99 59.9 146.345 59.41 145.525C58.93 144.705 58.69 143.78 58.69 142.75C58.69 141.72 58.935 140.795 59.425 139.975C59.915 139.155 60.585 138.515 61.435 138.055C62.295 137.585 63.255 137.35 64.315 137.35C65.175 137.35 65.96 137.5 66.67 137.8C67.38 138.1 67.98 138.535 68.47 139.105L67.21 140.29C66.45 139.47 65.515 139.06 64.405 139.06C63.685 139.06 63.04 139.22 62.47 139.54C61.9 139.85 61.455 140.285 61.135 140.845C60.815 141.405 60.655 142.04 60.655 142.75C60.655 143.46 60.815 144.095 61.135 144.655C61.455 145.215 61.9 145.655 62.47 145.975C63.04 146.285 63.685 146.44 64.405 146.44C65.515 146.44 66.45 146.025 67.21 145.195L68.47 146.395C67.98 146.965 67.375 147.4 66.655 147.7C65.945 148 65.16 148.15 64.3 148.15ZM77.7955 140.11C76.8055 139.55 75.7755 139.21 74.7055 139.09V148H72.7555V139.09C71.6755 139.21 70.6405 139.55 69.6505 140.11L68.9755 138.61C69.6755 138.19 70.4255 137.875 71.2255 137.665C72.0355 137.455 72.8655 137.35 73.7155 137.35C74.5655 137.35 75.3955 137.455 76.2055 137.665C77.0155 137.875 77.7705 138.19 78.4705 138.61L77.7955 140.11ZM89.1096 137.5V144.79C89.1096 146.34 88.6846 147.53 87.8346 148.36C86.9946 149.19 85.8296 149.605 84.3396 149.605C83.4596 149.605 82.6596 149.475 81.9396 149.215C81.2196 148.965 80.6096 148.605 80.1096 148.135L80.9046 146.635C81.8346 147.475 82.9696 147.895 84.3096 147.895C86.2096 147.895 87.1596 146.89 87.1596 144.88V144.085C86.4496 144.985 85.4196 145.435 84.0696 145.435C82.7396 145.435 81.7096 145.055 80.9796 144.295C80.2496 143.535 79.8846 142.445 79.8846 141.025V137.5H81.8346V140.935C81.8346 141.855 82.0546 142.555 82.4946 143.035C82.9446 143.505 83.5696 143.74 84.3696 143.74C85.2196 143.74 85.8946 143.49 86.3946 142.99C86.9046 142.48 87.1596 141.73 87.1596 140.74V137.5H89.1096ZM102.643 146.35V150.235H100.843V148H92.5634L92.5484 150.235H90.7484L90.7634 146.35H92.0384V142.045C92.0384 141.045 92.2284 140.195 92.6084 139.495C92.9984 138.795 93.5434 138.265 94.2434 137.905C94.9434 137.535 95.7584 137.35 96.6884 137.35C97.6284 137.35 98.4484 137.53 99.1484 137.89C99.8484 138.25 100.388 138.785 100.768 139.495C101.158 140.195 101.353 141.045 101.353 142.045V146.35H102.643ZM99.4034 146.35V141.865C99.4034 140.945 99.1634 140.25 98.6834 139.78C98.2034 139.3 97.5384 139.06 96.6884 139.06C95.8384 139.06 95.1734 139.3 94.6934 139.78C94.2234 140.25 93.9884 140.945 93.9884 141.865V146.35H99.4034ZM113.514 137.5V148H111.639V146.665C110.929 147.655 109.829 148.15 108.339 148.15C107.099 148.15 106.124 147.765 105.414 146.995C104.704 146.215 104.349 145.115 104.349 143.695V137.5H106.299V143.62C106.299 144.55 106.519 145.255 106.959 145.735C107.409 146.205 108.024 146.44 108.804 146.44C109.644 146.44 110.314 146.19 110.814 145.69C111.314 145.18 111.564 144.425 111.564 143.425V137.5H113.514ZM124.419 137.5V148H122.499V145.075H119.904H119.694L117.744 148H115.689L117.939 144.76C117.209 144.49 116.644 144.065 116.244 143.485C115.854 142.895 115.659 142.185 115.659 141.355C115.659 140.555 115.839 139.865 116.199 139.285C116.559 138.705 117.069 138.265 117.729 137.965C118.389 137.655 119.164 137.5 120.054 137.5H124.419ZM120.114 139.15C119.314 139.15 118.699 139.335 118.269 139.705C117.849 140.075 117.639 140.615 117.639 141.325C117.639 142.015 117.844 142.55 118.254 142.93C118.664 143.3 119.259 143.485 120.039 143.485H122.499V139.15H120.114ZM136.251 137.35C137.161 137.35 137.956 137.535 138.636 137.905C139.316 138.265 139.841 138.795 140.211 139.495C140.591 140.195 140.781 141.045 140.781 142.045V148H138.816V141.865C138.816 140.945 138.586 140.25 138.126 139.78C137.676 139.3 137.051 139.06 136.251 139.06C135.441 139.06 134.806 139.3 134.346 139.78C133.886 140.25 133.656 140.945 133.656 141.865V148H130.476L130.461 146.35H131.706V142.045C131.706 141.045 131.891 140.195 132.261 139.495C132.641 138.785 133.171 138.25 133.851 137.89C134.541 137.53 135.341 137.35 136.251 137.35ZM148.309 148.15C147.239 148.15 146.274 147.92 145.414 147.46C144.554 146.99 143.879 146.345 143.389 145.525C142.899 144.695 142.654 143.77 142.654 142.75C142.654 141.73 142.899 140.81 143.389 139.99C143.879 139.16 144.554 138.515 145.414 138.055C146.274 137.585 147.239 137.35 148.309 137.35C149.379 137.35 150.344 137.585 151.204 138.055C152.064 138.515 152.739 139.155 153.229 139.975C153.719 140.795 153.964 141.72 153.964 142.75C153.964 143.78 153.719 144.705 153.229 145.525C152.739 146.345 152.064 146.99 151.204 147.46C150.344 147.92 149.379 148.15 148.309 148.15ZM148.309 146.44C149.009 146.44 149.639 146.285 150.199 145.975C150.759 145.655 151.199 145.215 151.519 144.655C151.839 144.085 151.999 143.45 151.999 142.75C151.999 142.05 151.839 141.42 151.519 140.86C151.199 140.29 150.759 139.85 150.199 139.54C149.639 139.22 149.009 139.06 148.309 139.06C147.609 139.06 146.979 139.22 146.419 139.54C145.859 139.85 145.419 140.29 145.099 140.86C144.779 141.42 144.619 142.05 144.619 142.75C144.619 143.45 144.779 144.085 145.099 144.655C145.419 145.215 145.859 145.655 146.419 145.975C146.979 146.285 147.609 146.44 148.309 146.44ZM163.489 140.11C162.499 139.55 161.469 139.21 160.399 139.09V148H158.449V139.09C157.369 139.21 156.334 139.55 155.344 140.11L154.669 138.61C155.369 138.19 156.119 137.875 156.919 137.665C157.729 137.455 158.559 137.35 159.409 137.35C160.259 137.35 161.089 137.455 161.899 137.665C162.709 137.875 163.464 138.19 164.164 138.61L163.489 140.11ZM170.517 148.15C169.447 148.15 168.482 147.92 167.622 147.46C166.762 146.99 166.087 146.345 165.597 145.525C165.107 144.695 164.862 143.77 164.862 142.75C164.862 141.73 165.107 140.81 165.597 139.99C166.087 139.16 166.762 138.515 167.622 138.055C168.482 137.585 169.447 137.35 170.517 137.35C171.587 137.35 172.552 137.585 173.412 138.055C174.272 138.515 174.947 139.155 175.437 139.975C175.927 140.795 176.172 141.72 176.172 142.75C176.172 143.78 175.927 144.705 175.437 145.525C174.947 146.345 174.272 146.99 173.412 147.46C172.552 147.92 171.587 148.15 170.517 148.15ZM170.517 146.44C171.217 146.44 171.847 146.285 172.407 145.975C172.967 145.655 173.407 145.215 173.727 144.655C174.047 144.085 174.207 143.45 174.207 142.75C174.207 142.05 174.047 141.42 173.727 140.86C173.407 140.29 172.967 139.85 172.407 139.54C171.847 139.22 171.217 139.06 170.517 139.06C169.817 139.06 169.187 139.22 168.627 139.54C168.067 139.85 167.627 140.29 167.307 140.86C166.987 141.42 166.827 142.05 166.827 142.75C166.827 143.45 166.987 144.085 167.307 144.655C167.627 145.215 168.067 145.655 168.627 145.975C169.187 146.285 169.817 146.44 170.517 146.44ZM183.157 148.15C182.097 148.15 181.137 147.92 180.277 147.46C179.427 146.99 178.757 146.345 178.267 145.525C177.787 144.705 177.547 143.78 177.547 142.75C177.547 141.72 177.792 140.795 178.282 139.975C178.772 139.155 179.442 138.515 180.292 138.055C181.152 137.585 182.112 137.35 183.172 137.35C184.032 137.35 184.817 137.5 185.527 137.8C186.237 138.1 186.837 138.535 187.327 139.105L186.067 140.29C185.307 139.47 184.372 139.06 183.262 139.06C182.542 139.06 181.897 139.22 181.327 139.54C180.757 139.85 180.312 140.285 179.992 140.845C179.672 141.405 179.512 142.04 179.512 142.75C179.512 143.46 179.672 144.095 179.992 144.655C180.312 145.215 180.757 145.655 181.327 145.975C181.897 146.285 182.542 146.44 183.262 146.44C184.372 146.44 185.307 146.025 186.067 145.195L187.327 146.395C186.837 146.965 186.232 147.4 185.512 147.7C184.802 148 184.017 148.15 183.157 148.15Z" fill="#D8A59E"/>
<defs>
<filter id="filter0_d_2808_2889" x="6.89258" y="0.888184" width="234.206" height="133.162" filterUnits="userSpaceOnUse" color-interpolation-filters="sRGB">
<feFlood flood-opacity="0" result="BackgroundImageFix"/>
<feColorMatrix in="SourceAlpha" type="matrix" values="0 0 0 0 0 0 0 0 0 0 0 0 0 0 0 0 0 0 127 0" result="hardAlpha"/>
<feOffset dx="1" dy="1"/>
<feGaussianBlur stdDeviation="5"/>
<feComposite in2="hardAlpha" operator="out"/>
<feColorMatrix type="matrix" values="0 0 0 0 0 0 0 0 0 0 0 0 0 0 0 0 0 0 0.3 0"/>
<feBlend mode="normal" in2="BackgroundImageFix" result="effect1_dropShadow_2808_2889"/>
<feBlend mode="normal" in="SourceGraphic" in2="effect1_dropShadow_2808_2889" result="shape"/>
</filter>
<filter id="filter1_d_2808_2889" x="0" y="116" width="248" height="26" filterUnits="userSpaceOnUse" color-interpolation-filters="sRGB">
<feFlood flood-opacity="0" result="BackgroundImageFix"/>
<feColorMatrix in="SourceAlpha" type="matrix" values="0 0 0 0 0 0 0 0 0 0 0 0 0 0 0 0 0 0 127 0" result="hardAlpha"/>
<feOffset dx="1" dy="1"/>
<feGaussianBlur stdDeviation="5"/>
<feComposite in2="hardAlpha" operator="out"/>
<feColorMatrix type="matrix" values="0 0 0 0 0 0 0 0 0 0 0 0 0 0 0 0 0 0 0.3 0"/>
<feBlend mode="normal" in2="BackgroundImageFix" result="effect1_dropShadow_2808_2889"/>
<feBlend mode="normal" in="SourceGraphic" in2="effect1_dropShadow_2808_2889" result="shape"/>
</filter>
<radialGradient id="paint0_radial_2808_2889" cx="0" cy="0" r="1" gradientUnits="userSpaceOnUse" gradientTransform="translate(123 115.396) rotate(90) scale(67.4153 124.368)">
<stop offset="0.325" stop-color="#E2ACA5"/>
<stop offset="0.555" stop-color="#FCE4DF"/>
<stop offset="0.99" stop-color="#CD8E8D"/>
</radialGradient>
<radialGradient id="paint1_radial_2808_2889" cx="0" cy="0" r="1" gradientUnits="userSpaceOnUse" gradientTransform="translate(124.206 98.7684) rotate(90) scale(69.3351 123.744)">
<stop offset="0.325" stop-color="#E2ACA5"/>
<stop offset="0.625" stop-color="#FCE4DF"/>
<stop offset="0.99" stop-color="#CD8E8D"/>
</radialGradient>
</defs>
</svg>
