<svg width="168" height="114" viewBox="0 0 168 114" fill="none" xmlns="http://www.w3.org/2000/svg">
<path d="M162.5 49.1226C153.932 60.514 127.627 83.4361 90.9469 83.9941C92.5101 81.9418 94.6102 79.5386 97.1991 76.9702C97.6811 75.7926 98.2064 74.6468 98.77 73.5326L88.1681 81.2043C88.494 77.8234 89.3092 73.3809 90.7534 68.3088L87.8307 72.1377C86.8078 75.5041 85.7173 78.3305 84.6947 80.5069C83.3866 77.8804 82.2331 75.264 81.2212 72.6662L78.1582 69.348C79.2901 73.3498 80.1059 77.5377 80.5266 81.9017C79.415 81.3438 72.8949 76.2945 69.7737 73.8396C70.2287 74.648 70.6634 75.4755 71.0758 76.3223C73.4214 78.6794 75.6568 81.2319 77.7478 83.9941C63.6224 84.2265 29.3973 77.7172 5.5 49.82C12.5031 49.7135 23.8236 51.0225 36.0664 55.1562C33.7507 52.2151 29.1195 46.0539 29.1195 44.938C34.753 46.1276 44.3801 49.6165 53.4367 56.0969C40.1012 37.6848 35.8369 21.9229 35.3717 16.3434C42.7823 20.3786 54.4577 29.1468 64.1232 41.8468C61.9498 38.6454 61.643 28.2638 61.7699 23.3177C64.5667 25.875 71.1274 32.8028 74.996 40.056C74.9028 22.4288 79.9091 8.11884 84 1C89.4343 13.7999 91.6981 26.4748 92.0996 37.9637C94.8784 31.8264 99.9779 26.1074 102.062 24.0152C102.618 29.5946 102.171 38.8936 101.878 42.8457C108.313 32.2344 117.377 21.6694 129.85 13.5537C128.182 26.9444 120.355 45.4554 116.65 53.0371C122.78 48.5024 128.77 45.5866 132.628 44.2406L125.681 57.2087C136.312 52.2908 148.764 48.9071 162.5 49.1226Z" fill="url(#paint0_radial_3113_202)"/>
<path d="M125.681 57.2087C136.312 52.2908 148.764 48.9071 162.5 49.1226C153.932 60.514 127.627 83.4361 90.9469 83.9941C92.5101 81.9418 94.6102 79.5386 97.1991 76.9702M125.681 57.2087L132.628 44.2406C128.77 45.5866 122.78 48.5024 116.65 53.0371M125.681 57.2087C113.55 62.8208 103.791 70.4308 97.1991 76.9702M97.1991 76.9702C97.6811 75.7926 98.2064 74.6468 98.77 73.5326M116.65 53.0371C120.355 45.4554 128.182 26.9444 129.85 13.5537C117.377 21.6694 108.313 32.2344 101.878 42.8457M116.65 53.0371C110.011 57.9488 103.207 64.7599 98.77 73.5326M98.77 73.5326L88.1681 81.2043C88.494 77.8234 89.3092 73.3809 90.7534 68.3088M101.878 42.8457C102.171 38.8936 102.618 29.5946 102.062 24.0152C99.9779 26.1074 94.8784 31.8264 92.0996 37.9637M101.878 42.8457C96.4609 51.7784 92.9074 60.7439 90.7534 68.3088M74.996 40.056C74.9028 22.4288 79.9091 8.11884 84 1C95.8972 29.0227 92.5985 56.4464 87.8307 72.1377M74.996 40.056C71.1274 32.8028 64.5667 25.875 61.7699 23.3177C61.6386 28.4322 61.9712 39.3586 64.3517 42.1483M74.996 40.056C75.0491 50.0895 76.7544 61.1976 81.2212 72.6662M36.0664 55.1562C23.8236 51.0225 12.5031 49.7135 5.5 49.82C29.3973 77.7172 63.6224 84.2265 77.7478 83.9941C75.6568 81.2319 73.4214 78.6794 71.0758 76.3223M36.0664 55.1562C33.7507 52.2151 29.1195 46.0539 29.1195 44.938C34.753 46.1276 44.3801 49.6165 53.4367 56.0969M36.0664 55.1562C47.8962 59.1505 60.5871 65.7821 71.0758 76.3223M71.0758 76.3223C70.6634 75.4755 70.2287 74.648 69.7737 73.8396M53.4367 56.0969C40.1012 37.6848 35.8369 21.9229 35.3717 16.3434C42.8408 20.4104 54.6423 29.2855 64.3517 42.1483M53.4367 56.0969C59.6383 60.5344 65.5724 66.3745 69.7737 73.8396M69.7737 73.8396C72.8949 76.2945 79.415 81.3438 80.5266 81.9018C80.1059 77.5377 79.2901 73.3498 78.1582 69.348M78.1582 69.348L81.2212 72.6662M78.1582 69.348C75.2231 58.9707 70.162 49.8455 64.3517 42.1483M81.2212 72.6662C82.2331 75.264 83.3866 77.8804 84.6947 80.5069C85.7173 78.3305 86.8078 75.5041 87.8307 72.1377M87.8307 72.1377L90.7534 68.3088" stroke="black" stroke-width="0.1"/>
<path d="M0.5 86.8922V86.0784C43.2851 85.2646 136.584 84.1253 167.5 86.0784V87.706C132.076 89.6048 49.0818 92.1004 0.5 86.8922Z" fill="url(#paint1_radial_3113_202)"/>
<path d="M25.3 110.15C24.24 110.15 23.28 109.92 22.42 109.46C21.57 108.99 20.9 108.345 20.41 107.525C19.93 106.705 19.69 105.78 19.69 104.75C19.69 103.72 19.935 102.795 20.425 101.975C20.915 101.155 21.585 100.515 22.435 100.055C23.295 99.585 24.255 99.35 25.315 99.35C26.175 99.35 26.96 99.5 27.67 99.8C28.38 100.1 28.98 100.535 29.47 101.105L28.21 102.29C27.45 101.47 26.515 101.06 25.405 101.06C24.685 101.06 24.04 101.22 23.47 101.54C22.9 101.85 22.455 102.285 22.135 102.845C21.815 103.405 21.655 104.04 21.655 104.75C21.655 105.46 21.815 106.095 22.135 106.655C22.455 107.215 22.9 107.655 23.47 107.975C24.04 108.285 24.685 108.44 25.405 108.44C26.515 108.44 27.45 108.025 28.21 107.195L29.47 108.395C28.98 108.965 28.375 109.4 27.655 109.7C26.945 110 26.16 110.15 25.3 110.15ZM38.7955 102.11C37.8055 101.55 36.7755 101.21 35.7055 101.09V110H33.7555V101.09C32.6755 101.21 31.6405 101.55 30.6505 102.11L29.9755 100.61C30.6755 100.19 31.4255 99.875 32.2255 99.665C33.0355 99.455 33.8655 99.35 34.7155 99.35C35.5655 99.35 36.3955 99.455 37.2055 99.665C38.0155 99.875 38.7705 100.19 39.4705 100.61L38.7955 102.11ZM50.1096 99.5V106.79C50.1096 108.34 49.6846 109.53 48.8346 110.36C47.9946 111.19 46.8296 111.605 45.3396 111.605C44.4596 111.605 43.6596 111.475 42.9396 111.215C42.2196 110.965 41.6096 110.605 41.1096 110.135L41.9046 108.635C42.8346 109.475 43.9696 109.895 45.3096 109.895C47.2096 109.895 48.1596 108.89 48.1596 106.88V106.085C47.4496 106.985 46.4196 107.435 45.0696 107.435C43.7396 107.435 42.7096 107.055 41.9796 106.295C41.2496 105.535 40.8846 104.445 40.8846 103.025V99.5H42.8346V102.935C42.8346 103.855 43.0546 104.555 43.4946 105.035C43.9446 105.505 44.5696 105.74 45.3696 105.74C46.2196 105.74 46.8946 105.49 47.3946 104.99C47.9046 104.48 48.1596 103.73 48.1596 102.74V99.5H50.1096ZM63.6434 108.35V112.235H61.8434V110H53.5634L53.5484 112.235H51.7484L51.7634 108.35H53.0384V104.045C53.0384 103.045 53.2284 102.195 53.6084 101.495C53.9984 100.795 54.5434 100.265 55.2434 99.905C55.9434 99.535 56.7584 99.35 57.6884 99.35C58.6284 99.35 59.4484 99.53 60.1484 99.89C60.8484 100.25 61.3884 100.785 61.7684 101.495C62.1584 102.195 62.3534 103.045 62.3534 104.045V108.35H63.6434ZM60.4034 108.35V103.865C60.4034 102.945 60.1634 102.25 59.6834 101.78C59.2034 101.3 58.5384 101.06 57.6884 101.06C56.8384 101.06 56.1734 101.3 55.6934 101.78C55.2234 102.25 54.9884 102.945 54.9884 103.865V108.35H60.4034ZM74.5143 99.5V110H72.6393V108.665C71.9293 109.655 70.8293 110.15 69.3393 110.15C68.0993 110.15 67.1243 109.765 66.4143 108.995C65.7043 108.215 65.3493 107.115 65.3493 105.695V99.5H67.2993V105.62C67.2993 106.55 67.5193 107.255 67.9593 107.735C68.4093 108.205 69.0243 108.44 69.8043 108.44C70.6443 108.44 71.3143 108.19 71.8143 107.69C72.3143 107.18 72.5643 106.425 72.5643 105.425V99.5H74.5143ZM85.4188 99.5V110H83.4988V107.075H80.9038H80.6938L78.7438 110H76.6888L78.9388 106.76C78.2088 106.49 77.6438 106.065 77.2438 105.485C76.8538 104.895 76.6588 104.185 76.6588 103.355C76.6588 102.555 76.8388 101.865 77.1988 101.285C77.5588 100.705 78.0688 100.265 78.7288 99.965C79.3888 99.655 80.1638 99.5 81.0538 99.5H85.4188ZM81.1138 101.15C80.3138 101.15 79.6988 101.335 79.2688 101.705C78.8488 102.075 78.6388 102.615 78.6388 103.325C78.6388 104.015 78.8438 104.55 79.2538 104.93C79.6638 105.3 80.2588 105.485 81.0388 105.485H83.4988V101.15H81.1138ZM97.2507 99.35C98.1607 99.35 98.9557 99.535 99.6357 99.905C100.316 100.265 100.841 100.795 101.211 101.495C101.591 102.195 101.781 103.045 101.781 104.045V110H99.8157V103.865C99.8157 102.945 99.5857 102.25 99.1257 101.78C98.6757 101.3 98.0507 101.06 97.2507 101.06C96.4407 101.06 95.8057 101.3 95.3457 101.78C94.8857 102.25 94.6557 102.945 94.6557 103.865V110H91.4757L91.4607 108.35H92.7057V104.045C92.7057 103.045 92.8907 102.195 93.2607 101.495C93.6407 100.785 94.1707 100.25 94.8507 99.89C95.5407 99.53 96.3407 99.35 97.2507 99.35ZM109.309 110.15C108.239 110.15 107.274 109.92 106.414 109.46C105.554 108.99 104.879 108.345 104.389 107.525C103.899 106.695 103.654 105.77 103.654 104.75C103.654 103.73 103.899 102.81 104.389 101.99C104.879 101.16 105.554 100.515 106.414 100.055C107.274 99.585 108.239 99.35 109.309 99.35C110.379 99.35 111.344 99.585 112.204 100.055C113.064 100.515 113.739 101.155 114.229 101.975C114.719 102.795 114.964 103.72 114.964 104.75C114.964 105.78 114.719 106.705 114.229 107.525C113.739 108.345 113.064 108.99 112.204 109.46C111.344 109.92 110.379 110.15 109.309 110.15ZM109.309 108.44C110.009 108.44 110.639 108.285 111.199 107.975C111.759 107.655 112.199 107.215 112.519 106.655C112.839 106.085 112.999 105.45 112.999 104.75C112.999 104.05 112.839 103.42 112.519 102.86C112.199 102.29 111.759 101.85 111.199 101.54C110.639 101.22 110.009 101.06 109.309 101.06C108.609 101.06 107.979 101.22 107.419 101.54C106.859 101.85 106.419 102.29 106.099 102.86C105.779 103.42 105.619 104.05 105.619 104.75C105.619 105.45 105.779 106.085 106.099 106.655C106.419 107.215 106.859 107.655 107.419 107.975C107.979 108.285 108.609 108.44 109.309 108.44ZM124.489 102.11C123.499 101.55 122.469 101.21 121.399 101.09V110H119.449V101.09C118.369 101.21 117.334 101.55 116.344 102.11L115.669 100.61C116.369 100.19 117.119 99.875 117.919 99.665C118.729 99.455 119.559 99.35 120.409 99.35C121.259 99.35 122.089 99.455 122.899 99.665C123.709 99.875 124.464 100.19 125.164 100.61L124.489 102.11ZM131.517 110.15C130.447 110.15 129.482 109.92 128.622 109.46C127.762 108.99 127.087 108.345 126.597 107.525C126.107 106.695 125.862 105.77 125.862 104.75C125.862 103.73 126.107 102.81 126.597 101.99C127.087 101.16 127.762 100.515 128.622 100.055C129.482 99.585 130.447 99.35 131.517 99.35C132.587 99.35 133.552 99.585 134.412 100.055C135.272 100.515 135.947 101.155 136.437 101.975C136.927 102.795 137.172 103.72 137.172 104.75C137.172 105.78 136.927 106.705 136.437 107.525C135.947 108.345 135.272 108.99 134.412 109.46C133.552 109.92 132.587 110.15 131.517 110.15ZM131.517 108.44C132.217 108.44 132.847 108.285 133.407 107.975C133.967 107.655 134.407 107.215 134.727 106.655C135.047 106.085 135.207 105.45 135.207 104.75C135.207 104.05 135.047 103.42 134.727 102.86C134.407 102.29 133.967 101.85 133.407 101.54C132.847 101.22 132.217 101.06 131.517 101.06C130.817 101.06 130.187 101.22 129.627 101.54C129.067 101.85 128.627 102.29 128.307 102.86C127.987 103.42 127.827 104.05 127.827 104.75C127.827 105.45 127.987 106.085 128.307 106.655C128.627 107.215 129.067 107.655 129.627 107.975C130.187 108.285 130.817 108.44 131.517 108.44ZM144.157 110.15C143.097 110.15 142.137 109.92 141.277 109.46C140.427 108.99 139.757 108.345 139.267 107.525C138.787 106.705 138.547 105.78 138.547 104.75C138.547 103.72 138.792 102.795 139.282 101.975C139.772 101.155 140.442 100.515 141.292 100.055C142.152 99.585 143.112 99.35 144.172 99.35C145.032 99.35 145.817 99.5 146.527 99.8C147.237 100.1 147.837 100.535 148.327 101.105L147.067 102.29C146.307 101.47 145.372 101.06 144.262 101.06C143.542 101.06 142.897 101.22 142.327 101.54C141.757 101.85 141.312 102.285 140.992 102.845C140.672 103.405 140.512 104.04 140.512 104.75C140.512 105.46 140.672 106.095 140.992 106.655C141.312 107.215 141.757 107.655 142.327 107.975C142.897 108.285 143.542 108.44 144.262 108.44C145.372 108.44 146.307 108.025 147.067 107.195L148.327 108.395C147.837 108.965 147.232 109.4 146.512 109.7C145.802 110 145.017 110.15 144.157 110.15Z" fill="#F0D9CC"/>
<defs>
<radialGradient id="paint0_radial_3113_202" cx="0" cy="0" r="1" gradientUnits="userSpaceOnUse" gradientTransform="translate(84 78.4146) rotate(90) scale(49.5175 91.242)">
<stop offset="0.325" stop-color="#E2ACA5"/>
<stop offset="0.555" stop-color="#FCE4DF"/>
<stop offset="0.99" stop-color="#CD8E8D"/>
</radialGradient>
<radialGradient id="paint1_radial_3113_202" cx="0" cy="0" r="1" gradientUnits="userSpaceOnUse" gradientTransform="translate(84.8834 63.1403) rotate(90) scale(57.7792 90.6368)">
<stop offset="0.325" stop-color="#E2ACA5"/>
<stop offset="0.625" stop-color="#FCE4DF"/>
<stop offset="0.99" stop-color="#CD8E8D"/>
</radialGradient>
</defs>
</svg>
