<svg width="393" height="1072" viewBox="0 0 393 1072" fill="none" xmlns="http://www.w3.org/2000/svg">
<g clip-path="url(#clip0_2604_4396)">
<g clip-path="url(#clip1_2604_4396)">
<g clip-path="url(#clip2_2604_4396)">
<path d="M2076.86 928.009C2076.86 928.009 1795.24 1076.81 784.581 639.843C-226.079 202.876 -870.513 350.17 -1030.66 474.996M2073.98 921.888C2073.98 921.888 1872.03 1030.49 1178.74 808.865C1058.73 770.667 924.869 720.351 776.251 656.719C173.974 398.69 -305.008 315.248 -611.483 339.897C-822.768 356.153 -971.874 416.429 -1032.21 463.45M2071.07 915.782C2071.07 915.782 1872.03 1024.75 1172.82 820.745C1051.36 785.618 916.5 736.586 767.905 673.574C167.857 418.879 -316.551 305.333 -612.362 326.767C-821.761 341.941 -977.455 407.996 -1033.77 451.884M2068.18 909.668C2068.18 909.668 1872.04 1018.99 1166.89 832.634C1043.97 800.577 908.113 752.827 759.555 690.457C161.736 439.078 -328.15 294.845 -613.265 313.675C-820.823 327.385 -983.067 399.612 -1035.35 440.369M2065.27 903.562C2065.27 903.562 1872.05 1013.24 1160.98 844.531C1036.57 815.541 899.752 769.079 751.225 707.334C155.629 459.286 -339.743 284.288 -614.136 300.564C-819.845 312.783 -988.636 391.198 -1036.9 428.823M2062.38 897.436C2062.38 897.436 1872.41 1005.86 1155.05 856.407C1029.25 830.195 891.371 785.309 742.868 724.185C149.498 479.469 -351.355 273.63 -615.034 287.444C-818.911 298.119 -994.235 382.773 -1038.48 417.268M2059.47 891.33C2059.47 891.33 1872.41 999.98 1149.14 868.302C1021.86 845.127 882.993 801.57 734.529 741.071C143.387 499.689 -362.959 262.944 -615.906 274.346C-817.944 283.45 -999.801 374.389 -1040.03 405.733M2056.58 885.226C2056.58 885.226 1872.41 994.149 1143.22 880.2C1014.47 860.076 874.62 817.819 726.183 757.944C137.27 519.879 -374.588 252.176 -616.79 261.232C-817.008 268.728 -1005.39 365.971 -1041.59 394.184M2053.69 879.099C2053.69 879.099 1872.37 988.363 1137.31 892.078C1007.1 875.025 866.263 834.054 717.851 774.816C131.163 540.083 -386.194 241.334 -617.674 248.131C-816.058 253.961 -1010.98 357.563 -1043.16 382.645M2050.78 872.989C2050.78 872.989 1872.33 982.654 1131.38 903.956C999.694 889.969 857.878 850.283 709.493 791.668C125.032 560.267 -397.835 230.393 -618.569 234.996C-815.134 239.111 -1016.57 349.139 -1044.73 371.075M2047.88 866.88C2047.88 866.88 1872.29 976.992 1125.47 915.85C992.295 904.944 849.506 866.531 701.16 808.542C118.925 580.473 -409.448 219.397 -619.442 221.899C-814.182 224.223 -1022.15 340.737 -1046.27 359.545M2044.98 860.768C2044.98 860.768 1872.24 971.391 1119.54 927.74C984.894 919.933 841.118 882.774 692.797 825.423C112.79 600.67 -421.078 208.318 -620.343 208.793C-813.255 209.249 -1027.75 332.327 -1047.85 348.002M2042.09 854.653C2042.09 854.653 1872.15 967.193 1113.64 939.623C977.504 935.158 832.761 899.01 684.479 842.285C106.7 620.866 -432.672 197.142 -621.201 195.684C-812.29 194.195 -1033.31 323.915 -1049.39 336.458M2039.19 848.543C2039.19 848.543 1872.15 961.455 1107.71 951.517C970.112 950.12 824.389 915.258 676.122 859.154C100.566 641.065 -444.303 185.896 -622.112 182.562C-811.366 179.023 -1038.93 315.502 -1050.98 324.901M2036.29 842.433C2036.29 842.433 1872.16 955.698 1101.79 963.411C962.732 965.085 816.017 931.506 667.783 876.04C94.4554 661.284 -455.903 174.58 -622.987 169.479C-810.388 163.755 -1044.49 307.118 -1052.54 313.38M2033.39 836.311C2033.39 836.311 1872.18 949.932 1095.87 975.276C955.333 980.016 807.634 947.722 659.431 892.881C88.3311 681.442 -467.494 163.114 -623.877 156.333C-809.415 148.273 -1050.08 298.667 -1054.11 301.813M2030.49 830.201C2030.49 830.201 1872.18 944.188 1089.96 987.169C402.793 1024.93 -441.109 153.79 -624.749 143.235C-808.405 132.676 -1055.66 290.279 -1055.66 290.279M2020.79 825.381C2017.75 826.194 1845.02 925.452 1091.1 964.368C1016.79 967.94 965.372 979.724 889.119 965.596C279.627 852.707 -410.095 197.818 -591.579 186.62C-777.427 175.556 -1043.37 304.589 -1043.37 304.589M2011.08 820.56C2005.03 822.195 1817.91 909.189 1092.22 941.567C1018.44 944.859 943.222 939.222 868.202 926.151C283.413 824.243 -408.2 207.418 -607.512 194.409C-795.541 182.842 -1031.08 318.918 -1031.08 318.918M2001.38 815.736C1992.29 818.19 1790.75 891.456 1093.36 918.765C1020.1 921.636 945.647 916.505 871.859 904.493C311.83 813.349 -381.694 234.276 -598.891 219.995C-789.071 207.486 -1018.81 333.225 -1018.81 333.225M1991.67 810.918C1979.55 814.188 1763.59 873.561 1094.5 895.964C1021.76 898.404 948.081 893.764 875.515 882.837C340.333 802.251 -355.223 261.543 -590.271 245.583C-782.644 232.506 -1006.52 347.553 -1006.52 347.553M1981.97 806.097C1966.81 810.181 1736.4 855.486 1095.62 873.161C1023.41 875.152 950.501 871.003 879.171 861.182C368.898 790.921 -328.763 288.838 -581.636 271.159C-776.199 257.563 -994.213 361.87 -994.213 361.87M1972.26 801.277C1954.09 806.179 1709.22 837.242 1096.77 850.361C1025.06 851.898 952.957 848.235 882.829 839.541C397.549 779.334 -302.309 316.175 -573.018 296.76C-769.758 282.646 -981.925 376.196 -981.925 376.196M1962.56 796.457C1941.35 802.177 1682.02 818.825 1097.9 827.561C1026.73 828.619 955.418 825.439 886.485 817.886C426.258 767.473 -275.849 343.532 -564.398 322.349C-763.337 307.743 -969.638 390.524 -969.638 390.524M1952.86 791.638C1928.61 798.176 1654.82 800.239 1099.04 804.763C1028.39 805.339 957.892 802.601 890.14 796.231C455.046 755.325 -249.379 370.907 -555.76 347.928C-756.888 332.846 -957.342 404.824 -957.342 404.824M1943.15 786.814C1915.87 794.168 1627.62 781.452 1100.17 781.958C1030.03 782.022 960.344 779.725 893.778 774.585C483.855 742.872 -222.946 398.301 -547.162 373.524C-750.48 357.984 -945.073 419.161 -945.073 419.161M1933.45 781.994C1903.15 790.167 1600.42 762.482 1101.31 759.143C1031.69 758.678 962.844 756.799 897.454 752.917C512.759 730.073 -196.471 425.721 -538.522 399.1C-744.033 383.101 -932.767 433.476 -932.767 433.476M1923.74 777.187C1890.41 786.176 1573.22 743.34 1102.44 736.358C1033.35 735.337 965.333 733.841 901.106 731.277C541.673 716.956 -170.093 453.826 -529.89 424.691C-737.635 408.623 -920.461 447.794 -920.461 447.794M1914.03 772.366C1877.67 782.17 1546.04 723.974 1103.57 713.552C1035 711.942 967.806 710.782 904.752 709.616C570.592 703.435 -143.652 481.205 -521.284 450.272C-731.228 433.711 -908.189 462.114 -908.189 462.114M1904.33 767.548C1864.95 778.172 1518.88 704.413 1104.71 690.754C1036.67 688.511 970.295 687.655 908.404 687.976C599.523 689.538 -117.185 508.595 -512.665 475.861C-724.789 458.798 -895.896 476.429 -895.896 476.429M1894.63 762.724C1852.21 774.167 1491.73 684.652 1105.85 667.954C1038.34 665.033 972.788 664.421 912.076 666.324C628.4 675.225 -90.7176 535.983 -504.029 501.453C-718.355 483.896 -883.608 490.756 -883.608 490.756M1884.92 757.907C1839.47 770.163 1464.62 664.677 1106.98 645.151C1039.99 641.49 975.24 641.038 915.716 644.664C657.176 660.456 -64.2745 563.351 -495.409 527.042C-711.916 508.982 -871.322 505.083 -871.322 505.083M1875.22 753.083C1816.96 768.799 1266.77 589.947 919.371 623.021C571.973 656.095 -859.033 519.409 -859.033 519.409" stroke="#695E5C" stroke-width="1.32107" stroke-miterlimit="10"/>
</g>
</g>
</g>
<defs>
<clipPath id="clip0_2604_4396">
<rect width="1289.91" height="465.169" fill="white" transform="matrix(-0.852157 -0.523286 0.522905 -0.852391 654.543 1071.66)"/>
</clipPath>
<clipPath id="clip1_2604_4396">
<rect width="3519.94" height="673" fill="white" transform="matrix(-0.852157 -0.523286 0.522905 -0.852391 804.082 1310.85)"/>
</clipPath>
<clipPath id="clip2_2604_4396">
<rect width="3266" height="815" fill="white" transform="matrix(-0.927335 -0.374037 0.3737 -0.927629 1249.51 1276.87)"/>
</clipPath>
</defs>
</svg>
