<svg width="470" height="637" viewBox="0 0 470 637" fill="none" xmlns="http://www.w3.org/2000/svg">
<path d="M202.794 77.3224C184.476 107.953 167.969 140.326 142.796 165.624C133.741 174.723 123.623 182.835 115.624 192.884C107.625 202.933 101.783 215.541 103.217 228.3C105.129 245.335 119.548 258.591 135.206 265.571C150.864 272.558 168.157 274.834 184.557 279.827C200.957 284.82 217.502 293.504 225.482 308.672C231.267 319.677 231.701 333.341 226.614 344.692C224.319 349.817 220.998 354.414 218.489 359.438C206.655 383.07 215.201 413.619 234.607 431.559C254.013 449.5 281.996 455.996 308.338 453.883C334.68 451.764 359.771 441.885 383.635 430.534C414.536 415.838 446.016 396.527 460.045 365.318C467.83 348.012 469.452 328.606 469.654 309.634C470.031 274.708 465.969 239.839 459.429 205.53C450.826 160.392 437.57 115.292 412.058 77.0708C387.295 39.9757 348.344 7.93635 303.219 0.855634C253.792 -6.90423 225.306 39.6801 202.794 77.3098V77.3224Z" fill="#F7B593"/>
<path d="M369.784 370.5C369.628 374.805 369.593 379.229 369.258 383.617C368.947 387.586 368.313 391.532 367.787 395.49C366.387 405.999 363.828 416.246 360.754 426.361C353.71 449.581 342.982 471.031 329.156 490.962C318.416 506.458 306.038 520.518 292.128 533.216C277.37 546.691 261.128 558.062 242.913 566.443C233.07 570.975 222.928 574.717 212.499 577.73C203.984 580.193 195.397 582.393 186.702 584.091C178.138 585.765 169.503 586.901 160.773 587.439C154.972 587.797 149.184 588.025 143.395 587.809C137.857 587.606 132.332 587.14 126.819 586.458C122.202 585.896 117.633 585.095 113.077 584.187C103.329 582.25 93.8092 579.524 84.5044 575.984C67.2463 569.432 51.818 559.867 37.7292 548.066C28.3407 540.187 19.897 531.411 13.3191 520.973C8.04473 512.591 4.09796 503.648 1.77774 493.987C0.258836 487.662 -0.363076 481.265 0.210999 474.833C1.08407 464.981 5.27004 456.599 12.5058 449.808C18.7369 443.973 26.1999 440.685 34.4881 438.915C41.4966 437.421 48.5649 436.99 55.6571 437.493C59.6278 437.768 63.6224 437.947 67.5692 438.748C70.1166 439.262 72.7239 439.465 75.2952 439.932C79.9477 440.769 84.5522 441.797 89.1807 442.67C96.1772 443.985 103.234 444.714 110.362 444.14C123.9 443.04 135.788 437.708 146.636 429.817C156.993 422.284 165.64 413.03 173.57 403.046C182.073 392.333 189.74 381.022 197.143 369.532C205.204 357.026 212.774 344.22 220.309 331.391C229.817 315.178 239.529 299.096 250.651 283.912C256.703 275.638 263.197 267.747 270.852 260.872C276.329 255.945 282.345 251.892 289.126 248.927C292.26 247.552 295.31 246.057 298.622 245.113C301.888 244.18 305.2 243.941 308.549 244.097C313.106 244.324 317.639 244.754 322.028 246.189C324.695 247.062 327.087 248.413 329.276 250.159C337.468 256.759 343.604 264.961 348.101 274.43C352.741 284.211 356.688 294.266 359.75 304.656C361.52 310.658 362.979 316.744 364.055 322.926C365.048 328.605 366.28 334.26 367.201 339.952C367.858 343.969 368.133 348.046 368.684 352.076C369.521 358.161 369.545 364.283 369.772 370.5H369.784Z" fill="#FFC4B9"/>
<path d="M261.978 332.276C260.375 335.779 255.615 336.592 252.792 333.914C250.281 331.534 248.427 328.641 246.932 325.556C244.6 320.714 242.507 315.74 241.227 310.515C239.72 304.417 239.912 298.511 243.153 292.783C246.071 287.63 248.762 282.321 250.891 276.762C252.924 271.429 254.515 265.989 255.758 260.417C257.337 253.351 258.019 246.237 257.517 239.039C257.062 232.499 255.22 226.401 250.807 221.308C248.905 219.12 246.478 217.613 244.062 216.095C242.471 215.09 240.785 214.253 239.266 213.153C237.209 211.671 234.96 211.073 232.461 210.798C224.567 209.901 216.65 209.65 208.744 210.296C201.114 210.929 193.567 212.077 186.511 215.497C176.488 220.351 169.946 228.183 165.952 238.358C163.799 243.834 162.172 249.453 161.73 255.36C161.503 258.468 161.467 261.529 162.615 264.518C164.086 268.368 166.669 268.273 169.54 267.268C171.943 266.431 172.003 266.132 171.908 263.502C171.74 258.839 172.84 254.439 174.886 250.29C175.974 248.078 177.577 246.201 179.909 245.125C182.217 244.073 183.903 245.065 184.143 247.612C184.382 250.182 183.796 252.634 182.982 255.037C181.679 258.923 179.215 262.067 176.261 264.781C174.838 266.085 174.67 267.328 175.101 269.086C175.926 272.493 176.285 275.985 175.795 279.512C175.46 281.915 174.168 283.924 173.247 286.076C172.769 287.2 172.123 288.252 171.692 289.388C171.023 291.169 171.25 291.851 172.876 292.855C173.702 293.369 174.634 293.704 175.508 294.123C179.203 295.868 179.634 297.757 177.086 300.938C176.943 301.117 176.847 301.356 176.704 301.595C176.871 302.815 177.923 303.461 178.581 304.345C179.167 305.146 179.801 305.888 179.371 307C179.072 307.765 179.49 308.458 179.813 309.092C181.272 311.938 182.373 314.879 182.6 318.131C182.719 319.865 183.951 321.013 185.566 321.288C190.972 322.196 196.402 322.364 201.843 321.551C203.027 321.371 203.721 320.797 204.391 319.925C206.926 316.672 210.466 315.118 214.365 314.233C215.238 314.03 216.159 314.018 217.044 314.233C218.515 314.592 218.946 315.812 217.989 317.007C217.535 317.569 216.937 318.023 216.327 318.43C213.588 320.259 210.598 321.646 207.393 322.256C205.072 322.698 204.104 323.894 203.637 326.046C203.243 327.876 202.884 329.693 202.633 331.558C202.19 334.906 200.432 337.62 197.801 339.701C196.15 341.004 194.404 340.956 192.562 339.892C190.792 338.864 189.285 337.501 187.623 336.341C182.002 332.419 175.902 329.573 169.133 328.485C165.318 327.864 161.491 328.426 157.819 329.693C154.386 330.877 152.078 333.411 150.523 336.556C147.964 341.757 146.17 347.221 145.213 352.984C143.993 360.409 143.754 367.894 143.276 375.379C142.725 383.94 141.278 392.321 138.073 400.368C133.48 411.93 128.792 423.456 124.63 435.197C122.011 442.586 118.626 449.545 113.83 455.858C110.422 460.341 108.389 465.638 106.547 470.971C104.561 476.674 103.114 482.521 101.882 488.403C101.153 491.907 100.83 495.493 100.363 499.045C99.2871 507.283 97.6964 515.413 95.9503 523.543C94.0845 532.26 91.2022 540.617 87.7578 548.807C87.1 550.374 86.2628 551.88 85.3897 553.351C83.7033 556.22 81.8256 558.97 80.2828 561.948C77.6397 567.029 73.1308 569.552 67.6053 570.484C63.826 571.118 60.0467 571.632 56.2195 572.003C50.706 572.529 45.1566 572.72 39.6909 573.82C33.4957 575.064 27.5875 577.061 22.0501 580.121C21.2129 580.588 20.292 580.994 19.8016 582.034C20.5431 582.895 21.5597 583.087 22.6002 583.218C26.5111 583.756 30.422 583.493 34.3329 583.146C35.3853 583.051 36.0312 582.333 36.7368 581.628C40.0497 578.304 44.152 576.714 48.7685 576.331C49.6655 576.259 50.5505 576.415 51.4355 576.63C52.3923 576.869 53.1338 577.395 53.3013 578.34C53.4687 579.308 52.6076 579.775 51.89 580.133C50.8734 580.636 49.797 581.03 48.7206 581.413C45.2762 582.656 41.748 583.66 38.1361 584.306C37.8252 584.366 37.4783 584.414 37.2272 584.868C38.2557 585.705 39.4756 585.884 40.7553 585.896C46.1732 585.98 51.4595 584.952 56.7577 583.995C61.9722 583.063 66.9595 581.174 72.186 580.289C74.6497 579.87 77.0536 578.986 79.4456 578.196C81.0004 577.682 82.4117 576.821 83.5359 575.602C87.9491 570.783 92.0155 565.702 95.1131 559.915C97.0745 556.244 98.0792 552.179 99.6579 548.341C102.612 541.119 105.159 533.718 109.357 527.07C112.06 522.79 115.397 519.012 118.531 515.054C123.016 509.375 127.811 503.959 131.95 497.992C134.736 493.975 136.542 489.623 137.619 484.876C138.635 480.428 139.891 476.052 141.003 471.628C142.51 465.626 143.957 459.612 145.476 453.622C146.959 447.787 148.107 441.869 149.961 436.118C151.026 432.83 150.129 429.613 148.813 426.6C145.823 419.773 144.472 412.683 144.328 405.234C144.208 399.136 145.5 393.421 147.844 387.897C150.009 382.804 152.281 377.77 154.602 372.748C155.2 371.457 155.259 370.357 154.697 369.03C153.214 365.539 152.915 361.952 154.159 358.293C154.458 357.408 154.889 356.655 155.546 356.033C156.683 354.957 158.357 355.029 159.469 356.141C160.438 357.109 160.881 358.281 160.94 359.644C161.084 362.645 160.402 365.515 159.326 368.241C158.369 370.644 158.967 372.234 160.605 374.123C166.382 380.795 174.013 382.935 182.349 383.76C193.962 384.908 204.199 381.213 213.743 375.104C220.034 371.086 226.457 367.26 232.305 362.573C242.579 354.347 252.792 346.038 263.497 338.373C268.448 334.822 273.304 331.092 279.009 328.736C282.86 327.146 286.866 326.62 290.992 326.955C292.129 327.051 293.217 327.385 294.305 327.792C302.271 330.757 307.557 336.496 310.989 344.029C314.386 351.478 316.551 359.237 317.065 367.511C317.531 374.924 318.022 382.337 317.759 389.762C317.591 394.246 317.292 398.718 317.197 403.213C317.017 410.985 317.783 418.697 318.201 426.433C318.404 430.259 318.763 434.085 319.266 437.875C319.864 442.311 320.605 446.723 322.746 450.764C323.667 452.51 324.923 454.004 326.178 455.487C330.843 461.011 333.797 467.36 335.555 474.319C337.612 482.473 338.784 490.759 339.55 499.128C340.255 506.828 341.188 514.516 342.109 522.204C342.791 527.943 343.532 533.682 344.441 539.386C344.967 542.674 345.936 545.878 346.594 549.142C347.778 555.049 349.273 560.871 350.325 566.814C351.091 571.118 352.299 575.375 354.942 579.045C357.513 582.632 360.934 584.641 365.311 585.239C370.645 585.968 375.956 586.793 381.337 587.212C387.963 587.726 394.027 589.806 399.469 593.716C403.164 596.358 407.219 598.463 411.106 600.806C412.146 601.428 413.163 602.157 414.024 603.006C415.638 604.608 415.208 606.031 413.055 606.82C409.874 607.992 406.633 607.789 403.392 607.263C396.993 606.222 391.025 603.831 385.057 601.452C380.739 599.73 376.29 598.439 371.853 597.1C371.112 596.872 370.31 596.693 369.15 597.243C371.064 597.853 372.655 598.355 374.245 598.881C377.403 599.945 380.512 601.165 383.43 602.791C384.507 603.389 385.44 604.166 386.301 605.039C386.971 605.732 387.317 606.557 386.971 607.49C386.648 608.363 385.894 608.638 385.009 608.685C383.789 608.745 382.569 608.936 381.349 608.901C376.613 608.793 371.865 608.829 367.153 608.422C362.859 608.04 358.518 607.705 354.332 606.605C350.17 605.517 347.072 603.269 344.955 599.156C341.176 591.791 338.078 584.163 335.866 576.271C332.936 565.821 328.032 556.292 323.535 546.56C321.143 541.394 318.943 536.122 316.096 531.184C312.616 525.122 309.016 519.131 304.459 513.775C301.601 510.403 299.651 506.422 297.774 502.452C295.035 496.641 292.152 490.878 290.071 484.792C288.17 479.245 286.771 473.553 285.515 467.826C284.534 463.366 283.745 458.883 283.099 454.375C282.513 450.262 281.735 446.185 280.958 442.108C279.858 436.333 279.128 430.522 278.399 424.711C278.04 421.877 277.956 419.02 277.753 416.174C277.729 415.792 277.848 415.373 277.394 414.979C276.808 415.313 276.617 415.983 276.401 416.533C271.27 429.864 264.429 442.335 256.943 454.459C250.616 464.706 244.145 474.869 237.795 485.103C235.259 489.192 233.059 493.473 231.671 498.1C230.093 503.409 229.674 508.741 230.81 514.277C232.353 521.798 236.025 528.254 240.127 534.543C243.547 539.792 247.303 544.826 250.161 550.41C254.945 559.736 257.325 569.659 256.44 580.145C255.699 588.945 252.864 597.112 248.224 604.692C242.818 613.54 235.905 620.821 226.923 626.07C224.184 627.672 221.577 629.502 218.767 630.996C213.899 633.567 208.517 634.117 203.243 635.109C199.619 635.791 195.947 635.85 192.275 635.946C187.946 636.054 183.688 637.046 179.359 636.998C168.93 636.879 159.661 633.627 152.891 625.496C147.079 618.514 145.273 610.252 147.019 601.177C148.538 593.321 151.301 585.956 155.511 579.225C161.754 569.229 169.408 560.369 178.163 552.454C188.783 542.853 200.647 535.045 213.014 527.919C215.824 526.293 218.623 524.643 221.398 522.945C222.199 522.455 223.168 522.109 223.586 521.128C223.012 520.076 222.032 520.315 221.182 520.255C219.03 520.112 216.961 520.757 214.903 521.152C202.74 523.46 191.283 527.656 180.626 534.041C172.518 538.895 164.887 544.443 157.018 549.62C151.301 553.375 145.692 557.32 139.556 560.393C136.255 562.043 132.823 563.251 129.139 563.729C124.546 564.327 120.803 562.773 117.837 559.293C115.206 556.208 113.711 552.526 112.132 548.855C110.661 545.448 110.015 541.98 110.613 538.357C111.259 534.507 112.204 530.813 114.787 527.597C121.222 519.622 127.441 511.479 133.421 503.158C135.035 500.91 136.722 498.71 138.24 496.402C140.286 493.305 141.362 489.79 142.127 486.191C143.634 479.113 145.237 472.035 146.612 464.933C148.191 456.778 149.77 448.636 151.325 440.47C152.485 434.372 156.348 431.287 161.778 429.446C170.09 426.624 178.617 425.572 187.336 426.469C190.422 426.78 193.412 427.676 196.318 428.74C204.486 431.73 212.643 434.695 220.919 437.397C228.956 440.027 236.79 443.244 243.894 447.966C245.317 448.911 246.657 449.975 248.044 450.968C248.475 451.278 248.774 451.625 248.606 452.343C247.494 452.295 246.478 451.9 245.497 451.362C239.421 448.062 233.286 444.906 226.756 442.598C222.534 441.103 218.324 439.597 214.066 438.246C208.947 436.62 203.9 434.802 198.925 432.806C192.598 430.271 186.092 428.346 179.227 428.717C172.709 429.063 166.263 430.139 160.115 432.507C158.261 433.224 156.719 434.42 155.367 435.855C153.872 437.445 153.836 439.597 153.37 441.546C152.365 445.731 151.516 449.963 150.679 454.196C149.877 458.273 149.076 462.35 148.49 466.451C147.952 470.253 146.744 473.9 146.074 477.666C145.404 481.433 144.376 485.127 143.599 488.87C142.869 492.349 141.494 495.541 139.436 498.423C132.32 508.43 125.025 518.306 117.466 527.991C113.232 533.419 112.551 539.553 114.081 546.022C114.751 548.855 115.6 551.677 117 554.283C118.782 557.607 121.03 560.513 124.881 561.481C127.991 562.258 131.065 561.481 134.007 560.477C139.209 558.695 143.85 555.766 148.394 552.753C156.599 547.313 164.684 541.693 172.912 536.301C179.239 532.164 185.769 528.35 192.778 525.48C198.662 523.065 204.702 521.176 210.933 519.849C213.241 519.359 215.585 519.048 217.881 518.462C219.867 517.96 221.936 517.709 223.921 518.426C224.938 518.797 226.17 519.096 226.361 520.53C226.54 521.857 225.823 522.73 224.866 523.412C223.216 524.596 221.553 525.767 219.819 526.807C211.459 531.805 203.063 536.755 195.134 542.447C181.786 552.012 169.934 563.071 160.534 576.654C156.049 583.146 152.664 590.117 150.487 597.697C149.256 601.978 148.693 606.366 149.315 610.766C150.571 619.757 155.068 626.56 163.344 630.649C167.626 632.766 172.135 634.093 176.871 634.607C179.335 634.882 181.739 634.201 184.178 634.069C189.142 633.794 194.117 633.411 199.069 632.957C204.893 632.419 210.897 631.917 216.135 629.155C225.584 624.181 234.673 618.609 241.227 609.785C245.425 604.142 249.133 598.223 251.202 591.456C253.558 583.732 254.359 575.901 252.864 567.806C251.381 559.807 248.367 552.562 243.93 545.806C240.091 539.96 235.893 534.34 232.616 528.123C228.909 521.08 226.624 513.727 227.115 505.644C227.497 499.236 229.722 493.437 232.664 487.841C236.371 480.763 240.928 474.199 245.27 467.515C254.12 453.861 262.707 440.063 269.644 425.297C272.203 419.845 274.344 414.225 276.365 408.558C276.593 407.924 276.688 407.374 276.593 406.681C275.923 402.089 275.373 397.474 275.301 392.811C275.277 391.376 275.648 390.061 276.174 388.77C276.987 386.761 278.769 386.283 280.492 387.586C281.472 388.328 282.274 389.284 282.537 390.54C283.23 393.875 283.111 397.199 282.19 400.463C281.544 402.735 280.934 405.055 279.917 407.159C278.793 409.467 278.949 411.786 279.308 414.094C280.121 419.331 280.324 424.627 281.066 429.864C281.616 433.726 282.298 437.576 282.931 441.438C283.505 444.977 284.103 448.505 284.689 452.032C285.85 459.014 286.926 466.021 288.648 472.896C290.586 480.644 293.193 488.176 296.745 495.35C298.802 499.511 300.68 503.755 303.144 507.701C303.921 508.944 304.627 510.236 305.548 511.36C312.448 519.801 317.854 529.127 322.351 539.015C326.43 547.97 330.974 556.711 334.778 565.798C336.261 569.349 337.062 573.091 338.282 576.714C340.865 584.438 343.676 592.066 347.407 599.323C348.986 602.384 351.808 603.951 354.942 604.668C364.223 606.784 373.695 607.083 383.167 607C383.717 607 384.327 607.071 384.854 606.473C383.251 604.513 380.907 603.723 378.694 602.839C375.07 601.392 371.363 600.172 367.667 598.917C366.579 598.546 365.574 598.032 364.629 597.41C364.055 597.028 363.768 596.454 363.96 595.713C364.139 595.007 364.725 594.912 365.287 594.84C367.823 594.553 370.37 594.625 372.822 595.282C378.635 596.837 384.315 598.857 389.877 601.129C394.41 602.982 399.05 604.477 403.846 605.409C405.772 605.78 407.745 605.852 409.706 605.613C410.484 605.517 411.345 605.541 411.907 604.644C411.07 603.245 409.551 602.683 408.271 601.966C404.516 599.862 400.844 597.626 397.304 595.163C393.943 592.831 390.295 590.918 386.241 590.213C382.629 589.579 378.945 589.459 375.298 589.065C371.004 588.599 366.699 588.264 362.453 587.439C357.812 586.53 354.679 583.493 352.155 579.775C350.122 576.786 348.962 573.366 348.197 569.851C346.737 563.095 345.434 556.304 344.058 549.525C342.874 543.702 341.559 537.915 340.494 532.068C339.837 528.469 339.43 524.823 339.023 521.176C338.306 514.779 337.684 508.371 337.026 501.962C336.344 495.23 335.591 488.511 334.383 481.851C333.031 474.354 330.998 467.109 326.705 460.652C325.796 459.289 324.827 457.986 323.691 456.814C320.605 453.622 318.823 449.772 317.818 445.48C316.61 440.302 316.228 435.03 315.737 429.757C314.577 417.202 314.613 404.636 315.068 392.07C315.319 385.123 315.127 378.188 314.805 371.266C314.314 360.708 311.838 350.689 306.301 341.542C303.144 336.317 298.695 332.67 293.109 330.446C289.713 329.095 286.196 329.645 282.752 330.554C278.171 331.761 274.38 334.5 270.553 337.106C260.746 343.79 251.489 351.215 242.244 358.64C234.948 364.486 227.39 369.915 219.568 375.044C213.397 379.085 207.094 382.708 199.989 384.836C194.332 386.534 188.64 387.574 182.66 386.797C178.928 386.307 175.244 385.793 171.633 384.729C166.442 383.198 162.292 380.209 158.812 376.156C158.345 375.606 158.034 374.9 157.221 374.518C156.001 375.953 155.475 377.758 154.709 379.42C152.592 383.999 150.344 388.519 148.873 393.361C148.024 396.171 147.366 399.005 147.294 401.982C147.175 406.896 147.485 411.762 148.382 416.593C148.873 419.235 149.794 421.77 150.715 424.305C151.755 427.162 152.413 430.068 152.257 433.152C152.15 435.376 151.456 437.481 150.906 439.585C149.937 443.363 149.052 447.153 148.191 450.968C147.21 455.332 146.158 459.684 145.094 464.024C143.874 468.998 142.678 473.984 141.362 478.934C139.747 485.055 138.779 491.392 135.334 496.904C132.619 501.256 129.498 505.322 126.221 509.279C121.879 514.552 117.442 519.753 113.483 525.325C109.644 530.717 107.181 536.863 104.502 542.865C101.978 548.508 100.435 554.546 97.7801 560.13C94.838 566.3 90.5564 571.537 85.8801 576.451C84.1937 578.22 82.1844 579.559 79.5413 579.858C78.3094 580.002 77.1852 580.899 75.9892 581.401C73.956 582.262 71.7674 582.632 69.6146 583.051C66.4093 583.66 63.3356 584.784 60.1543 585.478C56.1716 586.339 52.1771 587.176 48.0987 587.367C45.0968 587.51 42.1068 588.049 39.069 587.427C37.287 587.068 35.78 586.542 35.0863 584.784C30.4339 585.37 25.8892 585.693 21.3803 584.641C21.0574 584.569 20.7345 584.533 20.4235 584.438C19.2993 584.067 18.2348 583.529 17.9717 582.285C17.6847 580.958 18.6893 580.193 19.6461 579.547C23.4494 576.965 27.6832 575.267 32.0127 573.796C37.4424 571.955 43.0516 571.058 48.7446 570.401C53.6003 569.839 58.5038 569.695 63.3237 568.822C66.0505 568.332 68.8013 567.986 71.4205 567.041C75.451 565.594 78.3334 562.856 80.2948 559.114C82.3638 555.156 84.8276 551.39 86.3584 547.145C88.9298 540.031 91.3816 532.881 92.9723 525.456C94.24 519.478 95.3164 513.476 96.3808 507.462C97.0028 503.935 97.2898 500.348 97.7801 496.797C98.5097 491.476 99.3708 486.167 100.782 480.978C102.48 474.689 104.466 468.496 107.324 462.613C109.262 458.644 111.522 454.889 114.5 451.613C117.155 448.696 118.399 445.085 119.762 441.534C124.355 429.613 128.457 417.513 133.313 405.7C135.167 401.193 136.925 396.625 138.133 391.879C138.898 388.878 139.46 385.841 139.831 382.756C140.632 376.12 140.943 369.436 141.458 362.765C142.223 352.924 144.256 343.419 149.327 334.822C151.887 330.494 155.666 327.864 160.773 326.871C168.571 325.365 175.603 327.338 182.516 330.602C185.638 332.072 188.436 333.997 191.187 336.042C191.845 336.52 192.467 337.058 193.148 337.501C195.289 338.876 197.597 338.278 198.746 335.922C199.451 334.476 200.025 332.933 200.468 331.379C200.827 330.135 200.839 328.796 201.114 327.517C201.377 326.261 201.771 325.03 202.214 323.44C199.894 324.014 197.813 323.906 195.732 323.966C192.299 324.073 188.891 323.679 185.482 323.416C182.66 323.201 180.746 321.395 180.531 318.633C180.292 315.572 179.227 312.763 178.199 309.941C178.031 309.487 177.636 309.008 177.696 308.59C177.971 306.545 177.062 305.087 175.699 303.7C174.658 302.647 174.539 301.416 175.591 300.208C175.854 299.909 176.094 299.563 176.297 299.216C177.003 297.949 176.811 297.315 175.484 296.729C174.515 296.299 173.45 296.047 172.542 295.521C169.276 293.632 168.356 291.719 170.138 288.288C171.07 286.482 171.812 284.593 172.721 282.776C174.192 279.835 173.857 276.738 173.51 273.653C173.319 271.967 172.637 270.365 172.625 268.607C171.046 268.488 169.982 269.42 168.81 269.827C164.851 271.178 161.192 268.631 159.972 264.387C158.859 260.537 158.979 256.711 159.529 252.777C160.522 245.675 162.675 238.979 165.76 232.559C171.286 221.056 180.124 213.416 192.431 209.817C201.64 207.127 211.028 206.697 220.549 207.163C225.117 207.378 229.602 208.132 234.111 208.777C236.276 209.088 238.106 210.128 239.959 211.145C243.033 212.83 246.083 214.54 249.013 216.477C253.881 219.705 256.775 224.285 258.533 229.689C261.212 237.951 260.949 246.356 259.753 254.845C258.784 261.744 256.966 268.38 254.634 274.92C252.709 280.313 249.886 285.263 247.231 290.296C245.939 292.736 244.564 295.139 243.559 297.733C242.387 300.77 242.483 303.867 243.117 306.892C244.361 312.81 246.693 318.37 249.157 323.882C250.293 326.417 251.537 328.88 253.223 331.08C255.543 334.081 257.445 334.488 260.829 332.706C261.164 332.527 261.451 332.24 261.942 332.288L261.978 332.276ZM174.479 263.562C180.878 258.994 184.178 249.632 181.846 246.309C179.682 246.667 178.354 248.21 177.313 249.955C174.862 254.044 174.036 258.516 174.479 263.562ZM278.088 403.333C279.308 402.03 279.248 400.714 279.607 399.579C280.492 396.817 280.384 393.935 280.133 391.078C280.049 390.061 279.678 389.212 278.231 389.153C277.226 393.78 277.179 398.323 278.088 403.333ZM51.2203 578.507C47.8715 577.096 40.8391 579.344 38.9733 582.274C43.1354 581.425 47.0941 580.396 51.2203 578.507ZM216.458 315.907C212.535 315.847 209.258 317.342 206.603 320.235C210.191 319.53 213.6 318.406 216.458 315.907ZM157.687 357.372C155.714 360.242 155.487 364.175 156.994 366.447C158.034 363.566 159.027 360.828 157.687 357.372Z" fill="#826A5E"/>
</svg>
