<svg width="234" height="709" viewBox="0 0 234 709" fill="none" xmlns="http://www.w3.org/2000/svg">
<path d="M205.236 603.725C226.874 610.832 250.162 617.548 271.278 625.934C287.575 632.416 303.667 640.588 317.235 651.791C311.983 644.091 306.734 636.365 301.503 628.608C298.387 625.829 295.121 623.211 291.743 620.769C252.329 593.433 205.178 581.682 160.452 564.989C147.226 560.269 133.921 555.297 120.918 549.933C107.896 544.506 94.8911 538.498 82.475 531.777C68.2425 524.061 54.4177 515.268 41.7189 505.212C33.0352 498.337 24.7082 490.649 17.2263 482.502C11.122 475.777 5.55426 468.541 0.580156 461.007C3.26328 463.877 5.96456 467.061 8.77517 469.803C13.4499 474.706 18.8999 479.687 24.0625 484.07C52.1046 507.834 85.2657 524.565 119.231 538.228C163.948 556.228 210.16 569.221 253.851 590.475C266.863 596.891 280.035 604.503 291.585 613.834C283.954 602.395 276.387 590.897 268.937 579.314C263.912 575.134 258.496 571.408 252.88 568.017C241.033 560.859 228.371 555.009 215.806 548.587C190.713 535.8 166.126 522.014 142.086 507.328C115.031 490.707 88.3275 473.264 64.037 452.732C50.525 441.274 37.3211 428.995 27.5039 414.11C23.5511 408.193 20.317 401.796 17.9163 395.186C19.8835 398.622 21.9502 401.966 24.2565 405.15C26.48 408.209 29.087 411.464 31.585 414.298C40.2251 424.04 50.194 432.431 60.5063 440.373C66.0339 444.607 71.6327 448.752 77.308 452.788C125.956 486.691 177.744 516.451 228.908 546.538C240.207 553.134 251.955 560.141 262.16 568.693C253.319 554.752 244.669 540.693 236.299 526.499C211.167 501.461 176.654 485.739 147.473 465.555C94.9281 429.749 45.8648 381.925 26.5664 319.833C30.4599 327.707 34.7844 335.528 39.2988 343.007C71.4058 395.449 120.015 435.175 170.851 468.706C188.636 480.409 206.982 491.69 223.028 505.815C223.944 506.621 224.852 507.444 225.758 508.275C222.656 502.803 219.602 497.309 216.6 491.795C194.774 468.818 167.863 450.764 144.363 429.47C141.473 426.783 137.919 423.354 135.04 420.643C133.894 419.516 127.331 412.717 126.086 411.439C123.72 408.748 117.992 402.674 115.853 399.925C113.948 397.596 111.127 394.36 109.3 392.026C107.032 389.087 103.652 384.851 101.485 381.863C82.7979 356.589 67.3614 328.6 55.6514 299.44C52.4946 291.693 49.5832 283.502 46.967 275.535C45.3703 270.738 43.9777 265.784 42.5826 260.938C65.1552 309.719 91.6494 356.447 127.212 396.787L133.855 404.224C135.048 405.478 141.425 412.147 142.451 413.242C146.409 417.135 150.887 421.627 154.978 425.4C172.06 441.39 190.999 456.623 207.15 474.03C196.473 453.45 186.572 432.541 177.714 411.253C172.037 405.873 166.197 400.644 160.619 395.14C121.164 356.229 91.6916 306.65 77.7526 252.931C76.5293 247.753 75.5966 242.478 75.192 237.165C74.7923 231.881 74.9678 226.523 75.9159 221.322C76.142 226.538 76.913 231.663 78.1292 236.707C79.9631 244.217 82.6489 251.453 85.6196 258.582C104.484 303.867 129.86 346.228 161.245 383.956C164.569 388.039 168.076 392.034 171.593 396.042C170.797 393.999 170.009 391.957 169.237 389.911C164.573 377.494 160.262 364.866 156.356 352.081C148.094 340.38 139.526 328.885 132.047 316.614C109.995 280.4 95.4151 239.426 90.7763 197.231C90.3623 192.869 89.9469 188.301 89.7823 183.916C89.7197 181.69 89.6124 179.472 89.5882 177.247C92.0256 185.819 94.1966 194.354 96.7102 202.784C105.761 234.227 117.211 265.018 131.375 294.48C136.157 304.284 141.128 313.959 146.411 323.517C147.643 325.761 148.893 328.013 150.141 330.272C145.396 312.305 141.514 294.069 138.662 275.706C115.953 239.39 101.684 191.917 99.5537 149.96C99.4422 146.8 99.3782 143.636 99.4402 140.464C100.556 143.443 101.536 146.436 102.477 149.428C109.151 170.111 115.142 191.045 121.606 211.763C126.326 227.405 131.467 242.944 136.311 258.573C134.359 242.189 133.264 225.732 133.146 209.295C121.02 190.338 115.745 165.359 116.706 143.201C117.035 137.574 117.691 131.97 119.196 126.513C119.868 128.314 120.409 130.108 120.912 131.9C124.4 144.078 126.813 156.594 129.15 168.987C130.611 177.296 132.156 185.648 133.326 194.043C133.872 176 135.649 158.013 138.81 140.198C131.211 134.432 128.003 123.746 129.638 114.486C130.339 110.907 131.691 107.427 134.131 104.647C135.084 106.275 135.748 107.881 136.414 109.541C138.567 115.109 140.275 121.683 141.138 128.228C142.384 122.392 143.785 116.574 145.347 110.781C145.438 110.137 145.53 109.492 145.626 108.845C138.133 103.852 133.493 95.1429 132.02 86.4091C131.539 83.158 131.452 79.733 132.249 76.4516C135.202 78.092 137.658 80.4824 139.71 83.0406C140.365 83.8888 140.984 84.7712 141.569 85.6806C137.174 73.3539 136.386 58.2795 141.993 46.2844C146.654 55.719 149.314 68.8704 150.043 80.747C153.175 59.0023 154.613 37.2511 155.11 15.2658C155.218 10.5005 155.268 5.75239 155.582 0.935208C156.564 3.15837 157.424 5.41868 158.243 7.70416C169.128 40.8825 164.703 82.5809 145.439 111.988C144.176 118.804 143.099 125.637 142.205 132.481C145.997 126.091 149.983 119.78 153.715 113.414C164.823 94.3946 174.942 74.9396 183.111 54.4769C184.572 50.3109 185.437 46.1239 184.933 41.6047C186.295 43.4996 187.212 45.7812 187.723 48.1564C188.94 54.0448 188.011 60.1609 186.703 65.928C180.629 92.8321 164.729 119.322 141.854 135.226C141.818 135.523 141.782 135.82 141.746 136.118C141.781 138.117 141.718 140.077 141.538 141.952C141.39 141.874 141.251 141.791 141.108 141.71C139.808 153.873 139.068 166.073 138.839 178.276C140.893 161.307 151.226 145.962 161.445 132.658C171.149 120.084 181.436 108.709 189.693 95.2807C191.613 92.1453 193.351 88.9162 195.1 85.6549C195.069 86.9064 194.981 88.1558 194.885 89.4227C192.724 108.241 181.032 124.705 169.878 139.167C158.061 154.32 145.81 168.738 138.763 186.682C138.767 191.447 138.851 196.219 139.006 200.985C141.416 195.614 144.678 190.751 148.759 186.823C148.364 192.616 147.485 198.244 146.765 203.949C145.807 211.309 145.033 218.481 144.42 225.741C148.991 211.506 157.284 198.613 169.088 190.088C170.776 188.985 172.484 187.933 174.252 187C171.9 191.277 169.299 195.32 167.132 199.621C158.709 215.19 153.265 231.759 148.66 248.848C147.414 253.433 146.272 258.015 145.032 262.59C146.69 272.905 148.652 283.177 150.89 293.385C150.536 276.047 153.172 258.925 160.038 243.208C161.268 240.548 162.596 237.946 164.116 235.452C163.513 239.74 162.869 243.991 162.381 248.271C158.888 277.727 162.041 307.029 165.874 336.338C166.649 342.749 167.474 349.191 168.128 355.652C176.549 381.101 186.475 405.861 197.495 430.109C189.435 400.477 182.523 370.575 176.534 340.443C171.301 313.273 169.952 284.286 179.522 257.892C180.982 253.877 182.732 249.977 184.758 246.251C183.882 250.401 183.165 254.534 182.57 258.661C178.797 285.273 181.892 312.203 186.992 338.403C193.226 371.363 199.313 404.594 201.201 438.167C213.152 463.794 226.285 488.868 240.104 513.613C239.981 511.98 239.863 510.345 239.733 508.711C239.27 504.503 238.846 499.616 238.227 495.43C237.011 485.587 235.076 475.23 232.983 465.539C228.101 443.415 221.308 421.492 213.863 400.108C211.087 391.984 206.58 379.576 203.633 371.388C198.37 356.756 193.318 341.726 191.788 326.139C190.278 310.614 192.366 293.955 201.083 280.745C195.736 294.901 195.743 310.456 198.72 325.108C201.736 339.873 207.48 353.821 213.084 367.786C218.292 380.7 223.334 394.342 227.589 407.612C238.481 442.124 245.637 478.889 240.927 515.101C246.801 525.59 252.794 536.018 258.875 546.405C259.518 539.051 259.921 531.552 259.966 524.285C260.578 463.376 238.875 405.331 233.223 345.003C232.609 337.673 232.226 330.32 232.292 322.966C233.503 328.226 236.068 339.108 237.342 344.317C252.99 409.441 280.068 481.261 259.865 548.103C266.945 560.183 274.137 572.2 281.384 584.195C277.608 557.154 282.065 529.325 283.108 502.267C283.947 483.062 283.672 463.586 282.244 444.413C279.897 410.786 273.716 377.668 265.712 344.905C270.307 354.355 274.209 364.113 277.659 374.043C288.625 406.49 294.124 440.91 294.148 475.168C294.195 484.343 293.813 493.757 293.025 502.889C290.746 530.99 283.857 558.471 282.888 586.666C287.756 594.709 292.643 602.741 297.531 610.765C296.762 595.447 300.292 579.877 303.252 564.99C314.876 507.099 315.225 447.36 304.538 389.321C303.573 384.635 302.567 379.586 301.627 374.848C300.852 371.415 299.112 364.047 298.265 360.446C297.211 355.959 295.624 350.63 294.474 346.12C293.307 341.634 290.86 334.001 289.557 329.498C287.867 324.102 285.821 318.343 284.153 312.951C323.613 386.77 332.808 475.885 312.558 556.903C308.04 575.841 300.543 594.457 299.451 613.912C304.321 621.897 309.192 629.882 314.046 637.872C315.419 639.928 316.708 642.05 317.905 644.227C320.671 648.786 323.424 653.346 326.173 657.909C320.984 637.613 321.321 616.039 323.585 595.274C326.437 569.535 332.046 544.094 334.785 518.356C340.796 462.153 334.982 405.729 320.404 351.084C323.028 356.887 325.676 363.188 327.88 369.163C330.094 374.994 332.333 381.779 334.104 387.764C346.306 428.652 350.127 472.152 345.768 514.598C343.017 543.772 335.069 572.3 330.011 601.087C328.966 606.874 328.081 613.144 327.337 618.971C326.771 624.049 326.307 629.447 326.012 634.59C325.837 639.258 325.75 644.474 325.894 649.109C325.908 652.172 326.237 655.198 326.388 658.258C336.339 674.794 346.151 691.378 355.683 708.078C344.291 691.298 332.716 674.455 321.138 657.495C310.568 650.232 299.083 644.413 287.137 639.756C259.513 628.973 230.394 622.716 202.086 613.75C157.666 600.097 113.71 583.83 72.6689 561.845C61.0127 555.544 49.1473 548.284 40.8313 537.767C50.7905 546.59 62.7711 552.065 74.9253 557.12C117.546 574.797 161.308 589.619 205.248 603.724L205.236 603.725ZM147.016 100.061C147.184 99.0321 147.351 98.0028 147.524 96.9708C146.867 96.0988 146.255 95.2063 145.69 94.2903C146.307 96.1752 146.753 98.1089 147.016 100.061Z" fill="#695E5C"/>
</svg>
