<svg width="255" height="338" viewBox="0 0 255 338" fill="none" xmlns="http://www.w3.org/2000/svg">
<path d="M-12.6927 28.5059C-10.9459 27.895 -9.10378 27.3802 -7.06914 26.9372C-3.63058 26.1846 -0.191987 25.432 3.24153 24.6983C5.11238 24.3021 6.98068 23.9154 8.84899 23.5286L11.0681 23.0745C11.2055 23.0508 11.3122 23.029 11.4139 23.026C11.9409 23.0159 12.1862 23.0413 12.3245 23.3909C12.3676 23.4933 12.4834 23.7764 11.8185 24.1125L9.2087 25.4602C7.23046 26.4831 5.26412 27.499 3.28151 28.5005C0.738916 29.7856 -1.82928 31.4672 -4.58755 33.6323C-6.98906 35.5198 -10.1192 38.0189 -13.0913 40.6813C-17.6105 44.714 -22.0902 47.8093 -26.7981 50.1377C-29.1712 51.317 -31.1442 52.1698 -33.0028 52.8213C-33.7491 53.0852 -34.4854 53.3115 -35.1952 53.5145L-36.3821 53.8419C-39.7174 54.7734 -43.138 55.7224 -46.5713 56.3049C-46.9717 56.369 -47.3927 56.3974 -47.8043 56.4283C-48.4927 56.4758 -49.1904 56.5207 -49.8464 56.7483C-50.5287 56.9991 -51.0606 57.4414 -51.5279 57.8305C-51.8513 58.0968 -52.1773 58.3724 -52.5139 58.5747C-53.1035 58.931 -53.7582 59.2295 -54.401 59.5211C-54.7105 59.66 -54.9987 59.7946 -55.2868 59.9291L-55.4726 60.0205L-55.4572 60.2263C-55.4123 60.9241 -54.8583 61.0019 -54.5284 61.05L-54.3728 61.0715C-53.3133 61.2949 -52.2488 61.4995 -51.1774 61.7159L-50.8902 61.7728C-48.9073 62.1629 -46.6585 62.6142 -44.5002 63.1018C-39.6584 64.1874 -35.3559 65.5923 -31.3438 67.4035C-31.271 67.433 -31.1914 67.4745 -31.1212 67.5135C-30.8823 67.638 -30.6596 67.7481 -30.4006 67.7974C-26.127 68.6702 -22.7896 68.5964 -19.8972 67.5866C-17.7392 66.8337 -15.8774 65.5679 -14.2232 63.7221C-13.3782 62.7889 -12.5469 61.8318 -11.7276 60.8816C-11.029 60.0806 -10.3328 59.289 -9.63417 58.488C-7.90519 56.5513 -5.77932 54.3378 -3.0932 52.6677C-1.55547 51.7083 -0.149852 51.016 1.21915 50.5358C1.56374 50.4164 1.90583 50.3064 2.26421 50.2108L3.12344 49.9772C4.51678 49.5942 5.94338 49.2 7.3567 48.893C8.22215 48.7115 9.09331 48.471 9.93003 48.1708C12.1213 47.4067 14.2076 46.2817 16.3176 44.7295L16.8941 44.3092C18.8534 42.8678 20.8773 41.3732 22.9851 40.0926C24.661 39.0694 26.4163 38.2389 28.175 37.6211C31.7259 36.3743 35.4778 35.9578 39.3316 36.3652C40.8503 36.5301 42.4658 36.7109 44.0257 37.0986C48.7833 38.2726 53.6879 38.8607 58.5931 38.844C59.4602 38.8444 60.2224 38.8974 60.9319 38.9968C61.0474 39.0176 61.273 39.2293 61.3456 39.4101C61.3887 39.5124 61.3823 39.6115 61.3383 39.7006C61.2893 39.8085 61.1718 39.9081 61.0293 39.9506C60.4544 40.1394 59.8801 40.288 59.3178 40.4298L58.7221 40.5828C57.6922 40.8513 56.6623 41.1199 55.6349 41.379C53.447 41.9423 51.1832 42.5257 48.9751 43.1642C48.1654 43.4011 47.3388 43.6636 46.514 43.9569C41.5063 45.7108 36.571 48.3614 31.4241 52.0646C30.9507 52.4016 30.4678 52.7361 29.9874 53.0611L29.8153 53.1764C29.4329 53.4369 29.0386 53.7044 28.6631 53.9768C26.8577 55.2578 25.0841 56.1943 23.2418 56.8603C18.6445 58.5124 14.2981 60.8469 10.3217 63.7948C7.56545 65.8394 4.54497 67.4402 1.33873 68.5676C0.815863 68.7501 0.274204 68.9277 -0.262441 69.0864C-3.55822 70.0587 -7.03272 70.4185 -10.5912 70.1507C-12.5473 69.9997 -14.3895 69.5363 -16.0494 68.7689C-16.3986 68.6047 -16.753 68.4593 -17.1261 68.3089L-17.7526 68.0503L-17.8669 68.1004C-18.2403 68.2524 -18.6207 68.3925 -18.9986 68.5231C-21.247 69.3123 -23.2601 69.5997 -25.166 69.4117L-25.4797 69.3781L-25.4945 69.6968C-25.5034 69.8053 -25.5098 69.9045 -25.5206 69.9823C-25.5409 70.2087 -25.5656 70.4139 -25.3788 70.5446C-21.1218 73.2483 -17.0539 76.6575 -12.9394 80.9465C-11.3138 82.6325 -9.46696 83.3795 -6.95974 83.3555C-4.91806 83.3378 -2.96324 83.0045 -1.16179 82.378C0.183347 81.9115 1.4892 81.2531 2.70549 80.4395C3.20972 80.1006 3.70203 79.7687 4.20626 79.4299C6.3764 77.9543 8.61812 76.4373 10.9988 75.2298C14.0801 73.6656 16.6695 72.5443 19.1414 71.6739C21.1996 70.9549 23.1364 70.4251 25.0681 70.0654C26.9263 69.7163 28.9129 69.6032 30.9688 69.7205C32.8359 69.8275 34.5142 69.9242 36.2218 70.0995C40.9909 70.5908 45.6766 70.001 50.5274 68.3058C51.8298 67.8481 53.1763 67.3013 54.5242 66.6743C55.8149 66.0722 57.1281 65.5367 58.4519 65.0746C63.5594 63.287 68.8639 62.5705 74.2066 62.9534C77.7582 63.2092 81.3968 64.043 85.3109 65.5052C87.4193 66.292 89.3013 67.0585 91.0766 67.8468C97.2303 70.5847 103.881 73.1231 112.63 76.0724C113.462 76.3557 114.293 76.6391 115.12 76.9412C115.672 77.1395 115.77 77.3774 115.753 77.6654C115.738 77.8731 115.596 78.0266 115.318 78.1235C115.163 78.1729 114.983 78.2053 114.78 78.2114C114.496 78.216 114.208 78.1994 113.923 78.1733C108.418 77.757 102.681 77.8637 96.3224 78.4892C94.2303 78.695 92.0523 78.8072 90.1179 78.9141L89.8838 78.9219C88.841 78.9753 87.7956 79.038 86.7597 79.1033C86.1115 79.1514 85.477 79.2235 84.8025 79.2948C84.5019 79.3252 83.5148 79.4338 83.5148 79.4338L83.6411 79.7904C83.6636 79.8569 83.6861 79.9234 83.7018 79.978C83.7436 80.1607 83.7905 80.3245 83.9447 80.4263C84.6669 80.8921 85.3986 81.3604 86.1302 81.8287C87.1985 82.5082 88.1966 83.1488 89.1922 83.7987C91.2674 85.1615 92.9573 85.9672 94.6671 86.4354C99.0044 87.5976 103.264 89.8382 108.087 93.4799C109.286 94.3861 110.247 95.1276 111.107 95.832C111.182 95.8923 111.543 96.2008 111.33 96.4666C111.207 96.6252 110.975 96.7749 110.697 96.8718C110.643 96.8874 110.588 96.903 110.533 96.9187C110.382 96.9586 110.146 96.8956 109.93 96.8376L109.732 96.7847L108.935 96.6011C108.174 96.4277 107.299 96.2334 106.485 95.9953C104.176 95.3161 101.823 95.0686 99.5015 95.2635C96.5724 95.5072 93.6496 95.2383 90.8107 94.4675C89.5218 94.1222 88.2159 93.8025 86.9476 93.4929L86.7406 93.4374C85.764 93.206 84.7899 92.9652 83.8302 92.708C79.4289 91.559 74.9491 91.5687 70.1592 92.7356C63.2436 94.422 57.5442 95.2948 52.2228 95.4723C44.5516 95.726 37.7339 95.805 31.3844 95.7171C26.4335 95.6409 21.2943 94.5362 16.0917 92.4262C15.3994 92.1499 14.707 91.8736 13.9959 91.5923L12.5196 91.0052L12.3877 91.1211C10.7767 92.5045 9.10099 93.9412 7.07607 94.649C6.42014 94.8766 5.76555 95.0239 5.07217 95.0902L4.67936 95.1261L4.82198 95.4971C5.1917 96.413 5.73399 96.7599 6.20858 97.0585C6.29511 97.112 6.38164 97.1654 6.46564 97.2283L9.1607 99.1C12.4745 101.41 15.91 103.792 19.3211 106.078C21.9567 107.833 24.7071 108.519 27.4946 108.127C28.9938 107.913 30.4785 107.716 31.9752 107.512C34.0473 107.23 36.1168 106.958 38.1846 106.655C44.7455 105.69 50.7387 106.167 56.5181 108.119C57.2393 108.362 57.9537 108.594 58.6775 108.829L58.8092 108.864C59.6433 109.138 60.4775 109.412 61.3091 109.695C65.6598 111.183 70.3279 111.638 75.1673 111.039C80.3996 110.404 85.5176 109.819 90.6614 109.664C93.8928 109.572 97.0944 109.704 100.195 110.061C107.277 110.879 113.901 113.179 119.866 116.884C120.497 117.276 122.103 118.281 122.103 118.281C123.864 119.388 125.868 120.641 127.847 121.796C129.471 122.735 131.226 123.599 133.054 124.341C137.125 126.007 141.064 128.131 144.868 130.189L145.697 130.633L145.911 130.74C146.496 131.038 146.725 131.201 146.618 131.676C146.569 131.895 146.48 132.002 146.311 132.068C146.078 132.147 145.696 132.145 145.137 132.046C144.164 131.876 143.194 131.696 142.224 131.517C140.445 131.192 138.648 130.862 136.866 130.586C135.219 130.336 133.539 130.209 131.908 130.084L131.592 130.06C126.056 129.646 121.083 128.676 116.391 127.106C108.818 124.583 101.059 123.018 95.1447 121.948C89.8755 120.99 84.391 120.609 78.8399 120.816C76.6695 120.9 74.4553 120.922 72.312 120.942L69.9842 120.974C66.7159 121.016 63.4764 120.612 60.3314 119.779C59.3906 119.527 58.4328 119.301 57.4775 119.065C55.4985 118.585 53.47 118.102 51.5585 117.408C48.2684 116.214 45.0622 114.669 41.9545 113.171C39.6952 112.082 37.1269 110.677 35.0836 108.406L35.014 108.326L24.4856 109.61L24.9437 110.045C25.1367 110.228 25.3135 110.396 25.4645 110.547C25.8154 110.894 26.0642 111.132 26.3463 111.358C29.1576 113.624 32.0789 116.232 35.2587 119.343C36.5629 120.61 38.0279 121.729 39.4414 122.813L39.7191 123.019C41.4592 124.352 43.5402 125.091 45.9054 125.221C47.088 125.286 48.3867 125.331 49.9879 125.377L50.7295 125.394C52.7723 125.448 54.8741 125.507 56.9433 125.537C62.4282 125.615 67.8407 126.904 73.0373 129.375C76.15 130.855 79.2947 132.403 82.3315 133.902C83.7844 134.614 85.1997 135.316 86.6175 136.009C87.1517 136.273 87.686 136.537 88.2108 136.799L88.478 136.931C89.9189 137.65 91.4044 138.391 92.8913 139.051C97.8817 141.276 103.177 142.775 108.627 143.51C112.51 144.036 117.1 144.63 121.735 145.096C127.835 145.702 133.65 147.179 139.02 149.495C143.033 151.226 147.1 153.022 151.04 154.763L152.428 155.377C152.977 155.625 153.558 155.902 154.001 156.283C154.099 156.369 154.175 156.763 154.108 157.048C154.103 157.066 153.962 157.18 153.717 157.265C153.672 157.284 153.629 157.292 153.587 157.301C153.361 157.352 153.074 157.295 152.796 157.24C147.382 156.183 141.659 155.678 135.775 155.735C130.458 155.783 125.095 155.062 120.549 154.338C119.157 154.116 117.776 153.887 116.386 153.656L116.028 153.6C114.85 153.405 113.672 153.211 112.494 153.016C106.68 152.094 101.811 151.636 97.1716 151.603C90.1602 151.539 83.37 150.123 76.9797 147.403L76.3275 147.127C73.1958 145.794 69.9844 144.419 66.9388 142.877C60.3699 139.544 54.6912 135.259 50.0732 130.139C49.2172 129.194 48.4241 128.165 47.8209 127.368C47.3611 126.751 46.7855 126.415 46.0239 126.322C45.1751 126.215 44.322 126.088 43.4689 125.96L42.0524 125.752L41.948 125.915C41.552 126.565 41.9768 127.012 42.2275 127.281C42.2832 127.336 42.3296 127.389 42.376 127.442C45.1739 130.924 47.5434 134.312 49.6273 137.825C51.8239 141.519 53.5917 145.421 55.0383 148.754C55.5751 149.986 56.3494 151.011 57.4049 151.889C59.5718 153.699 61.7983 154.911 64.1917 155.613C66.2233 156.198 68.3197 156.578 70.6177 156.77L72.8192 156.946C73.8574 157.023 74.865 157.101 75.8769 157.201C81.7252 157.729 87.3067 159.366 92.4659 162.09C95.2668 163.566 97.7291 164.952 99.9717 166.33C104.633 169.182 109.749 171.198 115.176 172.32C116.257 172.539 117.333 172.776 118.411 173.005L118.736 173.072C119.584 173.258 120.434 173.436 121.284 173.613C127.511 174.909 132.806 177.275 137.472 180.825C138.578 181.665 139.729 182.488 140.756 183.207C141.366 183.643 141.961 184.054 142.542 184.482L142.729 184.613C143.042 184.838 143.364 185.066 143.593 185.339C143.677 185.442 143.714 185.754 143.653 185.869C143.614 185.939 143.453 186.088 143.296 186.147C142.637 186.01 141.975 185.772 141.304 185.451C137.322 183.568 133.173 182.456 128.979 182.149C127.16 182.014 125.294 181.978 123.434 182.034C117.337 182.206 110.8 181.654 103.457 180.342C101.233 179.948 98.9664 179.603 96.7652 179.275L94.4485 178.927C88.6772 178.036 82.9193 175.928 76.8462 172.476C73.3382 170.477 70.3604 167.854 68.0183 164.665C66.3389 162.39 64.5756 159.901 62.5964 157.051C62.1235 156.37 61.6981 155.812 60.9569 155.492C60.4245 155.259 59.9173 154.931 59.375 154.584C58.9286 154.293 58.4797 154.012 57.9787 153.736L57.5386 153.497L57.5348 154.001C57.5339 154.192 57.5244 154.341 57.5198 154.471C57.5082 154.74 57.491 154.917 57.5567 155.085C59.4773 160.299 60.7814 165.781 62.0387 171.1L62.4052 172.63C63.1843 175.894 65.2843 178.03 68.6587 178.984C71.6028 179.813 74.6476 180.418 77.5864 181.003L77.784 181.056C78.8108 181.251 79.8352 181.455 80.857 181.668C81.4573 181.799 82.0796 181.885 82.6781 181.984C83.2979 182.08 83.8518 182.158 84.405 182.276C88.5118 183.094 91.7897 184.446 94.4245 186.392C98.506 189.412 103.21 191.388 108.799 192.432C109.732 192.601 110.647 192.837 111.581 193.077C115.662 194.14 119.924 195.433 123.335 198.586L123.472 198.713L124.105 198.459C124.419 198.342 124.714 198.219 125.002 198.085L125.886 197.646C127.87 196.675 129.9 195.686 131.883 194.685C132.931 194.159 133.975 193.612 135.017 193.074L135.241 192.953C137.15 191.962 139.116 190.946 141.072 190.008C141.696 189.711 142.398 189.425 143.298 189.112C143.767 188.945 144.242 188.79 144.708 188.632C145.062 188.515 145.416 188.398 145.76 188.279C146.038 188.182 146.397 188.198 146.744 188.22C146.864 188.222 146.969 188.321 147.03 188.468C147.087 188.594 147.077 188.672 147.065 188.679C146.734 189.085 146.373 189.492 145.969 189.757C144.689 190.583 143.352 191.395 141.885 192.242C139.919 193.369 138.382 194.853 137.168 196.787C135.408 199.592 133.584 201.806 131.587 203.54C131.443 203.663 131.348 203.829 131.244 203.992C131.191 204.079 131.125 204.172 131.055 204.285L130.922 204.481L131.597 205.196C131.966 205.588 132.335 205.979 132.716 206.363C134.926 208.579 137.248 210.976 139.206 213.679C139.56 214.167 139.821 214.62 140.008 215.053C140.051 215.155 140.026 215.25 139.989 215.31C139.918 215.463 139.772 215.595 139.615 215.654C139.527 215.681 139.444 215.689 139.366 215.678C139.117 215.631 138.922 215.569 138.76 215.495C138.448 215.341 138.116 215.151 137.747 214.911C133.319 212.091 128.422 209.972 123.175 208.627C121.922 208.301 120.969 208.318 119.983 208.649C115.544 210.162 110.73 211.191 104.345 211.991C101.601 212.335 99.0395 212.334 96.529 211.995C91.7933 211.341 87.5875 209.387 84.0501 206.18C83.1564 205.376 82.1356 204.82 80.826 204.439C78.4232 203.735 76.0975 202.517 73.3035 200.487C72.881 200.182 72.4584 199.878 72.024 199.58L71.1859 198.982L71.0056 199.166C70.3686 199.812 70.7061 200.396 70.9033 200.752L71.8336 202.473C73.0775 204.793 74.3721 207.187 75.7416 209.49C76.8561 211.352 78.1848 213.13 79.3482 214.621C81.2839 217.106 83.9432 218.434 87.2559 218.565C90.0892 218.679 92.8441 218.257 95.8984 217.735C98.9527 217.212 101.288 216.85 103.467 216.546C106.714 216.095 110.108 216.339 113.572 217.257C115.736 217.837 117.925 218.474 120.039 219.091L120.721 219.293C125.002 220.552 128.941 221.355 132.751 221.74C138.699 222.346 144.645 223.939 150.438 226.48C152.378 227.332 154.441 227.986 156.427 228.629L157.475 228.97C158.718 229.374 160.011 229.741 161.164 230.07C162.064 230.321 162.878 230.559 163.698 230.809C164.145 230.949 164.582 231.197 164.9 231.404C164.928 231.411 164.972 231.513 164.95 231.669C164.925 231.874 164.819 232.047 164.74 232.077C164.54 232.144 164.329 232.219 164.171 232.206C163.619 232.159 163.086 232.077 162.537 231.98C156.308 230.916 150.09 230.864 144.058 231.849C138.344 232.778 132.634 232.449 127.085 230.881C122.502 229.582 117.886 229.233 113.981 229.054C111.519 228.949 109.035 228.697 106.638 228.458C104.301 228.225 101.921 227.547 99.5603 226.46C96.0813 224.842 93.2283 223.372 90.66 221.403C89.2559 220.321 87.4897 219.273 85.1232 219.637L85.0806 219.646L84.9663 219.696C84.5533 220.372 85.0096 220.777 85.254 220.993L85.3612 221.083C89.8798 225.369 94.5805 228.524 99.7177 230.728C100.433 231.03 101.208 231.298 102.024 231.527C107.551 233.028 113.267 234.993 119.006 237.358C120.921 238.153 122.883 238.921 124.782 239.662L126.817 240.459C129.99 241.713 133.505 242.635 137.539 243.272C143.305 244.182 149.064 245.12 154.832 246.06C156.166 246.276 157.494 246.511 158.825 246.737L160.974 247.111C172.073 249.006 182.487 253.268 191.937 259.774L192.754 260.336C193.707 260.994 194.602 261.607 195.482 262.236C198.306 264.264 200.972 265.946 203.639 267.356L203.744 267.415C204.328 267.722 204.927 268.044 205.423 268.45C205.589 268.585 205.696 268.976 205.707 269.272C205.697 269.309 205.603 269.435 205.368 269.524C205.211 269.582 205.045 269.599 204.913 269.563C204.49 269.45 204.055 269.303 203.639 269.161L203.123 268.983L199.631 267.825C196.687 266.845 193.762 265.869 190.822 264.91C190.08 264.671 189.306 264.474 188.567 264.296L188.031 264.152C182.064 262.674 176.045 260.638 170.126 258.114C162.225 254.747 154.106 252.571 146.012 251.653C141.52 251.145 136.777 250.479 131.058 249.582C125.641 248.726 120.228 247.477 114.972 245.867C110.825 244.595 106.974 242.524 103.515 239.701C100.865 237.549 99.1841 235.203 98.371 232.555C98.0503 231.531 97.5109 230.872 96.6085 230.439C93.1001 228.743 89.6991 226.42 86.188 223.341C85.983 223.165 85.7567 222.994 85.5442 222.846L85.1311 222.544L84.9691 222.621C84.2735 222.959 84.4905 223.542 84.5812 223.768L84.9827 224.904C85.4672 226.294 85.9587 227.696 86.5055 229.043C87.4401 231.35 88.7695 233.502 90.45 235.434C92.5941 237.894 94.8091 240.353 96.964 242.736L97.3306 243.137C99.4159 245.44 101.537 247.985 102.989 251.036L103.144 251.36C103.669 252.448 104.212 253.582 104.538 254.738C106.398 261.307 109.876 266.878 115.167 271.744C117.934 274.29 120.235 277.408 122.197 281.261C123.711 284.228 125.035 287.568 126.238 291.47C127.961 297.044 129.533 302.053 131.423 306.967C131.631 307.506 131.755 308.175 131.789 308.95C131.798 309.144 131.637 309.293 131.47 309.349C131.304 309.405 131.149 309.384 131.041 309.294C130.68 308.986 130.323 308.588 129.986 308.114C129.372 307.244 128.749 306.371 128.126 305.498C126.499 303.217 124.821 300.861 123.282 298.473C119.767 293.003 115.645 287.613 110.297 281.491C109.379 280.438 108.473 279.379 107.558 278.317L106.065 276.586C103.303 273.385 101.005 269.916 99.2165 266.28C97.2199 262.216 94.7174 258.308 91.5806 254.322C90.1278 252.48 88.2604 250.004 86.7309 247.244C84.2955 242.861 83.0985 238.032 83.173 232.899C83.1925 231.321 83.4923 229.788 84.0487 228.314C84.4 227.38 84.4148 226.496 84.0834 225.55C83.8221 224.794 83.5795 224.044 83.3395 223.284C83.0276 222.303 82.7044 221.288 82.3429 220.304C82.1103 219.667 81.6751 218.996 81.1343 218.417C78.0469 215.15 75.3353 211.307 72.3514 205.96C72.0922 205.497 71.8091 205.048 71.4942 204.53L70.7102 203.241L70.468 203.731C70.3825 203.9 70.3114 204.052 70.236 204.183C70.075 204.483 69.9505 204.722 69.873 204.973C68.6354 208.877 68.2703 213.024 68.7403 217.668C68.9369 219.606 69.2316 221.329 69.6351 222.909C70.5586 226.575 71.7217 230.89 73.3116 235.117C74.2704 237.674 75.1445 240.207 75.8716 242.348C77.9249 248.384 78.6889 254.79 78.1502 261.392L78.0885 262.111C78.0172 262.98 77.9502 263.869 77.8413 264.727C77.1091 270.471 77.238 276.576 78.2199 283.938C79.1272 290.675 79.2498 297.857 78.5876 305.898L78.5787 306.007C78.5481 306.422 78.5124 306.856 78.3577 307.208C78.2595 307.424 78.0189 307.682 77.85 307.748C77.6229 307.767 77.2699 307.542 77.1503 307.348C76.9368 306.978 76.7912 306.506 76.6909 305.864C76.5284 304.852 76.3872 303.836 76.246 302.82C76.0792 301.636 75.9181 300.544 75.7474 299.45C75.5102 297.964 74.9871 294.648 74.9871 294.648C74.2107 289.68 73.4036 284.563 72.5074 279.553C72.0624 277.075 71.3559 274.405 70.2976 271.166C69.2236 267.874 68.0675 264.549 66.9451 261.324L66.9001 261.191C66.0078 258.612 65.1062 256.031 64.2472 253.441C62.7105 248.865 61.4316 244.832 60.3249 241.096C59.4575 238.162 58.8744 235.182 58.5913 232.212C58.1674 227.772 58.5806 223.86 59.8485 220.256C60.7368 217.732 61.8936 215.258 63.0089 212.865L63.2442 212.363C63.9795 210.785 65.1318 209.42 66.6817 208.303C67.8321 207.472 68.5091 206.413 68.7932 204.976C68.8683 204.583 68.9861 204.181 69.0895 203.795L69.2029 203.372C69.5962 201.904 69.5051 200.438 68.9048 198.764C68.0087 196.275 67.1942 193.708 66.4185 191.221L66.3648 191.045C66.0485 190.043 65.7417 189.043 65.4229 188.05C65.3691 187.874 65.3128 187.708 65.1996 187.415L64.5706 185.623L64.3697 186.749C64.3097 187.086 64.2579 187.354 64.2119 187.564C64.1418 187.938 64.0856 188.186 64.0791 188.436C64.0449 189.203 64.0321 189.966 64.0073 190.736C63.9822 191.808 63.9476 192.878 63.8943 193.943C63.7164 197.354 62.6817 200.576 60.8153 203.514L60.7254 203.661C59.3664 205.798 57.9684 208.005 56.4562 210.111C51.9853 216.334 49.131 223.788 47.7586 232.899C46.7903 239.335 46.8428 246.327 47.9212 254.27L48.2266 256.48C48.4499 258.092 48.6889 259.76 48.8858 261.396C49.3181 265.051 49.2355 268.558 48.6512 271.83C47.5516 277.929 46.4306 284.031 45.3121 290.125L44.4348 294.942C44.3717 295.328 44.299 295.712 44.1493 296.045C44.0927 296.181 43.8747 296.355 43.6871 296.415C43.35 296.507 43.1508 296.272 43.0789 296.051C42.9645 295.687 42.9073 295.299 42.867 294.885L42.8129 294.447C42.5745 292.891 42.0132 289.039 42.0132 289.039C41.3815 284.736 40.7261 280.295 40.0267 275.943C39.648 273.592 39.1019 271.228 38.4063 268.893C36.7672 263.382 35.9971 258.315 36.0871 253.388C36.18 247.585 35.6541 241.908 34.8271 235.172C34 228.436 34.4692 221.755 36.2174 215.306C37.4218 210.849 39.6501 206.898 43.0338 203.227C44.6678 201.456 46.6099 199.778 49.1475 197.947C53.2971 194.955 57.2161 191.205 61.4736 186.155C62.9489 184.412 63.5582 182.74 63.3835 180.908L63.371 180.804C63.3475 180.516 63.3172 180.215 63.2372 179.911C62.0031 175.184 60.7664 170.466 59.5084 165.753C59.4641 165.58 59.372 165.434 59.2336 165.235C59.1528 165.123 59.077 164.992 58.9806 164.825L58.6544 164.274L58.441 164.882C58.3837 165.058 58.327 165.194 58.2899 165.295C58.2206 165.478 58.1665 165.605 58.1595 165.744C57.5124 172.186 54.9513 177.943 52.1504 183.767C50.7427 186.688 48.7662 189.435 45.9116 192.412C42.79 195.669 40.3692 198.419 38.2949 201.08C35.1825 205.056 32.8965 208.92 31.2988 212.889C29.1062 218.362 26.1048 223.467 22.3724 228.063C22.0394 228.478 21.7157 228.896 21.399 229.325C21.1451 229.67 20.8818 230.013 20.6185 230.356C17.065 234.849 14.365 239.733 12.587 244.863C12.1526 246.108 11.6379 247.351 11.1358 248.548C10.8897 249.127 10.6752 249.665 10.4512 250.2C9.26054 253.138 7.46043 255.791 5.71625 258.349L5.08143 259.288C5.0475 259.34 4.97707 259.452 4.94381 259.463L4.84147 259.506C4.76047 259.545 4.6701 259.582 4.59163 259.611C4.39202 259.678 4.32617 259.661 4.32617 259.661C4.21579 259.621 4.03354 259.361 4.01054 259.183C3.9689 258.849 4.06285 258.461 4.16301 258.125C5.83959 252.282 6.38647 246.176 6.91806 240.278L6.93335 240.071C7.25643 236.456 7.59978 233.18 7.98311 230.056C8.39553 226.748 9.41649 223.503 11.1246 220.139C12.7717 216.889 14.3153 213.612 15.6049 210.832C17.6222 206.502 20.0366 202.308 22.3849 198.249C23.0419 197.114 23.6895 195.976 24.3371 194.839L25.5211 192.716L25.0801 192.668C24.9621 192.657 24.8467 192.636 24.7526 192.611C24.5218 192.569 24.3217 192.526 24.1221 192.593L23.7536 192.726C20.5832 193.833 17.2011 194.036 13.9326 194.229L13.339 194.262C9.84591 194.465 6.8198 194.996 4.07629 195.864C3.79133 195.949 3.51326 196.046 3.2352 196.143C-1.10464 197.662 -4.96877 200.116 -8.57946 203.656C-9.01666 204.083 -9.45636 204.52 -9.88667 204.959C-10.6292 205.698 -11.3886 206.463 -12.1569 207.184C-14.459 209.341 -17.1646 211.046 -19.7842 212.694C-20.5006 213.147 -21.2051 213.593 -21.9002 214.042C-22.0076 214.104 -22.1269 214.173 -22.2813 214.223C-22.4809 214.29 -22.6968 214.343 -22.8914 214.392C-23.0432 214.432 -23.1642 214.319 -23.208 214.257C-23.3008 214.151 -23.3664 213.982 -23.3098 213.846C-23.1991 213.584 -23.0576 213.319 -22.8879 213.062L-19.4766 207.895C-18.0536 205.746 -16.6399 203.593 -15.2194 201.453C-13.6504 199.06 -12.6155 196.665 -12.0622 194.111C-11.9776 193.72 -11.8837 193.332 -11.7803 192.946C-11.6921 192.617 -11.6139 192.325 -11.5521 192.019C-10.2535 186.458 -7.78333 181.19 -4.00431 175.931C-3.29287 174.932 -2.57454 173.944 -1.85369 172.947L-1.54889 172.525C-0.682852 171.325 0.183159 170.125 1.03978 168.923C1.24779 168.636 1.43265 168.322 1.65647 167.938C1.82433 167.651 1.96769 167.417 2.13303 167.138L2.65041 166.299L1.75267 166.714C1.50972 166.83 1.31702 166.91 1.15756 166.978C0.883866 167.096 0.700552 167.178 0.540431 167.287C-2.26401 169.248 -5.47582 170.847 -9.27146 172.18C-11.287 172.89 -13.5283 173.54 -16.126 174.165C-17.3122 174.452 -18.5066 174.808 -19.676 175.221C-21.6249 175.908 -23.603 176.78 -25.565 177.817C-27.5294 178.864 -29.2838 180.481 -31.0849 182.913C-31.653 183.678 -32.1979 184.47 -32.7284 185.246C-33.1426 185.851 -33.5568 186.456 -33.9873 187.046C-34.4712 187.723 -34.9004 188.233 -35.3375 188.661C-35.352 188.677 -35.4091 188.702 -35.4782 188.734C-35.6564 188.797 -35.8051 188.788 -35.8214 188.773C-36.0408 188.614 -36.2362 188.289 -36.2397 188.076C-36.2412 187.743 -36.1234 187.341 -35.8812 186.851C-35.0548 185.197 -34.2034 183.6 -33.5569 182.392C-33.218 181.767 -32.8816 181.151 -32.5333 180.528C-31.912 179.414 -31.2713 178.265 -30.7059 177.095C-29.746 175.094 -28.4712 173.61 -26.816 172.551C-25.1157 171.474 -23.7154 170.538 -22.4167 169.606C-21.4936 168.945 -20.5347 168.265 -20.1196 166.904L-20.0213 166.537L-20.3896 166.519C-20.4793 166.515 -20.5665 166.501 -20.6349 166.493C-20.8708 166.47 -21.0451 166.444 -21.2303 166.495C-24.4715 167.452 -28.0886 168.005 -32.2738 168.195C-32.9169 168.224 -33.5651 168.272 -34.2108 168.311C-34.982 168.366 -35.6609 168.416 -36.3348 168.448C-36.732 168.462 -37.0828 168.53 -37.3847 168.64C-38.1857 168.92 -38.7417 169.527 -39.0791 170.485C-39.7886 172.494 -40.5716 174.512 -41.3368 176.465L-42.2287 178.777L-42.4093 179.263C-42.595 179.768 -42.7926 180.28 -43.0134 180.765C-43.1581 181.08 -43.3051 181.252 -43.4715 181.308C-43.5594 181.335 -43.661 181.338 -43.7764 181.317C-44.1057 181.229 -44.2742 180.992 -44.3577 180.476C-44.4025 180.192 -44.4097 179.917 -44.4187 179.612C-44.4298 179.428 -44.4315 179.246 -44.4426 179.062L-44.4895 178.484C-44.6163 176.887 -44.7368 175.342 -44.8761 173.793C-44.8959 173.565 -44.9703 173.354 -45.0466 173.112C-45.1028 172.945 -45.1478 172.812 -45.1878 172.66L-45.3084 172.245L-45.6506 172.506C-45.8924 172.693 -46.1267 172.852 -46.3421 173.017C-46.8658 173.39 -47.2796 173.693 -47.6779 174.05C-48.6206 174.897 -49.5496 175.767 -50.4692 176.64L-50.5747 176.733C-51.1294 177.26 -51.6909 177.775 -52.2456 178.302C-52.488 178.529 -52.7317 178.686 -52.9646 178.765C-53.1095 178.816 -53.3562 178.871 -53.4859 178.716C-53.7985 178.339 -53.6481 177.966 -53.4129 177.465C-53.0971 176.813 -52.7908 176.159 -52.475 175.508C-51.6202 173.71 -50.7603 171.893 -49.8027 170.163C-49.0255 168.768 -48.0239 167.514 -46.8878 166.134C-46.1979 165.291 -45.7891 164.442 -45.6166 163.46C-45.3924 162.209 -45.1085 160.924 -44.8556 159.792L-44.5818 158.544C-44.1433 156.493 -43.458 153.823 -42.1269 151.377C-42.0294 151.201 -42.0097 151.015 -41.9926 150.838C-41.9774 150.781 -41.9811 150.72 -41.9729 150.652L-41.9211 150.383L-42.1846 150.312C-42.241 150.297 -42.2975 150.282 -42.3539 150.267C-42.5088 150.205 -42.6756 150.151 -42.8514 150.204C-46.5592 151.51 -50.8622 153.231 -54.6911 156.117C-57.3236 158.115 -60.2206 159.819 -63.2916 161.194L-63.4417 161.265C-63.6275 161.356 -63.7418 161.406 -63.8535 161.447C-63.932 161.477 -64.0079 161.497 -64.0694 161.5C-64.3367 161.519 -64.607 161.437 -64.649 161.405C-64.7937 161.155 -64.834 160.741 -64.7736 160.666C-64.186 159.866 -63.6147 159.051 -63.0553 158.243C-61.4162 155.889 -59.7192 153.469 -57.5711 151.474C-55.6534 149.698 -53.4486 148.131 -51.0045 146.8C-47.4754 144.881 -44.6561 142.037 -42.3833 138.108C-40.2707 134.439 -38.6345 131.419 -37.2239 128.6C-35.693 125.521 -33.8546 122.837 -31.6017 120.376C-30.6342 119.324 -29.8149 118.374 -29.0672 117.465C-26.4017 114.216 -24.8144 110.588 -24.3423 106.681C-24.1807 105.363 -24.0405 104.049 -23.9071 102.723C-23.7376 101.075 -23.5638 99.4473 -23.3598 97.8583C-22.8531 93.8597 -21.5637 90.101 -19.5336 86.7022C-19.169 86.094 -18.7667 85.4959 -18.3789 84.9141C-18.1947 84.6408 -18.0131 84.3769 -17.8383 84.101L-16.7038 82.3882L-16.7394 82.2577C-17.4149 79.9994 -18.6656 78.0811 -19.8724 76.225L-20.1511 75.7974C-20.3446 75.5035 -20.6293 75.2861 -20.895 75.0737L-21.0956 74.9191C-25.5949 71.3136 -30.781 68.5021 -36.5109 66.5534C-36.6871 66.4961 -36.8734 66.4764 -37.0836 66.4705C-37.2323 66.4609 -37.3408 66.452 -37.4682 66.4381L-37.9186 66.3879L-37.7723 66.8204C-37.7411 66.9296 -37.7073 67.0294 -37.683 67.1267C-37.6186 67.3759 -37.563 67.5824 -37.4409 67.7664C-34.5604 71.9566 -33.2278 76.7304 -33.3625 82.3514C-33.4709 86.971 -33.1335 91.2059 -32.3353 95.302C-31.8869 97.5801 -31.7849 99.9469 -31.7349 102.169C-31.6278 107.038 -32.5398 111.533 -34.4551 115.557C-34.5948 115.853 -34.7344 116.148 -34.8483 116.46C-37.0135 122.132 -40.366 127.042 -44.8237 131.071C-48.3505 134.26 -50.9528 138.252 -52.5697 142.931C-52.853 143.763 -53.2073 144.596 -53.5445 145.403L-53.6257 145.593C-53.7289 145.828 -53.8798 146.09 -54.0683 146.342C-54.1022 146.393 -54.1619 146.427 -54.2309 146.459C-54.364 146.504 -54.5434 146.497 -54.6933 146.416C-54.808 146.355 -54.887 146.274 -54.9182 146.164C-55.0232 145.803 -55.083 145.424 -55.0914 145.079C-55.1305 141.086 -55.1671 137.083 -55.1755 133.087C-55.1886 129.373 -54.2495 125.793 -52.3738 122.443C-51.9721 121.734 -51.5371 121.014 -51.1121 120.331C-50.789 119.802 -50.4589 119.286 -50.1521 118.743L-49.7409 118.036C-48.9651 116.721 -48.0893 115.222 -47.2963 113.73C-45.7349 110.8 -44.9536 107.47 -44.7687 102.942C-44.7281 102.075 -45.0202 101.321 -45.6857 100.568C-46.9676 99.1056 -48.4606 97.8282 -50.1183 96.7891L-51.1214 96.1674C-51.865 95.7059 -52.6274 95.2395 -53.3634 94.7498C-57.1901 92.1716 -59.5593 89.046 -60.6 85.1773C-61.1072 83.307 -62.0022 81.4538 -63.3445 79.5008C-64.1931 78.2651 -64.9521 77.0331 -65.5819 75.8459C-67.1307 72.9704 -67.6175 69.7443 -67.0342 66.2502C-66.8129 64.8977 -66.8222 63.7659 -67.6252 62.623C-67.976 62.1256 -68.2118 61.5381 -68.4564 60.9078C-68.5791 60.6128 -68.6897 60.3109 -68.8312 60.0108L-68.8744 59.9085L-70.5166 59.6399C-71.5467 59.4949 -72.5673 59.3526 -73.593 59.229C-76.135 58.9311 -78.677 58.6331 -81.2283 58.3327L-87.8876 57.5567C-88.2295 57.5155 -88.6278 57.4592 -88.9514 57.312C-88.9746 57.2856 -89.0522 57.1237 -89.0483 57.0339C-89.0419 56.9348 -88.9282 56.7737 -88.8899 56.7436C-88.3715 56.6909 -87.7277 56.6214 -87.1217 56.693C-85.3507 56.8953 -83.5798 57.0976 -81.8088 57.2998C-76.036 57.9593 -70.0957 58.6333 -64.2735 59.4472C-61.4048 59.8428 -58.7324 59.6916 -56.1095 58.9726C-55.7819 58.8789 -55.4636 58.7826 -55.1429 58.677C-53.541 58.118 -52.2564 57.3126 -51.2198 56.229C-50.0149 54.9687 -48.8155 53.6162 -47.54 52.0924C-45.3409 49.4549 -43.1324 47.3845 -40.8014 45.7604C-39.7471 45.0244 -38.558 44.4254 -37.1677 43.9408C-36.69 43.7763 -36.1935 43.6169 -35.6619 43.477C-34.2378 43.0922 -33.2738 42.806 -32.4703 42.5171C-29.3425 41.4191 -28.2753 40.3337 -25.0416 36.733C-22.5279 33.9377 -20.0057 31.9009 -17.3243 30.5119C-15.8609 29.7545 -14.2783 29.0794 -12.6193 28.4953L-12.6927 28.5059ZM-33.125 51.6592C-26.6485 49.3913 -20.5813 45.7532 -14.5869 40.5427C-11.9063 38.2156 -9.18433 35.9602 -6.15843 33.4735C-3.74108 31.4894 -1.16903 29.7181 1.49055 28.2223C2.04871 27.908 2.60939 27.5843 3.18451 27.2443L4.52312 26.4635L4.1401 26.1996C3.39535 25.6672 2.75202 25.8478 2.23672 26.0021C2.12753 26.0334 2.02771 26.0671 1.92101 26.089C-0.170758 26.557 -2.26253 27.0251 -4.35683 27.5026L-8.36029 28.4063C-9.77613 28.7227 -11.1506 29.1107 -12.4318 29.5641C-17.2518 31.2574 -21.1299 33.8383 -24.2763 37.4523C-25.122 38.4257 -26.0499 39.367 -26.9394 40.2782L-27.0524 40.3992C-28.4276 41.8055 -29.9924 42.8282 -31.7154 43.4253C-31.8604 43.4772 -32.0148 43.5266 -32.1666 43.5666L-33.0573 43.8422C-33.9812 44.1291 -34.9026 44.4065 -35.8309 44.6721C-36.1679 44.7633 -36.4981 44.8664 -36.8213 44.9815C-38.169 45.4573 -39.456 46.1209 -40.6517 46.9702C-42.572 48.3414 -44.3093 49.9329 -45.811 51.6986C-45.975 51.8967 -46.1578 52.0897 -46.3312 52.2852C-46.9764 52.9997 -47.6242 53.7237 -48.1468 54.7332L-48.3619 55.1596L-47.8894 55.1652C-47.6698 55.1736 -47.481 55.1838 -47.2947 55.2035C-46.9101 55.236 -46.5845 55.2627 -46.2688 55.1759C-45.1987 54.908 -44.1311 54.6495 -43.0636 54.391C-40.2193 53.7112 -37.2871 53.0044 -34.4293 52.0862C-33.99 51.9518 -33.5575 51.8055 -33.1225 51.6498L-33.125 51.6592ZM-44.7471 95.8989C-44.7219 95.8049 -44.6804 95.7252 -44.6458 95.6337C-44.557 95.4154 -44.4708 95.2066 -44.4479 94.9707C-44.0376 90.2404 -42.4917 85.5623 -39.7038 80.6522C-39.0392 79.4892 -38.4348 78.2495 -37.8895 77.1553C-37.4297 76.2297 -36.9869 75.3299 -36.5235 74.4659C-36.0015 73.4965 -36.008 72.6174 -36.5452 71.687C-37.3855 70.2316 -38.2139 68.7693 -39.014 67.3146C-39.7934 65.8957 -40.9744 65.0347 -42.737 64.6128C-50.4527 62.737 -58.1717 61.4754 -66.0614 60.2488C-66.2947 60.2165 -66.5225 60.2765 -66.7623 60.3433C-66.8834 60.3814 -67.0021 60.4102 -67.1207 60.4389L-67.4407 60.5044L-67.3445 60.8226C-66.8126 62.4878 -65.9691 63.8936 -64.7778 65.1304C-63.3961 66.5595 -61.9258 67.9215 -60.8021 68.9587C-60.0644 69.6303 -59.3242 70.2925 -58.572 70.9478C-57.4451 71.9355 -56.3439 72.9062 -55.286 73.9258C-51.5239 77.5355 -49.0949 82.0182 -48.0414 87.2315C-47.7819 88.5212 -47.4301 90.2188 -46.9791 91.9228C-46.7262 92.8981 -46.3879 93.856 -46.0634 94.79L-45.7907 95.579C-45.7276 95.7572 -45.5683 95.8402 -45.4185 95.9207C-45.3482 95.9597 -45.2755 95.9893 -45.2078 96.0377L-44.8874 96.2344L-44.7634 95.8845L-44.7471 95.8989ZM-46.8458 96.9198C-46.8401 96.8608 -46.8413 96.7899 -46.8355 96.7309C-46.8184 96.554 -46.8012 96.3771 -46.8499 96.1825C-47.0916 95.2405 -47.3402 94.2865 -47.5819 93.3444L-47.6375 93.1379C-48.0928 91.4126 -48.5612 89.6232 -48.9801 87.8371C-50.3391 82.1083 -52.5565 77.9647 -55.9622 74.7933C-58.0536 72.8514 -60.1532 70.9779 -62.3807 68.9794C-63.3816 68.086 -64.3988 67.1782 -65.4367 66.2346L-65.8278 65.8877L-65.9332 66.394C-66.4367 68.8002 -66.3032 70.9737 -65.5286 73.2384C-64.9271 74.9827 -64.0199 76.6779 -62.6814 78.5693C-61.3704 80.413 -60.4047 82.4162 -59.706 84.7009C-59.3722 85.7887 -58.8999 86.9236 -58.3045 88.0512C-57.1483 90.2467 -55.3323 92.1248 -52.6033 93.9451C-51.0121 95.0068 -49.4091 96.0615 -47.8035 97.1068C-47.6586 97.2062 -47.4836 97.1926 -47.3418 97.1902C-47.2803 97.1865 -47.2307 97.1897 -47.1692 97.186L-46.8599 97.1983L-46.8502 96.8984L-46.8458 96.9198ZM53.3388 40.0882C53.177 40.0146 53.0435 39.9485 52.9356 39.8995C52.7318 39.7944 52.5794 39.7234 52.405 39.6968C49.416 39.148 46.4364 38.6017 43.4517 38.0742L43.1619 38.0268C42.1702 37.8518 41.1408 37.6668 40.1245 37.5457C35.9696 37.0576 32.0245 37.4425 28.4071 38.7119C27.126 39.1652 25.8667 39.7253 24.6506 40.3876C22.3471 41.646 20.3157 43.0176 18.4586 44.567C16.0098 46.5932 13.1644 48.1803 10.0033 49.2896C8.99089 49.6435 7.92954 49.9541 6.82872 50.2238C6.21428 50.3718 5.59298 50.5078 4.96227 50.6413C3.93805 50.8509 2.92441 51.1339 1.95713 51.4697C-1.18005 52.5652 -3.99807 54.3512 -6.42284 56.7771C-7.20868 57.5648 -7.98834 58.4046 -8.67187 59.1492L-9.55013 60.0937C-11.5617 62.2572 -13.5803 64.4087 -15.585 66.5841C-15.6981 66.705 -15.7384 66.8556 -15.7787 67.0061C-15.7964 67.072 -15.8191 67.1566 -15.8417 67.2413L-15.9261 67.4809L-15.6966 67.6029C-15.5982 67.6494 -15.5023 67.7054 -15.4063 67.7614C-15.1793 67.8928 -14.943 68.0267 -14.6777 68.128C-12.98 68.7543 -11.1025 69.086 -8.94609 69.1293C-5.65593 69.1942 -2.31298 68.6479 0.981137 67.4936C1.5944 67.2747 2.22211 67.0396 2.83604 66.7806C6.01744 65.4448 8.83747 63.5383 10.9374 62.0237C14.3981 59.5326 17.6886 57.7521 21.0041 56.5935L21.4152 56.4515C22.3611 56.1201 23.5952 55.6542 24.7335 54.981C27.3467 53.4325 29.4653 52.0742 31.4019 50.7175C36.4086 47.1986 41.3809 44.5982 46.6121 42.763C48.1713 42.2127 49.7718 41.734 51.3709 41.3356C51.5868 41.2826 51.8078 41.2107 52.0312 41.1294C52.2095 41.0662 52.3878 41.0031 52.5899 40.9262C52.8134 40.8449 53.0487 40.7567 53.3174 40.6572L54.028 40.414L53.3432 40.1095L53.3388 40.0882ZM-52.7331 140.004C-52.562 139.666 -52.3909 139.329 -52.2293 138.989C-51.0512 136.512 -49.4861 134.208 -47.5543 132.155L-47.3834 131.968C-46.5221 131.05 -45.6439 130.105 -44.713 129.266C-38.8641 123.996 -36.0842 116.895 -33.9379 110.654C-33.657 109.832 -33.5148 108.962 -33.3802 108.121L-33.3321 107.791C-32.6627 103.675 -32.7081 99.629 -33.4626 95.7462C-34.2558 91.6312 -34.6247 87.4383 -34.5842 82.9215C-34.5748 81.3812 -34.6808 79.82 -34.7807 78.3109L-34.8455 77.386C-34.8651 77.0077 -34.9006 76.3124 -35.7664 76.2317L-35.9433 76.2146L-36.1929 76.5813C-36.3116 76.7612 -36.4398 76.9386 -36.5424 77.133L-37.3566 78.6291C-38.1854 80.1415 -39.0387 81.7077 -39.8399 83.2678C-40.4726 84.5 -41.005 85.8094 -41.4933 87.0298C-42.6871 90.0174 -43.3324 93.4041 -43.532 97.6867L-43.5958 99.0914C-43.6899 101.174 -43.789 103.275 -43.9208 105.347C-44.1311 108.578 -45.0364 111.693 -46.5953 114.613C-47.2637 115.866 -48.01 117.108 -48.7248 118.308L-49.4786 119.579C-49.7389 120.023 -50.0206 120.472 -50.2902 120.914C-50.7686 121.683 -51.2571 122.49 -51.696 123.3C-53.27 126.277 -54.057 129.101 -54.0949 131.915C-54.1161 133.875 -54.0583 135.918 -54.0059 137.716L-53.9987 137.991C-53.9807 138.752 -53.9603 139.503 -53.9424 140.265L-53.9396 140.517L-53.0557 140.643L-52.728 139.985L-52.7331 140.004ZM-12.5717 115.552C-11.1093 114.573 -9.65876 113.6 -8.20572 112.618L-5.01767 110.467C-2.21206 108.577 -0.0437256 106.506 1.60483 104.154L1.7984 103.883C2.0328 103.573 2.26033 103.251 2.40132 102.875C2.58197 102.389 2.72751 101.884 2.8586 101.394C2.97205 100.971 3.09743 100.541 3.2391 100.125C3.45504 99.5072 3.7086 98.8996 3.95024 98.2988L4.35424 97.318L4.18874 97.1829C3.1727 96.3459 2.16102 95.5303 1.14932 94.7147L1.05843 94.6399C-1.3448 92.6952 -3.60135 90.8805 -5.84143 88.929C-8.11411 86.9486 -10.4098 84.7907 -12.4404 82.8853L-12.5707 82.7697C-13.4826 81.9203 -14.392 81.0615 -15.3133 80.2096L-15.4762 80.0651L-16.256 80.4914L-15.87 81.4218C-15.6636 81.9308 -15.4546 82.4305 -15.2218 82.9164C-13.373 86.7798 -12.9874 90.6848 -14.0239 94.854C-14.4116 96.414 -14.6915 98.023 -14.9657 99.573L-15.1698 100.749C-15.5474 102.836 -15.5619 104.959 -15.2143 107.049C-14.8842 109.054 -14.4813 111.088 -14.0984 113.046L-13.6587 115.281C-13.6263 115.461 -13.4764 115.542 -13.3968 115.583L-13.3009 115.639L-13.1735 115.653C-13.1121 115.649 -13.0719 115.65 -13.0317 115.651C-12.9301 115.648 -12.8165 115.638 -12.7073 115.606L-12.593 115.556L-12.5717 115.552ZM-61.1423 158.705C-60.8993 158.588 -60.6827 158.495 -60.4756 158.399L-60.3733 158.356C-59.9401 158.17 -59.6067 158.017 -59.289 157.81C-57.7839 156.822 -56.3164 155.823 -54.9223 154.835C-52.2441 152.931 -49.5739 151.509 -46.7687 150.486C-45.7845 150.124 -44.7801 149.688 -43.89 149.301L-43.7757 149.251C-43.2948 149.037 -42.8165 148.832 -42.3287 148.63C-40.6728 147.944 -39.3213 146.965 -38.1672 145.631C-37.0419 144.329 -35.6733 143.173 -33.8367 142.001L-33.1799 141.583C-32.3869 141.069 -31.4934 140.482 -30.5943 139.986C-27.9492 138.507 -25.7926 136.292 -24.2061 133.419C-23.224 131.635 -22.2705 129.733 -21.2967 127.604C-19.6901 124.092 -18.0769 121.458 -16.2378 119.299C-15.105 117.969 -14.6961 116.556 -14.9489 114.865C-15.191 113.247 -15.458 111.421 -15.8511 109.652C-16.6131 106.21 -16.716 103.057 -16.1614 100.009C-16.018 99.2104 -15.8533 98.4075 -15.6911 97.614C-15.493 96.6486 -15.3099 95.7397 -15.1482 94.8351L-15.0857 94.4888C-14.8621 93.2782 -14.6379 92.0274 -14.5554 90.7789C-14.399 88.5015 -14.8728 86.4687 -16.0005 84.543L-16.1589 84.2687L-16.417 84.4415C-16.5626 84.5336 -16.67 84.5956 -16.756 84.6532C-16.923 84.7496 -17.0329 84.821 -17.1222 84.9282C-17.3439 85.1915 -17.5426 85.4811 -17.7098 85.7287C-20.1372 89.2934 -21.6608 93.2111 -22.2531 97.3784C-22.6283 100.021 -22.8662 102.226 -23.003 104.317C-23.4006 110.392 -25.7271 115.688 -29.9022 120.054C-30.21 120.375 -30.499 120.701 -30.7906 121.037C-30.7906 121.037 -31.1952 121.493 -31.3542 121.672C-33.2006 123.708 -34.7902 126.066 -36.2172 128.87C-37.8177 132.021 -39.5344 135.191 -41.4672 138.565C-43.8916 142.796 -46.9747 145.873 -50.9036 147.966C-54.9374 150.112 -58.2915 153.146 -60.8886 156.968C-61.0388 157.19 -61.13 157.417 -61.2772 157.741C-61.3534 157.912 -61.4371 158.112 -61.5428 158.355L-61.8837 159.101L-61.1429 158.745L-61.1423 158.705ZM50.1814 69.6349C46.5972 70.893 42.8289 71.4463 38.983 71.2729C36.4521 71.1595 33.9363 70.9895 31.8126 70.8239C28.6789 70.5892 25.9249 70.8193 23.3848 71.5303C22.0009 71.9158 20.6257 72.3439 19.3019 72.806C14.3061 74.553 9.68041 76.9135 5.53467 79.8161C5.27154 80.0077 5.04539 80.2497 4.80731 80.4985C4.67978 80.6357 4.5497 80.7824 4.38638 80.9403L4.08613 81.2329L4.46112 81.4141C6.01499 82.1632 7.37718 82.6492 8.75216 82.937C14.4239 84.124 19.9941 84.1846 25.3047 83.1067C28.2801 82.5023 31.3001 81.7687 33.9643 81.1213C38.1185 80.1067 41.8085 79.9963 45.2283 80.7815C46.0262 80.965 46.8196 81.1272 47.62 81.3014L48.7573 81.5355C51.6013 82.1362 54.6634 82.4122 58.1137 82.3686C62.9512 82.3035 67.4604 81.3941 72.8627 80.1997C77.1385 79.258 81.6954 78.3211 86.3036 77.9828C90.7342 77.6675 94.6465 77.4049 98.2652 77.1846C100.03 77.0725 101.796 76.9912 103.562 76.9098C103.562 76.9098 105.809 76.8059 106.873 76.7482C107.097 76.7378 107.313 76.6847 107.527 76.641L108.176 76.5125L108.061 76.1893C108.061 76.1893 108.027 76.0895 108.016 76.0562C107.985 75.947 107.949 75.8165 107.809 75.7385L107.544 75.597C107.174 75.397 106.851 75.2097 106.511 75.0882C101.107 73.1662 95.5233 70.934 88.9155 68.0845C86.9263 67.2288 84.7169 66.4049 82.1486 65.5654C77.5407 64.0585 72.8023 63.5653 68.047 64.076C64.629 64.4509 61.316 65.1866 58.2095 66.2803C56.6742 66.8168 55.1538 67.448 53.703 68.1584C52.5522 68.7274 51.3721 69.2179 50.1933 69.628L50.1814 69.6349ZM-8.18231 84.6817L-8.67374 84.8222L-7.75563 85.7237C-7.45359 86.0265 -7.19788 86.2765 -6.91834 86.5127C-6.14739 87.1731 -5.37394 87.824 -4.59107 88.4775C-3.00213 89.8108 -1.37121 91.1755 0.166813 92.5859C1.77001 94.0542 3.59843 94.4936 5.76061 93.9133C5.98843 93.8534 6.2213 93.7746 6.45418 93.6958C7.14338 93.457 7.8126 93.1422 8.4499 92.7583C9.04889 92.4046 9.57397 91.9503 10.0846 91.5124C10.305 91.3294 10.5161 91.1439 10.7365 90.961C12.3556 89.6604 13.8015 88.8176 15.2942 88.2899C15.9953 88.0441 16.707 87.8718 17.4268 87.7823C18.5256 87.633 19.6377 87.3966 20.7511 87.0798C21.2212 86.9436 21.6844 86.7954 22.1408 86.6354C22.7207 86.4278 23.3485 86.1926 24.1501 85.8729C24.4118 85.7616 24.6066 85.5617 24.8566 85.306C24.9816 85.1781 25.1211 85.034 25.2938 84.8786L25.9898 84.2382L25.0472 84.3688C15.7949 85.6308 8.90855 84.8747 2.70182 81.9208L2.60339 81.8743L2.4157 81.9349C1.43245 82.5185 0.406032 82.9998 -0.651624 83.3718C-2.6006 84.0597 -4.64952 84.3678 -6.91698 84.3249C-7.12716 84.319 -7.32424 84.3771 -7.56903 84.4628L-7.8923 84.5779C-7.9827 84.6141 -8.07996 84.6385 -8.18918 84.6697L-8.18231 84.6817ZM106.538 93.9524C106.501 93.9022 106.467 93.8425 106.433 93.7829C106.334 93.6253 106.237 93.4583 106.076 93.3445C103.247 91.2957 99.8139 89.0548 95.8562 87.9439C92.6956 87.0567 89.7033 85.5793 86.9564 83.5626C86.6881 83.3597 86.4053 83.173 86.1131 82.9838C85.9238 82.8624 85.7464 82.7342 85.557 82.6129C82.6006 80.5502 79.2114 79.9143 75.4954 80.7236C72.5169 81.3776 70.058 81.8986 67.7629 82.3727C60.3468 83.8947 53.538 83.8652 46.9701 82.2969C46.1465 82.0964 45.3009 81.9405 44.4861 81.7826L43.9115 81.669C41.5046 81.2056 38.8907 81.2514 35.9323 81.8301C35.3468 81.9455 34.7776 82.0753 34.1989 82.2026L33.995 82.2488C33.6203 82.3299 33.255 82.4135 32.8804 82.4947C32.207 82.6369 31.6088 82.7993 31.0314 82.9975C29.7741 83.4371 28.7149 84.0407 27.7967 84.8333C26.4588 85.9874 24.8679 86.8821 23.0758 87.5111C22.7978 87.608 22.5103 87.7024 22.2253 87.7874C21.4157 88.0243 20.5597 88.2083 19.7438 88.3931C19.2505 88.5029 18.7597 88.6033 18.2733 88.7251C17.5735 88.8905 16.8875 89.0798 16.1946 89.2572L14.8302 89.6075L14.8316 90.5054C14.8316 90.5054 15.1288 90.6758 15.1991 90.7147C15.4072 90.8411 15.5965 90.9624 15.8079 91.0392L16.8947 91.4615C17.8806 91.8467 18.9956 92.2766 20.1051 92.6142C25.0795 94.1084 30.3672 94.8093 35.8222 94.6979C36.9873 94.6773 38.155 94.6473 39.3227 94.6173C41.9228 94.5477 44.5204 94.4874 47.0816 94.488C54.3328 94.4847 61.7055 93.5763 68.982 91.7849C74.7259 90.3694 79.8627 90.3542 84.7067 91.7328C86.0188 92.1046 87.3623 92.4343 88.6708 92.7446C89.5978 92.9728 90.5368 93.1942 91.4588 93.4412C93.8417 94.0696 96.2689 94.3065 98.6816 94.1463C100.775 94.0114 103.252 93.9491 105.734 94.5839C105.866 94.6192 105.975 94.588 106.053 94.5586C106.108 94.5429 106.156 94.5154 106.222 94.4929C106.279 94.4679 106.336 94.4428 106.394 94.4178L106.771 94.2871L106.545 93.9643L106.538 93.9524ZM-17.1648 152.489C-16.8415 152.374 -16.5603 152.227 -16.3091 152.042L-16.2852 152.029L-16.2274 151.964C-14.8507 147.653 -13.352 145.221 -10.0452 141.913C-7.2624 139.129 -3.99847 136.958 -1.16347 135.146C0.62544 134.002 2.23792 132.952 3.78473 131.733C6.42553 129.667 8.06372 127.091 8.79165 123.848C9.87909 119.037 11.4185 114.044 13.3884 109.026C13.5243 108.669 13.5976 108.245 13.5963 107.761C13.6031 106.794 13.5817 105.821 13.566 104.788L13.5488 103.422L5.47598 97.911L5.31133 98.1492C4.37674 99.492 3.8153 100.985 3.54515 102.859C3.2997 104.528 3.13943 106.33 3.046 108.372C2.97263 109.926 2.94375 111.501 2.90866 113.024C2.86768 114.758 2.82673 116.492 2.74627 118.184C2.29101 127.41 -1.83411 134.563 -9.52403 139.441L-10.6034 140.119C-11.733 140.835 -12.8601 141.542 -13.9734 142.272C-18.5817 145.282 -23.3237 148.378 -27.9948 151.473C-28.7188 151.954 -29.3971 152.529 -30.049 153.08L-30.4541 153.425C-30.6218 153.562 -30.6798 153.778 -30.7252 153.948C-30.7428 154.014 -30.7554 154.061 -30.7681 154.108L-30.8542 154.316L-30.6699 154.457C-30.2174 154.8 -29.7931 154.722 -29.4128 154.582L-29.2464 154.525C-29.1799 154.503 -29.1039 154.483 -29.0374 154.46C-28.5372 154.362 -28.0414 154.243 -27.5456 154.124C-26.8151 153.957 -26.0607 153.776 -25.3026 153.656C-23.8172 153.419 -22.2923 153.222 -20.8196 153.032L-18.6979 152.754C-18.1865 152.689 -17.6631 152.617 -17.1616 152.439L-17.1648 152.489ZM-43.49 162.184C-43.2546 162.096 -43.0789 162.042 -42.9325 161.91C-40.7385 159.856 -38.1335 158.376 -35.4344 156.921C-34.4569 156.396 -33.7541 155.768 -33.2066 154.967C-32.0677 153.275 -30.5118 151.796 -28.4642 150.439C-26.0655 148.864 -23.6574 147.29 -21.2613 145.724C-21.2613 145.724 -17.6326 143.359 -16.032 142.315C-15.3105 141.843 -14.5796 141.373 -13.8607 140.91C-11.9713 139.692 -10.0606 138.47 -8.23569 137.154C-2.91682 133.335 0.266069 128.118 1.23757 121.632C1.43744 120.284 1.61396 119.061 1.67069 117.795C1.78955 114.943 1.85953 112.048 1.92311 109.251L1.95212 108.089C1.97198 107.752 1.99588 107.173 1.28354 106.821L1.07975 106.716L0.932717 106.888C-1.24056 109.392 -4.07304 111.194 -6.81008 112.941C-7.49073 113.374 -8.1833 113.814 -8.85705 114.258C-12.2642 116.512 -14.8358 118.959 -16.6969 121.727C-18.0005 123.657 -19.1574 125.717 -20.2594 128.023C-21.4426 130.519 -22.4715 132.553 -23.5046 134.414C-25.0199 137.134 -27.2312 139.365 -30.0754 141.023C-30.746 141.418 -31.4191 141.822 -32.0827 142.229L-32.3358 142.384C-34.7537 143.843 -36.8554 145.74 -38.782 148.189C-42.2105 152.554 -43.5034 157.643 -44.3099 162.045L-44.404 162.585L-43.8949 162.378C-43.7141 162.306 -43.5692 162.254 -43.4574 162.213L-43.49 162.184ZM22.2432 123.661C24.0055 121.713 25.6666 119.879 27.319 118.002C27.6394 117.634 27.8347 116.981 27.7676 116.479C27.494 114.338 26.6827 112.85 25.2164 111.812C23.241 110.416 21.2645 108.948 19.3532 107.539C18.2681 106.733 17.2155 105.957 16.1605 105.191C15.9737 105.06 15.7862 104.969 15.5329 104.861C15.4062 104.807 15.2701 104.75 15.1297 104.672L14.7547 104.491L14.7052 104.902C14.683 105.097 14.6471 105.269 14.623 105.434C14.5529 105.809 14.498 106.127 14.549 106.463C14.7702 107.783 14.9833 109.02 15.3671 110.222C15.7977 111.587 16.3018 112.943 16.7877 114.253L16.8328 114.386C17.0429 114.956 17.2556 115.517 17.4563 116.086L17.6483 116.611C18.5306 119.076 19.4518 121.622 19.6952 124.289C19.715 124.516 19.8158 124.704 19.9535 124.943C20.013 125.06 20.0887 125.191 20.1663 125.353L20.3603 125.758L22.2671 123.647L22.2432 123.661ZM6.31132 139.126C9.3393 138.061 11.8611 136.327 13.8171 133.957C14.2488 133.438 14.6548 132.901 15.0632 132.355C15.6552 131.576 16.2642 130.771 16.9358 130.033C18.3826 128.434 18.8988 126.546 18.5144 124.255C18.4889 124.086 18.4753 123.911 18.4617 123.736C18.4444 123.5 18.4246 123.273 18.3809 123.059C17.6321 119.117 16.1213 115.385 14.6467 111.894C14.5853 111.747 14.4587 111.692 14.3414 111.641C14.2618 111.599 14.189 111.57 14.1094 111.528L13.8542 111.389L13.7152 111.645C13.6593 111.74 13.6058 111.827 13.5549 111.904C13.4481 112.077 13.3462 112.231 13.2983 112.41C12.9777 113.494 12.6545 114.587 12.3244 115.668C11.406 118.72 10.4944 121.783 9.67764 124.831C8.9995 127.362 7.9054 129.338 6.31052 130.887C5.16475 132.002 4.1963 132.831 3.26813 133.51C1.73965 134.624 0.110855 135.659 -1.30504 136.54C-5.07054 138.889 -8.17743 141.415 -10.8079 144.27C-12.2422 145.821 -13.4157 147.604 -14.4058 149.719C-14.5234 149.97 -14.5495 150.255 -14.5661 150.543C-14.5732 150.682 -14.5922 150.829 -14.6137 150.984L-14.6833 151.47L-14.227 151.31C-14.0607 151.253 -13.9182 151.211 -13.7851 151.166C-13.6546 151.13 -13.5642 151.094 -13.4763 151.067C-13.3432 151.022 -13.2196 150.975 -13.1097 150.903C-10.0947 149.21 -7.51516 147.411 -5.20635 145.418C-4.63793 144.914 -4.13922 144.483 -3.7027 144.096C-1.44094 142.09 -0.673397 141.409 1.929 140.503C2.77513 140.205 3.8321 139.873 5.57257 139.361C5.62718 139.346 6.13812 139.17 6.30446 139.114L6.31132 139.126ZM140.19 129.056C139.898 128.867 139.667 128.714 139.471 128.581C139.085 128.327 138.847 128.162 138.568 128.037C137.771 127.662 136.981 127.299 136.179 126.943L135.883 126.803C134.894 126.357 133.897 125.898 132.913 125.432C132.493 125.229 132.071 125.036 131.649 124.842C130.065 124.095 128.442 123.337 126.928 122.478C125.171 121.472 123.436 120.382 121.755 119.317C120.892 118.773 120.039 118.232 119.174 117.697C114.845 115.035 110.214 113.128 105.398 112.02C101.133 111.038 96.5901 110.607 91.5279 110.683C86.9997 110.76 82.2157 111.152 76.4613 111.93C70.5814 112.724 65.2971 112.236 60.3018 110.444C59.252 110.072 58.1732 109.732 57.1321 109.403C56.5939 109.228 56.0439 109.061 55.5058 108.886C50.7216 107.322 45.6451 106.849 39.9881 107.451C39.4058 107.517 38.8228 107.623 38.2586 107.734C37.9599 107.795 37.685 107.842 37.4101 107.89L37.1045 107.939L37.175 108.24C37.3947 109.227 38.0593 109.606 38.6349 109.942L38.8173 110.051C45.4025 113.964 51.0816 116.403 56.6754 117.731C57.2637 117.868 57.8521 118.006 58.431 118.14C59.4008 118.36 60.368 118.589 61.3327 118.827C63.8573 119.453 66.361 119.781 68.759 119.789L69.111 119.792C72.0122 119.803 74.9655 119.808 77.8738 119.68C84.1917 119.396 90.5018 119.857 96.6391 121.037C103.017 122.262 109.849 123.71 116.606 125.964C120.854 127.384 125.363 128.32 130.015 128.76C131.501 128.896 132.994 129.044 134.478 129.19C134.478 129.19 137.377 129.472 138.36 129.564C138.596 129.587 138.837 129.591 139.22 129.593L140.035 129.6L141.088 129.62L140.2 129.059L140.19 129.056ZM34.6522 141.214C35.5529 140.901 36.4029 140.513 37.1664 140.072C39.416 138.79 40.7443 137.219 41.2448 135.276C41.5959 133.928 41.8366 132.541 42.0672 131.191C42.1696 130.583 42.2813 129.978 42.3906 129.382L42.4032 129.335L42.3864 129.209C38.9733 124.937 34.8081 120.009 29.3745 115.336L28.9157 114.941L28.8434 116.152C28.8141 116.487 28.8045 116.636 28.8162 116.78C28.853 117.546 28.9085 118.317 28.9547 119.086C29.0626 120.678 29.1861 122.324 29.1026 123.915C28.5918 133.913 25.3528 141.485 19.1798 147.061L18.5366 147.655C17.7734 148.358 16.9813 149.094 16.1323 149.703C14.7809 150.682 13.4193 151.85 12.6459 153.72C12.3061 154.537 11.7594 155.298 11.239 156.036C10.98 156.4 10.7262 156.745 10.498 157.108C10.3647 157.304 10.2478 157.515 10.0849 157.784L9.42608 158.888L10.1334 158.694C10.252 158.665 10.3638 158.625 10.473 158.594C11.407 158.269 11.983 157.738 12.542 157.232C12.6475 157.139 12.7555 157.037 12.861 156.944L13.9401 156.003C16.8318 153.491 19.8264 150.895 22.7327 148.215C26.107 145.106 29.664 142.933 33.5833 141.553C33.8042 141.481 34.5028 141.244 34.6359 141.199L34.6522 141.214ZM3.95796 155.285C11.0452 152.807 17.1805 148.351 22.2056 142.054C23.6778 140.209 24.7958 138.22 25.5349 136.139C27.3927 130.899 28.2261 126.02 28.0825 121.212L28.0871 121.082C28.0987 120.813 28.1206 120.355 27.5211 120.033L27.3456 119.935L27.1898 120.065C27.1226 120.128 27.0485 120.178 26.9693 120.248C26.7897 120.391 26.5624 120.562 26.3771 120.765L25.4938 121.728C24.2109 123.129 22.9305 124.52 21.7066 125.927C20.5958 127.212 19.493 128.581 18.5228 129.793L17.9026 130.565C17.454 131.11 17.0216 131.67 16.5799 132.227L16.5026 132.327C15.7203 133.328 14.9523 134.312 14.1594 135.239C12.5711 137.102 10.667 138.488 8.51644 139.364C7.81463 139.65 7.10848 139.914 6.42869 140.155C5.6039 140.449 4.78919 140.704 4.01532 140.921C3.63308 141.03 3.26965 141.144 2.90372 141.268C0.824193 141.992 -0.894305 143.023 -2.34722 144.419C-2.64496 144.702 -2.95645 144.962 -3.27049 145.23C-3.50538 145.43 -3.74027 145.629 -3.96829 145.84C-5.82998 147.519 -8.01917 149.141 -10.6532 150.805C-12.2676 151.825 -13.8232 152.588 -15.3943 153.145C-17.0533 153.729 -18.6819 154.049 -20.3823 154.148C-21.6523 154.221 -22.9055 154.419 -24.1161 154.609L-24.9262 154.735C-27.0605 155.061 -29.1341 155.574 -31.1044 156.266C-35.4349 157.788 -39.4213 160.209 -42.9375 163.472C-46.1058 166.414 -48.1499 168.962 -49.5649 171.76C-49.7504 172.113 -49.8965 172.508 -50.067 172.956C-50.1784 173.259 -50.2798 173.524 -50.4151 173.841L-50.7581 174.707L-49.4112 173.858C-49.1224 173.683 -48.9623 173.575 -48.7996 173.457C-48.3833 173.145 -47.9738 172.821 -47.5549 172.5C-46.8942 171.991 -46.2405 171.471 -45.566 170.986C-43.9465 169.796 -42.2513 168.889 -40.5352 168.28C-39.2899 167.847 -38.002 167.557 -36.6956 167.423C-34.6531 167.214 -32.5529 167.091 -30.5331 166.967L-30.2564 166.95C-26.917 166.756 -23.8143 166.166 -21.0405 165.185C-19.025 164.474 -17.1027 163.547 -15.3496 162.424C-13.231 161.065 -10.8756 159.952 -7.93801 158.924C-6.60228 158.455 -5.16305 158.014 -3.27574 157.481L-1.94641 157.111C0.0143218 156.568 1.97756 156.015 3.86942 155.352L3.96921 155.318L3.95796 155.285ZM147.362 154.302L146.715 153.967C146.273 153.738 145.999 153.594 145.71 153.466L145.53 153.388C142.94 152.29 140.35 151.193 137.743 150.121C132.703 148.045 127.371 146.717 121.884 146.195C119.966 146.014 118.024 145.775 116.14 145.543L115.975 145.519C114.452 145.332 112.931 145.137 111.41 144.981C102.9 144.073 94.5893 141.483 86.7095 137.284C82.862 135.234 78.8563 133.324 74.9867 131.471L73.1469 130.584C69.535 128.86 66.4223 127.794 63.3316 127.248C58.7405 126.432 53.989 126.439 49.8981 126.503L49.782 126.522C49.7035 126.551 49.6533 126.588 49.5672 126.646L49.2828 126.842L49.0128 127.022L49.7113 127.915C50.0258 128.322 50.3265 128.705 50.6441 129.062C54.8334 133.825 59.9735 137.824 66.3654 141.291C71.0667 143.842 76.1946 146.043 82.0442 148.034C85.5658 149.229 89.1331 149.953 92.6709 150.185C94.3748 150.299 96.0412 150.403 97.7107 150.457C102.323 150.593 106.812 151 111.035 151.647C113.872 152.085 116.702 152.551 119.532 153.016L120.024 153.098C126.167 154.108 131.881 154.611 137.48 154.639C139.283 154.648 141.119 154.757 142.887 154.858C143.918 154.922 144.881 154.979 145.84 155.014C146.079 155.027 146.311 154.988 146.623 154.951C146.801 154.928 147.012 154.894 147.26 154.87L148.247 154.761L147.359 154.311L147.362 154.302ZM33.2372 175.886C35.7279 175.021 37.8519 173.341 39.5582 170.925C41.1389 168.676 42.2851 166.129 43.2798 163.885C45.0992 159.804 47.15 156.855 49.7139 154.587C50.3351 154.038 50.6483 153.396 50.7127 152.515C50.9065 149.986 51.2778 147.998 51.8816 146.234C52.1372 145.506 52.0916 144.848 51.7416 144.159L51.3598 143.402C50.9555 142.577 50.5417 141.751 50.1016 140.947C48.0626 137.154 46.0686 134.058 43.8177 131.206L43.5308 130.847L43.3113 131.252C42.7623 132.285 42.6389 133.159 42.5288 133.946L42.4592 134.432C41.7999 138.511 40.7352 142.672 39.1996 147.162C37.6588 151.67 35.1815 155.534 31.838 158.641C31.6653 158.796 31.2281 159.224 31.2281 159.224C30.899 159.549 30.5893 159.839 30.2727 160.117C27.2271 162.79 24.2057 165.712 21.297 168.815C19.0787 171.185 16.4799 173.282 13.3474 175.226C11.4135 176.422 9.82233 177.468 8.3209 178.517C5.35382 180.596 2.87239 183.158 0.962695 186.146C0.838859 186.344 0.740743 186.56 0.593535 186.884C0.497913 187.09 0.394724 187.324 0.252559 187.629L-0.22736 188.63L1.68975 187.308C2.22036 186.946 2.64108 186.656 3.0524 186.363C6.72533 183.757 10.7082 181.688 14.8817 180.225C15.773 179.909 16.685 179.629 17.592 179.368C20.4979 178.533 23.5059 177.958 26.4097 177.395L28.856 176.921C30.0245 176.699 31.205 176.471 32.356 176.164C32.6504 176.082 32.9447 175.999 33.2253 175.893L33.2372 175.886ZM-10.1016 195.261C-9.83409 195.091 -9.63565 194.953 -9.43469 194.805C-8.99953 194.498 -8.56184 194.182 -8.13357 193.863L-8.05695 193.803C-7.05218 193.063 -6.02103 192.301 -4.93797 191.684C-3.47572 190.855 -2.40268 189.711 -1.46134 187.967C1.05015 183.335 4.4678 179.613 8.69553 176.893C9.12062 176.624 9.53882 176.343 9.95703 176.062C10.6069 175.631 11.2449 175.207 11.8966 174.807C14.5112 173.178 17.5246 171.152 20.0627 168.454C23.2622 165.056 26.6128 161.809 30.0183 158.809C30.5578 158.338 31.0698 157.82 31.5742 157.33L31.7664 157.14C34.4192 154.502 36.408 151.446 37.6701 148.053C38.2787 146.421 38.789 144.742 39.2935 143.123L39.6059 142.108C39.701 141.79 39.7347 141.477 39.7696 141.083C39.79 140.856 39.8078 140.639 39.8451 140.387L39.9319 139.724L39.3843 140.112C37.842 141.201 36.2847 141.782 34.5592 142.389L33.5919 142.725C30.483 143.828 27.6676 145.453 25.2483 147.558C24.3828 148.304 23.5242 149.062 22.6681 149.811L21.8239 150.553C21.0206 151.255 20.2242 151.97 19.4303 152.674L19.049 153.006C15.7484 155.953 12.3328 158.991 8.65232 161.625C7.15524 162.696 5.76751 164.149 4.29439 166.185C3.51321 167.256 2.75086 168.333 1.98851 169.409C0.599564 171.356 -0.825845 173.364 -2.30704 175.317C-6.69026 181.1 -9.63485 187.461 -11.0597 194.208C-11.1032 194.408 -11.0971 194.611 -11.0943 194.864C-11.092 195.006 -11.0828 195.16 -11.0836 195.351L-11.0931 195.913L-10.1085 195.249L-10.1016 195.261ZM-42.1369 175.011C-41.5915 173.765 -41.112 172.653 -40.642 171.539C-40.5533 171.321 -40.4715 171.09 -40.3399 170.712L-39.8135 169.2L-40.4419 169.475C-40.806 169.629 -41.1249 169.766 -41.4105 169.891C-42.091 170.172 -42.6145 170.395 -43.0917 170.671C-43.4377 170.87 -43.8266 171.381 -43.8485 171.839C-43.9263 173.371 -43.8664 174.729 -43.2987 176.373L-43.0486 177.096L-42.1438 174.999L-42.1369 175.011ZM4.1724 156.441C2.51595 157.016 0.851415 157.508 -1.14947 158.051C-1.79027 158.222 -2.44049 158.39 -3.08129 158.562C-4.65223 158.968 -6.28718 159.387 -7.85829 159.944C-8.93729 160.32 -9.89144 160.72 -10.7591 161.173C-12.1604 161.887 -13.5485 162.664 -14.8959 163.402C-15.6901 163.845 -16.4843 164.288 -17.2854 164.718C-17.9101 165.055 -18.3136 165.582 -18.5605 166.353C-18.9907 167.771 -19.895 169.001 -21.2352 170.013C-21.9172 170.526 -22.6343 171.02 -23.3344 171.487L-24.1733 172.059C-24.4722 172.272 -24.7781 172.472 -25.0838 172.672L-25.2056 172.751C-25.9152 173.216 -26.6511 173.705 -27.3407 174.246C-28.77 175.365 -29.4761 176.608 -29.9387 178.824L-30.1009 179.617L-28.6025 178.466C-27.1901 177.372 -25.5438 176.421 -23.2845 175.403C-22.4132 175.012 -21.4973 174.642 -20.4968 174.295C-18.2151 173.494 -15.8446 172.889 -13.5406 172.307C-12.3519 172.01 -11.1763 171.649 -10.007 171.237C-7.6801 170.418 -5.33037 169.364 -3.01743 168.108C2.03791 165.348 6.34505 161.279 10.5403 155.294C10.6396 155.149 10.7013 154.994 10.7831 154.764C10.8473 154.6 10.9021 154.433 10.9858 154.233L11.2299 153.623L10.6167 153.842C10.3292 153.937 10.0844 154.022 9.85408 154.092C9.65698 154.15 9.47871 154.213 9.32431 154.262C9.07951 154.348 8.8962 154.43 8.72231 154.514C7.37564 155.212 5.89541 155.844 4.20315 156.44L4.1724 156.441ZM49.6939 172.35C51.8399 171.604 53.758 170.504 55.5456 169.44C56.2519 169.025 56.648 168.374 56.7721 167.46C56.8613 166.788 56.96 166.119 57.0587 165.449C57.2194 164.323 57.3927 163.149 57.5278 162.005C57.7769 159.833 57.517 157.868 56.7287 155.993C56.0949 154.482 55.4738 152.924 54.8776 151.423C54.5104 150.498 54.1501 149.584 53.7804 148.669C53.7147 148.5 53.5963 148.377 53.4271 148.181C53.3112 148.049 53.1884 147.905 53.0381 147.713L52.6609 147.239L52.5046 147.823C52.4428 148.129 52.3747 148.383 52.3167 148.599C52.2033 149.022 52.1251 149.314 52.0889 149.637C51.9472 151.182 51.7736 153.072 51.6767 154.901C51.321 161.724 50.3467 166.827 48.5349 171.444C48.4512 171.644 48.4948 171.857 48.541 172.061C48.5653 172.158 48.5803 172.253 48.5952 172.348L48.6318 172.7L48.9714 172.6C49.2137 172.524 49.4465 172.445 49.6794 172.366L49.6939 172.35ZM23.6307 191.604C23.9421 191.496 24.2559 191.379 24.5629 191.249C26.7518 190.343 28.5063 189.139 29.9387 187.557C31.99 185.283 34.2331 183.121 36.4065 181.031L37.1967 180.265C39.1974 178.33 41.3237 176.793 43.5135 175.695C44.8909 174.995 45.9267 173.952 46.775 172.405C47.2894 171.463 47.6844 170.591 47.9822 169.743C49.3295 165.919 50.1324 161.869 50.3727 157.698L50.3841 157.58C50.4171 157.307 50.4722 156.838 49.8804 156.487L49.6979 156.378L49.5397 156.517C49.4486 156.593 49.3575 156.67 49.257 156.744C49.0153 156.931 48.7496 157.132 48.5397 157.389C47.0638 159.171 45.8405 161.102 44.8995 163.109L44.6887 163.557C43.8213 165.401 42.9268 167.31 41.9979 169.158C40.0036 173.101 37.0892 175.698 33.1059 177.091C32.0389 177.461 30.8809 177.756 29.661 177.943C27.216 178.337 24.7641 178.87 22.3855 179.392C21.5175 179.583 20.6402 179.771 19.7747 179.953C18.2026 180.288 16.6335 180.725 15.1076 181.264C11.9798 182.362 8.8609 183.916 5.85065 185.892C4.22372 186.959 2.60366 188.037 0.983602 189.116C-1.21477 190.584 -3.49413 192.091 -5.75149 193.553C-9.21505 195.791 -11.9174 198.425 -14.0149 201.624C-15.4745 203.835 -17.0534 206.266 -18.987 209.267C-19.0939 209.44 -19.128 209.642 -19.1596 209.836C-19.1754 209.932 -19.1912 210.029 -19.2095 210.135L-19.3294 210.657L-18.8279 210.479C-18.7161 210.439 -18.6069 210.407 -18.5096 210.383C-18.3791 210.347 -18.2793 210.314 -18.1795 210.28C-18.0345 210.228 -17.9083 210.171 -17.8078 210.097C-15.2195 208.34 -13.368 206.85 -11.7869 205.277C-11.4289 204.919 -11.0683 204.552 -10.7102 204.194C-10.0588 203.532 -9.40733 202.869 -8.74211 202.231C-5.39222 199.024 -1.51753 196.644 2.78905 195.136C4.87109 194.403 7.09157 193.868 9.38646 193.545C11.473 193.247 13.5901 193.099 15.6338 192.961L15.8798 192.946C16.5775 192.901 17.2684 192.844 17.9593 192.787C20.0601 192.624 21.9165 192.244 23.642 191.638L23.6307 191.604ZM135.974 181.109L135.089 180.499C134.605 180.157 134.094 179.809 133.584 179.49C129.992 177.278 125.88 175.692 121.006 174.648L119.872 174.404C117.343 173.868 114.817 173.322 112.346 172.721C108.332 171.746 104.556 170.22 101.117 168.189L100.378 167.749C98.4549 166.609 96.4711 165.432 94.4408 164.353C92.4036 163.263 90.2065 162.13 87.947 161.192C84.1811 159.628 80.0796 158.64 75.7765 158.253C74.9697 158.178 74.1485 158.119 73.3392 158.054C70.6892 157.858 67.9639 157.642 65.337 157.059C65.2523 157.037 65.1575 157.051 65.0577 157.085C64.9912 157.108 64.9222 157.14 64.8387 157.188C64.7696 157.22 64.6861 157.268 64.5957 157.304L64.31 157.429L64.4471 157.708C64.4997 157.813 64.5429 157.915 64.5929 158.03C64.7068 158.282 64.8182 158.544 64.9892 158.771L65.6037 159.601C66.8559 161.288 68.152 163.037 69.4751 164.723C71.263 167.007 73.3011 168.884 75.5099 170.313C81.2715 174.024 86.8534 176.337 92.5887 177.4C97.9709 178.388 103.472 179.197 108.786 179.985L111.075 180.326C115.43 180.969 119.773 180.983 123.807 180.904C127.924 180.818 131.312 181.12 134.457 181.842C134.673 181.9 134.895 181.899 135.115 181.907L135.601 181.937L135.986 181.102L135.974 181.109ZM7.50328 253.524C7.64478 253.259 7.78374 253.004 7.92523 252.74C8.24214 252.159 8.55908 251.578 8.82458 250.964L9.28703 249.878C10.1528 247.851 11.0575 245.754 11.8281 243.631C13.5397 238.937 15.9209 234.603 18.9065 230.724C19.2037 230.33 19.5009 229.936 19.7888 229.539C20.1998 228.984 20.6183 228.4 21.0645 227.864C24.9941 223.058 28.1559 217.694 30.4548 211.937C31.9865 208.102 34.1342 204.452 36.8393 201.093C38.6829 198.804 40.6419 196.536 42.5381 194.351L43.0319 193.788C43.6583 193.068 44.3317 192.361 44.9788 191.678C45.4142 191.219 45.8521 190.752 46.2805 190.282C48.4492 187.908 50.0092 185.624 51.0736 183.307C52.2657 180.703 53.3626 178.002 54.4317 175.404L55.3605 173.142C55.4838 172.832 55.5294 172.512 55.5731 172.16C55.5996 171.986 55.6117 171.828 55.6452 171.665L55.7185 171.241L55.2942 171.319C55.1474 171.34 55.0313 171.36 54.9246 171.382C54.7564 171.407 54.5908 171.423 54.4433 171.485C53.7151 171.794 53.0151 172.11 52.1814 172.512C51.8908 172.656 51.6001 172.8 51.3069 172.953C50.8611 173.187 50.4537 173.39 50.0419 173.572C44.5697 175.968 40.1693 178.843 36.585 182.36C36.1597 182.78 35.7275 183.189 35.3048 183.6C34.5171 184.357 33.7294 185.114 32.9794 185.881C30.4037 188.569 27.4819 191.608 25.3776 195.208C22.6722 199.848 19.9332 204.802 17.253 209.912C15.9984 212.298 14.8441 214.762 13.722 217.144C13.0407 218.595 12.3865 219.983 11.7041 221.363C10.3657 224.1 9.54759 226.664 9.1932 229.191C8.83494 231.807 8.53246 234.479 8.2552 237.057L8.04838 238.958C7.70267 242.092 7.35698 245.226 7.02321 248.353L6.62538 252.058C6.59746 252.313 6.49137 253.424 6.49137 253.424L7.38313 253.784L7.50766 253.545L7.50328 253.524ZM105.426 201.521L105.14 201.384C102.288 199.985 99.7556 197.995 97.3072 196.069L96.7174 195.598C93.6346 193.179 90.2942 191.608 86.4923 190.781C85.6731 190.602 84.9198 190.44 84.196 190.206C83.6227 190.012 83.0351 189.835 82.4593 189.65C80.8587 189.151 79.2042 188.627 77.6634 187.941C73.4845 186.076 70.0976 183.474 67.6075 180.235C66.8608 179.259 65.8581 178.748 64.6391 178.179L64.2077 177.983L64.2115 178.458C64.2106 178.65 64.2054 178.82 64.2052 178.971C64.1904 179.289 64.1788 179.559 64.2569 179.832C65.4089 183.962 66.5823 188.088 67.7651 192.217L68.2493 193.91C68.4923 194.771 68.9852 195.529 69.7436 196.236C72.9844 199.232 76.1848 201.401 79.5109 202.836C82.3869 204.071 85.2877 204.384 88.1313 203.744L88.7953 203.6C89.8886 203.358 91.022 203.117 92.1122 202.774C95.5041 201.707 98.7074 201.456 101.909 202.001C102.545 202.111 103.191 202.183 103.816 202.26L104.92 202.394L105.423 201.531L105.426 201.521ZM116.753 201.662C117.188 201.507 117.613 201.348 118.041 201.181C118.491 201.009 118.874 200.859 119.242 200.726C119.779 200.527 120.312 200.307 120.813 200.058C121.022 199.953 121.214 199.802 121.405 199.652C121.497 199.576 121.6 199.492 121.712 199.411L121.987 199.213L121.75 198.968C121.648 198.86 121.555 198.754 121.472 198.651C121.266 198.405 121.073 198.182 120.821 198.033L120.315 197.736C119.314 197.145 118.297 196.54 117.222 196.071C114.22 194.742 111.097 194.016 108.434 193.494C102.625 192.331 97.8574 190.327 93.8693 187.373C91.2954 185.463 88.2407 184.181 84.5366 183.44C81.3105 182.798 78.0179 182.178 74.8407 181.579L71.1266 180.876C71.0419 180.853 70.9685 180.864 70.8737 180.879C70.8097 180.892 70.3178 180.921 70.3178 180.921L70.3902 181.253C70.4145 181.35 70.4251 181.424 70.4382 181.488C70.455 181.613 70.4793 181.711 70.5652 181.804L70.6347 181.883C70.8296 182.097 71.022 182.32 71.2432 182.51C74.2636 185.125 77.5679 187.018 81.0601 188.136C83.0201 188.762 84.6452 189.207 86.1682 189.545C90.6431 190.532 94.4055 192.296 97.6524 194.931C99.452 196.381 101.336 197.703 103.287 199.042C105.704 200.709 108.676 201.737 112.638 202.264C114.138 202.464 115.555 202.068 116.746 201.65L116.753 201.662ZM44.4638 288.587C44.5861 288.055 44.6952 287.61 44.7761 287.158C45.0104 285.869 45.2284 284.567 45.4533 283.276L45.4932 283.014C45.9551 280.274 46.4422 277.44 47.0159 274.659C48.1449 269.204 48.2243 263.639 47.2527 257.63C46.2163 251.262 45.7984 246.048 45.9221 241.22C46.2758 227.782 49.8377 216.747 56.8239 207.497C57.9186 206.045 58.888 204.46 59.814 202.923L60.1032 202.446C61.651 199.906 62.5188 197.194 62.6935 194.397C62.8106 192.493 62.8643 190.561 62.9243 188.681L62.9316 188.391C62.9356 188.15 62.8662 187.919 62.79 187.677C62.745 187.544 62.7 187.411 62.66 187.259L62.5245 186.749L61.6757 187.621C61.373 187.923 61.1204 188.188 60.8747 188.465C56.9543 192.86 53.0594 196.444 48.9431 199.425C47.2758 200.642 45.6214 202.075 44.044 203.709C40.6781 207.164 38.358 211.231 37.1567 215.79C35.5268 221.948 35.0658 228.147 35.8001 234.212C36.7823 242.401 37.2215 249.154 37.1795 255.446C37.1599 258.718 37.6821 262.225 38.7735 266.168C39.8405 270.014 40.9457 273.98 41.4798 278.046C41.8124 280.606 42.2203 283.186 42.6107 285.68L42.9009 287.533L42.9257 287.741C42.9991 288.295 43.0899 288.935 43.7812 289.553L44.1535 289.895C44.1535 289.895 44.3957 288.841 44.4544 288.584L44.4638 288.587ZM77.5193 298.896C77.5773 298.68 77.6227 298.51 77.658 298.379C77.726 298.125 77.7808 297.958 77.7792 297.776C77.7695 296.946 77.7573 296.126 77.757 295.299C77.7403 291.937 77.7138 288.461 77.204 285.057C76.0704 277.584 75.9274 270.214 76.7835 263.143C77.1098 260.458 77.12 257.748 77.0886 255.682C77.0148 250.237 75.781 244.643 73.2095 238.095C71.7095 234.285 70.5059 230.272 69.436 226.738C67.7443 221.122 67.0972 216.048 67.4687 211.236C67.4866 211.019 67.4711 210.813 67.4476 210.525C67.4315 210.359 67.3849 209.479 67.3849 209.479L66.9749 209.692C65.7212 210.344 65.0927 211.184 64.5268 212.243C63.7728 213.664 62.9973 215.241 62.0877 217.206C59.7872 222.216 59.0014 227.633 59.7639 233.292C60.3044 237.259 61.2733 241.32 62.745 245.688C64.4212 250.685 66.1719 255.742 67.8544 260.64L67.9107 260.806C68.9674 263.862 70.0147 266.916 71.0595 269.979C72.3249 273.686 73.3071 277.66 73.9842 281.794C73.9842 281.794 76.1062 294.837 76.5354 297.412C76.5759 297.675 76.6496 297.927 76.7408 298.264C76.7946 298.44 76.9276 298.959 76.9276 298.959L77.4615 298.961L77.4817 298.886L77.5193 298.896ZM117.249 202.521C113.518 203.801 109.662 204.189 105.801 203.659L104.208 203.434C102.916 203.249 101.622 203.074 100.335 202.91C98.2241 202.657 96.3938 202.752 94.7438 203.227C91.6219 204.115 88.9169 204.802 85.8614 205.254L85.2928 205.344L85.6945 205.764C87.3501 207.488 88.908 208.561 90.9054 209.348C94.5528 210.789 98.146 211.379 101.6 211.095C104.435 210.866 107.245 210.5 109.944 210.023C114.359 209.239 118.869 208.028 123.72 206.333C124.155 206.177 124.587 206.031 125.013 205.872C129.213 204.346 132.618 201.648 135.121 197.841C135.412 197.395 135.722 196.954 136.022 196.51C136.417 195.94 136.773 195.4 137.13 194.86C137.248 194.68 137.289 194.49 137.357 194.236C137.39 194.113 137.431 193.963 137.476 193.794L137.669 193.149L134.823 194.474C133.337 195.165 131.92 195.824 130.522 196.488L129.922 196.771C129.091 197.163 128.148 197.597 127.284 198.111C124.652 199.655 121.629 201.003 117.79 202.344L117.255 202.533L117.249 202.521ZM135.64 211.483C134.595 209.549 131.612 206.42 129.624 205.182L129.538 205.129L128.549 205.509C127.547 205.936 126.519 206.387 125.488 206.847C125.304 206.929 125.228 207.1 125.172 207.236C125.159 207.283 125.142 207.309 125.123 207.344L125.113 207.381L125.08 207.504C125.14 207.731 125.184 207.905 125.358 207.971C126.081 208.246 126.797 208.508 127.523 208.773C130.012 209.682 132.517 210.606 134.816 211.887C134.973 211.98 135.15 211.957 135.285 211.942C135.325 211.943 135.359 211.932 135.399 211.932L135.895 211.924L135.659 211.488L135.64 211.483ZM153.173 228.957L153.004 228.871C145.98 225.467 139.866 223.597 133.753 222.967C128.974 222.473 124.098 221.479 119.258 220.011C117.448 219.465 115.611 218.943 113.716 218.415C109.991 217.376 106.188 217.154 102.431 217.741C99.5671 218.193 96.6647 218.676 93.8545 219.153L92.0063 219.465C92.0063 219.465 91.973 219.476 91.9636 219.474C91.7854 219.537 91.7062 219.606 91.6202 219.664C91.5555 219.717 91.5291 219.74 91.4959 219.752L91.3383 219.851L91.3588 220.038C91.4551 220.769 92.0075 221.079 92.4477 221.318C92.5718 221.381 92.6772 221.44 92.7706 221.505C99.1452 225.714 105.367 227.784 111.783 227.809C111.935 227.81 112.083 227.819 112.232 227.829C112.43 227.842 112.579 227.851 112.74 227.854C118.43 227.957 123.67 228.685 128.768 230.092C132.74 231.186 137.017 231.485 141.486 230.988C142.381 230.885 143.266 230.78 144.151 230.674C145.797 230.48 147.457 230.269 149.099 230.124C149.854 230.054 150.635 230.072 151.398 230.085C151.769 230.093 152.131 230.1 152.494 230.096L152.421 230.369L152.963 230.08L153.071 230.089L153.163 230.084L153.159 229.911C153.159 229.911 153.206 229.924 153.23 229.91C153.273 229.901 153.311 229.871 153.361 229.834C153.409 229.807 153.45 229.767 153.493 229.718L154.007 229.231C154.007 229.231 153.191 229.153 153.151 229.153L153.152 228.921L153.173 228.957ZM128.333 302.166L128.257 301.923C128.037 301.239 127.817 300.555 127.587 299.868C127.097 298.386 126.601 296.851 126.197 295.311C125.062 291.003 123.591 286.898 121.809 283.083C120.035 279.28 117.975 276.207 115.515 273.683C114.986 273.137 113.74 271.876 113.74 271.876C113.097 271.23 112.456 270.574 111.815 269.918C109.362 267.405 107.442 264.672 106.094 261.8C105.15 259.793 104.318 257.704 103.63 255.604C102.313 251.601 100.191 247.967 97.3235 244.819C97.0033 244.471 96.6762 244.111 96.356 243.763C95.8616 243.237 95.3792 242.704 94.8992 242.162L93.7118 240.836C92.4154 239.389 91.0864 237.914 89.812 236.423C88.0627 234.371 86.8646 232.558 86.026 230.719C85.8871 230.41 85.6593 229.905 84.9226 230.02L84.8799 230.029L84.7656 230.079C84.2295 230.914 84.2171 231.788 84.2098 232.643L84.2063 232.995C84.0991 238.663 85.7334 244.042 89.0409 248.972C90.2165 250.719 91.4763 252.378 92.8726 254.204C95.6979 257.885 97.7495 261.067 99.3482 264.208C100.272 266.029 101.3 267.877 102.497 269.882C104.25 272.822 106.505 275.433 108.69 277.965C108.69 277.965 110.255 279.765 110.902 280.514C113.871 283.921 116.937 287.455 119.596 291.193C121.106 293.311 122.579 295.491 124.001 297.596L124.066 297.694C124.831 298.827 125.59 299.948 126.367 301.074C126.577 301.382 126.822 301.67 127.059 301.955C127.191 302.101 127.538 302.537 127.538 302.537L128.319 302.142L128.333 302.166ZM195.942 265.072C196.111 265.006 196.255 264.884 196.369 264.682L196.472 264.488L196.311 264.334C196.262 264.291 196.225 264.24 196.179 264.188C196.063 264.056 195.938 263.921 195.777 263.808C194.697 263.095 193.62 262.373 192.536 261.638C190.076 259.981 187.523 258.258 184.897 256.728C177.639 252.504 169.421 249.606 160.484 248.109C153.758 246.982 145.91 245.676 137.982 244.439C133.319 243.704 129.104 242.575 125.093 240.986L123.826 240.485C122.739 240.062 121.671 239.645 120.65 239.2C115.148 236.818 109.034 234.646 101.399 232.358C101.097 232.277 100.791 232.215 100.443 232.162C100.231 232.126 100.028 232.091 99.7971 232.05L99.2883 231.954L99.4597 232.443C99.5297 232.634 99.5766 232.797 99.6259 232.952C99.7316 233.272 99.8122 233.536 99.9406 233.772C100.877 235.546 102.101 237.074 103.58 238.327C106.998 241.229 110.74 243.331 114.705 244.565C116.67 245.172 118.801 245.764 121.427 246.427C128.222 248.126 135.53 249.339 145.115 250.374C154.016 251.327 162.669 253.656 171.585 257.487C176.079 259.417 180.74 261.029 185.453 262.292C187.542 262.852 189.626 263.43 191.707 264.018C191.707 264.018 194.07 264.681 195.159 264.983L195.281 265.016C195.455 265.083 195.688 265.155 195.933 265.07L195.942 265.072Z" fill="#695E5C"/>
</svg>
