<svg width="20" height="20" viewBox="0 0 20 20" fill="none" xmlns="http://www.w3.org/2000/svg">
<path d="M2.125 17.875C2.44783 17.5134 5.17923 15.2478 6.25727 14.4081C6.6499 14.1022 7.13151 13.9377 7.62919 13.9377C8.83263 13.9377 11.1516 13.9377 12.3609 13.9377C12.8644 13.9377 13.3508 14.1092 13.7561 14.4079C15.1481 15.4333 16.4531 16.1974 17.875 17.3127M4.375 19H15.625C17.489 19 19 17.489 19 15.625V4.375C19 2.51104 17.489 1 15.625 1H4.375C2.51104 1 1 2.51104 1 4.375V15.625C1 17.489 2.51104 19 4.375 19ZM13.2236 7.44254C13.2236 5.7255 11.7741 4.32258 10 4.32258C8.2259 4.32258 6.77636 5.7255 6.77636 7.44254C6.77636 9.15958 8.2259 10.5625 10 10.5625C11.7741 10.5625 13.2236 9.15958 13.2236 7.44254Z" stroke="#EEFDFF" stroke-width="1.5"/>
</svg>
