<svg width="25" height="25" viewBox="0 0 25 25" fill="none" xmlns="http://www.w3.org/2000/svg">
<path d="M14.6093 3.61523L16.3647 6.98242C16.4953 7.23029 16.6827 7.4437 16.9117 7.60516C17.1406 7.76662 17.4046 7.87154 17.6819 7.91133L21.3897 8.41914C23.3725 8.69258 24.1413 11.1371 22.6749 12.4965L20.1358 14.8395C19.9194 15.0383 19.7569 15.2888 19.6636 15.5676C19.5703 15.8463 19.5492 16.1441 19.6022 16.4332L20.2218 19.8691C20.5663 21.7832 18.5749 23.2754 16.8272 22.4004L13.2835 20.6426C13.0395 20.5232 12.7715 20.4611 12.4999 20.4611C12.2283 20.4611 11.9602 20.5232 11.7163 20.6426L8.17253 22.4004C6.42409 23.2676 4.43347 21.7832 4.778 19.8691L5.39753 16.4324C5.50691 15.8465 5.30378 15.2449 4.86472 14.8387L2.32488 12.4965C0.858469 11.1449 1.62722 8.6918 3.61003 8.41836L7.31784 7.91055C7.59598 7.87324 7.86099 7.76931 8.09032 7.60758C8.31965 7.44585 8.50652 7.23111 8.63503 6.98164L10.3913 3.61523C11.285 1.91992 13.7225 1.91992 14.6085 3.61523H14.6093Z" fill="url(#paint0_linear_416_4701)"/>
<defs>
<linearGradient id="paint0_linear_416_4701" x1="6.75571" y1="3.37687" x2="11.7952" y2="23.5598" gradientUnits="userSpaceOnUse">
<stop stop-color="#E7D993"/>
<stop offset="0.18" stop-color="#C8A251"/>
<stop offset="0.41" stop-color="#E7D993"/>
<stop offset="0.66" stop-color="#C8A251"/>
<stop offset="1" stop-color="#8C6431"/>
</linearGradient>
</defs>
</svg>
