<svg width="32" height="32" viewBox="0 0 32 32" fill="none" xmlns="http://www.w3.org/2000/svg">
<path d="M18.6998 4.62701L20.9468 8.93701C21.114 9.25428 21.3539 9.52744 21.647 9.73412C21.94 9.94079 22.2779 10.0751 22.6328 10.126L27.3788 10.776C29.9168 11.126 30.9008 14.255 29.0238 15.995L25.7738 18.994C25.4968 19.2486 25.2888 19.5692 25.1694 19.926C25.05 20.2827 25.0229 20.664 25.0908 21.034L25.8838 25.432C26.3248 27.882 23.7758 29.792 21.5388 28.672L17.0028 26.422C16.6906 26.2692 16.3475 26.1898 15.9998 26.1898C15.6522 26.1898 15.3091 26.2692 14.9968 26.422L10.4608 28.672C8.22284 29.782 5.67484 27.882 6.11584 25.432L6.90884 21.033C7.04884 20.283 6.78884 19.513 6.22684 18.993L2.97584 15.995C1.09884 14.265 2.08284 11.125 4.62084 10.775L9.36684 10.125C9.72285 10.0773 10.0621 9.94422 10.3556 9.73721C10.6492 9.53019 10.8883 9.25533 11.0528 8.93601L13.3008 4.62701C14.4448 2.45701 17.5648 2.45701 18.6988 4.62701H18.6998Z" fill="#888888" fill-opacity="0.7"/>
</svg>
