<svg width="513" height="1721" viewBox="0 0 513 1721" fill="none" xmlns="http://www.w3.org/2000/svg">
<path d="M-513.196 2226.79C-513.196 2226.79 -170.622 2029.68 -217.774 1245.89C-264.926 462.101 264.973 -4.14829 512.642 -113.068M-519.737 2224.17C-519.737 2224.17 -271.58 2082.97 -201.216 1551.46C-188.823 1459.47 -185.126 1356.25 -191.24 1241.04C-216.223 774.149 -76.0054 412.42 116.311 187.112C247.927 31.7253 404.972 -74.0916 498.271 -115.126M-526.251 2221.53C-526.251 2221.53 -279.131 2082.52 -182.512 1548.01C-165.318 1455.18 -159.416 1351.32 -164.725 1236.18C-186.489 771.202 -83.0179 403.081 99.5083 185.426C228.717 31.3533 396.797 -78.8939 483.879 -117.194M-532.775 2218.9C-532.775 2218.9 -286.707 2082.08 -163.787 1544.54C-141.794 1450.87 -133.688 1346.38 -138.173 1231.32C-156.738 768.253 -90.754 393.654 82.7666 183.726C209.09 30.9028 388.702 -83.7145 469.569 -119.277M-539.288 2216.27C-539.288 2216.27 -294.278 2081.63 -145.06 1541.1C-118.263 1446.57 -107.958 1341.46 -111.638 1226.47C-126.985 765.315 -98.585 384.228 65.9842 182.048C189.381 30.479 380.546 -88.506 455.198 -121.334M-545.831 2213.64C-545.831 2213.64 -304.164 2081.31 -126.354 1537.64C-95.1747 1442.29 -82.2469 1336.52 -85.123 1221.6C-97.2504 762.358 -106.539 374.778 49.2028 180.35C169.615 30.017 372.392 -93.3209 440.827 -123.412M-552.344 2211.01C-552.344 2211.01 -311.896 2080.85 -107.63 1534.19C-71.6894 1437.99 -56.497 1331.59 -58.5707 1216.74C-67.4783 759.418 -114.533 365.333 32.4385 178.672C149.825 29.5799 364.272 -98.108 426.473 -125.473M-558.862 2208.38C-558.862 2208.38 -319.562 2080.39 -88.9017 1530.74C-48.1796 1433.69 -30.7646 1326.66 -32.0334 1211.88C-37.7426 756.471 -122.623 355.863 15.6582 176.985C129.982 29.1148 356.119 -102.911 412.104 -127.539M-565.404 2205.75C-565.404 2205.75 -327.147 2079.91 -70.1998 1527.29C-24.6781 1429.39 -5.06109 1321.74 -5.50402 1207.03C-7.99385 753.534 -130.821 346.404 -1.10491 175.298C110.072 28.6565 347.981 -107.718 397.751 -129.609M-571.923 2203.12C-571.923 2203.12 -334.634 2079.43 -51.4926 1523.83C-1.16831 1425.08 20.6511 1316.8 21.013 1202.16C21.742 750.576 -139.132 336.911 -17.9059 173.601C90.0658 28.1729 339.828 -112.533 383.361 -131.686M-578.442 2200.49C-578.442 2200.49 -342.055 2078.95 -32.768 1520.38C22.38 1420.77 46.3811 1311.87 47.5455 1197.31C51.4937 747.638 -147.529 327.434 -34.6696 171.922C69.9955 27.7071 331.691 -117.328 369.005 -133.735M-584.961 2197.85C-584.961 2197.85 -349.396 2078.48 -14.0421 1516.92C45.9481 1416.47 72.1119 1306.93 74.1016 1192.44C81.2482 744.679 -156.026 317.939 -51.4305 170.223C49.8254 27.2162 323.557 -122.145 354.655 -135.817M-591.496 2195.23C-591.496 2195.23 -354.864 2078.08 4.65965 1513.48C69.8195 1412.18 97.8184 1302.01 100.611 1187.6C110.977 741.753 -164.67 308.462 -68.2175 168.555C29.5303 26.7465 315.397 -126.927 340.279 -137.864M-598.015 2192.6C-598.015 2192.6 -362.412 2077.63 23.389 1510.02C93.3479 1407.88 123.549 1297.08 127.149 1182.73C140.734 738.794 -173.386 298.952 -84.9939 166.847C9.10108 26.2376 307.268 -131.755 325.914 -139.952M-604.534 2189.97C-604.534 2189.97 -369.985 2077.18 42.113 1506.57C116.873 1403.59 149.278 1292.16 153.701 1177.88C170.505 735.855 -182.212 289.461 -101.738 165.168C-11.4818 25.761 299.148 -136.539 311.58 -142.013M-611.071 2187.34C-611.071 2187.34 -377.574 2076.74 60.8022 1503.11C140.364 1399.28 174.972 1287.22 180.199 1173.01C200.202 732.901 -191.238 279.963 -118.556 163.473C-32.3438 25.2642 290.956 -141.353 297.193 -144.091M-617.59 2184.7C-617.59 2184.7 -385.128 2076.29 79.5263 1499.66C487.714 993.107 -217.263 298.794 -135.321 161.795C-53.377 24.7852 282.839 -146.149 282.839 -146.149M-618.863 2177.13C-616.211 2174.94 -395.585 2054.67 48.9533 1498.71C92.4232 1443.89 134.742 1406.7 155.955 1349.04C325.554 888.225 -175.561 325.256 -95.59 189.806C-13.166 51.1303 295.24 -135.909 295.24 -135.909M-620.136 2169.55C-614.829 2165.19 -402.821 2033.29 18.3894 1497.75C61.2171 1443.3 93.05 1387.08 115.01 1330.43C286.157 888.792 -163.928 327.416 -77.0357 178.604C5.86512 38.2725 307.668 -125.671 307.668 -125.671M-621.415 2161.98C-613.449 2155.43 -411.965 2011.76 -12.1842 1496.8C29.8198 1442.7 61.9189 1387.1 84.6266 1331.44C257.007 909.006 -142.449 349.185 -47.8965 187.011C34.8888 45.0093 320.07 -115.439 320.07 -115.439M-622.688 2154.4C-612.063 2145.67 -421.322 1990.21 -42.7536 1495.85C-1.59268 1442.11 30.751 1387.11 54.2482 1332.44C227.543 929.267 -120.412 370.959 -18.7527 195.416C64.4306 51.7444 332.496 -105.201 332.496 -105.201M-623.961 2146.83C-610.684 2135.91 -430.899 1968.63 -73.3199 1494.89C-33.0242 1441.5 -0.435937 1387.11 23.8698 1333.45C197.743 949.556 -98.3333 392.727 10.3674 203.832C94.0094 58.4958 344.898 -94.9498 344.898 -94.9498M-625.235 2139.25C-609.308 2126.16 -440.702 1947.04 -103.892 1493.94C-64.4591 1440.9 -31.6512 1387.14 -6.49039 1334.46C167.561 969.888 -76.1953 414.494 39.5287 212.238C123.626 65.2461 357.321 -84.711 357.321 -84.711M-626.508 2131.68C-607.922 2116.4 -450.721 1925.42 -134.461 1492.99C-95.9317 1440.3 -62.905 1387.17 -36.8675 1335.46C136.987 990.242 -54.0348 436.268 68.6734 220.643C153.271 71.9821 369.747 -74.4724 369.747 -74.4724M-627.781 2124.1C-606.536 2106.64 -460.967 1903.79 -165.028 1492.04C-127.404 1439.7 -94.2214 1387.21 -67.2453 1336.47C105.995 1010.63 -31.8558 458.05 97.7948 229.062C182.911 78.7397 382.132 -64.2293 382.132 -64.2293M-629.06 2116.53C-605.157 2096.88 -471.472 1882.14 -195.596 1491.08C-158.915 1439.08 -125.577 1387.23 -97.6019 1337.46C74.5906 1031.01 -9.63222 479.805 126.96 237.452C212.616 85.4701 394.58 -54.004 394.58 -54.004M-630.333 2108.95C-603.781 2087.13 -482.22 1860.48 -226.189 1490.13C-190.473 1438.47 -157.022 1387.28 -128.007 1338.48C42.6825 1051.44 12.6036 501.594 156.078 245.871C242.273 92.2273 406.979 -43.752 406.979 -43.752M-631.588 2101.38C-602.378 2077.37 -493.195 1838.8 -256.737 1489.18C-222.027 1437.87 -188.504 1387.31 -158.363 1339.49C10.3508 1071.85 35.7907 523.366 185.219 254.286C272.489 98.9806 419.382 -33.5006 419.382 -33.5006M-632.861 2093.8C-600.998 2067.61 -504.474 1817.13 -287.308 1488.22C-253.644 1437.25 -220.11 1387.33 -188.744 1340.49C-22.5139 1092.22 57.9901 545.127 214.36 262.681C302.13 105.706 431.805 -23.2736 431.805 -23.2736M-634.134 2086.23C-599.616 2057.86 -516.02 1795.45 -317.875 1487.27C-285.321 1436.64 -251.814 1387.36 -219.101 1341.49C-55.8804 1112.58 80.1906 566.907 243.505 271.086C331.752 112.455 444.212 -13.0317 444.212 -13.0317M-635.413 2078.65C-598.236 2048.1 -527.834 1773.76 -348.446 1486.32C-317.06 1436.03 -283.662 1387.38 -249.482 1342.51C-89.7657 1132.87 102.388 588.688 272.646 279.504C361.392 119.201 456.636 -2.7929 456.636 -2.7929M-636.68 2071.07C-596.851 2038.34 -539.953 1752.09 -379.012 1485.36C-348.876 1435.41 -315.684 1387.36 -279.858 1343.5C-124.197 1153.04 124.572 610.45 301.789 287.91C391.013 125.95 469.062 7.44517 469.062 7.44517M-637.959 2063.5C-586.901 2021.54 -534.965 1599.5 -310.219 1344.51C-85.4732 1089.52 481.485 17.6844 481.485 17.6844" stroke="#695E5C" stroke-width="1.32107" stroke-miterlimit="10"/>
</svg>
